<?xml version="1.0" encoding="UTF-8" standalone="no"?>
<!-- Created with Inkscape (http://www.inkscape.org/) -->

<svg
   width="210mm"
   height="297mm"
   viewBox="0 0 210 297"
   version="1.1"
   id="svg1"
   xml:space="preserve"
   xmlns="http://www.w3.org/2000/svg"
   xmlns:svg="http://www.w3.org/2000/svg"><defs
     id="defs1" /><g
     id="layer1"
     transform="translate(-131.89633,9.3064451)"><path
       d="m 210.67771,123.18814 c -10.66432,4.69951 -14.31003,3.08254 -17.0213,1.93778 -2.41,-0.96402 -4.94051,-4.69954 -7.8928,-11.50784 l -2.34975,-5.36227 2.95227,-6.50703 c 3.49451,-7.651806 3.97653,-9.459311 3.13303,-12.652576 -0.78326,-2.771519 -2.59078,-4.157278 -5.78405,-4.458539 -2.16901,-0.18074 -2.34976,-0.361492 -3.31377,-3.253518 -2.77152,-8.133797 -9.51955,-14.03833 -15.96634,-14.098583 -7.47104,0 -14.58059,7.531293 -15.60484,16.568852 -0.66277,5.784043 2.10875,14.821605 6.86853,22.352884 1.3255,2.10876 3.73552,7.23004 5.42253,11.38731 7.53131,19.03913 14.58061,28.5587 24.10014,32.35447 2.77153,1.14474 4.45853,1.38575 10.54383,1.38575 6.56728,-0.0604 7.77229,-0.24101 12.89357,-1.98826 3.13302,-1.08452 5.78404,-1.80752 5.96478,-1.68701 0.30126,0.30126 -0.24099,5.06102 -2.651,25.06415 -1.68703,14.27934 -3.37403,27.47416 -5.12128,39.46399 -0.60251,4.63928 -1.32551,9.39905 -1.44601,10.54382 -2.16902,15.42409 -5.00079,29.28167 -6.62755,32.83646 -0.78326,1.62675 -3.19326,4.88026 -5.42253,7.23002 -6.62753,6.92879 -7.71204,11.14632 -4.15728,15.7856 2.53051,3.31377 5.90454,4.51878 13.43583,4.63929 12.11033,0.30125 22.23239,-1.80751 26.51017,-5.42255 2.77152,-2.41 3.43428,-4.21751 3.97654,-10.7848 0.90375,-11.50783 5.84427,-41.57275 8.91705,-53.92408 l 1.44601,-5.72379 0.72301,2.41001 c 2.83174,9.57982 9.70029,51.33333 9.70029,59.22612 0,9.94131 7.59155,14.58059 23.85915,14.58059 8.9773,0 14.33957,-1.32551 17.29186,-4.21752 4.03676,-4.0368 3.25352,-8.97731 -2.41003,-15.30359 -5.48278,-6.14556 -7.23005,-10.78484 -9.82081,-25.84742 -1.44601,-8.61579 -3.79577,-24.76291 -5.12128,-35.6682 -1.26525,-10.42333 -3.37401,-28.25743 -3.91625,-33.43897 -0.36151,-3.49452 -0.84352,-6.98904 -1.02427,-7.83254 -1.44601,-6.32629 5.72377,11.20655 10.60406,26.0884 1.928,5.78403 1.98827,5.90454 1.02425,8.67606 -1.44601,4.21752 -1.80751,8.73629 -0.964,11.2668 0.723,2.28953 3.49451,4.57904 5.54303,4.57904 0.6025,0 1.44602,0.78325 1.92801,1.74726 1.98828,3.79578 7.0493,6.50705 11.02583,5.90454 7.29029,-1.20501 11.86931,-10.36308 9.88104,-19.70186 -0.36151,-1.74727 -1.80751,-5.54305 -3.133,-8.37482 -1.38577,-2.83176 -4.03677,-9.8208 -5.96479,-15.42409 -8.55555,-25.18465 -18.69853,-44.30937 -32.59456,-54.80828 -10.26649,-15.02999 -52.67053,0.57036 -59.43732,1.95894 z M 247.17644,19.291195 c 0,0 -5.15202,-5.355554 -11.61736,-4.333503 -10.37661,1.145752 -10.92487,9.00525 -11.23236,9.067443 0.0826,-0.177941 -8.88635,-2.417259 -14.38457,1.97149 -7.04577,4.308633 -4.26958,11.883423 -4.43888,11.981887 -0.0765,0.207582 -5.7659,-1.802816 -9.71076,3.237829 -4.13756,4.965074 -0.0695,11.697328 -0.0463,11.705786 -0.13851,0.227602 -5.44214,3.950662 -5.40148,9.52039 -0.44399,5.412535 6.36792,9.761207 6.55829,9.943625 0.061,-0.03607 -4.87644,4.575074 -3.08721,10.737975 1.86511,6.160594 7.39476,6.917602 7.39476,6.917602 0,0 -1.64729,4.658692 1.94024,8.092386 5.31257,4.716035 8.90251,0.401127 8.96244,0.581649 -0.0301,0.212489 0.32369,2.863066 1.4715,5.113076 3.06474,7.52954 5.78031,10.03043 10.53116,13.44552 4.82844,4.01448 43.7224,5.01793 50.4654,-0.15226 4.6252,-3.89033 10.15628,-8.65548 12.02207,-13.81751 1.11948,-2.98527 1.75286,-5.010415 1.75286,-5.010415 0.23925,-0.06661 6.56433,1.816865 9.09021,-2.786319 2.27959,-4.154325 -0.44596,-8.693402 -0.44596,-8.693402 -0.14361,-0.02301 5.71657,2.253723 8.47303,-4.617346 2.89295,-7.21129 -3.24695,-10.299395 -3.39257,-10.076365 -0.24216,-0.110604 7.38686,-2.378768 5.98879,-11.008807 -1.72716,-8.455264 -8.52941,-8.07611 -8.29659,-7.94171 0.34849,0.201163 5.30269,-6.007506 1.59217,-11.750019 -2.91646,-6.289115 -11.22912,-5.766787 -11.37375,-5.89797 0,0 0.9488,-6.829867 -6.21347,-11.10808 -5.47701,-3.004226 -12.08793,-1.763175 -12.50044,-1.807021 -0.22493,-0.25636 -2.91961,-7.506726 -11.31052,-8.394016 -7.59055,-1.030142 -13.00354,5.078085 -12.79071,5.078085 z"
       id="path1-8"
       style="display:inline;fill:#000000;stroke:none;stroke-width:0.0602503" /><ellipse
       style="display:inline;mix-blend-mode:difference;fill:#ffffff;stroke:#000000;stroke-width:0.0621931"
       cx="232.94774"
       cy="83.310028"
       rx="12.172122"
       ry="14.426187"
       id="ellipse1-4" /><path
       style="display:inline;mix-blend-mode:difference;fill:#ffffff;stroke:#000000;stroke-width:0.0621931"
       id="ellipse2-2"
       d="M 278.06107,82.87468 A 12.172122,14.426187 0 0 1 265.91419,97.300835 12.172122,14.426187 0 0 1 253.71693,82.934509 12.172122,14.426187 0 0 1 265.81322,68.448772 12.172122,14.426187 0 0 1 278.06065,82.755021" /></g><g
     transform="matrix(0.0621931,0,0,-0.0621931,-27.105184,339.36043)"
     fill="#000000"
     stroke="none"
     id="g2"
     style="display:none"><path
       d="m 2061.1119,5351.6857 c 0,0 -82.8391,86.1117 -186.795,69.6782 -166.845,-18.4225 -175.6605,-144.795 -180.6046,-145.795 1.3284,2.8611 -142.8832,38.867 -231.2888,-31.6995 -113.2886,-69.2783 -68.6504,-191.073 -71.3725,-192.6562 -1.2304,-3.3377 -92.7097,28.9874 -156.1389,-52.0609 -66.5276,-79.8332 -1.1182,-188.0808 -0.7443,-188.2168 -2.2272,-3.6596 -87.504,-63.5225 -86.8501,-153.0779 -7.1389,-87.0279 102.3894,-156.95 105.4504,-159.8831 0.9813,0.58 -78.4081,-73.5624 -49.6392,-172.6554 29.989,-99.0559 118.9,-111.2278 118.9,-111.2278 0,0 -26.4866,-74.9069 31.1971,-130.1171 85.4205,-75.8289 143.143,-6.4497 144.1066,-9.3523 -0.4835,-3.4166 5.2047,-46.0352 23.6603,-82.213 49.2777,-121.067 92.9412,-161.2787 169.3299,-216.1898 77.6364,-64.5486 152.6596,-72.839 146.7692,-82.0765 -6.0338,-9.4622 -40.2485,-19.9181 -112.102,-44.7126 -112,-39 -219,-116 -302,-216 -103.53,-158.1129 -177.0629,-335.532 -254.3684,-506.1777 -12.9966,-24.246 -44.2843,-97.6949 -104.6316,-277.8223 -19,-55 -42,-118 -51,-140 -9,-22 -26,-60 -37,-85 -10,-25 -44.62235,-97.2447 -49.62235,-108.2447 -32,-74 -7.37765,-166.7553 -2.37765,-188.7553 8,-34 28,-69 63,-106 85,-93 254,-71 300,38 6,13 26.7722,55.1168 36.4666,57.7113 5.2498,6.911 66.5334,-6.7113 89.5334,37.2887 29,58 32,115 10,201 -18,67 -14,87 39,249 32,99 125.1558,354.7451 130.1558,360.7451 0.7351,-14.1482 -36.5516,-254.319 -52.1668,-377.2896 -8,-83 -57.0818,-449.7579 -79.7877,-603.0913 -22.706,-153.3333 -23.0303,-212.3134 -52.0423,-317.4487 -29.012,-105.1353 -56.8485,-222.1158 -139.159,-307.9155 -32,-27 -76,-75 -96,-105 -2.851,-4.2357 -120.1484,-162.0941 74,-262.003 55.2111,-28.71069 497.2893,-29.55256 636.2893,29.4504 106.3154,34.5526 58.4214,189.6829 69.4214,283.6829 5,46 30.3169,175.0068 42.7628,266.026 12.4459,91.0192 17.1962,126.8093 31.6056,279.9776 5,46 55.2248,315.5625 52.1766,315.5384 2,3 17.2744,-0.9838 17.2744,-0.9838 19.4686,-49.4077 79.1667,-287.1863 98.3648,-325.0048 22.2893,-93.9861 40.7532,-164.442 53.237,-259.5321 14.3952,-126.8283 31.5831,-199.3454 24.7576,-273.5456 -10.1483,-110.322 18.6944,-236.389 98.1937,-280.6423 182.8704,-61.71545 632.1356,-75.97797 675.5572,-29.87392 161.1563,90.47352 45.8679,232.20932 -13.2112,278.26242 -32,37 -102.3944,95.6316 -121.3944,133.6316 -22.0141,46.421 -67.5838,153.2731 -96.4935,258.2896 -21.1874,109.6498 -61.4681,223.4753 -87.6192,367.0932 -31.5091,181.3595 -65.5698,346.9573 -101.9221,519.6334 -29,136 -65,396 -56,405 4,4 109,-219 139,-295 9,-25 31,-80 48,-123 34,-87 45.5526,-101.5005 22.5526,-165.5005 -8,-23 -21.5526,-110.4995 -21.5526,-143.4995 0,-93 99.7098,-122.7107 125.2893,-121.9609 23.7333,-9.5445 50.1552,-66.6225 62.1552,-87.6225 37,-65 108.5555,-75.4166 188.5555,-42.4166 43,18 111,84 126,123 42,111 29,205 -51,366 -55,112 -69,146 -123,292 -87,241 -167,412 -262,557 -41,64 -173,205 -221,236 -16,11 -50,33 -75,49 -25,17 -83,43 -130,58 -50,16 -77,29 -65,31 42,8 163,73 219,119 70,56 113.066,106.4084 143.066,189.4084 18,48 28.1841,80.5622 28.1841,80.5622 3.8469,1.071 105.5476,-29.2133 146.1612,44.8011 36.6533,66.7972 -7.1707,139.7808 -7.1707,139.7808 -2.309,0.37 91.9166,-36.2375 136.2376,74.2421 46.5155,115.95 -52.2076,165.6035 -54.549,162.0174 -3.8938,1.7784 118.773,38.2481 96.2934,177.0101 -27.7709,135.9518 -137.144,129.8554 -133.4004,127.6944 5.6033,-3.2345 85.2616,96.5944 25.6003,188.928 -46.8936,101.1224 -180.5524,92.7239 -182.878,94.8332 0,0 15.2557,109.8171 -99.906,178.6063 -88.0647,48.3048 -194.3613,28.35 -200.9941,29.055 -3.6165,4.122 -46.9442,120.7003 -181.8612,134.967 -122.0481,16.5636 -208.98,-80.8153 -205.6613,-81.6503 z"
       id="path1" /><ellipse
       style="display:inline;mix-blend-mode:difference;fill:#ffffff;stroke:#000000"
       transform="scale(1,-1)"
       cx="1836.1"
       cy="-4258.3999"
       rx="195.715"
       ry="231.95799"
       id="ellipse1" /><path
       style="display:inline;mix-blend-mode:difference;fill:#ffffff;stroke:#000000;stroke-width:1"
       transform="scale(1,-1)"
       id="ellipse2"
       d="m 2561.475,-4265.3999 a 195.715,231.95799 0 0 1 -195.3091,231.9575 195.715,231.95799 0 0 1 -196.1192,-230.9955 195.715,231.95799 0 0 1 194.4958,-232.9155 195.715,231.95799 0 0 1 196.9258,230.0295" /></g><path
     d="m 11.39579,-145.84212 c 0.82226,-0.69248 -3.45968,-6.26537 -10.16661,-3.83497 -6.29005,2.27933 -6.07913,6.67716 -6.74993,7.17499 0,0 -7.68629,-3.72036 -15.15046,1.66922 -8.66301,6.25522 -5.74423,15.70088 -5.74423,15.70088 -0.2432,0.15584 -7.18422,-0.15945 -9.77936,4.71878 -2.93705,5.52092 -0.59407,7.35544 0.4224,9.86673 0.17938,0.59793 -4.76377,-0.96402 -6.90409,6.12734 -2.42968,8.050028 2.87071,9.569597 2.87071,9.569597 0.78833,0.28037 -4.23492,1.636446 -3.51506,6.021672 0.43714,5.197937 5.96922,6.759521 6.62082,6.670042 0.49461,-0.06792 -2.78186,5.401142 0.0354,8.952169 4.12924,4.822925 10.25938,4.282353 10.25938,4.282353 0.83709,0.298964 -3.74298,5.33208 2.94029,10.104482 6.44923,4.605272 9.53496,-0.662494 9.8936,-0.881954 0.38857,-0.07147 3.6309,7.53765 6.31998,10.262269 2.27212,2.21232 4.12569,4.12569 4.12569,4.30505 0,0.11961 -0.71752,0.41855 -1.6144,0.65773 -3.22879,0.7773 -8.90909,3.82672 -11.53996,6.15863 -2.63088,2.27211 -3.79947,4.75631 -5.58545,8.08326 -3.06549,5.71042 -4.25115,15.82933 -3.89496,20.45935 0.33934,4.41106 2.67765,9.68266 4.22367,11.46149 0.8371,1.6144 2.80525,2.44859 2.62586,4.06299 -0.11966,1.31543 -0.47833,4.0061 -0.65771,5.97925 -0.23917,1.97314 -0.53813,4.36484 -0.7175,5.38133 -0.11967,0.95668 -0.35876,3.28858 -0.53814,5.08237 -0.11966,1.79376 -0.65773,5.5009 -1.19586,8.25136 -0.47833,2.75045 -1.3495,7.87852 -1.5546,9.6864 -0.40362,3.55778 -1.54296,8.30577 -1.91337,12.25745 -1.31123,5.81302 -2.24537,11.81823 -3.76692,17.579 -1.56254,8.30737 -3.40763,16.56994 -6.15863,24.57474 -3.68605,10.64155 -7.62763,23.33628 -7.05552,27.50458 0.35877,2.87002 0.7175,3.58753 2.87004,5.44111 2.57108,2.21231 6.81635,3.82672 14.64918,5.68028 5.32153,1.19587 19.25318,1.5546 23.1397,0.53813 2.302,-0.30483 3.6481,-0.83441 5.44112,-2.2721 4.18547,-3.52776 3.94631,-8.31116 -0.65772,-13.15436 -1.25564,-1.25565 -3.46797,-2.92984 -4.96277,-3.70714 -3.2886,-1.73397 -6.51739,-4.60404 -6.51739,-5.91948 7.69614,-17.90987 9.57053,-38.68623 17.65795,-56.34658 0.89127,-1.07707 2.3499,-1.90315 3.747767,-1.88264 1.630467,0.0239 3.804956,2.0623 4.305062,2.32323 0.8775,0.45783 4.364857,6.81635 6.278224,11.59974 1.614395,3.82673 5.082362,14.76876 5.201952,16.26357 2.896125,7.78478 2.973035,16.16385 4.902979,24.0964 0.119656,0.47833 0.418552,2.75045 0.597925,5.08236 0.896899,10.70285 1.793769,12.7956 6.397805,15.1275 4.006089,1.97317 15.067712,3.76693 23.558266,3.76693 10.523482,0 17.160445,-1.67419 18.774849,-4.72361 1.016469,-1.85357 0.896889,-5.68028 -0.119665,-7.71323 -4.678057,-5.57434 -9.644059,-8.03693 -15.665649,-10.70286 C 62.424172,103.222 60.77051,95.32927 59.82208,90.33384 58.93336,85.39584 57.856913,80.26202 56.606973,75.40827 54.872999,68.41254 53.617362,64.10748 50.0896,52.98607 46.920586,42.70175 46.801006,42.28321 47.697896,42.82133 c 1.315441,0.77732 5.44111,-1.01646 7.952404,-3.52775 1.674198,-1.6144 3.408173,-2.75046 4.723604,-2.98963 3.10922,-0.59793 4.902988,-2.75046 4.902988,-6.21843 0.05979,-2.57106 0.239169,-2.92982 2.152535,-3.94628 3.288594,-1.734 8.66992,-6.09885 11.061615,-8.8493 1.255637,-1.43504 3.049425,-4.30506 4.065894,-6.33802 1.614404,-3.52775 2.310319,-3.99336 2.011356,-8.17883 -0.358758,-5.38133 -2.190721,-8.38369 -6.675176,-14.36296 -5.620494,-7.53385 -13.572898,-14.64916 -21.525311,-19.25317 -5.560699,-3.22881 -13.871861,-7.11531 -16.383154,-7.65346 -1.913358,-0.41854 -1.853563,-0.47833 4.185492,-3.16899 5.680288,-2.57108 6.696757,-3.28859 12.078082,-8.55034 4.962774,-4.962774 6.158635,-6.517378 8.131788,-10.762651 3.587546,-7.773028 4.424641,-11.59975 4.484436,-20.927386 l 0.05979,-8.131784 c 0.194342,-0.07631 8.429512,4.427317 10.515396,-7.052798 1.83186,-10.082041 -6.32055,-10.713101 -6.455306,-11.041631 0,0 10.758839,-4.63605 5.696199,-14.04078 -5.364418,-9.96533 -12.387053,-4.55647 -12.642492,-4.46183 0,0 4.416014,-6.86295 -2.274691,-12.28824 -4.469668,-3.62432 -12.948703,0.53068 -13.339851,0.52971 -0.159898,-0.21757 2.747212,-6.64047 -5.917344,-10.48862 -7.875685,-4.38839 -13.039603,3.88098 -12.787099,4.11242 -0.02702,-0.39378 -1.659879,-6.65754 -9.704545,-7.05344 -7.041135,-0.68743 -10.930906,6.24365 -10.618716,5.98074 z m 43.357706,53.950893 c 1.793779,1.076267 4.90298,5.560708 5.381336,7.653447 0.53813,2.810247 0.179364,8.311161 -0.717525,10.463692 -1.195843,2.750457 -4.065894,5.979253 -6.517374,7.294689 -3.527762,1.793775 -9.925575,0.119575 -12.197681,-3.228797 -4.54423,-6.696763 -3.946305,-14.768755 1.375226,-20.508839 1.554611,-1.674192 3.408173,-3.04942 4.305062,-3.169003 2.630873,-0.41855 6.278206,0.239169 8.370956,1.494811 z m -39.164112,-0.358754 c 4.723615,1.6144 7.653451,5.381329 8.849294,11.420373 0.538131,2.750458 -0.89688,9.327635 -2.511275,11.181205 -4.42466,5.261742 -7.65345,6.63697 -13.094583,5.560705 -0.83709,-0.119593 -1.67418,-0.298963 -1.91335,-0.358756 -0.23917,0 -1.37522,-0.896887 -2.57108,-1.913361 -6.21842,-5.441119 -6.51739,-16.143984 -0.71751,-22.601577 1.37524,-1.494813 6.63697,-4.24527 8.25137,-4.24527 0.47834,0 2.212329,0.418548 3.707134,0.956681 z m 33.065263,77.431321 c 2.451498,1.97315 5.441128,4.8432 6.696766,6.33802 1.195862,1.435 2.810256,3.34837 3.527762,4.18546 2.690667,3.2288 2.870051,4.06589 1.494825,6.87616 -0.717524,1.43501 -1.793788,3.169 -2.451499,3.8865 -1.076263,1.31544 -1.195862,1.31544 -3.766931,0.41855 -4.006098,-1.43501 -11.240988,0 -15.904817,3.16901 -0.896889,0.59792 -2.152526,1.07627 -2.810256,1.13606 1.208427,0.26357 5.963464,-2.09389 8.893291,-3.05056 1.567345,0.67431 0.264807,-7.79814 0.264807,-7.79814 -0.156963,-1.90411 -0.675309,-8.06657 -0.836137,-11.40896 -0.156958,-3.26197 -0.429343,-7.39944 0.108799,-7.39944 0.179364,0 2.3319,1.61441 4.78339,3.64734 z"
     id="path1-1"
     style="display:none;fill:#000000;stroke:none;stroke-width:0.0597926" /></svg>
