<?xml version="1.0" standalone="no"?>
<!DOCTYPE svg PUBLIC "-//W3C//DTD SVG 20010904//EN"
 "http://www.w3.org/TR/2001/REC-SVG-20010904/DTD/svg10.dtd">
<svg version="1.0" xmlns="http://www.w3.org/2000/svg"
 width="1024.000000pt" height="1024.000000pt" viewBox="0 0 1024.000000 1024.000000"
 preserveAspectRatio="xMidYMid meet">
<metadata>
Created by potrace 1.16, written by Peter Selinger 2001-2019
</metadata>
<g transform="translate(0.000000,1024.000000) scale(0.100000,-0.100000)"
fill="#000000" stroke="none">
<path d="M4270 9557 c0 -8 7 -18 16 -21 20 -8 8 -26 -17 -26 -11 0 -22 -7 -25
-15 -8 -20 -23 -19 -46 2 -15 14 -19 14 -16 3 3 -13 -25 -15 -187 -16 -104 -1
-207 -6 -227 -12 -21 -6 -49 -9 -63 -8 -14 2 -25 -1 -25 -5 0 -5 6 -9 14 -9 8
0 16 -6 19 -14 3 -7 19 -16 36 -19 22 -5 29 -11 25 -22 -7 -18 -30 -20 -37 -2
-3 7 -6 4 -6 -6 -1 -12 -7 -17 -18 -15 -10 1 -24 -1 -32 -6 -7 -5 -30 -11 -50
-13 -20 -3 -57 -13 -83 -23 -27 -10 -45 -14 -42 -8 4 6 -3 5 -15 -1 -25 -14
-27 -31 -3 -32 102 -3 176 1 185 10 6 6 31 11 55 11 48 0 122 19 122 30 0 4
16 11 36 14 42 8 41 31 -1 31 -16 0 -30 5 -32 12 -5 15 14 26 29 17 15 -10 60
-13 73 -5 6 3 19 6 30 7 11 0 39 4 62 8 36 6 42 5 47 -12 5 -14 13 -19 29 -15
21 4 21 4 4 -11 -11 -8 -24 -13 -31 -10 -6 2 -12 -5 -13 -16 -2 -19 -1 -19 30
-4 21 12 32 13 35 5 2 -6 10 -11 18 -11 9 0 12 -5 9 -11 -4 -6 -9 -8 -12 -5
-3 3 -22 -2 -42 -10 -38 -17 -119 -20 -134 -5 -13 13 -59 -9 -53 -25 3 -7 -9
-14 -32 -17 -60 -10 -71 -13 -78 -20 -4 -4 -15 -7 -25 -7 -12 0 -16 -6 -12
-19 7 -26 -3 -29 -79 -33 -37 -1 -64 -6 -62 -10 3 -5 -2 -8 -10 -8 -9 0 -16 4
-16 9 0 12 -77 20 -230 23 -120 2 -140 0 -180 -19 -25 -12 -55 -24 -67 -28
-21 -6 -34 -27 -15 -24 4 1 39 1 77 0 l70 -2 -45 -14 c-26 -8 -74 -13 -118
-11 -42 2 -68 0 -60 -5 7 -5 8 -9 3 -9 -6 0 -16 5 -23 12 -9 9 -12 9 -12 -2 0
-11 -3 -11 -12 -2 -17 17 -35 15 -68 -9 -16 -12 -36 -19 -44 -16 -9 4 -16 2
-16 -3 0 -6 -9 -10 -20 -10 -11 0 -36 -9 -56 -19 -20 -11 -43 -17 -52 -14 -10
4 -13 2 -8 -5 4 -7 0 -15 -11 -19 -10 -3 -25 -12 -33 -19 -8 -7 -19 -13 -25
-14 -22 -5 -47 -29 -40 -40 5 -8 0 -11 -16 -8 -13 2 -23 8 -22 14 4 20 -45 2
-50 -18 -11 -40 8 -55 42 -33 10 5 16 4 19 -3 6 -20 21 -13 17 7 -3 19 12 31
45 37 57 10 93 16 153 22 59 7 67 6 61 -7 -14 -38 -13 -49 7 -44 10 3 26 0 34
-7 8 -7 15 -9 15 -5 0 4 6 3 13 -2 20 -15 78 -17 75 -2 -5 23 53 42 124 41 88
-1 108 -7 103 -32 -4 -22 11 -28 17 -7 4 18 108 1 108 -19 0 -8 -10 -15 -22
-16 -13 0 -29 -2 -37 -2 -8 -1 -17 -11 -22 -23 -6 -17 -19 -24 -59 -29 -27 -4
-50 -10 -50 -15 0 -16 -44 -32 -90 -33 -28 -1 -58 -10 -76 -22 -17 -12 -42
-20 -62 -18 -41 2 -48 9 -32 29 11 13 15 13 22 3 7 -10 8 -10 5 2 -2 8 -10 14
-16 13 -6 -2 -11 1 -11 5 0 5 -7 9 -15 9 -8 0 -12 -4 -9 -9 4 -5 -3 -12 -15
-15 -11 -3 -19 -9 -16 -13 3 -5 -4 -11 -15 -15 -11 -3 -20 -13 -20 -21 0 -17
-14 -18 -32 -1 -22 21 -56 20 -68 -2 -8 -16 -8 -21 2 -21 9 -1 7 -5 -4 -13
-10 -8 -13 -18 -9 -26 5 -7 10 -12 12 -11 2 0 21 -6 42 -15 33 -14 37 -18 26
-31 -7 -9 -21 -13 -30 -11 -10 3 -19 1 -21 -4 -2 -6 -15 -11 -30 -13 -15 -1
-33 -8 -41 -14 -36 -30 -137 -56 -122 -32 9 14 -4 52 -15 45 -5 -3 -7 -12 -4
-20 6 -15 -40 -40 -56 -30 -5 3 -11 -3 -15 -14 -3 -10 -30 -31 -60 -47 -30
-15 -55 -31 -55 -35 0 -5 -20 -17 -44 -28 -52 -23 -104 -90 -80 -104 8 -4 14
-15 14 -22 0 -8 4 -15 10 -15 5 0 7 7 3 16 -4 12 -2 15 8 12 7 -2 27 10 43 29
29 33 31 33 92 27 55 -6 66 -4 90 15 20 15 30 18 35 10 4 -7 16 -9 28 -6 26 6
27 -1 4 -20 -10 -8 -12 -12 -5 -8 14 7 17 -11 3 -19 -5 -4 -21 -7 -34 -8 -14
-1 -24 -6 -21 -10 3 -4 -5 -12 -18 -19 -12 -6 -31 -20 -42 -31 -12 -10 -29
-17 -38 -14 -10 2 -16 0 -12 -5 3 -5 -10 -9 -28 -9 -21 0 -28 -3 -20 -8 9 -6
6 -12 -13 -20 -29 -13 -32 -6 -8 20 9 10 13 21 10 24 -11 11 -97 15 -97 4 0
-5 -18 -10 -39 -10 -34 0 -38 2 -34 20 3 11 14 25 24 31 30 15 22 31 -12 25
-34 -5 -32 -4 -47 -31 -6 -11 -19 -20 -29 -20 -14 0 -17 -6 -15 -28 2 -16 -3
-36 -10 -45 -10 -14 -10 -15 2 -4 18 16 35 16 18 -1 -32 -31 -71 -56 -79 -51
-5 3 -9 -2 -9 -10 0 -16 -16 -20 -53 -16 -16 1 -17 -2 -8 -19 9 -16 7 -23 -17
-39 -15 -10 -34 -22 -42 -25 -11 -4 -12 -6 -1 -6 11 -1 11 -4 1 -16 -7 -8 -10
-26 -8 -39 4 -18 -1 -28 -19 -37 -12 -7 -21 -14 -19 -16 2 -3 -2 -20 -10 -39
l-14 -34 31 4 c17 1 35 9 40 17 7 11 9 11 9 1 0 -7 5 -10 10 -7 5 3 10 -1 10
-11 0 -12 -7 -15 -29 -12 -17 2 -28 1 -26 -3 3 -4 -2 -12 -10 -19 -10 -8 -15
-31 -15 -70 0 -44 -4 -59 -16 -64 -9 -4 -19 -4 -22 -1 -3 3 0 5 6 5 7 0 12 10
12 22 0 12 -3 19 -6 15 -4 -3 -13 0 -21 8 -16 17 -48 21 -38 5 3 -5 0 -10 -7
-10 -14 0 -60 -54 -71 -83 -4 -10 -10 -16 -15 -13 -4 2 -9 -5 -9 -16 -1 -12
-6 -24 -10 -27 -14 -10 -9 -36 8 -39 8 -1 28 8 43 21 17 15 36 23 47 20 11 -3
19 0 19 6 0 6 7 11 15 11 22 0 18 -11 -15 -49 -16 -18 -28 -36 -26 -40 2 -3
-11 -14 -30 -23 -19 -10 -34 -13 -34 -8 0 5 -9 2 -20 -8 -12 -9 -24 -17 -28
-18 -4 0 -15 -4 -24 -8 -9 -4 -23 -4 -29 0 -9 5 -10 2 -6 -9 3 -10 2 -17 -4
-17 -6 0 -3 -7 6 -16 12 -12 19 -13 29 -5 10 9 15 8 20 -4 4 -10 -2 -19 -17
-24 -27 -11 -82 -62 -89 -82 -4 -12 -7 -12 -20 -1 -25 20 -191 26 -227 8 -33
-17 -49 -46 -25 -46 8 0 13 -4 10 -8 -3 -5 11 -8 29 -8 19 1 35 4 35 9 0 20
110 -7 110 -28 0 -5 5 -3 10 5 8 13 10 13 10 -2 0 -9 -14 -27 -31 -40 -53 -39
-110 -99 -104 -109 4 -5 -1 -9 -10 -9 -9 0 -14 -4 -10 -9 3 -5 1 -12 -5 -16
-17 -10 -11 -25 10 -25 25 0 27 -15 3 -18 -10 -1 -29 -3 -43 -6 -14 -2 -29 -5
-35 -5 -5 -1 -3 -6 5 -11 13 -8 13 -10 -1 -10 -22 0 -53 -67 -50 -108 1 -25
-5 -41 -24 -59 -29 -30 -31 -41 -10 -49 14 -6 13 -8 -2 -20 -17 -13 -17 -15 1
-25 15 -9 16 -13 5 -20 -11 -6 -8 -9 9 -10 12 -1 27 -3 32 -4 6 -1 15 -3 20
-4 6 0 10 -6 10 -12 0 -8 -5 -8 -15 1 -10 9 -15 9 -15 1 0 -12 -21 -11 -31 2
-3 4 -17 3 -31 -2 -18 -7 -29 -6 -37 2 -7 7 -11 7 -11 0 0 -5 -11 -8 -24 -6
-17 4 -32 -3 -49 -18 -27 -27 -42 -59 -26 -59 6 0 8 -4 5 -9 -3 -4 6 -6 21 -3
19 4 24 1 21 -9 -3 -8 -11 -13 -17 -11 -7 1 -10 -2 -6 -7 3 -6 12 -8 20 -5 10
4 13 0 11 -13 -2 -11 5 -30 16 -44 11 -13 16 -18 12 -10 -5 9 -3 12 4 7 18
-11 14 -23 -8 -29 -11 -3 -20 -1 -20 4 0 5 -7 9 -15 9 -8 0 -15 -4 -15 -9 0
-5 -3 -16 -6 -25 -4 -11 -1 -16 10 -16 9 0 15 -6 13 -12 -1 -7 5 -13 13 -12
12 1 15 -8 13 -38 -1 -26 2 -36 9 -32 7 5 8 2 2 -7 -17 -27 -12 -39 14 -39 16
0 32 -8 40 -20 11 -18 10 -20 -8 -20 -11 0 -20 -4 -20 -9 0 -6 12 -6 30 -1 19
5 28 5 25 -1 -4 -5 -13 -9 -21 -9 -8 0 -14 -4 -14 -8 0 -4 -9 -8 -20 -9 -11
-1 -20 1 -20 5 0 4 -10 13 -21 21 -19 11 -21 11 -15 -4 4 -11 2 -15 -6 -12 -7
2 -12 12 -10 21 3 14 -1 15 -15 9 -22 -11 -98 -10 -134 1 -20 6 -31 2 -49 -17
-20 -20 -31 -24 -60 -20 -19 3 -43 10 -52 14 -11 6 -18 5 -21 -4 -3 -6 -6 -7
-6 -1 -1 15 -58 5 -72 -12 -6 -8 -17 -14 -23 -14 -6 0 -11 -13 -12 -29 -1 -24
2 -27 19 -23 14 4 18 2 12 -7 -6 -10 -3 -11 11 -3 11 5 46 10 79 11 47 1 57
-1 47 -11 -17 -17 -15 -26 6 -24 13 1 18 -8 20 -38 4 -51 32 -82 60 -67 32 17
75 14 68 -5 -3 -8 -2 -12 4 -9 5 3 12 -6 16 -20 5 -19 1 -30 -17 -45 -13 -11
-29 -18 -34 -16 -6 2 -11 -16 -12 -40 -1 -25 2 -42 7 -39 5 3 10 -1 12 -7 3
-9 26 -13 67 -14 42 0 66 -5 71 -14 10 -16 4 -30 -13 -30 -9 0 -9 2 0 8 9 6 7
11 -8 20 -18 11 -19 10 -13 -13 3 -14 2 -25 -2 -24 -21 3 -35 -2 -29 -11 3 -6
-1 -7 -9 -4 -10 4 -18 -1 -23 -12 -3 -11 -11 -22 -17 -26 -16 -11 -17 -50 -1
-68 8 -9 13 -20 10 -23 -3 -4 0 -3 6 2 13 11 79 3 94 -11 6 -6 4 -9 -7 -6 -9
1 -16 -1 -16 -7 1 -5 9 -9 18 -7 18 3 33 -27 31 -63 0 -13 14 -30 42 -49 23
-16 36 -31 29 -34 -6 -2 -10 -7 -7 -12 3 -5 -9 -23 -27 -40 -17 -18 -32 -39
-33 -49 0 -9 -5 -23 -10 -31 -12 -18 -14 -60 -4 -60 4 0 15 -7 24 -16 9 -9 33
-17 53 -18 20 -1 40 -5 44 -11 5 -6 8 -5 8 3 0 14 58 16 80 2 13 -9 13 -10 0
-10 -12 -1 -10 -4 4 -15 22 -17 28 -82 7 -77 -7 1 -10 -2 -6 -7 3 -6 -3 -27
-14 -47 -24 -43 -22 -49 18 -57 37 -8 99 -61 83 -71 -7 -4 -12 -2 -12 3 0 6
-7 11 -16 11 -8 0 -13 -3 -11 -8 3 -4 -25 -8 -61 -10 -46 -2 -68 1 -73 10 -7
10 -14 7 -33 -14 -15 -15 -21 -28 -14 -30 16 -6 -13 -48 -33 -48 -8 0 -31 -14
-49 -30 -19 -17 -40 -28 -47 -26 -7 3 -13 1 -13 -4 0 -13 77 -13 85 0 3 6 25
10 47 10 25 0 49 7 60 17 10 9 35 18 54 20 20 1 42 7 48 13 7 5 16 7 19 3 4
-3 15 3 24 13 15 17 23 18 48 9 25 -8 30 -15 30 -42 0 -17 -2 -33 -5 -35 -31
-20 -48 -25 -63 -16 -11 6 -17 5 -17 -2 0 -22 -2 -26 -22 -47 -12 -13 -30 -23
-40 -23 -10 0 -18 -5 -18 -11 0 -11 -29 -5 -67 13 -18 9 -27 7 -50 -13 -26
-22 -27 -26 -16 -49 7 -15 13 -19 13 -10 1 9 5 6 10 -7 8 -20 12 -21 42 -12
18 6 42 21 54 34 22 24 64 25 93 1 11 -8 15 -8 18 2 5 14 33 17 33 3 0 -8 -53
-31 -73 -31 -4 0 -23 -7 -43 -15 -43 -18 -47 -18 -39 -5 3 6 1 10 -5 10 -7 0
-9 -7 -6 -16 4 -10 -4 -21 -24 -32 -16 -9 -30 -22 -30 -29 0 -17 -39 -26 -55
-13 -11 9 -15 9 -15 1 0 -6 4 -11 9 -11 5 0 7 -9 4 -20 -3 -11 -9 -20 -14 -20
-5 0 -9 -14 -9 -31 0 -16 4 -28 9 -24 5 3 12 1 16 -5 3 -5 1 -10 -6 -10 -7 0
-9 -3 -6 -6 4 -4 14 -1 23 7 18 15 44 21 44 10 0 -5 11 -6 24 -4 34 7 52 -27
26 -49 -21 -19 -31 -14 -24 10 4 13 3 13 -6 -1 -7 -10 -10 -21 -7 -24 3 -2 -4
-14 -15 -25 -16 -16 -32 -21 -72 -19 -28 1 -58 4 -67 6 -23 7 -58 -25 -61 -55
-3 -22 1 -25 27 -26 17 0 40 8 52 19 12 11 28 17 35 14 8 -2 22 1 33 9 10 8
26 14 36 14 24 0 70 -26 61 -34 -13 -13 22 -2 36 12 8 7 19 11 25 9 12 -4 17
-47 5 -47 -8 0 -12 16 -9 33 1 5 -3 6 -8 2 -6 -3 -8 -12 -5 -19 6 -16 -10 -28
-46 -34 -41 -6 -44 -5 -67 2 -15 5 -23 3 -23 -4 0 -6 -4 -8 -10 -5 -5 3 -10 2
-10 -3 0 -9 -49 -33 -72 -36 -37 -5 -33 -74 4 -72 14 0 22 -4 21 -11 -3 -14
23 -18 31 -5 2 4 22 9 43 10 55 4 70 10 76 32 3 11 13 23 22 26 22 9 40 -18
20 -29 -16 -9 -55 -88 -54 -109 0 -7 4 -4 8 6 7 17 8 17 14 3 4 -11 -1 -18
-15 -23 -11 -3 -28 -13 -39 -22 -17 -15 -32 -19 -91 -26 -16 -2 -32 -4 -38 -5
-5 0 -10 -14 -10 -31 0 -32 17 -39 38 -18 10 10 15 10 22 -2 7 -10 10 -11 10
-3 0 7 3 12 7 11 9 -2 60 11 83 20 8 3 20 7 25 7 13 2 42 13 83 31 40 17 55
18 24 1 -22 -13 -22 -13 14 -26 23 -8 34 -18 30 -27 -3 -7 0 -16 6 -20 7 -4 8
-3 4 4 -4 7 -2 12 3 12 6 0 11 -9 11 -20 0 -23 -10 -26 -29 -8 -10 11 -11 10
-6 -4 5 -13 -2 -17 -34 -23 -22 -4 -53 -5 -68 -4 -30 3 -73 -15 -73 -31 0 -5
10 -12 22 -15 25 -6 52 -51 37 -61 -5 -3 -7 -10 -3 -15 3 -5 10 -7 15 -4 5 4
9 2 9 -3 0 -16 79 -17 94 -2 17 17 66 12 66 -6 0 -10 -6 -14 -15 -11 -8 4 -17
2 -20 -3 -3 -5 12 -6 32 -4 21 3 49 2 62 -1 23 -6 23 -6 5 -27 -11 -11 -28
-24 -39 -28 -19 -8 -19 -9 5 -19 l25 -10 -22 -7 c-28 -8 -30 -34 -3 -34 11 0
20 -7 20 -15 0 -8 5 -15 11 -15 5 0 7 -5 3 -12 -5 -8 -2 -9 9 -5 13 5 16 1 13
-16 -3 -12 -5 -31 -6 -42 -1 -19 -1 -19 -11 -2 -8 13 -14 15 -23 7 -10 -7 -16
-7 -24 3 -12 14 -36 69 -34 78 1 3 -11 4 -26 1 -18 -4 -22 -7 -12 -11 9 -3 15
-12 14 -18 -1 -7 -2 -18 -3 -24 -1 -8 -5 -8 -14 0 -10 8 -14 7 -14 -4 0 -8 3
-15 7 -15 3 0 7 -17 8 -37 3 -40 15 -53 47 -53 11 0 33 -7 49 -15 32 -17 106
-20 106 -5 0 22 16 8 18 -15 1 -14 -3 -25 -9 -25 -6 0 -3 -7 5 -16 9 -8 16
-23 16 -33 0 -9 5 -22 11 -28 7 -7 3 -9 -15 -6 -14 3 -24 9 -21 13 3 4 -4 10
-15 13 -11 3 -18 1 -15 -3 3 -5 1 -11 -5 -15 -5 -3 -10 2 -11 12 0 10 -3 13
-6 6 -2 -7 -11 -13 -19 -13 -9 0 -13 -5 -9 -12 4 -7 0 -5 -8 5 -13 16 -14 14
-12 -25 2 -24 8 -72 14 -107 6 -35 8 -67 6 -72 -3 -4 1 -9 7 -12 10 -3 10 -9
2 -23 -17 -31 -6 -54 24 -53 17 1 21 3 9 6 -9 2 -17 14 -17 25 0 21 1 21 26
-3 18 -16 38 -24 65 -25 21 0 39 3 39 8 0 5 7 2 16 -6 8 -9 20 -16 25 -16 6 0
23 -15 40 -32 23 -25 29 -42 29 -75 0 -42 1 -43 33 -43 26 -1 29 -2 15 -11
-27 -15 -22 -25 12 -23 17 1 33 -3 37 -9 3 -7 2 -9 -2 -4 -5 4 -16 0 -26 -9
-10 -9 -25 -14 -33 -11 -22 9 -29 -9 -11 -26 8 -9 15 -20 15 -26 0 -6 13 -9
30 -7 17 2 30 -1 30 -5 0 -5 -4 -9 -10 -9 -5 0 -10 -9 -10 -19 0 -11 -5 -23
-12 -27 -6 -4 -8 -3 -5 3 4 6 -10 15 -33 21 -24 6 -42 6 -46 1 -3 -5 -2 -9 3
-8 27 5 53 -2 47 -13 -5 -7 -3 -8 7 -3 12 8 12 6 0 -8 -7 -9 -18 -14 -25 -11
-6 3 -2 -2 9 -11 20 -17 20 -17 -5 -10 -14 4 -30 12 -37 17 -7 6 -13 4 -16 -4
-4 -8 -6 -7 -6 5 -1 19 -16 23 -26 7 -11 -18 -27 -11 -20 9 3 11 1 22 -4 26
-7 3 -8 0 -5 -9 6 -17 -11 -22 -20 -7 -3 5 -20 14 -36 20 -54 18 -48 -12 13
-71 34 -33 52 -59 49 -68 -4 -12 -3 -13 10 -2 13 10 18 10 29 -1 8 -7 22 -16
32 -20 11 -4 15 -12 11 -18 -4 -7 -3 -9 3 -6 14 9 37 -19 27 -34 -5 -8 -3 -9
6 -4 8 5 17 2 24 -6 6 -8 30 -23 53 -34 31 -14 43 -26 44 -42 1 -22 3 -34 9
-50 1 -5 3 -12 4 -18 8 -40 67 -155 80 -155 6 0 18 -9 26 -20 8 -11 22 -20 31
-20 14 0 17 8 14 44 -1 24 -6 49 -9 55 -7 10 -10 23 -23 81 -3 14 -11 28 -17
32 -8 6 -8 8 1 8 6 0 18 -6 25 -13 7 -6 22 -14 33 -15 11 -2 23 -8 26 -13 3
-5 13 -7 23 -3 17 6 59 -10 82 -31 10 -10 38 -84 36 -95 0 -3 7 -14 17 -25 31
-34 33 -44 14 -76 -12 -20 -24 -29 -35 -25 -10 2 -21 0 -24 -5 -7 -12 -74 -11
-131 2 -75 18 -95 28 -87 42 6 9 5 9 -7 0 -8 -7 -20 -8 -28 -4 -16 10 -67 -2
-64 -15 1 -5 17 -13 35 -17 43 -11 57 -24 53 -47 -4 -19 19 -30 63 -30 13 0
20 -4 17 -10 -4 -6 1 -7 11 -3 13 5 15 3 9 -7 -5 -8 -4 -11 3 -6 6 3 26 -3 44
-14 18 -11 41 -20 51 -20 9 0 17 -6 17 -12 0 -10 2 -10 8 -1 13 20 83 -4 90
-30 4 -17 7 -18 11 -5 5 12 12 13 30 6 19 -6 22 -11 13 -20 -11 -11 -17 -58
-8 -58 3 0 16 4 30 10 14 5 40 7 56 3 28 -5 30 -8 25 -34 -7 -29 8 -41 18 -16
3 7 6 5 6 -5 1 -10 7 -18 14 -19 37 -2 57 -8 105 -29 28 -12 52 -29 52 -37 0
-8 4 -12 8 -9 10 6 64 -28 57 -36 -3 -2 4 -4 15 -3 23 2 68 45 48 46 -7 0 -4
4 7 9 11 4 24 4 28 0 13 -12 47 0 47 16 0 8 -5 14 -12 14 -6 0 -9 3 -6 6 3 3
22 2 41 -1 31 -6 35 -10 31 -31 -2 -13 0 -24 6 -24 6 0 9 4 5 9 -3 5 -1 12 5
16 6 4 10 -5 10 -22 0 -15 5 -35 11 -43 9 -13 10 -12 5 3 -3 11 -2 16 4 12 6
-3 10 2 10 11 0 13 3 15 11 7 11 -11 59 -5 59 8 0 5 7 9 15 9 18 0 56 -40 49
-51 -3 -5 3 -6 12 -2 12 4 15 3 10 -5 -4 -7 -2 -12 4 -12 6 0 8 -5 5 -10 -3
-5 -2 -10 2 -10 5 0 14 12 20 28 10 24 11 25 12 5 1 -12 6 -25 13 -29 8 -5 9
-2 5 9 -5 13 -2 15 17 7 13 -5 27 -6 30 -3 3 4 6 1 6 -6 0 -8 -7 -11 -17 -7
-12 4 -10 0 4 -10 19 -13 21 -20 12 -36 -8 -15 -8 -19 0 -14 6 4 11 0 11 -11
0 -15 2 -16 10 -3 9 13 14 7 11 -13 0 -4 2 -6 7 -5 12 5 62 -39 54 -47 -4 -5
-2 -5 5 -1 16 9 65 -38 58 -56 -4 -10 3 -13 32 -10 30 3 53 -5 102 -32 34 -20
75 -36 89 -36 30 0 132 -45 132 -57 0 -14 57 -31 71 -22 17 11 79 12 79 1 0
-4 8 -8 18 -9 74 -5 109 -10 118 -16 6 -3 37 -7 68 -8 31 -1 56 -5 56 -9 0 -9
32 -6 48 4 7 4 35 0 62 -9 46 -15 267 -38 282 -29 3 2 9 -2 11 -8 4 -10 6 -10
6 0 1 6 12 12 25 12 14 0 28 5 32 11 8 14 137 4 142 -11 2 -5 19 -10 38 -10
19 0 34 -4 34 -9 0 -12 39 -21 46 -10 3 5 10 7 15 4 5 -4 12 1 15 10 4 9 13
14 20 11 7 -3 16 -1 19 4 3 6 43 10 88 9 45 0 93 4 107 9 50 19 132 25 141 11
6 -10 9 -11 9 -1 0 6 10 12 23 11 21 0 21 -1 2 -9 -16 -7 -17 -9 -3 -9 9 -1
18 -6 20 -12 2 -5 38 -13 81 -16 43 -3 80 -9 82 -13 8 -12 55 2 55 16 0 8 11
15 25 15 29 2 33 3 58 14 10 4 37 5 59 2 28 -4 37 -2 27 4 -11 7 -11 9 4 9 10
0 35 9 56 20 21 10 40 17 43 15 2 -2 4 4 4 14 0 13 -5 17 -16 13 -11 -4 -10 0
4 14 16 16 30 18 87 14 38 -3 65 -1 62 4 -4 5 6 6 21 2 17 -4 25 -3 22 3 -10
16 12 23 78 26 79 3 126 14 145 32 12 13 5 14 -59 11 -62 -4 -70 -3 -54 9 10
7 27 13 38 14 12 0 31 2 44 3 12 2 22 -1 22 -6 0 -4 5 -8 11 -8 5 0 7 4 4 10
-8 13 62 27 167 33 14 1 25 4 22 6 -2 2 22 13 54 23 31 11 67 29 79 40 13 13
26 17 35 12 9 -5 8 0 -3 16 -12 18 -31 28 -67 35 -28 6 -53 13 -57 16 -12 13
78 14 114 2 20 -7 50 -15 66 -17 17 -2 38 -7 48 -11 18 -8 24 -25 7 -25 -5 0
-10 -5 -10 -11 0 -18 30 11 31 30 0 12 2 11 8 -4 5 -11 6 -24 3 -30 -3 -5 1
-4 10 2 8 7 18 10 21 6 4 -3 7 -1 7 6 0 8 5 9 19 1 26 -13 28 -13 34 9 3 12
-1 18 -12 17 -10 -1 -17 8 -19 24 -2 14 -9 31 -15 39 -10 12 -6 13 28 7 22 -4
43 -13 47 -18 8 -14 79 18 75 35 -2 13 43 21 218 37 92 8 127 16 155 33 19 12
41 21 48 19 6 -2 12 1 12 7 0 10 90 57 103 53 5 -1 6 2 3 7 -7 10 40 31 69 30
33 -1 75 7 83 16 4 4 1 5 -5 1 -24 -14 -13 2 13 19 18 11 24 13 19 4 -4 -8 2
-4 14 9 12 12 30 22 39 22 11 0 18 8 18 20 0 29 -51 24 -65 -7 -6 -13 -17 -23
-25 -23 -7 0 -19 -7 -26 -15 -7 -8 -17 -15 -23 -15 -6 0 -1 7 11 16 21 14 30
35 15 33 -27 -4 -35 1 -23 16 14 16 4 39 -14 32 -7 -3 -19 -1 -27 4 -10 6 -11
9 -1 10 45 5 65 22 57 49 -4 14 -10 18 -14 11 -9 -14 -58 -11 -58 4 0 6 12 12
25 13 14 1 37 8 53 16 15 7 39 11 54 8 29 -5 107 17 100 28 -3 4 11 20 30 34
19 15 35 25 35 23 0 -2 19 -1 42 3 23 5 53 4 66 -1 13 -5 21 -5 18 0 -3 4 6
13 19 19 21 10 23 9 19 -6 -2 -9 2 -5 9 10 9 20 16 25 27 18 21 -13 100 -12
140 1 25 9 34 9 40 -1 5 -9 9 -9 14 -1 4 6 36 11 76 11 52 0 69 4 74 15 8 21
-26 33 -87 31 -26 0 -47 3 -47 7 0 5 -5 5 -12 1 -13 -9 -142 -7 -170 2 -10 3
-16 9 -13 14 3 4 -4 6 -15 3 -14 -4 -20 -1 -18 7 2 7 -4 15 -12 17 -12 4 -12
3 -2 -5 11 -7 10 -12 -3 -26 -18 -18 -101 -23 -90 -6 4 6 10 8 15 5 5 -3 11 4
15 15 3 11 10 20 15 20 5 0 12 9 15 20 3 11 11 20 16 20 5 0 39 29 76 65 36
35 70 62 74 59 5 -3 9 2 9 10 0 9 4 16 9 16 11 0 21 38 14 56 -3 8 -10 11 -16
7 -6 -3 -7 -1 -3 5 4 6 14 8 23 5 9 -4 14 -2 11 3 -9 13 19 74 33 74 8 0 8 -4
-1 -15 -11 -13 -10 -14 4 -9 12 5 15 2 10 -10 -3 -9 -11 -16 -17 -16 -6 0 -2
-7 10 -15 12 -9 20 -21 17 -28 -3 -9 6 -13 28 -12 28 1 33 4 35 28 1 17 -4 30
-13 34 -7 3 -11 10 -8 15 4 6 10 5 15 -3 7 -11 9 -10 9 4 0 11 4 15 12 11 6
-4 8 -3 5 3 -4 6 0 16 8 23 8 7 15 18 15 24 0 6 9 17 20 24 20 12 28 42 11 42
-5 0 -7 10 -5 23 5 22 5 22 -6 -1 -5 -13 -14 -21 -19 -18 -12 8 -12 86 0 86 6
0 8 4 4 9 -3 5 -1 12 5 16 5 3 10 15 10 26 0 10 5 19 11 19 5 0 8 4 5 9 -3 5
7 14 22 20 15 6 32 23 39 37 10 21 9 23 -1 15 -18 -15 -27 -2 -15 21 6 11 17
17 24 14 14 -5 82 36 98 58 4 6 6 -4 3 -22 -2 -19 -2 -31 2 -27 4 4 7 12 7 18
0 6 16 14 35 18 28 6 32 5 19 -4 -17 -13 -17 -43 -1 -59 14 -14 60 61 68 111
4 23 10 41 13 41 4 0 8 18 9 40 2 21 22 81 46 132 43 93 82 197 78 210 -1 4 5
23 13 42 8 20 17 55 20 78 7 55 15 79 24 74 4 -3 5 10 3 28 -2 21 2 39 12 49
9 8 16 22 16 30 0 22 11 48 19 43 3 -2 7 6 8 17 8 77 19 86 97 80 58 -5 67 -3
91 20 l28 25 -22 18 c-14 12 -33 17 -59 16 -43 -4 -90 27 -76 50 6 10 3 9 -9
-1 -15 -12 -17 -12 -11 3 5 12 0 16 -17 16 -38 0 -112 32 -97 41 10 7 9 9 -4
9 -11 0 -18 7 -18 18 0 13 2 14 9 4 6 -10 10 -10 21 3 17 21 -2 43 -46 51 -37
7 -48 37 -18 48 10 4 14 14 11 26 -3 11 -1 20 4 20 4 0 6 7 3 15 -4 9 0 15 7
15 11 0 11 3 -1 10 -13 9 -12 12 4 25 25 19 37 19 30 0 -4 -8 -1 -15 5 -15 6
0 11 5 11 12 0 6 7 3 16 -8 8 -10 13 -13 9 -6 -8 16 19 15 70 -2 22 -8 48 -11
60 -6 11 4 26 5 33 3 7 -3 12 3 12 14 0 15 2 16 10 3 9 -13 10 -13 10 1 0 8
-5 20 -12 27 -7 7 -9 12 -5 12 4 0 3 9 -3 20 -9 16 -8 20 5 20 8 0 15 -5 15
-10 0 -12 59 -8 80 5 9 6 11 4 5 -4 -6 -10 -3 -11 13 -2 15 8 21 8 24 -1 2 -6
10 -8 17 -4 9 6 9 11 0 22 -9 11 -8 14 2 15 58 5 76 11 94 32 11 13 35 34 52
46 18 12 32 27 30 34 -1 7 11 10 35 8 32 -2 39 1 52 28 12 23 13 32 4 37 -16
10 -80 6 -92 -6 -13 -13 -43 -13 -48 1 -4 12 -55 22 -120 23 -29 0 -48 5 -48
12 0 7 -9 14 -20 17 -11 3 -20 12 -20 21 0 14 -12 20 -32 17 -5 0 -8 3 -8 9 0
5 5 10 11 10 6 0 8 7 5 16 -4 10 -2 13 7 7 17 -11 38 -13 32 -3 -3 4 4 10 15
13 14 3 20 0 20 -10 0 -12 3 -13 15 -3 14 12 39 5 31 -9 -3 -4 0 -8 7 -9 72
-8 83 -7 98 10 11 12 37 20 76 24 55 6 61 5 77 -17 12 -18 16 -20 16 -7 0 9 5
20 12 24 7 5 8 3 3 -6 -6 -10 -4 -12 9 -7 10 4 20 7 22 7 2 0 4 6 4 14 0 13
34 30 54 27 5 -1 6 8 2 21 -3 13 -6 26 -6 29 0 4 -17 3 -37 -1 -22 -5 -44 -5
-55 1 -12 6 -18 6 -18 -1 0 -5 -22 -10 -50 -10 -47 0 -50 2 -50 26 0 14 -4 23
-10 19 -6 -4 -7 -11 -4 -17 4 -7 2 -8 -4 -4 -7 4 -12 13 -12 21 0 8 -5 17 -12
21 -7 4 -8 3 -4 -4 4 -7 -7 -13 -31 -17 -21 -4 -42 -8 -48 -9 -5 -2 -22 1 -37
5 -16 4 -30 3 -34 -2 -3 -5 -17 -7 -32 -3 -15 3 -32 6 -39 6 -7 1 -11 6 -10
12 1 6 -5 10 -13 8 -13 -3 -12 -1 1 13 13 13 26 15 63 10 25 -4 44 -10 42 -14
-9 -13 116 -2 139 13 26 17 39 21 31 8 -9 -15 9 -31 24 -21 13 8 13 10 0 18
-25 16 -2 25 68 27 37 1 83 9 103 17 20 9 39 14 41 12 4 -4 4 5 -1 47 -1 4 -8
5 -17 1 -13 -5 -13 -7 -2 -14 7 -5 8 -9 3 -9 -6 0 -16 5 -23 12 -8 8 -12 8
-12 1 0 -7 -14 -9 -35 -6 -22 3 -35 0 -35 -6 0 -7 -11 -9 -25 -7 -14 3 -25 1
-25 -4 0 -13 -34 -6 -50 11 -8 9 -33 22 -55 29 -22 7 -43 18 -47 24 -5 8 -8 7
-8 -2 0 -9 -6 -10 -17 -4 -10 4 -25 8 -33 7 -18 -1 -40 19 -40 35 0 7 8 10 18
8 9 -3 26 4 37 14 20 19 20 19 -8 9 -15 -6 -27 -7 -27 -1 0 5 9 12 20 15 11 4
17 11 14 17 -5 7 -2 8 5 4 7 -5 21 0 33 11 12 10 18 12 13 4 -5 -10 -4 -12 3
-7 19 11 14 26 -8 26 -11 0 -20 7 -20 15 0 8 -9 15 -19 15 -11 0 -22 4 -25 9
-3 4 -17 6 -31 4 -13 -3 -22 -9 -20 -13 3 -5 -8 -2 -25 6 -16 9 -30 20 -30 25
0 5 -7 9 -15 9 -19 0 -19 9 0 30 14 16 13 17 -12 14 -22 -3 -21 -1 7 7 19 6
44 16 55 22 11 6 31 16 45 24 14 7 21 13 16 13 -5 0 -3 7 4 15 7 8 10 22 6 30
-8 21 -46 19 -46 -2 0 -14 -2 -15 -9 -4 -7 11 -9 11 -13 0 -3 -10 -29 -14 -90
-16 -76 -1 -87 1 -91 17 -4 15 -11 17 -46 10 -23 -4 -44 -3 -47 1 -3 5 -12 9
-20 9 -8 0 -12 -5 -9 -11 4 -6 -1 -16 -11 -24 -16 -11 -20 -10 -29 8 -5 11
-17 22 -25 24 -13 4 -13 3 0 -7 12 -8 8 -10 -17 -6 -17 2 -38 7 -45 11 -10 6
-11 5 0 -6 17 -19 15 -28 -7 -26 -11 0 -17 6 -14 14 3 7 -1 13 -8 13 -11 0
-11 3 1 10 8 5 11 10 6 10 -6 0 3 13 18 29 17 17 26 36 23 45 -11 29 18 38 95
29 40 -4 78 -7 85 -7 6 1 9 -5 6 -12 -3 -8 -9 -11 -14 -8 -11 7 -11 -7 0 -25
7 -11 10 -10 18 4 9 15 37 22 97 24 11 1 16 6 13 15 -3 8 -3 17 1 21 4 4 7 12
7 18 0 7 8 11 17 9 12 -2 20 6 24 23 4 17 13 25 28 25 20 0 20 1 -4 20 -23 17
-23 19 -4 14 12 -3 25 -1 29 5 3 6 3 11 -2 10 -20 -4 -23 2 -8 17 13 13 14 19
4 25 -7 4 -17 5 -21 2 -11 -6 -38 16 -38 30 0 6 7 2 15 -9 9 -11 15 -14 16 -6
1 6 2 18 3 25 1 6 -7 22 -18 35 -11 12 -15 22 -9 22 6 0 14 -7 17 -16 3 -8 10
-12 16 -9 5 3 10 1 10 -6 0 -8 4 -8 15 1 22 18 19 41 -10 80 -14 19 -23 40
-21 47 3 7 -1 10 -8 7 -17 -6 -31 12 -16 21 6 4 7 13 2 23 -5 9 -7 23 -6 30 1
6 2 22 3 34 1 19 3 20 14 6 25 -31 137 -62 137 -37 0 5 -6 7 -12 3 -8 -4 -10
-3 -5 2 5 5 13 9 18 9 5 0 9 3 9 8 0 4 0 14 0 23 0 8 -4 12 -10 9 -5 -3 -10 1
-10 9 0 9 9 16 20 16 18 0 18 1 2 29 -9 16 -20 27 -25 24 -11 -7 -97 37 -97
49 0 5 -5 6 -12 2 -7 -4 -8 -3 -4 5 10 16 -50 70 -86 78 -16 3 -28 10 -28 15
0 5 -4 7 -9 4 -5 -3 -14 1 -21 9 -7 8 -9 15 -4 15 4 0 -3 11 -16 25 -12 13
-25 24 -29 23 -30 -3 -34 4 -13 22 16 13 29 17 45 11 20 -7 40 -7 103 -3 16 2
20 8 18 31 -1 24 1 28 17 24 25 -7 24 -2 -5 32 -14 16 -23 32 -20 36 2 4 -1
11 -7 15 -8 5 -9 3 -4 -7 7 -12 6 -12 -7 -1 -9 7 -21 26 -28 42 -7 17 -16 30
-21 30 -5 0 -6 8 -3 18 5 14 4 15 -5 2 -8 -11 -13 -12 -22 -3 -9 9 -17 9 -33
1 -19 -10 -20 -10 -7 5 12 15 11 17 -3 17 -19 0 -20 4 -4 30 10 15 10 28 0 62
-7 24 -15 59 -17 78 -7 60 -11 78 -22 92 -5 7 -13 21 -17 32 -5 14 -3 17 10
12 13 -5 14 -4 6 7 -7 8 -9 17 -5 20 3 4 1 7 -6 7 -7 0 -9 5 -6 10 3 6 -4 10
-16 10 -22 0 -22 0 -3 15 11 9 13 14 5 13 -10 -2 -14 7 -14 34 0 21 -6 43 -13
49 -8 6 -14 16 -14 21 0 6 16 -9 35 -32 35 -42 46 -67 23 -54 -8 4 -10 3 -5
-2 5 -5 14 -9 20 -9 7 0 11 -11 10 -23 -2 -13 1 -21 7 -17 6 3 10 -1 10 -10 0
-9 -4 -13 -10 -10 -6 3 -7 -1 -4 -9 3 -9 9 -14 13 -12 3 2 12 -2 19 -10 7 -8
10 -14 6 -14 -3 0 -1 -7 6 -15 6 -8 9 -19 5 -25 -3 -5 -1 -10 5 -10 7 0 9 -7
6 -17 -4 -10 -4 -14 0 -10 7 6 45 -67 59 -114 22 -76 60 -131 93 -136 9 -1 18
-7 20 -12 2 -6 8 -11 13 -11 6 0 5 8 -1 20 -6 10 -9 23 -9 27 1 4 0 15 -3 23
-4 8 -12 38 -19 65 -7 28 -25 79 -40 115 -20 47 -24 67 -16 72 8 5 7 8 -3 8
-20 0 -73 111 -64 136 5 15 4 16 -5 4 -6 -8 -11 -13 -12 -10 -9 49 -26 87 -49
110 -11 11 -18 25 -15 30 3 5 0 7 -8 4 -8 -3 -18 -1 -22 5 -3 6 -1 11 5 11 6
0 8 5 5 11 -4 6 -13 8 -21 5 -9 -3 -19 4 -26 19 -6 13 -15 22 -19 19 -13 -8
-28 29 -22 57 4 20 -2 31 -23 48 -15 12 -34 19 -42 16 -38 -14 -65 -17 -58 -6
4 6 2 11 -4 11 -6 0 -13 -7 -17 -16 -3 -8 -11 -13 -19 -10 -7 3 -15 0 -18 -7
-3 -9 -5 -9 -5 1 -1 6 -7 12 -15 12 -12 0 -14 12 -10 57 3 43 1 54 -8 45 -8
-8 -19 -7 -42 6 -57 31 -58 33 -26 51 39 22 80 58 80 72 0 8 -5 8 -15 -1 -9
-7 -18 -10 -22 -6 -3 3 -1 6 6 6 7 0 9 5 6 10 -4 6 -12 7 -18 3 -7 -3 -4 3 6
14 21 24 22 33 2 33 -8 0 -15 5 -15 10 0 6 -12 10 -26 10 -14 0 -23 4 -20 9 4
5 -8 7 -26 4 -18 -3 -36 -10 -40 -16 -5 -8 -8 -7 -8 3 0 13 -2 13 -9 1 -8 -12
-14 -11 -38 5 -15 10 -31 19 -35 19 -12 0 -13 9 -1 29 9 16 21 19 84 18 41 -1
75 -6 77 -11 1 -4 19 -3 39 4 21 7 49 9 68 5 20 -4 38 -3 48 5 22 16 21 25 0
26 -15 0 -15 2 2 8 11 5 31 7 45 5 36 -5 75 -12 75 -14 0 -1 8 -3 18 -5 12 -2
17 1 13 10 -6 17 19 39 38 32 7 -3 18 -1 23 4 6 6 49 10 96 10 48 0 89 4 93
10 7 11 -64 82 -75 75 -4 -3 -36 -1 -71 4 -42 6 -68 6 -76 -1 -7 -6 -35 -10
-61 -9 -26 2 -57 -1 -68 -5 -40 -14 -47 -15 -66 -5 -13 7 -19 7 -19 0 0 -5
-22 -10 -50 -10 -27 0 -50 4 -50 9 0 5 -18 5 -42 -1 -24 -5 -63 -6 -88 -2 -60
11 -69 11 -115 3 -43 -8 -88 -2 -80 11 2 4 -7 5 -20 2 -14 -2 -25 -8 -25 -11
0 -4 -7 -8 -15 -8 -8 0 -15 6 -15 12 0 7 -7 18 -15 25 -13 11 -13 15 -3 21 10
7 10 9 -2 9 -11 0 -11 3 -2 12 15 15 16 42 2 33 -6 -4 -8 -10 -6 -14 3 -4 -4
-12 -14 -18 -15 -10 -18 -9 -16 4 2 10 8 19 14 21 7 2 12 10 12 18 0 11 -5 12
-17 6 -22 -11 -43 -5 -43 13 0 7 -6 15 -12 18 -7 2 -1 8 15 12 15 4 27 11 27
17 0 5 6 6 12 2 7 -5 44 -9 82 -10 43 -2 64 1 55 6 -11 8 -10 12 6 24 25 19
37 20 54 4 11 -11 13 -10 7 0 -6 10 7 11 58 8 38 -3 66 -1 66 4 0 6 6 10 13
10 25 0 97 40 97 54 0 9 -20 16 -57 22 -32 4 -67 9 -78 11 -11 2 -27 4 -35 5
-8 0 -23 8 -33 17 -15 13 -18 13 -15 1 2 -11 -5 -15 -30 -13 -20 1 -30 -2 -26
-9 4 -6 -3 -5 -16 2 -12 7 -20 8 -16 2 7 -11 -103 -10 -122 2 -7 4 -22 4 -33
1 -17 -6 -20 -4 -13 6 6 12 5 12 -8 1 -9 -7 -44 -15 -78 -17 -52 -4 -60 -2
-50 10 9 11 7 17 -9 27 -12 7 -21 18 -21 25 0 7 -9 13 -20 13 -11 0 -19 3 -19
8 1 4 1 13 0 21 -1 12 -4 11 -14 -3 -12 -16 -13 -16 -13 2 0 16 8 20 48 21 36
0 48 -3 48 -14 0 -11 11 -15 37 -15 20 0 34 3 30 6 -10 10 20 34 43 34 14 0
19 -4 14 -12 -6 -10 -4 -10 7 0 7 6 27 12 44 12 23 0 27 -3 15 -10 -11 -7 -4
-9 27 -8 23 2 41 5 41 8 -1 3 5 20 12 38 8 23 15 30 20 22 5 -7 19 -11 34 -8
14 3 27 0 30 -6 3 -7 7 -7 14 2 5 7 18 14 28 14 15 2 21 10 22 32 1 17 -1 27
-5 21 -10 -13 -205 -17 -255 -6 -22 5 -36 5 -32 0 3 -5 -13 -9 -35 -9 -22 0
-42 5 -44 13 -4 9 -6 9 -6 -1 -1 -7 -6 -10 -12 -6 -6 3 -14 2 -18 -4 -4 -6
-11 -5 -19 4 -11 12 -9 14 10 14 13 0 29 10 37 22 11 18 11 22 -3 30 -9 5 -13
14 -10 20 5 8 1 9 -11 4 -21 -8 -82 30 -88 55 -3 12 -17 15 -67 14 -50 -2 -66
1 -81 16 -15 15 -19 16 -19 4 0 -11 -5 -12 -24 -5 -13 5 -27 6 -30 3 -3 -4 -6
3 -6 14 0 17 -6 20 -39 19 -22 -1 -43 -5 -48 -10 -5 -5 -2 -6 7 -1 12 6 12 5
3 -5 -6 -7 -16 -9 -21 -6 -18 11 -41 66 -35 82 4 10 -3 14 -31 14 -20 0 -41 7
-48 16 -7 8 -21 24 -30 35 -26 28 -22 32 12 14 17 -9 30 -13 30 -10 0 4 14 -2
30 -12 28 -16 31 -16 59 0 23 14 35 15 53 6 16 -7 36 -7 59 -2 l34 9 -33 33
c-27 27 -38 32 -62 28 -24 -5 -35 0 -64 29 -20 20 -36 43 -36 52 0 14 -2 14
-9 3 -7 -11 -13 -10 -36 5 -27 18 -27 18 -6 28 11 5 22 14 23 20 0 6 2 18 2
26 1 8 8 14 16 12 8 -2 12 0 7 4 -13 13 -51 12 -75 -4 -39 -25 -122 -11 -178
32 -26 20 -53 36 -61 36 -8 0 -12 4 -9 8 3 5 -14 9 -37 10 -52 3 -99 21 -94
36 3 7 -5 12 -17 12 -22 0 -96 31 -96 40 0 3 4 2 10 -1 5 -3 18 -2 27 3 10 5
32 6 48 2 18 -3 65 3 115 16 47 12 97 21 113 19 18 -2 27 1 27 11 0 17 17 18
23 2 3 -8 6 -7 6 4 1 9 -4 20 -9 23 -6 4 -8 10 -5 15 3 5 -5 12 -17 16 -25 8
-109 12 -102 4 9 -8 -81 -30 -153 -36 -56 -5 -73 -4 -73 6 0 10 -3 10 -15 0
-8 -6 -18 -9 -24 -6 -23 15 -103 22 -143 13 -15 -3 -30 -1 -33 4 -4 5 -13 5
-25 -1 -25 -13 -41 -13 -38 2 4 15 -24 18 -34 3 -5 -7 -8 -7 -8 0 0 6 -15 12
-32 13 -18 2 -36 9 -41 18 -4 8 -12 12 -17 9 -5 -3 -15 4 -24 16 -8 12 -19 18
-25 14 -7 -4 -11 5 -11 24 0 26 -10 38 -23 29 -2 -2 -11 3 -20 11 -29 23 -20
-7 9 -34 15 -14 24 -25 20 -25 -15 0 -62 30 -80 51 -15 17 -15 23 -5 30 11 7
11 9 1 9 -7 0 -15 -6 -18 -14 -3 -9 -12 -12 -21 -9 -10 4 -14 2 -9 -5 19 -32
-91 -8 -124 27 -8 9 -33 17 -55 18 -56 4 -70 10 -56 27 6 7 8 16 5 19 -3 3 7
2 22 -2 20 -5 28 -14 27 -27 -1 -16 0 -17 10 -4 15 19 57 39 80 38 18 -1 20
-8 17 -46 -2 -25 25 -41 43 -23 8 8 7 11 -4 12 -7 0 -4 4 9 10 13 5 21 13 18
18 -11 17 59 3 97 -19 21 -13 44 -19 54 -16 9 4 20 1 25 -6 6 -10 8 -10 8 0 0
6 7 12 15 12 8 0 15 5 15 10 0 6 10 10 23 10 13 0 28 5 35 12 9 9 12 9 12 -1
0 -7 4 -10 9 -7 4 3 21 2 37 -2 16 -5 37 -7 46 -4 16 3 15 5 -1 21 -19 19 -64
30 -148 36 -29 2 -71 9 -93 15 -47 13 -123 21 -271 28 -17 1 -28 6 -24 12 9
14 -1 13 -17 -2 -36 -33 -52 -36 -97 -16 -24 10 -76 23 -115 29 -93 13 -693
13 -729 0 -15 -6 -34 -8 -44 -4 -10 4 -14 2 -10 -4 7 -11 -22 -11 -40 0 -13 8
-73 -2 -73 -13 0 -5 -16 -14 -35 -20 -19 -6 -38 -17 -42 -25 -10 -16 -78 -26
-91 -13 -6 6 -17 6 -30 -1 -21 -11 -56 -5 -47 9 3 5 -4 6 -15 3 -11 -3 -17 -9
-14 -14 3 -5 0 -9 -5 -9 -6 0 -11 6 -11 14 0 19 -20 32 -29 19 -3 -5 -14 -12
-23 -16 -10 -3 -18 -12 -18 -18 0 -8 4 -8 15 1 8 7 15 8 15 4 0 -5 -9 -15 -21
-22 -12 -8 -18 -9 -14 -3 3 6 1 11 -4 11 -6 0 -11 -5 -11 -10 0 -6 -33 -10
-82 -9 -63 1 -77 4 -58 11 13 5 33 8 45 7 11 -1 22 0 25 1 3 1 18 4 34 6 16 2
52 19 80 38 55 37 111 56 166 56 30 0 32 2 20 14 -16 15 -110 28 -110 16 0 -4
-49 -7 -110 -6 -60 0 -110 -2 -110 -5 0 -9 -83 -17 -90 -10 -3 3 -18 11 -35
17 -16 6 -38 15 -47 19 -13 5 -18 3 -18 -8z m376 -694 c13 -17 14 -17 7 2 l-6
20 23 -20 c13 -11 21 -15 17 -9 -7 12 111 19 145 8 26 -8 22 -19 -7 -20 -14
-1 -25 2 -25 7 0 5 -7 9 -15 9 -8 0 -15 -4 -15 -10 0 -5 6 -10 14 -10 8 0 16
-6 19 -13 3 -9 -9 -13 -44 -15 -43 -1 -49 1 -49 19 0 15 -5 19 -16 15 -9 -3
-21 -6 -26 -6 -6 0 -8 -3 -5 -6 11 -11 -14 -46 -28 -40 -8 3 -17 1 -20 -4 -8
-13 -92 -13 -100 0 -3 6 -12 10 -18 10 -7 0 -6 -4 3 -10 13 -8 12 -10 -2 -10
-10 0 -18 3 -18 8 0 10 -79 8 -102 -2 -10 -5 -18 -5 -18 -2 0 11 126 66 152
67 12 0 39 7 58 14 48 18 61 18 76 -2z m522 -56 c8 -7 16 -7 20 -1 10 14 198
19 206 5 4 -6 15 -11 25 -11 9 0 26 -7 37 -16 18 -14 18 -15 -6 -9 -24 5 -24
5 3 -10 22 -13 31 -14 43 -4 11 9 14 8 14 -5 0 -9 4 -16 10 -16 5 0 7 6 4 14
-6 15 75 27 137 21 19 -2 66 -4 106 -5 51 0 77 -5 88 -16 8 -8 19 -13 24 -10
5 4 12 -8 16 -25 5 -24 11 -30 26 -26 13 4 19 0 19 -11 0 -15 2 -15 10 -2 8
12 10 12 10 1 0 -10 3 -11 14 -2 11 9 18 8 30 -4 9 -9 35 -18 58 -20 24 -2 59
-7 78 -10 19 -3 47 -6 63 -7 26 -1 31 -9 30 -45 -1 -7 2 -13 6 -13 3 0 17 -9
30 -19 17 -13 19 -18 7 -18 -9 0 -16 4 -16 9 0 5 -9 4 -21 -2 -18 -10 -19 -25
-1 -25 13 0 52 -32 46 -37 -3 -3 10 -5 28 -4 38 2 77 -15 104 -46 10 -12 14
-18 7 -15 -6 4 -14 3 -18 -3 -3 -5 -1 -11 4 -11 6 -1 16 -2 22 -3 9 -1 38 -23
93 -71 11 -10 72 -11 108 -1 10 2 21 -1 25 -6 3 -6 2 -8 -3 -5 -6 3 -16 1 -24
-4 -15 -9 -6 -19 55 -67 21 -17 78 -32 100 -26 27 7 62 -9 88 -40 10 -11 15
-14 11 -6 -8 15 13 0 68 -49 23 -20 25 -27 15 -40 -10 -12 -9 -14 5 -8 12 4
24 -3 38 -24 12 -16 25 -27 30 -24 4 3 13 -1 19 -9 9 -11 4 -12 -31 -6 -24 5
-50 4 -58 -1 -8 -4 -10 -9 -5 -9 6 0 10 -14 9 -31 -1 -33 32 -79 57 -79 7 0
23 -12 36 -27 l22 -28 1 38 c0 20 5 37 11 37 6 0 8 7 5 17 -4 10 -4 14 0 10 4
-4 13 -2 20 3 19 16 60 -55 44 -75 -17 -20 -32 -8 -20 15 9 16 8 18 -6 13 -12
-4 -15 -3 -10 5 4 7 2 12 -3 12 -6 0 -11 -7 -11 -15 0 -8 4 -15 9 -15 4 0 6
-12 3 -27 -2 -16 -1 -25 3 -21 8 8 35 -9 35 -22 0 -10 -33 -9 -47 3 -9 6 -13
6 -13 -3 0 -8 -8 -10 -22 -7 -12 4 -28 1 -35 -5 -10 -8 -13 -7 -14 3 -1 8 -5
1 -8 -16 -4 -16 -3 -36 2 -42 12 -16 72 -17 100 -1 12 7 49 12 82 13 52 0 60
3 63 20 2 18 2 18 -8 3 -6 -10 -16 -18 -21 -18 -6 0 -7 5 -4 10 3 6 -3 10 -14
10 -12 0 -21 4 -21 9 0 4 12 6 26 3 17 -3 25 -1 21 6 -10 15 20 23 32 8 6 -8
9 -21 5 -30 -4 -11 -2 -15 8 -11 7 3 20 -4 28 -16 8 -12 25 -34 37 -49 12 -15
19 -31 15 -35 -4 -5 -1 -5 6 -1 18 10 38 -4 21 -15 -11 -7 -11 -9 -1 -9 7 0
10 -5 7 -10 -3 -6 1 -13 10 -17 10 -3 21 0 26 8 7 11 9 11 9 -3 0 -26 -4 -33
-17 -32 -7 1 -13 -2 -13 -7 0 -5 -7 -9 -16 -9 -8 0 -13 -4 -10 -9 3 -5 -1 -14
-9 -21 -15 -12 -21 -4 -16 23 1 5 -3 6 -9 2 -6 -3 -7 -11 -4 -17 4 -6 0 -14
-7 -19 -12 -7 -12 -10 0 -21 10 -9 12 -10 7 -1 -5 9 -2 11 8 7 9 -3 13 -11 9
-18 -4 -6 0 -6 9 2 13 10 18 10 24 1 12 -20 -27 -41 -61 -32 -16 4 -68 8 -115
8 -107 2 -110 2 -110 18 0 31 -145 64 -181 41 -12 -7 -12 -44 1 -44 6 0 10 -8
10 -19 0 -30 106 -64 162 -52 18 4 39 6 46 5 6 -1 21 -2 31 -3 14 -1 18 -6 14
-21 -3 -11 -1 -20 5 -20 5 0 9 7 8 16 0 9 4 19 11 21 8 3 10 -4 7 -21 -3 -20
-1 -24 11 -20 8 4 15 10 15 16 0 5 12 8 28 6 16 -2 26 -8 24 -17 -2 -8 3 -11
11 -8 8 3 25 -2 37 -10 18 -13 27 -14 41 -5 10 7 33 12 51 11 28 0 30 -2 13
-9 -19 -8 -19 -9 3 -9 12 -1 22 4 22 11 0 6 3 9 6 6 3 -4 21 0 39 8 29 12 35
11 45 -1 7 -8 9 -15 4 -15 -5 0 2 -7 14 -16 12 -8 20 -20 17 -25 -4 -5 -2 -9
4 -9 6 0 23 -12 39 -27 29 -28 93 -69 101 -65 3 2 6 -4 7 -13 1 -8 -2 -13 -7
-9 -12 7 -11 -3 2 -24 7 -12 20 -17 33 -15 12 3 39 -5 59 -17 43 -26 45 -29
13 -23 -13 3 -34 0 -46 -7 -33 -18 -11 -32 52 -34 54 -1 118 -33 118 -58 0
-11 58 -69 101 -100 22 -16 23 -18 6 -28 -9 -6 -15 -16 -11 -21 4 -6 10 -6 19
1 10 9 13 3 13 -25 0 -19 -4 -32 -9 -29 -5 3 -9 0 -9 -6 0 -7 7 -10 15 -6 8 3
19 -3 25 -12 9 -15 9 -15 7 3 -1 11 -6 26 -10 32 -6 9 -3 11 8 7 10 -4 15 -16
13 -33 -3 -24 -6 -25 -44 -23 -33 3 -46 -1 -63 -19 -27 -29 -27 -39 2 -40 12
-1 40 -2 62 -3 27 -1 48 -9 63 -24 13 -13 27 -20 32 -17 6 4 10 -1 10 -10 0
-9 4 -14 9 -11 5 3 12 -1 15 -10 3 -8 2 -12 -4 -9 -6 3 -10 1 -10 -4 0 -6 6
-11 14 -11 24 0 57 -50 50 -74 -8 -24 -24 -37 -37 -29 -4 3 -1 10 9 17 14 11
9 12 -32 12 -28 -1 -53 -7 -57 -13 -4 -7 -13 -13 -18 -13 -6 0 -8 4 -4 10 3 5
-7 3 -22 -5 -15 -8 -40 -15 -54 -15 -21 0 -62 -27 -48 -31 2 -1 17 -3 32 -5
37 -4 93 -38 89 -53 -1 -7 1 -10 6 -7 5 3 19 -9 32 -27 12 -18 17 -26 9 -19
-7 6 -20 12 -28 12 -13 0 -13 -2 -3 -9 7 -4 12 -13 10 -20 -2 -7 7 -17 20 -22
13 -5 22 -5 22 1 0 6 8 10 18 9 10 0 12 -3 5 -6 -7 -2 -13 -9 -13 -14 0 -6 4
-8 8 -5 11 6 30 -25 27 -44 -2 -12 5 -15 26 -14 19 1 29 -3 29 -12 0 -8 3 -13
8 -12 4 1 20 -4 37 -11 23 -10 26 -14 15 -21 -9 -6 -10 -10 -3 -10 7 0 16 7
21 16 8 14 10 13 15 -5 3 -11 1 -21 -4 -21 -5 0 -8 -3 -7 -7 4 -16 -32 -72
-49 -75 -15 -3 -15 -4 1 -21 16 -16 16 -18 1 -23 -13 -6 -14 -9 -3 -16 10 -7
10 -11 1 -15 -7 -2 -13 -9 -13 -14 0 -6 5 -7 10 -4 6 3 10 -4 10 -17 0 -14 3
-18 8 -11 5 8 11 3 19 -14 11 -23 10 -25 -7 -20 -10 3 -20 1 -22 -4 -2 -6 -12
-2 -23 6 -11 9 -14 13 -6 9 10 -5 12 -3 6 6 -6 10 -12 7 -26 -11 -10 -13 -19
-30 -19 -37 0 -7 -5 -21 -12 -31 -13 -21 -2 -38 40 -60 13 -7 20 -17 16 -23
-5 -8 -1 -9 12 -4 15 6 16 5 7 -5 -10 -10 -16 -9 -28 1 -16 13 -30 7 -30 -13
-1 -7 -6 -11 -13 -10 -6 2 -23 -2 -37 -7 -15 -6 -34 -6 -48 -1 -37 14 -73 -26
-68 -76 1 -12 -3 -31 -9 -42 -7 -14 -7 -21 0 -21 13 0 13 -37 0 -45 -6 -4 -8
-10 -6 -14 8 -12 -11 -34 -23 -27 -8 5 -8 13 0 29 9 17 9 19 0 11 -14 -13 -23
-47 -24 -96 -1 -21 -5 -38 -9 -38 -13 0 -22 25 -19 50 3 21 1 23 -13 10 -12
-10 -14 -15 -5 -21 8 -5 5 -11 -10 -19 -17 -9 -22 -19 -19 -43 2 -25 -2 -34
-19 -42 -18 -8 -29 -44 -13 -46 3 0 15 -2 27 -5 11 -2 51 12 88 31 54 27 71
32 92 24 19 -7 23 -14 18 -27 -4 -9 -10 -26 -13 -37 -5 -18 -6 -18 -13 5 -6
21 -7 19 -8 -13 -1 -23 3 -36 9 -32 6 3 10 1 10 -5 0 -6 11 -15 24 -22 27 -12
45 -41 20 -31 -7 3 -14 1 -14 -5 0 -9 -46 -27 -62 -24 -4 1 -5 -5 -2 -13 4 -8
11 -15 17 -15 5 0 3 -8 -7 -19 -9 -10 -14 -25 -11 -34 4 -8 2 -18 -4 -22 -6
-3 -11 0 -11 8 0 7 -6 14 -14 14 -9 0 -12 -7 -9 -16 5 -13 3 -14 -8 -3 -16 15
-33 16 -24 2 4 -6 -7 -15 -24 -21 -18 -6 -28 -16 -25 -24 4 -9 35 -12 124 -11
65 0 113 4 106 8 -6 4 1 8 17 8 16 0 26 -4 22 -10 -3 -5 -1 -10 4 -10 6 0 11
5 11 12 0 8 3 9 11 1 7 -7 27 -6 66 3 30 7 77 10 104 7 50 -6 85 9 72 30 -3 5
-1 7 4 4 6 -4 14 0 17 8 7 20 62 14 58 -6 -2 -8 -8 -15 -13 -17 -5 -2 -9 -16
-8 -30 0 -15 3 -21 6 -14 11 28 67 1 91 -45 13 -23 7 -33 -20 -33 -11 0 -17
-4 -14 -9 7 -11 -19 -33 -28 -23 -4 4 -7 2 -5 -3 1 -6 -3 -23 -9 -38 -7 -16
-12 -33 -12 -38 0 -5 -4 -9 -10 -9 -5 0 -10 -5 -10 -11 0 -5 5 -7 10 -4 6 3
10 -1 10 -10 0 -9 4 -14 9 -11 14 9 61 -18 56 -32 -3 -7 0 -10 5 -7 6 3 10 -4
10 -17 0 -13 6 -30 13 -37 6 -8 7 -11 1 -8 -6 3 -23 -1 -38 -9 -34 -17 -50
-18 -40 -2 4 7 3 8 -5 4 -6 -4 -9 -12 -6 -17 4 -5 2 -9 -3 -9 -5 0 -23 -18
-42 -41 l-32 -41 31 -28 c17 -16 31 -35 31 -42 0 -13 -56 -29 -158 -44 -23 -3
-40 -9 -37 -14 3 -4 -2 -13 -10 -20 -7 -6 -11 -19 -8 -27 4 -10 2 -14 -4 -10
-6 4 -10 -1 -9 -11 1 -14 -6 -17 -36 -15 -26 2 -38 -2 -38 -11 0 -18 -43 -46
-70 -46 -11 0 -33 -8 -47 -18 -15 -9 -24 -11 -20 -4 6 8 2 12 -11 12 -11 0
-22 -9 -25 -20 -3 -12 -14 -20 -25 -20 -11 0 -22 -7 -26 -15 -3 -8 -11 -15
-19 -15 -18 0 -57 -38 -57 -55 0 -8 9 -15 19 -15 31 0 51 -11 51 -29 0 -14 2
-14 10 -1 8 12 12 13 19 2 4 -8 12 -13 17 -12 5 1 10 -2 11 -7 2 -4 -18 -9
-43 -9 -49 -2 -85 -16 -121 -48 -26 -22 -30 -41 -8 -32 8 3 15 1 15 -4 0 -6 3
-9 8 -9 22 4 42 -2 37 -11 -3 -5 -1 -10 4 -10 6 0 11 5 11 10 0 6 6 10 14 10
8 0 18 5 22 12 4 7 3 8 -4 4 -7 -4 -12 -2 -12 4 0 12 5 11 52 -12 26 -12 39
-48 18 -48 -5 0 -10 -7 -10 -16 0 -11 6 -13 19 -9 21 6 38 -10 21 -20 -8 -5
-7 -12 2 -23 7 -10 9 -14 4 -10 -5 4 -24 1 -43 -7 -31 -13 -34 -13 -29 1 3 8
2 12 -4 9 -6 -3 -10 -1 -10 6 0 7 -3 9 -7 6 -4 -4 3 -21 15 -37 12 -16 22 -34
22 -40 0 -5 8 -10 19 -10 14 0 17 -6 13 -27 -6 -34 -41 -75 -59 -69 -7 3 -13
0 -13 -7 0 -22 16 -38 33 -31 10 3 17 1 17 -6 0 -6 4 -9 9 -6 5 4 7 -3 4 -14
-5 -17 -8 -18 -21 -8 -11 9 -13 9 -9 1 4 -6 2 -15 -4 -19 -6 -4 -16 1 -21 10
-5 9 -14 14 -19 10 -6 -4 -6 -11 2 -20 11 -14 -1 -20 -14 -7 -4 3 -17 7 -30 7
-32 2 -31 -54 2 -81 15 -12 21 -25 17 -32 -6 -9 -12 -8 -26 4 -17 15 -18 14
-29 -15 -6 -17 -14 -29 -19 -26 -4 2 -8 -6 -8 -19 0 -13 4 -21 8 -19 4 3 8 -2
8 -10 0 -9 -5 -16 -11 -16 -5 0 -7 -4 -4 -10 4 -6 -1 -7 -11 -3 -10 4 -15 2
-11 -4 3 -5 -4 -25 -17 -43 -22 -33 -22 -35 -5 -54 14 -15 16 -23 7 -33 -6 -8
-19 -12 -28 -11 -9 2 -33 -9 -52 -24 -20 -15 -39 -24 -43 -20 -3 4 -5 2 -4 -3
7 -22 -21 -53 -41 -48 -13 4 -20 1 -18 -7 2 -6 -13 -20 -32 -31 -37 -20 -35
-22 18 -19 18 1 32 -3 32 -10 0 -6 -4 -8 -10 -5 -5 3 -10 -1 -10 -9 0 -18 -11
-21 -26 -6 -6 6 -10 0 -9 -18 0 -17 -5 -26 -13 -24 -8 1 -11 -2 -6 -9 10 -17
-62 -76 -101 -83 -26 -5 -33 -11 -28 -23 5 -12 2 -15 -10 -10 -9 3 -19 2 -22
-3 -4 -6 0 -10 7 -10 20 -1 -34 -29 -56 -30 -10 0 -25 -8 -32 -17 -13 -17 -14
-17 -7 2 3 11 11 23 17 27 12 8 -2 39 -20 45 -15 5 -31 -42 -23 -65 7 -17 3
-22 -24 -31 -26 -8 -85 -22 -107 -26 -16 -2 -41 -23 -38 -31 1 -5 -8 -11 -21
-12 -15 -2 -21 0 -17 7 4 6 2 11 -3 11 -6 0 -11 -7 -11 -15 0 -8 -7 -15 -15
-15 -8 0 -24 -9 -35 -20 -11 -11 -26 -20 -34 -20 -7 0 -24 -8 -37 -19 -23 -17
-172 -61 -211 -61 -10 0 -18 -7 -18 -15 0 -8 -7 -15 -15 -15 -10 0 -8 -6 8
-23 12 -13 30 -22 40 -21 11 2 17 -4 17 -16 0 -10 6 -21 13 -23 6 -3 -5 -6
-25 -6 -71 -2 -93 -25 -33 -37 19 -3 35 -10 35 -14 0 -5 14 -11 30 -15 17 -4
30 -11 30 -16 0 -6 4 -7 10 -4 6 3 10 -1 10 -9 0 -10 6 -13 17 -9 10 4 14 2
10 -4 -4 -6 0 -14 9 -17 8 -3 12 -2 9 4 -3 6 0 10 9 10 8 0 23 3 33 6 15 5 15
4 3 -5 -12 -8 -6 -11 27 -11 45 0 66 -16 37 -27 -10 -4 -19 -2 -22 5 -2 7 -8
12 -13 12 -4 0 -6 -6 -3 -13 3 -9 -7 -14 -33 -15 -21 -2 -45 -10 -53 -19 -8
-9 -10 -13 -4 -9 20 10 26 -26 8 -43 -9 -9 -14 -10 -10 -3 4 7 1 12 -9 12 -10
0 -15 -7 -13 -17 2 -14 -3 -18 -27 -16 -17 1 -25 -1 -18 -5 9 -5 0 -13 -25
-22 -20 -8 -40 -14 -44 -15 -3 0 -10 -3 -14 -8 -12 -12 -26 -8 -18 6 6 9 4 9
-7 1 -8 -6 -38 -19 -66 -28 -29 -10 -53 -21 -53 -25 0 -12 -69 -33 -81 -25 -8
4 -9 3 -5 -4 7 -11 -20 -15 -101 -16 -13 0 -23 -3 -23 -7 0 -3 -18 -9 -39 -13
-22 -3 -41 -10 -43 -16 -3 -10 -166 -60 -197 -60 -10 0 -31 -10 -46 -22 -16
-12 -42 -23 -58 -24 -16 -1 -60 -12 -97 -24 -58 -19 -70 -27 -79 -51 -7 -20
-6 -31 1 -35 7 -4 8 -2 4 4 -4 7 -2 12 5 12 6 0 9 -8 6 -20 -3 -13 1 -21 16
-26 12 -4 23 -2 25 5 2 6 22 11 43 11 22 0 38 -4 35 -8 -4 -8 21 -9 167 -11
37 -1 67 -5 67 -10 0 -12 -26 -21 -64 -21 -18 0 -37 -5 -44 -12 -16 -16 -16 4
1 21 10 11 9 13 -3 9 -8 -3 -16 -14 -18 -26 -3 -17 -12 -21 -65 -27 -34 -3
-73 -5 -87 -4 -14 1 -54 -2 -90 -6 -51 -5 -72 -3 -95 9 -16 9 -24 16 -16 16 8
0 11 3 8 6 -4 4 -12 2 -19 -3 -7 -6 -21 -9 -31 -8 -9 2 -15 0 -12 -5 3 -4 -7
-11 -23 -14 -91 -22 -129 -37 -129 -51 0 -13 16 -20 39 -17 3 1 9 -6 12 -14 5
-14 -3 -15 -74 -9 -74 7 -80 6 -80 -11 -1 -18 -1 -18 -11 -1 -9 15 -18 17 -51
12 -28 -5 -38 -4 -34 3 11 19 -30 32 -98 32 -62 0 -92 12 -61 24 8 3 15 2 15
-3 0 -4 6 -8 14 -8 8 0 11 8 9 18 -4 14 -15 18 -49 17 -44 -1 -57 -11 -29 -22
18 -7 20 -28 3 -24 -7 1 -23 -1 -35 -6 -12 -4 -31 -2 -43 4 -21 11 -27 30 -9
30 5 0 7 -4 4 -10 -3 -5 -2 -10 3 -10 6 0 12 7 16 15 3 8 13 15 23 15 16 1 16
2 -2 12 -11 6 -22 15 -26 20 -3 4 -19 9 -37 11 -18 2 -35 7 -38 10 -4 3 -14 3
-23 -1 -21 -10 -42 -9 -60 2 -10 7 -12 5 -6 -3 5 -9 0 -12 -16 -11 -42 4 -51
1 -45 -15 3 -9 0 -15 -8 -15 -8 0 -16 9 -19 19 -4 17 -16 20 -87 23 -56 2 -85
-1 -92 -9 -6 -7 -14 -11 -18 -8 -4 2 -59 5 -123 6 -66 0 -115 5 -111 10 8 13
-8 10 -28 -5 -20 -15 -24 -27 -7 -24 6 2 18 -7 26 -20 10 -14 11 -22 4 -22 -6
0 -11 5 -11 10 0 6 -3 9 -7 9 -5 -1 -10 -1 -13 0 -3 1 -79 2 -170 3 -158 1
-193 7 -215 33 -5 7 -23 16 -40 20 -16 3 -34 12 -38 18 -6 8 -7 6 -3 -6 4 -13
-1 -17 -24 -17 -32 0 -80 19 -80 31 0 12 -80 33 -112 30 -35 -3 -70 8 -63 19
3 5 0 12 -6 16 -8 4 -9 3 -5 -4 9 -16 0 -15 -49 2 -22 8 -69 23 -103 32 -41
12 -71 27 -83 43 -10 13 -19 18 -19 11 0 -9 -3 -10 -14 -1 -8 6 -27 13 -42 15
-16 3 -42 10 -59 17 -16 7 -39 13 -50 14 -54 5 -82 17 -101 41 l-22 27 25 21
25 21 -22 28 -21 27 31 0 c27 0 30 -3 21 -14 -9 -10 -8 -15 3 -19 9 -4 13 -1
11 6 -10 27 13 36 115 41 159 9 206 18 194 38 -5 8 -2 9 9 5 9 -3 19 -2 22 3
4 6 1 10 -5 10 -6 0 -8 10 -4 24 3 13 1 27 -5 30 -6 4 -11 3 -11 -3 0 -7 -8
-7 -26 -1 -15 6 -64 11 -111 12 -89 2 -102 8 -105 52 -3 31 -37 36 -59 9 -12
-15 -12 -16 4 -10 11 4 16 3 12 -3 -3 -6 -14 -10 -24 -10 -9 0 -22 -5 -27 -10
-7 -7 -19 -8 -37 -1 -35 13 -36 35 -2 28 14 -2 24 -2 21 0 -2 2 7 15 20 28 47
47 22 64 -95 66 -61 1 -81 5 -81 15 0 8 -4 14 -10 14 -5 0 -10 6 -10 13 0 10
-12 12 -49 7 -48 -6 -49 -5 -55 21 -4 22 -14 30 -43 38 -21 6 -53 11 -70 11
-19 0 -33 5 -34 13 0 8 -2 8 -5 1 -3 -7 -28 -3 -76 12 -40 13 -83 24 -95 24
-28 0 -113 52 -95 58 18 6 15 20 -5 18 -10 0 -22 9 -28 22 -5 12 -13 22 -17
22 -13 0 -9 37 6 49 11 9 6 19 -27 52 -22 22 -53 43 -69 46 -15 3 -26 9 -23
13 3 4 -6 11 -19 14 -13 3 -30 16 -38 28 -15 23 -15 23 32 20 53 -4 84 8 101
39 7 13 7 19 1 15 -6 -3 -18 6 -27 22 -9 15 -26 29 -38 29 -12 1 -27 9 -33 18
-6 8 -23 15 -37 15 -14 0 -51 14 -82 30 -31 17 -50 30 -42 30 8 0 17 11 19 25
4 19 1 25 -12 25 -28 0 -51 72 -28 86 7 5 8 2 3 -7 -4 -8 2 -4 14 9 25 25 22
36 -18 57 -28 14 -60 70 -47 82 3 3 6 1 6 -5 0 -7 5 -12 11 -12 5 0 8 4 4 9
-3 6 5 8 17 6 49 -9 70 40 32 76 -22 21 -22 23 -6 35 14 11 14 14 2 15 -8 1
-18 1 -22 0 -5 0 -8 2 -9 7 -1 7 -2 14 -15 80 -4 18 -2 38 4 45 6 7 14 31 18
53 6 39 4 41 -50 88 -50 42 -57 45 -64 29 -11 -27 -26 -25 -63 8 -19 17 -46
33 -62 36 -44 9 -39 18 9 14 42 -3 44 -2 44 24 0 26 -31 65 -52 65 -5 0 -6 5
-3 10 3 6 -1 10 -9 10 -9 0 -16 5 -16 11 0 5 5 7 12 3 7 -4 8 -3 4 4 -4 7 -14
12 -23 12 -9 0 -13 3 -10 6 10 10 -12 44 -28 44 -19 0 -19 24 0 40 20 17 19
31 -2 23 -9 -4 -3 7 14 23 26 25 30 36 29 79 -1 37 4 55 19 70 11 11 23 19 27
18 5 -2 7 0 6 5 -1 4 14 23 35 44 24 23 37 45 37 62 0 23 4 25 35 24 31 -1 33
-3 17 -15 -9 -8 -11 -12 -4 -8 6 3 12 1 12 -5 0 -8 6 -8 20 0 11 6 18 15 15
19 -2 5 2 14 10 21 11 9 22 9 50 0 38 -13 118 -16 135 -5 13 8 13 42 0 50 -16
10 -12 25 8 25 9 0 31 7 47 16 17 9 46 16 65 17 19 0 27 2 18 4 -10 3 -15 10
-11 19 3 8 13 12 23 9 10 -3 17 0 17 9 0 8 -3 14 -6 14 -3 -1 -19 5 -36 12
-16 7 -41 15 -55 19 -18 5 -25 15 -25 32 -1 17 -6 23 -19 21 -14 -3 -16 1 -12
16 7 22 -13 35 -34 22 -8 -5 -22 -4 -34 2 -11 6 -37 11 -59 12 -21 2 -43 9
-48 17 -6 10 -9 10 -9 2 0 -7 -4 -13 -9 -13 -5 0 -8 11 -8 25 0 28 7 31 25 13
9 -9 12 -9 13 0 1 7 3 17 4 22 1 6 3 17 4 25 1 19 35 19 55 0 16 -17 42 -11
50 12 4 8 13 13 20 10 8 -3 17 -1 20 6 2 7 5 4 5 -5 1 -12 6 -15 17 -11 10 3
14 13 11 25 -4 14 -1 18 9 14 21 -8 66 38 58 60 -4 11 -4 16 1 12 10 -9 38 19
31 31 -4 5 -1 11 5 13 7 2 -3 11 -22 21 -19 9 -38 12 -43 7 -5 -5 -18 -5 -30
-2 -25 9 -45 8 -70 -3 -12 -5 -21 -3 -26 5 -7 11 -11 11 -25 0 -9 -7 -40 -15
-69 -17 -42 -3 -53 -1 -53 11 0 8 3 13 7 11 14 -8 33 15 34 41 1 16 4 34 8 40
4 6 1 11 -7 11 -8 0 -12 -4 -9 -9 3 -4 -7 -8 -21 -8 -18 0 -24 4 -19 13 6 10
4 10 -7 0 -26 -25 -90 -11 -102 22 -4 8 -3 14 1 13 14 -3 42 14 36 23 -5 8 73
3 104 -7 7 -2 10 0 7 5 -3 5 -1 12 4 16 5 3 13 -1 18 -8 4 -8 22 -16 40 -19
20 -3 30 -1 26 6 -4 5 1 7 11 3 13 -5 16 -3 14 11 -2 9 -9 16 -16 15 -6 -2 -9
3 -6 11 4 9 -7 18 -31 26 -20 7 -34 14 -31 17 7 7 -20 33 -33 33 -6 0 -11 7
-11 15 0 8 5 14 12 12 7 -1 13 8 14 20 1 12 -3 20 -8 17 -4 -3 -6 -10 -3 -15
4 -5 1 -9 -4 -9 -6 0 -11 6 -11 14 0 22 -14 26 -48 16 -31 -8 -55 3 -30 14 7
2 -3 3 -24 0 -41 -6 -56 8 -36 34 12 15 11 16 -4 4 -10 -8 -20 -22 -23 -32 -3
-10 -14 -21 -23 -23 -12 -3 -11 -5 6 -6 12 0 22 -5 22 -10 0 -5 12 -11 27 -13
14 -2 28 -9 31 -15 6 -21 -68 -16 -85 5 -8 9 -12 11 -8 4 5 -9 -6 -12 -44 -11
-28 1 -51 6 -51 10 0 5 -7 6 -15 3 -8 -4 -15 -1 -15 5 0 13 26 15 34 3 6 -11
76 -2 76 9 0 5 -5 9 -11 9 -5 0 -8 4 -4 9 3 5 1 12 -5 16 -5 3 -10 12 -10 18
0 9 3 8 8 -1 6 -9 12 0 20 26 12 38 16 100 5 75 -2 -7 -9 -13 -14 -13 -6 0 -8
4 -5 9 4 5 0 11 -6 14 -23 7 89 17 128 11 22 -3 41 -7 42 -9 2 -2 24 2 48 10
40 12 46 11 68 -6 13 -10 26 -16 29 -12 4 3 9 -2 13 -11 3 -9 10 -14 14 -11
12 8 41 -6 34 -16 -3 -5 3 -6 12 -2 13 5 15 3 9 -7 -5 -9 -4 -11 4 -6 6 4 19
2 27 -5 23 -19 30 -1 10 31 -9 17 -13 30 -8 30 5 0 14 -10 19 -22 l11 -23 7
27 c5 19 12 25 23 21 15 -5 -4 11 -72 59 -16 12 -17 18 -7 36 20 37 4 43 -52
21 -33 -13 -53 -17 -55 -10 -2 6 -10 11 -17 11 -7 0 -15 10 -19 23 -6 24 -41
34 -61 18 -19 -16 -63 -9 -90 15 -15 12 -24 28 -20 33 3 6 -1 11 -9 11 -9 0
-16 5 -16 10 0 6 5 10 11 10 7 0 0 9 -14 20 -14 11 -30 20 -36 20 -20 0 -49
33 -44 49 4 9 2 13 -2 8 -11 -10 -56 33 -48 46 3 6 1 7 -4 4 -6 -4 -15 -1 -21
6 -8 9 -4 12 15 14 14 0 28 5 32 11 3 5 14 8 24 6 15 -2 18 2 13 22 -5 17 -2
24 9 24 9 0 15 9 15 23 0 12 9 28 20 35 11 7 20 23 20 37 0 14 4 25 9 25 15 0
22 33 9 41 -10 7 -10 15 1 41 12 30 18 60 20 110 1 9 8 24 17 32 8 9 12 20 9
26 -3 5 -2 10 2 10 13 0 93 107 93 124 0 8 -12 22 -26 29 -22 11 -24 15 -10
20 9 4 16 1 16 -6 0 -8 3 -8 9 2 5 7 13 11 17 8 5 -3 9 8 9 23 0 16 -4 28 -10
27 -5 -1 -9 6 -9 15 1 11 -4 15 -15 10 -14 -5 -14 -3 -3 11 12 14 11 19 -7 38
-37 40 13 87 92 87 25 0 54 5 64 11 17 10 16 11 -5 17 -12 3 -22 11 -22 18 0
7 -4 6 -9 -2 -6 -11 -10 -10 -15 3 -5 15 -2 17 24 12 17 -4 30 -2 30 3 0 6 11
10 25 10 20 0 28 8 41 40 9 22 24 46 34 53 19 13 70 108 70 131 0 8 -12 19
-27 24 l-28 9 31 18 c35 21 52 54 56 107 3 30 6 34 17 25 11 -10 13 -8 6 12
-6 20 2 32 56 83 38 35 69 56 77 53 12 -4 12 -3 3 9 -9 10 -9 20 0 40 7 14 16
26 21 26 4 0 8 5 8 10 0 14 62 69 78 70 6 0 11 6 10 13 -2 6 3 11 10 9 8 -1
11 2 7 8 -3 5 12 17 34 27 31 13 37 20 29 30 -18 22 36 15 60 -8 17 -15 30
-19 52 -14 17 4 30 10 30 15 0 4 -9 6 -20 3 -28 -7 -70 5 -70 21 0 7 18 21 40
31 22 10 45 24 51 31 6 8 15 11 20 8 5 -3 9 -1 9 4 0 11 80 33 92 26 5 -3 6
-9 3 -14 -3 -5 0 -12 6 -16 7 -4 9 -3 5 4 -3 6 3 13 14 17 28 9 25 22 -7 33
-16 6 -22 11 -15 11 7 1 22 -4 33 -9 20 -11 49 -3 32 9 -5 3 -15 15 -21 26 -6
11 -12 15 -12 8 0 -7 -7 -10 -15 -7 -8 4 -15 1 -15 -6 0 -6 -5 -8 -10 -5 -6 3
-13 0 -16 -9 -7 -17 -62 -19 -83 -2 -11 8 -13 8 -8 -1 7 -12 -47 -36 -57 -26
-3 4 -6 2 -6 -3 0 -6 -16 -8 -35 -6 -22 3 -35 10 -35 19 0 10 -10 14 -37 13
-58 -3 -97 -1 -91 5 3 3 34 7 69 10 35 2 87 9 114 15 28 6 77 15 110 20 33 5
74 12 90 15 17 4 59 9 95 12 l65 5 -22 -24 c-13 -13 -23 -31 -23 -40 0 -9 -7
-19 -16 -22 -16 -6 -16 -8 0 -25 9 -9 13 -22 9 -27 -5 -5 6 3 23 19 16 15 34
27 39 27 4 0 23 11 40 25 18 13 43 26 56 29 37 7 76 24 84 36 4 6 14 9 23 5 9
-3 13 -3 9 1 -4 4 -2 13 4 21 10 11 15 11 28 1 14 -11 14 -11 3 4 -11 14 -9
19 17 37 27 19 61 71 61 93 0 4 -8 8 -18 8 -10 0 -23 5 -29 11 -7 7 -41 11
-81 10 -52 -1 -74 3 -86 14 -8 9 -19 17 -23 18 -4 1 -7 5 -5 10 2 7 -41 11
-85 7 -12 -1 -32 4 -44 10 -47 26 -2 35 189 38 112 2 182 -1 174 -6 -11 -7
-10 -10 5 -14 23 -6 63 8 63 22 0 5 8 10 17 10 15 0 14 -2 -3 -16 -18 -15 -18
-15 5 -8 17 4 22 3 16 -6 -6 -9 -4 -11 4 -6 18 12 30 49 20 62 -10 13 -2 44
12 44 5 0 9 9 9 21 0 13 4 18 13 13 9 -6 9 -5 0 7 -10 12 -1 14 60 14 40 0 78
-4 85 -8 7 -5 14 -2 18 7 3 9 12 16 20 16 8 0 14 7 14 16 0 10 6 14 15 10 8
-3 14 0 12 7 -1 7 4 11 11 10 6 -2 12 1 12 6 0 5 16 15 36 21 34 12 38 11 54
-10 10 -14 20 -19 24 -12 3 6 0 13 -6 15 -7 3 0 6 15 6 19 1 39 14 64 41 20
21 40 37 44 35 4 -3 9 2 13 10 3 8 11 15 17 15 8 0 8 -4 -1 -15 -11 -13 -10
-14 3 -9 27 10 26 30 -1 59 -25 27 -25 28 -4 23 13 -4 22 -2 22 5 0 7 13 21
29 32 16 10 27 23 25 27 -3 4 25 8 61 8 50 0 72 5 93 20 15 11 41 20 57 21 28
1 172 17 225 24 14 2 78 6 144 8 65 2 121 9 125 14 3 6 32 16 63 23 32 6 60
16 63 21 4 5 14 9 25 9 10 0 20 7 24 15 5 15 29 12 54 -8z m3378 -5553 c-6
-15 -4 -15 11 -3 15 13 16 12 11 -8 -3 -12 -3 -22 1 -21 24 3 32 -5 11 -12
-25 -8 -25 -8 -2 -9 13 -1 20 -5 17 -11 -4 -6 -10 -8 -14 -5 -5 2 -8 -6 -8
-19 0 -30 -43 -88 -60 -82 -7 3 -15 1 -19 -5 -3 -5 -15 -7 -27 -3 -20 6 -20 6
-4 -11 17 -16 17 -19 2 -35 -15 -17 -15 -19 2 -29 10 -6 13 -11 5 -11 -7 0
-32 -9 -54 -20 -49 -23 -58 -25 -58 -7 0 15 71 82 82 79 4 -1 7 6 5 16 -3 24
74 173 86 165 6 -3 7 -1 3 6 -8 13 -1 41 10 41 3 0 3 -7 0 -16z m-5245 -1845
c16 -11 29 -16 29 -11 0 5 11 7 25 4 14 -2 23 -8 20 -12 -3 -5 4 -6 15 -3 11
3 20 0 20 -6 0 -6 4 -11 9 -11 6 0 8 9 6 20 -2 11 0 18 6 15 5 -4 9 -15 9 -26
0 -17 5 -19 41 -14 23 3 45 8 50 11 5 3 6 -3 3 -13 -5 -17 -5 -17 6 0 12 18
65 23 89 8 12 -8 8 -11 -15 -16 -49 -11 -89 -28 -97 -42 -7 -12 -11 -12 -25
-1 -12 10 -14 10 -8 1 12 -21 -42 -16 -90 9 -24 11 -40 26 -37 31 4 6 0 8 -10
4 -10 -3 -17 -3 -17 1 0 4 -18 18 -40 31 -21 14 -37 28 -34 33 7 12 13 10 45
-13z"/>
<path d="M5160 8330 c0 -5 -9 -10 -19 -10 -11 0 -23 -4 -26 -10 -3 -5 -11 -10
-16 -10 -6 0 -7 6 -3 13 5 7 1 7 -10 -2 -15 -13 -19 -13 -26 0 -8 12 -12 11
-27 -5 -10 -10 -12 -15 -4 -11 9 5 12 4 7 -3 -4 -7 -29 -9 -66 -7 -38 3 -62 1
-66 -7 -4 -6 -3 -8 3 -5 5 3 26 -12 46 -34 44 -47 42 -75 -5 -125 -17 -19 -26
-37 -23 -46 4 -9 -1 -22 -12 -29 -10 -8 -18 -21 -18 -29 0 -10 -9 -15 -27 -15
-15 1 -26 -3 -25 -8 1 -5 -8 -13 -20 -18 -17 -6 -23 -5 -23 6 0 7 -5 17 -12
21 -7 4 -8 3 -4 -4 4 -7 1 -12 -6 -12 -10 0 -10 -2 0 -9 10 -6 7 -10 -12 -15
-27 -7 -30 -24 -7 -42 12 -9 11 -17 -9 -48 -14 -24 -28 -35 -37 -32 -8 3 -11
1 -8 -5 4 -5 -14 -34 -39 -63 -47 -55 -49 -66 -10 -66 13 0 26 -5 30 -11 5 -8
9 -8 14 1 5 8 11 1 18 -19 8 -23 8 -33 -1 -38 -7 -4 -62 -6 -122 -4 -96 3
-113 1 -125 -15 -8 -9 -14 -19 -13 -22 4 -12 31 -22 60 -22 17 0 35 -4 38 -10
3 -6 -1 -7 -9 -4 -11 4 -16 0 -16 -11 0 -9 -5 -25 -11 -36 -10 -20 -11 -20
-24 -2 -14 17 -14 17 -15 -2 0 -21 38 -62 55 -60 6 1 18 5 28 10 42 18 31 -30
-13 -51 -20 -11 -83 -72 -86 -84 0 -3 -4 -13 -8 -22 -11 -25 0 -48 21 -47 16
0 16 1 -2 9 -13 6 -15 9 -5 9 19 1 42 -14 40 -25 -6 -28 -22 -45 -34 -35 -16
13 -37 -5 -29 -26 4 -10 0 -13 -12 -11 -10 2 -20 -4 -22 -12 -4 -13 -3 -13 6
0 9 13 11 13 11 -2 0 -10 -4 -18 -9 -18 -4 0 -6 -10 -4 -23 6 -31 -13 -77 -32
-77 -9 0 -14 -4 -11 -9 3 -5 -10 -22 -29 -38 -20 -15 -37 -38 -38 -50 -1 -13
-4 -23 -8 -23 -4 0 -9 -6 -12 -14 -4 -9 0 -12 11 -10 21 5 47 -10 38 -24 -3
-5 -18 -12 -33 -15 -16 -3 -37 -9 -47 -13 -15 -6 -17 -4 -11 6 5 8 4 11 -2 7
-6 -4 -13 -21 -17 -38 -4 -22 -10 -29 -20 -26 -19 8 -136 -14 -136 -25 0 -4
-8 -8 -19 -8 -10 0 -21 -8 -24 -19 -5 -20 31 -42 91 -55 17 -4 32 -14 32 -21
0 -8 6 -12 13 -9 7 2 24 -7 37 -21 13 -14 21 -25 18 -25 -3 0 13 -19 34 -42
l39 -43 -25 -22 c-14 -12 -38 -47 -52 -77 -14 -31 -33 -56 -41 -56 -8 0 -12
-4 -8 -9 3 -5 1 -12 -5 -16 -6 -4 -8 -10 -5 -15 3 -5 -4 -14 -15 -20 -11 -6
-20 -16 -20 -23 0 -14 49 -39 61 -31 5 3 9 0 9 -5 0 -14 -79 -86 -94 -86 -6
-1 -10 -6 -9 -12 2 -11 -23 -23 -96 -43 -35 -9 -41 -14 -29 -21 9 -5 28 -10
42 -11 14 -1 26 -6 26 -9 0 -16 -36 -69 -46 -69 -7 0 -14 -6 -17 -14 -11 -28
-56 -28 -94 1 l-36 27 -27 -33 c-16 -18 -33 -30 -39 -27 -6 4 -9 1 -5 -7 3 -8
-6 -23 -20 -35 -33 -26 -33 -31 4 -30 17 1 33 -2 37 -5 3 -4 -3 -7 -15 -7 -12
0 -23 -8 -27 -20 -8 -24 -84 -79 -111 -79 -70 -2 -84 -3 -89 -11 -7 -12 47
-31 75 -27 34 6 61 -9 54 -31 -4 -10 -2 -13 3 -7 9 12 22 13 38 4 15 -9 66 -4
73 7 10 13 59 17 67 5 3 -6 11 -11 16 -11 6 0 7 5 4 10 -8 13 1 13 42 -2 18
-7 33 -16 33 -21 0 -5 7 -4 15 3 8 7 22 10 30 6 11 -4 14 -2 9 6 -5 8 -2 9 9
5 9 -3 47 -9 84 -13 38 -3 71 -8 75 -10 4 -2 10 1 14 7 21 34 197 60 281 41
30 -7 61 -6 104 3 37 8 72 10 90 5 16 -5 29 -6 29 -2 0 4 16 7 35 8 19 0 32
-3 30 -7 -6 -9 87 -5 103 5 7 4 12 2 12 -6 0 -10 2 -10 8 -1 6 9 44 13 128 14
129 0 184 6 184 20 0 5 -6 6 -13 3 -7 -2 -33 4 -58 15 -24 11 -38 20 -31 20 7
1 10 6 6 13 -4 7 -3 8 5 4 6 -4 9 -12 6 -17 -4 -5 -2 -9 3 -9 6 0 12 7 16 15
4 11 11 13 30 5 18 -6 28 -5 35 4 12 14 114 17 127 3 4 -4 1 -7 -7 -7 -12 0
-12 -2 0 -9 9 -6 0 -14 -33 -26 -28 -11 -43 -22 -38 -27 5 -5 81 -11 169 -13
89 -2 170 -8 181 -14 11 -6 22 -7 26 -3 4 3 4 -1 0 -11 -5 -13 -2 -16 10 -11
9 3 13 10 10 15 -3 5 7 9 21 9 16 0 24 -4 20 -11 -4 -6 10 -2 31 9 33 16 63
19 180 20 84 1 166 -4 205 -12 41 -9 68 -10 76 -4 7 5 18 6 24 2 8 -4 9 -3 5
4 -4 7 0 12 11 13 10 0 28 2 41 3 12 2 22 -1 22 -4 0 -4 20 -3 45 2 29 6 67 6
108 0 47 -7 78 -7 118 2 30 7 66 12 82 12 16 -1 27 4 27 11 0 7 -7 13 -15 13
-9 0 -15 6 -13 14 2 8 0 15 -5 15 -14 1 -127 63 -127 70 0 4 -19 14 -42 21
-41 13 -58 26 -58 43 0 4 7 7 15 7 27 0 16 19 -20 35 -20 8 -42 21 -50 29 -14
13 -13 16 0 24 13 7 9 13 -22 34 -21 14 -49 29 -62 33 -17 5 -20 9 -11 15 9 6
8 9 -6 14 -20 6 -23 10 -61 89 -19 37 -28 46 -58 51 -20 4 -33 11 -30 16 3 6
-7 22 -22 36 -15 15 -27 30 -25 35 1 5 -2 9 -8 9 -5 0 -7 7 -4 15 4 9 0 15 -7
15 -8 0 1 8 19 16 31 16 43 34 22 34 -11 0 -69 61 -70 73 0 4 7 7 16 5 10 -2
19 3 21 10 4 10 -7 14 -34 11 -8 -1 -21 29 -22 51 -1 13 0 13 9 0 7 -11 10
-11 10 -2 0 7 -12 24 -27 37 -21 18 -25 26 -16 35 8 9 15 6 28 -14 10 -14 25
-25 34 -25 13 1 12 2 -2 6 -13 3 -17 11 -14 24 3 10 1 19 -5 19 -5 0 -7 4 -4
9 9 14 -17 39 -78 73 -59 33 -64 41 -69 104 -2 25 1 30 15 26 10 -2 18 1 18 7
0 6 9 11 20 11 11 0 20 -6 20 -12 0 -9 3 -9 8 -2 11 16 105 12 119 -6 10 -13
11 -12 10 3 -2 15 12 23 63 38 68 20 102 31 134 44 12 5 17 5 13 -2 -3 -5 1
-10 9 -10 8 0 13 6 10 14 -6 14 27 36 39 25 4 -4 6 2 4 13 -3 16 -15 22 -64
28 -33 4 -94 19 -135 34 -90 30 -131 36 -124 18 6 -15 -27 -16 -37 -1 -4 5
-18 10 -32 11 -25 3 -77 32 -77 44 0 3 -16 15 -35 25 -19 11 -35 23 -35 28 0
4 -7 8 -16 8 -9 0 -12 5 -8 12 4 7 3 8 -4 4 -21 -13 -106 94 -88 111 8 9 86
-33 78 -42 -4 -4 2 -2 14 5 16 10 26 10 40 2 11 -7 13 -12 6 -12 -7 0 -10 -5
-7 -10 4 -6 16 -8 27 -4 14 4 18 2 14 -5 -7 -12 4 -19 39 -24 11 -1 25 -6 31
-9 6 -4 16 3 22 16 9 20 7 25 -14 35 -14 6 -32 11 -40 11 -9 0 -12 5 -8 12 4
6 3 8 -4 4 -6 -3 -17 0 -24 8 -8 7 -40 19 -71 26 -31 7 -57 18 -57 23 0 5 -6
4 -14 -2 -11 -9 -16 -9 -22 0 -4 7 1 16 10 21 16 9 16 11 -3 29 -11 10 -27 19
-35 19 -25 0 -29 20 -4 21 13 1 27 1 31 0 5 -1 6 3 2 9 -4 6 -2 16 3 23 5 7 7
27 5 45 -5 27 -9 32 -25 26 -15 -5 -19 -3 -13 7 7 12 5 12 -6 1 -12 -11 -12
-14 0 -21 9 -6 10 -11 2 -15 -14 -9 -15 -36 -1 -36 5 0 8 6 6 13 -1 6 -1 9 1
4 3 -4 9 -4 15 -1 6 4 9 1 6 -7 -5 -13 -18 -14 -80 -7 -10 1 -18 4 -18 5 0 9
39 40 44 35 3 -3 6 0 6 6 0 7 -7 12 -16 12 -10 0 -14 5 -10 16 3 8 2 12 -4 9
-12 -7 -70 25 -70 38 0 5 -6 4 -14 -2 -10 -9 -16 -8 -26 4 -9 10 -9 15 -1 15
6 0 11 -5 11 -12 0 -6 9 -1 20 12 23 27 69 38 130 30 34 -4 49 -2 61 11 15 15
14 19 -15 44 -17 15 -32 27 -34 25 -2 -1 -28 11 -58 27 -41 21 -57 36 -65 61
-6 19 -17 32 -27 32 -15 0 -15 2 -2 10 16 11 15 11 -18 15 -18 2 -20 0 -11
-11 19 -23 -24 -17 -56 8 -31 24 -55 74 -55 113 0 15 -4 24 -9 21 -5 -3 -11 3
-14 14 -3 11 -1 23 4 26 6 4 6 10 0 17 -14 18 -13 26 5 44 15 15 15 18 0 29
-21 15 -95 -2 -103 -23 -4 -11 -8 -10 -19 4 -15 21 -19 57 -4 48 5 -3 3 7 -5
22 -8 15 -15 40 -15 56 0 15 -9 36 -20 47 -11 11 -20 16 -20 10z"/>
<path d="M6230 6664 c0 -14 -4 -23 -10 -19 -6 3 -10 -4 -10 -17 0 -18 2 -20
10 -8 7 11 10 5 10 -22 0 -33 3 -38 24 -38 25 0 51 -23 42 -38 -3 -5 5 -17 16
-27 21 -17 22 -17 39 4 9 11 22 21 27 21 5 0 13 7 16 16 3 8 2 12 -4 9 -6 -3
-10 1 -10 9 0 9 -4 16 -9 16 -5 0 -14 12 -20 28 -13 30 -68 72 -95 72 -9 0
-14 5 -11 10 3 6 1 10 -4 10 -6 0 -11 -12 -11 -26z"/>
<path d="M3506 5535 c-3 -8 -32 -16 -73 -21 -77 -8 -103 -27 -76 -56 8 -9 12
-22 7 -29 -5 -9 -2 -10 9 -6 9 3 23 0 31 -8 8 -8 21 -12 29 -9 8 3 18 0 22 -7
6 -8 -2 -10 -29 -7 -29 3 -36 1 -35 -11 3 -37 -2 -71 -10 -71 -13 0 -10 43 4
53 5 5 0 5 -13 2 -14 -4 -37 1 -62 14 -48 25 -90 24 -90 -1 0 -10 -5 -18 -10
-18 -8 0 -8 -4 -1 -12 63 -76 64 -78 44 -78 -18 0 -63 49 -63 68 0 18 -30 34
-47 27 -10 -5 -22 -7 -26 -6 -5 1 -6 -15 -3 -36 3 -21 5 -48 6 -60 0 -17 4
-20 22 -15 17 4 20 2 15 -12 -5 -11 -3 -15 5 -10 8 5 9 2 5 -9 -4 -10 -1 -17
6 -18 7 0 -21 -9 -60 -19 -40 -10 -89 -30 -109 -44 l-36 -24 29 -6 c43 -9 63
-13 121 -21 39 -5 52 -11 52 -23 0 -14 -2 -14 -9 -3 -7 11 -9 11 -13 0 -3 -10
-13 -9 -46 4 -53 21 -49 22 -49 -8 0 -18 5 -25 18 -25 11 0 19 -5 19 -12 0 -6
8 -29 18 -49 13 -30 24 -40 50 -45 17 -3 32 -11 32 -17 0 -5 8 -3 18 6 17 16
20 15 40 -13 24 -32 30 -66 10 -54 -10 6 -10 4 0 -8 11 -13 6 -16 -38 -22 -28
-4 -54 -5 -58 -2 -4 2 -18 -11 -31 -30 -13 -19 -27 -34 -32 -34 -5 0 -6 -7 -3
-15 4 -8 1 -22 -6 -30 -10 -12 -10 -15 1 -14 23 1 56 17 39 19 -25 3 43 29 76
30 42 0 55 -15 39 -47 -7 -14 -12 -35 -9 -47 2 -11 1 -29 -2 -39 -5 -16 -7
-16 -22 3 -16 18 -20 19 -56 6 -23 -8 -33 -16 -25 -19 8 -3 -11 -3 -41 0 -51
4 -56 3 -66 -21 -9 -20 -9 -34 2 -63 20 -58 18 -82 -10 -93 -35 -13 -107 -9
-133 7 -20 13 -22 12 -35 -14 -8 -17 -23 -29 -38 -31 -28 -4 -82 -50 -74 -64
3 -4 10 -5 16 -2 6 4 14 1 18 -6 5 -7 28 -12 56 -12 42 0 45 -1 24 -9 -14 -6
-34 -8 -45 -5 -19 5 -19 4 -2 -8 16 -13 16 -15 -9 -31 -17 -11 -23 -20 -16
-27 7 -7 18 -5 33 5 27 17 99 21 99 5 0 -7 4 -7 13 0 11 9 57 0 57 -12 0 -2
-10 -2 -22 1 -22 5 -22 5 -4 -9 14 -11 16 -17 7 -23 -7 -4 -18 -2 -24 4 -15
15 -27 14 -27 -3 0 -7 -8 -20 -17 -27 -15 -12 -16 -12 -8 1 8 13 7 13 -8 1
-13 -10 -17 -10 -17 -1 0 7 -7 10 -15 6 -8 -3 -15 -2 -15 3 0 4 -7 8 -15 8 -9
0 -19 -16 -26 -40 -8 -30 -13 -37 -20 -26 -5 8 -9 10 -9 5 0 -5 20 -26 45 -48
25 -22 42 -44 39 -49 -3 -5 -2 -9 3 -8 4 1 19 -3 34 -8 14 -6 37 -9 52 -6 21
4 27 1 27 -11 0 -10 3 -15 8 -12 4 2 12 -7 19 -20 7 -16 8 -22 1 -17 -7 3 -8
1 -4 -5 4 -7 24 -12 45 -12 21 0 55 -7 76 -15 35 -15 37 -15 42 4 8 30 32 14
39 -27 5 -24 9 -31 13 -21 5 14 8 14 25 -2 19 -19 19 -19 -8 -19 -15 0 -29 -7
-33 -16 -3 -8 -12 -13 -19 -10 -20 8 -44 -4 -44 -21 0 -21 -51 -62 -78 -63
-21 0 -22 -1 -7 -16 8 -9 22 -14 30 -11 7 3 19 -1 25 -9 12 -14 8 -15 -45 -14
-3 0 -20 -6 -38 -13 -17 -8 -38 -12 -44 -10 -7 3 -13 -1 -13 -7 0 -7 -7 -10
-16 -6 -9 3 -12 2 -9 -5 5 -7 -14 -9 -54 -8 -79 3 -117 -27 -77 -61 8 -6 12
-18 9 -26 -3 -8 -2 -14 3 -13 17 3 34 -1 34 -8 0 -5 -10 -8 -22 -9 -98 -4
-140 -9 -144 -16 -3 -4 -10 -8 -15 -8 -6 0 -7 5 -4 10 3 6 1 10 -4 10 -6 0
-11 -4 -11 -10 0 -5 -8 -10 -19 -10 -10 0 -36 -7 -57 -16 -21 -9 -61 -17 -89
-18 -61 -2 -65 -17 -7 -29 27 -5 40 -12 36 -19 -5 -7 -1 -9 9 -5 11 4 20 -1
27 -13 7 -13 6 -20 -3 -23 -6 -3 -3 -5 8 -5 28 1 75 -19 75 -32 0 -5 6 -9 13
-8 6 2 12 -6 12 -17 1 -26 14 -47 26 -40 5 4 9 -1 9 -9 0 -9 5 -16 11 -16 5 0
7 6 3 13 -5 7 -1 6 10 -3 21 -17 52 -35 84 -49 12 -6 22 -15 22 -21 0 -5 7
-10 16 -10 9 0 14 -6 11 -13 -3 -9 5 -14 25 -15 16 -1 47 -11 68 -22 22 -11
50 -20 62 -20 16 0 19 -3 10 -9 -13 -8 13 -7 135 3 26 2 40 0 37 -6 -4 -6 3
-5 14 1 14 7 46 9 91 5 61 -6 73 -4 96 15 15 11 32 18 38 14 6 -3 7 -1 3 5 -4
7 -3 12 2 12 6 0 15 14 21 31 7 21 15 28 23 23 9 -5 8 -2 -2 10 -13 17 -14 17
-20 0 -6 -15 -8 -15 -16 -3 -8 12 -14 59 -8 59 14 0 93 -48 87 -53 -3 -4 -1
-7 5 -7 7 0 12 4 12 9 0 16 59 -9 74 -31 10 -15 15 -16 20 -6 3 7 4 3 2 -10
-4 -19 -2 -21 9 -12 21 17 60 8 59 -13 -1 -9 5 -17 13 -17 8 0 11 5 8 10 -8
14 8 13 22 -1 9 -9 11 -7 7 8 -4 15 0 19 20 19 13 0 23 -3 20 -7 -2 -4 5 -9
16 -12 21 -5 29 8 9 15 -16 5 122 1 228 -7 70 -6 113 -3 178 10 47 9 93 14
101 11 8 -3 13 -2 10 3 -9 14 126 32 141 19 10 -8 24 -8 52 2 28 9 44 9 58 1
11 -5 23 -7 27 -4 3 4 31 6 61 5 30 0 57 4 61 9 3 5 9 7 14 4 10 -6 22 23 14
36 -3 5 -13 9 -22 9 -29 1 13 27 56 35 52 9 172 58 172 70 1 17 46 54 86 71
28 12 34 18 24 24 -14 7 -123 18 -232 22 -41 1 -46 4 -35 16 10 13 9 14 -9 4
-16 -9 -21 -8 -21 3 0 8 5 11 10 8 6 -3 7 -1 4 4 -4 6 -33 14 -64 17 -32 4
-83 16 -113 26 -30 10 -67 21 -82 24 -16 4 -28 11 -28 17 0 6 -4 8 -9 4 -11
-6 -61 15 -61 26 0 4 -8 10 -17 12 -10 3 22 5 70 6 49 0 86 -3 83 -8 -10 -15
104 -2 159 19 l26 10 -22 32 c-16 22 -19 33 -11 36 9 3 10 8 2 17 -8 10 -4 14
15 19 14 4 39 19 56 33 23 21 29 33 24 51 -4 15 -2 21 5 17 5 -3 10 -2 10 4 0
6 18 16 40 22 22 7 40 16 40 20 0 4 7 9 15 11 14 3 14 5 1 24 -10 14 -31 24
-61 28 -24 4 -47 11 -50 17 -9 14 -27 11 -19 -3 5 -10 4 -10 -6 -1 -7 7 -30 9
-59 6 -37 -4 -51 0 -73 16 -15 12 -25 27 -22 34 2 7 -6 17 -18 22 -20 9 -23
16 -20 53 2 27 -1 42 -8 42 -7 0 -10 6 -7 13 3 8 -4 14 -16 15 -12 0 -53 17
-92 36 -85 43 -155 67 -169 58 -6 -3 3 8 20 25 44 44 37 84 -23 141 -36 33
-43 45 -34 56 9 11 8 15 -6 21 -10 5 -22 9 -28 9 -5 1 -9 10 -7 20 2 11 -1 15
-7 11 -6 -3 -25 4 -42 16 -17 12 -41 23 -53 23 -11 1 -20 7 -19 14 2 7 -2 12
-8 12 -6 0 -9 7 -5 15 3 8 1 15 -5 15 -6 0 -7 5 -4 10 3 6 -1 11 -9 11 -18 2
-17 1 -73 18 -24 6 -43 16 -43 20 0 5 17 22 38 37 32 25 49 30 132 36 170 13
186 15 208 29 12 8 22 17 22 21 0 5 5 8 11 8 5 0 7 -5 3 -12 -4 -7 -3 -8 5 -4
6 4 9 12 6 17 -4 5 1 12 9 15 14 5 14 8 1 20 -11 12 -19 12 -35 4 -11 -6 -26
-7 -33 -3 -6 4 -30 9 -52 10 -22 2 -46 4 -52 5 -20 2 -15 18 5 19 13 0 13 2
-4 9 -12 5 -25 13 -28 19 -5 7 -15 7 -32 1 -33 -13 -34 -13 -27 7 6 15 5 16
-9 3 -10 -9 -12 -17 -6 -21 6 -4 7 -13 1 -23 -8 -14 -11 -14 -38 0 -16 8 -39
13 -51 10 -16 -4 -26 1 -39 20 -9 14 -14 32 -11 40 3 7 -3 18 -12 24 -14 9
-12 11 10 7 17 -2 25 0 21 6 -4 6 4 8 20 5 15 -3 24 -2 22 2 -2 4 38 7 91 7
52 0 97 3 101 7 3 3 19 6 34 6 31 0 87 39 57 40 -10 0 -21 0 -24 -1 -4 0 -10
3 -13 8 -3 5 -32 20 -63 32 -32 13 -58 28 -58 33 0 5 -5 6 -10 3 -6 -4 -33 -2
-60 5 -33 8 -54 8 -67 1 -12 -6 -25 -6 -34 0 -12 7 -12 9 1 10 8 1 19 1 23 0
18 -3 -6 21 -30 30 -13 5 -22 13 -19 18 4 5 -3 7 -15 4 -16 -5 -20 -2 -18 12
5 23 105 45 179 39 37 -3 49 -1 44 7 -5 8 1 10 19 7 15 -3 25 -2 22 1 -2 4 60
6 138 6 78 -1 147 1 152 5 20 14 72 19 84 7 7 -7 11 -7 11 -1 0 6 10 10 23 10
17 -1 23 5 25 25 2 16 -2 26 -10 26 -7 1 -44 4 -83 7 -38 4 -128 8 -200 10
-71 2 -139 7 -149 11 -12 5 -17 5 -13 -2 4 -5 -6 -10 -23 -10 -30 0 -40 12
-17 20 6 2 9 8 5 12 -4 4 -14 2 -23 -5 -21 -17 -29 -7 -15 19 12 24 22 26 52
10 11 -6 18 -7 14 -1 -3 5 21 18 54 28 84 27 86 44 6 44 -35 0 -108 4 -162 10
-245 23 -232 24 -265 -11 -26 -27 -32 -58 -9 -44 5 3 13 -3 19 -12 7 -12 10
-14 11 -4 0 15 54 9 76 -9 17 -15 6 -47 -19 -54 -24 -6 -109 14 -119 29 -5 6
-8 5 -8 -2 0 -7 -5 -13 -11 -13 -5 0 -7 4 -4 10 3 5 0 7 -9 4 -8 -3 -21 -2
-28 2 -18 12 -58 11 -58 -1 0 -5 -4 -4 -9 4 -5 8 -27 14 -49 15 -48 1 -59 10
-41 30 37 41 39 44 26 54 -21 16 -55 20 -61 7z"/>
<path d="M6093 5293 c1 -10 8 -24 15 -31 6 -7 12 -19 12 -25 0 -7 -4 -6 -10 3
-5 8 -10 11 -10 6 0 -5 7 -17 14 -25 8 -9 16 -37 16 -61 4 -97 4 -98 68 -97
31 0 60 5 63 9 3 5 23 11 43 15 37 6 38 5 27 -16 -7 -11 -16 -21 -21 -21 -6 0
-22 -13 -36 -30 -26 -28 -29 -29 -106 -27 -44 1 -81 0 -83 -4 -3 -3 -21 -4
-42 -2 -61 6 -204 6 -210 -1 -4 -3 -14 -6 -23 -6 -9 0 -25 -10 -36 -22 -12
-13 -13 -18 -4 -13 18 11 62 7 75 -7 7 -8 6 -9 -2 -4 -7 4 -13 2 -13 -4 0 -7
8 -9 20 -5 21 7 90 -29 90 -46 0 -5 3 -8 8 -8 20 3 25 -2 12 -12 -11 -7 -12
-12 -3 -15 7 -3 9 -12 6 -21 -4 -11 -2 -14 5 -9 7 4 15 1 18 -8 3 -8 14 -18
25 -21 28 -9 23 -27 -16 -55 -19 -14 -35 -31 -35 -38 0 -7 -8 -25 -17 -39 -15
-23 -15 -26 -3 -21 11 4 16 0 17 -13 2 -18 1 -18 -15 -2 -16 16 -17 15 -20
-15 -3 -27 -8 -32 -40 -38 -20 -4 -49 -15 -64 -25 -31 -23 -42 -24 -35 -5 4
10 1 13 -8 10 -7 -3 -13 -19 -13 -34 1 -16 5 -27 9 -24 5 3 17 0 26 -5 14 -8
15 -10 3 -11 -8 0 -26 -3 -39 -7 -17 -4 -22 -3 -17 5 5 8 2 10 -9 6 -9 -4 -14
-13 -11 -20 3 -8 1 -14 -4 -14 -15 0 -12 47 3 53 8 4 7 6 -4 6 -18 1 -39 -18
-39 -36 0 -8 -11 -26 -25 -41 -16 -17 -23 -33 -19 -46 5 -13 2 -17 -7 -12 -8
4 -6 1 3 -6 15 -13 15 -15 0 -24 -9 -6 -40 -10 -69 -9 -63 3 -77 -17 -33 -44
24 -14 27 -20 17 -31 -9 -9 -6 -9 13 1 33 19 92 18 98 0 3 -10 0 -12 -12 -8
-9 4 -16 4 -16 1 0 -2 10 -9 23 -14 19 -8 17 -9 -15 -9 -21 -1 -38 -6 -38 -12
0 -5 5 -7 10 -4 6 3 10 1 10 -4 0 -6 -3 -11 -7 -11 -5 0 -16 -14 -25 -30 -19
-34 -42 -38 -71 -12 -15 12 -18 13 -12 2 5 -8 10 -22 10 -30 1 -8 2 -26 3 -40
1 -17 8 -26 20 -27 9 -1 51 -13 92 -28 42 -15 89 -25 108 -23 17 2 32 0 32 -4
0 -4 11 -8 23 -8 13 0 39 -7 57 -16 24 -12 29 -19 19 -25 -15 -9 -6 -13 26 -9
31 3 11 -11 -21 -15 -16 -2 -31 -4 -34 -4 -3 -1 2 -6 10 -11 13 -9 13 -11 0
-21 -12 -9 -12 -10 4 -5 12 4 26 -1 38 -14 13 -14 15 -20 6 -21 -7 0 3 -7 22
-14 19 -7 29 -14 22 -14 -7 -1 -11 -5 -7 -10 3 -6 -3 -14 -12 -20 -14 -8 -15
-11 -3 -11 10 0 6 -9 -13 -25 -16 -14 -33 -23 -38 -20 -5 3 -6 -1 -3 -9 3 -9
1 -16 -6 -16 -6 0 -18 -7 -26 -15 -9 -8 -25 -15 -37 -15 -12 0 -31 -7 -41 -15
-19 -14 -19 -15 -1 -15 38 0 8 -8 -52 -15 -70 -7 -184 -41 -195 -59 -6 -8 -11
-7 -18 4 -8 12 -10 11 -10 -6 0 -12 7 -24 15 -28 25 -9 -4 -48 -32 -43 -12 2
-20 0 -17 -4 2 -4 -13 -13 -35 -20 -21 -6 -51 -22 -66 -35 -15 -13 -31 -22
-35 -19 -4 2 -7 -2 -7 -10 0 -9 10 -15 23 -15 13 0 26 -5 29 -10 4 -6 3 -10
-2 -9 -4 1 -21 -3 -36 -9 -16 -7 -36 -12 -46 -12 -10 0 -26 -9 -37 -21 -15
-17 -67 -46 -94 -54 -3 0 -20 -9 -38 -19 -19 -9 -40 -15 -48 -12 -8 3 -14 2
-14 -2 0 -4 -32 -20 -70 -36 -39 -17 -67 -33 -62 -38 15 -15 97 -24 182 -21
92 3 134 -2 125 -17 -3 -5 -1 -11 4 -14 5 -4 12 -2 15 3 3 4 30 9 61 9 44 0
55 -4 55 -17 0 -13 10 -16 62 -13 35 1 105 4 157 6 51 2 96 8 100 13 3 6 14 9
24 7 9 -1 15 2 11 7 -9 15 30 10 55 -8 14 -9 21 -11 17 -5 -3 6 -2 13 4 17 5
3 10 1 10 -5 0 -6 4 -9 9 -6 5 4 12 0 14 -6 3 -8 6 -6 6 5 1 9 8 17 17 17 9 0
13 -5 9 -12 -4 -7 0 -5 8 5 8 10 26 16 43 16 25 -2 25 -2 6 -6 -47 -9 -15 -28
49 -30 35 -1 89 -3 119 -4 74 -3 140 3 140 12 0 4 -10 15 -22 23 -31 22 -15
20 76 -9 91 -29 151 -31 224 -10 85 26 67 38 -73 49 -73 7 -105 15 -105 28 0
6 31 8 74 6 41 -2 72 0 69 5 -2 4 28 7 67 7 39 0 85 6 103 13 59 25 104 29
143 12 44 -18 44 -18 44 -1 0 10 20 15 82 18 53 2 83 8 86 16 2 7 8 10 13 6 5
-3 9 -1 9 5 0 13 55 8 95 -8 17 -7 52 -11 79 -8 44 4 48 3 31 -9 -18 -13 -17
-14 7 -14 15 0 30 -4 33 -10 3 -5 -3 -10 -15 -10 -12 0 -19 -4 -16 -9 3 -4
-19 -16 -49 -26 -30 -9 -65 -25 -78 -36 -14 -10 -28 -15 -32 -11 -5 4 -5 2 -1
-5 3 -6 2 -14 -4 -18 -5 -3 -10 -13 -10 -21 0 -11 15 -14 63 -14 34 0 69 -4
77 -10 8 -5 17 -6 20 -1 8 12 160 42 173 35 7 -4 9 -4 5 1 -5 5 20 19 55 33
34 14 69 31 78 38 8 8 23 14 33 14 9 0 15 4 12 9 -3 4 15 21 39 37 25 15 45
33 45 40 0 10 -24 23 -55 28 -5 1 -9 8 -7 15 1 7 -1 10 -6 7 -5 -3 -24 8 -43
23 -20 17 -82 45 -146 66 -62 21 -110 42 -107 47 3 4 -1 5 -9 2 -9 -3 -16 2
-19 14 -10 36 -149 54 -211 27 -10 -4 -23 -2 -31 4 -10 9 -16 9 -21 1 -8 -13
-106 -6 -133 9 -16 10 -16 10 2 11 11 0 16 3 13 7 -10 9 54 54 66 46 6 -3 7
-2 4 3 -3 6 7 15 24 21 16 6 27 8 25 4 -3 -4 -1 -13 5 -21 7 -12 9 -10 9 8 0
12 5 22 11 22 5 0 7 -4 4 -10 -3 -5 1 -10 10 -10 9 0 14 4 11 9 -3 5 4 11 17
15 12 3 24 1 26 -5 1 -5 9 -2 16 7 11 16 15 17 36 3 37 -24 71 -30 89 -15 16
14 91 40 150 52 37 7 95 42 86 52 -3 3 2 11 12 19 9 8 11 11 3 7 -8 -4 -19 -1
-26 9 -7 10 -29 17 -58 18 -42 2 -93 18 -59 19 6 0 12 6 12 14 0 8 6 17 13 19
10 4 10 6 0 6 -7 1 -13 7 -13 15 0 9 -18 19 -47 25 -69 16 -67 16 -78 23 -6 4
-34 -2 -63 -11 -28 -10 -52 -15 -52 -11 0 3 -22 4 -49 0 -27 -3 -57 -3 -67 1
-18 7 -18 8 1 9 11 2 26 2 33 1 8 -1 19 2 25 7 19 14 67 20 74 9 4 -6 11 -3
19 8 8 11 21 16 34 12 11 -3 18 -2 16 2 -2 3 15 15 37 26 56 27 73 44 82 83 5
25 3 32 -8 32 -9 0 -17 4 -19 8 -1 5 -34 5 -73 2 -67 -6 -115 3 -115 22 0 4
-9 8 -20 8 -26 0 -70 21 -70 34 0 5 -6 2 -13 -9 -8 -10 -19 -15 -25 -11 -16
10 -10 44 8 45 34 1 94 12 112 22 10 5 22 8 26 5 5 -3 9 15 11 40 2 42 1 45
-18 35 -24 -14 -61 -14 -61 -2 0 6 -12 6 -31 -1 -32 -11 -45 -6 -34 12 4 6 13
9 21 6 8 -3 14 1 14 9 0 9 -6 12 -16 8 -14 -5 -14 -3 -3 16 13 20 32 30 26 14
-1 -5 2 -10 8 -13 5 -3 10 11 11 32 1 32 -1 36 -15 29 -19 -10 -51 -6 -60 7
-3 5 -23 20 -43 34 -21 13 -36 27 -33 30 3 2 -5 4 -18 4 -17 -1 -21 4 -20 21
2 17 -4 24 -22 29 -15 4 -25 13 -25 24 0 10 -8 21 -17 24 -12 5 -14 9 -5 18 7
7 12 16 12 22 0 5 -6 1 -14 -9 -13 -18 -14 -18 -33 1 -25 24 -47 64 -39 72 3
3 6 0 6 -7 0 -7 4 -9 10 -6 5 3 23 -2 39 -11 19 -11 35 -14 47 -9 11 4 24 9
31 10 19 5 49 24 36 25 -7 0 -10 7 -6 17 4 10 2 14 -4 10 -6 -4 -13 2 -16 13
-3 12 -14 20 -25 20 -11 0 -22 7 -26 15 -3 8 -1 15 4 15 6 0 10 8 10 18 -1 14
-3 14 -20 -6 -10 -12 -21 -18 -24 -13 -4 5 -2 11 4 13 5 1 12 17 16 35 6 31 5
32 -24 30 -16 -1 -28 -5 -26 -8 2 -4 -3 -10 -11 -13 -9 -3 -18 1 -21 9 -3 7
-12 11 -20 8 -8 -3 -14 1 -14 11 0 9 -9 25 -21 37 -26 26 -17 59 15 59 13 0
29 -7 36 -15 10 -12 16 -13 26 -4 11 9 14 8 15 -2 0 -8 4 -5 9 6 5 11 9 15 9
8 1 -6 10 -9 21 -6 22 6 49 33 32 33 -11 0 -25 37 -22 59 1 13 -1 13 -14 2
-14 -11 -16 -11 -16 3 0 13 -5 16 -19 11 -11 -3 -22 -1 -25 4 -4 5 -25 8 -47
6 -30 -3 -40 -1 -36 8 3 9 -7 11 -36 8 -29 -2 -38 0 -32 9 4 6 16 10 26 7 11
-3 17 -1 14 3 -3 5 -1 11 5 15 6 4 8 10 5 15 -3 5 2 13 10 18 18 10 10 42 -10
42 -7 0 -15 5 -17 11 -6 17 -51 17 -67 1 -13 -12 -16 -12 -27 2 -9 13 -13 14
-17 4 -4 -8 -8 -9 -14 -3 -9 11 -22 15 -65 23 -32 5 -55 27 -38 37 5 3 10 11
10 16 0 6 -4 8 -9 4 -5 -3 -12 -1 -16 5 -10 16 -65 12 -83 -7 -16 -16 -17 -15
-20 0 -2 10 -8 15 -13 11 -5 -3 -7 -10 -4 -15 9 -14 -12 -11 -27 4 -7 7 -26
12 -43 12 -17 -1 -40 7 -52 18 -20 18 -21 18 -20 0z"/>
<path d="M2640 3124 c0 -8 7 -22 15 -30 9 -9 15 -11 15 -4 0 6 5 8 10 5 6 -3
10 -1 10 5 0 7 7 4 16 -5 15 -15 15 -18 -2 -38 -17 -20 -17 -20 8 1 26 23 27
23 45 5 11 -11 25 -17 31 -15 7 2 19 -1 26 -7 7 -6 32 -17 55 -26 23 -8 55
-24 71 -35 15 -11 32 -20 37 -20 4 0 1 5 -7 10 -13 8 -12 10 5 11 11 1 25 3
30 4 6 2 14 3 19 4 16 2 -16 31 -35 31 -11 0 -19 5 -19 11 0 5 -4 8 -8 5 -5
-3 -26 4 -48 16 -21 11 -61 27 -88 35 -36 11 -46 17 -35 24 9 6 0 8 -29 6 -23
-2 -47 2 -52 8 -15 18 -70 18 -70 -1z"/>
<path d="M2353 8643 c4 -24 0 -36 -12 -43 -14 -8 -14 -9 2 -10 11 0 15 -4 11
-12 -5 -8 -2 -9 9 -5 9 3 19 2 23 -4 4 -6 11 -6 19 1 8 7 19 9 25 5 5 -3 10
-2 10 3 0 5 27 20 60 33 33 13 60 27 60 32 0 4 -6 5 -12 1 -9 -5 -8 -2 1 9 8
10 11 20 7 24 -3 3 -6 2 -6 -3 0 -5 -38 -9 -85 -9 -47 -1 -85 2 -85 5 0 4 -7
7 -16 7 -12 0 -14 -8 -11 -34z"/>
<path d="M9003 7995 c-13 -9 -58 -15 -129 -17 -60 -2 -118 -8 -128 -12 -13 -7
-17 -6 -12 2 3 6 2 13 -3 16 -10 7 -9 -6 3 -41 7 -21 11 -22 146 -20 76 1 136
5 133 10 -2 4 3 7 12 7 9 0 13 5 10 10 -3 6 -1 10 4 10 16 0 13 37 -3 43 -7 3
-22 -1 -33 -8z"/>
<path d="M2913 1464 c7 -40 0 -50 -33 -48 -27 2 -30 -1 -36 -43 -4 -25 -9 -41
-13 -37 -13 19 -31 13 -31 -9 0 -16 20 -38 71 -78 68 -54 72 -56 134 -57 35
-1 67 3 70 8 3 5 13 6 23 3 13 -5 12 -1 -6 19 -12 13 -20 28 -17 31 3 4 2 5
-2 2 -9 -7 -34 16 -27 26 5 8 0 10 -34 13 -6 1 -28 14 -47 30 -33 28 -34 30
-18 48 16 18 16 18 -1 12 -27 -11 -37 15 -19 48 9 15 21 24 26 21 6 -3 7 -1 3
5 -4 7 -16 17 -28 23 -19 10 -20 9 -15 -17z"/>
<path d="M6690 1306 c-25 -8 -63 -21 -85 -29 -26 -10 -44 -12 -52 -6 -7 7 -14
6 -19 -2 -5 -8 -3 -10 7 -4 8 5 5 -2 -6 -15 -16 -19 -17 -22 -4 -17 13 4 16 1
11 -16 -5 -19 -3 -20 10 -10 8 7 17 11 19 8 3 -2 41 5 84 15 98 24 113 25 138
3 11 -10 18 -13 14 -7 -4 7 19 16 68 24 129 22 87 52 -90 66 -27 2 -70 -3 -95
-10z"/>
<path d="M5782 960 c-67 -10 -113 -29 -106 -44 3 -6 -3 0 -14 13 -19 23 -19
23 -47 5 -15 -10 -35 -19 -44 -20 -9 -1 -25 -4 -36 -7 -17 -4 -21 0 -20 20 0
20 -6 26 -25 29 -14 1 -20 1 -14 -2 6 -3 9 -15 7 -29 -6 -30 -59 -43 -193 -49
-74 -3 -122 2 -215 21 -66 13 -139 27 -162 30 -29 3 -41 9 -36 17 4 7 1 7 -9
-1 -8 -7 -18 -10 -21 -6 -4 3 -7 2 -7 -4 0 -5 -20 -10 -45 -11 -35 0 -45 3
-46 16 0 10 -2 13 -5 7 -3 -9 -30 -10 -129 -5 -11 1 -38 -3 -60 -9 -27 -7 -42
-7 -46 0 -4 6 -9 4 -12 -6 -4 -9 -3 -13 3 -10 6 3 10 1 10 -4 0 -6 -5 -11 -12
-11 -31 0 9 -14 74 -25 63 -11 76 -11 97 2 31 20 103 2 99 -24 -2 -12 16 -24
68 -43 65 -24 112 -34 99 -21 -3 2 7 10 22 16 21 9 38 9 68 0 35 -11 225 -12
565 -4 30 1 66 -1 81 -5 21 -6 27 -3 37 19 7 15 10 31 7 36 -4 5 -1 9 4 9 6 0
11 -5 11 -11 0 -8 4 -8 13 -2 13 11 44 20 103 29 21 3 72 17 112 31 82 29 84
48 4 49 -26 0 -65 3 -87 6 -22 3 -64 2 -93 -2z"/>
</g>
</svg>
