<?xml version="1.0" standalone="no"?>
<!DOCTYPE svg PUBLIC "-//W3C//DTD SVG 20010904//EN"
 "http://www.w3.org/TR/2001/REC-SVG-20010904/DTD/svg10.dtd">
<svg version="1.0" xmlns="http://www.w3.org/2000/svg"
 width="1024.000000pt" height="1024.000000pt" viewBox="0 0 1024.000000 1024.000000"
 preserveAspectRatio="xMidYMid meet">
<metadata>
Created by potrace 1.16, written by Peter Selinger 2001-2019
</metadata>
<g transform="translate(0.000000,1024.000000) scale(0.100000,-0.100000)"
fill="#000000" stroke="none">
<path d="M4651 9119 c-14 -5 -31 -7 -38 -4 -8 2 -12 1 -9 -4 3 -5 -2 -11 -12
-13 -28 -7 -112 3 -106 13 8 14 -6 10 -22 -6 -9 -8 -21 -15 -27 -15 -7 0 -6 4
3 10 8 5 11 10 5 10 -5 -1 -18 -7 -28 -14 -14 -11 -15 -15 -5 -19 10 -4 10 -6
1 -6 -7 -1 -13 -7 -13 -15 0 -16 -50 -30 -170 -46 -60 -9 -96 -19 -122 -37
-44 -30 -48 -43 -14 -43 14 0 27 -4 30 -9 3 -4 16 -6 30 -4 13 3 32 0 43 -6
16 -9 16 -11 -7 -12 -14 -1 -32 0 -40 1 -8 1 -12 -1 -8 -6 9 -8 -25 -28 -66
-38 -18 -4 -25 -3 -21 4 12 20 -21 10 -47 -15 -31 -29 -59 -35 -37 -8 12 14
12 16 -1 11 -8 -3 -15 -14 -14 -26 0 -12 -3 -19 -8 -16 -4 3 -8 -2 -8 -10 0
-11 6 -13 20 -8 30 11 110 2 110 -13 0 -12 -37 -28 -67 -30 -7 0 -18 -6 -25
-13 -25 -25 -63 -13 -60 18 1 10 -37 9 -43 -1 -4 -5 2 -6 12 -2 16 6 16 5 4
-10 -7 -9 -19 -17 -25 -17 -7 0 -28 -8 -47 -18 -26 -13 -36 -15 -36 -6 0 7 13
18 28 24 15 7 44 27 63 46 19 19 39 34 44 34 6 0 12 7 16 15 3 10 -1 15 -12
15 -13 0 -14 2 -3 9 8 5 9 11 3 15 -11 6 -110 -61 -164 -112 -23 -22 -42 -32
-52 -29 -9 4 -16 2 -16 -3 0 -6 6 -10 13 -10 6 0 4 -5 -5 -11 -19 -11 -25 -39
-8 -39 6 0 10 4 10 8 0 9 44 32 60 32 20 0 9 -20 -14 -26 -13 -3 -26 -15 -29
-26 -4 -13 -10 -17 -18 -12 -7 4 -10 3 -5 -4 3 -6 -6 -22 -21 -36 -29 -27
-113 -61 -113 -45 0 5 6 9 14 9 10 0 13 9 11 31 -5 35 39 104 58 92 6 -3 7 -1
3 5 -3 6 10 23 31 39 21 15 47 36 58 46 10 10 25 15 32 13 7 -3 13 0 14 7 0
14 102 97 119 97 6 0 8 5 5 10 -3 6 -1 10 4 10 6 0 11 7 11 15 0 20 -2 20 -68
-17 -53 -30 -111 -71 -191 -135 -18 -16 -54 -41 -80 -57 -25 -16 -63 -48 -84
-70 -21 -23 -36 -35 -32 -28 4 7 0 12 -9 12 -9 0 -16 -4 -16 -8 0 -10 -81 -52
-99 -52 -7 0 -10 -4 -6 -9 3 -5 -45 -55 -107 -111 -62 -56 -143 -134 -180
-172 -37 -38 -72 -67 -78 -63 -6 4 -10 3 -9 -2 3 -11 -156 -173 -169 -173 -7
0 -12 -5 -12 -11 0 -21 -144 -168 -171 -174 -15 -3 -31 -17 -37 -30 -10 -22
-44 -36 -41 -17 4 22 -2 42 -11 37 -6 -3 -10 -1 -10 5 0 8 -6 8 -20 0 -15 -8
-20 -20 -19 -43 3 -41 -10 -99 -20 -92 -5 2 -6 -6 -4 -20 3 -15 10 -22 19 -18
8 3 14 1 14 -5 0 -6 -4 -12 -8 -14 -5 -1 -26 -34 -47 -73 -21 -38 -45 -78 -53
-87 -19 -22 -42 -23 -42 -2 0 14 2 15 18 3 15 -13 16 -12 3 4 -7 9 -10 17 -5
17 5 0 2 5 -6 10 -13 8 -13 10 1 10 9 0 21 12 27 26 7 14 17 22 23 18 7 -4 9
2 7 17 -4 31 -37 38 -45 10 -3 -12 -10 -18 -17 -14 -6 4 -5 -1 3 -10 12 -16
12 -17 -5 -11 -18 6 -17 5 1 -9 16 -13 17 -16 4 -17 -22 0 -24 -69 -3 -85 14
-10 14 -15 -5 -48 -12 -21 -21 -49 -21 -62 0 -14 -4 -25 -10 -25 -5 0 -7 -7
-4 -15 4 -8 2 -15 -3 -15 -5 0 -8 -13 -5 -29 5 -34 -16 -104 -28 -96 -5 3 -11
-1 -13 -7 -3 -7 -6 -1 -6 15 -1 15 -6 27 -12 27 -5 0 -7 5 -4 10 4 6 8 41 10
78 1 37 6 82 10 101 4 18 8 42 10 54 2 12 6 42 10 67 3 25 10 57 15 73 13 39
24 147 15 147 -21 0 -69 -48 -85 -85 -21 -48 -39 -131 -42 -193 -2 -45 -11
-61 -24 -41 -5 8 -3 9 6 4 8 -5 11 -4 7 3 -4 5 -16 8 -27 5 -11 -3 -18 -9 -15
-13 8 -13 -20 -71 -30 -63 -5 5 -3 0 4 -9 7 -10 10 -18 5 -18 -5 0 -3 -4 5 -9
9 -6 10 -14 3 -27 -9 -16 -21 -91 -27 -158 -1 -10 -9 -24 -18 -31 -9 -7 -17
-21 -17 -32 0 -12 -7 -36 -15 -54 -14 -33 -14 -33 -15 -7 0 15 5 30 11 33 6 5
4 12 -8 22 -17 14 -17 14 2 9 19 -6 19 -5 3 7 -10 8 -15 17 -12 20 3 3 -3 3
-15 0 -26 -7 -34 -32 -32 -109 1 -67 14 -114 31 -114 5 0 10 -7 10 -16 0 -9 5
-12 13 -8 7 4 9 3 4 -2 -5 -5 -12 -9 -15 -10 -24 -2 -71 -41 -67 -55 3 -8 -1
-24 -9 -34 -10 -14 -11 -26 -5 -43 5 -13 7 -50 3 -82 -4 -35 -2 -66 5 -78 6
-12 14 -48 18 -82 5 -50 3 -64 -12 -80 -10 -11 -25 -19 -34 -18 -10 2 -16 -5
-17 -17 0 -11 -3 -27 -6 -35 -16 -40 -26 -80 -19 -76 4 3 11 -45 15 -107 4
-62 9 -125 11 -142 8 -54 -6 -124 -26 -130 -10 -3 -22 -20 -28 -38 -16 -49
-33 -691 -20 -752 4 -16 10 -47 14 -67 5 -28 12 -38 26 -38 25 0 24 -13 -3
-43 -15 -16 -22 -38 -22 -68 -1 -44 3 -54 38 -89 15 -15 16 -20 5 -21 -8 0 -4
-4 7 -9 18 -7 23 -20 29 -86 4 -43 13 -98 21 -123 17 -56 17 -64 2 -55 -7 4
-8 3 -4 -5 4 -6 11 -9 16 -6 11 7 22 -24 13 -37 -3 -7 -1 -8 5 -4 7 4 14 -4
18 -21 3 -15 19 -71 34 -123 36 -119 44 -202 16 -150 -8 14 -12 28 -10 32 3 4
-2 18 -9 30 -8 13 -17 37 -20 53 -3 17 -16 53 -28 80 -13 28 -22 59 -21 70 2
17 1 17 -7 5 -6 -8 -11 -12 -12 -7 -3 13 -6 22 -17 50 -7 16 -12 37 -12 48 0
10 -4 19 -9 19 -5 0 -12 11 -15 25 -11 43 -29 18 -22 -29 4 -22 8 -46 8 -53 1
-7 5 -10 9 -7 7 4 22 -27 25 -51 0 -5 4 -17 7 -25 11 -28 24 -95 26 -133 2
-36 10 -60 62 -175 11 -24 16 -48 13 -54 -4 -6 -3 -8 3 -5 6 4 13 -3 17 -16 9
-32 8 -34 -14 -40 -22 -6 -34 10 -43 58 -3 17 -9 38 -12 48 -6 14 -3 16 11 11
17 -5 16 -3 -2 13 -12 10 -21 28 -19 41 1 13 -4 22 -12 22 -7 0 -12 5 -10 11
1 6 -3 13 -10 16 -16 6 -25 -46 -22 -125 3 -65 25 -136 39 -127 9 6 29 -40 35
-80 5 -30 5 -30 -11 -8 -17 24 -56 32 -51 11 1 -7 4 -15 7 -18 13 -13 30 -63
24 -72 -4 -6 -2 -8 3 -5 6 4 13 -3 17 -16 9 -33 7 -39 -6 -31 -7 4 -5 -2 4
-13 10 -11 18 -26 18 -34 0 -12 -2 -11 -10 1 -6 9 -10 10 -10 3 0 -7 9 -17 20
-23 11 -6 20 -18 20 -28 0 -23 73 -172 84 -172 5 0 18 -8 28 -17 19 -17 19
-16 13 12 -21 94 -54 164 -81 171 -34 9 -26 58 10 62 14 2 26 10 26 18 0 8 5
14 10 14 6 0 10 -7 10 -16 0 -8 4 -13 9 -9 12 7 41 -34 41 -59 0 -19 0 -19
-22 0 -12 10 -18 14 -15 7 4 -6 2 -15 -4 -19 -9 -5 -8 -10 3 -18 20 -15 59
-106 51 -119 -3 -5 -2 -7 4 -4 10 6 53 -73 53 -98 0 -21 37 -77 109 -165 34
-41 59 -81 56 -88 -3 -7 -1 -10 5 -7 11 7 32 -29 22 -40 -4 -5 -2 -5 4 -2 7 4
17 -6 25 -26 7 -17 27 -54 45 -81 18 -27 30 -54 28 -61 -3 -7 -1 -16 5 -19 6
-4 8 -13 4 -21 -5 -15 56 -91 160 -200 26 -27 45 -56 42 -63 -3 -7 -1 -11 4
-8 11 7 73 -59 64 -69 -5 -4 -3 -5 4 -1 12 7 80 -69 75 -85 -1 -5 7 -9 19 -9
32 0 61 -20 55 -36 -3 -9 -1 -12 4 -9 6 3 10 2 10 -4 0 -5 -6 -11 -12 -14 -20
-7 41 -28 98 -34 29 -3 60 -1 71 6 17 8 22 8 27 -4 3 -8 1 -15 -4 -15 -5 0 -7
-8 -3 -18 6 -16 5 -16 -14 0 -15 14 -29 16 -64 11 -24 -3 -49 -6 -56 -6 -22
-1 11 -37 34 -37 13 0 23 -3 23 -7 0 -5 21 -17 48 -27 73 -30 133 -67 125 -78
-3 -7 -1 -8 5 -4 6 4 17 -6 26 -22 19 -36 146 -106 182 -99 13 2 25 0 26 -5 2
-4 9 1 16 12 7 11 9 19 5 18 -23 -6 -106 59 -96 75 3 6 1 7 -5 3 -6 -4 -29 5
-52 19 -28 18 -40 32 -40 49 l0 24 59 -21 c33 -11 58 -24 55 -29 -3 -4 2 -5
10 -2 18 7 86 -24 86 -39 0 -6 -3 -8 -6 -4 -3 3 -14 -1 -23 -10 -15 -12 -16
-19 -7 -38 6 -13 14 -19 17 -14 7 12 41 -54 44 -86 1 -11 3 -23 4 -27 0 -4 29
-7 64 -6 41 1 74 -5 95 -16 32 -17 72 -14 72 5 0 5 5 9 11 9 5 0 7 -4 4 -10
-4 -6 1 -7 11 -3 14 5 16 3 11 -12 -6 -14 -5 -16 6 -7 8 7 17 8 21 4 4 -4 11
-7 14 -7 4 -1 17 -6 28 -13 12 -6 24 -8 28 -5 3 3 6 -1 6 -10 0 -23 -15 -21
-41 5 -15 16 -20 18 -16 6 6 -18 -21 -29 -65 -23 -16 2 -29 -2 -32 -11 -3 -8
-2 -13 2 -10 5 3 30 -15 56 -39 46 -41 79 -55 133 -55 16 0 22 -4 17 -12 -6
-10 -4 -10 7 -1 7 7 20 13 29 13 13 0 13 -2 0 -11 -13 -9 -13 -10 0 -6 8 2 15
10 15 17 0 8 15 17 33 21 43 9 53 19 19 19 -22 0 -27 5 -27 24 0 18 -4 23 -17
20 -24 -6 -96 19 -101 35 -3 9 2 11 15 7 29 -9 155 -37 173 -38 8 -1 21 -8 28
-17 8 -10 11 -10 6 -2 -6 11 0 13 32 8 21 -4 47 -7 57 -7 9 0 17 -5 17 -11 0
-6 -16 -9 -42 -7 -50 4 -61 -14 -19 -32 19 -7 28 -17 24 -24 -4 -6 2 -4 12 4
14 11 19 12 22 2 3 -6 9 -9 15 -6 5 4 22 -2 36 -13 24 -18 95 -39 115 -35 4 1
7 -1 7 -5 0 -5 16 -9 35 -10 53 -3 65 -5 65 -15 0 -5 -9 -7 -19 -3 -33 10 -33
-12 1 -40 25 -21 29 -28 18 -35 -9 -6 -17 -4 -22 3 -5 8 -11 8 -15 2 -12 -16
-64 -19 -60 -3 2 7 2 10 0 6 -3 -5 -23 -8 -44 -8 -24 0 -38 4 -34 10 3 6 2 10
-3 10 -13 0 -52 -44 -52 -59 0 -9 -8 -11 -25 -7 -18 5 -25 2 -25 -7 0 -10 -9
-13 -27 -10 -20 3 -24 2 -14 -5 9 -7 -7 -13 -55 -21 -38 -7 -79 -13 -91 -14
-30 -3 -28 -15 7 -56 16 -19 27 -37 25 -41 -3 -4 4 -15 14 -24 16 -15 19 -15
24 -1 7 17 47 21 47 3 0 -6 3 -9 6 -5 3 3 16 2 28 -3 13 -5 29 -4 40 2 12 7
42 6 95 -3 42 -7 103 -14 136 -14 68 -1 155 13 155 26 0 5 7 9 15 9 8 0 15 5
15 10 0 6 8 10 18 11 11 1 8 4 -8 8 -16 5 -31 3 -41 -6 -17 -14 -49 -18 -49
-5 0 19 41 30 94 25 42 -4 56 -9 52 -19 -3 -8 -1 -14 4 -14 6 0 10 4 10 9 0 6
8 8 18 6 76 -19 89 -20 103 -12 14 9 11 14 -19 41 -20 17 -42 30 -50 28 -9 -2
-11 1 -6 9 4 7 3 10 -3 6 -20 -12 -71 4 -69 21 1 10 -5 16 -14 14 -12 -3 -12
0 2 14 12 12 37 18 90 20 95 4 132 10 136 23 2 6 8 8 13 5 6 -4 6 -10 0 -18
-8 -9 -7 -13 4 -13 8 0 12 4 9 9 -3 4 1 8 8 9 39 2 65 7 82 14 14 6 17 5 11
-4 -9 -15 16 -4 50 23 19 15 18 15 -17 16 -20 0 -39 4 -42 9 -3 4 -16 6 -30 4
-13 -3 -32 0 -43 6 -15 9 -10 11 27 12 69 2 105 -2 108 -12 2 -5 8 -9 13 -9 6
0 7 5 4 10 -4 6 11 10 38 10 24 0 70 9 103 20 32 12 67 19 77 16 9 -2 15 0 12
4 -9 14 195 57 214 45 6 -3 11 -1 11 4 0 6 6 11 13 11 6 0 79 27 162 60 112
45 169 63 228 69 42 5 83 14 91 20 7 6 17 7 21 3 5 -4 5 -1 1 6 -4 6 -16 12
-26 12 -14 0 -18 5 -14 18 4 10 3 13 -3 6 -4 -6 -21 -14 -38 -17 -16 -3 -41
-9 -54 -13 -17 -5 -22 -4 -17 4 10 17 0 15 -19 -5 -20 -20 -122 -33 -110 -14
4 7 9 10 12 8 2 -3 16 6 31 20 28 26 133 83 153 83 7 0 22 -8 33 -18 18 -14
19 -15 8 0 -11 14 -11 16 7 11 12 -3 18 -9 15 -14 -6 -10 39 -10 74 -1 12 4
51 35 87 70 40 39 69 61 76 56 7 -4 9 -3 5 4 -3 6 4 14 16 18 13 4 37 17 53
30 40 30 132 64 174 64 l34 0 -19 -22 c-10 -12 -13 -18 -5 -13 11 6 13 4 8 -9
-4 -10 -1 -19 8 -22 8 -4 12 -10 9 -15 -3 -5 3 -6 12 -2 13 5 15 3 9 -8 -8
-12 -6 -12 8 -1 9 8 21 11 26 8 5 -4 47 5 93 18 46 13 101 27 123 30 50 8 161
63 183 91 9 11 33 31 52 45 43 30 149 116 172 140 9 10 14 21 11 24 -7 7 36
46 51 46 12 0 145 135 215 218 24 29 50 52 57 52 8 0 14 5 14 11 0 5 -5 7 -10
4 -11 -7 36 86 48 95 5 3 19 21 32 40 13 19 27 37 30 40 8 7 60 89 82 130 11
19 22 28 29 24 7 -4 9 -3 5 4 -12 20 79 166 97 155 6 -3 7 -1 4 4 -7 11 58
143 77 155 6 4 7 8 3 8 -5 0 1 17 14 37 12 21 46 84 75 139 49 95 58 124 41
140 -3 4 -4 -3 -2 -15 2 -12 0 -19 -4 -16 -5 2 -21 -16 -37 -40 -22 -36 -32
-44 -49 -39 -19 6 -19 5 -2 -8 17 -13 15 -19 -44 -108 -63 -97 -99 -143 -61
-80 40 67 76 145 74 158 -2 6 2 12 8 12 6 0 9 4 5 9 -10 17 38 120 58 125 16
4 18 0 14 -20 -4 -23 -3 -24 14 -8 10 9 18 19 17 23 -2 10 36 71 45 71 4 0 7
9 7 20 0 12 6 33 14 48 23 46 41 141 28 154 -6 6 -8 24 -5 39 4 21 2 29 -8 29
-11 0 -11 2 1 10 12 8 12 10 1 10 -11 0 -12 11 -8 51 8 68 28 97 64 95 21 -1
29 4 30 19 2 11 7 40 11 65 44 222 50 277 58 505 6 186 6 191 -15 218 -22 26
-71 38 -71 17 0 -19 -16 -10 -17 10 -1 11 2 18 6 15 5 -2 5 15 1 38 -5 23 -7
44 -5 47 2 3 7 32 10 65 9 77 10 78 16 90 3 6 5 25 4 43 -1 17 2 32 6 32 5 0
9 7 9 16 0 8 -4 13 -8 10 -8 -4 -15 63 -13 114 2 71 0 210 -4 230 -3 14 -7 57
-10 95 -9 111 -15 134 -37 141 -13 4 -16 9 -10 13 14 8 19 62 8 80 -5 8 -3 17
5 23 11 8 10 8 -4 4 -23 -7 -60 11 -51 25 3 6 13 8 21 5 8 -3 12 -2 9 3 -3 5
0 11 8 14 27 11 1 177 -56 357 -52 164 -60 184 -68 170 -4 -7 -13 -2 -24 15
-12 19 -14 26 -4 24 12 -2 55 4 117 17 18 4 21 8 12 13 -10 7 -11 13 -1 31 7
13 8 20 2 16 -6 -3 -14 -1 -18 5 -3 6 -22 17 -40 25 -19 8 -34 19 -34 25 0 8
-15 10 -45 6 -24 -4 -47 -2 -50 3 -3 5 -12 7 -19 4 -7 -3 -16 2 -20 11 -5 13
-1 15 14 10 11 -4 20 -2 20 4 0 6 -5 11 -11 11 -6 0 -8 8 -4 19 3 11 1 22 -4
26 -7 3 -8 0 -5 -9 4 -11 0 -14 -15 -11 -12 2 -19 0 -16 -6 4 -5 11 -7 16 -4
5 4 9 1 9 -6 0 -7 -11 -9 -32 -5 -18 3 -38 7 -45 8 -7 1 -10 5 -7 10 3 4 0 8
-5 8 -6 0 -11 14 -11 31 0 26 3 30 23 27 12 -2 21 -9 19 -17 -2 -8 3 -11 13
-8 8 4 15 2 15 -3 0 -6 4 -10 9 -10 13 0 5 41 -20 101 -22 51 -116 190 -138
204 -12 7 -97 128 -93 133 1 1 -9 15 -23 30 -14 15 -25 30 -25 34 0 4 -41 57
-91 118 -97 119 -107 149 -47 134 18 -5 53 -9 78 -9 25 0 49 -4 53 -10 5 -6 6
-2 3 8 -3 10 -6 22 -6 25 0 4 -12 12 -27 19 -94 39 -122 54 -154 87 -34 33
-98 69 -84 46 4 -6 -6 -10 -22 -11 -27 0 -27 -1 -5 -9 24 -10 30 -30 8 -30 -8
0 -28 19 -45 42 -32 44 -143 142 -242 215 -42 31 -62 40 -82 36 -17 -3 -27 -1
-27 6 0 7 -4 10 -8 7 -4 -2 -13 -1 -20 3 -9 5 -9 14 0 39 12 32 12 34 -35 73
-26 22 -45 45 -42 49 3 5 -3 7 -13 5 -9 -1 -37 10 -60 26 -23 15 -56 35 -72
44 -17 9 -28 20 -25 25 3 6 -1 7 -9 4 -9 -3 -16 -2 -16 2 0 5 -14 10 -31 11
-17 1 -37 8 -45 14 -8 6 -26 9 -41 6 -15 -3 -37 0 -47 5 -14 8 -21 8 -24 0 -3
-11 -42 -4 -42 9 0 5 -7 6 -15 3 -8 -4 -15 -1 -15 4 0 6 -16 12 -35 14 -23 2
-32 7 -27 15 5 9 21 7 61 -7 62 -21 81 -17 76 12 -6 31 -21 44 -73 63 -26 10
-65 26 -87 36 -22 9 -61 25 -87 34 -27 10 -48 21 -48 24 0 4 -10 7 -22 8 -11
1 -24 6 -27 10 -3 4 -15 9 -26 11 -11 2 -39 12 -61 22 -23 10 -79 28 -125 40
-98 24 -212 60 -219 69 -3 3 -18 7 -34 9 -16 2 -45 11 -65 21 -20 10 -55 23
-78 31 -23 7 -40 17 -36 23 3 6 1 7 -6 3 -12 -8 -117 29 -136 47 -18 17 165 0
185 -18 9 -8 21 -15 26 -15 5 0 2 5 -6 10 -12 8 -10 10 10 11 14 1 34 1 44 0
18 -1 18 0 3 17 -10 10 -15 21 -13 23 2 2 -15 5 -37 5 -23 1 -76 14 -117 28
-41 15 -84 29 -95 32 -54 13 -187 25 -240 23 -33 -2 -101 -3 -152 -4 -50 0
-89 -3 -87 -7 7 -10 -130 -15 -141 -4 -7 6 -6 7 2 2 6 -3 22 -2 35 3 20 9 18
10 -19 10 -23 1 -47 3 -55 5 -7 3 -24 0 -37 -5z m879 -329 c11 -6 19 -14 16
-18 -2 -4 18 -7 45 -8 51 -1 166 -30 184 -47 6 -5 -25 -7 -82 -3 -98 6 -120
-2 -88 -32 10 -10 15 -11 11 -4 -12 21 12 13 28 -9 15 -22 69 -33 173 -33 34
0 54 -5 58 -13 3 -10 0 -11 -13 -4 -14 7 -18 5 -18 -10 0 -10 6 -19 14 -19 7
0 10 -5 6 -12 -4 -6 -3 -8 3 -5 6 4 16 0 23 -8 7 -8 17 -12 24 -8 13 9 18 10
50 12 14 1 26 9 29 20 4 16 0 18 -20 15 -15 -3 -22 -1 -18 6 3 5 12 10 20 10
15 0 26 23 17 37 -4 5 -20 13 -36 17 -23 6 -27 9 -15 17 18 11 32 12 25 0 -3
-4 5 -7 18 -6 13 2 69 -15 126 -36 57 -21 109 -39 117 -39 7 0 13 -4 13 -9 0
-4 20 -14 45 -21 25 -7 45 -16 45 -20 0 -16 -31 -32 -51 -27 -23 6 -54 -17
-44 -32 9 -15 -16 -26 -62 -27 -108 -4 -123 -32 -33 -62 79 -27 94 -41 66 -64
-14 -11 -16 -17 -7 -18 11 0 11 -3 1 -15 -11 -13 -8 -15 14 -15 15 0 25 -3 23
-7 -4 -7 32 -9 71 -5 22 3 12 41 -15 57 -16 9 -19 13 -8 9 11 -4 33 -6 48 -5
15 1 45 -6 65 -15 46 -21 103 -74 95 -87 -3 -6 -1 -7 5 -3 12 7 72 -20 84 -38
4 -6 8 -7 8 -3 0 4 10 2 23 -5 12 -7 24 -13 27 -13 43 -7 215 -139 204 -156
-3 -5 0 -8 8 -7 7 2 12 -3 11 -9 -2 -7 0 -12 5 -11 25 7 260 -181 245 -196 -4
-3 -12 -1 -20 5 -9 8 -13 8 -13 1 0 -6 -7 -9 -15 -6 -8 4 -15 1 -15 -5 0 -6
-3 -10 -7 -10 -5 1 -30 1 -56 0 -40 -1 -50 -5 -54 -21 -3 -11 -10 -17 -17 -14
-6 3 4 -8 23 -24 20 -17 31 -34 27 -40 -5 -8 1 -12 14 -12 25 0 67 -26 96 -60
21 -24 23 -24 72 -11 61 15 88 8 124 -33 29 -33 37 -52 16 -40 -7 4 -10 4 -6
-1 4 -4 18 -13 30 -20 13 -6 22 -17 20 -24 -1 -7 2 -10 7 -6 6 3 22 -8 37 -25
15 -16 34 -30 42 -30 8 0 29 -15 48 -34 29 -29 34 -40 31 -69 -4 -32 0 -37 34
-56 42 -24 50 -38 37 -64 -7 -14 -5 -24 8 -38 10 -11 23 -36 30 -55 11 -33 11
-35 -6 -31 -13 3 -17 -1 -16 -18 0 -13 5 -23 10 -22 5 1 29 -35 52 -81 38 -73
41 -84 28 -97 -14 -14 -11 -19 8 -16 10 1 31 -39 24 -47 -3 -3 -6 0 -6 7 0 7
-4 10 -8 7 -5 -3 -24 -8 -42 -11 -18 -3 -37 -8 -42 -11 -10 -7 -7 -64 4 -64 4
0 8 -6 8 -12 0 -7 7 -26 15 -41 16 -30 11 -57 -11 -57 -17 0 -15 -69 4 -88 6
-7 12 -21 11 -30 0 -11 -2 -12 -6 -4 -2 6 -9 12 -14 12 -4 0 -5 -7 -2 -17 5
-12 3 -14 -8 -8 -8 5 -11 4 -6 -1 5 -5 16 -9 25 -9 20 0 49 -85 29 -85 -9 0
-9 -2 0 -8 6 -4 21 -32 33 -62 17 -43 23 -81 25 -180 2 -69 2 -117 -1 -107 -3
9 -10 15 -15 12 -5 -4 -9 3 -9 15 0 12 -3 19 -7 17 -5 -3 -9 13 -10 34 -2 22
-5 60 -7 84 -3 32 -1 43 7 38 7 -3 4 3 -5 14 -10 11 -18 26 -18 34 0 26 -49
182 -101 319 -91 242 -97 260 -90 260 5 0 16 -9 26 -20 10 -12 25 -18 33 -15
9 3 12 0 9 -9 -4 -9 0 -12 13 -9 15 4 17 12 13 41 -3 21 -14 58 -24 85 -10 26
-14 47 -9 47 6 0 10 -7 10 -16 0 -8 4 -13 9 -9 5 3 13 0 17 -6 4 -8 3 -9 -4
-5 -7 4 -12 2 -12 -3 0 -6 7 -11 15 -11 8 0 19 -9 25 -21 14 -25 42 -59 50
-59 3 0 13 7 24 15 17 13 17 16 -13 68 -17 29 -40 62 -52 72 -34 32 -82 109
-70 113 6 2 11 8 11 14 0 5 -9 6 -21 3 -15 -5 -20 -3 -17 6 2 7 -3 20 -11 29
-9 9 -25 28 -36 42 -42 54 -107 119 -114 112 -3 -4 0 -9 7 -11 6 -3 10 -8 8
-12 -3 -4 1 -27 8 -52 7 -24 11 -49 9 -56 -4 -12 20 -58 41 -78 6 -6 29 -30
51 -54 l40 -43 -37 22 c-33 19 -38 20 -39 6 -2 -25 -4 -30 -13 -45 -6 -10 -5
-12 2 -7 8 5 12 -4 13 -26 0 -18 3 -44 5 -58 l5 -25 -18 25 c-9 14 -20 27 -23
30 -8 7 -40 93 -40 109 0 20 -30 80 -65 131 -37 54 -85 139 -85 151 0 13 -89
127 -169 217 -69 78 -164 159 -269 231 -34 23 -60 46 -57 52 4 5 3 8 -2 7 -13
-4 -73 23 -73 33 0 5 -6 9 -12 9 -7 0 -29 15 -49 33 -20 18 -41 31 -47 29 -18
-6 -53 18 -46 31 4 7 4 9 -1 5 -4 -4 -15 -2 -23 5 -8 6 -25 12 -36 13 -12 1
-33 6 -48 13 -16 6 -40 15 -54 21 -16 6 -23 14 -18 22 4 7 3 10 -1 5 -5 -4
-15 -1 -24 7 -9 7 -35 16 -58 20 -52 8 -94 26 -87 37 3 5 -1 6 -9 3 -7 -2 -42
11 -78 30 -89 48 -253 83 -356 77 -16 -1 -17 -31 -2 -31 5 0 8 -4 4 -9 -3 -5
-1 -12 5 -16 5 -3 10 -2 10 3 0 5 11 7 25 4 14 -2 23 -8 20 -12 -3 -5 4 -6 14
-3 25 6 143 -37 138 -51 -7 -22 -45 -16 -78 11 -18 15 -29 22 -24 14 6 -11 2
-13 -25 -8 -18 4 -43 7 -57 7 -17 0 -22 4 -17 13 6 9 5 9 -7 0 -11 -8 -23 -8
-51 2 -58 20 -98 26 -98 14 0 -6 -8 -5 -22 2 -12 7 -43 11 -69 10 -26 -1 -60
4 -75 9 l-29 11 40 18 40 19 -28 11 c-38 15 -78 14 -102 -3 -11 -7 -29 -12
-40 -10 -18 3 -109 5 -205 3 -19 0 -62 0 -95 -1 -176 -1 -261 -11 -307 -34
-32 -17 -39 -55 -10 -49 10 2 19 -2 19 -8 0 -8 -16 -11 -46 -8 -25 2 -40 6
-32 9 11 4 11 6 0 13 -11 7 -10 9 3 9 10 0 25 11 34 25 9 14 20 22 25 19 5 -3
6 2 3 11 -5 12 -17 15 -54 12 -25 -2 -52 -7 -59 -12 -7 -4 -47 -16 -89 -26
-41 -11 -81 -24 -89 -30 -14 -12 -19 -61 -5 -56 4 1 7 -2 7 -8 0 -5 -4 -10
-10 -11 -5 0 -17 -4 -25 -7 -18 -7 -112 -19 -158 -20 -19 0 -28 -4 -20 -8 8
-5 5 -11 -13 -18 -14 -5 -33 -20 -41 -34 -16 -23 -16 -24 7 -20 12 3 26 0 29
-6 4 -7 -1 -11 -13 -11 -11 0 -22 -4 -26 -9 -3 -6 4 -8 15 -6 12 2 20 -1 20
-10 0 -9 6 -12 15 -9 23 9 18 -4 -7 -17 -38 -20 -68 -20 -68 1 0 10 -5 22 -11
26 -8 5 -8 9 1 14 9 5 9 9 1 14 -6 4 -14 0 -17 -8 -3 -9 -10 -13 -15 -10 -5 3
-9 0 -9 -5 0 -6 -7 -11 -15 -11 -9 0 -15 -10 -15 -26 0 -14 -4 -23 -8 -20 -4
2 -27 -4 -51 -15 -24 -10 -47 -19 -53 -19 -12 0 -132 -81 -136 -92 -2 -4 -11
-8 -20 -8 -10 0 -22 -10 -27 -22 -6 -15 -27 -29 -56 -38 -25 -9 -56 -22 -70
-30 -13 -9 -41 -24 -62 -35 -21 -11 -44 -29 -50 -40 -7 -11 -19 -20 -27 -20
-8 0 -14 -5 -13 -12 1 -6 -4 -17 -12 -23 -22 -18 -18 -27 11 -34 l27 -7 -36
-25 c-20 -13 -41 -24 -46 -24 -6 0 -11 -4 -11 -10 0 -5 -15 -20 -34 -32 -18
-12 -42 -35 -52 -50 -11 -16 -25 -26 -32 -23 -7 3 -10 1 -7 -4 3 -5 -17 -39
-45 -76 -27 -36 -50 -74 -50 -84 0 -10 -16 -29 -35 -42 -19 -13 -51 -45 -71
-71 -20 -27 -41 -45 -47 -41 -5 3 -7 2 -4 -4 3 -5 -4 -25 -16 -44 -68 -107
-78 -127 -92 -188 -13 -53 -11 -81 5 -81 4 0 10 8 13 18 2 11 14 21 26 25 28
7 28 -24 0 -69 -20 -34 -54 -48 -43 -19 5 11 -1 15 -19 15 -29 0 -32 -7 -81
-181 -20 -69 -42 -145 -51 -168 -8 -24 -15 -58 -15 -75 0 -21 -3 -27 -9 -18
-7 11 -9 11 -14 -2 -3 -8 -2 -18 2 -21 11 -6 8 -35 -9 -130 -19 -103 -24 -61
-10 84 7 69 14 140 16 156 7 85 18 147 36 215 11 41 24 96 28 122 5 27 11 52
14 56 3 5 8 24 11 43 3 19 11 54 17 78 9 35 8 45 -3 52 -11 7 -11 9 -1 9 7 0
10 5 7 11 -9 13 -15 7 -19 -17 -2 -11 -18 -49 -36 -84 -59 -121 -80 -178 -86
-237 -7 -65 -14 -83 -14 -34 0 19 -4 30 -10 26 -6 -3 -10 5 -10 19 0 35 10 57
23 49 6 -4 8 0 4 10 -8 22 3 78 14 71 5 -3 6 2 3 11 -4 9 0 33 8 53 21 50 37
123 27 116 -5 -3 -9 6 -9 19 0 24 -53 75 -72 69 -5 -1 -7 2 -3 8 4 6 -8 24
-25 40 -27 25 -35 28 -47 18 -10 -8 -11 -14 -4 -16 6 -2 8 -9 5 -14 -4 -7 -2
-8 5 -4 15 10 61 -41 61 -67 0 -11 -4 -15 -12 -11 -6 4 -8 3 -5 -3 4 -6 0 -27
-8 -47 -17 -40 -20 -99 -5 -125 13 -26 -7 -153 -28 -168 -14 -12 -14 -13 1
-13 10 0 17 -8 17 -19 0 -11 3 -26 6 -35 4 -10 1 -16 -8 -16 -7 0 -15 -11 -16
-25 -1 -14 4 -25 11 -25 6 0 23 -3 37 -6 16 -4 20 -2 13 3 -9 6 -7 12 6 20 17
11 18 8 15 -30 -2 -23 -9 -56 -14 -72 -6 -17 -14 -66 -18 -110 -10 -93 -13
-107 -27 -117 -6 -5 -5 -8 3 -8 7 0 11 -4 8 -9 -3 -5 -8 -40 -10 -78 -5 -87
-27 -189 -37 -171 -10 18 1 68 15 68 8 0 8 2 0 8 -13 8 11 255 25 260 5 2 4
19 -2 38 -6 19 -15 33 -21 31 -11 -4 -60 -174 -71 -244 -3 -23 -10 -45 -15
-48 -5 -3 -6 -13 -3 -22 4 -9 2 -14 -3 -11 -5 4 -10 -25 -11 -65 -1 -40 -5
-117 -10 -172 -4 -55 -6 -126 -3 -157 4 -47 2 -58 -10 -58 -11 0 -12 -3 -3 -8
8 -5 9 -13 3 -22 -14 -22 -12 -33 4 -27 17 7 24 -31 16 -83 -3 -19 -2 -50 3
-67 4 -18 9 -73 10 -122 1 -49 5 -87 10 -84 4 2 7 -4 7 -14 0 -10 7 -38 16
-62 8 -24 11 -47 7 -50 -5 -3 -20 -22 -33 -41 -21 -29 -25 -46 -24 -101 2 -84
20 -161 45 -188 11 -11 22 -39 24 -62 4 -39 46 -109 65 -109 9 0 17 -21 25
-59 6 -32 26 -47 57 -43 28 4 28 4 32 -47 1 -8 7 -16 14 -19 6 -2 12 -12 12
-22 0 -11 14 -41 30 -67 17 -26 30 -51 30 -56 0 -4 7 -15 16 -24 8 -9 13 -22
10 -30 -3 -8 -2 -12 3 -9 5 3 25 -21 45 -53 23 -38 45 -61 60 -65 14 -3 28
-15 31 -26 3 -11 11 -20 16 -20 6 0 8 4 5 9 -4 5 -1 11 5 13 6 2 -26 61 -72
132 -46 71 -83 133 -81 138 1 5 -2 7 -7 4 -10 -7 -111 137 -111 159 0 9 10 4
28 -13 15 -15 26 -30 24 -35 -5 -11 13 -8 25 4 7 7 8 21 3 39 -6 20 -4 30 4
33 23 9 31 -3 70 -98 10 -22 22 -48 27 -59 6 -10 19 -33 29 -51 10 -18 16 -36
13 -39 -4 -3 -2 -6 4 -6 9 0 54 -64 163 -233 17 -26 28 -53 24 -60 -4 -7 -4
-9 1 -5 15 14 35 -19 26 -44 -8 -23 -8 -22 -24 7 -22 43 -54 67 -79 59 -11 -3
-16 -9 -11 -13 6 -3 12 -11 14 -17 5 -15 48 -68 136 -169 40 -45 69 -86 65
-90 -4 -3 -2 -5 4 -3 13 4 86 -61 110 -98 26 -39 30 -10 4 31 -20 32 -20 55
-1 55 4 0 14 -12 22 -27 8 -14 27 -40 42 -56 21 -23 25 -32 15 -38 -10 -7 -9
-9 3 -9 12 0 14 -8 11 -30 -3 -19 0 -30 7 -30 7 0 9 -5 5 -12 -4 -7 -3 -8 4
-4 6 3 16 -2 21 -13 15 -27 14 -34 -4 -28 -21 9 -29 -11 -13 -30 9 -12 9 -15
1 -9 -20 11 -15 2 17 -34 16 -18 28 -35 26 -38 -7 -7 32 -41 51 -44 13 -2 18
3 17 19 0 13 1 23 2 23 1 0 24 -20 50 -45 25 -25 51 -45 56 -45 21 0 98 -62
98 -78 0 -8 -40 -10 -47 -2 -3 2 -35 3 -53 1 -5 0 -6 -9 -3 -18 5 -13 2 -15
-11 -10 -22 9 -32 -18 -15 -40 8 -9 29 -22 47 -30 17 -7 32 -18 32 -23 0 -15
17 -12 17 3 3 44 8 65 15 61 5 -3 6 -11 2 -17 -3 -7 2 -3 10 7 14 17 16 18 16
3 0 -9 4 -17 9 -17 18 0 41 12 36 19 -2 4 9 5 25 3 18 -2 27 -9 23 -15 -4 -6
-1 -7 6 -3 8 5 28 -8 53 -33 22 -23 48 -46 58 -51 9 -5 20 -18 23 -30 4 -16 2
-18 -13 -10 -9 5 -19 7 -22 5 -2 -2 -20 -5 -39 -7 -18 -1 -44 -7 -56 -14 l-23
-11 23 -24 c48 -49 72 -61 156 -81 154 -35 171 -40 165 -49 -11 -19 78 -29
272 -31 150 -2 276 16 299 42 15 16 13 18 -30 31 -25 7 -45 17 -45 21 0 4 -6
5 -14 2 -8 -3 -17 0 -21 5 -3 6 -11 9 -16 6 -5 -4 -17 -1 -26 5 -17 11 -17 11
-1 6 10 -3 18 -2 18 3 0 8 82 -3 98 -13 7 -4 236 -20 282 -20 33 1 91 10 110
17 31 13 107 27 147 27 32 0 52 8 86 34 25 19 48 31 52 28 4 -4 6 -2 5 3 -5
24 1 26 19 4 18 -23 20 -23 72 -10 30 8 74 13 100 12 40 -1 50 3 69 27 21 26
28 28 83 26 72 -2 181 34 212 72 22 26 95 60 95 44 0 -5 7 -7 16 -3 14 5 15 3
5 -15 -11 -20 -9 -22 19 -22 17 0 33 6 36 14 3 7 22 20 42 28 20 9 62 25 92
38 30 12 63 23 72 23 9 1 15 4 12 8 -2 4 18 16 45 27 37 15 52 17 60 9 7 -7
16 -13 21 -13 6 -1 11 -2 13 -4 6 -5 65 -4 61 1 -4 7 30 19 52 19 6 0 11 -10
10 -22 -1 -18 4 -22 19 -20 32 6 42 22 14 23 -19 0 -15 4 17 15 68 24 163 117
105 101 -18 -4 -18 -2 -8 17 7 11 17 24 22 28 6 5 5 8 -2 8 -7 0 -28 -14 -47
-31 -21 -18 -40 -27 -47 -23 -7 4 -9 3 -6 -3 9 -14 -39 -26 -60 -15 -13 8 -7
15 30 41 25 17 49 31 53 31 5 0 24 15 44 32 19 18 29 26 23 18 -38 -43 9 -39
58 5 22 19 47 35 56 35 22 0 75 61 68 79 -3 8 19 40 57 81 95 101 149 170 170
219 21 49 20 88 -1 83 -7 -1 -19 2 -25 7 -7 6 -26 11 -44 13 -17 1 -29 4 -27
7 3 2 -3 9 -11 16 -15 10 -15 14 0 44 10 18 21 29 28 25 6 -4 8 -3 4 4 -3 6
-2 13 4 17 5 3 10 0 10 -7 0 -10 3 -9 10 2 8 12 13 11 34 -9 20 -19 23 -30 19
-57 -7 -42 6 -44 41 -6 52 56 80 102 142 237 15 33 30 62 34 65 4 3 10 14 14
25 3 11 16 31 28 45 13 14 25 34 26 45 2 11 8 23 14 26 5 3 10 10 11 15 1 5 5
8 10 6 4 -1 2 6 -4 15 -8 14 1 53 40 177 52 167 84 227 80 151 -6 -90 37 -71
66 29 15 51 15 59 1 80 -15 24 -13 53 6 93 6 13 8 42 4 70 -4 26 -9 84 -12
128 -2 44 -7 97 -9 118 -8 58 14 170 36 185 14 10 19 26 19 63 0 37 3 48 13
43 6 -4 3 3 -8 15 -18 21 -20 39 -22 180 -1 86 -5 168 -7 182 -3 15 -1 39 4
55 4 16 9 23 9 17 1 -18 21 -16 21 2 0 9 6 12 15 9 8 -4 15 -12 15 -20 0 -8 8
-14 18 -15 10 0 12 -3 5 -6 -17 -6 -16 -22 1 -55 11 -20 11 -28 3 -32 -7 -2
-3 -5 7 -5 11 -1 17 -4 13 -7 -3 -4 0 -21 8 -39 7 -19 12 -35 9 -37 -2 -3 0
-18 5 -36 6 -20 6 -32 -1 -34 -8 -3 -7 -13 1 -34 l11 -29 -4 28 c-5 38 10 21
17 -20 4 -20 2 -33 -4 -33 -6 0 -7 5 -4 10 7 11 -8 14 -18 3 -4 -3 0 -11 9
-17 8 -6 16 -22 17 -35 1 -14 9 -26 19 -29 10 -2 18 -13 18 -23 0 -11 5 -19
11 -19 5 0 7 -4 4 -10 -3 -5 2 -37 11 -70 9 -33 14 -63 10 -67 -3 -3 -6 3 -6
15 0 12 -3 22 -7 22 -5 0 -8 -11 -8 -24 0 -13 3 -22 8 -19 4 2 7 -1 7 -7 0 -6
5 -8 10 -5 11 7 3 -60 -10 -85 -4 -8 -6 -32 -4 -53 4 -29 2 -37 -8 -31 -10 5
-10 4 -1 -6 10 -11 10 -17 0 -29 -10 -12 -9 -13 3 -6 12 6 13 5 3 -5 -7 -8 -9
-18 -4 -24 5 -6 4 -53 -1 -106 -5 -52 -11 -136 -13 -187 -2 -51 -8 -100 -13
-110 -5 -10 -17 -52 -26 -93 -10 -41 -24 -86 -33 -99 -11 -18 -13 -26 -5 -29
24 -8 -2 -179 -26 -174 -8 1 -11 -2 -8 -7 7 -11 -19 -33 -28 -23 -4 4 -6 2 -4
-3 2 -6 -1 -10 -5 -10 -15 0 -34 -59 -30 -90 5 -36 -4 -49 -118 -166 -48 -49
-84 -89 -81 -89 3 0 -6 -12 -21 -28 -36 -38 -89 -155 -74 -164 9 -6 9 -8 0 -8
-7 0 -23 -16 -36 -35 -13 -19 -27 -32 -30 -29 -4 4 -11 -5 -17 -20 -6 -15 -30
-53 -54 -84 -81 -106 -207 -294 -201 -300 9 -9 54 -10 52 -1 -1 4 6 15 15 26
10 10 43 48 73 86 31 37 61 67 66 67 6 0 8 4 5 8 -6 10 54 95 62 88 2 -3 -4
-17 -14 -32 -11 -15 -23 -34 -29 -43 -60 -95 -88 -131 -97 -125 -7 4 -8 3 -4
-4 8 -13 -82 -132 -100 -132 -7 0 -12 -9 -11 -20 1 -11 3 -20 5 -20 11 0 42
23 81 59 24 23 50 41 58 41 7 0 12 4 10 9 -4 18 38 71 58 72 11 0 15 3 8 5
-11 5 62 133 101 177 9 9 16 21 16 27 0 5 10 15 23 21 12 6 19 8 15 4 -4 -4
-1 -13 5 -20 10 -11 16 -9 35 8 l24 22 -18 -38 -18 -38 -23 26 c-29 30 -33 31
-26 6 3 -13 -2 -24 -16 -33 -28 -17 -26 -26 4 -20 14 2 25 11 25 21 1 15 1 15
10 0 19 -33 -28 -111 -186 -311 -105 -132 -318 -342 -340 -334 -8 3 -12 2 -9
-4 3 -6 2 -10 -3 -10 -5 0 -14 -11 -21 -24 -28 -52 -306 -237 -332 -220 -8 4
-9 3 -5 -4 4 -7 4 -12 -1 -12 -4 0 -19 -3 -32 -7 -15 -4 -22 -2 -18 4 11 18
-151 -10 -226 -39 -15 -6 -39 -10 -53 -10 -23 0 -24 -2 -11 -15 12 -12 27 -13
91 -4 43 6 84 11 92 11 30 0 12 -21 -38 -44 -165 -74 -328 -139 -328 -131 0 3
-9 -4 -20 -15 -11 -11 -32 -23 -47 -26 -16 -4 -39 -14 -53 -23 -35 -23 -157
-71 -178 -70 -10 0 -12 3 -4 6 6 2 10 8 7 13 -3 4 2 10 10 14 8 3 15 1 15 -4
0 -6 5 -10 10 -10 6 0 10 6 10 14 0 14 68 48 103 52 9 1 18 2 20 4 1 1 9 3 17
5 36 8 88 36 93 50 4 8 15 15 26 15 11 0 50 14 86 30 36 17 73 30 82 30 9 0
14 3 10 6 -3 4 4 15 16 25 21 17 21 18 2 19 -125 6 -179 -4 -388 -72 -110 -35
-128 -44 -133 -65 -4 -14 -1 -30 5 -36 10 -9 12 -9 9 2 -2 8 12 19 35 27 20 7
37 9 37 3 0 -5 5 -9 11 -9 5 0 7 5 4 10 -4 6 6 10 22 9 25 0 26 -1 8 -9 -17
-7 -17 -9 -3 -9 11 -1 15 -6 12 -16 -4 -10 -11 -12 -22 -6 -10 6 -22 3 -36
-11 -25 -23 -64 -40 -76 -33 -5 3 -7 -10 -6 -29 4 -35 -23 -84 -38 -69 -3 3
-6 1 -6 -5 0 -6 -10 -17 -22 -23 -19 -10 -17 -5 10 25 28 32 30 39 18 52 -19
18 -26 18 -26 -1 0 -8 -7 -15 -16 -15 -9 0 -12 -5 -8 -11 5 -8 -1 -10 -19 -7
-16 3 -25 1 -24 -6 1 -6 -7 -11 -18 -11 -15 0 -19 6 -18 23 3 20 -1 22 -36 20
-22 -2 -39 -7 -38 -11 1 -5 -17 -16 -40 -25 -48 -20 -57 -27 -49 -40 4 -7 24
-5 55 3 28 7 52 10 55 7 3 -3 6 -1 6 5 0 6 8 14 17 17 15 6 15 4 -2 -14 -10
-11 -26 -20 -37 -20 -10 0 -18 -4 -18 -8 0 -10 -67 -32 -94 -32 -10 0 -15 4
-11 10 3 5 13 7 23 4 14 -5 14 -4 3 4 -9 7 -21 7 -31 2 -11 -6 -21 -5 -28 2
-9 9 -17 7 -31 -6 -19 -17 -20 -32 -6 -68 8 -19 -4 -23 -95 -32 -68 -7 -87
-11 -125 -26 -34 -13 -83 -11 -104 4 -11 8 -13 8 -8 0 9 -16 -58 -24 -113 -14
-25 4 -88 15 -140 24 -52 9 -96 19 -99 22 -3 2 1 10 9 17 10 9 11 9 6 0 -4 -8
-1 -13 8 -13 9 0 13 6 10 14 -7 19 65 19 110 1 17 -7 38 -11 46 -9 47 10 61
13 70 19 5 3 19 1 30 -5 12 -6 20 -7 20 -1 0 5 25 10 55 10 58 0 79 6 70 22
-4 5 3 9 15 9 13 0 19 4 14 11 -6 11 -119 8 -221 -6 -18 -2 -34 -1 -37 3 -5 8
-177 -2 -221 -13 -52 -13 -217 -11 -268 4 -37 11 -47 18 -42 30 4 13 3 13 -8
-1 -11 -13 -20 -15 -43 -8 -16 4 -21 9 -11 9 9 1 17 5 17 9 0 5 -20 7 -46 6
-32 -2 -50 2 -63 15 -11 11 -25 15 -37 11 -50 -18 -76 -21 -72 -8 3 8 -21 25
-64 46 -37 18 -68 35 -68 38 0 3 19 2 43 -2 23 -4 53 -7 67 -8 14 -1 29 -5 33
-11 5 -6 6 -1 2 10 -9 23 -9 34 -3 55 3 8 3 12 1 8 -5 -8 -44 3 -105 31 -43
20 -54 38 -35 57 11 11 8 36 -3 29 -6 -4 -17 -1 -25 5 -8 7 -43 15 -77 17 -35
3 -76 11 -93 18 -36 16 -96 30 -110 25 -5 -1 -18 -2 -29 -2 -18 1 -18 1 0 -13
11 -8 14 -15 7 -15 -16 0 -54 55 -45 65 4 5 1 5 -6 1 -6 -4 -19 0 -28 8 -8 9
-12 16 -8 16 3 0 1 7 -6 15 -7 8 13 -1 44 -22 56 -36 106 -49 106 -28 0 5 5 3
10 -5 9 -13 10 -13 9 0 0 8 -4 24 -9 35 -7 16 -9 17 -9 3 -1 -9 -6 -20 -12
-24 -7 -4 -10 -1 -7 6 2 8 -8 25 -23 40 -18 17 -26 33 -24 46 4 15 -7 25 -60
49 -72 34 -87 52 -24 30 23 -8 50 -15 60 -15 11 0 19 -6 20 -12 0 -7 5 -2 10
11 11 27 7 33 -19 36 -9 1 -24 5 -32 8 -48 21 -104 36 -109 32 -3 -3 0 -14 6
-25 10 -14 9 -19 -3 -24 -9 -3 -32 11 -60 38 -29 29 -40 46 -32 49 8 4 6 6 -5
6 -9 1 -23 12 -29 26 -17 37 -41 33 -33 -5 4 -19 3 -30 -4 -30 -6 0 -11 7 -11
16 0 10 -6 14 -14 11 -17 -7 -41 26 -50 70 -5 22 -48 71 -147 171 -76 77 -139
142 -139 146 0 3 8 3 18 0 10 -3 8 0 -4 7 -27 14 -50 56 -46 83 3 16 1 18 -10
8 -12 -9 -19 -7 -34 11 -11 12 -26 34 -33 48 -7 15 -24 32 -37 39 -13 7 -21
16 -19 21 3 4 -3 6 -12 5 -23 -4 -25 -66 -3 -83 8 -7 11 -13 5 -13 -5 0 1 -7
13 -16 12 -8 22 -20 22 -26 0 -5 9 -22 20 -38 11 -15 17 -30 13 -34 -15 -14
-32 -4 -59 37 -16 23 -33 45 -38 49 -6 4 -4 14 5 25 13 16 12 17 -3 5 -14 -11
-18 -10 -28 8 -6 11 -8 30 -5 41 5 15 2 22 -14 26 -11 3 -19 9 -16 13 3 5 -3
11 -12 14 -10 3 -23 14 -28 25 -6 10 -23 43 -38 72 l-29 54 56 -57 c31 -31 56
-61 56 -66 0 -6 9 -14 20 -17 12 -4 20 -16 21 -28 0 -21 1 -21 8 -2 6 14 3 25
-10 38 -24 22 -25 34 -1 16 9 -7 5 0 -10 15 -41 39 -38 58 5 34 33 -18 47 -18
47 0 0 20 -15 45 -23 40 -3 -1 -20 17 -37 41 -18 24 -27 40 -21 37 17 -11 13
41 -5 69 -9 14 -13 25 -10 25 4 0 -7 15 -23 32 -17 18 -31 38 -31 45 0 13 -39
53 -52 53 -4 0 -7 -6 -5 -12 1 -8 -7 -12 -20 -10 -12 2 -25 -2 -29 -9 -4 -8
-3 -9 5 -5 14 9 43 -12 35 -25 -3 -5 -1 -9 4 -9 6 0 13 -7 16 -15 4 -11 -5 -8
-27 8 -17 14 -42 28 -54 32 -13 3 -23 14 -23 24 0 10 -11 39 -25 64 -13 26
-22 55 -19 64 4 13 3 14 -3 5 -7 -9 -16 3 -31 43 -25 65 -25 65 -12 65 6 0 10
-5 10 -10 0 -6 12 -22 27 -36 18 -17 22 -24 11 -20 -11 3 -18 0 -18 -8 0 -9 8
-12 24 -9 13 3 27 0 30 -6 4 -6 11 -11 16 -11 15 0 -35 125 -71 180 -26 40
-38 90 -41 172 -2 65 -5 79 -20 84 -20 6 -22 16 -9 62 8 27 6 35 -11 51 -11
11 -17 24 -14 29 3 6 0 25 -8 44 -18 43 -37 146 -41 225 -2 34 -6 67 -9 72 -4
5 -11 123 -16 263 -6 139 -14 305 -20 368 -5 63 -12 169 -15 235 -4 66 -8 125
-10 132 -2 6 5 40 16 75 10 34 18 74 18 88 -1 17 -3 19 -6 8 -2 -10 -8 -18
-13 -18 -8 0 -20 -51 -25 -107 -4 -38 -13 -55 -26 -48 -5 4 -9 1 -9 -4 0 -6 7
-11 16 -11 11 0 14 -5 10 -16 -3 -9 -6 -70 -6 -135 0 -78 -4 -118 -10 -114 -5
3 -10 -1 -10 -10 0 -9 5 -13 11 -9 8 4 10 -20 8 -84 -2 -49 -1 -88 4 -85 13 8
8 -142 -5 -157 -11 -12 -10 -12 5 -1 15 12 17 10 17 -28 0 -22 -3 -41 -7 -41
-5 0 -7 -33 -7 -72 2 -81 -12 -66 -22 26 -3 28 -12 95 -20 148 -19 132 -19
198 1 198 8 0 15 -7 15 -16 0 -9 -5 -12 -12 -8 -8 5 -8 1 2 -12 8 -10 16 -21
17 -23 2 -2 3 19 3 48 0 48 -1 51 -16 37 -8 -9 -17 -16 -20 -16 -7 0 3 329 11
377 4 24 10 41 14 39 3 -2 6 6 7 17 0 12 4 33 7 47 3 14 12 53 18 88 8 40 17
62 26 62 9 0 11 -5 7 -12 -5 -10 -3 -10 7 0 14 13 17 29 23 117 1 28 8 70 15
95 7 25 15 57 17 73 2 15 6 32 9 38 4 5 7 39 6 75 0 57 49 310 65 336 3 5 8
25 10 46 3 20 9 39 14 40 6 2 10 14 10 27 0 31 10 56 20 50 5 -3 6 3 4 12 -5
21 128 269 142 266 6 -1 10 8 10 20 -1 15 4 21 14 19 8 -2 12 0 8 4 -4 4 -3
13 3 20 8 10 16 11 31 3 18 -10 19 -9 8 11 -7 14 -8 20 -2 16 6 -4 10 1 10 11
-2 22 126 225 170 269 7 8 10 14 6 14 -3 0 -1 6 6 14 6 8 18 12 25 9 12 -4 12
-7 0 -20 -14 -13 -21 -53 -11 -53 3 0 16 4 30 10 17 6 26 6 26 0 0 -6 -7 -10
-16 -10 -9 0 -12 -5 -8 -12 4 -7 4 -10 0 -6 -9 7 -42 -25 -85 -82 -14 -19 -28
-37 -31 -40 -4 -3 -22 -31 -42 -62 -19 -32 -39 -54 -43 -50 -5 4 -5 2 -2 -4
10 -17 -12 -74 -28 -74 -7 0 -15 -7 -19 -15 -4 -11 1 -15 17 -15 17 0 36 21
81 90 32 49 63 87 68 84 5 -3 8 0 6 7 -4 20 57 104 102 140 21 17 46 46 54 63
8 18 24 40 36 51 21 19 28 51 8 39 -8 -5 -9 -2 -5 9 8 20 -1 47 -15 47 -6 0
-5 -7 2 -15 18 -22 8 -27 -26 -15 -26 10 -27 13 -11 21 9 6 17 15 17 22 0 7
-4 6 -10 -3 -6 -9 -10 -10 -10 -3 0 7 12 23 27 37 22 20 30 23 42 13 12 -10
14 -9 8 5 -3 10 -2 20 3 23 6 4 10 -3 10 -14 0 -11 5 -23 12 -27 7 -4 8 -3 4
4 -4 7 -2 12 3 12 6 0 11 -4 11 -10 0 -5 5 -10 12 -10 6 0 4 7 -6 18 -15 18
-15 20 4 37 10 9 28 15 38 13 15 -4 24 3 36 29 18 38 21 56 5 33 -8 -12 -9
-11 -6 5 2 11 8 19 13 18 6 -1 9 12 7 30 -2 18 0 26 3 20 8 -18 27 -16 21 1
-4 9 5 22 21 32 15 10 33 24 40 31 7 7 21 12 30 12 15 -1 15 -2 0 -6 -10 -2
-18 -11 -18 -19 0 -8 -3 -13 -7 -12 -13 4 -53 -26 -53 -39 0 -7 9 -17 21 -23
26 -15 52 4 43 32 -4 13 -1 19 8 17 24 -3 38 1 38 11 0 5 -7 7 -15 4 -19 -8
-19 5 0 30 15 20 15 20 16 0 0 -10 3 -14 5 -8 3 7 13 10 23 7 13 -3 22 4 31
26 7 17 16 31 20 31 4 0 13 14 20 30 11 28 21 35 43 31 5 -1 6 2 4 6 -3 5 16
24 40 43 25 19 69 56 97 83 33 31 57 45 69 42 9 -3 27 -7 40 -10 20 -5 20 -5
2 4 -18 8 -17 10 12 16 18 4 31 12 30 17 -1 6 4 13 12 16 9 3 11 0 6 -8 -5 -9
-4 -11 4 -6 6 4 9 11 6 15 -10 17 197 166 246 176 16 4 34 15 39 26 9 15 8 17
-6 12 -14 -5 -15 -3 -5 15 13 25 97 46 164 41 26 -2 47 -1 47 3 0 5 73 25 125
34 6 1 12 3 15 4 3 1 30 3 61 5 31 2 80 14 110 25 29 12 64 20 76 17 12 -2 20
0 17 4 -3 5 6 9 20 9 20 0 24 -4 19 -17 -4 -11 -3 -14 5 -9 7 4 12 13 12 20 0
26 175 42 564 51 121 3 222 7 224 9 6 6 38 -1 62 -14z m-117 -875 c111 -3 224
-26 212 -45 -3 -4 4 -6 15 -3 14 4 19 1 17 -8 -2 -8 -2 -11 0 -6 7 11 35 8 66
-8 15 -8 25 -9 21 -3 -5 8 0 9 17 4 13 -4 36 -10 52 -13 15 -3 27 -9 27 -14 0
-5 8 -6 18 -3 14 5 15 4 2 -5 -8 -6 -35 -9 -62 -6 -25 3 -79 7 -120 10 -40 2
-73 5 -73 6 0 7 -55 7 -60 -1 -8 -13 18 -40 39 -40 9 0 16 -3 16 -7 0 -5 21
-9 47 -11 25 -2 66 -12 89 -23 24 -10 48 -19 54 -19 6 0 8 -5 4 -12 -4 -7 -3
-8 4 -4 6 4 33 0 59 -8 26 -8 69 -20 96 -26 27 -8 47 -18 47 -26 0 -8 5 -14
11 -14 5 0 8 4 4 9 -6 11 58 -5 95 -24 14 -7 56 -27 94 -45 37 -19 107 -59
155 -90 202 -132 199 -130 210 -116 9 11 5 19 -16 35 -21 15 -23 19 -8 15 16
-5 17 -4 5 4 -8 6 -18 8 -22 6 -5 -3 -26 9 -49 26 -53 43 -169 120 -179 120
-4 0 -13 7 -20 15 -7 8 -32 25 -57 37 -24 12 -47 26 -50 31 -7 12 38 58 50 50
6 -3 7 -1 3 6 -13 21 22 23 68 2 25 -11 46 -22 46 -26 0 -3 -13 1 -30 10 -31
16 -69 20 -71 8 0 -5 -2 -18 -3 -31 -2 -12 2 -29 8 -37 16 -20 131 -76 206
-101 36 -11 64 -26 63 -32 -2 -7 3 -11 10 -9 6 1 11 -4 9 -11 -1 -8 2 -11 7
-8 5 4 11 2 13 -2 1 -5 32 -24 68 -42 89 -46 97 -54 92 -90 -2 -17 -8 -32 -12
-35 -11 -7 42 -62 55 -58 12 4 121 -104 113 -112 -3 -3 9 -20 26 -39 57 -60
69 -81 65 -113 0 -3 6 -10 15 -15 18 -10 22 -38 5 -38 -5 0 -7 -5 -4 -10 4 -6
10 -8 15 -5 4 3 6 -5 3 -17 -3 -16 -2 -19 4 -10 7 9 15 2 28 -28 10 -23 29
-50 42 -60 13 -10 23 -23 23 -29 0 -7 21 -57 47 -111 39 -85 49 -99 67 -95 12
2 22 4 22 4 9 5 -68 162 -97 200 -23 29 -24 41 -4 41 8 0 22 -12 30 -27 9 -16
14 -20 11 -10 -11 37 3 13 49 -79 25 -52 44 -102 41 -110 -3 -9 1 -22 9 -30
14 -14 20 -48 16 -82 -1 -8 4 -19 12 -25 8 -7 18 -23 22 -36 l7 -24 -36 21
c-35 21 -37 21 -31 3 3 -11 1 -23 -6 -26 -8 -6 -7 -10 2 -16 11 -7 11 -9 1 -9
-7 0 -10 -5 -6 -12 4 -7 3 -8 -4 -4 -7 4 -15 24 -18 45 -4 23 -12 38 -20 38
-11 0 -13 -16 -7 -86 4 -47 7 -114 7 -148 1 -33 4 -57 7 -51 12 19 17 -7 7
-32 -12 -29 -17 -180 -5 -173 4 2 7 -7 7 -21 0 -30 16 -42 36 -25 8 6 17 10
19 7 19 -19 38 -589 21 -617 -4 -5 -2 -12 3 -15 10 -7 9 -25 -1 -41 -4 -6 -4
-30 -1 -53 4 -30 10 -42 22 -42 10 0 12 -3 5 -8 -30 -21 -54 -172 -27 -172 7
0 13 -10 12 -22 0 -21 -1 -21 -8 -4 -13 34 -22 1 -25 -97 -3 -94 -12 -147 -25
-147 -4 0 -8 -6 -8 -12 -2 -19 -54 -201 -61 -213 -4 -5 -7 -15 -8 -21 -4 -26
-74 -164 -93 -183 -11 -11 -16 -21 -11 -21 6 0 20 -10 32 -22 16 -16 20 -17
15 -4 -6 15 -2 16 31 10 46 -8 52 -12 52 -30 0 -8 5 -14 10 -14 6 0 10 -7 10
-16 0 -8 -4 -12 -10 -9 -5 3 -7 0 -4 -8 3 -8 -2 -20 -10 -27 -13 -10 -17 -9
-23 6 -4 11 -13 24 -21 30 -11 8 -12 13 -3 18 6 4 9 11 6 15 -5 10 -80 -9
-115 -28 -17 -10 -25 -11 -28 -2 -9 26 -48 10 -77 -33 -16 -24 -33 -42 -38
-39 -4 2 -6 0 -5 -5 6 -21 -121 -214 -135 -205 -5 3 -7 1 -4 -4 9 -14 -154
-208 -174 -208 -5 0 -9 -4 -10 -10 -2 -17 -83 -85 -102 -85 -21 0 -48 -17
-136 -82 -51 -38 -67 -46 -78 -36 -11 9 -23 4 -56 -19 -23 -17 -42 -39 -42
-48 0 -13 -16 -23 -60 -35 -33 -10 -85 -32 -116 -49 -31 -17 -83 -36 -115 -42
-33 -6 -63 -14 -69 -18 -30 -22 -99 -34 -165 -27 -78 7 -86 4 -165 -53 -27
-20 -53 -37 -57 -37 -5 -1 -18 -2 -30 -3 -22 -2 -22 -3 -3 -11 20 -8 19 -9 -1
-9 -12 -1 -36 -4 -54 -8 -27 -5 -32 -3 -25 8 7 11 6 12 -6 3 -46 -35 -205 -55
-242 -31 -13 8 -41 12 -66 11 -37 -3 -44 0 -49 18 -5 20 -6 20 -19 3 -10 -14
-16 -16 -24 -8 -14 14 -42 5 -33 -9 4 -7 -6 -9 -29 -6 -20 2 -34 1 -31 -3 5
-9 -146 -21 -216 -17 -51 3 -56 5 -72 36 -22 45 -44 68 -79 82 -16 7 -27 16
-24 20 3 4 -2 11 -11 14 -8 3 -13 10 -10 14 11 19 -44 60 -95 71 -45 10 -55 9
-70 -5 -11 -10 -19 -22 -19 -28 0 -6 5 -4 10 4 5 8 10 11 10 5 0 -5 3 -21 7
-34 6 -23 5 -23 -53 -19 -56 5 -112 24 -101 35 10 9 -15 64 -34 74 -11 5 -17
14 -14 20 4 5 1 9 -6 9 -8 0 -8 4 1 15 7 8 18 15 25 15 7 0 16 8 19 17 10 26
-30 51 -82 51 -23 0 -50 6 -59 14 -11 8 -14 9 -10 1 11 -18 -55 6 -71 26 -7 9
-15 15 -17 14 -16 -9 -35 0 -36 15 0 10 -3 12 -6 4 -3 -9 -13 -6 -36 10 -48
34 -59 46 -47 53 6 4 8 11 5 16 -4 5 -2 9 4 9 5 0 13 -4 16 -10 8 -12 102 -75
138 -91 15 -7 27 -17 27 -23 0 -6 5 -4 10 4 7 11 -2 24 -35 53 -25 22 -42 44
-38 50 3 5 1 7 -5 3 -6 -3 -13 -2 -17 4 -3 6 -50 43 -103 82 -98 73 -253 221
-328 313 -22 28 -66 89 -98 137 -63 97 -84 121 -96 113 -13 -8 1 -47 32 -87
17 -21 26 -38 21 -38 -12 0 -87 88 -89 106 -1 9 -10 24 -19 34 -22 25 -11 44
16 29 31 -16 31 -7 2 34 -26 36 -43 47 -43 27 0 -19 -15 -9 -37 25 -40 61
-135 298 -130 324 5 24 -15 56 -27 44 -3 -4 -6 -1 -6 5 0 7 -6 11 -12 9 -7 -1
-12 6 -12 15 1 10 -2 15 -7 13 -4 -3 -13 14 -20 37 -6 24 -16 55 -21 70 -5 15
-7 41 -3 59 11 50 8 170 -4 202 -10 27 -8 33 38 88 49 59 53 74 28 107 -5 7
-7 32 -4 57 4 25 3 45 -2 45 -4 0 -7 11 -6 25 2 14 -1 27 -6 31 -5 3 -3 17 5
32 7 15 17 45 21 67 5 22 10 45 11 50 2 6 9 34 15 62 6 29 14 51 18 49 8 -5 5
78 -5 112 l-7 27 -6 -30 c-4 -18 -15 -34 -28 -40 -22 -9 -33 -32 -33 -72 0
-36 -20 -79 -29 -64 -6 10 -10 9 -14 -4 -4 -9 -3 -13 3 -10 6 3 10 2 10 -4 0
-5 -4 -12 -9 -15 -4 -3 -6 -17 -3 -31 3 -16 -1 -30 -11 -38 -8 -7 -18 -28 -21
-47 -6 -34 -5 -34 5 -7 12 31 33 31 36 1 3 -18 2 -18 -5 1 -8 18 -9 17 -14 -7
-3 -14 -1 -34 5 -43 6 -11 5 -21 -2 -28 -6 -6 -11 -16 -11 -21 0 -6 7 0 17 13
13 20 14 27 3 45 -11 19 -11 20 4 6 18 -18 38 -107 30 -137 -4 -14 -13 -19
-30 -17 -13 1 -24 -2 -24 -8 0 -5 -7 -3 -15 6 -17 17 -21 101 -5 111 5 3 10
11 10 16 0 6 -4 8 -8 5 -4 -2 -8 5 -9 17 -2 36 20 226 26 222 4 -2 4 22 1 53
-6 73 6 279 21 357 7 33 30 109 51 169 21 60 38 111 38 113 0 2 4 2 9 -1 5 -3
14 0 20 7 8 10 7 14 -4 14 -8 0 -11 -5 -8 -10 3 -6 1 -7 -6 -3 -12 8 12 49 44
76 8 7 15 21 15 32 0 10 3 17 8 15 4 -3 8 10 9 28 2 50 103 202 124 189 5 -3
10 2 10 10 1 9 2 20 3 25 2 14 95 159 155 241 89 123 318 338 344 323 7 -3 9
-3 5 2 -8 8 38 49 57 51 5 0 16 2 24 2 10 2 11 5 2 15 -8 11 -5 19 14 37 14
13 27 21 30 18 8 -7 -5 -38 -16 -38 -5 0 -9 -7 -9 -15 0 -25 -22 -64 -39 -67
-13 -3 -12 -5 4 -9 15 -5 33 9 75 56 59 66 130 125 154 129 9 1 19 6 23 11 4
4 2 5 -4 1 -29 -16 -10 3 32 33 25 18 50 29 55 26 6 -4 9 -1 8 7 -2 7 4 12 14
10 9 -1 34 5 55 13 48 20 117 30 108 15 -15 -25 10 -6 44 31 35 41 104 79 142
79 11 0 33 7 49 15 26 14 29 14 24 0 -3 -8 -11 -12 -18 -8 -6 4 -5 -1 3 -10
14 -18 41 -23 41 -8 0 4 37 18 83 30 45 13 102 30 127 39 25 8 47 14 48 13 2
-2 16 9 32 24 27 26 31 27 226 36 110 6 213 14 229 18 17 4 34 6 38 3 5 -2 59
-5 120 -7z m1315 -385 c29 -17 50 -35 47 -40 -3 -6 1 -7 9 -4 9 3 19 -3 26
-17 11 -19 10 -21 -4 -16 -10 4 -15 3 -12 -2 3 -5 19 -11 36 -14 33 -7 72 -59
62 -85 -3 -10 -1 -13 6 -8 7 4 12 4 12 -1 0 -4 11 -21 25 -37 23 -27 27 -34
24 -53 0 -3 6 -10 15 -15 9 -5 14 -13 11 -18 -3 -4 1 -10 9 -13 19 -8 61 -68
44 -65 -7 2 -20 14 -29 28 -9 14 -25 34 -35 45 -48 51 -94 115 -94 129 0 9 -4
16 -10 16 -14 0 -150 134 -150 148 0 7 -3 11 -7 11 -21 -3 -33 2 -33 15 0 8
-6 17 -12 19 -7 3 -8 6 -3 6 6 0 34 -13 63 -29z m-4774 -1885 c-4 -8 -1 -15 5
-15 15 0 14 -27 -1 -36 -7 -4 -8 -3 -4 4 5 8 2 10 -8 6 -9 -3 -16 -10 -16 -16
0 -5 5 -6 10 -3 6 3 10 1 10 -5 0 -6 4 -9 10 -5 8 5 3 -84 -6 -94 -2 -2 7 -22
20 -45 20 -34 24 -55 24 -121 l-1 -80 -10 51 c-10 54 -29 73 -74 77 -12 0 -19
5 -17 9 3 4 1 8 -5 8 -5 0 -18 3 -28 6 -13 4 -14 3 -5 -3 11 -8 11 -12 0 -21
-11 -9 -14 -6 -16 14 -1 13 2 24 6 24 4 0 6 16 4 36 -3 22 -1 34 5 31 5 -3 10
7 10 23 0 16 -4 27 -9 24 -4 -3 -5 2 -1 12 11 29 22 -7 20 -64 -1 -36 2 -52
11 -52 6 0 11 3 11 8 -4 22 2 42 11 37 5 -3 7 9 4 32 -7 53 5 135 18 126 7 -3
8 -1 4 6 -9 14 0 41 13 41 6 0 8 -7 5 -15z m563 -128 c-1 -7 -6 -15 -12 -19
-6 -5 -6 -8 2 -8 7 0 10 -14 6 -42 l-4 -43 21 28 c12 15 27 24 33 20 7 -3 5 2
-4 13 -9 10 -20 29 -24 42 -6 22 -4 23 35 20 47 -2 60 -18 60 -73 0 -24 -4
-34 -11 -29 -8 4 -8 1 -1 -12 13 -24 23 -129 11 -117 -5 5 -10 18 -12 30 -2
13 -6 26 -10 29 -4 4 -7 22 -7 40 0 39 -14 51 -36 30 -8 -9 -12 -16 -7 -16 5
0 14 5 19 10 7 7 9 1 6 -19 -3 -22 -8 -28 -21 -24 -9 4 -13 3 -9 -2 8 -8 -40
-51 -48 -43 -8 9 -24 172 -18 190 6 19 35 14 31 -5z m5190 -1619 c-3 -18 -12
-51 -19 -73 -10 -27 -12 -52 -6 -83 8 -46 -1 -76 -31 -99 -23 -18 -30 -16 -24
7 5 19 3 20 -22 8 -24 -11 -25 -13 -8 -19 10 -4 12 -8 5 -8 -7 -1 -10 -5 -7
-11 3 -5 1 -10 -4 -10 -6 0 -11 5 -11 11 0 5 -5 7 -10 4 -6 -4 -8 -10 -5 -15
3 -5 1 -11 -5 -15 -15 -9 -12 12 6 46 8 17 13 33 10 36 -2 3 -1 16 4 29 8 19
6 24 -8 25 -9 0 -12 3 -5 5 7 3 10 11 7 18 -7 17 114 176 134 176 2 0 1 -15
-1 -32z m-4279 -177 c44 -39 71 -70 67 -78 -2 -8 -1 -12 4 -9 13 8 44 -31 38
-48 -4 -10 -1 -13 7 -10 7 3 37 -24 70 -65 31 -38 64 -72 72 -75 8 -3 12 -11
8 -17 -4 -8 -9 -7 -15 2 -4 8 -12 14 -16 14 -16 0 -88 50 -106 72 -11 13 -44
48 -74 78 -30 29 -52 59 -48 65 3 6 2 9 -4 8 -9 -3 -181 218 -181 231 1 3 24
-19 53 -49 29 -30 85 -84 125 -119z m202 -411 c12 -6 16 -17 13 -30 -4 -15 0
-20 16 -20 12 0 19 -4 16 -10 -3 -5 14 -23 37 -39 24 -16 51 -36 60 -44 9 -9
19 -13 22 -9 3 3 6 -3 6 -14 0 -11 3 -15 8 -8 5 7 15 6 32 -3 15 -8 19 -13 10
-14 -8 0 3 -5 24 -10 37 -9 147 -69 174 -95 8 -8 9 -15 2 -19 -5 -3 -10 -1
-10 5 0 7 -8 9 -22 4 -20 -6 -21 -5 -9 10 7 9 9 16 5 16 -5 0 -15 -9 -21 -19
-10 -16 -18 -18 -46 -11 -18 4 -42 13 -53 19 -18 12 -18 12 1 6 12 -3 2 9 -22
31 -25 21 -43 46 -43 58 0 15 -3 17 -8 8 -6 -9 -20 -3 -55 23 -26 20 -47 40
-47 45 0 6 -6 10 -12 10 -7 0 -34 23 -60 51 -58 62 -64 84 -18 59z m1640
-1419 c14 -5 34 -12 45 -17 11 -4 26 -8 33 -10 25 -5 24 -12 -3 -30 -24 -16
-26 -16 -38 1 -12 15 -14 15 -26 1 -14 -17 -71 -22 -71 -7 0 6 -9 8 -20 6 -11
-2 -22 0 -25 6 -4 5 -14 5 -26 -2 -11 -6 -27 -8 -34 -5 -9 3 -12 0 -9 -8 3 -8
-4 -16 -17 -19 -20 -5 -21 -8 -8 -24 13 -17 13 -17 -4 -4 -11 9 -14 18 -8 24
15 15 2 35 -20 30 -16 -5 -18 -8 -7 -14 9 -6 7 -9 -9 -9 -16 0 -21 4 -17 15 5
11 -1 15 -19 15 -14 0 -29 5 -32 11 -4 6 -1 9 6 8 8 -1 28 3 44 10 60 26 217
38 265 22z"/>
<path d="M3358 7610 c-14 -10 -29 -16 -33 -12 -5 4 -5 2 -1 -5 4 -7 -18 -41
-52 -80 -58 -68 -122 -164 -122 -184 0 -5 -3 -8 -7 -6 -5 3 -9 -7 -11 -21 -1
-15 -3 -34 -5 -42 -1 -8 2 -16 7 -18 6 -1 11 5 12 14 5 30 14 45 24 39 6 -4 9
-1 8 7 -2 7 3 12 9 11 7 -2 12 1 10 5 -2 9 19 34 86 105 21 22 45 53 54 68 10
16 20 29 24 29 4 0 12 14 19 30 7 17 16 30 20 30 15 0 18 39 3 44 -19 8 -17 9
-45 -14z"/>
<path d="M2424 6107 c-10 -18 -19 -36 -19 -42 0 -5 -6 -16 -12 -23 -7 -7 -13
-26 -13 -41 0 -15 -9 -37 -20 -49 -24 -25 -26 -36 -6 -29 10 4 13 1 10 -8 -3
-7 -7 -42 -8 -77 -2 -35 -4 -78 -4 -96 -1 -18 -5 -31 -9 -29 -5 3 -8 -21 -8
-54 0 -32 3 -59 6 -59 17 0 31 34 35 87 7 82 25 176 37 191 6 8 12 49 13 92 2
84 10 112 25 89 7 -11 9 -10 9 3 0 9 -5 20 -10 23 -7 4 -7 12 0 25 18 33 -6
30 -26 -3z"/>
<path d="M3100 3630 c0 -11 78 -109 154 -195 20 -22 36 -45 36 -52 0 -6 5 -15
12 -19 7 -5 8 -2 3 7 -6 11 -5 12 6 2 7 -7 21 -13 32 -13 15 0 18 6 15 38 -2
20 -7 35 -10 32 -11 -8 -88 72 -81 84 3 6 3 8 -2 4 -9 -9 -81 52 -77 65 1 5
-2 6 -6 3 -5 -3 -18 4 -28 15 -25 28 -54 43 -54 29z"/>
<path d="M5229 7426 c-10 -10 -86 -19 -224 -26 -82 -4 -162 -12 -177 -18 -22
-9 -30 -9 -40 2 -10 10 -16 9 -34 -9 -18 -18 -31 -22 -68 -19 -31 2 -46 0 -46
-9 0 -13 -123 -67 -152 -67 -22 0 -151 -58 -160 -73 -3 -6 -25 -11 -46 -11
-22 -1 -38 -3 -36 -5 2 -2 -20 -18 -49 -34 -73 -42 -232 -160 -296 -221 -61
-59 -58 -55 -111 -121 -23 -27 -46 -49 -51 -47 -6 1 -8 -1 -5 -6 5 -9 -62 -80
-78 -82 -5 -1 -13 4 -18 12 -8 10 -9 10 -5 -2 2 -8 10 -14 16 -13 12 3 15 -13
4 -19 -11 -4 -43 -67 -43 -84 0 -8 -4 -14 -10 -14 -5 0 -10 -12 -10 -26 0 -14
-5 -34 -11 -45 -6 -11 -12 -30 -14 -42 -3 -21 -3 -21 8 -3 7 10 20 26 30 35 9
8 17 21 17 28 0 7 4 13 9 13 5 0 35 35 67 78 33 42 65 81 72 85 6 4 12 13 12
19 0 15 58 86 104 128 57 51 79 70 82 70 2 0 -18 -29 -44 -64 -26 -35 -51 -61
-56 -58 -5 3 -6 0 -2 -6 7 -12 -99 -134 -108 -124 -3 3 -6 -1 -6 -9 0 -8 -15
-29 -32 -46 -48 -48 -68 -72 -68 -82 0 -5 -4 -11 -8 -13 -4 -1 -25 -25 -46
-53 -31 -41 -42 -49 -65 -47 -35 4 -57 -21 -67 -78 -11 -58 -11 -60 0 -59 5 0
12 -5 16 -12 6 -9 18 -9 53 0 54 13 97 14 97 2 0 -4 10 -8 22 -7 11 0 23 -5
25 -11 4 -11 -19 -19 -30 -10 -2 1 -10 -3 -18 -10 -8 -7 -51 -13 -96 -14 -45
-1 -82 -5 -81 -8 0 -3 0 -8 -1 -11 -3 -8 -9 -138 -11 -217 -1 -39 1 -81 5 -92
3 -11 -1 -34 -11 -53 -15 -27 -18 -62 -20 -191 0 -87 -4 -160 -7 -163 -3 -3
-3 -13 0 -21 5 -13 3 -13 -16 -3 -13 7 -20 17 -17 26 3 8 2 14 -3 14 -4 0 -14
11 -21 25 -8 14 -24 28 -37 31 -13 4 -28 14 -34 23 -9 14 -10 14 -5 -1 4 -13
0 -18 -17 -18 -12 0 -30 -7 -40 -14 -15 -12 -15 -15 -2 -26 9 -7 13 -24 11
-42 -3 -33 11 -115 39 -217 12 -45 14 -66 6 -74 -21 -21 -11 -69 35 -160 25
-51 49 -96 55 -101 13 -14 11 -28 -3 -21 -7 4 -5 0 4 -8 11 -9 15 -21 11 -37
-4 -14 -2 -21 4 -17 11 7 56 -80 48 -93 -3 -4 2 -10 10 -14 10 -4 15 -20 15
-53 0 -38 6 -53 26 -72 14 -13 23 -30 20 -37 -3 -7 0 -11 7 -9 7 2 37 -32 67
-76 113 -164 298 -384 344 -409 14 -7 26 -17 26 -22 0 -22 -56 25 -180 153
-75 77 -140 139 -145 139 -6 0 -11 -11 -11 -25 -1 -14 2 -25 8 -25 5 0 6 5 3
10 -3 6 -2 10 3 10 5 0 14 -12 21 -27 7 -15 25 -43 41 -63 16 -21 27 -40 23
-44 -3 -3 -2 -6 4 -6 13 0 46 -49 46 -67 0 -7 2 -11 5 -9 2 3 28 -21 57 -52
37 -39 50 -60 42 -65 -8 -6 -6 -7 5 -4 18 6 52 -25 41 -37 -5 -4 -3 -6 2 -5
17 5 76 -31 69 -43 -4 -6 -1 -9 7 -6 8 3 33 -8 57 -24 23 -16 46 -27 51 -23 5
3 11 -1 14 -7 2 -7 7 -10 11 -6 4 3 2 15 -5 27 -17 27 -9 34 24 18 17 -7 25
-17 21 -27 -3 -8 -2 -11 2 -8 7 8 94 -49 94 -61 0 -5 9 -11 21 -14 12 -3 18
-10 14 -17 -3 -6 -3 -9 2 -8 11 4 54 -27 48 -34 -3 -3 5 -5 17 -4 13 0 29 8
35 16 11 13 14 13 22 0 7 -10 7 -16 1 -18 -18 -6 -11 -22 9 -22 11 0 23 -5 26
-10 4 -6 11 -8 16 -4 5 3 8 0 7 -8 -2 -9 5 -12 22 -8 14 2 42 4 63 5 20 0 37
5 37 10 0 6 3 5 8 -1 4 -6 25 -14 47 -17 27 -4 35 -3 25 3 -12 7 -8 10 15 10
17 1 54 2 83 3 41 2 56 -2 63 -14 4 -9 6 -19 4 -23 -3 -3 -2 -4 2 0 4 3 8 15
8 27 0 18 8 24 48 31 34 7 54 6 67 -1 9 -7 49 -11 89 -10 53 2 71 -1 71 -11 0
-7 5 -10 10 -7 6 4 8 11 4 16 -3 5 15 8 43 7 40 -3 47 -6 45 -21 -3 -16 -1
-16 17 2 12 12 33 21 49 22 46 1 138 8 152 11 8 2 21 11 30 20 11 13 220 96
250 100 3 0 15 4 28 9 13 5 28 9 33 9 5 0 20 7 33 15 13 9 37 17 54 18 16 1
28 5 26 8 -6 10 26 20 39 12 7 -3 9 -3 5 2 -14 15 344 251 363 239 5 -3 8 0 7
7 -5 21 19 20 25 -1 4 -16 12 -21 29 -19 13 2 28 0 35 -4 14 -9 45 2 38 13 -3
5 -1 11 5 15 7 4 7 12 0 26 -10 17 -7 19 30 19 22 0 40 5 40 11 0 6 7 8 17 5
10 -4 14 -4 10 0 -3 4 1 14 11 23 9 9 28 40 42 68 14 29 30 53 35 53 6 0 4 4
-4 9 -12 8 -12 12 -2 24 10 13 9 15 -11 10 -23 -5 -23 -5 -3 10 11 8 23 13 28
10 4 -2 6 -1 5 4 -1 4 17 28 41 53 54 57 77 98 62 113 -8 8 -11 7 -11 -2 0 -7
-4 -10 -9 -7 -10 6 8 66 22 77 5 3 9 10 10 15 1 5 5 8 10 6 4 -1 7 2 7 8 0 5
-4 10 -9 10 -11 0 -3 39 12 57 5 7 12 11 16 9 3 -2 6 6 7 17 1 33 15 110 21
121 4 5 7 21 8 35 5 69 19 133 31 138 8 3 14 9 14 15 0 5 -4 6 -10 3 -19 -12
-10 26 11 48 19 20 20 29 14 87 -4 36 -9 92 -11 125 -1 33 -5 68 -9 78 -4 9
-5 26 -2 37 3 11 2 18 -3 15 -4 -3 -6 30 -3 72 3 53 -1 87 -11 114 -13 33 -13
39 0 49 10 9 13 26 9 59 -19 183 -30 257 -36 261 -5 3 -10 17 -11 30 -3 27
-10 38 -48 76 -23 23 -24 26 -7 35 24 14 21 31 -7 58 -38 36 -102 183 -108
249 -1 6 -4 10 -6 7 -7 -7 -52 57 -47 66 3 4 14 5 24 2 15 -4 20 0 18 16 -1
12 -7 21 -14 21 -13 0 -113 97 -113 110 0 4 8 14 17 21 9 8 14 9 10 3 -4 -7 0
-14 8 -18 10 -4 14 1 12 17 -1 12 -4 24 -7 27 -34 33 -98 119 -92 124 4 4 2 6
-3 4 -6 -2 -28 16 -49 40 -64 70 -215 186 -321 246 -55 31 -122 77 -150 102
-27 25 -86 63 -130 84 -72 35 -80 37 -91 22 -12 -16 -13 -16 -19 0 -4 10 -11
15 -16 12 -6 -3 -15 -1 -22 4 -7 5 -37 15 -67 23 -30 7 -59 16 -64 20 -11 10
-49 -9 -41 -20 3 -5 -3 -12 -13 -16 -16 -7 -15 -8 3 -15 11 -5 33 -9 49 -9 16
-1 35 -9 43 -18 8 -10 12 -12 8 -5 -11 21 33 14 56 -10 12 -13 19 -17 15 -10
-5 8 0 12 12 12 11 0 24 -11 31 -26 10 -24 10 -26 -6 -19 -10 4 -30 10 -45 13
-17 2 -28 11 -28 21 0 11 -3 12 -8 4 -4 -7 -16 -10 -27 -8 -11 2 -24 4 -28 4
-5 1 -5 5 -2 11 3 6 -1 7 -9 4 -9 -3 -16 -1 -16 4 0 6 -8 11 -17 11 -10 0 -41
3 -70 7 -36 4 -66 2 -99 -10 -38 -13 -49 -13 -56 -4 -6 10 -8 10 -8 -1 0 -11
-5 -10 -20 4 -18 17 -20 17 -14 2 4 -13 2 -16 -9 -11 -8 3 -18 15 -21 27 -4
17 -8 19 -18 9 -6 -6 -19 -12 -27 -12 -14 1 -14 2 -1 10 9 5 22 10 30 12 8 2
21 11 28 20 7 9 19 15 27 11 11 -4 13 -1 8 13 -5 13 -3 15 7 9 9 -5 11 -4 6 3
-7 12 -19 15 -27 8z m-189 -262 c0 -8 10 -14 22 -14 l22 0 -22 -16 c-42 -29
-15 -36 147 -33 141 2 210 -2 265 -18 12 -3 16 -1 12 6 -4 6 -3 11 3 11 11 0
24 -18 27 -37 3 -16 -2 -16 -28 -2 -15 8 -19 8 -13 -1 4 -7 1 -11 -6 -9 -37 5
-49 -2 -49 -26 0 -14 -7 -37 -16 -50 -18 -28 -10 -53 12 -34 15 12 18 4 15
-31 -2 -25 54 -38 194 -45 72 -4 131 -11 133 -15 2 -5 10 -6 18 -3 8 3 14 1
14 -5 0 -6 8 -8 19 -5 10 3 22 -1 26 -8 6 -8 4 -10 -5 -4 -9 6 -11 4 -5 -4 5
-8 11 -9 17 -3 11 11 48 4 48 -9 0 -5 3 -8 8 -7 16 4 163 -52 158 -60 -2 -4 9
-8 25 -9 15 -1 41 -9 57 -17 24 -12 29 -21 27 -45 -1 -17 2 -28 6 -25 11 7
123 -72 160 -112 36 -39 79 -110 72 -118 -4 -3 -2 -6 3 -6 18 0 55 -75 43 -87
-8 -8 -8 -13 0 -17 6 -4 11 -2 11 4 0 6 5 8 10 5 6 -3 10 -18 10 -33 l0 -26
-16 22 c-8 12 -24 26 -34 32 -16 9 -18 8 -13 -6 4 -11 2 -15 -4 -11 -7 5 -9 0
-6 -14 4 -15 8 -17 14 -8 6 10 11 5 18 -15 6 -15 9 -31 6 -36 -3 -5 -1 -10 4
-12 5 -1 11 -12 13 -23 1 -11 5 -22 8 -25 86 -89 100 -145 104 -415 2 -115 2
-199 -1 -186 -5 24 -49 101 -58 101 -2 0 -12 -16 -21 -35 -22 -47 -15 -162 12
-182 13 -9 17 -25 16 -63 0 -27 3 -52 9 -55 5 -4 7 -11 4 -16 -4 -5 -2 -9 2
-9 5 0 10 -27 11 -61 3 -46 0 -59 -9 -53 -7 4 -10 3 -5 -4 9 -15 -20 -130 -55
-213 -39 -93 -59 -156 -59 -184 0 -12 -9 -34 -21 -49 -11 -14 -37 -59 -58
-100 -38 -73 -138 -213 -180 -250 -32 -29 -25 -12 17 38 71 86 83 106 124 193
22 48 43 90 47 93 10 7 30 88 23 95 -8 8 -22 6 -21 -2 3 -21 -2 -26 -12 -13
-9 13 -10 12 -5 -3 5 -16 -9 -39 -82 -132 -4 -5 -22 -31 -40 -57 -35 -51 -45
-59 -36 -30 5 13 4 14 -4 3 -6 -8 -8 -19 -6 -26 5 -12 -61 -85 -77 -85 -6 0
-8 -4 -4 -9 6 -11 -49 -71 -65 -71 -5 0 -45 -23 -87 -50 -42 -28 -81 -50 -85
-50 -5 0 -56 -23 -114 -51 -57 -28 -110 -49 -117 -46 -13 4 -40 -40 -31 -54 3
-5 0 -9 -6 -9 -6 0 -9 -4 -5 -9 7 -13 -92 -78 -128 -85 -15 -2 -37 -7 -50 -10
-12 -3 -2 4 23 16 45 22 51 24 71 27 5 0 7 6 3 13 -5 8 -2 9 10 5 14 -6 16 -1
14 34 -1 22 -5 42 -9 45 -4 2 -6 -8 -3 -23 4 -22 2 -25 -7 -16 -9 9 -18 7 -38
-8 -24 -18 -81 -25 -217 -28 -38 -1 -56 -24 -49 -61 6 -34 7 -35 53 -33 l47 2
-40 -10 c-22 -6 -71 -12 -108 -14 -38 -2 -71 -6 -75 -9 -8 -9 -34 -7 -29 2 3
4 -8 8 -24 9 -16 1 -29 -2 -29 -7 0 -6 -16 -10 -36 -10 -19 0 -45 -5 -57 -12
-45 -25 -238 6 -292 46 -11 9 -30 16 -43 16 -12 0 -25 7 -28 15 -4 8 -10 13
-14 10 -4 -3 -23 5 -41 18 -74 49 -112 70 -135 73 -20 2 -22 -1 -15 -14 6 -10
6 -23 0 -34 -6 -12 -6 -18 1 -18 5 0 10 6 10 13 0 8 3 7 9 -3 17 -25 1 -30
-37 -11 -49 26 -162 129 -162 149 0 8 -3 13 -6 9 -3 -3 -55 44 -116 105 -96
96 -109 114 -105 137 5 22 -2 34 -38 69 -29 28 -48 58 -56 85 -6 23 -16 49
-23 57 -7 8 -27 45 -44 81 -33 68 -38 123 -13 139 9 5 7 9 -6 12 -18 5 -64
122 -64 164 0 10 3 103 7 205 7 182 6 187 -15 208 -12 12 -19 26 -16 31 3 5
-5 12 -17 16 -13 4 -24 2 -26 -5 -2 -6 -8 -9 -13 -6 -4 3 -6 32 -4 63 7 73 14
104 23 98 4 -2 8 24 9 58 2 33 9 84 17 111 7 28 21 82 31 120 9 39 21 87 27
108 5 21 13 35 18 32 6 -3 7 0 4 8 -10 27 71 170 219 386 9 14 22 25 27 24 6
-2 9 0 9 5 -4 22 8 39 75 110 40 42 86 102 102 132 16 30 38 66 50 79 18 19
25 21 43 12 11 -7 21 -18 21 -26 0 -8 7 -15 15 -15 8 0 14 3 13 8 -1 4 18 27
41 52 24 25 59 68 77 97 38 59 97 108 115 97 7 -4 9 -3 5 4 -6 10 101 48 111
39 4 -5 -57 -31 -67 -29 -3 0 -7 -10 -8 -24 -1 -13 2 -24 6 -24 25 1 52 15 57
31 3 10 15 21 26 24 16 5 18 10 8 21 -9 11 -8 14 2 14 8 0 28 7 44 16 17 9 53
17 82 18 28 0 51 3 51 6 0 3 0 7 1 10 0 3 44 6 96 6 74 1 95 -2 95 -12z
m-1523 -2254 c4 -8 7 -17 8 -20 4 -12 41 -86 45 -90 3 -3 18 -36 33 -75 16
-38 45 -103 65 -144 45 -91 47 -95 35 -88 -5 3 -10 0 -10 -8 0 -11 4 -12 13
-4 10 8 22 -8 54 -70 58 -116 107 -191 154 -233 32 -30 37 -38 22 -38 -11 0
-17 3 -13 6 6 6 -29 44 -41 44 -4 0 -24 25 -43 56 -18 31 -40 62 -46 69 -7 8
-13 18 -13 24 0 6 -4 11 -9 11 -15 0 -102 120 -95 131 4 7 3 9 -3 6 -6 -4 -19
4 -30 16 -48 54 -133 216 -133 254 0 27 -41 103 -55 103 -8 0 -17 5 -20 10 -4
6 -1 9 6 8 7 -2 15 5 17 15 2 9 -1 17 -7 17 -6 0 -11 -6 -11 -12 0 -7 -5 -5
-11 5 -6 10 -8 21 -5 24 3 4 6 1 6 -5 0 -6 7 -9 15 -6 8 4 17 -1 21 -10 9 -24
34 -1 35 33 1 20 2 21 6 6 2 -11 7 -27 10 -35z"/>
<path d="M4895 6643 c-16 -3 -38 -11 -49 -19 -11 -8 -36 -14 -56 -14 -19 -1
-53 -8 -75 -16 -22 -9 -46 -16 -52 -16 -7 -1 -13 -5 -13 -10 0 -4 -9 -8 -20
-8 -11 0 -20 -4 -20 -8 0 -5 -10 -13 -23 -19 -17 -8 -25 -7 -36 4 -8 9 -16 11
-20 5 -3 -5 -17 -13 -31 -17 -14 -4 -38 -18 -53 -31 -16 -13 -33 -24 -39 -24
-6 0 -8 -3 -4 -7 9 -10 -65 -83 -77 -76 -6 3 -7 1 -4 -4 4 -6 -8 -24 -26 -40
-76 -67 -107 -132 -69 -148 23 -10 70 -16 55 -7 -8 5 -4 15 13 31 32 31 30 23
-11 -59 -19 -38 -35 -77 -35 -86 0 -9 -9 -18 -21 -21 -12 -4 -16 -9 -10 -12 8
-5 7 -22 -4 -58 -40 -135 -51 -354 -25 -486 12 -60 13 -137 1 -119 -4 7 -6 25
-4 40 3 19 2 23 -5 14 -7 -11 -10 -9 -15 7 -3 12 -1 24 4 27 5 3 9 11 8 17 0
9 -2 9 -6 0 -19 -48 -42 40 -54 209 -4 68 -9 128 -10 135 -4 20 -48 21 -70 2
-18 -15 -22 -30 -22 -84 0 -36 -3 -65 -6 -65 -10 0 -7 -105 3 -112 12 -8 14
-18 24 -138 5 -53 16 -109 25 -127 10 -18 17 -38 17 -46 0 -8 9 -43 21 -78 11
-35 22 -68 23 -74 1 -5 5 -16 9 -22 5 -7 6 -13 3 -13 -4 0 7 -19 24 -42 31
-42 39 -65 18 -52 -7 4 -8 3 -4 -5 4 -6 11 -9 16 -6 8 5 25 -23 22 -37 -3 -12
13 -9 27 5 11 10 13 10 7 0 -4 -7 -2 -13 3 -13 6 0 11 -4 11 -10 0 -5 -13 -10
-30 -10 -39 0 -38 -10 5 -39 19 -13 32 -28 28 -34 -3 -6 -1 -7 6 -3 6 4 14 1
17 -8 3 -8 12 -12 20 -9 8 3 14 -1 14 -8 0 -7 3 -9 7 -6 3 4 11 2 18 -3 6 -5
34 -10 61 -11 56 -2 88 -15 78 -31 -4 -7 -3 -8 5 -4 6 4 9 12 6 17 -4 5 1 9
10 9 9 0 14 -4 11 -9 -4 -5 0 -11 6 -14 8 -3 3 -9 -12 -15 -14 -6 -20 -11 -14
-11 5 -1 10 -17 11 -36 1 -22 -3 -33 -10 -28 -6 4 -7 1 -3 -6 5 -7 11 -10 14
-7 3 3 13 -7 23 -23 12 -19 28 -31 53 -35 20 -4 35 -10 32 -14 -2 -4 3 -8 12
-9 55 -4 88 -9 97 -15 6 -3 31 -9 57 -13 26 -4 46 -11 43 -15 -3 -5 5 -6 17
-2 16 4 19 2 13 -8 -5 -9 -4 -11 4 -6 6 4 21 4 33 0 21 -6 21 -7 3 -20 -14
-10 -22 -11 -32 -2 -11 9 -13 8 -11 -3 2 -8 11 -20 20 -27 10 -7 15 -19 11
-29 -5 -12 -2 -15 10 -10 9 3 19 1 23 -5 4 -7 9 -6 15 3 5 8 9 10 9 4 0 -11
10 -11 200 -15 88 -1 141 3 178 13 40 12 52 12 49 3 -3 -7 6 -13 22 -14 20 -1
40 10 73 40 25 24 57 51 69 60 27 18 133 107 193 159 21 19 65 62 99 96 33 34
65 60 70 56 6 -3 7 -2 4 4 -4 6 8 28 26 49 78 93 131 211 188 419 19 70 20 86
9 128 -12 49 -7 97 10 97 15 0 12 40 -3 46 -9 3 -13 17 -11 37 7 68 5 187 -2
199 -5 7 -9 45 -10 84 -2 73 -18 150 -36 171 -22 28 -46 86 -41 101 4 13 3 14
-5 3 -7 -10 -16 -6 -42 23 -18 19 -37 33 -42 30 -11 -7 -6 -42 10 -71 6 -11
13 -36 14 -55 3 -31 1 -33 -27 -30 -16 2 -35 10 -41 18 -6 8 -18 12 -26 9 -9
-4 -27 10 -49 36 -19 24 -46 56 -61 71 -16 16 -28 31 -28 34 0 6 62 -38 71
-50 4 -5 17 -10 30 -11 22 -3 24 0 21 40 -2 24 -12 52 -21 62 -10 10 -22 25
-27 34 -5 9 -36 39 -69 68 -33 29 -80 72 -105 95 -25 23 -62 55 -83 70 -21 16
-34 32 -30 35 14 9 9 33 -7 41 -34 17 -77 26 -92 21 -15 -6 -15 -8 0 -26 9
-11 23 -20 31 -20 8 0 16 -5 18 -12 4 -12 -14 -12 -35 1 -32 20 -194 44 -333
50 -28 1 -53 9 -63 19 -17 17 -68 20 -141 10z m206 -215 c0 -10 2 -10 6 0 6
15 63 16 63 1 0 -8 4 -8 14 1 19 15 62 9 58 -9 -3 -12 0 -12 13 -1 13 11 14
10 9 -5 -6 -15 -4 -15 14 -4 17 11 27 10 59 -4 21 -9 48 -19 61 -22 23 -7 31
-25 11 -25 -16 0 -93 23 -99 30 -9 10 -30 10 -30 0 0 -6 -10 -8 -23 -5 -45 12
-62 12 -79 4 -9 -5 -19 -5 -22 -1 -6 10 -88 8 -126 -2 -21 -5 -22 -5 -5 3 19
9 19 10 -2 10 -13 1 -23 -3 -23 -7 0 -10 52 -56 67 -59 63 -12 68 -12 50 1
-17 13 -16 14 3 19 11 3 18 2 15 -3 -3 -4 2 -10 9 -13 8 -3 16 -1 19 6 2 8 11
6 30 -6 14 -9 35 -17 46 -17 11 0 46 -12 78 -26 37 -16 68 -23 85 -20 15 3 53
-3 85 -14 67 -23 73 -23 73 -10 0 12 -52 60 -65 60 -5 0 -3 -5 5 -10 8 -5 11
-10 5 -10 -19 1 -86 58 -75 65 14 9 136 -60 132 -75 -1 -6 2 -9 7 -6 16 10 86
-51 153 -135 33 -41 36 -49 23 -59 -12 -10 -21 -10 -40 -2 -14 7 -25 8 -25 3
0 -5 -14 -11 -30 -15 -36 -7 -61 -49 -41 -69 10 -9 12 -9 9 3 -2 12 11 15 72
17 41 0 66 -1 56 -4 -11 -3 -26 -11 -34 -19 -17 -18 -56 -19 -46 -1 4 6 -3 2
-14 -10 -12 -12 -39 -25 -59 -29 -65 -11 -70 -12 -120 -19 -68 -10 -79 -18
-58 -38 19 -19 54 -22 104 -7 26 7 39 6 55 -5 11 -8 15 -15 8 -15 -10 0 -9 -5
3 -16 12 -12 13 -19 4 -30 -6 -8 -18 -14 -25 -14 -15 0 -19 -22 -6 -34 4 -4 7
-11 8 -14 3 -21 18 -42 30 -42 8 0 14 -7 14 -15 0 -12 3 -13 13 -5 6 6 26 19
43 29 25 15 31 26 32 57 1 24 8 44 19 51 20 15 73 17 73 3 0 -5 -4 -10 -10
-10 -5 0 -10 -5 -10 -11 0 -5 4 -8 9 -4 5 3 12 1 16 -5 3 -5 15 -10 26 -10 12
0 19 -7 19 -20 0 -12 7 -34 15 -50 8 -16 11 -31 6 -35 -5 -3 -12 3 -15 12 -3
10 -4 7 -3 -7 2 -14 8 -24 15 -22 7 1 20 -5 29 -14 11 -11 27 -14 50 -11 19 3
33 2 33 -4 0 -6 -19 -10 -42 -9 -24 1 -47 1 -53 0 -5 -1 -13 -2 -17 -1 -5 0
-7 -2 -6 -7 0 -4 -3 -16 -7 -26 -6 -13 -4 -21 3 -24 8 -2 10 -15 6 -37 -3 -19
-1 -35 5 -39 14 -9 14 -102 1 -181 -6 -33 -15 -91 -20 -130 -10 -67 -41 -122
-61 -109 -5 3 -9 -1 -9 -8 0 -7 -51 -60 -112 -118 -77 -72 -118 -104 -132
-102 -14 1 -17 -1 -9 -6 15 -10 -97 -96 -146 -113 -17 -6 -31 -15 -31 -20 0
-17 -60 -39 -108 -39 -40 0 -49 3 -48 16 1 11 -10 17 -34 21 -61 7 -144 3
-151 -9 -4 -6 -12 -7 -19 -3 -8 5 -11 4 -7 -2 4 -6 -6 -16 -21 -22 -23 -11
-29 -10 -43 8 -22 27 -120 93 -127 86 -3 -2 -12 1 -20 7 -8 7 -24 17 -36 23
-13 7 -20 19 -19 33 2 12 -2 22 -8 22 -5 0 -8 -4 -4 -9 3 -5 1 -12 -5 -16 -9
-6 -14 14 -11 43 1 8 -7 11 -24 8 -17 -3 -28 0 -32 10 -3 8 -12 14 -21 14 -13
0 -12 3 4 21 10 11 14 20 9 19 -25 -5 -33 3 -33 35 0 45 -38 105 -129 203 -40
42 -73 83 -73 90 0 6 -8 12 -17 12 -9 0 -14 3 -10 6 3 3 1 18 -4 32 -19 58
-28 166 -17 212 12 49 26 73 38 65 16 -10 79 173 77 223 -1 12 -7 22 -14 22
-7 0 -13 6 -13 13 0 8 -3 7 -9 -3 -11 -16 -4 -33 10 -25 5 4 9 1 9 -4 0 -6 -9
-11 -20 -11 -11 0 -20 5 -20 10 0 6 -6 10 -14 10 -15 0 -10 49 5 51 5 1 13 2
18 3 11 1 26 15 27 24 5 43 20 84 40 108 18 21 22 23 15 7 -6 -12 -11 -32 -11
-45 l0 -23 20 25 c11 14 33 44 49 68 23 33 31 40 38 28 5 -9 17 -12 36 -9 29
6 38 33 11 33 -11 0 -4 13 22 40 36 38 58 47 163 66 7 1 37 17 65 35 28 18 65
39 81 48 17 9 31 19 33 22 2 4 13 5 25 2 16 -3 18 -2 8 5 -7 5 -11 14 -7 20 3
6 -23 9 -73 8 -44 -1 -77 2 -75 6 11 17 87 49 120 51 19 1 34 5 34 9 0 17 80
23 81 6z"/>
<path d="M5832 5388 c-2 -11 -9 -15 -24 -11 -19 4 -20 3 -8 -6 8 -6 10 -11 4
-11 -6 0 -11 -6 -11 -12 -1 -41 -38 -159 -64 -207 -30 -56 -85 -123 -111 -135
-7 -3 5 -4 28 -2 33 3 49 12 82 47 43 45 79 108 87 150 3 13 8 40 11 59 4 19
10 40 13 45 4 6 4 30 0 55 -3 25 -7 38 -7 28z"/>
<path d="M4625 4540 c-3 -4 -14 -6 -25 -3 -18 5 -19 2 -12 -18 5 -13 19 -29
31 -35 28 -15 48 -34 35 -34 -18 0 -15 -47 4 -53 9 -3 36 -13 60 -21 46 -17
92 -12 92 10 0 8 -3 14 -7 15 -53 4 -79 12 -86 25 -6 11 -17 14 -33 10 -17 -5
-22 -3 -18 7 3 8 17 15 32 16 90 5 102 7 102 19 0 6 -4 13 -10 13 -5 1 -13 3
-17 4 -5 1 -23 6 -40 10 -19 4 -30 12 -26 18 3 6 1 7 -6 3 -6 -4 -25 -1 -41 8
-16 8 -32 11 -35 6z"/>
<path d="M3277 6767 c-9 -6 -50 -56 -90 -110 -113 -150 -213 -364 -223 -477
-3 -30 -11 -75 -19 -100 -8 -25 -17 -62 -21 -83 -3 -21 -13 -44 -21 -52 -18
-18 -9 -35 15 -28 12 3 25 25 36 61 10 31 24 73 32 93 7 20 10 39 7 43 -11 11
68 234 121 338 29 57 83 153 120 212 67 104 77 129 43 103z"/>
<path d="M3491 6733 c-23 -27 -38 -40 -35 -30 3 9 1 17 -4 17 -6 0 -9 -10 -7
-22 3 -12 -1 -29 -9 -37 -17 -21 -47 -83 -36 -76 5 3 13 -2 18 -11 6 -11 16
-14 31 -9 13 4 20 9 17 12 -9 9 14 44 25 38 5 -4 9 -1 9 6 0 7 2 10 5 7 3 -3
-12 -41 -34 -84 -50 -103 -91 -200 -91 -218 0 -8 -6 -17 -12 -19 -10 -4 -10
-6 0 -6 6 -1 12 -11 12 -23 1 -14 10 0 25 37 45 109 160 312 200 352 8 7 17
22 20 34 6 17 9 18 23 7 15 -11 15 -11 5 3 -7 9 -10 18 -8 21 3 3 -13 0 -36
-6 -31 -8 -48 -20 -62 -43 -10 -18 -23 -33 -29 -33 -5 0 -1 14 9 30 9 17 21
30 25 30 4 0 8 5 8 11 0 5 -4 8 -8 5 -5 -3 -9 1 -9 9 0 8 5 12 10 8 5 -3 4 4
-2 16 -7 11 -13 21 -15 21 -2 0 -22 -21 -45 -47z"/>
<path d="M3317 6013 c-4 -3 -7 -15 -7 -25 0 -10 -3 -18 -7 -18 -5 0 -9 -10 -9
-22 -2 -29 -35 -151 -43 -158 -3 -3 -7 -16 -8 -30 0 -14 -4 -54 -8 -90 -8 -75
0 -84 79 -99 l44 -8 -4 76 c-16 390 -17 395 -37 374z"/>
<path d="M7079 5009 c-15 -8 -28 -39 -34 -79 -1 -8 -10 -42 -21 -75 -10 -33
-18 -62 -19 -65 -1 -3 -11 -36 -22 -75 -12 -38 -25 -91 -28 -117 -5 -38 -9
-46 -23 -42 -14 5 -14 4 -3 -4 13 -9 11 -21 -14 -81 -15 -40 -32 -68 -38 -64
-6 3 -7 1 -3 -5 3 -6 -1 -18 -10 -26 -8 -9 -13 -16 -9 -16 3 0 1 -9 -5 -20 -9
-17 -8 -20 7 -20 25 0 85 38 78 49 -3 5 3 29 14 53 10 25 38 111 61 193 23 82
55 174 70 205 36 69 47 138 28 173 -10 20 -17 24 -29 16z"/>
<path d="M5373 3186 c5 -11 -8 -16 -58 -21 -36 -4 -71 -5 -79 -2 -9 4 -18 2
-20 -2 -7 -11 -114 -12 -122 0 -3 5 -12 9 -20 9 -8 0 -13 -4 -10 -8 3 -5 -8
-19 -25 -31 -33 -24 -32 -36 6 -43 13 -3 22 -2 20 2 -2 4 55 12 128 19 166 15
208 21 230 32 25 14 21 22 -19 42 -30 14 -35 15 -31 3z"/>
<path d="M6661 8831 c-13 -10 -21 -23 -18 -28 6 -10 194 -105 200 -101 1 1 13
-5 27 -13 26 -14 120 -21 120 -9 0 4 -12 16 -26 26 -15 10 -44 34 -66 52 -22
17 -52 35 -67 38 -14 3 -44 14 -66 24 -67 29 -79 31 -104 11z"/>
<path d="M6871 8619 c-1 -11 -12 -16 -36 -17 -21 -1 -33 3 -30 8 7 12 -55 1
-72 -13 -20 -15 -15 -27 11 -27 14 0 28 -4 31 -10 3 -5 23 -10 43 -10 28 0 33
-3 22 -10 -13 -8 -12 -10 3 -10 9 0 17 4 17 9 0 13 40 1 70 -21 14 -10 54 -29
90 -44 36 -14 67 -30 70 -34 3 -4 11 -2 18 6 7 8 9 14 3 14 -5 0 -7 9 -4 21 4
14 -1 25 -16 35 -12 9 -18 20 -15 26 4 6 2 8 -4 4 -6 -3 -36 12 -68 34 -44 31
-60 37 -75 30 -23 -13 -42 -9 -51 10 -6 13 -7 13 -7 -1z"/>
<path d="M2511 8214 c-8 -10 -12 -29 -8 -53 2 -21 0 -46 -5 -55 -16 -29 -48
-200 -39 -209 16 -16 49 12 66 58 10 25 21 45 24 45 4 0 13 20 20 45 7 25 16
43 20 41 3 -2 6 11 6 31 0 22 -6 38 -17 44 -10 6 -18 21 -18 33 0 13 -7 27
-16 30 -19 7 -16 8 -33 -10z"/>
<path d="M7746 7748 c4 -7 32 -41 62 -75 32 -38 51 -67 46 -74 -4 -7 -3 -9 3
-6 6 4 25 -14 42 -38 18 -25 30 -45 28 -45 -3 0 8 -14 25 -32 33 -35 60 -82
53 -92 -3 -3 -2 -4 2 -1 7 5 54 -59 53 -72 -1 -10 41 -21 58 -15 19 7 5 59
-23 91 -70 78 -144 178 -140 188 2 7 -2 10 -10 7 -15 -6 -39 29 -27 41 4 3 2
5 -5 3 -6 -1 -41 27 -76 65 -36 37 -72 67 -82 67 -10 0 -13 -5 -9 -12z"/>
<path d="M7985 3266 c20 -15 20 -15 -2 -10 -19 5 -21 3 -16 -18 4 -18 3 -20
-6 -8 -8 11 -10 7 -5 -17 5 -25 3 -34 -10 -39 -9 -3 -16 -12 -16 -20 0 -7 -10
-20 -22 -29 -13 -8 -22 -18 -20 -20 7 -14 0 -15 -14 -1 -16 17 -34 13 -34 -7
0 -8 3 -8 9 2 6 9 11 10 15 2 4 -6 -9 -30 -28 -53 -28 -32 -36 -50 -36 -80 0
-23 4 -37 10 -33 5 3 2 -8 -8 -24 -9 -17 -22 -31 -29 -31 -6 0 -15 -5 -19 -12
-4 -7 -3 -8 4 -4 7 4 12 2 12 -3 0 -6 -4 -11 -8 -11 -12 0 -33 -50 -26 -61 8
-13 16 -6 66 53 23 29 37 49 31 44 -7 -4 -13 -3 -13 3 0 5 5 13 10 16 6 3 10
14 10 24 0 22 33 54 45 44 4 -5 5 -3 2 4 -6 10 57 159 73 173 3 3 13 18 23 33
10 15 21 26 25 23 4 -2 7 12 7 32 0 32 -3 37 -25 40 -24 3 -25 3 -5 -12z"/>
</g>
</svg>
