<?xml version="1.0" standalone="no"?>
<!DOCTYPE svg PUBLIC "-//W3C//DTD SVG 20010904//EN"
 "http://www.w3.org/TR/2001/REC-SVG-20010904/DTD/svg10.dtd">
<svg version="1.0" xmlns="http://www.w3.org/2000/svg"
 width="1024.000000pt" height="1024.000000pt" viewBox="0 0 1024.000000 1024.000000"
 preserveAspectRatio="xMidYMid meet">
<metadata>
Created by potrace 1.16, written by Peter Selinger 2001-2019
</metadata>
<g transform="translate(0.000000,1024.000000) scale(0.100000,-0.100000)"
fill="#000000" stroke="none">
<path d="M4845 9612 c-16 -9 -32 -20 -33 -25 -2 -4 -9 -4 -14 -1 -6 4 -8 3 -5
-3 7 -12 -50 -60 -108 -91 -75 -41 -148 -72 -156 -66 -5 3 -9 0 -9 -7 0 -7 -3
-9 -7 -6 -3 4 -12 -2 -20 -13 -8 -11 -19 -20 -25 -20 -6 0 -16 -8 -23 -17 -14
-19 -45 -26 -45 -10 0 6 -6 3 -13 -7 -7 -9 -19 -18 -27 -20 -28 -6 -50 -18
-45 -26 8 -12 -23 -33 -36 -24 -7 4 -9 3 -5 -4 3 -6 2 -13 -4 -17 -5 -3 -10 0
-10 8 0 17 -45 31 -63 20 -7 -4 -15 -8 -19 -8 -3 0 -10 -4 -15 -9 -5 -5 -2 -6
7 -2 8 4 4 -2 -10 -13 -14 -12 -31 -26 -37 -31 -21 -17 -15 4 7 28 l21 22 -27
0 c-18 0 -40 -13 -66 -40 -22 -22 -43 -38 -48 -35 -4 3 -10 -1 -13 -9 -3 -8
-21 -22 -40 -31 -38 -18 -97 -71 -97 -88 0 -6 -3 -7 -6 -4 -4 4 -15 -8 -24
-26 -14 -25 -24 -32 -46 -30 -16 1 -21 -1 -11 -4 20 -5 23 -33 3 -33 -8 0 -19
-13 -24 -29 -9 -24 -15 -28 -33 -24 -14 4 -20 2 -16 -5 4 -5 1 -13 -5 -15 -10
-4 -10 -6 0 -6 6 -1 12 -5 12 -11 0 -5 -6 -9 -12 -7 -7 1 -14 -10 -16 -25 -2
-16 -11 -30 -23 -33 -11 -4 -17 -11 -14 -16 4 -5 1 -9 -5 -9 -6 0 -8 -4 -5
-10 3 -5 1 -10 -5 -10 -7 0 -9 7 -6 16 4 10 1 14 -6 12 -7 -3 -13 -17 -13 -31
-1 -15 -7 -33 -14 -39 -8 -7 -11 -8 -8 -2 3 6 -1 11 -9 11 -10 0 -11 -4 -4
-11 15 -15 12 -39 -4 -33 -8 3 -20 -2 -28 -11 -9 -11 -10 -14 0 -8 20 12 14
-5 -9 -25 -11 -9 -20 -20 -19 -24 0 -3 -6 -13 -15 -22 -15 -14 -16 -13 -10 13
3 16 2 23 -1 17 -3 -7 -18 -13 -32 -13 -21 0 -24 2 -12 10 13 8 12 10 -2 10
-20 0 -24 -15 -8 -25 14 -9 12 -22 -3 -22 -7 0 -14 9 -14 20 -3 27 -11 33 -26
17 -9 -10 -9 -11 1 -6 7 4 12 1 12 -7 0 -9 -10 -14 -26 -14 -15 0 -30 -6 -34
-12 -5 -9 -11 -8 -23 3 -14 15 -17 15 -26 -1 -9 -14 -10 -11 -5 17 5 36 -4 38
-11 1 -2 -11 -7 -26 -10 -31 -3 -6 -3 -19 0 -31 5 -15 12 -18 27 -13 18 5 20
3 15 -14 -3 -13 1 -26 11 -34 9 -8 13 -8 9 -2 -4 7 2 13 16 16 16 3 24 0 24
-9 0 -8 -7 -11 -14 -9 -8 3 -11 1 -8 -4 6 -10 -91 -110 -107 -110 -5 0 -22
-14 -38 -30 -20 -20 -39 -30 -57 -29 -29 1 -67 -6 -82 -15 -5 -4 -8 2 -6 11 2
10 4 24 4 31 1 7 5 10 11 7 5 -3 18 8 29 25 12 21 21 27 24 18 3 -7 6 -3 6 10
1 23 20 32 22 10 0 -7 5 1 11 17 13 36 46 75 65 75 17 0 17 17 1 23 -16 5 -76
-21 -104 -45 -11 -10 -26 -18 -33 -18 -7 0 -10 -4 -7 -8 3 -5 -24 -39 -59 -75
-36 -37 -59 -67 -53 -67 18 0 3 -10 -22 -15 -27 -5 -80 -53 -80 -72 0 -7 -7
-13 -15 -13 -8 0 -15 -4 -15 -10 0 -5 4 -10 10 -10 5 0 2 -9 -7 -19 -9 -11
-21 -17 -27 -14 -6 3 -6 0 1 -7 8 -8 9 -19 3 -30 -5 -9 -11 -27 -13 -41 -2
-13 -7 -32 -12 -41 -4 -10 -5 -24 -2 -31 3 -8 1 -35 -5 -61 -5 -26 -8 -49 -5
-52 9 -9 37 9 37 23 0 8 6 13 13 10 10 -4 13 7 13 37 1 58 22 119 40 112 8 -3
14 -2 14 2 0 4 12 8 28 8 15 1 35 4 45 9 12 5 17 3 15 -5 -2 -7 3 -15 11 -18
8 -2 11 0 8 6 -4 5 0 15 8 22 21 17 19 1 -5 -37 -11 -19 -15 -33 -9 -33 8 0 8
-4 0 -13 -7 -9 -7 -17 -1 -23 7 -7 5 -17 -5 -30 -13 -17 -14 -17 -15 -1 0 9 6
17 13 17 8 0 7 4 -3 10 -24 16 -28 12 -25 -25 3 -27 -1 -38 -16 -46 -11 -5
-24 -7 -29 -4 -6 3 -10 1 -10 -4 0 -6 5 -11 12 -11 6 0 4 -6 -7 -13 -10 -8
-15 -19 -11 -25 3 -6 1 -14 -5 -18 -8 -5 -9 -3 -4 7 5 8 4 11 -1 6 -5 -5 -9
-36 -9 -70 0 -57 -21 -127 -36 -127 -4 0 -12 -14 -18 -31 -6 -17 -15 -28 -21
-24 -6 4 -13 -7 -16 -24 -4 -17 -10 -31 -15 -31 -5 0 -9 -5 -9 -11 0 -5 4 -8
9 -5 9 6 26 -22 23 -36 -1 -5 2 -8 8 -8 15 0 12 -37 -4 -43 -10 -4 -13 -18
-10 -44 4 -46 -4 -76 -19 -70 -7 3 -13 -8 -14 -26 -1 -17 -7 -33 -12 -37 -6
-3 -6 -11 -1 -19 10 -17 2 -77 -14 -106 -16 -30 -14 -65 3 -65 8 0 11 -3 8 -7
-4 -3 -2 -12 3 -18 8 -9 4 -14 -14 -19 -19 -5 -25 -14 -30 -51 -9 -54 -3 -65
32 -65 21 0 24 -2 12 -10 -10 -6 -11 -10 -2 -10 6 0 12 -7 12 -15 0 -8 6 -15
13 -15 9 0 8 -3 -2 -9 -9 -6 -10 -11 -2 -15 6 -4 11 -16 11 -27 0 -11 7 -22
15 -25 8 -4 13 -10 10 -14 -3 -4 4 -10 15 -13 16 -4 20 0 20 19 0 24 25 84 36
84 2 0 0 -9 -6 -19 -9 -19 -9 -19 21 -4 22 11 28 18 20 26 -14 14 -14 30 -1
22 5 -3 8 0 5 7 -3 7 -1 19 4 27 12 19 65 6 57 -15 -3 -8 -1 -25 4 -39 7 -20
6 -25 -5 -25 -8 0 -15 -4 -15 -9 0 -5 10 -7 21 -4 16 4 20 2 17 -8 -3 -8 -13
-13 -22 -13 -13 2 -14 -1 -5 -12 9 -11 8 -14 -1 -14 -8 0 -11 -2 -8 -5 8 -9
38 6 32 16 -3 5 2 9 11 9 25 0 14 -34 -13 -38 -26 -4 -30 -20 -4 -18 10 0 16
-5 14 -13 -3 -12 0 -12 12 -2 13 11 16 7 23 -31 4 -23 7 -56 6 -73 -1 -20 1
-25 7 -15 5 8 7 17 4 21 -2 4 0 10 6 14 5 3 10 1 10 -6 0 -6 8 -18 18 -25 16
-13 16 -14 -2 -8 -16 6 -17 4 -7 -14 7 -12 8 -22 4 -22 -4 0 -1 -5 7 -10 8 -5
24 -7 35 -5 11 3 14 2 8 -1 -18 -8 -16 -27 2 -21 8 4 17 2 20 -4 4 -5 10 -7
15 -4 5 3 11 1 14 -4 4 -5 2 -12 -4 -16 -15 -9 -2 -25 15 -19 8 3 19 -4 26
-18 11 -21 11 -22 -5 -9 -15 13 -19 13 -27 0 -8 -13 -13 -5 -10 15 1 5 -6 6
-15 2 -13 -5 -15 -2 -11 13 10 39 -20 30 -32 -10 -7 -22 -18 -39 -26 -39 -8 0
-15 -9 -15 -21 0 -11 -4 -18 -10 -14 -5 3 -7 12 -3 20 3 9 -1 15 -11 15 -19 0
-20 5 -5 31 6 12 7 28 4 37 -6 15 -8 15 -15 -3 -7 -16 -9 -17 -9 -3 -1 9 -10
23 -21 31 -11 8 -17 17 -13 20 10 10 -8 7 -47 -8 -19 -7 -29 -14 -23 -14 16
-1 49 -73 58 -123 3 -23 11 -38 20 -38 9 0 12 -6 9 -15 -4 -9 0 -15 10 -15 9
0 16 -7 16 -16 0 -8 5 -12 11 -8 8 4 9 -1 4 -16 -6 -18 -4 -22 8 -17 9 3 14 0
13 -11 0 -9 5 -16 12 -14 8 1 11 -2 7 -7 -3 -6 -13 -8 -23 -5 -10 3 -8 0 5 -8
17 -10 20 -17 11 -32 -8 -14 -7 -17 1 -12 7 4 11 0 11 -13 0 -10 -6 -22 -12
-24 -7 -3 -4 -6 8 -6 11 -1 27 -12 35 -27 13 -25 12 -28 -19 -55 -31 -28 -41
-49 -23 -49 6 0 13 5 16 11 5 6 11 4 19 -7 10 -13 15 -14 21 -4 5 8 4 11 -3 6
-6 -4 -10 1 -9 13 1 15 4 17 14 9 7 -6 10 -20 7 -33 -4 -17 0 -24 18 -29 19
-5 20 -8 8 -15 -8 -5 -17 -8 -21 -5 -4 2 -4 -8 0 -23 4 -14 14 -27 23 -29 11
-1 15 3 11 12 -7 19 17 14 35 -6 8 -8 11 -10 8 -4 -7 15 30 48 44 39 7 -4 10
-16 7 -26 -5 -20 17 -27 28 -9 7 11 45 -24 45 -42 0 -9 4 -8 10 2 9 13 10 13
10 0 0 -9 -5 -21 -11 -27 -8 -8 -8 -13 0 -17 6 -4 11 -2 11 3 0 6 7 11 15 11
8 0 15 -5 15 -11 0 -7 24 -10 69 -7 38 1 73 0 77 -4 3 -4 15 -3 25 3 12 6 19
6 19 0 0 -5 9 -13 20 -16 11 -3 20 -13 20 -21 0 -8 7 -14 15 -14 10 0 13 -9
10 -31 -3 -23 0 -29 10 -25 9 3 15 -3 17 -17 2 -12 9 -21 15 -20 6 1 17 -4 23
-12 7 -8 19 -15 26 -15 16 0 19 -26 4 -35 -6 -4 -17 -2 -24 4 -9 7 -16 7 -24
-1 -8 -8 -12 -8 -12 -1 0 13 -49 8 -64 -7 -8 -8 -6 -14 7 -21 18 -10 24 -39 8
-39 -5 0 -8 -11 -7 -24 0 -13 3 -23 6 -21 3 1 16 -1 29 -6 19 -8 21 -12 11
-24 -10 -13 -9 -19 6 -36 16 -18 27 -20 67 -16 29 4 45 2 42 -3 -4 -6 5 -10
19 -10 14 0 26 -4 26 -10 0 -5 9 -10 21 -10 13 0 18 4 13 13 -6 10 -4 10 7 0
7 -7 22 -13 33 -13 17 0 18 -2 6 -10 -20 -12 -9 -21 18 -13 15 3 22 13 22 29
0 13 3 23 8 23 4 -1 9 -1 12 1 27 10 50 8 50 -5 0 -8 8 -15 18 -15 9 0 24 -6
33 -13 20 -15 33 -64 18 -72 -6 -4 -8 -13 -5 -21 3 -7 -3 -21 -12 -30 -9 -10
-16 -20 -14 -23 1 -3 -7 -7 -18 -7 -11 -1 -17 3 -14 7 3 5 -6 13 -20 19 -14 5
-26 16 -26 25 0 8 -7 15 -16 15 -9 0 -24 10 -35 23 -18 22 -19 22 -24 2 -5
-17 -13 -20 -46 -17 -21 2 -39 9 -39 15 0 6 -6 4 -12 -5 -16 -20 -103 -35 -92
-16 6 10 5 10 -7 2 -15 -13 -100 -24 -93 -12 2 3 0 9 -6 13 -5 3 -10 -3 -10
-14 0 -12 -6 -21 -12 -21 -10 0 -10 -2 0 -9 10 -6 10 -10 -3 -21 -16 -13 -22
-55 -6 -46 13 8 29 -16 25 -39 -2 -18 -2 -19 10 -3 12 16 14 16 29 -2 16 -19
14 -19 -56 -19 -72 0 -147 16 -147 30 0 4 -9 11 -20 14 -11 3 -20 13 -20 21 0
10 -9 13 -34 8 -20 -3 -49 1 -71 11 -47 19 -62 19 -82 -1 -9 -8 -22 -13 -30
-10 -8 3 -26 6 -40 6 -17 0 -23 4 -20 13 4 10 -1 13 -17 10 -13 -3 -29 3 -40
16 -11 12 -25 21 -32 21 -7 0 -15 6 -17 13 -4 7 -6 6 -6 -5 -1 -11 -7 -15 -21
-11 -11 3 -20 10 -20 15 0 6 -6 6 -14 -1 -11 -9 -21 -7 -48 9 -34 21 -78 27
-78 11 0 -5 -3 -16 -6 -25 -4 -11 -1 -16 10 -16 9 0 19 -7 22 -15 4 -8 12 -15
18 -15 7 0 25 -13 41 -30 15 -16 32 -27 37 -24 4 3 8 -2 8 -10 0 -8 8 -20 18
-25 15 -9 15 -10 -5 -11 -12 0 -24 6 -26 13 -3 7 -6 5 -6 -5 -1 -24 -47 -34
-85 -19 -17 7 -36 13 -43 14 -7 0 -10 4 -7 9 6 10 6 10 -33 -1 -31 -9 -57 2
-31 12 8 3 6 6 -5 6 -10 1 -15 6 -12 11 3 6 -3 10 -15 10 -12 0 -18 -4 -15
-10 3 -5 1 -10 -6 -10 -8 0 -8 -5 2 -17 12 -16 11 -16 -8 0 -12 10 -24 30 -27
43 -5 19 -11 24 -26 19 -16 -5 -19 -3 -13 11 5 14 3 16 -11 11 -13 -5 -17 -3
-14 10 3 17 21 23 73 27 25 1 31 7 33 29 2 15 -2 27 -8 27 -6 0 -9 4 -5 10 3
5 -7 3 -22 -5 -24 -13 -29 -13 -36 0 -4 8 -16 15 -26 15 -9 0 -26 6 -36 14
-15 11 -17 17 -8 28 10 11 7 14 -13 16 -14 1 -34 7 -46 13 -16 9 -19 8 -12 -3
6 -9 3 -9 -11 2 -27 21 -56 50 -50 50 2 0 -7 11 -20 25 -14 13 -25 29 -25 35
0 6 -6 10 -12 9 -28 -3 -38 2 -38 21 0 13 -9 22 -27 26 -50 11 -55 14 -49 30
8 21 -23 45 -49 38 -19 -5 -19 -4 -2 9 14 11 15 16 5 20 -8 4 -9 8 -3 14 15
12 15 44 1 59 -10 10 -16 10 -26 1 -10 -9 -12 -9 -8 3 4 11 -1 16 -13 17 -11
1 -20 -5 -20 -15 -1 -9 -3 -27 -4 -39 -1 -12 2 -20 7 -17 13 8 37 -26 37 -51
0 -11 -3 -14 -6 -7 -2 6 -8 10 -13 7 -4 -3 -12 1 -18 8 -16 19 -61 147 -51
147 5 0 5 7 2 17 -4 11 -3 14 5 9 7 -4 12 -5 12 -2 0 3 -10 10 -21 17 -17 9
-20 8 -14 -2 5 -8 4 -10 -3 -5 -7 4 -12 14 -12 22 0 8 -9 23 -21 35 -15 15
-19 29 -16 55 3 18 2 32 -2 30 -17 -11 -36 16 -36 51 0 22 -5 37 -11 36 -6 -1
-11 4 -11 12 0 8 4 12 9 8 5 -3 9 8 7 23 -4 52 1 74 15 74 8 0 16 7 18 15 5
23 50 -17 51 -47 3 -36 21 -50 35 -27 9 14 9 19 1 19 -6 0 -8 7 -5 17 4 10 4
14 0 11 -10 -11 -36 20 -33 39 3 35 -1 43 -22 43 -11 0 -17 -5 -14 -10 3 -6
-6 -15 -20 -20 -14 -5 -23 -14 -20 -20 3 -5 -3 -10 -15 -10 -12 0 -19 4 -16 9
4 5 -1 8 -9 7 -18 -3 -32 -16 -17 -16 7 0 12 -5 12 -11 0 -5 -6 -7 -12 -3 -7
4 -5 -2 5 -14 10 -11 17 -29 14 -39 -4 -14 -5 -14 -6 5 -1 12 -7 22 -16 22 -8
0 -15 3 -16 8 -5 40 -4 60 3 56 4 -3 8 4 8 16 0 12 5 18 10 15 6 -4 8 -11 5
-16 -4 -5 5 -9 19 -9 23 0 26 4 26 36 0 19 -4 43 -9 52 -5 9 -10 33 -12 52 -2
19 -7 41 -12 48 -5 6 -6 12 -1 13 5 0 1 4 -9 8 -10 4 -19 11 -19 16 0 6 -9 16
-19 23 -22 15 -26 72 -6 72 7 0 8 3 2 8 -5 4 -18 23 -28 42 -10 19 -13 29 -6
23 26 -25 35 -14 35 42 -1 30 -4 55 -8 55 -7 0 -3 34 7 50 3 6 -1 7 -9 4 -9
-3 -13 -10 -10 -15 3 -5 1 -9 -5 -9 -7 0 -8 21 -4 58 8 79 7 101 -7 128 -8 14
-10 33 -5 51 13 47 14 53 4 53 -6 0 -7 5 -4 10 5 8 11 7 21 -1 8 -6 14 -8 14
-4 0 4 -7 13 -15 19 -17 13 -25 79 -14 115 5 14 11 43 14 64 3 21 9 36 13 33
6 -3 8 37 3 60 0 4 -12 -1 -26 -10 -23 -15 -25 -15 -25 -1 0 9 5 13 10 10 6
-3 13 2 17 11 4 10 2 19 -5 22 -15 5 -16 52 -1 52 5 0 8 4 5 9 -3 5 1 28 9 51
8 24 13 45 11 48 -3 2 0 16 6 31 5 14 12 35 14 46 8 39 38 115 46 115 4 0 8 6
8 13 0 8 9 22 19 31 16 14 18 23 10 49 -7 24 -5 33 6 40 9 4 13 12 10 17 -3 4
5 6 17 4 13 -2 17 -2 11 2 -19 9 -17 48 2 40 12 -4 13 -2 3 14 -11 16 -14 17
-21 5 -4 -8 -13 -15 -18 -15 -6 0 -7 5 -3 12 5 7 3 8 -5 4 -7 -5 -10 -11 -7
-14 8 -8 -46 -42 -56 -36 -5 3 -7 0 -6 -8 2 -7 -3 -12 -10 -10 -6 1 -11 -1
-11 -5 3 -20 -2 -34 -11 -28 -6 3 -10 -3 -10 -14 0 -12 -9 -26 -19 -33 -11 -6
-17 -18 -13 -26 3 -10 1 -13 -6 -8 -8 5 -10 2 -6 -8 4 -9 -6 -26 -23 -42 -15
-15 -22 -24 -14 -19 10 6 12 4 7 -4 -5 -7 -14 -10 -22 -7 -9 3 -14 -2 -14 -14
0 -11 -5 -20 -11 -20 -5 0 -7 -4 -4 -10 3 -5 2 -10 -4 -10 -17 0 -43 -32 -32
-39 7 -4 -1 -19 -19 -39 -21 -23 -27 -39 -24 -58 3 -16 1 -23 -6 -19 -6 4 -7
0 -4 -10 4 -9 -2 -26 -15 -39 -12 -13 -21 -27 -20 -32 5 -28 -4 -56 -31 -89
-20 -25 -28 -45 -24 -57 3 -10 0 -18 -6 -18 -6 0 -8 -5 -5 -10 3 -6 -1 -13
-10 -16 -9 -4 -14 -13 -11 -20 8 -20 -4 -17 -20 4 -12 16 -13 16 -21 -5 -4
-12 -12 -22 -18 -22 -5 -1 -10 -11 -10 -24 0 -16 -5 -22 -20 -20 -20 1 -20 1
-1 -13 18 -13 18 -14 2 -14 -9 0 -15 -4 -11 -9 3 -5 0 -13 -6 -17 -8 -4 -7 -9
2 -15 10 -6 10 -9 2 -9 -7 0 -10 -7 -7 -15 4 -9 0 -15 -10 -15 -9 0 -16 -3
-17 -7 0 -5 -2 -16 -4 -26 -2 -12 1 -17 10 -13 20 7 25 -17 9 -39 -9 -12 -12
-30 -8 -48 3 -16 1 -34 -6 -42 -9 -11 -9 -15 -1 -15 7 0 5 -9 -6 -24 -10 -13
-21 -22 -25 -19 -4 2 -5 -2 -2 -10 3 -8 1 -18 -4 -21 -5 -3 -7 -16 -5 -29 3
-14 -3 -39 -12 -57 -9 -18 -12 -29 -6 -26 6 4 11 2 11 -3 0 -6 -6 -11 -12 -11
-9 0 -8 -4 2 -10 8 -5 10 -10 4 -10 -6 0 -10 -10 -10 -22 1 -13 -4 -23 -11
-23 -6 0 -15 -4 -20 -9 -5 -5 -3 -6 4 -2 8 4 13 1 13 -9 0 -9 -4 -14 -9 -10
-13 7 -25 -14 -25 -46 -1 -15 -8 -35 -17 -45 -9 -11 -19 -27 -22 -37 -4 -11
-12 -15 -18 -11 -8 5 -9 3 -4 -6 5 -8 10 -23 11 -34 2 -12 6 -36 10 -55 5 -23
3 -36 -7 -42 -9 -6 -10 -9 -2 -9 8 0 12 -24 13 -72 2 -111 4 -136 11 -132 8 5
22 -36 19 -56 -1 -8 -6 -18 -12 -21 -5 -3 -2 -9 7 -12 10 -5 14 -3 9 5 -5 7
-3 8 5 4 7 -5 10 -14 8 -20 -3 -7 -1 -19 3 -26 5 -7 4 -24 0 -36 -8 -19 -6
-22 8 -17 9 3 14 3 10 -1 -3 -4 0 -22 7 -41 8 -18 11 -36 7 -40 -4 -4 5 -6 20
-3 15 3 25 2 23 -2 -3 -5 2 -11 11 -14 8 -3 13 -10 10 -15 -4 -5 -2 -11 4 -13
6 -2 11 -19 13 -38 2 -19 6 -40 10 -47 4 -6 3 -14 -3 -18 -5 -3 -10 -12 -10
-18 0 -8 3 -8 9 2 12 18 41 -23 34 -50 -3 -10 -1 -19 5 -19 13 0 46 -96 37
-110 -3 -6 3 -22 14 -36 24 -31 27 -46 7 -38 -8 3 -17 0 -22 -7 -4 -8 -3 -10
5 -5 15 10 43 -20 56 -58 7 -19 17 -30 25 -28 12 3 13 1 3 -9 -15 -15 -18 -63
-3 -54 5 3 10 2 10 -4 0 -6 11 -13 25 -17 14 -3 22 -10 19 -15 -3 -5 1 -6 8
-4 16 6 98 -111 98 -139 0 -11 5 -15 13 -10 10 6 10 4 0 -7 -15 -15 -17 -33
-4 -25 9 6 45 -31 54 -56 3 -10 12 -15 20 -12 8 3 19 -2 26 -9 10 -13 6 -14
-26 -12 -21 2 -32 1 -25 -2 6 -2 12 -12 12 -22 0 -9 5 -22 11 -28 8 -8 8 -13
0 -17 -21 -13 -11 -26 14 -20 16 4 25 2 25 -6 0 -14 26 -41 33 -34 2 3 14 -7
25 -21 15 -19 27 -25 41 -20 16 5 19 2 16 -15 -2 -11 0 -18 5 -15 14 9 41 -7
36 -21 -3 -7 0 -16 6 -20 7 -4 8 -3 4 4 -4 7 -5 12 -2 12 10 0 35 -58 28 -65
-4 -5 -2 -5 4 -2 13 8 87 -77 76 -87 -3 -4 0 -4 8 -1 10 3 22 -7 34 -30 11
-20 25 -34 32 -31 14 6 38 -19 31 -31 -3 -5 3 -10 15 -10 15 -2 18 2 13 15
-18 44 -17 52 10 62 33 13 95 -4 95 -25 0 -9 6 -12 17 -8 9 4 14 2 10 -4 -10
-16 26 -38 61 -37 17 1 32 -3 32 -7 0 -5 7 -9 16 -9 8 0 12 -4 9 -10 -3 -6 4
-10 17 -11 13 0 17 -3 11 -6 -7 -2 -13 -9 -13 -14 0 -4 6 -6 14 -3 7 3 21 -2
30 -11 9 -9 23 -14 31 -11 8 3 14 2 14 -2 -1 -4 -1 -15 0 -26 1 -16 3 -17 18
-5 10 8 14 9 10 2 -4 -6 -2 -15 4 -19 7 -4 9 -3 5 4 -3 6 -2 13 4 17 6 4 8 11
5 16 -9 13 4 11 18 -3 7 -7 12 -20 12 -28 0 -8 6 -14 13 -13 6 2 12 -5 12 -14
0 -9 3 -13 7 -10 3 4 12 2 20 -5 11 -8 12 -7 7 6 -3 9 -1 16 5 16 6 0 11 -8
12 -17 0 -10 3 -13 5 -7 8 19 43 3 61 -27 10 -16 23 -27 29 -25 6 2 17 -4 24
-14 8 -11 18 -16 24 -12 13 8 34 12 62 14 11 0 21 6 21 13 0 7 -7 12 -16 11
-10 -1 -15 6 -13 17 2 9 -3 17 -11 17 -7 0 -23 9 -35 20 -12 12 -22 18 -22 14
0 -4 -12 6 -28 21 -24 25 -82 57 -107 60 -5 0 -9 6 -8 13 2 7 -10 10 -32 8
-24 -1 -35 2 -35 11 0 7 -3 12 -7 11 -18 -5 -82 25 -103 47 -20 22 -21 25 -6
25 10 0 24 7 33 15 8 8 19 13 24 9 5 -3 12 1 15 9 3 9 13 13 25 10 10 -3 16
-9 14 -13 -3 -5 9 -1 27 8 36 18 74 17 97 -1 12 -10 13 -9 7 2 -6 9 -1 8 16
-3 23 -15 81 -27 136 -28 15 0 22 -5 18 -13 -2 -7 2 -16 10 -19 27 -11 37 -7
24 9 -18 21 3 19 31 -4 28 -23 28 -22 -36 -53 -54 -25 -68 -51 -38 -73 10 -8
14 -15 8 -15 -5 0 1 -7 15 -15 14 -8 19 -14 11 -15 -12 0 -12 -3 -3 -12 10
-10 15 -10 22 2 8 13 14 8 12 -11 -1 -3 6 -6 14 -6 8 0 14 4 14 9 0 5 4 6 10
3 18 -11 51 -14 45 -4 -4 5 -1 10 4 10 15 2 23 4 44 14 11 4 23 3 30 -4 6 -6
19 -11 29 -11 10 0 18 -7 18 -15 0 -16 43 -31 59 -20 6 3 11 -2 12 -12 0 -12
4 -9 10 9 11 29 25 36 77 40 19 1 32 8 32 16 0 7 5 10 10 7 15 -9 12 2 -6 30
-15 23 -15 25 0 25 9 0 19 7 22 15 4 8 11 15 18 15 6 0 24 7 40 15 16 9 36 13
44 10 8 -3 16 3 19 14 6 23 34 36 43 21 5 -8 18 -7 45 4 40 17 54 11 55 -24 0
-13 1 -13 10 0 5 8 10 11 10 6 0 -5 7 -3 15 4 12 10 19 10 27 2 9 -9 9 -12 -2
-12 -7 0 -11 -3 -7 -6 11 -12 28 7 18 20 -7 9 -2 22 20 46 20 21 33 29 38 22
10 -17 48 -3 54 19 3 12 11 17 20 13 8 -3 21 2 30 10 9 9 29 16 46 16 22 0 31
5 31 16 0 11 4 14 13 8 11 -8 28 -10 65 -5 6 0 12 6 12 11 0 7 -6 7 -19 0 -13
-7 -22 -7 -26 0 -3 5 -5 10 -3 11 2 0 16 2 31 4 16 2 64 31 109 64 74 57 108
75 93 51 -4 -7 3 -7 20 0 34 13 35 13 35 -6 0 -8 4 -13 9 -10 5 3 12 -1 15 -9
8 -22 -61 -95 -72 -77 -6 9 -12 6 -20 -13 -6 -14 -19 -25 -27 -25 -9 0 -20
-11 -25 -25 -5 -14 -15 -25 -22 -25 -9 0 -9 3 2 11 12 9 12 10 1 7 -8 -3 -17
-10 -19 -16 -3 -10 23 -15 54 -11 4 0 10 -5 14 -12 4 -6 22 -13 39 -14 17 -2
29 1 26 5 -3 4 7 15 21 25 19 12 29 14 37 6 8 -8 6 -11 -8 -11 -10 0 -16 -3
-12 -6 3 -4 -1 -13 -9 -21 -8 -9 -18 -28 -21 -44 -3 -16 -9 -26 -14 -24 -4 3
-10 1 -14 -5 -3 -5 -15 -10 -25 -10 -10 0 -20 -3 -22 -7 -1 -5 -25 -23 -52
-42 -27 -19 -46 -28 -41 -20 6 11 5 12 -6 2 -7 -7 -28 -13 -47 -13 -19 0 -31
-4 -27 -10 3 -5 1 -10 -6 -10 -6 0 -9 -8 -6 -20 3 -11 1 -18 -4 -14 -5 3 -6
-2 -3 -10 7 -19 34 -21 35 -3 0 6 4 2 10 -11 5 -14 13 -20 20 -16 7 4 27 7 46
6 18 -1 33 3 33 9 0 6 4 7 10 4 13 -8 44 15 48 35 7 30 33 60 53 60 16 0 19
-4 14 -22 -4 -13 -11 -27 -16 -33 -5 -5 -9 -17 -9 -27 0 -10 -9 -23 -20 -30
-11 -7 -20 -16 -20 -21 0 -4 5 -5 10 -2 6 3 10 1 10 -4 0 -6 -5 -11 -11 -11
-6 0 -8 -9 -4 -20 4 -12 2 -20 -5 -20 -7 0 -10 -8 -7 -19 3 -14 0 -17 -14 -14
-11 3 -21 -1 -25 -11 -3 -9 -13 -16 -21 -16 -8 0 -11 -5 -8 -10 8 -13 -14 -42
-26 -34 -5 3 -8 2 -7 -3 1 -4 -5 -21 -15 -38 -9 -16 -16 -23 -17 -15 0 13 -1
13 -10 0 -13 -20 -13 -33 0 -25 6 3 10 -2 10 -11 0 -10 3 -14 7 -11 9 9 33
-41 30 -63 -4 -26 -26 -50 -46 -50 -10 0 -17 -9 -18 -20 -2 -25 -62 -102 -73
-95 -5 3 -17 -6 -26 -20 -9 -13 -20 -23 -24 -20 -5 3 -12 0 -16 -6 -4 -8 -3
-9 4 -5 7 4 12 3 12 -2 0 -14 -43 -23 -51 -10 -8 12 -46 -5 -41 -19 2 -4 -2
-9 -9 -12 -6 -2 -9 1 -5 7 5 8 -2 8 -24 1 -16 -6 -33 -15 -36 -20 -3 -5 -14
-9 -25 -9 -10 0 -19 -7 -19 -15 0 -9 6 -12 18 -9 15 5 15 4 1 -5 -10 -7 -29
-6 -59 1 -36 9 -40 13 -24 19 11 5 -7 8 -48 7 -45 -1 -68 -5 -68 -13 0 -6 -19
-15 -42 -21 -36 -7 -43 -13 -40 -30 2 -15 -2 -21 -14 -20 -11 1 -17 -8 -19
-32 -2 -25 1 -32 11 -28 8 3 14 2 14 -3 0 -4 13 -6 30 -3 16 2 27 8 25 13 -3
4 -15 6 -27 4 -35 -7 -7 11 47 30 28 10 55 22 61 27 6 4 15 4 19 0 5 -4 6 -2
2 3 -3 6 -2 17 4 25 6 10 9 11 9 3 0 -7 10 -13 23 -13 16 0 18 -3 9 -9 -18
-11 52 -22 97 -15 46 8 82 -2 75 -21 -4 -8 -1 -15 6 -15 6 0 8 -5 5 -10 -4 -6
-11 -7 -17 -4 -6 4 -8 2 -5 -3 4 -6 0 -16 -8 -23 -8 -7 -15 -9 -15 -5 0 5 -8
1 -18 -8 -10 -10 -22 -14 -27 -10 -4 5 -5 3 -1 -4 11 -20 -14 -26 -39 -9 -22
15 -24 14 -20 -3 3 -15 -2 -19 -21 -16 -15 1 -25 -4 -29 -16 -4 -13 -14 -17
-34 -14 -22 2 -27 -1 -27 -17 1 -30 -25 -42 -70 -33 -21 5 -32 10 -23 12 23 5
31 63 12 83 -12 13 -13 13 -7 -3 6 -16 -7 -21 -53 -20 -7 1 -13 -2 -13 -6 0
-8 -54 -14 -122 -15 -22 0 -33 -3 -25 -8 6 -4 8 -8 2 -9 -5 0 -18 -2 -27 -4
-10 -2 -18 2 -18 8 0 7 -7 3 -16 -8 -12 -16 -16 -17 -23 -6 -5 7 -14 10 -20 6
-7 -4 -18 -1 -26 5 -8 7 -21 10 -30 7 -8 -4 -17 -2 -20 3 -3 5 -16 10 -28 10
-77 1 -73 0 -55 14 9 6 18 20 20 30 2 15 -4 19 -26 20 -15 1 -30 -4 -33 -11
-3 -7 -10 -10 -16 -6 -5 3 -7 1 -3 -5 3 -6 2 -13 -4 -17 -6 -4 -8 -10 -6 -14
3 -4 -5 -14 -18 -21 -27 -14 -44 -52 -20 -43 9 3 14 -2 14 -15 0 -16 5 -20 21
-17 12 3 24 7 27 10 3 2 10 1 16 -4 6 -5 32 -6 58 -2 56 9 74 2 60 -25 -10
-19 -12 -26 -12 -44 0 -5 -12 -10 -27 -10 -21 0 -24 -3 -15 -12 9 -9 5 -14
-21 -23 -25 -8 -34 -8 -42 3 -9 11 -16 11 -40 0 -44 -19 -56 -33 -42 -47 8 -8
8 -11 -1 -11 -7 0 -20 8 -30 18 -23 23 -56 37 -46 19 4 -6 -3 -3 -15 8 l-22
19 10 -27 c8 -20 7 -27 -2 -27 -7 0 -18 -9 -25 -21 -12 -18 -39 -21 -89 -9 0
0 1 10 5 23 5 19 3 20 -10 9 -13 -10 -18 -10 -24 -1 -4 8 -3 9 4 5 7 -4 12 -1
12 8 0 10 6 13 15 10 8 -4 15 -2 15 4 0 18 -33 23 -50 7 -9 -8 -20 -12 -25 -8
-4 5 -5 0 -2 -10 4 -10 3 -16 -2 -12 -5 3 -12 1 -16 -4 -7 -12 -65 7 -65 21 0
6 -6 8 -14 5 -17 -7 -30 20 -13 27 9 3 8 5 -1 5 -7 1 -10 6 -7 11 5 8 11 7 21
-1 12 -10 13 -9 8 6 -5 13 -4 16 4 11 7 -4 12 -2 12 4 0 7 -7 10 -15 6 -8 -3
-15 0 -15 6 0 14 -24 -7 -26 -23 -1 -5 -2 -14 -3 -19 -1 -7 -8 -7 -22 1 -15 8
-18 14 -10 22 19 19 13 23 -26 19 -27 -2 -34 0 -24 6 8 6 21 8 29 4 11 -4 13
-2 7 8 -6 10 -4 12 8 7 10 -3 17 -2 17 3 0 6 15 4 35 -4 19 -8 35 -12 35 -8 0
4 5 -1 11 -10 12 -21 41 -24 33 -5 -5 13 6 17 54 18 24 1 31 19 7 19 -8 0 -15
4 -15 10 0 5 -27 12 -60 16 -33 4 -63 10 -66 15 -2 4 -11 6 -18 3 -8 -3 -16 3
-19 15 -4 15 -10 18 -28 14 -13 -3 -30 -11 -38 -17 -11 -8 -13 -8 -8 1 12 19
-10 25 -49 14 -29 -8 -35 -7 -30 4 4 11 0 12 -18 5 -13 -5 -26 -6 -29 -3 -3 2
-4 -3 -2 -14 2 -10 4 -22 4 -27 1 -4 8 -6 15 -3 10 4 13 1 9 -9 -3 -7 0 -14 6
-14 6 0 11 4 11 8 0 5 13 7 29 4 20 -3 28 -8 24 -18 -3 -8 0 -14 6 -14 6 0 11
6 11 14 0 15 16 16 39 2 23 -15 -28 -47 -52 -34 -15 8 -18 7 -12 -3 6 -9 3
-11 -9 -6 -9 4 -15 3 -12 -2 3 -5 -2 -12 -12 -16 -14 -5 -12 -9 13 -19 17 -7
34 -11 38 -9 4 3 14 0 22 -7 9 -7 15 -8 20 0 8 13 25 13 25 -1 0 -5 -5 -7 -12
-3 -6 4 -8 3 -5 -3 3 -5 20 -9 36 -8 20 1 28 -2 23 -9 -15 -24 -11 -36 9 -26
15 9 17 7 13 -5 -4 -9 -15 -20 -25 -26 -26 -13 -53 3 -69 41 -12 30 -33 39
-45 20 -4 -6 -10 -8 -15 -5 -5 3 -13 -2 -18 -11 -8 -15 -11 -15 -31 5 -11 11
-26 21 -32 21 -5 0 -7 4 -4 10 4 6 -3 6 -21 0 -15 -6 -29 -8 -32 -5 -3 3 -1 5
5 5 6 0 13 7 16 14 4 11 1 13 -10 9 -11 -4 -14 -2 -9 5 9 15 1 15 -27 0 -21
-10 -21 -10 -7 7 14 17 14 17 -6 7 -18 -9 -24 -8 -35 6 -13 16 -12 16 6 2 19
-14 19 -14 6 3 -11 14 -17 15 -28 5 -8 -6 -13 -7 -12 -2 4 21 -2 26 -18 13
-15 -13 -15 -12 -5 8 16 29 15 33 -4 33 -11 0 -14 -5 -10 -16 4 -11 1 -14 -12
-12 -11 2 -18 14 -20 36 -3 24 -8 32 -23 32 -11 0 -17 5 -14 10 6 10 -7 14
-33 11 -6 -1 -17 10 -22 24 -5 14 -13 25 -17 24 -19 -3 -43 2 -42 9 1 4 1 17
0 29 -1 18 -6 21 -27 17 -22 -4 -25 -1 -24 18 3 38 1 44 -30 76 -17 18 -30 39
-30 47 0 8 -5 15 -12 15 -6 0 -8 3 -5 7 11 10 -26 32 -55 33 -33 0 -58 9 -58
21 0 4 6 6 13 3 9 -3 13 7 14 36 0 22 -4 40 -9 40 -5 0 -7 4 -4 9 6 9 -36 67
-59 83 -18 14 -56 8 -62 -9 -4 -9 -1 -19 5 -21 7 -2 10 -8 6 -13 -3 -5 1 -9 8
-9 7 0 35 -23 63 -51 l49 -51 -34 7 c-19 3 -44 7 -55 8 -11 1 -27 10 -37 20
-16 17 -16 17 -21 0 -4 -17 -5 -17 -6 0 -1 15 -13 22 -34 18 -5 -1 -6 3 -3 8
4 5 -2 12 -13 16 -26 8 -62 41 -54 49 3 3 0 6 -8 6 -8 0 -31 25 -52 55 -21 30
-33 55 -28 55 6 0 11 4 11 10 0 5 -8 6 -17 3 -16 -6 -16 -5 -4 10 11 14 11 23
1 47 -7 16 -16 28 -20 27 -12 -3 -125 116 -125 133 0 8 -6 14 -13 12 -7 -1
-25 17 -40 41 -34 55 -143 183 -160 191 -8 3 -18 4 -23 0 -12 -7 -11 -71 1
-79 6 -4 7 -11 4 -17 -4 -6 -2 -8 3 -5 6 4 14 -1 17 -10 4 -9 1 -20 -6 -25
-10 -6 -8 -8 5 -8 9 0 17 -4 17 -9 0 -5 9 -13 20 -16 11 -3 23 -17 26 -31 4
-13 15 -29 25 -34 10 -6 24 -20 30 -31 9 -17 8 -20 -3 -14 -7 3 -5 0 4 -8 10
-8 18 -22 18 -31 0 -9 5 -15 11 -13 6 1 14 -4 17 -12 3 -8 0 -11 -7 -7 -6 4
-11 3 -11 -2 0 -6 6 -12 14 -15 9 -4 12 -14 9 -25 -4 -18 20 -68 40 -83 4 -3
9 -21 10 -40 1 -19 7 -37 12 -41 6 -5 4 -8 -4 -8 -11 0 -10 -4 5 -16 17 -14
17 -15 1 -10 -15 5 -16 3 -5 -17 7 -12 11 -25 10 -29 -1 -4 5 -5 14 -1 12 4
14 0 8 -21 -5 -21 -3 -25 10 -20 12 5 15 2 9 -12 -4 -11 -3 -15 5 -10 13 8 25
-25 16 -49 -6 -14 -3 -16 14 -11 15 5 22 2 27 -14 4 -11 10 -18 15 -15 12 8
21 -11 22 -45 1 -16 5 -27 10 -24 4 3 8 0 8 -6 0 -6 4 -9 9 -5 11 6 53 -49 44
-59 -3 -3 -1 -6 5 -6 7 0 12 -6 12 -14 0 -8 9 -22 21 -30 13 -9 18 -19 14 -27
-5 -7 -4 -10 2 -6 5 3 16 -9 23 -28 8 -19 19 -34 24 -34 32 4 39 -1 26 -16
-11 -13 -10 -14 6 -8 16 6 17 4 6 -9 -10 -13 -10 -17 3 -22 8 -3 15 -15 15
-26 0 -12 4 -19 9 -16 5 3 12 -1 15 -10 4 -9 9 -14 12 -11 9 9 54 -35 54 -54
0 -11 11 -20 30 -24 16 -4 32 -11 36 -16 3 -5 0 -8 -8 -7 -7 2 -12 -2 -11 -9
1 -6 -4 -14 -12 -17 -10 -3 -12 0 -8 12 6 15 4 15 -15 -1 -16 -15 -25 -16 -39
-8 -10 6 -13 11 -8 11 6 0 4 4 -4 9 -9 6 -19 4 -28 -5 -8 -8 -18 -12 -23 -9
-5 3 -7 -9 -4 -27 4 -37 44 -75 56 -55 5 8 8 7 8 -4 0 -8 -6 -21 -13 -29 -6
-8 -3 -7 8 2 20 16 23 16 54 -3 18 -11 38 -18 44 -16 13 4 47 -28 47 -45 0
-10 2 -10 9 0 6 10 10 10 20 -2 9 -11 9 -15 -1 -20 -7 -3 -3 -3 10 0 21 5 28
-7 23 -39 0 -4 5 -6 11 -5 7 2 12 -3 10 -10 -1 -8 2 -11 8 -7 5 3 10 1 10 -6
0 -7 7 -4 15 7 8 10 15 15 14 9 -4 -30 3 -35 46 -33 24 0 51 -4 58 -11 8 -6
19 -11 23 -10 19 4 44 -14 44 -32 0 -10 3 -18 8 -17 4 0 15 -2 25 -5 9 -4 24
-9 33 -12 9 -3 14 -8 11 -12 -4 -3 -2 -12 4 -20 9 -10 8 -13 -1 -13 -8 0 -10
-3 -7 -6 4 -4 13 -2 21 5 11 9 17 8 29 -4 9 -8 20 -15 24 -14 22 4 31 -3 37
-26 4 -14 13 -25 22 -25 8 0 17 -6 20 -14 3 -8 22 -17 43 -21 21 -3 49 -17 64
-31 23 -21 27 -22 35 -8 7 13 13 14 28 6 17 -10 17 -11 2 -12 -18 0 -23 -11
-11 -23 3 -4 12 -2 20 4 9 9 13 8 13 0 0 -6 8 -11 18 -11 13 0 14 2 3 9 -11 7
-9 10 9 16 18 6 28 2 42 -16 12 -16 16 -18 12 -6 -5 13 -2 16 12 10 13 -5 16
-3 12 8 -4 11 4 14 36 13 31 0 41 -5 40 -16 -2 -18 28 -17 34 1 5 14 33 -34
36 -59 1 -20 37 -60 53 -60 6 0 15 -5 19 -12 4 -6 3 -8 -3 -5 -5 3 -10 0 -10
-7 0 -15 14 -15 35 -2 7 4 16 5 20 1 4 -4 1 -10 -6 -12 -6 -3 -9 -9 -6 -14 3
-6 -5 -8 -20 -5 -15 3 -24 1 -21 -5 11 -17 44 -9 68 15 14 14 23 26 21 28 -2
2 5 4 16 5 12 1 17 -3 13 -12 -2 -8 -10 -13 -16 -12 -6 1 -12 -6 -15 -15 -2
-12 5 -18 23 -20 14 -2 26 -7 26 -13 0 -11 37 -34 54 -34 6 0 -1 6 -15 14 -30
17 -8 20 23 4 16 -9 22 -9 25 0 2 6 10 11 18 11 9 0 12 5 9 10 -4 6 5 10 19
10 14 0 26 5 26 11 0 6 5 7 13 2 22 -14 40 -12 55 5 13 16 13 16 8 0 -3 -10
-1 -18 4 -18 6 0 10 5 10 10 0 6 10 10 23 10 18 0 19 -2 7 -10 -12 -8 -13 -10
-1 -10 8 0 22 6 30 14 21 17 81 29 81 15 0 -5 11 3 25 18 21 24 24 25 25 9 0
-16 5 -17 48 -12 26 4 55 9 65 12 9 3 17 1 17 -5 0 -6 5 -11 11 -11 6 0 8 7 5
16 -4 9 -2 22 4 29 8 9 4 11 -15 7 -15 -2 -25 0 -25 7 0 16 39 53 49 46 5 -2
11 2 15 10 3 8 12 15 19 15 8 0 20 7 27 15 10 12 15 13 24 2 6 -7 10 -10 9 -8
-8 13 45 41 71 39 29 -3 31 -1 31 30 0 23 4 31 13 27 9 -3 13 3 12 18 -1 12
-2 27 -1 32 2 16 54 42 74 37 18 -4 18 -5 1 -23 -13 -15 -15 -22 -6 -31 9 -9
12 -9 12 0 0 7 7 12 15 12 8 0 24 9 35 20 12 12 26 18 32 14 7 -5 9 -2 5 8 -3
10 1 18 13 21 23 6 37 -23 17 -38 -13 -10 -30 -45 -22 -45 3 0 24 8 47 17 46
18 60 31 51 47 -3 5 -1 6 5 2 7 -4 12 -16 12 -27 0 -11 4 -18 9 -15 5 3 7 16
3 28 -4 16 -2 19 8 13 8 -5 18 -2 26 9 11 16 13 15 28 -6 13 -18 16 -19 16 -5
0 9 7 17 15 17 8 0 15 5 15 10 0 6 7 10 15 10 8 0 15 6 15 14 0 8 15 17 35 20
20 4 33 11 31 15 -3 4 4 17 14 29 21 23 27 37 10 27 -20 -13 -9 13 21 48 17
21 38 37 45 37 8 0 11 6 8 15 -4 8 -10 13 -14 10 -5 -3 -8 4 -7 15 1 15 7 20
18 17 15 -4 16 -1 6 20 -8 18 -8 29 1 44 10 16 10 23 -2 34 -11 11 -16 12 -20
2 -3 -6 -4 1 -1 17 3 15 13 35 20 43 8 8 15 19 15 24 0 6 5 7 10 4 6 -3 10 3
10 14 0 12 4 21 9 21 5 0 26 22 46 49 35 46 39 48 71 41 34 -8 41 -1 35 34 -4
18 11 46 25 46 8 0 14 5 14 11 0 5 5 7 11 3 7 -4 10 -1 7 6 -2 8 -10 16 -18
18 -7 3 -10 0 -6 -6 3 -6 2 -13 -4 -17 -18 -11 -11 24 9 44 11 11 17 22 14 25
-4 3 0 6 7 6 7 0 11 3 7 6 -3 4 0 22 8 40 8 19 11 34 8 34 -3 0 0 6 6 13 6 8
8 17 5 20 -3 3 6 18 20 34 19 20 23 29 12 31 -8 2 -17 11 -20 20 -3 9 -8 22
-11 28 -4 7 3 10 19 7 13 -3 32 0 43 6 10 6 12 11 6 11 -22 0 -14 20 7 20 11
0 25 9 32 20 7 11 19 20 27 20 8 0 11 3 8 7 -4 3 0 14 9 24 17 19 12 55 -6 44
-6 -4 -8 -11 -5 -16 4 -5 1 -9 -5 -9 -6 0 -8 -5 -5 -10 3 -5 2 -10 -4 -10 -20
0 -20 18 -1 35 11 10 20 23 20 28 0 5 8 16 18 24 13 10 13 13 2 11 -11 -2 -14
5 -12 30 2 18 -1 32 -7 32 -6 0 -10 -3 -10 -7 4 -22 -2 -43 -12 -43 -6 0 -8
12 -6 28 6 38 46 114 56 108 4 -3 17 10 27 29 10 19 22 35 26 35 4 0 5 13 2
28 -4 20 0 32 12 43 11 8 15 9 10 2 -4 -7 -3 -13 3 -13 5 0 13 5 16 10 11 17
45 -30 45 -60 0 -16 12 -39 30 -59 17 -17 28 -37 24 -43 -4 -7 -3 -8 5 -4 11
7 64 -27 55 -36 -2 -3 8 -3 23 0 26 5 27 4 14 -12 -8 -9 -10 -16 -5 -15 32 6
81 -34 93 -78 8 -28 7 -30 -11 -25 -11 3 -24 -1 -30 -9 -7 -10 -8 -9 -4 6 7
27 -9 54 -18 30 -6 -16 -8 -16 -31 -1 -23 15 -24 15 -18 -1 4 -11 3 -14 -6 -9
-9 6 -12 1 -9 -15 2 -15 -2 -23 -9 -22 -8 2 -10 -4 -6 -15 11 -29 25 -43 42
-38 26 8 48 -16 60 -64 7 -25 17 -55 23 -67 8 -17 8 -26 -1 -37 -15 -18 -11
-88 4 -82 7 2 12 -2 12 -10 0 -9 -6 -13 -16 -9 -10 4 -7 -2 7 -15 24 -23 28
-35 11 -45 -7 -5 -3 -15 11 -27 18 -17 21 -27 15 -57 -4 -20 -8 -46 -9 -57 0
-12 -6 -20 -12 -17 -6 2 -11 -3 -11 -11 0 -8 4 -13 9 -10 13 8 9 -6 -5 -21 -9
-8 -19 -10 -28 -4 -22 14 -29 11 -29 -11 0 -11 -4 -20 -10 -20 -5 0 -10 -5
-10 -11 0 -5 5 -7 10 -4 6 4 10 3 9 -2 -4 -25 3 -43 17 -43 14 0 16 -8 11 -49
-4 -37 -2 -53 9 -61 20 -17 18 -27 -16 -95 -16 -33 -30 -70 -30 -83 0 -16 -4
-21 -12 -16 -7 4 2 -6 20 -23 34 -33 43 -79 17 -89 -8 -4 -12 -11 -8 -18 4 -6
-1 -5 -11 3 -15 13 -17 12 -12 -13 3 -14 1 -24 -3 -21 -5 2 -11 -4 -14 -14 -3
-15 -11 -18 -28 -15 -23 4 -23 4 -3 -5 29 -13 37 -28 19 -35 -12 -4 -13 -9 -4
-24 13 -21 40 -26 32 -6 -2 7 4 21 16 30 11 10 18 21 15 26 -3 4 9 8 26 8 25
0 31 -3 26 -16 -3 -9 -9 -27 -12 -40 -3 -13 -10 -24 -15 -24 -5 0 -9 -8 -9
-17 0 -9 -8 -25 -17 -36 -10 -11 -12 -17 -6 -13 14 8 7 -19 -9 -41 -6 -7 -7
-16 -4 -21 3 -5 -6 -14 -19 -20 -26 -12 -32 -27 -15 -37 6 -3 10 -1 10 6 0 7
3 10 6 6 9 -9 -57 -97 -68 -91 -5 3 -3 13 4 22 12 15 11 16 -5 3 -11 -9 -16
-22 -12 -35 3 -12 2 -15 -1 -8 -9 20 -27 14 -21 -7 3 -12 -3 -27 -16 -38 -19
-17 -20 -17 -14 -1 4 10 4 18 1 18 -2 0 -9 -11 -14 -25 -5 -14 -17 -25 -27
-25 -16 0 -16 2 -3 11 13 9 13 10 0 6 -8 -2 -14 -10 -12 -17 1 -6 -7 -14 -18
-17 -11 -3 -17 -9 -15 -14 3 -4 -4 -13 -16 -20 -17 -9 -23 -8 -30 2 -7 12 -9
12 -9 0 0 -7 -6 -11 -15 -7 -10 3 -17 -3 -21 -19 -3 -13 -12 -29 -20 -36 -21
-17 -17 -36 8 -35 21 1 41 12 72 43 8 7 18 8 27 2 11 -7 11 -9 -4 -9 -9 0 -16
-3 -15 -7 5 -14 -46 -64 -59 -59 -8 3 -10 -1 -6 -12 3 -9 2 -14 -2 -9 -5 4
-19 -2 -31 -14 -20 -19 -24 -20 -46 -5 -17 11 -27 12 -38 5 -13 -9 -12 -10 3
-5 9 3 17 1 17 -5 0 -6 5 -7 11 -3 7 4 10 1 7 -7 -3 -8 -14 -15 -26 -17 -12
-2 -30 -13 -39 -26 -20 -25 -59 -44 -47 -23 3 6 -6 -1 -21 -17 -26 -26 -29
-27 -41 -12 -8 11 -13 13 -16 5 -2 -6 -14 -12 -26 -13 -13 0 -26 -6 -30 -11
-11 -15 -107 -65 -126 -65 -9 0 -19 -6 -22 -13 -5 -15 -15 -17 -91 -18 -29 -1
-53 -5 -53 -10 0 -5 5 -9 12 -9 6 0 9 -2 6 -5 -9 -9 -38 7 -32 17 4 6 -3 5
-15 -2 -12 -6 -20 -14 -17 -18 5 -8 -14 -37 -29 -43 -5 -2 -9 -7 -8 -11 2 -4
-6 -5 -17 -3 -12 2 -20 -2 -20 -10 0 -15 -27 -28 -41 -20 -5 4 -6 0 -3 -8 6
-17 -12 -32 -20 -18 -4 5 -19 3 -38 -6 -25 -13 -35 -14 -51 -4 -11 7 -16 8
-12 2 3 -6 -1 -11 -9 -11 -10 0 -13 6 -9 17 5 11 3 14 -6 8 -10 -6 -11 -3 -1
15 6 12 9 24 6 28 -3 3 -6 0 -6 -8 0 -10 -3 -10 -17 1 -10 7 -15 10 -11 5 4
-5 3 -17 -3 -28 -7 -14 -16 -17 -32 -12 -20 6 -21 5 -7 -12 13 -17 13 -18 0
-8 -25 18 -50 24 -47 11 3 -18 -40 -20 -73 -3 -17 8 -30 11 -30 7 0 -4 -18 -8
-40 -9 -23 -2 -40 2 -40 8 0 5 -6 9 -12 8 -7 -2 -12 2 -11 8 1 6 -8 11 -20 11
-40 1 -48 3 -43 12 4 5 -2 8 -11 7 -10 -2 -31 1 -47 5 -24 7 -34 5 -49 -12
-13 -14 -28 -19 -50 -16 -18 2 -31 9 -29 16 1 6 -5 11 -13 11 -9 0 -12 -6 -8
-17 5 -13 2 -15 -11 -10 -10 4 -23 7 -29 7 -7 0 -5 5 5 10 15 9 15 51 -1 48
-16 -3 -39 15 -34 28 3 8 1 14 -5 14 -6 0 -12 -5 -14 -11 -6 -18 -80 -19 -100
-1 -17 15 -22 10 -20 -18 0 -3 -11 -6 -26 -5 -15 0 -26 -5 -25 -12 1 -6 -5
-10 -15 -8 -22 3 -44 -14 -36 -29 3 -6 0 -4 -8 5 -11 13 -20 13 -58 3 -33 -8
-40 -13 -28 -18 10 -5 15 -16 13 -27 -2 -11 0 -17 6 -14 5 4 7 10 4 15 -3 5
-1 11 5 15 5 3 14 -5 20 -19 5 -14 12 -26 15 -26 4 0 3 5 0 10 -3 6 -2 10 4
10 6 0 8 8 5 18 -4 11 -3 13 3 5 4 -6 17 -11 28 -10 11 1 20 -3 20 -10 0 -22
15 -26 30 -7 11 15 15 16 15 4 0 -12 3 -12 11 2 11 20 39 13 40 -11 0 -12 2
-12 9 4 5 11 9 15 9 9 1 -12 44 -28 74 -27 9 0 17 -4 17 -8 0 -5 -7 -9 -16 -9
-8 0 -13 -4 -10 -9 3 -5 -10 -16 -29 -25 -50 -24 -45 -42 10 -38 53 5 98 -5
90 -18 -3 -5 -1 -11 5 -15 6 -4 8 -11 5 -16 -3 -5 1 -6 9 -3 9 4 16 1 16 -6 0
-8 10 -9 33 -4 17 4 38 7 45 7 7 0 11 6 8 14 -6 15 15 13 26 -2 5 -6 8 -5 8 3
0 7 4 11 10 7 5 -3 6 -13 3 -21 -7 -19 18 -38 28 -22 3 5 18 11 33 11 14 1 26
6 26 10 0 5 15 5 33 2 57 -11 72 -11 94 -3 13 4 22 4 20 0 -1 -4 2 -8 7 -9 16
-3 25 -27 13 -36 -8 -6 -7 -7 3 -4 8 2 14 12 14 21 -1 9 2 16 7 16 5 0 9 -7 9
-15 0 -8 5 -15 11 -15 5 0 7 6 3 13 -4 6 -3 8 1 4 5 -4 8 -28 6 -53 -2 -32 1
-44 9 -39 7 5 9 -2 5 -22 -5 -24 -4 -25 4 -6 9 19 17 21 70 19 70 -3 84 -11
57 -32 -11 -8 -15 -14 -9 -14 7 0 15 5 18 10 4 6 10 8 15 5 5 -3 12 -1 15 5 5
8 11 8 19 1 9 -8 13 -7 13 4 0 8 -5 15 -11 15 -15 1 25 24 47 27 19 3 23 -12
5 -23 -7 -5 -8 -3 -3 6 6 9 4 11 -4 6 -21 -13 -2 -22 59 -28 8 0 18 -6 22 -12
5 -7 8 -6 8 4 0 9 10 16 23 18 12 1 49 11 81 22 33 11 65 20 73 20 8 0 33 9
55 20 23 11 50 20 59 20 10 0 20 6 22 13 3 6 6 2 6 -10 1 -13 6 -23 12 -23 5
0 7 5 4 10 -3 6 2 10 12 10 15 0 16 2 3 11 -11 8 -7 9 17 5 21 -3 37 0 47 9 8
8 22 15 30 15 9 0 16 4 16 8 0 4 18 8 40 9 22 1 40 -2 40 -7 0 -13 64 -6 76 9
6 8 17 11 25 9 8 -3 21 1 30 8 13 12 16 12 16 -1 0 -8 -4 -15 -9 -15 -4 0 -8
-5 -8 -11 0 -8 5 -8 15 1 8 7 15 21 15 32 0 10 5 16 10 13 6 -4 8 -12 4 -18
-3 -7 1 -4 9 6 15 18 43 24 32 7 -3 -5 0 -10 8 -10 8 0 14 -8 13 -17 -1 -14 8
-18 39 -20 22 -1 41 -7 43 -13 7 -21 111 -11 182 18 8 3 22 7 30 7 27 4 60 17
60 25 0 4 8 10 18 14 9 3 31 14 47 25 17 11 38 20 47 20 14 1 16 5 8 25 -5 13
-6 27 -3 30 3 3 -6 0 -21 -7 -14 -7 -26 -15 -26 -19 0 -11 -71 -39 -81 -32
-13 8 -11 28 3 42 7 7 13 20 13 30 0 9 5 16 12 15 7 -2 10 3 7 11 -3 8 4 16
20 20 14 3 26 11 26 17 0 19 35 56 48 51 6 -2 12 3 12 12 0 8 10 22 22 30 12
9 17 16 11 16 -8 0 -8 7 0 25 7 14 18 25 25 25 6 0 12 5 12 11 0 5 4 8 9 5 5
-4 11 -3 13 1 1 5 20 17 40 27 21 10 35 23 31 29 -4 6 -1 7 7 2 10 -6 10 -11
-4 -20 -9 -7 -14 -19 -10 -29 8 -20 24 -21 24 -2 0 8 12 27 28 44 15 17 28 36
30 42 1 7 13 26 25 44 12 17 23 37 25 45 2 8 12 26 22 41 24 33 34 75 24 92
-5 7 -10 22 -11 32 -5 28 -13 33 -13 8 0 -12 -6 -21 -12 -20 -7 2 -13 -4 -13
-12 0 -20 -26 -50 -37 -44 -5 3 -8 2 -7 -3 3 -20 -2 -43 -10 -43 -18 0 -19 28
-2 47 10 10 15 25 13 32 -3 10 0 12 12 8 8 -3 15 -3 15 1 -1 4 0 10 1 15 1 4
3 10 4 15 7 28 19 52 24 48 4 -2 8 10 9 26 1 17 7 36 14 44 6 7 8 18 5 23 -4
5 0 13 7 18 20 12 58 79 49 88 -4 4 3 5 15 1 15 -5 29 0 47 17 29 27 34 47 11
47 -13 0 -14 4 -4 21 9 18 13 19 20 8 8 -12 10 -11 8 1 -3 31 2 55 9 45 4 -5
16 -10 27 -10 11 1 24 -4 28 -10 5 -6 7 -3 3 8 -3 10 0 20 8 23 13 5 18 34 5
34 -4 0 -2 13 4 29 6 17 14 28 18 25 5 -2 13 5 19 16 6 11 18 20 28 20 15 0
15 2 2 10 -12 8 -12 10 -1 10 8 0 11 3 8 7 -4 3 2 12 12 19 10 8 33 42 51 76
18 35 40 72 49 82 9 11 10 16 4 12 -16 -9 -19 109 -3 119 7 4 7 12 0 24 -5 10
-7 21 -3 24 3 3 7 23 8 44 2 21 5 61 8 88 3 28 3 44 0 38 -8 -20 -19 -15 -21
10 -6 74 -3 192 5 194 7 3 5 18 -3 43 -7 21 -15 49 -18 62 -9 48 -18 84 -28
111 -9 22 -8 31 2 37 7 4 14 21 16 36 2 21 1 25 -6 14 -10 -15 -10 -16 -14 38
-1 7 -7 17 -15 21 -7 5 -11 13 -7 19 3 6 2 13 -4 17 -6 4 -7 12 -4 18 4 7 4 9
0 5 -4 -3 -24 12 -44 35 -20 23 -40 44 -45 45 -4 2 -5 7 -2 12 3 4 -9 13 -25
20 -16 7 -27 16 -24 21 3 5 1 9 -5 9 -5 0 -13 -4 -16 -10 -3 -5 -1 -10 5 -10
8 0 10 -10 6 -27 -4 -18 -3 -23 2 -15 7 11 10 10 16 -3 3 -9 3 -22 -1 -27 -4
-7 -1 -8 7 -3 10 6 12 4 7 -8 -3 -9 0 -18 9 -21 8 -3 14 -12 14 -21 0 -8 5
-15 11 -15 6 0 8 -7 5 -16 -4 -9 -2 -22 2 -28 15 -19 22 -57 9 -49 -7 3 -4 -3
7 -15 10 -12 16 -28 12 -37 -3 -9 -2 -14 3 -11 5 3 11 -12 13 -33 3 -32 0 -41
-14 -44 -10 -3 -16 -1 -12 4 3 5 0 9 -6 9 -6 0 -8 5 -5 10 3 6 -2 13 -11 17
-10 4 -25 13 -34 20 -8 7 -24 20 -35 29 -11 8 -13 12 -5 8 8 -4 0 7 -19 25
-20 18 -29 31 -20 31 10 1 9 3 -3 11 -10 5 -18 15 -18 20 0 6 4 8 9 4 16 -9
20 9 5 23 -8 7 -14 9 -14 5 -1 -4 -7 3 -14 17 -8 14 -12 29 -9 34 4 5 -3 7
-15 4 -12 -4 -22 -2 -22 3 0 4 -7 6 -15 2 -9 -3 -15 -2 -14 3 1 5 -1 17 -6 27
-4 10 -5 20 -2 23 3 4 2 17 -3 30 -5 13 -7 24 -5 24 3 0 10 -11 15 -24 7 -20
17 -25 59 -27 61 -5 69 14 21 46 -16 11 -30 25 -30 32 0 7 -6 10 -14 7 -8 -3
-17 0 -22 7 -5 8 -3 10 6 4 9 -5 11 -4 6 3 -4 7 -16 12 -26 12 -51 0 -64 27
-31 69 15 20 17 31 8 70 -5 25 -15 49 -21 53 -8 5 -7 8 2 8 10 0 9 4 -3 16
-26 26 -48 64 -42 71 8 7 -24 63 -36 63 -5 0 -6 7 -3 15 3 9 0 25 -7 36 -10
16 -9 21 1 28 7 4 14 17 15 28 0 13 6 19 14 16 7 -3 14 0 14 6 3 25 4 30 10
35 3 4 12 0 19 -9 7 -8 16 -15 21 -15 15 0 77 65 84 88 3 12 11 20 16 17 5 -4
12 1 15 9 3 9 12 16 20 16 14 0 18 12 15 38 -1 6 3 12 9 12 5 0 10 -9 10 -20
0 -11 6 -20 14 -20 8 0 19 -14 25 -31 14 -39 14 -52 1 -44 -5 3 -3 -11 4 -32
8 -21 19 -37 25 -36 6 2 8 -4 4 -14 -4 -11 -3 -14 5 -9 7 4 20 2 29 -3 14 -8
15 -11 3 -12 -8 0 -4 -4 10 -8 14 -4 35 -4 46 0 22 8 34 3 34 -13 0 -5 -5 -6
-11 -2 -8 4 -8 0 0 -15 7 -11 17 -21 24 -21 9 0 9 2 0 8 -7 4 -9 13 -4 21 7
10 9 10 14 -2 7 -19 50 -27 65 -11 9 10 21 8 59 -12 27 -13 52 -24 56 -24 5 0
22 -9 37 -20 27 -19 28 -19 23 -1 -5 21 12 37 22 21 7 -11 45 -14 45 -3 0 3
-7 14 -16 24 -12 14 -13 21 -4 36 10 16 10 16 5 -4 -3 -12 -1 -25 6 -29 7 -4
9 -3 6 4 -9 13 2 42 15 42 6 0 8 -6 5 -14 -4 -9 0 -12 12 -9 10 2 23 -2 30
-11 7 -8 19 -12 27 -9 13 5 18 -7 15 -34 -1 -7 3 -13 9 -13 6 0 8 5 5 10 -3 6
3 10 15 10 16 0 21 -6 20 -22 -1 -13 -1 -25 0 -28 9 -22 9 -70 1 -70 -6 0 -11
-5 -11 -11 0 -5 5 -7 11 -3 7 4 7 -1 -1 -16 -9 -17 -9 -21 0 -15 7 4 10 1 8
-10 -2 -10 3 -20 11 -23 9 -3 11 0 6 8 -18 30 18 -4 46 -42 21 -30 26 -44 19
-53 -8 -9 -7 -17 2 -26 7 -8 14 -29 16 -48 4 -38 39 -111 54 -111 11 0 38 -25
38 -35 0 -3 -6 -3 -12 0 -7 4 -4 -1 6 -9 11 -9 14 -16 8 -16 -7 0 -12 -8 -12
-17 0 -14 2 -15 9 -4 6 9 11 10 15 2 4 -6 4 -11 0 -11 -3 0 0 -8 7 -17 8 -9 9
-14 4 -11 -6 4 -17 2 -25 -3 -11 -8 -12 -12 -3 -15 7 -3 9 -12 6 -20 -7 -19 7
-18 24 4 14 16 14 16 9 0 -3 -10 0 -20 5 -24 6 -3 8 -16 5 -29 -4 -14 0 -28
10 -36 8 -7 13 -21 11 -31 -3 -11 3 -24 14 -31 10 -8 17 -16 15 -18 -2 -2 3
-11 12 -19 14 -13 15 -12 9 3 -3 9 -2 19 3 22 6 4 10 -5 10 -19 0 -14 -4 -26
-9 -26 -4 0 -9 -32 -10 -70 -1 -39 2 -70 7 -70 5 0 14 -11 20 -25 9 -20 9 -23
-3 -18 -8 3 -12 10 -8 16 4 6 1 7 -6 3 -9 -6 -8 -13 5 -27 15 -17 15 -19 1
-19 -12 0 -16 -8 -14 -29 1 -16 7 -27 12 -25 16 7 60 -102 45 -111 -6 -4 -10
-14 -10 -23 0 -15 2 -15 10 -2 6 9 10 10 10 3 0 -6 3 -19 7 -29 4 -10 2 -15
-4 -11 -5 3 -10 0 -10 -8 0 -8 4 -12 9 -9 14 9 9 -6 -7 -23 -16 -15 -11 -38 6
-28 5 4 9 -1 9 -10 0 -10 5 -15 14 -12 16 7 56 -68 56 -107 0 -14 5 -26 11
-26 5 0 8 -4 5 -9 -4 -5 -1 -11 4 -13 6 -2 12 -13 13 -26 0 -12 4 -22 8 -22 3
0 4 -12 1 -27 -4 -23 -6 -25 -12 -8 -6 16 -7 17 -13 2 -3 -9 0 -23 8 -31 10
-10 14 -34 12 -79 -1 -36 1 -63 5 -61 4 3 5 -2 2 -10 -3 -9 -2 -16 3 -16 13 0
9 -66 -5 -83 -7 -8 -8 -17 -4 -21 4 -4 7 -31 7 -59 0 -54 -18 -89 -41 -80 -22
8 -41 -18 -48 -66 -2 -8 -8 -17 -14 -19 -7 -2 -10 -8 -6 -13 3 -5 -9 -9 -25
-9 -20 0 -30 -5 -29 -12 2 -7 -5 -12 -14 -12 -10 1 -15 -3 -11 -9 4 -6 -4 -8
-20 -5 -14 3 -25 2 -25 -1 3 -15 -26 -60 -35 -54 -6 3 -7 1 -4 -4 4 -6 0 -16
-8 -23 -24 -20 -17 -34 8 -18 25 17 77 29 77 18 0 -4 -9 -15 -20 -25 -11 -10
-17 -23 -14 -29 3 -6 -2 -2 -10 8 -9 11 -16 14 -16 7 0 -7 -5 -9 -12 -5 -7 4
-8 3 -4 -5 4 -6 12 -9 17 -6 5 4 9 -1 9 -10 0 -9 -4 -13 -10 -10 -5 3 -10 0
-10 -7 0 -9 -3 -9 -10 2 -6 10 -10 11 -10 3 0 -7 -5 -13 -11 -13 -5 0 -7 5 -3
12 4 7 3 8 -4 4 -17 -10 -15 -15 11 -26 l22 -9 -24 0 c-15 -1 -21 -6 -18 -15
6 -15 -38 -40 -54 -31 -5 4 -9 2 -9 -4 0 -5 4 -12 10 -16 14 -9 1 -35 -15 -29
-9 4 -12 0 -8 -14 4 -15 -3 -24 -25 -36 -16 -8 -33 -12 -37 -8 -5 4 -5 1 -1
-5 5 -9 -1 -13 -21 -13 -28 -1 -28 -1 -5 -13 12 -7 20 -16 17 -19 -3 -3 17 -4
46 -2 29 2 55 8 59 15 4 6 8 -1 8 -15 0 -23 -3 -25 -17 -14 -13 11 -12 7 3
-16 13 -21 15 -31 6 -40 -9 -8 -11 -8 -8 3 2 7 -2 15 -9 18 -7 3 -10 -5 -8
-22 1 -17 -6 -37 -21 -53 -13 -15 -24 -21 -24 -14 0 7 -5 10 -11 7 -6 -4 -8
-13 -5 -21 3 -7 -8 -24 -24 -38 -17 -14 -30 -27 -30 -31 0 -14 -39 -47 -49
-41 -7 4 -8 1 -5 -8 4 -11 0 -16 -13 -16 -10 0 -29 -7 -41 -16 -12 -8 -22 -14
-22 -12 0 2 -31 -26 -70 -61 -54 -51 -67 -68 -58 -78 7 -9 15 -10 21 -4 5 5
16 7 23 4 8 -3 14 0 14 7 0 7 8 10 20 7 17 -4 18 -2 9 15 -10 18 -9 19 13 7
13 -6 20 -8 16 -4 -16 17 22 49 62 52 26 2 54 13 76 30 29 22 37 24 45 12 7
-11 10 -10 15 8 5 19 37 36 71 38 6 0 15 4 20 9 4 5 3 6 -4 2 -26 -15 -12 13
22 43 19 17 35 33 35 36 0 12 42 45 50 40 6 -4 10 2 10 11 0 10 3 14 6 11 10
-10 44 12 44 29 0 9 5 12 13 8 6 -4 9 -4 5 0 -3 4 -2 21 4 38 8 22 13 27 20
16 6 -9 8 -6 6 12 -2 16 2 24 10 22 6 -1 12 3 12 9 0 6 7 9 15 5 8 -3 27 6 42
20 16 14 22 22 14 18 -9 -4 -12 -2 -9 7 3 8 11 13 17 11 6 -1 10 1 10 5 -3 21
3 32 21 38 11 4 18 10 15 15 -3 5 10 25 29 45 19 19 31 35 26 35 -4 0 -6 9 -3
20 3 11 9 17 14 14 5 -3 6 2 3 10 -3 9 6 27 22 43 20 20 26 22 21 9 -6 -14 -4
-17 9 -12 8 3 19 6 23 6 4 0 5 16 3 35 -3 26 -1 34 9 32 8 -2 11 -2 7 0 -12 7
-9 23 6 39 11 10 15 11 19 1 4 -11 37 55 37 74 0 5 5 9 11 9 5 0 7 5 4 10 -3
6 -1 10 4 10 13 0 15 -17 3 -24 -13 -8 -12 -66 0 -66 6 0 21 12 35 28 19 21
22 23 18 7 -6 -18 -5 -18 5 -2 6 9 8 21 5 27 -3 5 4 19 15 30 16 16 22 36 24
73 1 34 6 51 14 49 16 -3 15 11 0 27 -9 9 -4 9 17 -2 29 -15 33 -14 71 11 36
24 40 31 42 71 1 24 9 52 18 62 9 10 14 25 11 32 -3 8 -1 19 5 25 20 20 -2 33
-28 16 -22 -15 -24 -15 -24 2 0 16 -2 17 -10 4 -6 -9 -6 -18 0 -24 6 -6 1 -23
-12 -44 -11 -19 -21 -43 -22 -54 -1 -26 -46 -37 -46 -12 0 8 4 13 8 10 5 -3 8
13 8 34 -1 23 4 40 10 40 12 0 38 49 35 67 -1 6 4 15 10 19 8 4 9 3 5 -4 -4
-7 -2 -12 3 -12 12 0 12 2 16 71 3 63 14 79 32 48 10 -17 12 -18 8 -4 -11 31
-11 49 0 50 24 1 31 17 28 71 -2 44 2 63 17 84 11 16 20 35 20 43 0 9 13 18
31 22 l31 7 -23 12 c-27 14 -41 10 -19 -5 13 -9 13 -10 0 -6 -21 6 -14 69 13
110 9 14 17 33 17 41 0 7 7 17 15 20 13 5 14 10 5 26 -14 26 4 119 33 175 9
17 8 18 -5 7 -14 -11 -16 -9 -16 10 -1 13 -4 38 -8 56 -5 24 -3 32 7 32 12 0
12 2 1 9 -11 7 -9 13 9 30 12 11 18 21 12 21 -8 0 -9 9 -4 28 12 43 7 98 -9
94 -10 -2 -11 0 -2 10 6 8 8 25 5 39 -6 24 -42 66 -54 62 -3 -1 -6 14 -7 33
-1 25 2 33 11 27 9 -5 9 -4 0 8 -8 9 -9 20 -3 29 14 21 12 64 -2 78 -9 9 -9
12 0 12 9 0 10 5 3 17 -5 9 -6 26 -1 37 11 30 11 178 -1 171 -5 -4 -9 -1 -9 4
0 6 6 11 13 11 8 0 7 4 -3 10 -13 8 -13 10 -1 10 12 0 12 3 3 12 -16 16 -16
52 0 42 7 -4 8 -3 4 5 -9 14 -26 5 -26 -15 0 -19 -14 -18 -31 2 -10 12 -10 20
-1 34 9 14 8 19 -3 24 -8 3 -15 1 -15 -4 0 -6 -4 -10 -8 -10 -5 0 -8 24 -8 53
1 34 -4 56 -14 65 -9 8 -10 11 -2 7 11 -6 11 -3 1 13 -7 12 -17 18 -21 16 -4
-3 -9 0 -9 5 -4 32 -20 62 -30 56 -4 -3 -17 12 -29 35 -11 22 -24 40 -29 40
-24 0 -21 -81 6 -134 8 -15 13 -37 10 -47 -3 -11 -1 -19 4 -19 5 0 9 -7 9 -15
0 -8 6 -24 13 -35 10 -17 9 -22 -3 -30 -13 -8 -13 -10 2 -10 17 0 30 -27 33
-70 0 -14 5 -23 9 -22 5 2 13 -2 17 -10 11 -17 11 -71 0 -64 -5 3 -15 -1 -22
-10 -7 -8 -8 -14 -3 -13 25 4 36 -2 31 -20 -7 -27 19 -35 36 -11 8 11 17 17
20 13 4 -3 7 2 7 12 0 10 2 16 5 13 12 -12 -7 -57 -21 -51 -10 4 -12 0 -8 -11
3 -9 10 -13 15 -10 5 3 9 -2 9 -10 0 -9 -6 -16 -12 -16 -8 0 -9 -3 -3 -8 14
-10 18 -69 6 -77 -6 -3 -11 -15 -11 -26 0 -11 -4 -18 -9 -14 -5 3 -12 1 -15
-4 -4 -5 -2 -12 4 -16 7 -4 6 -14 -2 -28 -7 -12 -11 -32 -9 -44 1 -13 -3 -23
-9 -23 -7 0 -10 -8 -8 -18 3 -10 -1 -23 -9 -30 -17 -16 -54 -6 -47 12 3 7 -2
20 -10 29 -9 9 -16 22 -16 31 0 8 -8 17 -18 20 -9 3 -23 15 -30 27 -12 18 -12
23 0 30 10 7 10 9 1 9 -7 0 -13 9 -13 19 0 11 -5 23 -10 26 -6 4 -8 11 -5 16
3 5 -1 6 -9 3 -10 -4 -16 5 -22 28 -4 18 -7 36 -6 41 2 7 -14 11 -31 8 -5 -1
-6 3 -2 9 3 6 11 8 16 5 5 -4 9 1 9 10 0 8 -10 20 -22 25 -13 5 -19 9 -14 9 6
1 2 7 -6 14 -12 8 -15 21 -11 39 3 15 9 26 13 23 4 -2 6 23 4 57 -2 42 -8 66
-18 74 -20 14 -20 22 -2 56 13 24 13 28 -3 33 -23 7 -51 -3 -51 -19 0 -6 -5
-3 -11 7 -6 9 -14 15 -20 12 -5 -4 -9 -1 -9 4 0 14 13 14 28 -1 9 -9 12 -9 12
-1 0 16 -33 25 -63 18 -17 -5 -26 -2 -30 9 -4 10 -1 16 7 16 8 0 17 7 20 16 5
14 4 15 -8 5 -11 -9 -15 -7 -20 11 -3 13 -6 33 -6 46 0 12 -5 22 -11 22 -7 0
-18 8 -26 18 -8 9 -12 11 -8 5 6 -13 -6 -17 -35 -13 -11 1 -10 -2 4 -13 10 -8
16 -19 12 -25 -4 -7 -3 -12 1 -12 5 0 9 -9 10 -20 2 -23 2 -23 -31 -10 -20 7
-27 19 -32 50 -4 22 -10 37 -14 35 -5 -3 -15 8 -23 24 -14 27 -13 30 7 39 17
9 18 11 4 11 -11 1 -18 9 -18 20 0 10 -7 24 -15 31 -8 7 -15 20 -16 29 0 10
-2 12 -6 3 -6 -15 -23 -6 -23 13 0 8 8 12 20 10 24 -5 25 3 4 26 -15 16 -14
17 8 12 12 -3 19 -2 15 2 -4 5 -13 10 -20 11 -7 1 -16 3 -22 5 -5 1 -27 -1
-47 -5 -30 -7 -44 -4 -75 15 -21 13 -41 23 -45 22 -11 -4 -49 49 -44 62 2 6
-8 12 -22 13 -14 1 -31 7 -38 13 -16 13 -19 -2 -4 -17 15 -15 -55 -10 -73 5
-8 6 -17 8 -20 4 -8 -7 -37 15 -37 29 0 5 6 6 13 2 6 -4 8 -3 4 1 -12 14 -38
15 -30 2 3 -7 -5 -2 -19 11 -13 12 -27 20 -30 17 -9 -9 -69 31 -60 40 4 5 2 5
-5 1 -6 -3 -14 -2 -18 4 -3 5 -15 10 -27 10 -17 0 -18 -2 -8 -15 11 -13 10
-14 -4 -9 -9 3 -16 10 -16 16 0 5 -4 6 -10 3 -5 -3 -10 0 -10 7 -1 9 -5 8 -14
-4 -12 -16 -14 -16 -29 3 -10 11 -22 17 -27 14 -6 -4 -7 1 -3 11 5 13 3 15 -7
9 -10 -6 -12 -4 -6 10 5 15 4 16 -8 6 -9 -7 -17 -8 -20 -2 -3 5 -24 12 -46 16
-22 4 -40 11 -40 16 0 5 -20 9 -45 9 -30 0 -47 5 -53 16 -6 11 -11 13 -16 5
-4 -6 -12 -11 -17 -11 -6 0 -8 4 -5 8 3 5 -6 20 -20 35 -13 14 -24 33 -24 42
0 8 -7 15 -15 15 -8 0 -12 6 -9 14 4 11 -1 14 -20 10 -17 -3 -26 0 -26 8 0 9
-3 10 -8 2 -4 -6 -25 -14 -46 -18 -42 -8 -93 -36 -66 -36 13 0 13 -2 0 -10
-13 -8 -12 -10 4 -10 11 0 17 -3 13 -6 -11 -11 -66 20 -71 40 -3 11 -8 17 -12
14 -3 -4 -20 2 -36 12 -30 18 -31 18 -51 -1 -22 -20 -52 -25 -61 -10 -3 5 -22
12 -41 15 -19 4 -35 11 -35 16 0 14 24 12 38 -2 9 -9 12 -9 12 0 0 7 6 12 13
12 8 0 14 7 14 15 0 20 -23 19 -31 -2 -5 -13 -9 -14 -19 -4 -9 9 -9 14 2 20
10 6 10 10 1 13 -7 2 -10 14 -8 27 l3 23 26 -20 25 -20 13 20 c9 15 20 19 39
15 24 -5 25 -4 9 8 -17 13 -17 14 2 20 12 3 21 14 21 23 0 13 11 17 46 19 25
1 52 7 60 14 8 6 20 9 28 6 8 -3 20 0 26 8 6 8 25 17 43 21 17 3 37 13 45 20
20 20 68 18 77 -3 6 -16 8 -16 18 -3 18 22 75 41 81 26 2 -6 5 -1 5 12 1 18
20 30 34 20 2 -2 11 3 20 10 9 8 21 11 26 8 5 -4 12 -2 16 4 3 5 16 10 29 10
12 0 26 3 30 7 11 11 49 14 55 5 3 -5 21 -5 39 0 33 9 43 32 17 42 -8 3 -15
10 -15 16 0 6 4 9 9 5 5 -3 13 0 17 6 4 7 3 9 -4 5 -6 -3 -14 -1 -18 5 -5 9
-1 10 17 4 36 -12 189 -9 189 5 0 3 -6 12 -12 19 -11 11 -10 12 1 6 10 -6 12
-4 7 4 -5 7 -14 10 -22 7 -17 -6 -19 20 -3 30 14 8 164 8 178 0 5 -3 8 -17 7
-31 -2 -13 0 -22 5 -20 4 3 14 -2 22 -10 9 -8 24 -15 34 -15 15 0 16 2 3 11
-11 8 -9 9 9 3 22 -6 37 -8 99 -13 7 -1 10 -5 7 -11 -9 -15 28 1 43 19 8 9 11
11 8 5 -3 -7 5 -19 19 -28 14 -9 25 -12 25 -7 0 5 11 12 24 15 17 4 23 11 20
23 -7 24 -44 71 -44 56 0 -7 -9 -13 -20 -13 -11 0 -19 -6 -17 -12 1 -7 -9 -14
-23 -16 -18 -2 -21 0 -12 6 11 7 8 11 -12 16 -14 3 -26 11 -26 17 0 7 6 6 17
-2 13 -11 15 -11 9 -1 -4 7 -18 17 -30 21 -14 6 0 9 44 9 44 0 58 -2 45 -8
-16 -7 -13 -8 15 -8 19 1 49 -6 66 -15 17 -9 35 -13 39 -9 4 4 5 -3 2 -15 -3
-16 -1 -23 9 -23 8 0 14 4 14 9 0 5 7 12 16 15 8 3 12 2 9 -4 -3 -6 -1 -10 5
-10 7 0 10 -6 7 -13 -3 -8 1 -14 9 -14 8 0 13 6 10 13 -3 9 2 9 21 -1 20 -11
31 -11 47 -3 21 12 21 12 -3 18 -31 7 -40 30 -12 30 11 0 23 5 27 11 4 8 9 7
16 -2 7 -10 8 -8 5 9 -3 12 -3 22 0 22 13 0 73 -33 73 -40 0 -4 9 -10 20 -13
11 -3 20 -11 20 -19 0 -10 -3 -9 -10 2 -6 10 -10 11 -10 3 0 -7 -1 -16 -2 -20
-2 -3 6 -7 17 -9 11 -2 30 -16 42 -31 13 -15 23 -24 23 -19 0 5 11 -1 24 -13
14 -13 29 -20 35 -16 6 3 11 -1 11 -10 0 -10 -5 -13 -12 -9 -10 6 -10 5 -1 -8
7 -8 9 -19 5 -24 -4 -4 1 -2 11 5 10 8 17 9 17 3 0 -12 26 -10 37 3 4 4 3 5
-4 1 -6 -3 -15 -1 -19 5 -4 7 -3 9 4 5 5 -3 13 0 15 6 3 7 8 -2 12 -19 4 -18
14 -38 23 -45 13 -11 15 -11 8 2 -4 8 1 5 12 -7 11 -13 26 -23 34 -24 7 0 4
-4 -7 -9 -19 -8 -19 -9 1 -9 12 -1 25 -8 28 -17 9 -22 8 -26 -5 -18 -7 4 -10
1 -7 -7 3 -8 11 -13 17 -11 6 1 14 -11 17 -28 4 -16 10 -30 15 -30 5 0 15 -12
23 -27 8 -16 15 -22 16 -15 0 10 3 10 14 0 8 -7 12 -16 9 -20 -2 -4 4 -5 13
-1 10 3 15 2 12 -3 -4 -5 7 -10 22 -11 23 -2 28 2 27 17 -1 14 -5 16 -13 9 -9
-7 -16 -5 -23 9 -6 11 -7 23 -3 27 4 5 2 5 -4 2 -15 -9 -38 19 -28 34 4 7 3 9
-3 6 -6 -4 -15 4 -21 17 -10 23 -8 24 26 31 56 9 72 15 72 26 0 6 -4 8 -9 4
-12 -7 -33 29 -23 40 4 5 1 5 -5 1 -7 -4 -13 -3 -13 3 0 5 -20 17 -45 27 -26
9 -55 28 -65 42 -23 28 -28 60 -7 45 17 -13 67 -15 67 -2 0 5 5 7 10 4 6 -4 8
-10 5 -15 -3 -5 3 -7 13 -5 24 4 49 -16 57 -48 4 -15 13 -27 21 -27 7 0 16
-11 20 -24 3 -15 11 -23 19 -20 8 3 12 -2 12 -13 -1 -10 5 -18 13 -18 8 0 20
-4 25 -10 14 -14 17 -58 3 -66 -7 -5 -7 -9 1 -13 6 -4 11 -3 11 3 0 22 57 -5
63 -30 3 -10 12 -19 20 -19 8 0 18 -7 21 -16 5 -12 1 -14 -16 -8 -17 5 -20 3
-15 -10 4 -10 1 -19 -6 -22 -13 -5 -16 -30 -6 -49 3 -6 11 -29 19 -52 7 -24
17 -43 22 -43 4 0 8 -7 8 -17 0 -16 56 -73 73 -73 5 0 20 9 34 20 19 14 21 20
10 20 -10 0 -14 6 -11 14 3 9 -11 31 -35 54 -43 42 -49 57 -28 66 6 3 2 3 -11
0 -18 -4 -25 -1 -29 16 -4 13 -11 19 -20 16 -10 -4 -13 0 -11 16 2 12 9 24 17
26 9 3 12 0 9 -10 -4 -9 2 -14 21 -16 14 -1 31 -9 37 -17 13 -18 28 -20 18 -2
-5 8 -2 8 9 -2 19 -15 23 -26 6 -16 -14 9 -7 -26 9 -43 11 -12 15 -12 29 0 12
9 17 10 20 2 2 -7 13 -9 25 -6 17 4 20 2 14 -13 -5 -14 -4 -16 7 -7 8 7 16 9
19 7 3 -3 4 6 2 20 -1 15 2 25 9 22 6 -2 11 -13 12 -26 1 -13 8 -27 16 -32 12
-8 12 -10 0 -18 -10 -6 -10 -10 -1 -13 8 -2 13 -27 14 -65 0 -34 -2 -59 -6
-56 -5 2 -8 19 -8 38 0 31 -2 33 -26 29 -17 -3 -23 -1 -19 6 5 8 2 9 -11 1
-11 -5 -26 -12 -36 -15 -14 -4 -15 -11 -7 -48 6 -24 14 -44 20 -46 5 -2 9 -8
9 -13 0 -6 -4 -8 -9 -5 -5 4 -7 -4 -3 -16 4 -16 2 -19 -9 -13 -11 6 -11 5 -2
-5 13 -14 37 -4 27 12 -4 7 -2 8 4 4 16 -9 15 -37 0 -33 -6 1 -14 -6 -16 -17
-2 -11 0 -16 7 -12 6 4 15 -4 21 -18 12 -34 18 -33 14 2 l-4 27 9 -28 c5 -15
20 -36 33 -47 20 -16 21 -21 9 -32 -12 -11 -13 -11 -6 1 5 9 4 12 -3 7 -15 -9
-15 -43 0 -52 7 -5 8 -3 3 6 -5 8 -3 11 6 8 9 -3 14 -19 14 -45 0 -23 3 -39 6
-37 13 8 47 -64 48 -100 2 -58 4 -65 12 -60 15 9 37 -38 35 -76 0 -21 2 -36 6
-34 11 7 5 -40 -7 -48 -6 -5 -3 -8 7 -8 10 0 17 -3 17 -7 -3 -20 2 -34 11 -28
6 3 10 0 10 -9 0 -8 -3 -16 -7 -19 -5 -2 -3 -2 4 -1 16 4 25 -28 29 -98 3 -61
10 -82 24 -73 12 7 22 -28 14 -51 -4 -10 -14 -27 -23 -37 -17 -21 -24 -50 -9
-41 7 5 8 -6 4 -32 -8 -47 -8 -183 0 -195 3 -5 -1 -9 -8 -9 -9 0 -9 -3 2 -10
8 -5 11 -10 5 -10 -18 0 -14 -72 6 -94 11 -11 20 -28 20 -38 2 -26 3 -32 12
-45 5 -7 5 -18 2 -23 -8 -13 19 -40 31 -32 13 9 36 86 40 134 2 20 13 54 23
75 13 26 19 56 18 93 -1 30 1 60 6 65 4 6 16 21 27 34 20 24 24 34 21 61 -1 9
1 11 6 5 4 -5 15 -11 24 -13 12 -2 17 5 15 23 0 14 -5 25 -9 25 -5 0 -5 4 -2
10 14 22 38 133 44 198 1 8 6 10 14 6 9 -6 9 -4 0 7 -15 16 -17 85 -3 94 6 3
10 12 10 18 0 7 -4 6 -10 -3 -7 -11 -10 -3 -10 29 0 30 5 48 18 57 16 12 16
12 -3 11 -17 -2 -19 3 -16 38 1 22 7 47 12 55 6 10 8 6 5 -15 -2 -16 -1 -23 1
-15 3 8 9 20 14 26 5 6 3 16 -4 23 -9 10 -9 12 3 9 9 -2 14 3 11 12 -2 8 -4
22 -4 30 0 8 -4 18 -10 21 -6 4 -4 16 6 29 14 20 14 24 1 37 -11 12 -12 18 -3
29 10 12 9 13 -6 8 -12 -5 -16 -4 -12 3 4 6 1 14 -5 16 -10 4 -9 8 2 16 13 9
13 11 1 11 -12 0 -12 3 -3 12 14 14 16 42 2 33 -14 -9 -12 8 3 24 10 11 9 12
-3 6 -10 -6 -8 -1 4 13 17 19 17 22 3 22 -10 0 -17 5 -17 11 0 5 5 7 10 4 6
-3 10 1 10 10 0 9 -4 13 -10 10 -17 -11 -15 51 2 73 8 9 7 11 -4 7 -12 -5 -14
0 -11 19 3 14 9 26 13 26 4 0 10 9 13 20 3 11 1 20 -4 20 -5 0 -10 -8 -10 -17
-1 -10 -5 0 -8 22 -9 51 -4 64 23 71 13 3 23 11 24 17 9 77 9 147 1 147 -6 0
-8 4 -4 10 3 5 8 37 11 72 3 35 6 68 8 73 2 6 -5 12 -17 12 -11 1 -23 7 -27
13 -3 5 -31 38 -61 71 -30 33 -66 74 -80 90 -23 27 -27 28 -39 14 -10 -12 -10
-15 -1 -13 18 4 54 -64 40 -73 -7 -4 -9 -11 -5 -17 7 -11 -17 -23 -36 -18 -7
1 -10 1 -6 -1 4 -3 1 -11 -7 -20 -19 -19 -19 -33 0 -33 8 0 15 -5 15 -11 0 -5
-6 -7 -12 -3 -10 6 -10 4 0 -8 7 -9 17 -30 22 -47 7 -24 5 -31 -5 -31 -8 0
-16 -4 -19 -9 -3 -5 2 -8 11 -7 10 0 18 -7 20 -19 1 -11 0 -14 -3 -7 -3 6 -13
12 -22 12 -10 0 -13 -3 -7 -8 6 -4 15 -17 22 -28 9 -18 9 -26 -3 -40 -11 -15
-13 -15 -8 -3 3 10 1 20 -5 24 -6 3 -11 0 -11 -7 0 -10 -2 -10 -9 1 -5 8 -8
23 -6 33 2 11 -2 18 -11 18 -8 0 -14 5 -14 10 0 6 -8 20 -19 31 -20 21 -35 75
-25 90 3 5 -2 6 -10 3 -11 -4 -19 3 -27 22 -6 16 -17 36 -25 46 -9 9 -17 36
-19 60 -2 23 -1 35 2 26 2 -10 11 -18 19 -18 9 0 12 -5 8 -12 -4 -7 -4 -10 1
-6 4 4 15 2 23 -5 9 -6 13 -7 10 -2 -7 12 17 37 27 27 3 -4 1 7 -5 23 -6 17
-11 32 -11 35 1 3 -6 13 -15 24 -9 10 -14 29 -11 42 2 14 0 27 -4 30 -5 3 -9
17 -9 32 0 15 -9 35 -20 45 -12 10 -17 23 -13 33 4 11 2 15 -4 11 -13 -8 -26
20 -16 35 3 6 2 8 -4 5 -12 -7 -46 60 -37 74 3 6 -2 16 -12 23 -11 8 -15 19
-11 31 6 13 3 16 -9 11 -13 -5 -15 -1 -11 20 6 32 -16 89 -40 103 -10 5 -18
22 -19 38 -1 26 -4 28 -41 25 -34 -2 -43 2 -57 22 -8 14 -26 26 -38 28 -14 2
-22 9 -21 18 2 10 -6 16 -22 16 l-25 2 25 -20 c28 -22 32 -35 11 -35 -8 0 -14
5 -13 11 1 6 -6 10 -15 8 -10 -2 -18 3 -18 11 0 7 -14 23 -30 36 -17 12 -28
26 -25 32 4 5 2 9 -4 9 -5 0 -13 -5 -16 -11 -5 -7 -12 -6 -23 4 -19 15 -98 54
-122 59 -8 2 -27 15 -43 31 -15 15 -31 27 -35 27 -4 0 -18 10 -32 23 -14 13
-32 21 -39 19 -10 -3 -12 0 -8 11 3 9 2 19 -3 22 -4 3 -11 -1 -13 -7 -4 -10
-6 -10 -6 0 -1 6 -8 12 -16 12 -9 0 -18 7 -21 15 -4 10 -14 13 -30 9 -22 -6
-29 2 -25 29 0 4 -6 7 -15 7 -9 0 -12 -5 -8 -12 4 -7 -4 -3 -17 8 -13 12 -35
27 -48 34 l-24 12 32 14 c26 11 38 11 54 2 35 -19 65 -17 59 4 -2 10 -11 18
-18 18 -8 0 -14 6 -14 13 0 11 -49 47 -120 87 -22 13 -24 18 -13 29 7 6 11 17
7 23 -4 6 0 14 7 19 9 6 10 9 2 9 -6 0 -14 -4 -18 -10 -3 -5 -12 -7 -20 -3 -9
3 -15 -1 -15 -8 0 -10 -3 -10 -11 -2 -6 6 -18 9 -25 6 -8 -3 -14 -1 -14 5 0 5
7 12 15 16 8 3 15 13 15 22 0 13 -6 15 -32 10 -18 -4 -34 -11 -36 -16 -2 -6
-10 -10 -18 -10 -8 0 -14 -7 -14 -16 0 -13 -3 -14 -15 -4 -8 7 -22 10 -30 6
-8 -3 -15 -2 -15 2 0 4 -8 9 -17 9 -64 7 -153 27 -153 35 0 5 -6 8 -12 7 -25
-3 -39 1 -33 10 3 5 1 12 -5 16 -5 3 -10 1 -10 -5 0 -8 -6 -9 -17 -5 -10 5
-47 9 -83 10 -36 1 -78 8 -95 16 -44 19 -102 19 -100 -1 0 -8 5 -22 10 -29 5
-9 4 -12 -3 -7 -6 3 -13 2 -16 -3 -8 -12 20 -22 42 -15 14 5 15 4 2 -5 -13 -9
-13 -13 4 -28 10 -10 16 -12 12 -5 -4 7 -2 12 6 13 7 1 29 3 48 5 96 11 128
11 163 3 32 -9 37 -13 37 -40 0 -17 4 -28 9 -25 4 3 16 -3 26 -14 10 -11 28
-20 39 -20 41 0 66 -12 66 -32 0 -12 -4 -17 -12 -12 -7 4 -8 3 -4 -4 12 -19
-3 -35 -20 -21 -11 9 -18 8 -30 -2 -9 -8 -27 -12 -39 -11 -14 2 -32 -6 -44
-19 -20 -22 -21 -22 -21 -3 0 13 -7 20 -20 21 -11 1 -20 -3 -20 -8 0 -6 4 -8
9 -5 9 6 21 -15 21 -36 0 -17 -33 -4 -36 15 -8 54 -31 62 -62 22 -20 -25 -46
-26 -55 -2 -2 7 -3 5 -2 -3 3 -20 -16 -37 -49 -46 -14 -3 -26 -10 -26 -14 0
-10 -26 -7 -36 3 -11 10 -66 9 -60 -2 3 -5 -20 -7 -52 -4 -31 3 -79 4 -107 3
-27 -1 -75 -2 -105 -3 -30 -1 -58 -6 -62 -12 -5 -6 -12 -4 -18 5 -6 9 -10 10
-10 3 0 -6 -13 -11 -30 -11 -16 1 -30 5 -30 10 0 5 -8 4 -18 -1 -11 -6 -24 -6
-33 0 -26 16 -68 10 -79 -12 -7 -12 -18 -18 -26 -15 -8 3 -18 -4 -25 -15 -6
-11 -13 -18 -16 -16 -2 3 -21 -6 -41 -20 -31 -21 -38 -22 -40 -9 -4 20 -18 21
-26 0 -3 -8 -10 -13 -15 -10 -5 3 -14 -1 -21 -10 -7 -8 -20 -12 -28 -9 -12 4
-13 3 -2 -10 10 -12 9 -16 -3 -21 -9 -3 -14 -11 -11 -18 2 -6 -7 -22 -21 -34
-26 -23 -40 -29 -30 -13 9 15 -14 24 -29 11 -11 -8 -15 -8 -19 2 -4 8 -8 5
-12 -9 -4 -13 -10 -23 -14 -23 -3 0 -6 -16 -6 -35 0 -19 5 -35 10 -35 6 0 3
-4 -5 -9 -8 -6 -18 -7 -23 -4 -5 3 -6 -3 -3 -13 4 -14 -6 -30 -34 -58 -22 -21
-40 -45 -40 -53 0 -8 -4 -11 -10 -8 -5 3 -7 0 -4 -8 3 -8 1 -18 -5 -22 -6 -3
-11 -15 -11 -26 0 -13 -4 -18 -12 -13 -7 4 -10 4 -6 -1 13 -14 -11 -45 -30
-39 -14 5 -15 4 -2 -5 13 -10 8 -18 -28 -50 -27 -25 -38 -41 -30 -44 10 -4 10
-6 1 -6 -7 -1 -13 -7 -13 -15 0 -8 -8 -13 -17 -11 -10 1 -28 -4 -40 -11 -20
-13 -23 -13 -23 1 0 18 -12 19 -29 3 -10 -11 -11 -10 -6 3 4 10 0 19 -9 22 -9
4 -17 2 -17 -3 -1 -6 -2 -16 -3 -22 -1 -16 -46 -19 -46 -4 0 6 -8 20 -17 31
-12 15 -14 16 -10 3 7 -21 -18 -45 -29 -27 -4 7 -2 15 4 17 7 2 9 8 6 14 -4 6
-1 14 6 18 7 4 13 27 14 50 0 25 6 45 14 48 8 2 10 -2 5 -14 -4 -12 -2 -15 8
-12 8 3 13 14 11 26 -2 12 2 22 8 22 6 0 8 5 5 10 -10 17 -35 11 -35 -7 0 -14
-2 -15 -9 -4 -6 9 -10 10 -12 2 -3 -7 -12 -9 -23 -5 -14 5 -15 9 -4 15 10 7
10 9 1 9 -7 0 -13 7 -13 16 0 14 3 14 15 4 8 -7 15 -9 15 -4 0 5 5 2 11 -6 7
-10 9 -11 7 -2 -2 8 -6 12 -9 10 -12 -7 -42 36 -44 64 -2 24 2 29 16 25 10 -3
20 2 23 10 9 21 8 22 -14 18 -11 -2 -22 0 -25 5 -8 14 25 61 38 53 5 -3 7 -1
4 4 -4 6 9 26 28 46 19 20 35 42 35 50 0 8 9 22 20 32 11 10 20 15 20 10 0 -4
9 3 21 16 16 20 18 20 11 4 -20 -43 10 -72 41 -41 12 12 35 31 51 44 22 17 26
25 17 35 -6 8 -8 16 -5 19 3 4 -9 9 -26 13 -34 7 -51 32 -30 45 8 5 10 19 5
41 -4 22 -3 29 3 21 13 -20 24 8 34 86 1 6 5 12 10 12 4 0 8 9 8 20 0 11 5 20
11 20 5 0 7 5 4 10 -3 6 -2 10 3 10 5 0 15 13 22 29 6 16 18 32 27 35 8 3 12
10 9 15 -8 12 62 73 75 65 5 -3 9 -2 8 3 -4 15 13 63 22 63 15 0 5 43 -13 62
-19 19 -33 24 -24 9 3 -5 -1 -12 -10 -15 -11 -4 -18 1 -21 14 -5 21 -33 28
-33 9 0 -5 4 -8 9 -5 10 7 23 -19 14 -28 -4 -3 -17 10 -31 30 -16 24 -27 32
-32 24 -5 -8 -9 -5 -13 9 -3 12 -1 21 3 21 5 0 12 9 15 20 6 20 7 20 25 -2 11
-13 19 -18 20 -11 0 6 -5 13 -11 15 -20 7 0 46 27 52 18 5 24 12 20 22 -3 9
-1 12 4 9 6 -3 10 1 10 10 0 9 9 19 20 22 11 3 20 10 20 16 0 16 54 58 68 52
7 -3 11 -1 8 4 -6 9 115 127 126 123 5 -1 7 4 6 10 -2 9 13 14 45 16 26 2 45
7 42 12 -7 11 63 60 85 60 18 0 80 65 80 84 0 7 5 17 12 24 10 10 5 11 -22 7
-44 -8 -19 10 26 18 23 4 33 1 42 -14 7 -11 10 -24 7 -29 -4 -6 2 -10 12 -10
14 0 15 -2 4 -9 -9 -6 -10 -11 -2 -15 6 -4 9 -12 6 -17 -3 -5 1 -6 9 -3 9 3
16 2 16 -4 0 -5 7 -13 16 -16 12 -4 15 -2 11 9 -4 8 -1 17 5 21 7 4 8 3 4 -4
-4 -7 -1 -12 8 -12 10 0 13 6 10 15 -4 9 0 15 10 15 9 0 16 5 16 10 0 6 7 10
16 8 22 -4 30 40 9 48 -8 4 -15 12 -15 20 0 8 -3 13 -7 12 -10 -3 -53 34 -53
44 0 5 7 8 15 8 24 0 17 20 -7 21 -22 1 -22 1 3 12 14 7 32 17 40 24 8 6 26
13 40 15 23 3 63 30 109 72 8 8 33 16 56 18 33 4 43 1 53 -14 7 -11 15 -17 18
-14 4 3 12 1 20 -5 9 -9 13 -8 13 0 0 6 9 11 21 11 11 0 17 -4 14 -10 -3 -6 1
-7 9 -4 15 6 21 -17 19 -73 -1 -7 3 -11 7 -8 10 6 32 -20 24 -28 -3 -3 12 -11
34 -17 22 -5 42 -16 45 -23 3 -9 7 -9 19 0 11 10 17 10 28 0 10 -9 11 -9 6 1
-5 7 -1 12 11 12 12 0 14 3 6 8 -6 4 -17 20 -22 35 -6 16 -15 25 -21 22 -5 -3
-10 -1 -10 5 0 6 -6 10 -12 9 -7 -1 -21 1 -30 4 -10 4 -25 9 -34 12 -8 3 -12
10 -8 16 4 7 3 9 -4 5 -6 -3 -13 -2 -16 3 -10 15 17 18 62 6 24 -6 39 -15 35
-19 -4 -5 1 -4 12 1 11 6 26 8 33 5 8 -2 25 1 38 8 18 10 27 10 38 1 20 -17
76 -32 76 -20 0 5 16 9 36 9 26 0 33 -3 27 -12 -4 -7 7 -2 24 12 18 14 32 29
32 34 1 5 -6 2 -15 -5 -14 -11 -19 -10 -36 11 -11 14 -22 23 -25 22 -3 -2 -7
-1 -11 3 -3 3 4 8 17 12 14 4 20 11 17 20 -3 8 -6 19 -6 25 0 6 -7 8 -15 4 -8
-3 -15 -1 -15 4 0 6 -12 10 -26 10 -16 0 -23 4 -18 11 5 8 1 8 -14 0 -24 -13
-93 -11 -85 2 3 5 16 7 29 4 13 -2 21 -1 19 3 -7 11 51 16 125 10 41 -3 72 -1
85 7 15 9 33 9 70 1 28 -5 58 -11 69 -12 10 -1 22 -10 27 -19 5 -9 16 -14 23
-11 8 3 17 0 21 -6 6 -9 10 -9 17 1 7 10 11 11 14 3 3 -7 14 -10 24 -7 14 4
20 0 20 -11 0 -9 8 -16 18 -16 14 0 15 2 2 10 -13 8 -12 10 3 10 9 0 17 -4 17
-10 0 -5 8 -10 18 -10 12 0 13 3 5 8 -9 6 -7 11 7 20 16 9 18 9 14 -2 -8 -20
14 -30 32 -15 11 9 18 9 22 2 4 -6 20 -11 36 -11 15 0 31 -3 35 -8 9 -13 49
-34 63 -34 9 0 8 3 -2 10 -13 8 -13 10 2 10 9 0 19 -4 23 -10 3 -5 13 -6 22
-3 9 4 21 -1 29 -12 12 -15 15 -16 28 -2 8 8 12 17 9 21 -12 11 14 6 45 -10
18 -8 32 -22 32 -30 0 -8 5 -14 11 -14 5 0 7 6 3 13 -4 6 2 4 13 -5 11 -10 23
-18 28 -18 4 0 14 -8 21 -17 9 -12 13 -14 14 -5 0 7 4 11 9 8 4 -3 7 -17 5
-32 -1 -14 1 -23 4 -19 4 4 7 12 7 17 0 6 5 13 12 15 7 3 9 -3 6 -16 -4 -17
-1 -21 17 -21 18 0 20 -3 11 -14 -9 -11 -9 -16 0 -22 8 -4 9 -3 5 4 -4 7 -3
12 3 12 5 0 14 -8 20 -17 9 -17 12 -16 33 6 13 14 16 19 7 13 -13 -10 -19 -9
-29 3 -11 13 -7 15 24 15 21 0 35 -4 31 -9 -3 -6 4 -8 15 -6 13 3 23 -2 27
-13 4 -9 17 -25 30 -35 13 -10 23 -25 23 -33 0 -8 8 -14 18 -14 14 0 15 -2 2
-10 -13 -9 -13 -10 0 -10 8 0 21 9 27 19 11 17 8 26 -22 61 -19 23 -35 38 -35
33 0 -4 -4 -3 -8 2 -4 6 -19 16 -34 24 -28 14 -37 31 -18 31 6 0 10 -4 10 -10
0 -5 5 -10 12 -10 9 0 9 3 0 12 -8 8 -8 17 -1 32 9 20 9 20 -4 3 -11 -13 -16
-14 -19 -6 -2 7 -20 18 -39 25 -19 6 -33 16 -32 22 1 5 -7 8 -19 4 -13 -3 -19
-1 -15 5 4 6 -3 8 -17 6 -14 -3 -32 0 -43 6 -16 9 -16 10 -1 11 23 0 11 39
-16 51 -24 10 -139 79 -209 124 -25 16 -48 38 -51 48 -2 10 -9 16 -15 12 -6
-3 -11 -3 -11 2 0 4 -25 21 -55 37 -30 15 -57 37 -60 47 -4 10 -14 19 -24 19
-10 0 -24 7 -31 15 -7 8 -20 15 -30 15 -9 0 -20 3 -24 7 -3 4 -36 16 -72 28
-47 15 -70 29 -80 46 -9 16 -13 19 -14 8 0 -11 -10 -16 -35 -17 -19 -1 -37 2
-39 7 -3 5 -29 7 -58 6 -29 -1 -61 2 -72 8 -14 7 -17 6 -11 -4 6 -9 3 -10 -11
-5 -10 4 -32 10 -47 13 -16 3 -31 12 -34 19 -3 7 -21 16 -41 19 -37 6 -69 18
-107 38 -11 6 -31 16 -45 24 -14 7 -40 13 -57 13 -18 0 -33 4 -33 8 0 10 -6
11 -73 16 -27 2 -54 9 -60 16 -9 10 -9 11 2 5 9 -5 12 -4 7 3 -4 7 -18 12 -32
12 -14 0 -22 -4 -19 -10 3 -5 1 -10 -4 -10 -6 0 -11 5 -11 10 0 6 -5 10 -11
10 -5 0 -8 -4 -5 -8 3 -5 -19 -10 -48 -11 -46 -1 -54 1 -59 19 -3 11 -11 20
-19 20 -10 0 -9 -3 2 -10 11 -7 7 -10 -17 -10 -18 0 -33 5 -33 11 0 5 -8 9
-17 8 -10 -2 -31 0 -48 4 -17 4 -65 1 -108 -8 -44 -8 -83 -12 -88 -9 -5 3 -8
0 -7 -7 2 -6 -3 -14 -11 -17 -9 -3 -11 0 -6 8 5 9 4 11 -4 6 -6 -4 -9 -11 -6
-16 7 -11 -47 -45 -67 -42 -13 2 -18 -3 -18 -18 0 -13 4 -19 11 -14 7 4 9 2 5
-7 -3 -8 -9 -21 -12 -30 -7 -19 -46 -39 -75 -39 -11 0 -17 -4 -14 -10 3 -5 0
-10 -8 -10 -7 0 -14 7 -14 15 0 8 7 15 16 15 12 0 13 2 2 13 -11 10 -14 9 -18
-1 -3 -6 -10 -9 -16 -5 -7 4 -7 0 1 -9 11 -14 10 -18 -10 -29 -13 -8 -25 -14
-28 -14 -25 -4 -50 -19 -50 -28 0 -8 -3 -7 -9 2 -11 16 -34 5 -24 -12 4 -7 -1
-6 -10 2 -15 12 -17 12 -11 -3 4 -11 1 -16 -10 -16 -9 0 -16 -4 -16 -9 0 -5
-9 -11 -20 -14 -16 -4 -18 -2 -10 13 9 16 7 17 -15 6 -14 -6 -23 -16 -21 -22
2 -5 -12 -11 -32 -12 -20 -2 -44 -9 -53 -17 -8 -8 -19 -15 -22 -15 -18 0 -47
-43 -47 -68 0 -18 -5 -29 -15 -29 -8 0 -12 4 -9 9 3 4 -5 6 -18 4 -13 -3 -27
-5 -31 -5 -5 -1 -6 -5 -3 -10 9 -13 -41 -20 -55 -7 -9 8 -10 8 -5 -1 4 -8 1
-13 -8 -13 -24 0 -31 39 -9 55 10 8 24 15 31 15 10 0 10 3 -2 15 -8 8 -21 12
-29 9 -9 -3 -20 3 -26 15 -14 26 -14 34 2 25 6 -4 9 -3 4 1 -4 5 -35 10 -70
12 -51 2 -68 -1 -83 -15 -11 -10 -25 -17 -32 -14 -8 2 -12 -2 -11 -9 4 -20
-11 -59 -23 -59 -17 0 -3 -23 16 -26 9 -1 40 10 68 24 36 19 53 23 56 14 2 -6
13 -12 24 -12 21 0 21 0 2 -21 l-19 -21 -17 22 c-10 12 -18 18 -18 13 0 -5 6
-15 13 -22 10 -11 8 -12 -10 -6 -19 5 -22 3 -16 -11 5 -14 2 -16 -15 -12 -13
4 -20 2 -16 -3 3 -6 -5 -21 -18 -34 -36 -36 -48 -53 -48 -67 -1 -16 -25 -49
-32 -43 -3 3 -11 -2 -19 -12 -9 -11 -10 -14 -1 -9 6 4 12 3 12 -2 0 -6 -7 -12
-15 -16 -8 -3 -15 -12 -15 -21 0 -12 4 -14 19 -5 18 9 19 7 15 -18 -8 -46 -15
-63 -25 -57 -5 4 -9 1 -9 -4 0 -6 5 -11 11 -11 5 0 7 -5 4 -10 -4 -7 3 -10 19
-8 26 4 48 18 27 18 -7 0 -10 4 -7 9 8 13 57 11 49 -3 -3 -6 0 -6 8 2 9 8 10
15 3 22 -12 12 -6 70 7 70 16 0 20 -21 8 -38 -12 -16 -12 -16 6 0 14 13 16 20
7 31 -10 11 -9 17 3 27 10 9 15 9 15 1 0 -6 6 -11 14 -11 11 0 10 -8 -5 -40
-21 -43 -59 -87 -72 -82 -4 1 -6 -1 -5 -5 8 -39 -53 -95 -84 -77 -10 6 -10 4
0 -9 19 -23 7 -40 -19 -27 -10 6 -19 7 -18 3 5 -27 -3 -35 -28 -30 -26 5 -26
4 -8 -9 10 -8 13 -14 7 -14 -7 0 -11 -6 -10 -12 2 -7 -3 -12 -10 -10 -8 1 -11
-2 -7 -8 4 -7 -2 -14 -14 -17 -12 -3 -21 -10 -21 -15 0 -5 -4 -6 -10 -3 -5 3
-10 0 -10 -7 0 -10 -2 -10 -9 1 -7 11 -10 9 -16 -8 -3 -11 -10 -21 -14 -21
-14 0 -46 -34 -59 -62 -13 -31 -42 -38 -42 -10 0 13 -2 14 -9 3 -7 -11 -11
-10 -21 5 -11 18 -11 18 -6 1 3 -10 6 -25 6 -33 0 -8 6 -11 15 -8 9 4 15 0 15
-10 0 -9 -5 -16 -10 -16 -6 0 -9 -4 -8 -8 4 -12 -43 -73 -51 -68 -3 2 -7 -7
-8 -21 0 -14 -7 -30 -13 -37 -10 -8 -12 -6 -7 11 3 14 -1 24 -10 27 -19 8 -33
-1 -28 -17 3 -7 -8 -21 -25 -32 -29 -19 -57 -65 -65 -104 -5 -27 41 -47 55
-23 10 16 10 15 8 -2 -2 -10 3 -20 10 -22 7 -1 8 0 2 3 -6 3 -6 12 2 26 l12
22 6 -25 c7 -27 2 -52 -9 -46 -4 3 -13 0 -21 -5 -11 -7 -8 -8 12 -5 20 3 31
-1 43 -20 8 -13 11 -24 5 -24 -5 0 -10 -9 -10 -20 0 -11 -3 -20 -7 -20 -5 0
-13 -11 -20 -25 -8 -19 -8 -25 0 -25 9 0 9 -3 0 -8 -10 -6 -9 -14 2 -36 18
-35 19 -56 3 -56 -10 0 -9 -3 1 -9 17 -11 17 -92 -1 -106 -8 -5 -24 -25 -37
-43 -22 -32 -23 -34 -5 -47 18 -14 18 -15 -5 -34 -14 -10 -33 -16 -45 -13 -20
4 -20 4 -2 -10 17 -13 16 -14 -12 -12 -23 1 -32 -3 -35 -18 -4 -12 -10 -17
-17 -13 -9 6 -9 2 -1 -14 12 -22 0 -61 -20 -61 -6 0 -7 -13 -4 -33 5 -24 2
-39 -9 -49 -8 -9 -12 -18 -9 -22 4 -3 2 -6 -4 -6 -6 0 -10 -11 -9 -24 0 -13 5
-22 10 -18 6 3 6 -2 1 -14 -5 -10 -9 -40 -9 -66 0 -27 -3 -48 -7 -48 -10 0
-26 -72 -28 -127 -1 -16 -7 -23 -21 -23 -11 0 -20 4 -20 9 0 13 -73 8 -77 -6
-2 -6 3 -17 10 -25 12 -11 12 -19 3 -37 -12 -21 -13 -21 -29 -3 -9 10 -14 22
-10 27 5 4 -2 6 -14 3 -17 -5 -23 0 -28 20 -4 16 -2 28 4 30 6 2 9 8 6 13 -4
5 0 6 8 3 8 -3 18 -1 22 5 3 6 1 11 -4 11 -18 0 -12 28 7 33 15 4 15 5 1 6
-26 2 -80 -54 -74 -76 3 -10 -2 -3 -10 15 -8 17 -21 32 -28 32 -7 1 -5 6 6 14
14 11 15 15 5 19 -8 4 -7 6 5 6 10 1 20 -6 23 -14 4 -8 10 -12 15 -9 5 3 6 10
3 16 -4 7 -2 8 4 4 7 -4 12 -1 12 8 0 9 8 16 18 17 14 0 14 2 -3 8 -11 5 -23
7 -27 4 -16 -9 -7 10 10 23 16 13 16 13 -2 14 -13 0 -17 5 -13 19 3 13 1 18
-8 14 -10 -3 -12 2 -8 16 4 17 2 20 -13 14 -13 -5 -16 -3 -11 9 3 10 0 19 -9
22 -8 3 -14 16 -14 28 0 19 -2 20 -10 8 -6 -9 -10 -10 -10 -3 0 7 7 16 16 21
22 12 8 35 -16 29 -23 -6 -33 15 -17 34 7 8 0 3 -15 -10 -15 -13 -25 -28 -22
-32 3 -5 0 -9 -5 -9 -6 0 -11 5 -11 10 0 6 -6 10 -14 10 -16 0 -96 75 -96 91
0 6 -9 9 -19 6 -12 -3 -22 1 -25 10 -9 21 -7 25 6 17 7 -4 8 -3 4 4 -4 6 -13
9 -20 6 -16 -6 -31 12 -40 46 -3 14 -3 19 0 12 3 -6 10 -10 15 -6 5 3 9 -4 9
-15 0 -21 11 -27 23 -14 4 3 1 13 -6 21 -10 13 -9 14 1 8 10 -6 11 -1 6 21 -4
15 -11 32 -15 37 -5 6 -9 19 -9 30 0 19 0 19 -14 1 -12 -17 -14 -17 -23 -1 -5
10 -13 17 -16 17 -4 -1 -11 -1 -16 -1 -9 0 -24 88 -21 130 5 107 4 132 -6 141
-6 5 -15 5 -19 1 -5 -4 -5 -1 -1 6 5 7 14 11 20 9 7 -3 13 1 13 9 0 10 -7 12
-21 8 -14 -3 -17 -2 -8 3 7 5 10 23 8 41 -2 20 2 33 11 36 8 3 11 11 7 17 -5
8 -9 8 -14 -1 -5 -8 -9 -5 -13 9 -3 12 0 21 6 21 7 0 5 5 -5 10 -9 6 -14 18
-11 28 3 11 -7 31 -25 50 -23 24 -26 32 -14 37 8 3 11 12 8 20 -3 8 0 15 6 15
6 0 9 3 5 6 -3 3 -2 16 3 29 8 22 -6 95 -23 111 -12 12 -8 36 5 28 7 -5 9 -2
5 9 -3 8 1 21 8 27 8 7 12 17 8 24 -5 8 -3 8 8 -1 11 -9 14 -7 16 13 2 13 4
34 5 47 1 12 8 28 15 35 7 7 13 24 13 37 0 13 10 31 22 39 17 12 21 24 20 62
l-2 47 20 -24 20 -24 -15 30 c-8 17 -15 36 -15 43 0 6 -6 11 -12 10 -9 -2 -12
7 -10 27 1 17 2 39 2 50 1 11 8 27 16 36 10 11 12 19 5 24 -6 3 -11 11 -11 16
0 6 5 7 10 4 6 -3 10 -1 10 5 0 6 6 8 13 5 6 -4 4 0 -5 8 -10 8 -18 19 -18 26
0 6 -7 11 -15 11 -21 0 -19 8 10 46 26 35 76 70 59 42 -6 -11 -5 -11 8 0 12 9
17 10 20 1 4 -11 78 26 78 40 0 18 -15 20 -32 4 -10 -9 -18 -13 -18 -8 0 4 -7
1 -17 -6 -15 -13 -15 -12 -5 8 15 28 15 34 -1 27 -8 -3 -14 2 -14 10 0 8 4 13
8 10 13 -7 49 34 49 55 0 11 -6 21 -12 23 -7 3 -2 7 10 10 13 4 22 2 22 -5 1
-7 7 3 16 22 12 28 12 36 2 43 -10 6 -8 8 4 8 10 0 15 5 12 13 -9 23 14 67 35
67 11 0 28 11 38 25 10 14 30 27 43 29 36 4 60 16 60 30 0 28 97 84 116 68 4
-4 4 -1 0 6 -4 6 -3 12 2 12 6 0 9 8 8 18 0 9 4 16 11 15 6 -1 14 4 17 13 4
10 2 13 -7 8 -6 -4 2 6 18 22 17 16 33 28 37 26 4 -1 5 4 2 12 -3 7 3 22 13
32 17 17 17 17 1 11 -14 -5 -18 -1 -18 15 0 16 3 18 14 9 12 -10 14 -9 11 6
-2 10 -4 18 -5 18 -1 0 -3 11 -5 25 -5 32 15 111 26 104 5 -3 6 3 2 12 -5 13
-3 15 7 9 8 -5 11 -4 6 3 -3 6 2 25 13 43 11 18 18 36 15 41 -3 4 2 11 10 14
9 3 13 10 10 16 -3 5 11 25 32 45 34 32 39 34 45 17 11 -28 11 -31 -7 -48 -8
-9 -11 -16 -7 -16 5 0 19 11 31 25 13 14 26 24 31 21 4 -3 14 6 21 19 7 14 19
25 26 25 6 0 14 7 18 15 3 8 12 15 19 15 8 0 21 8 28 17 10 11 10 14 2 9 -7
-4 -13 -2 -13 3 0 6 7 11 16 11 8 0 35 20 60 45 25 25 49 43 54 40 6 -3 10 -2
10 3 0 6 16 26 35 45 19 19 35 40 35 46 0 16 -31 13 -65 -7z m-1752 -4441 c5
0 6 -4 4 -8 -3 -5 8 -8 24 -9 16 -1 29 4 29 10 0 6 5 4 10 -4 9 -13 11 -13 19
-1 8 12 11 12 25 -1 8 -9 13 -17 11 -20 -2 -2 5 -4 15 -5 11 -1 22 3 25 8 4 5
11 6 17 3 7 -4 8 -2 4 5 -6 9 -11 9 -22 0 -8 -6 -18 -9 -21 -5 -18 18 69 43
113 32 20 -5 23 -10 14 -21 -8 -10 -8 -15 1 -21 8 -5 9 -3 4 7 -7 11 -6 12 7
2 8 -7 17 -11 20 -8 3 3 11 -2 18 -10 11 -14 10 -14 -12 -6 -18 7 -29 6 -37
-2 -8 -8 -11 -7 -11 3 0 11 -3 11 -12 2 -8 -8 -15 -9 -25 -1 -10 9 -15 7 -20
-7 -8 -20 -21 -26 -63 -29 -31 -2 -78 20 -58 28 7 3 -2 6 -21 6 -26 1 -32 4
-27 17 3 9 2 12 -4 9 -18 -11 -62 -16 -56 -7 3 5 -6 8 -19 6 -14 -1 -25 2 -25
7 0 5 5 9 11 9 5 0 8 4 4 9 -5 8 10 9 58 2z m4376 -1402 c11 -12 17 -28 14
-37 -5 -11 -3 -13 8 -7 12 8 12 6 0 -8 -10 -13 -10 -17 -1 -17 7 0 10 -7 7
-15 -4 -8 -2 -17 4 -21 5 -3 7 -14 4 -24 -4 -12 1 -20 17 -24 14 -5 18 -9 11
-13 -7 -2 -13 -12 -13 -20 0 -13 3 -13 15 -3 13 11 14 10 9 -4 -3 -9 -10 -16
-15 -16 -5 0 -9 -9 -9 -20 0 -11 -4 -20 -10 -20 -5 0 -10 -5 -10 -12 0 -6 7
-4 18 5 10 10 21 14 24 11 3 -3 9 -1 13 5 3 6 -2 11 -12 11 -15 0 -16 2 -3 10
27 18 36 10 37 -32 1 -26 -1 -37 -6 -30 -6 10 -10 8 -14 -7 -3 -12 -1 -19 4
-15 13 8 11 -20 -3 -34 -7 -7 -8 -12 -4 -12 5 0 3 -7 -4 -15 -10 -12 -10 -15
0 -15 8 0 10 -3 7 -6 -4 -4 -13 -1 -22 6 -12 10 -12 16 -3 34 10 19 10 20 -5
7 -15 -12 -17 -10 -17 17 0 17 -5 32 -11 34 -7 2 -13 19 -15 38 -3 18 -9 39
-15 46 -5 7 -12 32 -14 56 -3 31 -2 37 5 23 8 -18 9 -17 9 8 1 15 -4 27 -10
27 -5 0 -7 5 -4 10 3 6 -2 10 -12 10 -16 1 -15 3 5 19 23 20 29 41 11 41 -5 0
-8 -4 -4 -9 3 -5 1 -12 -5 -16 -6 -4 -10 6 -10 24 0 37 3 38 29 10z m-1373
-245 c-4 -14 -1 -24 9 -28 12 -4 15 -24 15 -90 0 -81 -1 -84 -25 -88 -28 -6
-51 14 -39 33 4 7 3 9 -4 5 -6 -3 -14 -1 -18 5 -4 8 -3 9 4 5 6 -3 16 2 21 13
9 16 8 18 -11 13 -13 -3 -19 -1 -15 5 4 6 2 25 -3 44 -7 23 -7 35 0 37 6 2 7
9 4 14 -4 7 -2 8 4 4 7 -4 12 -3 12 3 0 5 -6 12 -12 14 -7 3 1 6 17 6 23 1 27
4 15 11 -12 7 -12 10 -1 10 8 0 11 6 7 16 -6 14 -4 15 9 4 10 -8 14 -22 11
-36z m1200 -355 c0 -33 -5 -72 -12 -85 -7 -14 -9 -24 -3 -24 6 0 6 -8 -1 -20
-9 -16 -8 -20 6 -20 11 0 14 -5 9 -17 -15 -35 -17 -63 -6 -63 8 0 9 -5 1 -19
-13 -26 -13 -31 5 -31 8 0 15 -4 15 -10 0 -10 -27 -3 -48 13 -9 7 -11 6 -6 -7
3 -9 10 -16 16 -16 5 0 8 -10 6 -22 -2 -19 1 -22 21 -20 20 3 21 2 10 -11 -8
-8 -16 -13 -18 -11 -2 2 -10 -1 -18 -8 -11 -9 -12 -7 -7 8 3 10 -3 5 -14 -12
-30 -46 -37 -47 -38 -3 -1 21 2 36 7 33 5 -3 6 -10 3 -16 -4 -7 -2 -8 4 -4 7
4 12 16 12 26 0 13 5 17 15 14 8 -4 15 -2 15 4 0 5 -9 12 -20 15 -26 7 -21 47
6 58 17 7 17 8 -3 8 -18 1 -23 7 -23 27 0 14 4 23 9 20 11 -7 8 21 -4 31 -4 4
-5 2 0 -6 5 -9 4 -12 -3 -8 -11 7 -11 32 1 43 4 4 7 1 7 -6 0 -7 3 -10 6 -7 4
4 1 13 -5 21 -8 9 -8 16 -2 20 6 4 8 13 5 21 -3 7 0 24 7 37 11 20 10 21 -2
11 -8 -6 -19 -9 -24 -5 -14 10 -17 32 -5 32 6 0 9 3 9 8 -4 26 3 40 19 37 9
-2 20 -4 24 -4 4 -1 9 -11 11 -23 4 -22 4 -22 6 -2 0 11 -8 29 -18 38 -11 10
-17 25 -14 33 5 13 8 12 22 -2 11 -11 16 -35 17 -76z m-1836 -631 c0 -6 7 -8
15 -4 10 4 15 -1 15 -14 0 -11 -5 -20 -11 -20 -6 0 -8 -9 -4 -20 9 -28 -3 -60
-22 -60 -9 0 -14 -3 -11 -6 11 -10 -23 -94 -35 -87 -7 4 -8 0 -4 -11 4 -11 3
-15 -4 -11 -6 4 -13 -3 -16 -14 -4 -17 -8 -19 -20 -9 -11 9 -16 9 -24 -3 -7
-12 -9 -12 -9 1 0 13 -1 13 -11 0 -8 -12 -9 -11 -6 5 2 11 9 19 15 18 7 -2 11
0 11 5 -3 20 2 32 13 26 7 -5 8 -3 4 5 -13 21 13 69 34 64 10 -3 21 1 25 8 5
7 4 10 -1 6 -6 -3 -16 -2 -24 4 -12 7 -11 9 5 10 11 1 25 3 30 4 6 2 18 3 28
4 9 0 17 6 17 12 0 5 -6 7 -12 3 -9 -5 -9 -2 1 9 12 15 11 17 -8 17 -11 0 -20
-5 -18 -12 1 -6 -7 -14 -18 -16 -19 -4 -19 -4 -2 15 9 11 17 27 17 37 0 9 5
14 10 11 14 -9 12 19 -2 34 -11 10 -10 11 5 6 9 -4 17 -12 17 -17z"/>
<path d="M6311 9074 c0 -6 -15 -11 -31 -12 -17 0 -46 -6 -66 -12 -21 -7 -55
-9 -84 -5 -36 5 -58 3 -81 -9 -26 -13 -35 -14 -47 -3 -13 10 -15 9 -9 -5 4
-13 1 -18 -11 -18 -22 -1 -69 -36 -60 -46 4 -4 38 -6 75 -5 37 2 85 2 105 2
20 0 40 3 43 8 2 5 21 5 40 1 19 -4 33 -4 30 0 -5 9 82 19 102 12 7 -2 10 -8
7 -13 -3 -5 10 -9 28 -9 23 0 29 3 19 9 -9 6 4 10 40 13 30 2 60 0 68 -6 11
-8 13 -8 8 0 -5 8 4 11 26 9 17 -2 47 -3 65 -4 19 -1 31 -5 27 -11 -3 -5 1
-10 9 -10 9 0 16 6 16 13 0 8 4 7 10 -3 5 -8 10 -11 10 -6 0 5 6 3 14 -3 11
-9 22 -9 50 3 20 8 36 19 36 24 0 5 10 12 22 15 19 5 19 21 0 23 -89 9 -124
19 -136 36 -11 15 -15 16 -19 4 -4 -10 -16 -13 -37 -11 -49 6 -99 6 -172 0
-61 -5 -68 -4 -69 12 0 16 -1 16 -8 -2 l-8 -20 -5 20 c-3 11 -6 15 -7 9z"/>
<path d="M7010 8930 c-9 -6 -7 -11 9 -19 12 -7 19 -16 16 -22 -4 -5 4 -9 17
-9 37 0 114 -46 110 -66 -3 -12 1 -15 13 -11 9 4 18 1 21 -8 4 -8 10 -13 14
-10 4 3 14 -3 21 -12 10 -12 10 -14 2 -9 -7 4 -13 5 -13 1 0 -7 46 -25 75 -30
11 -2 33 -6 50 -10 38 -8 85 3 65 15 -8 5 -17 7 -21 4 -4 -2 -17 7 -30 20 -13
13 -33 26 -44 30 -11 3 -38 23 -59 44 -22 20 -41 36 -43 34 -6 -5 -58 11 -108
33 -72 32 -80 34 -95 25z"/>
<path d="M7768 7306 c3 -12 7 -15 10 -8 3 10 9 9 23 -4 10 -9 16 -22 12 -28
-3 -6 -3 -8 1 -4 4 4 28 -17 54 -45 49 -57 75 -76 139 -108 54 -26 72 -47 52
-60 -10 -8 -8 -9 9 -4 12 3 22 2 22 -3 0 -6 24 -27 53 -48 28 -21 63 -49 76
-61 14 -12 28 -20 32 -18 3 3 19 -13 34 -35 15 -22 32 -40 37 -40 12 0 -2 51
-19 72 -8 9 -16 22 -17 30 -6 27 -18 48 -26 43 -4 -3 -10 2 -14 10 -3 8 -10
15 -16 15 -6 0 -22 10 -35 23 -60 56 -78 71 -90 73 -20 3 -54 37 -48 47 4 6 1
7 -6 3 -15 -10 -94 41 -86 54 3 5 -1 7 -9 4 -16 -6 -58 25 -50 38 3 4 -2 8
-10 8 -9 0 -16 5 -16 12 0 6 -3 9 -6 6 -3 -3 -16 4 -30 17 -13 13 -37 25 -53
27 -24 4 -27 1 -23 -16z"/>
<path d="M8752 6277 c1 -22 8 -41 16 -46 10 -6 11 -10 4 -15 -7 -4 -9 -20 -5
-39 6 -30 6 -31 -11 -14 -19 19 -36 15 -36 -9 0 -8 8 -14 18 -14 16 -1 16 -1
0 -10 -12 -7 -15 -18 -11 -38 3 -15 6 -35 7 -44 0 -9 4 -14 8 -12 12 8 38 -96
38 -151 0 -28 6 -57 13 -64 10 -11 9 -12 -2 -6 -9 5 -8 0 3 -17 9 -14 13 -28
9 -33 -5 -4 -1 -6 7 -3 8 3 21 -2 27 -11 11 -14 15 -13 32 9 14 18 17 27 8 33
-9 7 -9 10 1 14 6 2 12 12 12 20 0 12 3 13 13 4 23 -19 36 6 25 47 -7 26 -7
37 1 40 20 7 12 22 -11 22 -16 0 -19 3 -10 8 10 7 10 15 2 36 -5 15 -7 32 -4
38 4 6 2 8 -3 5 -7 -4 -13 6 -16 26 -9 58 -13 65 -45 95 -25 23 -32 38 -32 67
0 26 -8 45 -30 68 l-30 32 2 -38z"/>
<path d="M8252 4693 c1 -16 -1 -34 -5 -40 -4 -7 -1 -15 7 -20 11 -6 15 -35 18
-115 2 -60 6 -108 11 -108 4 0 7 5 7 11 0 5 5 7 12 3 6 -4 8 -3 5 3 -3 5 1 23
9 39 9 16 15 53 15 82 0 28 4 52 8 52 4 0 8 7 8 15 0 8 -4 12 -8 10 -4 -3 -10
13 -14 35 -4 22 -11 42 -16 45 -5 4 -6 -2 -3 -12 5 -17 5 -17 -9 -1 -11 14
-16 15 -27 5 -9 -9 -11 -9 -6 0 3 6 2 15 -4 18 -6 4 -10 -4 -8 -22z"/>
<path d="M7807 3054 c-10 -11 -9 -26 2 -19 5 3 12 1 16 -5 3 -5 -3 -10 -14
-10 -10 0 -22 -6 -24 -12 -4 -10 -6 -10 -6 0 -1 6 -5 12 -10 12 -5 0 -12 -23
-16 -50 -4 -28 -13 -57 -21 -65 -8 -7 -14 -18 -14 -23 0 -5 -7 -15 -15 -22 -9
-7 -13 -15 -11 -18 6 -5 -19 -32 -29 -32 -3 0 -3 5 0 10 3 6 0 10 -7 10 -8 0
-14 -8 -14 -18 0 -12 7 -18 21 -18 12 1 19 -5 17 -13 -1 -7 5 -19 15 -27 12
-9 14 -16 7 -21 -6 -5 -10 -18 -9 -30 2 -26 -28 -58 -44 -48 -6 3 -11 1 -11
-4 0 -6 4 -11 9 -11 5 0 8 -11 5 -24 -3 -20 -1 -23 17 -19 25 7 59 59 59 90 0
12 9 28 19 35 23 16 57 108 44 117 -13 9 -14 53 -1 68 6 7 8 13 4 13 -4 0 1
15 11 33 10 17 18 37 18 42 0 6 4 15 7 21 9 13 -14 48 -25 38z"/>
<path d="M4770 2125 c-7 -8 -17 -12 -23 -8 -6 3 -7 1 -3 -5 10 -16 -138 -112
-194 -126 -14 -3 -19 -3 -12 0 18 8 -5 35 -24 27 -8 -3 -21 1 -30 8 -12 10
-15 10 -12 -1 2 -8 -2 -14 -9 -15 -7 0 -18 -6 -24 -12 -7 -7 -21 -13 -30 -13
-10 0 -19 -4 -21 -8 -1 -5 -19 -12 -38 -15 -25 -5 -31 -4 -20 3 8 5 10 10 4
10 -5 0 -19 -7 -30 -15 -10 -8 -29 -15 -41 -15 -13 0 -23 -4 -23 -8 0 -5 -8
-9 -17 -9 -89 1 -101 -10 -56 -49 18 -15 30 -20 34 -12 4 7 9 4 12 -8 4 -16 5
-15 6 4 0 13 6 20 11 17 6 -3 10 -2 10 3 0 6 16 12 35 14 19 2 35 0 35 -4 0
-18 40 -6 51 15 12 21 11 21 -7 7 -17 -14 -18 -14 -6 1 17 22 48 30 50 13 1
-8 2 -31 3 -51 1 -33 2 -35 13 -18 6 12 22 20 38 21 15 0 25 -4 22 -8 -3 -4
-1 -8 5 -8 5 0 13 9 16 20 8 24 25 27 25 4 0 -8 5 -12 10 -9 6 4 11 -6 11 -22
2 -27 2 -27 6 -3 3 14 10 28 16 32 6 4 8 10 4 15 -5 4 -12 1 -16 -6 -6 -9 -11
-10 -15 -2 -8 13 21 25 84 36 30 5 59 20 92 47 28 24 51 37 59 32 7 -4 10 -3
5 4 -3 6 -2 13 4 17 5 3 10 1 10 -4 0 -6 5 -11 11 -11 5 0 8 4 4 10 -7 11 53
70 72 70 31 0 2 16 -34 18 -21 2 -43 9 -49 17 -10 13 -13 13 -24 0z"/>
<path d="M3410 1977 c0 -8 6 -18 13 -20 6 -3 -1 -6 -18 -6 l-30 -1 25 -22 c52
-46 75 -64 62 -46 -11 14 -11 16 7 11 16 -4 18 -9 11 -23 -8 -15 -6 -17 10
-13 11 3 17 9 14 14 -3 5 0 9 5 9 10 0 15 -13 12 -32 -1 -12 30 -2 40 13 6 10
9 10 9 2 0 -7 12 -13 26 -13 14 0 34 -5 45 -11 26 -13 59 -2 59 19 0 25 -40
56 -75 59 -16 1 -52 9 -80 16 -27 8 -60 13 -72 11 -14 -3 -28 5 -42 22 -14 18
-21 22 -21 11z"/>
<path d="M4832 1422 c-13 -4 -23 -11 -22 -17 0 -11 -17 -14 -104 -18 -50 -2
-60 -6 -62 -22 -4 -26 14 -36 50 -29 19 4 26 3 22 -5 -4 -6 0 -11 11 -11 14 0
15 -2 4 -9 -8 -5 -20 -7 -27 -4 -6 2 -15 -1 -19 -6 -3 -6 -11 -8 -17 -5 -6 4
-8 2 -5 -3 8 -13 -20 -26 -36 -16 -7 3 -9 3 -5 -2 10 -10 -29 -38 -41 -31 -5
3 -11 -1 -15 -9 -7 -19 3 -24 39 -18 17 2 38 4 47 4 9 0 19 7 22 16 4 8 13 13
21 9 8 -3 15 -1 15 4 0 6 4 10 9 10 5 0 26 8 47 17 22 9 48 15 59 14 11 -2 17
0 13 5 -10 10 29 37 42 29 6 -3 10 -13 10 -21 0 -9 -5 -12 -12 -8 -7 4 -8 3
-4 -4 4 -7 12 -12 18 -12 14 0 3 83 -11 88 -5 2 -7 10 -4 19 4 11 2 14 -5 9
-11 -6 -17 5 -13 27 0 4 0 7 -1 6 -2 -1 -13 -4 -26 -7z"/>
</g>
</svg>
