<?xml version="1.0" standalone="no"?>
<!DOCTYPE svg PUBLIC "-//W3C//DTD SVG 20010904//EN"
 "http://www.w3.org/TR/2001/REC-SVG-20010904/DTD/svg10.dtd">
<svg version="1.0" xmlns="http://www.w3.org/2000/svg"
 width="1024.000000pt" height="1024.000000pt" viewBox="0 0 1024.000000 1024.000000"
 preserveAspectRatio="xMidYMid meet">
<metadata>
Created by potrace 1.16, written by Peter Selinger 2001-2019
</metadata>
<g transform="translate(0.000000,1024.000000) scale(0.100000,-0.100000)"
fill="#000000" stroke="none">
<path d="M5069 9930 c-1 -8 -1 -19 0 -24 1 -4 -6 -15 -16 -23 -10 -8 -12 -12
-5 -8 15 8 17 -101 2 -125 -5 -9 -5 -17 1 -21 18 -11 -1 -37 -23 -31 -15 3
-19 1 -16 -9 3 -8 12 -13 20 -13 19 2 23 -65 4 -72 -9 -4 -11 -17 -6 -49 4
-25 3 -45 -2 -45 -4 0 -8 15 -9 33 0 23 -2 27 -8 14 -9 -24 -1 -93 9 -77 13
21 21 -6 10 -35 -6 -15 -8 -31 -5 -36 3 -4 -2 -20 -11 -34 -9 -14 -14 -25 -11
-25 3 0 2 -12 -2 -28 -6 -18 -4 -31 5 -39 10 -10 14 -9 17 5 3 12 5 11 6 -5 1
-14 -5 -23 -13 -23 -8 0 -18 -5 -22 -12 -4 -7 -3 -8 4 -4 8 5 12 0 12 -13 0
-11 4 -23 10 -26 5 -3 9 -16 8 -28 0 -12 2 -29 6 -38 5 -11 1 -19 -11 -23 -15
-6 -15 -8 -3 -17 13 -8 12 -12 -7 -28 -13 -11 -23 -27 -23 -36 0 -9 -4 -14 -9
-11 -15 10 -19 -17 -17 -132 1 -93 -2 -112 -14 -113 -9 0 -11 -2 -3 -5 7 -3 9
-12 6 -20 -3 -8 -1 -20 5 -27 14 -18 24 -95 12 -102 -14 -9 -12 -42 3 -48 10
-4 10 -6 0 -6 -7 -1 -13 -6 -13 -12 0 -5 4 -8 9 -5 19 12 38 -5 33 -30 -3 -15
-10 -23 -17 -20 -8 3 -16 -2 -19 -10 -3 -9 -10 -12 -16 -9 -6 4 -3 -12 6 -33
12 -32 13 -45 4 -62 -8 -15 -8 -20 -1 -16 15 10 14 -6 -3 -29 -7 -10 -11 -26
-9 -36 3 -9 0 -20 -5 -23 -6 -3 -8 -15 -5 -26 3 -11 1 -26 -4 -33 -17 -22 -22
-46 -11 -53 7 -4 8 -3 4 4 -4 7 -2 12 3 12 29 0 -7 -48 -39 -53 -22 -4 -39
-37 -19 -37 5 0 9 -9 9 -20 0 -11 4 -20 9 -20 4 0 9 -22 10 -50 0 -28 -4 -50
-9 -50 -11 0 -9 -58 2 -76 9 -14 -8 -38 -21 -30 -6 4 -11 0 -11 -9 0 -11 -7
-14 -27 -10 -26 5 -26 5 -5 -4 12 -6 22 -14 23 -18 3 -32 11 -70 16 -83 3 -8
8 -26 10 -39 2 -13 11 -40 19 -59 8 -19 14 -40 13 -46 0 -6 -4 -2 -9 9 -6 14
-8 2 -7 -38 1 -33 3 -54 5 -48 2 6 8 9 13 5 14 -8 11 -24 -5 -24 -9 0 -13 -12
-12 -41 1 -22 -2 -43 -6 -45 -5 -3 -7 -2 -6 3 3 9 -5 13 -26 13 -11 0 -13 -7
-6 -29 5 -19 5 -31 -2 -33 -5 -2 -10 -34 -10 -72 0 -41 -4 -63 -9 -54 -7 10
-9 10 -9 -3 0 -8 5 -20 12 -27 8 -8 8 -15 -2 -27 -8 -10 -9 -15 -1 -15 6 0 11
-9 11 -20 0 -11 -5 -20 -11 -20 -5 0 -7 -4 -4 -10 3 -5 1 -10 -4 -10 -16 0
-13 -19 4 -36 8 -9 15 -25 15 -36 0 -11 11 -29 24 -39 20 -16 23 -25 19 -56
-3 -21 -6 -39 -8 -41 -2 -2 1 -17 5 -33 6 -20 4 -40 -5 -63 -8 -18 -12 -36 -9
-38 9 -10 13 -48 4 -53 -5 -3 -7 -14 -5 -24 2 -11 -3 -39 -10 -63 -8 -23 -14
-37 -14 -29 -1 8 -3 12 -6 9 -3 -3 -1 -17 4 -30 6 -17 6 -29 -1 -36 -6 -6 -7
-18 -3 -29 13 -31 12 -37 -22 -71 -20 -20 -33 -28 -33 -20 0 8 -12 20 -26 26
-14 7 -23 8 -20 3 10 -15 -28 -39 -65 -42 -22 -2 -46 4 -62 14 -30 19 -47 22
-47 7 0 -5 -4 -10 -10 -10 -5 0 -10 7 -10 15 0 9 -9 15 -24 15 -15 0 -27 7
-31 19 -3 11 -23 23 -51 31 -24 7 -49 20 -54 29 -8 14 -11 14 -20 1 -6 -10
-10 -11 -10 -3 0 7 -7 10 -15 7 -21 -9 -19 -32 4 -39 12 -4 18 -12 14 -21 -4
-10 0 -12 11 -8 9 3 16 4 16 1 0 -10 -70 -26 -85 -21 -8 3 -19 21 -25 40 -6
19 -18 34 -26 34 -8 0 -14 5 -14 11 0 8 -6 7 -17 -2 -13 -11 -17 -11 -20 -1
-3 6 -15 12 -28 12 -28 0 -41 15 -20 24 8 3 15 1 15 -4 0 -6 5 -10 12 -10 9 0
9 3 1 11 -7 7 -9 25 -6 40 3 19 1 29 -6 29 -7 0 -9 -5 -5 -12 4 -6 3 -8 -4 -4
-6 3 -13 20 -17 36 -4 17 -13 31 -21 31 -8 1 -18 2 -22 3 -5 0 -20 14 -33 29
-14 16 -37 29 -54 31 -16 2 -29 8 -28 13 1 6 -9 8 -22 5 -15 -2 -38 4 -57 17
-18 11 -29 21 -25 21 19 0 -16 40 -36 41 -17 1 -18 2 -4 6 24 6 22 23 -3 18
-11 -2 -24 3 -30 13 -6 11 -10 12 -10 4 0 -8 -5 -10 -12 -5 -13 8 -33 13 -55
15 -7 1 -10 5 -7 10 3 5 1 14 -4 21 -5 7 -12 25 -16 40 -6 24 -9 27 -22 16
-18 -15 -26 -7 -26 25 0 14 -4 23 -9 20 -5 -3 -9 4 -9 15 0 12 -12 31 -26 44
-30 26 -66 91 -56 102 4 3 3 5 -3 3 -5 -2 -10 -1 -11 2 0 3 -7 16 -14 30 -8
14 -13 28 -12 33 1 4 -2 7 -6 7 -5 0 -14 11 -20 25 -6 14 -19 25 -27 25 -9 0
-14 -4 -11 -8 2 -4 1 -14 -5 -22 -7 -12 -9 -11 -9 6 0 12 -10 25 -25 32 -14 6
-25 16 -25 22 0 5 -9 10 -20 10 -11 0 -19 -6 -18 -12 2 -7 -8 -14 -22 -16 -22
-4 -23 -2 -10 15 14 17 14 17 -6 1 -20 -17 -22 -16 -75 43 -30 33 -65 72 -79
85 -14 13 -21 24 -17 24 5 0 1 10 -7 22 -9 12 -16 30 -16 39 0 10 -7 16 -17
15 -10 0 -17 4 -16 11 2 8 -4 10 -15 6 -14 -5 -15 -4 -6 8 6 8 8 23 4 34 -6
18 -37 26 -107 25 -14 0 -23 6 -23 15 0 8 4 15 9 15 5 0 9 13 9 30 -1 16 -5
27 -9 24 -5 -3 -11 6 -15 20 -7 27 -34 57 -34 37 0 -6 -7 -11 -16 -11 -14 0
-14 2 1 16 9 9 13 19 9 23 -4 3 -9 0 -11 -6 -3 -7 -11 -13 -19 -13 -7 0 -11 6
-8 13 3 8 -4 13 -17 14 -12 1 -26 8 -30 15 -5 7 -9 9 -9 5 0 -16 -70 60 -70
77 0 9 -5 15 -10 14 -10 -3 -21 13 -55 80 -10 17 -22 32 -29 32 -6 0 -5 4 3 9
10 7 7 15 -16 37 -17 16 -28 34 -26 40 2 6 -8 16 -22 24 -14 7 -25 17 -25 22
0 5 -4 6 -10 3 -5 -3 -20 5 -32 19 -19 21 -28 24 -55 18 l-33 -7 64 -67 c36
-38 62 -68 58 -68 -4 0 0 -4 8 -10 8 -5 12 -12 8 -15 -3 -3 -12 1 -21 9 -8 8
-17 13 -21 11 -3 -3 -4 -2 -1 2 3 3 -4 12 -15 20 -11 8 -20 21 -20 29 0 8 -5
14 -11 14 -5 0 -7 -5 -3 -12 4 -6 -4 -3 -18 8 -14 10 -24 22 -22 26 2 3 -2 9
-8 11 -8 3 -6 6 5 6 10 1 15 6 12 12 -4 6 -14 8 -22 5 -12 -5 -14 -1 -10 14 6
22 -16 50 -39 50 -8 0 -14 4 -14 8 0 5 -6 9 -13 9 -16 0 -67 33 -67 43 0 5 -9
11 -19 15 -11 3 -18 12 -15 20 3 7 0 16 -7 21 -8 4 -10 3 -5 -4 4 -7 3 -12 -3
-12 -6 0 -13 11 -17 25 -3 14 -12 25 -19 25 -7 0 -16 12 -19 26 -5 18 -12 25
-24 22 -10 -3 -22 0 -27 6 -42 49 -48 58 -36 51 9 -5 7 2 -5 18 -10 15 -22 27
-26 27 -13 0 -47 43 -42 52 3 5 1 7 -4 6 -13 -4 -102 73 -102 88 0 14 -7 22
-83 88 -31 27 -54 53 -50 59 3 6 1 7 -6 3 -6 -4 -14 0 -17 8 -7 18 -39 21 -50
5 -3 -6 8 -31 26 -55 18 -25 30 -47 27 -50 -3 -3 8 -19 24 -37 16 -17 29 -35
29 -40 0 -9 25 -37 34 -37 3 0 23 -16 43 -35 20 -19 34 -35 29 -35 -4 0 0 -7
8 -16 9 -8 16 -21 16 -28 0 -7 11 -22 24 -34 14 -11 28 -37 32 -56 3 -20 9
-36 13 -36 4 0 14 -11 21 -25 7 -14 20 -25 29 -26 10 0 12 -2 4 -6 -15 -5 0
-41 25 -59 9 -6 15 -25 15 -42 0 -20 4 -29 13 -25 7 2 10 12 7 21 -3 9 6 1 20
-18 14 -19 23 -38 20 -43 -2 -4 -1 -7 4 -6 23 4 28 -5 27 -46 -1 -24 1 -44 5
-43 29 9 76 -66 67 -105 -1 -7 -1 -8 2 -4 8 15 31 -14 25 -31 -3 -9 -2 -14 2
-9 12 10 65 -43 65 -65 0 -11 7 -18 20 -18 11 0 20 -5 20 -11 0 -15 69 -83 77
-75 7 7 59 -29 90 -61 12 -13 29 -23 38 -23 8 0 15 -6 15 -14 0 -8 6 -17 13
-19 10 -4 10 -6 0 -6 -7 -1 -13 -6 -13 -12 0 -5 5 -7 10 -4 6 3 10 2 10 -3 0
-6 22 -32 50 -59 27 -26 50 -54 50 -62 0 -8 6 -11 16 -7 10 4 14 1 12 -6 -4
-12 59 -78 75 -78 4 0 7 -9 7 -20 0 -11 7 -20 15 -20 7 0 18 -7 23 -16 6 -11
11 -13 16 -5 12 18 36 12 36 -9 0 -11 5 -20 10 -20 6 0 22 -12 37 -26 14 -14
31 -23 39 -20 8 3 11 0 7 -10 -3 -8 1 -14 10 -14 9 0 19 -9 22 -20 3 -11 10
-20 15 -20 5 0 11 -9 15 -19 3 -11 16 -21 28 -23 14 -2 22 -10 22 -23 0 -21
28 -55 45 -55 6 0 10 -7 10 -15 0 -8 6 -15 13 -15 18 0 49 -39 41 -52 -4 -6
-3 -8 4 -4 6 3 17 -3 25 -14 7 -11 16 -17 19 -15 3 3 8 -1 11 -9 4 -11 1 -14
-11 -10 -9 2 -3 -2 13 -10 17 -8 25 -15 18 -16 -7 0 -10 -7 -6 -17 4 -10 8
-12 10 -6 6 16 53 -5 53 -24 0 -7 6 -12 12 -11 7 2 14 -7 16 -19 2 -15 8 -20
19 -16 11 4 14 2 9 -5 -4 -7 -2 -12 6 -12 10 0 10 -2 0 -8 -19 -12 19 -43 49
-40 18 2 24 -2 25 -19 1 -13 -4 -19 -11 -17 -22 9 -12 -21 13 -41 14 -10 22
-13 18 -7 -4 7 -2 12 4 12 7 0 10 -13 7 -35 -3 -19 -1 -32 4 -29 5 3 7 9 4 14
-3 4 1 10 9 13 10 4 13 -3 12 -26 -1 -24 4 -32 19 -35 11 -3 24 -11 28 -18 5
-8 12 -12 18 -9 5 4 9 1 9 -5 0 -7 8 -9 21 -5 13 5 19 3 15 -3 -3 -5 1 -15 9
-22 7 -6 11 -18 8 -26 -3 -9 8 -29 27 -49 28 -29 31 -37 20 -50 -10 -12 -10
-15 0 -15 7 0 18 -7 24 -15 6 -8 23 -16 37 -17 39 -5 62 -27 47 -45 -9 -11 -9
-13 2 -11 7 2 15 -3 17 -10 3 -8 -2 -10 -14 -6 -16 5 -16 4 -2 -8 11 -9 13
-21 9 -39 -5 -16 -2 -32 6 -44 11 -15 11 -21 2 -26 -8 -5 -2 -11 17 -18 45
-16 59 -26 70 -48 20 -40 38 -55 46 -41 6 9 10 8 15 -6 4 -11 1 -22 -7 -28
-11 -8 -11 -9 2 -5 9 3 22 1 29 -3 9 -5 19 -1 30 12 20 25 40 16 40 -18 0 -15
-6 -24 -16 -24 -8 0 -12 -5 -9 -10 4 -6 11 -8 16 -5 5 4 9 2 9 -4 0 -41 -120
-30 -152 14 -5 6 -8 5 -8 -3 0 -7 -4 -11 -9 -8 -5 4 -11 1 -13 -6 -6 -18 25
-68 42 -68 12 0 12 -2 2 -9 -11 -7 -11 -9 2 -14 10 -4 16 -19 16 -39 0 -22 3
-29 9 -20 6 11 10 10 15 -4 3 -9 4 -19 1 -22 -3 -3 -5 0 -5 6 0 8 -7 9 -26 2
-14 -6 -37 -10 -50 -10 -14 0 -23 -4 -20 -9 6 -9 -18 -34 -25 -27 -2 2 -23 1
-47 -4 -32 -5 -42 -4 -39 4 6 14 -48 40 -62 32 -5 -4 -12 -2 -16 4 -9 15 -17
13 -47 -11 -15 -12 -44 -23 -65 -24 -23 -2 -31 -1 -20 4 16 6 17 9 5 18 -15
13 -44 1 -35 -14 5 -8 -8 -9 -71 -5 -13 1 -21 6 -18 10 3 5 -8 6 -25 4 -16 -2
-29 0 -29 4 0 5 -12 9 -27 9 -62 2 -195 14 -200 19 -3 3 -14 1 -24 -5 -14 -7
-19 -6 -19 2 0 8 -4 8 -15 -1 -21 -17 -15 -32 25 -58 l35 -23 -35 5 c-19 2
-36 5 -37 6 -2 1 -15 2 -30 3 -16 0 -31 5 -35 11 -4 6 -12 5 -21 -3 -9 -7 -18
-8 -21 -3 -3 5 -47 9 -98 7 -69 -1 -100 2 -120 14 -16 8 -28 19 -28 24 0 4
-17 5 -37 2 -21 -3 -32 -2 -25 1 15 7 16 44 1 44 -5 0 -8 -4 -5 -9 10 -15 -32
-20 -51 -5 -22 16 -37 18 -27 3 4 -8 -1 -9 -17 -3 -13 4 -41 6 -61 5 -31 -1
-39 3 -51 24 -7 15 -24 32 -38 39 -21 11 -29 10 -64 -10 -23 -13 -51 -25 -63
-27 -12 -2 -28 -9 -35 -16 -9 -10 -7 -16 11 -31 29 -24 28 -37 -4 -43 -19 -3
-24 -1 -20 10 4 8 1 11 -5 7 -6 -4 -16 0 -21 7 -8 11 -9 11 -5 -2 4 -13 -5
-18 -45 -22 -28 -4 -56 -12 -64 -18 -11 -9 -14 -9 -14 0 0 7 -5 9 -11 6 -6 -4
-8 -13 -5 -20 6 -16 -53 -27 -70 -14 -8 6 -14 4 -18 -6 -3 -8 -10 -15 -17 -15
-6 0 -9 6 -6 14 8 19 -13 26 -38 13 -20 -10 -20 -9 -2 11 18 20 18 20 0 18
-10 -2 -22 -1 -28 2 -5 4 -23 5 -40 4 -23 -2 -27 -1 -15 7 13 9 13 11 -2 11
-10 0 -18 -4 -18 -9 0 -5 -14 -12 -30 -16 -17 -4 -28 -10 -25 -15 3 -5 -3 -7
-12 -6 -10 2 -21 -1 -24 -6 -3 -5 -23 -11 -45 -15 -21 -3 -41 -9 -44 -13 -3
-4 -16 -11 -30 -15 -22 -7 -23 -6 -11 9 8 9 9 16 3 16 -6 0 -14 -4 -17 -10 -3
-5 -29 -12 -56 -16 -28 -4 -45 -10 -39 -14 7 -5 2 -9 -14 -12 -18 -4 -30 0
-36 11 -6 11 -9 12 -10 3 0 -7 -4 -11 -9 -7 -5 3 -13 0 -17 -6 -4 -8 -3 -9 4
-5 7 4 12 3 12 -2 0 -5 -28 -7 -62 -5 -34 2 -69 1 -77 -3 -43 -19 -131 -29
-131 -15 0 6 -5 11 -11 11 -5 0 -7 -4 -4 -10 3 -5 -1 -10 -9 -10 -9 0 -16 5
-16 11 0 8 -15 10 -44 7 -38 -5 -44 -3 -39 11 5 13 3 13 -8 -2 -8 -9 -24 -19
-37 -22 -12 -2 -26 -6 -31 -10 -5 -3 -12 -1 -16 5 -4 6 -12 5 -21 -5 -18 -18
-65 -20 -82 -3 -8 8 -15 8 -28 -3 -16 -12 -17 -12 -9 1 7 12 6 13 -6 4 -8 -6
-25 -8 -39 -4 -14 3 -40 0 -57 -7 -21 -8 -58 -11 -103 -9 -42 3 -68 1 -65 -5
4 -5 -3 -9 -14 -9 -27 0 -35 -16 -13 -26 26 -11 28 -11 83 -13 37 -1 48 -4 43
-13 -6 -10 -4 -10 8 0 31 25 128 27 113 2 -3 -6 -1 -10 4 -10 6 0 11 8 12 18
0 9 3 12 5 6 4 -9 12 -9 32 1 31 15 92 9 92 -10 0 -7 10 -13 23 -13 72 -2 162
-14 168 -24 4 -6 21 -9 38 -6 17 2 33 0 35 -6 3 -7 5 -6 5 2 1 10 4 10 15 0 8
-7 12 -16 9 -20 -2 -5 1 -8 6 -8 6 0 11 9 11 19 0 24 29 35 60 23 20 -7 21
-10 7 -15 -10 -4 -17 -1 -17 5 0 6 -2 9 -5 6 -3 -3 -2 -13 1 -22 4 -10 10 -13
13 -8 12 19 36 17 58 -5 12 -12 19 -24 15 -27 -3 -3 2 -6 12 -6 9 0 28 12 42
27 13 14 28 23 32 19 4 -4 -1 -13 -10 -20 -18 -14 -14 -26 9 -26 7 0 13 8 13
17 0 13 3 14 12 5 14 -14 42 -16 33 -2 -4 6 5 10 20 10 15 0 24 4 20 10 -3 6
-1 10 4 10 10 0 15 -13 12 -32 -1 -8 10 -12 94 -33 l59 -16 26 30 c25 28 27
28 59 15 18 -8 48 -14 65 -14 18 0 41 -7 52 -15 10 -8 24 -14 29 -15 6 0 3 5
-5 10 -8 5 -11 10 -6 10 6 0 20 -10 33 -22 23 -22 58 -34 47 -17 -7 12 49 12
62 0 15 -14 62 -22 69 -11 4 6 11 8 16 5 5 -4 9 2 9 11 0 15 2 15 18 -3 19
-21 41 -19 122 12 99 37 183 56 194 44 8 -9 8 -10 0 -6 -21 12 -23 -21 -4 -38
11 -10 17 -22 13 -28 -4 -6 -1 -7 7 -2 8 5 34 8 59 9 48 0 84 19 56 30 -9 3
-12 12 -8 22 4 12 3 15 -5 10 -7 -4 -12 -2 -12 3 0 6 12 11 26 11 14 0 23 -3
21 -7 -3 -5 18 -6 46 -4 40 2 53 -1 64 -15 7 -10 13 -13 13 -5 0 7 4 10 8 7 4
-3 24 -1 44 3 29 7 35 6 31 -5 -4 -10 3 -14 21 -14 16 0 26 6 26 15 0 16 29
10 42 -9 5 -7 8 -7 8 2 0 7 5 10 10 7 6 -4 7 -12 3 -18 -4 -7 0 -6 10 2 9 7
23 11 31 8 7 -3 17 -2 22 3 15 13 87 23 79 11 -3 -6 1 -14 10 -17 9 -4 14 -13
11 -21 -3 -8 -1 -11 4 -8 6 3 10 1 10 -4 0 -6 -4 -11 -8 -11 -4 0 -8 -9 -8
-19 0 -15 9 -22 38 -26 23 -4 38 -12 38 -21 0 -11 12 -13 60 -9 40 3 60 1 60
-6 0 -7 9 -9 23 -4 12 4 31 7 42 7 11 0 14 2 8 5 -7 3 -13 13 -13 24 0 11 -8
23 -17 26 -20 8 -43 28 -43 38 0 3 4 4 9 0 5 -3 13 4 16 16 4 13 2 25 -5 29
-18 11 18 21 53 14 18 -3 26 -1 22 6 -3 5 1 10 9 10 8 0 18 -5 21 -10 4 -6 10
-8 14 -6 17 11 35 -15 35 -51 1 -37 2 -38 39 -41 21 -2 37 1 37 7 0 6 -7 11
-15 11 -8 0 -15 4 -15 9 0 14 23 26 27 14 2 -6 20 -9 39 -7 31 2 34 1 22 -13
-12 -15 -11 -15 10 -2 18 11 26 11 42 1 11 -6 30 -12 43 -12 13 0 28 -5 34
-11 8 -8 10 -1 6 25 -4 34 -3 37 37 55 24 10 37 22 31 25 -14 9 -14 36 0 36 5
0 8 -3 5 -8 -2 -4 3 -16 11 -27 13 -16 15 -17 10 -2 -8 22 -2 22 22 -2 15 -15
28 -18 61 -14 37 5 41 4 38 -13 -2 -13 2 -18 12 -16 8 2 11 0 7 -5 -5 -4 -14
-8 -20 -8 -5 0 -11 -10 -12 -22 -1 -12 2 -20 6 -18 4 3 11 -1 17 -8 16 -19
-36 -21 -54 -2 -9 8 -26 15 -40 15 -13 0 -24 6 -24 13 0 6 -5 4 -11 -6 -6 -9
-14 -15 -20 -12 -5 4 -9 -2 -10 -12 0 -14 -2 -14 -9 5 -10 24 -18 29 -17 10 1
-33 -4 -48 -17 -48 -20 0 -8 -40 13 -41 42 -2 77 -12 92 -25 8 -8 19 -11 22
-7 4 3 13 -1 20 -11 10 -14 17 -15 41 -6 16 6 42 20 57 31 27 19 29 19 30 2 0
-15 2 -14 9 5 5 12 13 23 17 23 34 6 63 3 63 -6 0 -7 3 -7 8 0 10 15 38 12 35
-3 -2 -7 3 -12 11 -12 7 0 16 -9 19 -20 5 -18 -2 -24 -20 -18 -5 2 -7 6 -6 10
2 4 -4 5 -12 2 -8 -4 -15 -10 -15 -16 0 -5 -7 -2 -16 6 -12 13 -18 13 -29 3
-7 -6 -11 -15 -8 -19 2 -5 -1 -8 -7 -8 -6 0 -9 -4 -5 -9 3 -5 1 -12 -5 -16 -5
-3 -10 1 -10 9 0 9 -4 16 -10 16 -5 0 -10 -11 -10 -24 0 -13 -7 -26 -15 -30
-16 -6 -21 -46 -6 -46 5 0 11 -10 14 -22 7 -27 -44 -84 -65 -72 -7 4 -10 3 -5
-1 9 -11 -21 -45 -40 -45 -8 0 -11 -5 -8 -10 10 -16 -26 -25 -37 -9 -6 10 -7
7 -3 -10 5 -18 4 -22 -6 -16 -9 6 -11 3 -6 -8 3 -10 2 -17 -3 -17 -6 0 -10 -9
-10 -19 0 -15 -7 -19 -30 -19 -32 1 -70 -26 -70 -50 0 -8 -6 -12 -15 -8 -9 3
-15 0 -15 -10 0 -9 -5 -12 -12 -8 -7 4 -8 3 -4 -5 4 -6 12 -9 17 -6 5 4 9 1 9
-6 0 -7 6 -4 14 7 12 15 17 17 27 7 11 -11 10 -13 -2 -13 -10 -1 -9 -3 4 -11
9 -6 15 -15 11 -20 -3 -6 -12 -5 -22 3 -13 11 -14 11 -4 -8 10 -18 6 -26 -28
-59 -27 -27 -45 -36 -59 -32 -14 3 -22 -1 -26 -14 -4 -10 -11 -19 -16 -19 -6
0 -8 4 -5 9 12 20 -5 37 -32 33 -30 -4 -59 -47 -38 -56 7 -3 5 -9 -6 -16 -10
-6 -18 -22 -18 -36 0 -14 -4 -22 -10 -19 -5 3 -10 1 -10 -4 0 -6 5 -11 10 -11
6 0 10 -5 10 -11 0 -5 -4 -7 -10 -4 -5 3 -10 2 -10 -4 0 -6 -8 -8 -17 -5 -15
5 -15 4 -3 -4 8 -6 18 -8 22 -6 4 3 8 2 8 -3 0 -15 -94 -93 -113 -93 -11 0
-29 -8 -40 -18 -15 -12 -18 -13 -12 -2 6 11 5 12 -4 4 -7 -6 -14 -20 -15 -30
-2 -11 -8 -20 -14 -20 -24 -3 -26 -4 -15 -15 7 -7 -1 -22 -29 -51 -31 -32 -41
-38 -53 -28 -8 6 -19 9 -25 5 -13 -8 -13 -35 0 -35 6 0 10 -5 10 -11 0 -6 -7
-9 -15 -6 -8 4 -17 2 -20 -4 -4 -5 -10 -7 -14 -5 -4 3 -8 -1 -9 -9 -1 -8 -3
-22 -4 -30 -1 -8 -5 -12 -10 -9 -5 3 -5 10 -2 16 5 7 2 8 -5 3 -7 -4 -10 -17
-7 -29 4 -15 -1 -26 -17 -36 -12 -8 -26 -13 -31 -12 -5 2 -4 -3 3 -11 9 -12 5
-18 -25 -32 -19 -9 -33 -19 -31 -22 3 -2 -11 -20 -31 -39 -20 -18 -38 -32 -40
-29 -7 7 -81 -77 -79 -89 1 -6 -4 -10 -11 -8 -8 1 -11 -2 -7 -8 3 -5 -1 -13
-9 -16 -9 -3 -16 -16 -16 -28 0 -13 3 -17 8 -9 5 8 13 9 22 3 11 -7 12 -10 2
-10 -7 0 -11 -4 -8 -9 3 -4 -12 -22 -34 -40 -24 -19 -40 -27 -40 -19 -1 8 -6
5 -15 -6 -11 -14 -15 -16 -15 -5 -1 8 -7 3 -14 -11 -8 -14 -12 -28 -10 -32 3
-5 0 -8 -5 -8 -6 0 -11 -5 -11 -11 0 -19 -43 -51 -61 -46 -13 3 -16 0 -12 -12
5 -13 3 -14 -7 -4 -10 9 -17 7 -32 -10 -11 -12 -17 -16 -13 -10 13 27 -12 10
-50 -33 -66 -76 -87 -94 -98 -87 -6 3 -7 1 -3 -6 4 -6 12 -8 18 -5 6 4 6 -2
-1 -15 -10 -19 -9 -21 13 -19 20 2 23 5 15 19 -14 27 -11 33 8 18 12 -10 15
-11 9 -1 -10 16 12 44 28 35 6 -4 4 1 -3 11 -13 16 -13 17 4 14 11 -1 20 3 20
9 0 7 11 20 25 30 l25 17 -17 -25 c-14 -22 -15 -28 -3 -40 12 -12 9 -19 -21
-52 -24 -25 -30 -37 -20 -37 9 0 16 -4 16 -8 0 -14 -46 -53 -53 -45 -6 6 -11
-10 -9 -28 1 -4 -8 -15 -18 -24 -11 -10 -20 -24 -20 -32 0 -7 -11 -18 -25 -23
-14 -5 -25 -14 -25 -19 0 -5 -9 -8 -21 -6 -18 4 -20 1 -15 -20 5 -20 3 -25
-14 -25 -11 0 -19 -4 -18 -9 4 -13 -62 -92 -73 -86 -5 3 -6 0 -4 -8 7 -17 -30
-51 -46 -41 -8 4 -10 3 -5 -5 4 -6 0 -18 -8 -27 -9 -9 -14 -20 -11 -25 3 -4
-6 -11 -21 -15 -14 -4 -21 -10 -15 -13 12 -8 -7 -38 -46 -74 -13 -11 -23 -25
-23 -31 0 -6 -16 -28 -36 -49 -19 -20 -32 -37 -29 -37 3 0 -10 -17 -29 -38
-20 -20 -36 -42 -36 -48 0 -25 16 -21 59 16 76 65 150 138 145 143 -3 3 4 8
15 12 12 3 21 12 21 18 1 22 58 80 71 71 9 -5 11 -2 6 8 -7 19 22 48 46 48 9
0 17 5 17 11 0 6 9 8 20 4 14 -4 20 -2 18 7 -2 7 3 12 10 10 8 -1 12 3 9 10
-2 7 0 21 5 30 11 22 50 25 42 4 -3 -8 0 -17 6 -21 8 -5 10 5 8 32 -3 36 -1
38 27 41 41 5 200 125 200 151 0 13 133 120 141 113 4 -4 4 -2 1 4 -4 7 0 17
8 24 8 7 15 24 15 38 0 13 8 30 17 37 20 15 53 8 53 -11 0 -8 5 -14 11 -14 8
0 10 12 6 34 -6 35 11 63 29 48 5 -4 6 -3 2 2 -10 12 11 38 25 29 5 -3 7 -2 4
4 -4 5 6 21 21 34 24 21 37 25 90 28 6 1 12 7 12 14 0 19 36 50 49 43 5 -4 26
5 47 19 20 14 33 25 28 25 -18 0 -7 49 17 75 13 15 32 36 42 46 9 10 17 22 17
25 0 17 85 84 106 84 13 0 32 8 42 18 12 12 32 18 59 18 33 -1 39 2 35 17 -3
11 1 17 12 17 17 0 17 1 21 39 1 13 6 26 11 30 5 3 10 17 12 31 2 14 21 41 44
61 36 32 40 39 35 67 -5 25 -3 30 8 25 9 -3 15 1 15 11 0 10 -6 13 -16 9 -20
-7 25 37 54 54 12 7 36 13 54 12 28 0 30 -2 13 -9 -11 -5 -16 -9 -12 -9 5 -1
1 -8 -7 -17 -19 -18 -21 -34 -5 -34 6 0 8 -7 5 -16 -5 -14 -4 -15 8 -5 11 9
15 9 18 -1 3 -8 7 -6 11 5 4 10 2 17 -5 17 -6 0 -3 9 7 20 10 11 15 26 11 36
-5 14 -4 15 9 4 13 -11 14 -10 9 4 -5 12 -2 15 10 10 9 -4 25 5 41 22 14 15
25 23 25 18 1 -5 8 5 17 21 10 17 16 36 15 42 -2 7 2 13 8 13 5 0 10 7 10 16
0 9 6 14 12 12 7 -3 19 1 26 9 8 7 17 11 21 8 5 -2 7 10 5 29 -3 24 2 38 16
51 17 16 20 16 15 3 -4 -9 -2 -25 4 -35 10 -17 10 -17 11 2 0 17 2 17 10 5 7
-11 10 -11 10 -2 0 7 10 24 23 37 12 13 30 35 39 48 13 18 24 24 40 20 18 -4
20 -2 8 6 -16 11 -10 21 17 25 11 2 17 10 15 22 -2 18 -2 18 11 2 17 -21 33
-23 40 -5 4 9 6 9 6 0 2 -29 21 -11 21 20 0 17 4 38 9 46 10 16 49 22 57 9 3
-4 10 -8 15 -8 6 0 7 5 4 10 -3 6 2 10 11 10 10 0 26 8 37 18 11 9 17 11 13 5
-5 -9 -2 -11 8 -7 8 3 18 19 21 35 6 29 25 50 25 29 0 -6 5 -8 11 -4 13 8 29
-13 29 -39 0 -11 -4 -15 -12 -11 -7 5 -8 3 -4 -5 5 -7 14 -10 21 -7 8 3 19 -3
27 -12 8 -10 8 -13 1 -9 -6 4 -15 2 -19 -4 -5 -8 -3 -9 6 -4 10 6 12 4 6 -10
-5 -15 -4 -16 9 -5 21 17 29 7 15 -20 -16 -30 -20 -59 -10 -65 5 -3 7 4 5 16
-4 21 -3 21 15 4 20 -18 40 -13 40 10 0 7 7 16 16 19 12 5 13 10 6 19 -14 17
2 42 22 34 11 -4 16 -1 16 10 0 13 3 14 12 5 9 -9 7 -16 -7 -32 -16 -18 -17
-20 -2 -14 9 3 17 10 17 15 0 20 18 7 30 -21 9 -22 9 -37 1 -61 -13 -38 -14
-49 -3 -31 12 18 35 6 56 -28 15 -26 15 -31 2 -36 -11 -4 -13 -12 -6 -29 5
-13 6 -26 2 -29 -10 -10 -12 -39 -3 -51 13 -17 21 -46 12 -40 -5 3 -12 1 -15
-4 -4 -5 3 -12 14 -16 23 -7 27 -44 9 -77 -8 -15 -8 -22 0 -28 9 -5 9 -14 1
-34 -6 -17 -6 -25 0 -21 6 3 11 -5 12 -19 2 -48 3 -51 13 -58 6 -5 5 -19 -4
-40 -7 -18 -16 -50 -21 -71 -4 -21 -10 -40 -13 -43 -3 -3 1 -21 9 -39 18 -44
19 -102 2 -87 -10 8 -13 0 -14 -33 -1 -36 3 -45 23 -54 13 -6 21 -16 18 -21
-3 -6 4 -25 17 -42 26 -37 35 -73 16 -62 -7 4 -5 -2 5 -13 14 -16 16 -26 9
-40 -10 -19 -9 -89 2 -100 13 -13 5 -43 -14 -53 -15 -8 -18 -15 -11 -28 10
-20 3 -45 -10 -36 -5 3 -9 -1 -9 -10 0 -8 5 -16 11 -18 9 -3 9 -10 0 -27 -10
-18 -15 -20 -27 -10 -19 15 -18 5 1 -15 13 -13 13 -16 0 -30 -17 -17 -20 -30
-5 -21 6 3 10 1 10 -4 0 -6 7 -11 15 -11 9 0 15 -10 15 -26 0 -19 -4 -25 -15
-21 -8 4 -17 1 -21 -5 -4 -6 -3 -8 4 -4 7 4 10 -8 8 -36 -2 -40 9 -75 26 -88
14 -11 11 -130 -4 -155 -6 -10 -20 -77 -23 -107 -1 -10 8 -24 21 -33 28 -18
29 -30 9 -69 -18 -33 -18 -41 -10 -156 8 -117 8 -119 17 -114 4 3 8 -4 8 -15
0 -12 -5 -21 -11 -21 -8 0 -8 -4 -2 -12 5 -7 6 -26 2 -43 -4 -18 -7 -22 -8
-11 0 11 -4 17 -7 13 -4 -3 -3 -14 2 -24 11 -26 13 -53 3 -53 -5 0 -9 -16 -9
-35 0 -26 4 -35 18 -36 9 0 12 -3 5 -5 -7 -3 -10 -11 -8 -17 6 -18 18 -118 18
-151 0 -15 -6 -32 -12 -36 -9 -5 -8 -9 4 -14 12 -4 15 -12 10 -24 -4 -9 -7
-32 -6 -49 1 -24 -3 -33 -14 -33 -9 0 -14 -4 -11 -8 3 -5 20 -7 38 -5 18 1 27
0 21 -3 -7 -3 -13 -13 -13 -22 0 -8 -8 -24 -17 -35 -10 -11 -12 -17 -5 -13 18
11 15 -5 -5 -21 -17 -13 -17 -14 4 -10 15 3 23 -1 27 -17 5 -16 8 -18 15 -7
13 21 24 -4 16 -39 -4 -17 -13 -30 -21 -30 -15 0 -19 -35 -5 -44 5 -4 7 4 4
16 -3 13 -3 20 1 16 12 -11 25 -78 15 -78 -5 0 -9 -5 -9 -11 0 -6 7 -9 15 -5
11 4 15 -1 15 -18 0 -14 3 -33 6 -43 6 -16 5 -16 -10 2 l-16 20 7 -20 c3 -11
10 -25 14 -31 5 -6 6 -14 2 -18 -11 -11 -12 -36 -1 -36 5 0 6 -10 2 -22 -4
-13 -7 -27 -6 -33 8 -84 7 -105 -2 -105 -6 0 -5 -4 2 -9 15 -9 13 -42 -3 -53
-6 -4 -2 -8 8 -8 10 0 15 -4 12 -10 -3 -6 1 -7 9 -4 9 3 16 12 16 20 0 8 5 14
11 14 5 0 7 -6 3 -12 -6 -10 -4 -10 7 -1 10 10 10 16 1 25 -7 7 -12 45 -12 99
0 91 6 123 21 113 13 -8 11 70 -2 83 -6 6 -9 41 -7 87 2 42 0 77 -3 79 -4 1
-2 43 3 92 13 120 15 185 6 215 -8 24 -7 24 7 6 14 -19 15 -18 15 12 0 18 5
32 11 32 5 0 7 -6 3 -13 -4 -6 -3 -8 1 -4 13 11 18 187 6 201 -12 14 13 51 28
41 6 -3 11 -1 11 4 0 6 -5 11 -11 11 -6 0 -8 8 -4 19 3 10 -1 56 -9 102 -13
76 -9 118 8 90 4 -6 2 -11 -4 -11 -6 0 -8 -5 -4 -11 4 -8 9 -7 15 2 5 8 2 20
-6 29 -9 10 -11 21 -5 30 5 8 6 18 3 24 -4 5 -1 6 7 1 10 -6 12 -4 7 8 -4 11
-2 14 8 11 20 -8 38 31 25 56 -6 11 -8 20 -5 20 4 0 -1 7 -9 16 -9 8 -13 20
-10 26 12 19 8 223 -5 245 -14 28 -14 58 0 82 8 11 9 31 4 57 -5 21 -7 43 -6
48 1 5 -4 13 -11 17 -10 7 -9 9 5 9 15 0 23 22 18 52 -1 10 0 173 2 215 2 33
15 38 47 18 11 -6 10 -2 -3 12 -9 11 -15 22 -13 24 10 9 14 59 5 54 -5 -4 -9
1 -9 10 0 10 5 14 13 10 6 -4 5 -1 -4 7 -9 7 -14 19 -11 26 2 7 -4 22 -13 32
-19 21 -12 60 11 60 8 0 14 5 14 11 0 5 -6 7 -12 3 -10 -6 -10 -4 -2 7 6 8 13
24 16 35 4 17 2 20 -13 17 -28 -8 -24 25 5 52 14 13 27 21 30 18 3 -3 4 7 3
23 -1 16 -6 32 -12 36 -6 5 -6 8 1 8 21 0 25 65 8 115 -9 27 -14 63 -12 81 2
18 1 31 -3 28 -4 -2 -9 6 -13 19 -8 32 -8 35 12 40 15 4 15 5 -2 6 -16 1 -16
3 -6 17 11 12 11 15 0 12 -8 -2 -16 5 -18 15 -2 12 3 17 16 17 30 0 52 61 30
87 -16 20 -17 95 0 88 6 -2 12 0 12 5 0 6 -5 10 -11 10 -6 0 -3 7 5 16 9 9 16
32 16 55 0 21 4 39 9 39 5 0 12 13 16 30 4 17 11 30 16 30 6 0 15 13 20 30 6
16 15 27 21 24 6 -4 6 2 -1 14 -11 21 -5 52 10 52 4 0 6 7 3 15 -9 22 -22 18
-27 -7 -4 -20 -4 -20 -6 4 0 15 4 39 11 53 10 22 17 26 39 21 14 -3 31 0 37 6
12 12 115 20 107 8 -3 -5 -1 -11 5 -15 5 -3 10 3 10 14 0 12 6 21 13 22 6 0 3
4 -8 9 -16 7 -17 9 -3 9 21 1 34 -19 19 -28 -8 -5 -4 -14 14 -27 16 -12 23
-25 19 -36 -6 -19 10 -25 21 -8 8 13 35 13 35 -1 0 -5 -6 -7 -12 -4 -7 4 -2
-3 11 -14 27 -25 54 -27 71 -6 7 8 17 15 23 15 6 0 3 -6 -8 -13 -14 -11 -15
-16 -5 -22 9 -5 11 -4 6 3 -4 7 -1 12 10 12 11 0 15 -6 11 -20 -4 -15 -1 -20
11 -18 11 2 16 -4 16 -17 0 -11 -6 -19 -13 -17 -7 1 -9 -2 -6 -9 5 -7 14 -4
29 9 35 32 51 33 64 3 7 -15 13 -40 15 -57 2 -16 9 -39 16 -52 6 -12 8 -22 4
-22 -4 0 -1 -5 7 -10 9 -6 10 -10 3 -10 -7 0 -23 -11 -35 -23 -19 -19 -21 -26
-11 -36 13 -12 83 -6 83 8 0 4 10 7 23 8 l22 2 -22 -19 c-18 -14 -20 -19 -8
-24 8 -3 22 -2 32 1 10 4 14 2 9 -5 -6 -10 29 -29 47 -24 4 1 7 -5 7 -13 0 -8
5 -15 10 -15 6 0 10 -9 10 -21 0 -11 -4 -17 -10 -14 -5 3 -10 2 -10 -3 0 -14
23 -21 53 -15 19 4 27 1 27 -8 0 -12 2 -12 9 0 7 11 12 10 27 -8 10 -11 24
-21 30 -21 6 0 18 -8 25 -17 8 -10 9 -14 2 -10 -6 4 -14 3 -17 -1 -3 -5 5 -9
17 -9 57 1 66 -4 97 -49 20 -29 25 -44 16 -41 -10 4 -16 1 -16 -8 0 -10 10
-15 32 -15 17 0 29 -3 25 -6 -3 -4 0 -13 8 -20 8 -8 12 -21 9 -29 -4 -10 0
-15 14 -15 11 0 32 -13 45 -30 14 -16 30 -30 34 -30 21 0 32 -23 22 -43 -8
-14 -8 -18 0 -13 6 4 15 -4 21 -19 6 -15 19 -29 30 -32 11 -3 20 -9 20 -14 0
-5 7 -9 15 -9 8 0 15 -5 15 -11 0 -7 8 -18 18 -26 10 -9 11 -12 2 -7 -9 4 -12
3 -7 -2 9 -9 13 -10 42 -13 21 -1 31 -31 14 -42 -10 -6 -8 -8 8 -6 12 0 19 6
16 12 -4 5 3 2 14 -8 11 -9 27 -17 36 -17 8 0 18 -9 22 -20 3 -11 25 -32 48
-48 23 -16 41 -34 40 -40 -2 -6 4 -9 12 -6 9 4 15 0 15 -9 0 -9 9 -19 20 -22
18 -6 24 -17 21 -37 0 -5 5 -7 12 -5 7 1 11 -7 9 -22 -2 -19 2 -22 18 -18 11
3 20 1 20 -5 0 -5 4 -6 10 -3 6 3 10 1 10 -5 0 -6 5 -8 10 -5 6 3 10 -1 10 -9
0 -8 4 -18 10 -21 6 -4 7 1 3 10 -5 15 -3 15 14 5 32 -20 48 -51 31 -61 -12
-8 -4 -13 16 -10 5 1 6 -7 3 -18 -5 -21 18 -38 27 -18 3 9 5 9 5 0 1 -7 8 -10
16 -7 10 4 15 0 15 -11 0 -9 4 -14 9 -10 6 3 15 -4 21 -15 6 -11 14 -19 18
-17 4 1 22 -14 40 -33 28 -28 35 -32 43 -20 8 11 9 7 7 -16 -3 -23 -1 -31 9
-27 8 3 13 -2 13 -13 0 -9 3 -14 7 -11 12 12 94 -86 89 -106 -4 -18 -4 -18 14
-2 18 16 20 16 41 -3 12 -12 19 -27 16 -35 -4 -10 0 -14 11 -12 9 1 22 -2 29
-7 7 -5 18 -6 25 -2 10 5 11 4 1 -7 -18 -18 -16 -30 3 -22 10 4 20 -1 26 -11
5 -9 13 -14 18 -11 4 3 11 -2 14 -11 4 -10 13 -13 26 -9 14 4 20 2 18 -6 -2
-7 7 -18 20 -24 12 -5 22 -16 22 -23 0 -8 6 -12 13 -9 6 2 26 -5 42 -17 17
-11 33 -21 36 -21 3 0 13 -8 23 -17 10 -10 22 -18 27 -18 5 0 9 -8 9 -17 0 -9
3 -13 6 -10 10 9 44 -12 44 -27 0 -8 10 -21 23 -30 12 -9 16 -14 8 -10 -9 5
-12 3 -7 -5 4 -6 11 -9 15 -6 10 6 87 -63 84 -75 -2 -5 7 -5 20 1 24 11 34 40
13 36 -6 -1 -10 4 -8 11 1 7 -6 15 -15 19 -20 7 -82 58 -86 70 -1 5 -6 7 -10
5 -5 -1 -11 7 -14 18 -3 11 -9 17 -15 14 -5 -3 -14 8 -21 25 -6 17 -17 30 -23
28 -14 -2 -154 138 -154 154 0 14 -26 39 -40 39 -6 0 -15 11 -21 24 -6 13 -22
29 -35 35 -13 6 -24 19 -24 30 0 11 -9 27 -21 35 -12 8 -18 19 -14 25 3 6 2
11 -3 11 -13 0 -81 68 -74 74 3 3 0 6 -8 6 -9 0 -10 3 -1 13 6 8 8 17 4 20 -3
4 1 7 11 7 13 0 16 -5 11 -22 -5 -20 -5 -21 5 -5 9 14 15 15 25 7 10 -9 16 -7
24 8 8 16 7 21 -5 26 -10 4 -13 2 -8 -7 8 -14 -32 18 -58 46 -9 10 -20 18 -24
17 -5 -1 -11 7 -15 17 -7 17 -8 16 -8 -2 -1 -14 -4 -16 -10 -7 -6 10 -10 10
-19 -1 -10 -11 -5 -22 24 -50 19 -21 30 -37 25 -37 -16 0 -58 43 -65 68 -4 12
-13 22 -19 22 -7 0 -6 4 3 10 9 6 10 10 3 10 -6 0 -15 9 -18 20 -4 11 -11 17
-17 14 -7 -5 -9 -2 -6 8 4 8 -2 20 -13 27 -11 6 -19 17 -18 24 3 28 -2 48 -11
42 -6 -3 -10 -1 -10 6 0 7 -3 9 -6 6 -13 -13 -46 15 -77 66 -18 29 -31 55 -29
59 1 5 -7 8 -19 8 -15 0 -19 5 -15 15 3 9 -1 15 -11 15 -14 0 -35 20 -73 67
-6 7 -10 17 -10 23 0 5 -4 10 -10 10 -11 0 -50 36 -45 42 2 1 -12 14 -31 28
-20 15 -34 34 -34 48 0 13 -6 22 -16 22 -14 0 -15 -2 -3 -17 13 -17 13 -17 -6
-3 -32 23 -55 48 -55 60 0 5 -8 10 -17 10 -9 0 -13 3 -10 7 11 11 -13 31 -31
26 -13 -3 -23 5 -32 24 -7 15 -13 32 -11 36 1 5 -3 6 -8 2 -6 -3 -18 7 -28 22
-10 15 -22 31 -27 34 -5 4 -5 12 -2 18 4 6 4 11 -1 10 -20 -3 -27 2 -13 11 12
8 9 10 -11 10 -26 0 -54 21 -43 32 2 3 -8 16 -23 30 -15 13 -29 29 -30 36 -5
22 -40 49 -87 67 -31 12 -46 24 -46 36 0 10 -9 21 -20 24 -11 3 -20 11 -20 16
0 6 -4 8 -8 5 -5 -3 -20 13 -34 35 -14 22 -30 39 -35 39 -13 -3 -33 64 -21 71
5 3 8 19 6 35 -2 23 -7 29 -25 27 -18 -2 -23 2 -23 22 0 14 5 25 11 25 7 0 9
9 6 21 -5 17 -3 18 10 7 14 -11 15 -11 5 8 -8 16 -20 21 -44 20 -37 -2 -58 13
-58 42 0 29 11 53 21 46 11 -6 7 25 -5 45 -6 10 -5 12 2 7 7 -4 12 -5 12 -1 0
3 -10 10 -22 16 -43 19 -68 36 -63 42 3 4 2 5 -2 2 -3 -3 -13 1 -21 8 -10 8
-13 8 -9 1 16 -27 -23 -20 -57 11 -25 22 -33 35 -24 38 7 3 3 6 -9 6 -13 1
-23 5 -23 9 0 5 -18 16 -39 25 -36 16 -39 21 -43 62 -4 53 5 91 20 88 6 -2 9
4 6 12 -4 8 -11 15 -18 15 -6 0 -2 7 8 15 26 20 113 20 132 0 11 -11 21 -12
33 -5 12 6 22 5 31 -3 12 -10 12 -9 1 5 -7 10 -18 15 -25 11 -8 -5 -8 -3 1 8
6 8 12 19 12 24 4 41 37 64 62 41 9 -8 10 -8 5 2 -10 18 5 15 19 -4 6 -9 24
-16 38 -16 15 0 27 -5 27 -10 0 -5 9 -4 21 2 21 12 37 5 67 -30 8 -8 11 -10 8
-4 -2 5 15 1 40 -10 24 -12 44 -26 44 -32 0 -7 14 -14 30 -16 17 -3 30 -1 30
4 0 4 7 8 16 8 8 0 12 -4 9 -10 -3 -5 -1 -10 5 -10 6 0 9 18 8 44 -2 24 -7 42
-11 39 -10 -6 -47 26 -47 41 0 6 4 5 9 -2 10 -16 47 -11 44 6 -2 6 3 9 11 6
13 -5 29 18 30 44 1 8 15 20 33 27 27 11 34 11 44 -1 6 -8 16 -14 21 -14 5 0
16 -6 24 -14 14 -15 49 -11 72 7 8 7 12 5 12 -8 0 -14 3 -15 15 -5 11 9 15 9
15 1 0 -7 5 -9 10 -6 6 3 10 0 10 -8 0 -13 4 -13 25 -4 14 7 25 18 25 25 0 19
44 14 67 -7 12 -11 23 -17 27 -14 3 3 16 -1 28 -9 15 -10 30 -12 43 -7 32 12
38 10 32 -12 -4 -16 -3 -18 9 -8 11 9 18 8 31 -2 14 -12 16 -12 8 0 -6 11 -4
13 8 8 10 -3 17 -3 17 1 0 4 18 7 40 8 30 0 39 -3 36 -13 -4 -11 -1 -11 14 -3
24 13 24 17 5 36 -20 20 -19 34 3 35 15 0 15 1 -1 8 -17 6 -16 8 8 19 34 16
50 15 85 -3 27 -14 32 -13 65 5 36 20 70 27 61 11 -3 -4 6 -6 19 -3 20 3 24 1
19 -12 -5 -13 -17 -15 -60 -12 -30 2 -54 0 -54 -5 0 -5 7 -9 15 -9 8 0 15 -4
15 -10 0 -5 6 -10 13 -10 7 0 29 -11 49 -25 49 -33 190 -46 370 -34 33 2 35 4
20 15 -9 7 -25 14 -34 14 -9 0 -19 8 -21 18 -4 16 -5 16 -6 0 -1 -25 -51 -21
-141 9 -14 5 -43 10 -82 15 -22 3 -22 5 -2 25 13 14 17 14 25 2 7 -12 9 -11 9
2 0 14 8 16 93 21 12 0 51 0 87 0 130 -2 144 -1 129 10 -10 6 -7 7 11 2 42
-12 100 -12 100 0 0 6 5 3 11 -6 5 -10 15 -18 22 -18 7 0 6 4 -3 10 -13 8 -13
10 2 10 9 0 19 -6 21 -12 4 -10 6 -10 6 0 1 6 12 12 25 12 14 0 27 4 30 9 6
10 127 8 144 -3 7 -4 12 -2 12 4 0 6 3 9 8 7 4 -3 35 1 69 8 41 8 128 12 250
11 103 -1 205 1 226 5 20 3 37 3 37 -1 0 -9 16 -7 41 4 8 4 28 2 43 -4 17 -6
33 -7 40 -2 6 5 58 10 116 11 58 1 124 3 148 5 24 1 45 -1 48 -6 3 -4 12 -1
20 7 11 11 38 15 92 16 100 1 164 11 170 27 2 7 -6 12 -20 12 -13 0 -29 5 -35
11 -8 8 -46 10 -111 7 -68 -2 -98 0 -94 7 3 5 -2 4 -11 -3 -14 -12 -84 -15
-322 -12 -11 0 -79 -1 -151 -2 -98 -2 -136 1 -148 11 -9 7 -16 10 -16 5 0 -13
-80 -12 -80 1 0 5 -4 4 -9 -4 -6 -9 -10 -10 -16 -2 -4 8 -11 9 -18 2 -32 -26
-220 -18 -237 10 -5 7 -10 7 -14 1 -3 -5 -33 -8 -68 -5 -35 2 -93 5 -129 7
-36 1 -71 6 -78 10 -6 4 -53 10 -104 12 -55 3 -95 10 -99 17 -6 9 -8 9 -8 -1
0 -10 -5 -10 -21 -2 -11 6 -35 10 -52 9 -18 -1 -43 3 -57 8 -14 6 -28 9 -32 6
-4 -2 -19 4 -32 13 -24 15 -27 15 -56 -6 -26 -19 -29 -19 -23 -3 6 17 5 17
-14 1 -22 -20 -58 -24 -68 -8 -3 6 -11 10 -16 10 -6 0 -7 -4 -4 -10 4 -6 -7
-11 -24 -11 -17 -1 -39 -2 -48 -3 -10 0 -22 9 -28 22 -5 12 -14 22 -20 22 -5
0 -23 7 -38 15 -15 8 -25 10 -22 5 4 -6 1 -10 -4 -10 -6 0 -11 5 -11 11 0 5
-4 7 -10 4 -5 -3 -10 -1 -10 5 0 7 -7 9 -16 6 -33 -13 -69 -18 -55 -8 9 7 -2
9 -37 9 -28 0 -57 5 -66 12 -9 8 -16 10 -16 6 0 -4 -6 -2 -13 4 -8 6 -24 13
-38 15 -13 3 -24 5 -24 6 0 1 -16 3 -35 4 -47 3 -147 -12 -170 -26 -14 -9 -22
-9 -35 2 -12 10 -19 10 -27 2 -16 -16 -29 -15 -25 1 1 7 -6 11 -18 9 -21 -3
-60 -3 -95 0 -11 1 -20 9 -20 17 0 11 -3 10 -14 -4 -8 -12 -20 -16 -34 -13
-12 3 -23 1 -25 -6 -3 -7 -14 -6 -37 7 -17 9 -37 14 -43 10 -6 -3 -23 -7 -38
-7 -24 -1 -26 2 -18 22 7 17 5 22 -7 22 -9 0 -12 5 -8 12 4 6 3 8 -3 5 -5 -3
-26 -1 -46 5 -50 15 -101 -5 -94 -38 3 -19 1 -21 -12 -15 -16 9 -23 11 -41 11
-5 0 -10 8 -10 18 -1 22 -30 63 -30 41 0 -9 -7 -5 -19 10 -12 16 -20 20 -25
12 -4 -6 -13 -8 -19 -4 -7 4 -6 0 2 -10 12 -15 10 -17 -28 -17 -23 0 -53 7
-67 16 l-24 17 19 33 c14 23 16 34 8 34 -7 0 1 7 17 15 15 8 36 15 45 15 14 0
14 2 1 10 -8 5 -10 10 -4 10 5 0 15 -5 21 -11 7 -7 15 -6 26 5 14 15 17 15 31
0 11 -10 16 -11 16 -3 0 7 3 9 6 6 4 -3 16 0 28 8 11 8 28 15 38 15 20 0 25 7
32 43 3 20 1 25 -11 20 -13 -5 -15 -1 -11 19 4 24 3 24 -33 18 -38 -7 -75 3
-48 13 9 3 3 7 -13 12 -27 7 -27 7 -8 28 11 11 23 17 27 13 4 -4 1 -11 -7 -16
-8 -5 -11 -13 -6 -17 5 -4 11 -2 13 5 3 6 9 10 14 7 5 -4 6 0 4 7 -3 8 11 29
32 48 20 19 31 27 24 18 -12 -16 -11 -18 9 -18 19 0 21 4 17 36 -3 19 -3 33 0
30 3 -3 20 1 38 9 19 7 37 10 42 7 4 -4 5 -3 1 2 -10 12 10 48 23 41 5 -4 9
-2 9 4 0 12 61 77 70 74 3 -1 7 1 10 4 3 4 -1 3 -7 -1 -7 -4 -13 -3 -13 2 0
12 44 52 58 52 6 0 14 5 18 12 4 7 3 8 -4 4 -7 -4 -12 -3 -12 2 0 12 50 36 73
35 13 0 17 8 17 32 0 23 6 35 25 45 13 7 22 17 19 21 -2 4 32 25 76 46 71 34
80 41 80 66 0 20 7 30 25 37 33 13 32 18 -5 15 -32 -3 -37 4 -18 23 16 16 31
15 22 0 -4 -7 2 -5 13 5 11 9 23 14 27 10 4 -4 12 0 17 10 6 9 17 17 24 17 8
0 15 9 15 20 0 10 11 29 23 42 54 52 102 93 109 91 4 -2 5 7 3 19 -8 40 7 68
44 88 21 10 43 26 50 34 8 9 23 16 35 16 17 0 18 2 6 10 -12 8 -11 11 8 16 18
5 20 9 10 15 -10 7 -9 9 4 9 22 0 63 38 72 66 6 18 14 22 56 21 43 -1 52 3 72
28 13 16 22 33 21 37 -5 13 15 9 20 -4 4 -10 6 -10 6 0 1 8 -8 16 -19 19 -11
3 -20 13 -20 22 0 14 2 14 10 1 7 -11 10 -11 10 -2 0 7 5 10 10 7 6 -3 10 1
10 9 0 26 1 30 22 59 11 15 23 25 28 22 5 -3 11 -1 15 5 4 6 11 7 17 4 6 -4 8
-2 5 3 -4 6 3 18 16 26 26 17 87 75 87 82 0 6 16 24 76 90 26 28 43 44 39 36
-6 -9 -4 -12 3 -7 7 4 12 13 12 19 1 20 49 69 63 62 6 -4 4 0 -5 8 -20 16 -24
37 -8 37 6 0 10 7 10 15 0 8 9 15 20 15 22 0 27 25 8 34 -10 4 -10 7 -1 12 6
3 9 18 6 35 -4 26 -1 29 21 29 14 0 28 5 31 11 4 6 13 8 19 6 13 -5 42 31 38
47 -2 5 4 6 11 3 11 -4 13 0 10 14 -3 11 -2 19 3 18 25 -4 34 4 34 29 1 19 14
41 47 72 25 25 42 39 38 31 -5 -9 -4 -12 3 -7 7 4 12 13 12 21 0 7 7 15 15 19
8 3 15 0 15 -6 0 -6 3 -8 6 -5 4 4 2 13 -4 20 -7 8 -9 17 -5 21 4 4 -3 9 -16
13 -22 5 -21 7 16 43 52 52 66 69 80 103 7 16 17 26 22 23 5 -3 7 3 4 13 -4
14 6 27 34 48 21 15 67 58 103 95 35 37 68 64 73 61 6 -3 7 -2 4 4 -3 5 9 25
28 43 19 19 35 40 35 47 0 22 -45 14 -70 -12 -13 -14 -29 -25 -37 -25 -7 0
-13 -4 -13 -9 0 -11 -95 -81 -110 -81 -6 0 -10 -4 -10 -10 0 -5 -7 -10 -15
-10 -8 0 -15 -6 -15 -13 0 -15 -89 -93 -102 -89 -5 1 -7 -2 -3 -8 12 -19 -6
-32 -20 -13 -12 16 -13 15 -8 -8 3 -19 -2 -31 -19 -45 -13 -10 -29 -31 -35
-46 -7 -16 -20 -28 -28 -28 -9 0 -20 -11 -25 -25 -5 -14 -14 -25 -20 -25 -5 0
-9 -6 -8 -12 2 -8 -6 -12 -19 -10 -25 3 -39 -13 -26 -31 6 -8 -11 -32 -56 -77
-35 -35 -61 -59 -57 -52 5 8 2 10 -9 6 -12 -5 -13 -9 -4 -20 9 -11 8 -14 -4
-14 -9 0 -23 10 -32 23 -12 15 -19 18 -22 10 -3 -7 -9 -13 -14 -13 -6 0 -7 4
-4 10 3 6 -1 7 -9 4 -9 -3 -16 -15 -16 -25 0 -10 -3 -19 -7 -19 -5 0 -17 -13
-28 -29 -10 -16 -23 -27 -27 -25 -4 3 -8 0 -8 -5 0 -6 -6 -11 -14 -11 -7 0
-20 -8 -27 -17 -13 -17 -13 -17 6 -3 15 11 14 8 -4 -12 -13 -15 -28 -26 -34
-25 -6 1 -11 -5 -12 -13 0 -9 -9 -15 -22 -14 -12 0 -20 -3 -17 -8 3 -4 -2 -8
-10 -8 -10 0 -13 -6 -10 -15 4 -9 0 -15 -9 -15 -9 0 -18 -9 -22 -19 -3 -11
-12 -22 -20 -25 -8 -3 -15 -10 -15 -16 0 -21 -107 -113 -121 -104 -5 3 -9 1
-9 -5 0 -5 8 -12 18 -14 13 -4 12 -5 -5 -6 -12 0 -24 -9 -27 -19 -9 -26 -66
-80 -66 -61 0 8 -9 -1 -20 -19 -13 -20 -27 -32 -38 -30 -12 2 -18 -5 -20 -22
-2 -14 -9 -30 -16 -35 -7 -6 -16 -20 -20 -33 -5 -15 -15 -22 -31 -22 -19 0
-30 -10 -45 -40 -11 -22 -28 -40 -38 -41 -10 0 -12 -3 -4 -6 17 -7 15 -23 -2
-23 -8 0 -22 -7 -30 -16 -9 -8 -16 -13 -16 -9 0 3 -9 -3 -21 -14 -12 -11 -27
-17 -34 -15 -8 3 -12 -1 -12 -11 1 -10 -7 -22 -17 -29 -19 -10 -72 -54 -102
-84 -8 -7 -14 -10 -15 -5 -1 4 -4 -3 -8 -17 -4 -14 -19 -31 -34 -38 -15 -7
-27 -17 -27 -22 0 -14 -42 -50 -51 -44 -5 2 -5 12 -2 21 4 11 3 14 -6 9 -6 -4
-10 -15 -9 -23 2 -9 -3 -18 -11 -21 -9 -3 -11 0 -6 9 5 8 4 11 -1 6 -5 -5 -9
-12 -9 -17 0 -4 -14 -21 -30 -37 -17 -15 -26 -25 -21 -20 18 13 29 7 15 -9 -7
-8 -21 -13 -31 -11 -10 3 -16 1 -13 -3 3 -5 -8 -17 -25 -26 -16 -10 -34 -31
-39 -46 -6 -15 -16 -28 -24 -28 -8 0 -20 -7 -27 -15 -7 -8 -20 -15 -28 -15
-19 0 -114 -99 -107 -110 3 -5 -5 -16 -17 -24 -12 -9 -18 -16 -13 -17 6 0 -8
-6 -30 -13 -27 -9 -44 -9 -53 -3 -9 7 -12 7 -10 -3 2 -7 -3 -15 -11 -18 -10
-3 -11 0 -5 9 11 19 -26 -10 -44 -33 -7 -10 -22 -18 -32 -18 -10 0 -22 -4 -25
-10 -3 -5 -21 -8 -39 -6 -23 3 -33 1 -33 -9 0 -7 6 -11 14 -8 29 11 10 -6 -27
-25 -22 -10 -37 -14 -33 -8 3 6 -11 -8 -32 -32 -26 -30 -42 -41 -55 -37 -12 4
-19 -1 -23 -15 -5 -18 -24 -25 -74 -23 -7 1 -11 -3 -8 -7 7 -11 -24 -24 -64
-28 -8 -1 -12 -5 -8 -8 3 -3 -4 -17 -15 -30 -18 -20 -24 -22 -37 -11 -14 11
-14 10 -2 -6 12 -15 11 -20 -9 -37 -28 -24 -30 -24 -30 -4 0 9 5 12 13 8 9 -5
9 -3 -1 7 -11 12 -14 12 -22 -1 -5 -8 -10 -10 -10 -5 0 6 -9 16 -21 23 -12 8
-18 9 -15 4 3 -6 -1 -13 -10 -16 -9 -3 -14 -13 -11 -21 4 -9 1 -12 -9 -8 -12
4 -12 8 -2 21 11 13 10 14 -8 8 -14 -4 -26 -1 -34 9 -11 13 -10 19 5 33 11 10
15 11 10 3 -6 -10 -4 -12 5 -6 10 6 12 4 6 -11 -6 -15 -5 -16 5 -7 10 10 9 15
0 27 -7 8 -11 19 -8 23 7 11 -19 33 -29 25 -5 -4 -2 1 5 11 12 14 11 17 -3 17
-12 0 -16 9 -16 34 0 23 -8 42 -26 60 -24 23 -26 30 -17 59 7 24 6 38 -6 55
-11 19 -12 25 -2 32 8 5 9 10 3 14 -6 3 -7 20 -3 38 4 18 6 45 6 61 -1 15 3
27 7 27 4 0 5 7 1 16 -3 9 0 20 7 24 8 5 10 15 6 26 -4 11 -7 21 -7 24 0 3 -7
12 -15 22 -9 9 -17 22 -18 30 -5 24 -20 53 -34 67 -9 10 -10 17 -3 24 6 6 11
28 11 49 0 26 4 38 14 38 31 0 41 29 27 78 -7 26 -14 56 -15 68 -2 11 -6 26
-10 32 -4 7 -1 12 6 12 10 0 10 2 1 8 -7 5 -16 35 -19 68 -4 32 -13 67 -22 77
-8 9 -12 20 -9 24 4 3 7 1 7 -6 0 -7 4 -10 8 -7 5 3 5 31 0 63 -5 32 -11 78
-13 103 -9 87 -16 134 -21 142 -3 4 2 11 10 14 9 3 16 10 16 16 0 5 -4 6 -10
3 -5 -3 -10 -1 -10 4 0 6 5 11 11 11 6 0 9 6 6 14 -3 7 0 19 6 25 6 6 7 14 3
18 -4 4 -11 1 -16 -7 -8 -13 -10 -12 -10 2 0 9 6 23 13 30 15 17 18 48 3 42
-6 -2 -17 5 -24 16 -7 11 -8 20 -3 20 5 0 11 -6 13 -12 3 -8 9 -4 17 10 8 15
8 22 1 22 -6 0 -8 5 -5 10 4 6 2 17 -5 25 -9 11 -7 13 12 9 13 -2 8 1 -9 8
-18 6 -33 15 -33 20 0 5 5 6 10 3 6 -3 10 -2 10 3 0 6 9 8 21 5 19 -5 20 -4 8
15 -10 15 -16 18 -21 9 -5 -8 -8 -4 -8 11 0 12 4 22 9 22 9 0 -7 53 -23 79 -7
11 -6 12 5 6 11 -7 12 -6 2 6 -9 11 -9 19 -2 26 8 8 8 13 0 17 -14 9 -15 56
-1 56 8 0 8 28 0 50 -2 3 -2 8 -1 13 0 4 -5 7 -12 7 -10 0 -12 24 -10 106 2
79 -1 113 -12 135 -10 18 -11 29 -5 29 7 0 8 5 3 13 -11 18 -13 38 -2 31 5 -3
9 2 9 10 0 9 -5 16 -11 16 -6 0 -9 8 -6 18 3 9 10 31 15 47 10 34 -12 110 -29
99 -5 -3 -9 0 -9 5 0 6 4 11 9 11 5 0 11 9 14 20 3 11 12 20 20 20 12 0 12 7
4 40 -7 25 -14 35 -19 27 -5 -7 -8 1 -8 20 0 17 4 34 9 38 6 3 6 17 1 35 -5
17 -5 30 -1 30 15 0 31 73 19 87 -11 14 -32 18 -24 5 4 -7 -19 -8 -43 -3 -2 1
2 8 10 17 7 8 21 13 32 10 23 -6 16 3 -15 18 -13 7 -23 21 -24 31 0 11 -7 40
-14 65 -7 25 -14 95 -16 155 -2 61 -6 124 -9 140 -4 24 -3 26 4 10 7 -14 10
-16 10 -4 1 8 -3 19 -8 25 -5 5 -11 37 -13 72 -2 34 -10 68 -16 74 -9 9 -12 9
-13 -2z m68 -4028 c20 -6 40 -9 45 -6 4 3 8 -1 8 -8 0 -10 2 -10 9 1 9 13 71
26 71 14 0 -3 -8 -12 -17 -20 -10 -8 -13 -12 -7 -9 18 9 56 -33 49 -55 -4 -11
-2 -19 5 -19 6 0 10 -6 9 -12 -5 -39 2 -98 11 -93 6 3 13 -1 16 -9 3 -9 11
-13 18 -9 6 4 -4 -8 -21 -26 -33 -32 -45 -59 -20 -45 7 5 5 -2 -4 -16 -11 -17
-24 -24 -39 -22 -16 3 -20 0 -14 -10 6 -11 5 -11 -8 0 -21 17 -31 1 -19 -31
11 -29 6 -38 -17 -30 -14 4 -14 3 -3 -5 12 -8 8 -16 -20 -42 -19 -18 -28 -30
-21 -26 6 4 12 2 12 -3 0 -6 -12 -11 -27 -11 -22 0 -25 -2 -13 -10 24 -15 -1
-43 -39 -46 -22 -2 -41 4 -54 17 -15 13 -24 16 -33 8 -9 -7 -12 -6 -9 8 1 10
8 17 14 16 18 -5 12 4 -16 23 -24 15 -26 15 -14 1 7 -9 9 -17 3 -17 -12 0 -22
24 -22 51 0 11 -4 17 -10 14 -6 -3 -10 4 -10 16 0 12 -8 31 -17 41 -14 15 -14
21 -4 27 9 6 6 10 -11 15 -17 4 -20 8 -10 15 10 6 8 10 -10 16 -19 6 -20 8 -5
12 21 6 21 12 0 35 -11 12 -12 18 -4 18 8 0 7 5 -3 16 -20 19 -20 26 -2 69 8
18 12 36 9 39 -3 3 -2 17 1 31 5 18 12 25 21 21 8 -3 17 0 21 6 4 6 3 8 -3 5
-6 -4 -14 0 -17 9 -8 20 2 33 12 17 9 -15 27 -3 27 17 0 8 6 14 13 13 6 -2 12
1 12 6 0 5 14 4 30 -2 25 -9 36 -9 58 4 19 11 28 12 30 4 2 -7 19 -17 39 -23z"/>
<path d="M6617 8352 c-10 -10 -17 -24 -17 -30 0 -6 -5 -14 -12 -18 -7 -5 -8
-3 -3 6 5 8 4 11 -3 6 -6 -4 -8 -14 -5 -23 4 -11 3 -14 -5 -9 -8 4 -10 2 -6
-7 3 -8 -1 -21 -8 -28 -7 -8 -21 -30 -32 -48 -10 -19 -27 -42 -37 -52 -11 -11
-19 -28 -19 -39 0 -11 -4 -20 -10 -20 -5 0 -10 -10 -10 -22 0 -13 -12 -34 -26
-47 -26 -25 -67 -101 -59 -109 9 -9 -48 -101 -58 -95 -6 4 -8 0 -4 -9 4 -11
-2 -18 -16 -22 -20 -6 -20 -7 -5 -17 12 -7 24 -6 38 1 11 6 26 8 33 4 9 -6 9
-5 0 7 -15 19 5 47 32 43 18 -2 18 -2 3 10 -14 11 -13 13 13 25 17 7 29 20 29
31 0 10 7 20 15 24 8 3 20 17 25 31 6 17 14 24 22 19 7 -4 10 -4 6 1 -10 10
10 47 22 40 4 -3 7 3 6 12 -4 22 14 63 27 63 5 0 7 9 4 20 -3 13 1 21 14 25
10 4 20 11 20 16 2 13 6 29 9 32 1 1 3 9 5 18 5 26 62 99 71 91 5 -4 3 1 -4
10 -11 13 -11 20 0 37 10 17 10 23 -1 33 -11 11 -13 10 -6 -2 6 -12 5 -13 -6
-2 -17 16 -23 15 -42 -6z"/>
<path d="M3290 8314 c14 -4 31 -27 92 -122 9 -15 25 -43 34 -62 9 -19 21 -45
27 -57 6 -13 17 -23 26 -23 14 0 14 -2 1 -10 -12 -7 -9 -14 17 -37 34 -32 73
-93 73 -116 0 -8 7 -18 16 -21 8 -3 13 -10 10 -15 -3 -5 1 -12 10 -15 8 -3 12
-11 8 -17 -4 -7 -3 -9 4 -5 13 8 21 -5 24 -37 1 -14 6 -23 10 -21 5 3 11 -3
15 -13 11 -29 86 -153 93 -153 3 0 12 -16 20 -35 8 -19 17 -35 22 -35 4 0 5
-7 2 -15 -6 -14 11 -20 39 -16 4 0 7 -6 7 -14 0 -8 6 -15 14 -15 23 0 119 -67
104 -73 -7 -3 -1 -6 14 -6 14 -1 29 -7 31 -13 3 -7 5 1 4 17 -1 17 -9 39 -19
49 -14 16 -15 22 -5 35 6 8 7 12 1 8 -6 -3 -26 7 -45 23 -19 16 -39 29 -46 30
-6 0 -15 9 -18 20 -3 11 -11 20 -17 20 -6 0 -8 3 -5 7 4 3 1 13 -7 22 -44 51
-89 128 -88 152 0 19 -4 26 -16 25 -19 -1 -63 78 -66 118 0 13 -3 23 -6 22 -8
-4 -39 32 -32 38 3 3 0 6 -6 6 -7 0 -11 3 -10 8 2 4 -12 22 -30 41 -17 19 -32
40 -32 47 0 8 -4 14 -10 14 -5 0 -10 6 -10 13 0 7 -9 20 -20 30 -21 18 -28 43
-8 31 7 -4 8 -3 4 5 -4 6 -11 9 -16 6 -4 -3 -25 18 -46 46 -21 28 -55 64 -76
79 -24 18 -34 30 -26 33 7 3 -7 5 -32 5 -25 0 -38 -2 -30 -4z"/>
<path d="M8259 6985 c-3 -2 -18 -6 -34 -9 -17 -3 -48 -15 -70 -26 -21 -11 -46
-20 -55 -20 -9 0 -25 -7 -36 -15 -10 -8 -29 -15 -41 -15 -12 0 -23 -5 -25 -10
-2 -6 -15 -12 -29 -14 -25 -2 -86 -39 -101 -61 -5 -7 -8 -6 -8 1 0 7 -20 1
-47 -12 -27 -13 -56 -24 -65 -24 -10 0 -18 -4 -18 -10 0 -5 -7 -10 -15 -10 -9
0 -36 -11 -62 -24 -25 -14 -53 -22 -62 -19 -9 4 -12 2 -8 -3 5 -5 -13 -16 -40
-25 -41 -13 -48 -20 -49 -42 -1 -24 2 -26 25 -21 14 3 40 12 56 19 81 36 116
48 122 42 3 -4 15 0 25 10 10 9 18 11 18 5 0 -6 12 0 26 13 15 14 44 30 65 35
21 6 61 22 89 36 28 14 55 22 62 18 7 -4 8 -3 4 4 -6 11 19 18 47 13 4 0 7 3
7 8 0 5 18 16 39 24 22 9 42 21 45 26 4 5 20 12 36 16 17 4 30 11 30 15 0 5
19 14 41 20 23 6 51 21 63 32 11 12 15 18 8 14 -7 -4 -19 -3 -26 3 -7 6 -15 9
-17 6z"/>
<path d="M1867 6923 c-8 -13 16 -40 38 -45 13 -2 19 -11 18 -23 -1 -11 0 -14
3 -7 3 6 10 12 15 12 6 0 8 -4 5 -9 -3 -4 6 -7 19 -5 16 1 25 -3 25 -12 0 -8
6 -11 15 -7 9 3 25 -3 35 -12 11 -10 20 -15 20 -10 0 4 7 2 15 -5 9 -7 18 -10
22 -7 3 4 11 0 17 -8 6 -9 34 -18 66 -21 30 -3 68 -15 83 -26 15 -10 36 -21
47 -23 10 -2 29 -9 41 -15 14 -8 19 -8 15 -1 -4 6 0 11 9 11 9 0 13 -4 10 -10
-3 -5 -1 -10 5 -10 7 0 28 -16 49 -35 90 -86 110 -100 134 -96 4 0 7 -3 7 -9
0 -14 28 -12 33 3 3 9 7 9 20 -2 11 -9 17 -10 17 -2 0 6 5 11 10 11 6 0 8 -11
4 -27 -6 -23 -5 -26 7 -18 25 19 65 17 103 -4 36 -21 106 -29 106 -13 0 16
-45 50 -98 73 -29 13 -55 32 -58 41 -3 11 -15 18 -30 18 -13 0 -24 5 -24 11 0
5 -4 7 -10 4 -5 -3 -16 -3 -22 2 -7 4 -22 9 -32 10 -27 5 -47 23 -39 36 3 5 2
7 -4 4 -12 -8 -84 27 -99 48 -7 9 -16 15 -20 13 -15 -4 -54 13 -54 23 0 6 8 6
20 -1 14 -7 20 -7 20 0 0 11 0 11 -52 14 -20 2 -35 -1 -32 -6 4 -5 -5 -4 -17
4 -13 7 -28 19 -32 26 -4 6 -15 12 -23 12 -8 0 -12 4 -9 10 3 5 0 7 -9 4 -8
-3 -17 -12 -20 -21 -5 -13 -9 -13 -23 -2 -12 10 -14 10 -9 2 9 -16 4 -16 -28
0 -14 8 -22 18 -18 22 4 5 1 5 -6 1 -7 -4 -20 -2 -29 6 -9 7 -18 12 -20 11 -9
-7 -23 -2 -18 7 6 9 -14 14 -42 11 -7 -1 -13 2 -13 7 0 18 -154 51 -163 35z"/>
<path d="M6820 4828 c0 -12 3 -19 6 -15 3 3 18 -5 32 -19 15 -13 32 -24 39
-24 7 0 13 -4 13 -10 0 -15 30 -12 31 3 0 6 7 -4 14 -23 7 -19 14 -30 14 -23
1 7 10 10 24 7 12 -3 33 -7 47 -9 23 -2 61 -10 103 -22 9 -2 14 -9 11 -15 -5
-7 -1 -9 9 -5 9 3 19 2 22 -3 4 -6 15 -10 25 -10 10 0 23 -6 27 -12 8 -14 113
-68 130 -68 17 0 73 -47 65 -55 -4 -4 3 -1 16 6 12 8 22 17 22 21 0 4 11 -2
25 -14 13 -11 22 -24 20 -28 -3 -4 1 -8 8 -7 33 1 48 -4 41 -14 -4 -7 0 -9 12
-5 22 7 102 -16 138 -39 14 -9 29 -17 33 -17 4 0 17 -4 29 -8 23 -9 66 -14
102 -12 27 2 30 22 3 22 -11 0 -23 9 -26 21 -4 12 -12 18 -21 15 -7 -3 -16 -1
-19 4 -4 6 -16 10 -28 10 -26 1 -60 24 -50 34 4 4 0 4 -10 0 -10 -3 -28 1 -42
10 -14 9 -30 14 -35 11 -5 -3 -11 -1 -14 4 -4 5 -25 12 -48 16 -23 4 -54 16
-69 27 -15 11 -32 18 -37 14 -5 -3 -15 1 -22 9 -15 18 -68 45 -87 45 -8 0 -12
4 -8 9 3 5 0 13 -6 17 -8 4 -9 3 -5 -4 10 -16 -2 -15 -57 4 -31 10 -47 22 -47
32 0 14 -2 14 -9 3 -5 -7 -11 -9 -14 -4 -4 6 -21 11 -39 12 -18 1 -37 2 -43 3
-5 0 -18 -3 -27 -7 -11 -4 -18 -3 -18 4 0 6 -4 11 -10 11 -18 0 -59 42 -53 55
6 16 -19 30 -69 39 -21 4 -38 10 -38 14 0 4 -25 8 -55 9 -50 3 -55 1 -55 -19z"/>
<path d="M2767 4740 c-16 -5 -35 -14 -43 -21 -8 -6 -14 -9 -14 -6 0 7 -72 -22
-80 -32 -8 -10 -103 -43 -127 -44 -13 -1 -23 -6 -23 -12 0 -15 -44 -56 -63
-59 -8 -1 -22 -8 -30 -14 -9 -7 -24 -14 -36 -15 -11 0 -19 -6 -18 -11 1 -6 -4
-11 -10 -12 -7 -1 -16 -3 -20 -4 -5 -1 -12 -2 -16 -1 -5 1 -6 -3 -3 -8 7 -10
-22 -24 -34 -16 -5 3 -12 0 -16 -6 -5 -8 -2 -10 7 -5 8 4 5 0 -5 -8 -17 -14
-30 -17 -61 -16 -3 0 -18 -11 -33 -25 -15 -14 -30 -25 -35 -25 -5 0 -30 -15
-58 -32 -85 -56 -55 -75 46 -28 22 10 65 29 95 41 30 13 58 27 61 32 4 5 12 6
19 2 9 -5 11 -4 6 3 -4 7 -1 12 8 12 8 0 16 4 18 8 4 10 230 122 246 122 7 0
12 5 12 11 0 5 5 7 10 4 6 -3 10 -2 10 3 0 5 18 12 40 16 21 3 43 13 47 21 8
14 93 49 93 38 0 -3 10 7 22 22 19 25 32 76 18 74 -3 0 -18 -5 -33 -9z"/>
<path d="M5915 3752 c-17 -11 -15 -50 2 -56 8 -4 13 -13 9 -21 -3 -8 0 -17 6
-21 7 -5 8 -2 3 6 -5 9 -4 11 3 6 9 -5 9 -13 2 -26 -13 -25 -13 -30 5 -30 19
0 41 -52 44 -100 1 -13 2 -13 11 0 8 13 10 12 10 -2 0 -10 6 -18 14 -18 21 0
57 -75 43 -89 -8 -8 -7 -11 6 -11 9 0 17 -4 17 -10 0 -5 0 -12 0 -15 0 -2 14
-19 30 -37 17 -18 29 -37 27 -43 -2 -5 3 -16 10 -24 8 -7 12 -19 9 -27 -3 -7
0 -15 7 -18 8 -3 8 -5 -2 -5 -11 -1 -11 -4 0 -18 12 -15 12 -16 -1 -8 -13 7
-13 6 -2 -7 10 -12 10 -17 1 -20 -8 -3 -4 -11 10 -25 28 -26 83 -141 74 -155
-3 -6 -2 -8 4 -5 10 6 80 -129 75 -145 -1 -5 2 -7 7 -4 5 4 11 1 13 -6 2 -6 9
-8 16 -4 14 9 7 64 -14 104 -7 15 -14 44 -14 64 0 20 -5 38 -11 40 -7 2 -13
25 -14 51 -2 28 -10 56 -20 66 -9 11 -18 25 -20 33 -9 37 -18 58 -26 58 -5 0
-6 7 -3 15 4 8 2 15 -4 15 -10 0 -62 109 -62 133 0 8 -7 20 -15 27 -8 7 -15
17 -15 23 0 5 -8 16 -17 23 -10 7 -18 16 -18 21 -2 23 -18 53 -26 48 -5 -4 -9
1 -9 9 0 9 6 16 12 16 7 0 2 7 -10 16 -12 8 -20 20 -17 25 4 5 1 9 -4 9 -6 0
-22 17 -35 38 -21 33 -32 48 -76 100 -12 14 -20 15 -35 4z"/>
<path d="M4125 3732 c-6 -4 -23 -26 -39 -49 -16 -24 -33 -43 -37 -43 -5 0 -9
-6 -9 -14 0 -8 -8 -17 -17 -21 -17 -6 -17 -7 0 -17 17 -9 17 -11 1 -36 -9 -15
-28 -37 -41 -49 -13 -13 -22 -23 -19 -23 3 0 0 -13 -5 -30 -6 -16 -15 -30 -21
-30 -5 0 -6 5 -2 12 4 7 3 8 -5 4 -6 -4 -19 -26 -28 -47 -8 -22 -18 -37 -21
-35 -3 3 -11 -2 -19 -12 -8 -9 -11 -11 -7 -3 5 10 3 12 -5 6 -9 -5 -9 -11 -3
-17 12 -12 -2 -52 -30 -84 -10 -11 -15 -24 -11 -27 3 -4 1 -7 -5 -7 -7 0 -12
-9 -12 -19 0 -11 -3 -21 -7 -23 -11 -5 -53 -66 -53 -77 0 -5 -11 -18 -25 -28
-13 -10 -26 -30 -29 -45 -2 -15 -7 -32 -11 -38 -3 -5 -8 -20 -10 -31 -3 -12
-10 -38 -16 -57 -9 -26 -14 -31 -21 -21 -7 11 -8 9 -4 -5 4 -10 2 -24 -4 -31
-7 -8 -7 -15 -1 -19 5 -3 7 -16 4 -29 -4 -20 -3 -20 7 -4 6 9 15 15 19 13 4
-3 13 11 20 30 8 21 17 32 24 28 7 -4 9 -4 5 1 -6 6 19 60 57 125 49 81 89
140 96 140 5 0 8 3 7 8 -3 10 59 128 79 152 9 10 21 16 26 13 6 -3 7 -1 3 5
-3 5 5 24 19 40 14 16 25 34 25 39 0 5 8 18 19 29 10 11 24 30 30 42 6 12 19
22 29 23 10 0 12 3 5 6 -19 7 7 42 26 36 14 -4 14 -3 1 5 -12 9 -12 13 3 30 9
10 14 22 10 25 -3 4 3 16 15 27 23 22 29 36 11 24 -9 -5 -10 4 -4 32 4 21 8
45 8 52 0 6 4 12 9 12 4 0 8 5 8 10 0 12 -30 13 -45 2z"/>
</g>
</svg>
