<?xml version="1.0" standalone="no"?>
<!DOCTYPE svg PUBLIC "-//W3C//DTD SVG 20010904//EN"
 "http://www.w3.org/TR/2001/REC-SVG-20010904/DTD/svg10.dtd">
<svg version="1.0" xmlns="http://www.w3.org/2000/svg"
 width="1024.000000pt" height="1024.000000pt" viewBox="0 0 1024.000000 1024.000000"
 preserveAspectRatio="xMidYMid meet">
<metadata>
Created by potrace 1.16, written by Peter Selinger 2001-2019
</metadata>
<g transform="translate(0.000000,1024.000000) scale(0.100000,-0.100000)"
fill="#000000" stroke="none">
<path d="M1635 9590 c4 -19 13 -44 20 -55 25 -39 46 -118 35 -129 -5 -5 -10
-15 -10 -20 0 -6 5 -5 12 2 9 9 18 4 39 -20 23 -28 25 -36 15 -57 -8 -19 -8
-25 2 -29 6 -2 12 -12 12 -23 0 -10 5 -19 11 -19 6 0 8 -7 5 -16 -3 -8 -2 -13
3 -10 9 6 26 -22 22 -37 -1 -5 3 -6 8 -3 9 6 38 -52 33 -66 -1 -5 3 -8 9 -8
19 0 39 -28 33 -47 -4 -13 -3 -15 4 -4 12 17 67 -119 59 -148 -3 -12 -2 -19 2
-17 4 3 15 -4 25 -15 11 -13 23 -18 36 -14 20 6 24 -1 21 -37 -1 -10 3 -18 8
-18 6 0 11 -8 12 -17 0 -10 9 -31 19 -48 43 -68 48 -80 39 -103 -5 -13 -13
-21 -19 -17 -6 3 -7 0 -4 -9 3 -9 10 -13 15 -10 8 5 14 -47 12 -108 -1 -16 3
-25 8 -22 8 5 13 -35 12 -91 0 -11 3 -22 6 -25 7 -5 51 -96 51 -105 0 -3 -3
-4 -7 -3 -5 0 -16 -2 -26 -7 -33 -14 -42 11 -43 113 -1 105 -8 134 -30 125 -8
-3 -14 0 -14 7 0 6 -4 8 -10 5 -9 -5 -11 -1 -10 20 0 3 -4 11 -10 18 -32 37
-59 89 -54 102 4 8 1 15 -5 15 -6 0 -11 7 -11 15 0 18 -30 20 -31 3 0 -7 -2
-28 -3 -46 -2 -18 0 -35 5 -38 5 -3 6 3 3 13 -5 16 -4 16 10 -1 9 -11 16 -35
16 -53 0 -18 9 -53 21 -77 14 -30 19 -59 17 -92 -3 -49 -6 -51 -43 -39 -17 6
-18 5 -5 -5 13 -10 11 -11 -8 -7 -12 3 -20 1 -17 -3 3 -5 0 -10 -6 -12 -17 -6
-1 -46 23 -59 17 -9 24 -8 34 5 9 13 13 14 17 4 4 -8 8 -6 12 9 4 11 17 24 28
27 19 4 20 3 7 -7 -20 -16 -22 -34 -5 -34 8 0 12 4 9 9 -3 4 -1 8 4 8 12 0 23
-55 16 -75 -4 -8 -11 -15 -16 -15 -6 0 -4 -8 3 -17 12 -15 12 -16 -3 -10 -19
7 -25 -8 -8 -18 6 -4 8 -15 5 -26 -4 -12 -1 -21 9 -25 10 -4 16 -18 16 -39 0
-25 5 -35 20 -40 11 -3 20 -13 20 -21 0 -11 -4 -12 -19 -4 -11 5 -23 15 -26
20 -3 6 -12 10 -20 10 -20 0 -13 -39 18 -99 15 -28 25 -51 22 -51 -2 0 7 -17
21 -37 17 -25 24 -48 22 -65 -3 -15 -1 -25 3 -23 11 7 19 -38 9 -50 -5 -6 -7
-20 -5 -30 2 -11 4 -26 4 -33 1 -7 13 -11 33 -10 29 3 34 -2 60 -49 15 -29 24
-53 18 -53 -5 0 -10 7 -10 16 0 10 -6 14 -15 11 -8 -4 -22 5 -33 20 l-19 27
-5 -37 c-2 -20 0 -37 4 -37 4 0 8 5 8 12 0 6 3 8 6 5 4 -4 1 -14 -7 -24 -12
-14 -12 -16 0 -8 11 6 13 2 7 -19 -4 -18 -3 -25 3 -22 12 8 36 -37 45 -84 8
-46 6 -56 -8 -52 -6 1 -1 -6 12 -17 21 -18 32 -48 13 -36 -5 3 -13 0 -17 -6
-5 -8 -3 -9 6 -4 10 6 12 3 8 -13 -4 -12 -2 -20 3 -16 5 3 9 -1 10 -8 0 -7 2
-24 5 -37 4 -21 3 -22 -13 -10 -15 12 -16 12 -7 -1 11 -19 34 -151 28 -162 -3
-4 0 -8 6 -8 8 0 11 -17 8 -55 -2 -30 -1 -55 4 -55 4 0 8 -7 8 -15 0 -8 9 -19
20 -25 11 -6 20 -18 20 -26 0 -19 42 -15 46 4 1 7 0 8 -3 2 -7 -16 -33 -12
-33 5 0 8 5 15 10 15 6 0 10 12 10 28 0 15 5 34 10 42 8 12 10 11 10 -6 0 -11
6 -21 13 -21 7 0 13 11 12 26 0 15 -6 25 -13 23 -7 -1 -11 1 -10 5 1 5 -6 35
-17 68 -10 33 -19 74 -20 92 -1 17 -9 39 -18 48 -10 9 -17 23 -17 31 0 14 2
14 15 0 8 -8 15 -20 15 -26 0 -6 4 -9 9 -6 5 3 12 -6 16 -21 3 -15 9 -23 13
-17 4 5 22 10 41 11 44 2 62 -19 59 -72 -2 -47 -14 -75 -40 -93 -22 -16 -25
-67 -4 -59 9 4 22 -7 35 -29 11 -19 16 -34 11 -34 -13 0 -9 -21 7 -37 14 -15
27 -17 18 -3 -3 6 -2 10 3 10 13 0 22 -35 16 -64 -2 -14 3 -29 13 -37 11 -10
14 -10 9 -1 -4 6 -3 12 2 12 6 0 13 -7 16 -16 8 -22 8 -26 -4 -19 -6 4 -8 -7
-5 -30 2 -21 0 -33 -5 -30 -6 4 -10 -3 -10 -14 0 -11 5 -23 12 -27 7 -4 8 -3
4 4 -4 7 -3 12 1 12 9 0 45 -63 49 -83 1 -7 10 -29 19 -50 9 -22 11 -36 6 -32
-6 3 -11 -2 -11 -12 0 -15 -2 -16 -10 -3 -5 8 -10 11 -10 5 0 -5 -5 -3 -10 5
-7 12 -10 8 -10 -15 0 -41 -11 -76 -20 -70 -5 3 -12 0 -16 -6 -4 -8 -3 -9 4
-5 7 4 12 2 12 -3 0 -6 -5 -11 -12 -11 -6 0 -8 -3 -5 -6 4 -4 13 -1 22 6 13
10 15 9 15 -9 0 -12 -4 -19 -10 -16 -5 3 -10 2 -10 -4 0 -5 5 -11 11 -13 5 -2
14 -44 19 -93 13 -143 41 -187 57 -89 3 21 11 42 17 46 8 5 7 8 -1 8 -7 0 -10
6 -7 13 2 7 6 57 8 112 5 140 3 130 21 115 9 -7 14 -18 12 -24 -2 -6 2 -16 9
-23 7 -7 10 -26 8 -43 -3 -17 -1 -30 5 -30 7 0 11 -30 11 -80 0 -52 -4 -80
-11 -80 -8 0 -7 -5 1 -16 11 -12 11 -15 -1 -12 -16 3 -23 -59 -7 -68 4 -3 8 1
8 8 0 8 5 6 11 -5 10 -17 12 -17 36 -1 25 16 26 16 20 -5 -3 -11 -2 -19 3 -16
17 10 20 -40 3 -52 -15 -12 -14 -13 6 -13 16 0 21 -4 17 -15 -3 -8 0 -15 5
-15 6 0 9 -9 6 -20 -3 -11 -2 -18 3 -15 4 2 14 -3 22 -13 30 -34 10 -208 -27
-234 -6 -5 -5 -8 3 -8 6 0 12 -5 12 -11 0 -5 -4 -8 -8 -5 -4 2 -8 -4 -8 -14 0
-10 3 -17 7 -14 4 2 9 -4 12 -14 2 -9 8 -24 12 -34 4 -11 0 -18 -13 -22 -41
-13 -39 -103 4 -149 13 -14 22 -32 21 -39 -2 -7 -2 -10 0 -5 3 4 9 4 15 1 17
-11 26 16 18 51 -4 18 -7 51 -6 74 0 22 -3 41 -8 41 -5 0 -6 3 -3 7 4 3 18 -6
33 -22 20 -22 23 -30 12 -36 -7 -5 -8 -9 -2 -9 5 0 15 5 22 12 9 9 12 9 12 -2
0 -11 2 -11 13 1 6 8 11 13 10 10 -1 -2 5 -10 13 -19 11 -10 12 -18 5 -25 -8
-8 -6 -14 9 -22 17 -9 18 -13 7 -35 -8 -17 -23 -26 -42 -28 -34 -4 -45 -16
-45 -51 0 -20 2 -21 15 -11 20 16 19 5 -1 -26 -9 -13 -43 -40 -75 -59 -31 -18
-66 -42 -76 -52 -11 -10 -34 -29 -53 -43 -18 -14 -49 -38 -69 -54 -20 -15 -46
-32 -58 -37 -15 -5 -21 -14 -17 -24 4 -9 1 -15 -7 -15 -8 0 -34 -21 -59 -46
-25 -25 -70 -61 -100 -81 -30 -19 -68 -44 -84 -56 -16 -11 -35 -20 -42 -20 -7
0 -11 -4 -8 -8 4 -8 -35 -25 -49 -21 -5 1 -6 -2 -3 -7 5 -8 -72 -61 -84 -57
-3 0 -19 -14 -36 -31 -17 -18 -33 -33 -36 -33 -3 0 -25 -18 -49 -40 -36 -33
-40 -40 -26 -46 16 -6 16 -8 -3 -21 -11 -8 -25 -11 -32 -7 -6 4 -8 3 -5 -3 7
-12 -42 -49 -58 -44 -5 1 -7 -1 -3 -5 14 -13 -13 -36 -28 -24 -9 9 -11 7 -7
-9 3 -13 -2 -23 -19 -32 -12 -7 -27 -12 -31 -11 -5 1 -6 -1 -3 -6 3 -5 -9 -20
-27 -34 -18 -14 -70 -56 -115 -92 -74 -58 -125 -85 -107 -56 3 6 1 10 -4 10
-6 0 -11 -6 -11 -13 0 -7 -11 -14 -25 -15 -19 -1 -26 4 -31 23 -6 24 -43 55
-65 55 -6 0 -33 -16 -59 -35 -26 -19 -53 -35 -59 -35 -6 0 -11 -4 -11 -10 0
-5 -7 -10 -15 -10 -19 0 -58 -21 -68 -37 -4 -7 -14 -13 -22 -13 -8 0 -17 -5
-21 -12 -5 -7 -2 -9 7 -4 8 4 -3 -8 -23 -27 -21 -19 -38 -42 -38 -52 0 -15 2
-15 16 -4 9 7 28 14 42 15 15 1 37 2 49 3 12 0 29 8 38 17 9 9 26 14 38 12 17
-3 23 0 24 13 2 21 61 78 81 79 7 0 10 5 7 10 -3 6 -1 10 4 10 6 0 11 7 11 15
0 8 4 15 10 15 5 0 9 3 7 8 -1 4 3 7 8 7 5 0 9 -4 7 -8 -1 -5 2 -6 7 -3 5 3
12 -2 15 -11 4 -9 2 -19 -4 -23 -6 -4 -10 -11 -9 -16 4 -23 -2 -26 -16 -8 -11
13 -14 14 -13 4 2 -8 7 -18 12 -22 6 -4 5 -13 -3 -22 -7 -8 -10 -19 -7 -25 10
-15 -55 -63 -77 -57 -10 2 -16 2 -13 -1 3 -3 -7 -21 -21 -40 -23 -31 -27 -32
-43 -18 -9 8 -21 15 -26 15 -5 0 -2 -5 6 -10 8 -5 11 -10 5 -11 -5 0 -20 -2
-33 -5 -13 -2 -21 0 -18 4 3 5 -1 9 -9 9 -8 0 -12 -4 -10 -8 7 -10 -5 -39 -17
-39 -5 0 -24 -11 -42 -25 -18 -14 -38 -25 -44 -25 -7 0 -12 -7 -12 -15 0 -25
-32 -66 -46 -61 -7 3 -16 0 -20 -6 -5 -7 -2 -8 7 -4 8 4 1 -3 -16 -16 -50 -38
-130 -113 -132 -123 -1 -5 -8 -10 -15 -11 -50 -10 -63 -15 -66 -24 -2 -5 -10
-10 -18 -10 -8 0 -14 -4 -14 -9 0 -9 40 -15 135 -23 17 -2 29 -8 28 -14 -1 -7
20 -10 65 -9 73 2 102 -3 82 -15 -8 -5 -7 -9 4 -13 10 -4 16 -1 16 8 0 9 10
15 25 15 16 0 25 6 25 16 0 8 5 12 10 9 6 -4 8 -11 5 -16 -8 -12 8 -12 21 1 7
7 19 7 35 1 20 -8 21 -10 5 -10 -27 -1 -11 -14 22 -18 22 -3 24 -1 12 7 -12 9
-8 11 18 7 18 -2 32 1 32 7 0 6 11 -2 23 -18 21 -26 27 -28 62 -22 29 6 35 10
24 17 -10 7 -3 8 21 3 54 -11 153 -12 174 -1 14 7 22 5 31 -7 11 -14 13 -13
23 7 7 15 11 17 11 6 1 -21 42 -17 55 6 8 13 8 19 -2 22 -29 11 4 23 63 23 76
0 120 -14 111 -35 -3 -8 -2 -14 2 -13 4 1 16 -3 26 -7 13 -6 21 -4 24 3 2 7
15 12 28 12 13 0 24 5 24 10 0 6 9 10 20 10 11 0 20 -7 20 -15 0 -8 3 -14 8
-14 4 1 9 0 12 -1 20 -7 40 -7 40 2 0 6 -7 8 -15 4 -8 -3 -15 -1 -15 5 0 6 14
8 33 4 54 -9 139 -10 192 -3 31 5 43 4 30 -1 -14 -7 -4 -9 37 -8 31 1 54 5 51
10 -2 4 3 7 11 7 9 0 16 7 16 15 0 11 11 15 43 14 54 -1 113 -22 109 -40 -3
-11 -1 -11 8 -2 9 9 22 7 54 -6 22 -10 73 -26 111 -35 39 -10 81 -25 94 -33
13 -8 39 -15 57 -16 19 -1 34 -4 34 -8 0 -8 52 -19 61 -13 9 5 -13 54 -24 54
-5 0 -5 -4 -2 -10 10 -17 -4 -11 -27 10 -12 10 -25 17 -30 14 -4 -3 -8 0 -8 5
0 6 12 12 28 13 15 1 34 2 43 3 9 0 27 8 41 17 14 9 29 14 32 11 9 -9 46 -11
40 -2 -6 11 127 21 239 17 53 -2 97 -1 97 2 0 3 14 13 31 23 31 17 31 17 51
-8 11 -14 26 -25 34 -25 11 0 13 -6 9 -20 -6 -18 3 -25 21 -17 4 1 10 -8 15
-20 5 -13 16 -23 25 -23 12 0 15 -6 10 -23 -8 -35 4 -67 26 -67 14 0 19 -6 16
-22 -2 -13 6 -34 19 -48 21 -23 21 -25 5 -31 -21 -8 -35 -1 -26 13 4 7 2 8 -4
4 -7 -4 -12 -14 -12 -22 0 -12 8 -13 35 -8 30 5 34 4 29 -10 -3 -9 -1 -23 5
-30 8 -9 8 -16 2 -20 -6 -4 -7 -14 -4 -22 5 -13 7 -13 14 -2 5 7 9 8 9 2 0 -6
9 -21 19 -33 11 -12 22 -40 26 -62 5 -29 10 -37 19 -30 8 7 16 4 24 -10 7 -11
16 -18 21 -15 4 3 14 -20 21 -52 7 -31 16 -65 22 -75 10 -19 -17 -66 -38 -67
-10 0 -26 36 -28 65 -1 5 -8 11 -17 13 -12 2 -18 -7 -22 -34 -4 -21 -3 -43 1
-48 16 -22 43 -116 37 -126 -3 -5 -1 -10 5 -10 7 0 10 -7 6 -15 -3 -8 1 -18 8
-22 7 -5 15 -16 19 -25 3 -10 15 -18 26 -18 15 0 21 9 26 40 5 29 12 40 25 40
21 0 54 -46 44 -61 -4 -6 -1 -15 6 -19 16 -10 42 -78 42 -109 0 -15 3 -20 8
-12 8 14 30 -37 30 -69 0 -10 7 -21 16 -24 8 -3 12 -10 9 -16 -3 -5 -3 -10 2
-10 14 0 13 -152 -1 -213 -12 -50 -12 -59 0 -64 8 -3 14 -14 14 -25 0 -10 5
-16 10 -13 6 3 10 2 10 -4 0 -5 -5 -13 -10 -16 -8 -5 -7 -12 2 -23 7 -9 8 -13
2 -9 -6 3 -11 0 -11 -8 0 -8 4 -12 8 -9 10 6 30 -30 40 -71 l7 -30 2 30 c1 26
3 27 10 10 6 -15 9 -16 9 -4 1 9 -2 19 -6 23 -7 7 -8 10 -19 70 -5 27 -4 37 4
33 6 -5 8 1 4 15 -3 14 -2 19 6 14 7 -4 12 -1 12 10 0 12 -6 15 -22 11 -20 -5
-19 -3 7 19 17 13 29 29 27 34 -1 6 5 10 14 10 10 0 14 -6 10 -15 -3 -8 0 -14
7 -12 7 1 28 -30 48 -70 21 -39 40 -69 43 -66 3 4 6 2 6 -4 0 -6 -7 -13 -15
-17 -17 -6 -9 -37 8 -33 7 1 11 -6 11 -16 -1 -9 2 -17 6 -17 7 0 30 -76 30
-100 0 -6 -5 -8 -12 -4 -7 4 -8 3 -4 -5 4 -6 12 -8 18 -5 8 5 9 -6 6 -34 -5
-32 -3 -39 8 -35 10 4 14 -3 13 -23 -1 -23 -3 -24 -6 -7 -3 13 -10 20 -17 17
-8 -3 -16 4 -19 17 -4 13 -9 20 -12 17 -4 -3 -2 -16 5 -28 6 -11 9 -37 5 -56
-4 -30 -2 -35 10 -30 8 3 15 1 15 -4 0 -6 7 -10 15 -10 8 0 15 -5 15 -10 0 -6
8 -14 18 -17 9 -4 23 -13 30 -20 19 -19 39 -16 45 7 3 11 10 20 17 20 6 0 9
-4 6 -8 -2 -4 5 -9 17 -9 17 -2 19 0 7 7 -13 8 -12 10 2 10 23 0 41 -35 36
-74 -3 -29 -1 -32 19 -28 18 3 23 0 23 -17 0 -12 7 -33 16 -46 9 -14 13 -25 9
-25 -4 0 -2 -7 5 -15 9 -10 9 -15 1 -15 -6 0 -11 -9 -11 -20 0 -11 4 -20 10
-20 6 0 6 -9 0 -25 -8 -20 -7 -23 7 -18 13 5 15 2 11 -15 -4 -16 -2 -22 9 -22
10 0 14 -6 10 -19 -3 -13 -1 -18 8 -14 8 2 19 -5 25 -17 10 -18 9 -25 -5 -39
-9 -9 -15 -11 -14 -6 4 23 -2 34 -15 29 -9 -3 -22 6 -32 23 -10 15 -26 35 -34
43 -9 8 -33 40 -53 72 -21 31 -44 59 -52 62 -8 3 -15 12 -15 19 0 16 -29 45
-62 61 -29 15 -43 40 -34 62 6 16 9 16 16 4 8 -13 10 -12 10 3 0 11 -8 17 -21
17 -11 0 -18 -4 -14 -9 3 -5 1 -12 -5 -16 -5 -3 -15 -15 -21 -27 -8 -15 -8
-19 0 -14 6 4 11 0 11 -8 0 -9 9 -31 20 -51 12 -21 21 -58 22 -90 2 -36 7 -55
16 -55 6 0 12 -5 12 -11 0 -16 29 -41 40 -34 5 3 11 -4 11 -17 1 -13 2 -30 3
-40 1 -9 4 -20 8 -24 4 -4 3 -13 -4 -21 -9 -11 -8 -13 3 -11 8 2 15 -7 17 -19
2 -13 8 -23 14 -23 5 0 7 -8 4 -17 -4 -10 -4 -14 0 -11 8 9 54 -45 54 -63 0
-11 2 -11 9 0 7 11 10 9 13 -8 4 -27 22 -29 26 -1 3 18 5 18 25 -8 28 -35 47
-69 47 -84 0 -6 8 -20 17 -30 10 -11 13 -18 8 -17 -6 1 -18 -1 -28 -6 -14 -6
-17 -17 -16 -51 2 -25 8 -45 16 -48 7 -3 13 -11 12 -18 0 -9 -2 -10 -5 -1 -7
17 -34 4 -27 -13 3 -8 11 -14 19 -14 8 0 14 -6 14 -14 0 -8 7 -16 15 -20 8 -3
15 -12 15 -21 0 -8 6 -14 13 -13 6 2 11 -2 10 -9 -2 -7 4 -10 13 -6 10 4 17
-2 21 -16 3 -11 9 -21 14 -21 4 0 17 -10 29 -22 17 -19 20 -19 20 -4 0 9 5 14
10 11 6 -3 14 4 19 16 7 20 5 36 -10 99 -3 10 2 14 13 12 11 -2 21 9 29 33 7
19 17 35 22 35 5 0 3 7 -4 16 -11 14 -10 18 6 30 10 8 13 14 6 14 -8 0 -5 13
10 40 13 22 27 40 31 40 5 0 7 4 3 9 -7 12 15 61 28 61 5 0 6 7 3 16 -3 9 3
28 14 44 11 15 20 33 20 38 0 6 6 13 13 15 10 4 10 6 0 6 -7 1 -13 6 -13 12 0
5 5 7 12 3 8 -5 9 -2 5 9 -4 10 -2 17 4 17 6 0 8 7 5 16 -5 14 -4 15 8 5 11
-9 16 -9 22 0 4 7 3 9 -3 6 -20 -13 -22 22 -2 46 10 14 19 32 19 40 0 29 12
46 28 40 14 -4 15 -3 2 5 -12 9 -12 14 0 37 8 16 16 21 20 14 4 -6 9 0 12 15
3 14 1 23 -3 20 -14 -8 -10 28 6 56 8 14 14 35 15 47 0 29 34 85 45 75 5 -4 5
-2 1 5 -10 18 63 140 77 127 3 -3 4 3 3 13 0 10 5 17 12 15 8 -1 11 2 8 7 -5
8 12 54 33 91 5 8 15 34 22 57 7 24 17 43 22 43 6 0 7 3 4 6 -3 4 -1 16 5 28
7 11 13 24 14 29 1 4 2 8 4 10 1 1 4 15 6 31 3 16 10 39 16 50 11 20 11 20 18
1 9 -23 3 -38 -11 -30 -5 4 -9 -3 -9 -14 0 -32 38 -27 51 7 6 15 17 38 24 52
7 14 19 54 26 90 7 36 15 67 19 70 9 7 33 116 35 163 1 21 4 40 7 42 7 8 -3
65 -12 65 -13 0 -19 -39 -7 -43 8 -2 5 -11 -8 -23 -17 -17 -18 -17 -12 -1 3 9
2 17 -3 17 -6 0 -10 -17 -10 -38 0 -45 -8 -56 -27 -41 -10 9 -13 8 -13 -5 0
-9 5 -16 10 -16 12 0 13 -37 2 -44 -5 -3 -14 -30 -22 -59 -11 -48 -16 -55 -36
-53 -29 1 -29 5 -5 60 13 26 18 56 15 77 -4 34 7 68 36 103 8 11 10 16 3 13
-12 -7 -11 6 2 36 4 9 3 23 -3 30 -7 8 -3 36 15 90 20 64 27 76 38 67 8 -6 11
-18 8 -26 -3 -8 -1 -14 5 -14 5 0 8 10 8 23 -1 12 3 28 8 36 9 12 7 13 -12 8
-22 -5 -23 -4 -8 12 9 10 16 23 16 30 0 7 4 10 9 7 5 -3 12 1 15 10 4 10 2 13
-7 9 -6 -4 -5 -1 3 7 8 7 15 22 15 32 0 11 5 21 11 23 8 3 8 -11 2 -49 -6 -29
-10 -61 -9 -70 0 -10 -5 -18 -10 -18 -6 0 -8 -4 -4 -9 3 -5 1 -12 -5 -16 -5
-3 -10 -14 -9 -23 0 -11 3 -12 6 -4 2 6 9 12 15 12 6 0 3 -9 -7 -20 -21 -23
-33 -120 -14 -120 6 0 8 7 5 16 -3 9 -2 12 5 9 6 -4 9 1 7 11 -2 11 2 18 10
16 6 -1 12 2 12 7 0 5 -6 12 -12 14 -8 3 -6 6 5 6 19 1 21 9 7 45 -7 18 -6 29
4 38 7 7 13 16 14 21 1 4 17 28 35 52 32 42 35 43 35 19 0 -14 -3 -21 -7 -15
-4 6 -11 3 -19 -9 -8 -14 -9 -21 0 -26 7 -4 8 -3 4 4 -4 8 0 12 11 12 17 0 18
-5 12 -52 -4 -29 -10 -63 -14 -74 -4 -13 -2 -25 6 -29 8 -5 10 -4 5 3 -4 7 -2
12 3 12 6 0 11 -7 11 -15 0 -8 -6 -15 -12 -15 -10 0 -10 -2 0 -8 10 -7 8 -14
-7 -31 -11 -13 -23 -32 -26 -42 -4 -11 -12 -19 -18 -19 -7 0 -6 -4 3 -10 9 -6
17 -5 23 3 6 8 7 6 3 -6 -3 -10 -6 -28 -6 -38 0 -11 -3 -18 -7 -16 -5 3 -8
-15 -8 -39 0 -28 -6 -48 -17 -56 -19 -15 -28 -54 -12 -51 7 1 14 -9 17 -22 3
-16 0 -25 -9 -25 -7 0 -16 -5 -20 -12 -5 -7 -3 -8 7 -3 11 7 12 6 2 -6 -7 -8
-15 -34 -19 -57 -4 -23 -10 -42 -15 -42 -5 0 -9 -5 -9 -11 0 -5 5 -7 12 -3 8
5 9 2 5 -9 -4 -11 -1 -17 8 -17 8 0 15 5 15 11 0 6 7 3 16 -5 8 -9 17 -16 20
-16 6 0 26 50 31 77 12 72 42 168 52 165 6 -1 11 2 11 8 0 5 -4 10 -10 10 -11
0 -3 119 10 135 8 11 26 85 35 148 5 31 10 37 23 32 9 -3 13 -3 10 1 -4 4 -3
15 2 24 7 12 6 21 -4 29 -15 12 -5 116 15 153 6 11 20 50 30 86 10 35 26 71
36 79 10 8 12 12 6 8 -17 -8 -16 -2 1 40 8 19 11 35 6 35 -4 0 -6 10 -3 23 4
18 3 19 -6 7 -15 -21 -15 4 0 32 16 29 23 118 10 118 -16 0 -14 16 4 34 8 8
22 43 30 78 8 34 21 68 30 74 8 6 15 17 15 23 0 7 4 10 9 6 5 -3 16 2 24 10 9
8 22 15 30 15 18 0 27 -41 15 -67 -9 -17 -8 -17 5 -1 8 10 18 18 22 18 4 0 16
11 27 25 11 14 25 25 31 24 8 0 8 -2 0 -6 -7 -2 -13 -10 -13 -16 1 -7 8 -3 18
8 11 13 27 20 45 18 16 -1 25 2 21 8 -4 7 6 9 27 5 18 -2 41 0 51 5 14 7 18 6
18 -5 0 -8 -6 -16 -12 -19 -24 -7 12 -36 42 -34 15 1 26 5 24 8 -2 4 3 9 11
13 8 3 15 0 15 -6 0 -8 3 -9 10 -2 6 6 31 8 63 3 38 -5 56 -3 68 7 9 8 19 11
22 7 4 -3 7 -1 7 5 0 16 166 17 175 1 4 -6 14 -8 24 -5 12 5 11 2 -3 -9 -18
-14 -38 -19 -52 -12 -8 3 -27 -34 -20 -40 3 -4 6 -1 6 6 0 7 5 9 10 6 6 -4 8
-10 6 -14 -3 -4 10 -7 29 -7 18 1 31 5 28 9 -6 10 17 38 26 33 4 -3 13 -1 21
4 12 7 9 11 -10 19 -31 12 -25 13 70 17 80 3 270 -14 270 -25 0 -7 36 -10 133
-10 54 0 67 -3 61 -13 -5 -10 -4 -11 7 -1 15 15 33 17 24 4 -5 -10 6 -9 69 5
73 16 315 19 365 4 24 -7 31 -6 28 3 -5 17 -64 44 -110 52 -32 5 -36 9 -27 21
17 19 30 18 30 -3 1 -16 2 -16 13 -2 9 11 24 14 55 11 23 -2 42 -7 42 -11 0
-7 70 -6 111 2 14 3 32 1 40 -5 11 -8 10 -9 -3 -4 -19 6 -25 -9 -8 -19 10 -6
-21 -44 -32 -38 -9 5 -4 -19 10 -42 9 -17 11 -17 12 -3 0 9 -6 19 -12 21 -7 3
-4 6 7 7 11 1 34 10 50 20 17 11 49 29 73 41 23 12 42 27 42 35 0 8 6 14 13
15 197 10 197 10 207 -14 5 -12 9 -16 9 -9 1 6 7 11 14 10 6 -2 11 3 9 11 -2
8 3 11 11 8 8 -3 21 0 28 6 7 7 5 2 -5 -10 -15 -19 -16 -25 -6 -38 7 -8 17
-12 23 -8 6 3 7 1 3 -5 -4 -6 -14 -9 -24 -6 -14 5 -15 4 -2 -5 22 -16 40 -13
40 5 0 11 6 15 19 11 14 -3 18 -1 14 9 -3 8 -9 14 -15 14 -5 0 -6 5 -3 10 3 6
1 10 -6 10 -7 0 -10 2 -7 5 9 9 38 -7 38 -21 0 -8 8 -14 18 -13 10 0 12 3 5 6
-7 2 -13 9 -13 14 0 6 8 6 19 -1 11 -5 29 -10 41 -10 12 0 18 -4 15 -11 -4 -6
-12 -8 -19 -6 -6 2 -19 -4 -29 -13 -18 -17 -17 -18 20 -31 44 -15 133 -15 162
1 11 5 28 10 39 10 10 0 27 8 36 19 9 10 30 21 47 25 29 5 40 25 17 28 -7 0
-17 2 -23 2 -22 3 -115 40 -115 46 0 3 -15 4 -34 2 -27 -3 -39 1 -53 18 -10
13 -25 30 -33 39 -8 9 -28 34 -44 55 -15 20 -50 61 -77 89 -27 29 -49 57 -49
63 0 10 -23 22 -52 28 -13 2 -20 15 -13 26 4 7 12 4 23 -8 9 -10 16 -16 15
-13 -2 2 3 11 10 20 10 14 10 14 -4 3 -14 -10 -18 -10 -23 4 -8 22 -8 22 11
20 12 0 19 7 21 22 4 26 39 30 80 8 56 -29 111 -48 121 -42 12 8 15 27 4 24
-8 -3 -18 5 -88 67 -25 22 -59 41 -169 93 -5 3 -6 0 -2 -6 3 -6 -7 -4 -24 5
-35 17 -84 12 -134 -14 -23 -12 -34 -13 -48 -4 -10 6 -27 11 -39 11 -19 0 -19
-1 -4 -16 12 -12 13 -19 4 -30 -9 -11 -15 -8 -33 19 -16 23 -31 33 -54 35 -18
2 -30 7 -27 13 3 5 -1 6 -9 3 -9 -3 -16 -1 -16 5 0 6 -7 11 -15 11 -19 0 -19
5 1 35 14 21 14 26 2 30 -8 3 -19 5 -24 4 -22 -4 -34 2 -34 16 0 8 -4 15 -9
15 -10 0 -24 30 -17 37 2 3 14 -1 26 -7 48 -26 33 3 -28 55 l-23 19 6 -24 c4
-18 1 -28 -13 -37 -16 -10 -25 -7 -58 20 -21 18 -40 31 -41 30 -2 -2 -4 -1 -5
0 -2 2 14 30 34 62 37 59 40 75 11 75 -10 0 -13 6 -8 18 5 14 4 15 -6 4 -7 -6
-20 -12 -28 -12 -13 0 -13 2 -3 9 11 7 11 9 -1 14 -8 3 -20 0 -26 -6 -8 -8
-11 -4 -11 14 0 15 -12 36 -27 51 -16 15 -39 38 -52 52 -14 16 -34 26 -51 26
-16 0 -31 6 -33 13 -4 8 -6 7 -6 -3 -1 -9 4 -21 11 -28 9 -9 9 -12 0 -12 -7 0
-12 -4 -12 -10 0 -5 7 -10 15 -10 23 0 85 -32 79 -42 -3 -4 1 -6 8 -3 18 6 54
-26 61 -56 9 -35 -16 -69 -45 -62 -29 7 -58 32 -58 50 0 8 -4 12 -8 9 -11 -6
-26 5 -40 29 -10 17 -11 17 -12 3 0 -16 -3 -16 -35 -2 -20 8 -41 12 -47 8 -6
-4 -8 -3 -5 3 4 6 -3 14 -16 17 l-22 6 25 16 c14 8 17 13 8 10 -10 -3 -18 -1
-18 5 0 6 -5 7 -11 3 -6 -3 -24 6 -40 22 -28 26 -28 28 -11 47 16 19 16 20 -2
10 -13 -7 -26 -7 -44 3 -14 7 -29 11 -34 8 -4 -3 -8 0 -8 5 0 6 -6 11 -13 11
-7 0 -22 7 -33 15 -13 11 -14 13 -3 9 9 -3 24 2 33 11 9 9 21 13 28 9 9 -6 9
-3 -1 9 -9 12 -10 21 -3 30 16 19 11 29 -33 66 -22 18 -43 42 -47 52 -4 11
-10 19 -13 19 -4 0 -3 -5 0 -10 4 -6 -8 -2 -25 7 -18 10 -31 22 -30 27 1 5 -4
13 -12 17 -11 7 -10 9 1 9 11 0 9 4 -4 14 -11 8 -24 12 -29 9 -5 -4 -6 -1 -2
5 4 6 -12 22 -39 37 -25 15 -45 29 -45 32 0 2 5 1 12 -3 7 -4 8 -3 4 5 -4 6
-13 11 -19 10 -26 -3 -36 2 -42 21 -3 11 -11 20 -16 20 -6 0 -25 11 -42 24
-35 26 -125 77 -198 113 -31 15 -48 30 -51 45 -2 13 11 61 29 108 18 47 33 81
33 75 4 -28 39 76 39 116 1 46 14 72 41 82 12 4 11 6 -2 6 -22 1 -22 4 -2 43
9 17 18 56 19 86 4 62 7 68 28 48 13 -13 17 -13 36 5 35 33 48 59 76 159 14
52 35 118 45 145 10 28 21 62 24 77 3 15 14 34 23 44 16 16 16 16 -6 9 -21 -6
-23 -5 -18 14 3 14 0 24 -8 27 -8 3 -11 12 -8 20 3 8 8 12 12 9 4 -2 5 10 3
27 -3 18 -1 28 5 25 5 -3 9 2 9 11 0 9 2 31 3 47 3 29 3 30 10 5 6 -22 8 -20
14 18 4 24 14 53 21 65 8 12 18 39 21 59 4 21 11 35 16 32 5 -3 9 -1 9 5 0 5
-6 11 -12 14 -10 3 -10 11 -3 32 6 16 12 27 15 25 6 -5 50 32 50 42 0 4 -7 5
-15 2 -8 -4 -15 -1 -15 5 0 6 6 10 13 8 7 -1 11 7 9 23 -1 19 0 22 8 10 7 -12
11 -13 22 -2 11 11 10 16 -6 28 -19 13 -19 14 -1 34 10 11 21 17 25 13 9 -12
0 -144 -10 -138 -4 3 -7 -3 -6 -13 0 -10 -6 -17 -19 -18 -40 -2 -46 -4 -39
-15 4 -8 9 -7 15 2 6 10 9 8 9 -8 0 -13 -3 -23 -7 -23 -5 0 -8 -15 -9 -33 -1
-17 -15 -61 -32 -96 -18 -36 -32 -75 -32 -87 0 -13 -5 -26 -10 -29 -8 -5 -8
-11 0 -20 8 -10 7 -14 -2 -18 -9 -4 -8 -6 3 -6 9 -1 20 -11 24 -23 6 -21 8
-19 18 17 7 22 25 63 40 92 15 29 27 59 27 67 0 14 53 120 70 141 4 5 10 24
12 40 1 17 8 29 13 28 6 -1 11 17 12 38 2 24 -1 38 -7 34 -16 -10 -11 22 6 39
8 9 22 16 29 16 18 0 45 50 61 115 32 124 38 141 53 154 14 12 14 13 0 8 -13
-4 -14 2 -6 49 6 29 13 52 16 50 3 -2 7 24 9 57 1 34 8 67 15 72 7 6 13 24 14
40 5 73 15 115 27 108 6 -4 6 0 -2 9 -16 19 -6 71 12 61 6 -4 5 1 -3 10 -13
16 -8 22 14 17 6 -1 4 4 -2 11 -7 7 -13 25 -13 39 0 14 -7 35 -15 46 -8 10
-14 15 -13 9 3 -17 -13 -55 -24 -55 -5 0 -8 -7 -4 -15 8 -21 -24 -114 -38
-109 -7 3 -11 -14 -11 -51 0 -36 -5 -59 -14 -64 -9 -6 -10 -11 -3 -15 6 -4 9
-13 6 -21 -4 -8 -10 -13 -14 -10 -5 3 -12 -4 -15 -16 -4 -12 -3 -24 3 -28 16
-10 -9 -37 -41 -45 -24 -6 -30 -3 -34 14 -4 17 -8 18 -14 8 -6 -9 -9 -9 -9 -1
0 6 5 15 10 18 6 3 10 18 11 33 0 38 33 138 43 132 8 -5 23 33 46 122 7 26 16
45 20 43 5 -3 6 4 3 15 -3 12 1 22 11 26 9 3 16 14 16 23 0 9 14 31 30 49 17
18 30 42 30 52 0 11 17 54 39 95 21 41 35 78 30 81 -5 3 -9 10 -9 15 0 6 4 8
9 5 4 -3 11 13 14 37 3 23 13 56 21 72 16 33 19 48 17 85 -1 18 -4 21 -10 12
-6 -10 -10 -8 -14 8 -3 12 -15 24 -26 27 -13 3 -21 14 -21 25 0 16 -5 19 -21
15 -17 -4 -19 -3 -10 6 6 6 11 19 11 29 0 10 5 18 11 18 6 0 3 7 -5 16 -21 20
-20 27 4 42 11 7 20 21 20 33 0 11 4 18 9 15 5 -4 7 2 4 12 -2 10 6 40 18 67
12 28 24 59 26 70 2 11 6 27 9 35 13 32 12 70 -2 70 -8 0 -14 5 -14 11 0 5 3
8 8 5 4 -2 6 14 3 37 -3 38 -5 40 -13 18 -11 -31 -18 -24 -11 12 5 27 6 27 24
11 11 -10 19 -12 19 -6 0 7 10 12 21 12 15 0 19 4 12 13 -8 11 -10 39 -5 110
1 18 8 27 20 27 14 0 14 2 3 9 -23 15 -5 44 24 39 13 -3 22 -2 20 3 -3 4 -1
10 5 14 6 4 8 11 5 16 -3 5 1 6 9 3 9 -4 19 6 29 28 25 54 39 107 32 118 -3 5
-1 10 5 10 7 0 5 7 -4 16 -16 15 -14 25 9 54 7 8 15 28 19 43 4 15 11 25 16
22 6 -4 7 -13 1 -23 -10 -20 -3 -45 10 -36 14 8 11 -4 -8 -34 -17 -27 -17 -27
2 -12 11 8 25 22 31 29 7 9 4 -21 -7 -72 -11 -48 -18 -90 -17 -94 2 -10 -20
-63 -26 -63 -3 0 -3 8 0 18 5 13 4 14 -4 3 -7 -9 -7 -23 -1 -38 6 -17 6 -22
-2 -17 -7 4 -10 2 -8 -5 3 -7 8 -12 12 -12 4 1 13 1 20 1 7 0 21 25 32 56 10
31 25 59 33 61 7 3 11 11 9 17 -3 6 8 36 23 66 28 53 28 54 26 20 -2 -19 -8
-34 -14 -33 -5 1 -13 -4 -16 -12 -7 -18 -2 -19 25 -2 17 10 23 10 26 0 5 -14
24 -18 22 -5 -3 17 1 32 8 30 5 -2 9 0 11 5 5 17 1 27 -12 27 -7 0 -20 8 -27
17 -8 9 -9 14 -3 10 6 -3 11 0 11 8 0 18 -9 19 -25 3 -9 -9 -12 -9 -12 0 0 7
4 12 8 12 5 0 18 17 30 38 16 28 19 48 16 82 -4 34 -3 41 5 30 9 -12 11 -11
11 8 0 12 -4 22 -10 22 -5 0 -10 11 -10 24 0 13 -7 29 -15 36 -8 7 -13 16 -10
20 7 11 -22 21 -39 14 -8 -3 -12 -12 -10 -19 3 -7 -4 -23 -15 -34 -12 -12 -21
-18 -21 -13 0 4 -5 0 -10 -8 -5 -8 -8 -22 -6 -30 3 -8 8 -26 11 -39 5 -16 4
-21 -4 -17 -6 4 -11 3 -11 -2 0 -15 -62 -9 -80 8 -15 13 -15 18 -2 47 9 18 19
30 24 27 4 -3 7 3 6 13 -7 53 27 143 47 125 4 -4 1 3 -6 16 -19 30 -30 24 -57
-32 -12 -26 -27 -44 -32 -41 -6 3 -10 1 -10 -5 0 -6 -5 -8 -11 -5 -6 4 -8 13
-5 20 3 9 -7 7 -30 -7 -19 -11 -34 -26 -34 -34 0 -8 -4 -14 -10 -14 -5 0 -17
-16 -25 -36 -20 -48 -94 -136 -107 -127 -6 3 -8 1 -5 -5 9 -14 -3 -43 -14 -36
-5 3 -8 1 -7 -4 2 -5 -19 -48 -46 -96 -38 -69 -59 -94 -104 -126 -30 -22 -61
-40 -69 -40 -7 0 -13 -5 -13 -11 0 -6 -7 -36 -16 -66 -26 -88 -109 -156 -149
-123 -12 10 -15 9 -15 -8 0 -11 -6 -27 -12 -34 -7 -7 -24 -35 -37 -61 -17 -33
-30 -47 -45 -48 -21 0 -21 -1 -1 -9 16 -7 16 -9 4 -9 -9 -1 -20 -8 -23 -17 -5
-14 -4 -15 9 -4 21 18 19 7 -5 -20 -15 -17 -20 -19 -20 -8 0 9 -7 19 -16 22
-8 3 -12 10 -9 16 12 20 -19 9 -45 -15 -14 -13 -43 -31 -65 -38 -22 -8 -40
-20 -41 -28 -2 -32 -5 -39 -29 -67 -14 -17 -38 -33 -54 -37 -19 -4 -33 -16
-41 -34 -6 -16 -24 -41 -39 -55 -23 -23 -32 -25 -54 -17 -19 8 -27 7 -31 -5
-3 -8 -13 -14 -22 -14 -9 0 -23 -8 -31 -17 -8 -10 -11 -12 -7 -4 5 9 3 12 -4
7 -7 -4 -12 -12 -12 -17 0 -6 -20 -31 -44 -55 -41 -40 -44 -48 -40 -83 3 -26
0 -38 -8 -38 -7 0 -24 -3 -37 -7 -16 -6 -21 -5 -17 3 4 6 5 11 2 11 -12 0 -46
-84 -36 -90 15 -9 -25 -43 -53 -45 -12 -1 -22 -7 -22 -12 0 -21 -14 -25 -30
-9 -15 15 -15 16 2 16 15 0 16 2 3 10 -10 6 -18 4 -24 -8 -16 -27 -17 -52 -3
-52 6 0 2 -9 -11 -18 -18 -14 -36 -17 -74 -14 -32 2 -48 0 -44 -6 3 -6 -4 -14
-16 -18 -13 -4 -28 -14 -35 -23 -8 -10 -12 -12 -13 -3 0 6 -7 12 -15 12 -8 0
-15 4 -15 9 0 5 -9 11 -20 14 -11 3 -19 11 -17 19 2 7 2 10 0 7 -2 -4 -13 -5
-23 -2 -11 3 -20 0 -20 -6 0 -6 -8 -11 -17 -11 -14 0 -15 -2 -4 -9 7 -5 10
-14 7 -20 -10 -15 15 -38 36 -35 10 1 17 -1 16 -4 -1 -4 1 -17 6 -30 11 -34
-36 -128 -98 -192 -8 -9 -18 -36 -22 -60 -7 -45 -28 -72 -79 -106 -13 -9 -29
-13 -35 -9 -6 4 -9 1 -8 -6 3 -14 -82 -60 -96 -51 -9 5 32 41 47 42 4 0 16 9
27 20 17 17 18 23 8 40 -7 11 -19 18 -26 15 -8 -3 -19 -5 -26 -5 -8 0 -26 -18
-41 -40 -15 -22 -32 -37 -39 -33 -6 3 -8 3 -4 -2 4 -4 4 -13 -1 -19 -18 -23
-19 -55 -2 -61 15 -6 14 -8 -1 -19 -10 -7 -18 -25 -18 -40 0 -14 -3 -26 -8
-26 -4 0 -32 -16 -61 -35 -45 -30 -56 -33 -69 -23 -13 11 -15 10 -9 -4 4 -12
2 -18 -8 -18 -8 0 -15 -4 -15 -9 0 -5 -7 -11 -15 -15 -21 -8 -19 6 5 32 24 25
25 33 5 26 -10 -4 -15 0 -15 10 0 14 -4 15 -20 6 -11 -6 -20 -18 -20 -26 0
-10 -6 -14 -15 -11 -8 4 -17 1 -21 -5 -4 -7 -3 -8 4 -4 15 9 15 -7 1 -21 -6
-6 -18 -9 -25 -6 -10 3 -12 0 -9 -10 7 -16 -19 -47 -38 -47 -7 0 -4 5 6 11 9
5 17 15 17 20 0 6 -6 7 -12 3 -10 -6 -10 -4 -2 7 15 18 26 79 15 79 -5 0 -14
-7 -21 -15 -7 -8 -19 -15 -26 -15 -8 0 -33 -12 -57 -27 -23 -15 -45 -26 -49
-25 -4 1 -19 -9 -32 -23 -14 -14 -30 -25 -36 -25 -5 0 -10 -7 -10 -15 0 -8 -6
-12 -14 -9 -8 3 -26 -7 -41 -23 -15 -15 -24 -22 -20 -15 6 11 3 11 -14 0 -12
-7 -21 -23 -21 -35 0 -18 -6 -23 -25 -23 -16 0 -25 -6 -25 -15 0 -8 5 -15 11
-15 5 0 7 -5 4 -10 -4 -6 -12 -7 -18 -3 -7 4 -6 0 2 -10 14 -18 36 -24 26 -7
-3 6 -1 10 4 10 6 0 11 -5 11 -12 0 -17 11 -3 15 19 1 10 7 17 12 16 6 -1 9
12 7 29 -3 26 -2 29 11 18 9 -7 18 -10 22 -6 3 3 1 6 -5 6 -6 0 -9 7 -5 16 5
13 7 13 14 2 7 -10 9 -10 9 0 0 10 5 10 22 1 18 -10 20 -9 14 6 -4 12 0 18 14
22 11 3 20 9 20 13 0 4 9 10 20 13 11 3 20 13 20 24 1 16 2 16 13 3 11 -15 70
-22 61 -8 -2 4 0 9 6 13 5 3 10 1 10 -6 0 -6 8 -9 20 -6 11 3 18 1 14 -4 -3
-5 -9 -9 -14 -9 -5 0 -23 -15 -41 -32 -21 -21 -34 -28 -37 -20 -2 6 -8 10 -12
7 -5 -3 -6 -13 -3 -22 5 -12 2 -15 -10 -10 -19 7 -70 -16 -60 -27 4 -4 -2 -9
-13 -12 -11 -3 -28 -18 -39 -34 -11 -16 -21 -27 -23 -25 -2 2 -16 -10 -29 -26
-15 -17 -32 -28 -40 -25 -8 3 -11 2 -8 -4 6 -9 -55 -77 -66 -73 -4 1 -10 -4
-13 -12 -3 -8 3 -17 15 -20 10 -4 17 -11 14 -16 -9 -14 -65 -11 -65 4 0 8 -4
7 -10 -3 -8 -13 -10 -12 -10 3 0 19 -29 20 -42 2 -5 -6 -8 -5 -8 4 0 11 -3 11
-17 0 -13 -11 -17 -12 -21 -1 -2 7 -11 18 -18 25 -34 28 -64 63 -64 74 0 6
-10 13 -22 15 -13 2 -22 9 -21 16 2 6 -2 11 -9 9 -6 -1 -16 12 -22 28 -6 17
-16 34 -24 38 -7 5 -22 18 -33 30 -19 21 -20 21 -14 2 6 -19 6 -19 -8 -2 -8 9
-19 17 -26 17 -13 0 -14 6 -2 28 7 14 5 17 -13 17 -18 0 -21 -5 -18 -22 5 -29
-7 -29 -53 -2 -26 16 -35 27 -32 40 4 13 0 19 -11 19 -15 0 -15 2 -2 10 13 8
12 10 -4 10 -10 0 -37 15 -59 33 -23 17 -42 31 -44 30 -2 -2 -6 -3 -10 -3 -10
0 -108 89 -108 98 -1 4 -13 32 -28 62 -27 54 -62 85 -132 120 -17 8 -48 31
-69 50 -21 19 -43 35 -50 36 -6 0 -20 4 -31 8 -11 5 -25 9 -32 11 -6 2 -10 12
-9 22 3 19 -38 86 -70 115 -11 9 -28 18 -39 20 -11 1 -28 12 -37 23 -15 17
-19 18 -28 5 -8 -12 -13 -13 -27 -2 -10 7 -26 15 -35 18 -18 6 -27 35 -33 108
-2 26 -8 53 -14 60 -6 7 -7 17 -3 21 4 5 1 5 -5 1 -7 -4 -13 -4 -13 1 0 4 -16
26 -35 47 -19 21 -32 43 -28 49 3 6 2 7 -4 4 -6 -4 -27 11 -47 33 -20 22 -34
40 -31 40 6 0 -19 24 -69 68 -14 12 -35 22 -45 22 -11 0 -22 4 -25 9 -3 5 -15
7 -26 4 -10 -3 -35 5 -55 17 -19 12 -35 17 -35 10 0 -8 -6 -8 -22 1 -25 14
-68 58 -68 71 0 5 -3 7 -8 4 -10 -6 -36 16 -40 34 -2 8 -8 17 -14 19 -18 6
-97 93 -104 113 -4 13 -12 18 -25 15 -10 -3 -18 -2 -17 2 2 20 -3 31 -14 25
-6 -4 -8 -3 -5 3 6 10 -35 53 -83 85 -14 10 -19 18 -12 18 6 0 12 5 12 11 0 5
-5 7 -11 4 -6 -4 -13 2 -16 14 -3 12 -9 21 -14 21 -4 0 -16 13 -25 29 -17 29
-59 47 -70 29 -3 -5 -14 -2 -24 7 -23 21 -56 12 -56 -14 0 -13 4 -17 11 -11 7
6 18 1 30 -13 11 -12 18 -24 16 -26 -1 -2 3 -8 11 -13 10 -7 10 -11 1 -15 -7
-2 -13 -12 -14 -21 0 -13 -2 -13 -6 -3 -3 7 -19 25 -35 40 -16 14 -30 36 -31
49 -1 12 -4 22 -7 22 -3 0 -6 14 -6 30 -1 17 2 30 6 30 5 0 6 10 2 22 -3 12
-1 19 4 15 5 -3 10 2 11 11 11 132 11 152 -4 152 -25 0 -73 33 -70 49 1 7 -5
16 -13 18 -13 4 -13 3 0 -6 8 -6 10 -11 4 -11 -6 0 -14 3 -18 7 -3 4 -13 8
-21 9 -22 3 -95 66 -95 81 0 8 -4 12 -9 9 -9 -6 -88 54 -103 78 -4 6 -8 7 -8
2 0 -5 -7 -2 -16 5 -9 7 -23 14 -31 15 -22 4 -63 45 -56 57 3 6 1 7 -5 3 -7
-4 -21 9 -35 31 -32 50 -209 215 -227 210 -5 -1 -28 16 -52 38 -24 22 -51 47
-62 55 -18 14 -18 13 -11 -20z m5323 -1976 c0 -20 5 -41 10 -46 7 -7 7 -18 0
-34 -8 -17 -8 -27 2 -39 10 -12 9 -16 -4 -21 -9 -3 -14 -9 -11 -13 2 -4 -4
-25 -14 -47 -10 -21 -24 -54 -31 -71 -7 -18 -16 -31 -20 -28 -8 5 -18 -18 -39
-82 -9 -29 -8 -33 8 -33 17 0 21 -11 21 -60 0 -22 2 -23 11 -7 5 9 7 22 3 28
-3 6 -1 15 7 19 9 6 10 12 2 22 -12 14 -12 68 0 68 4 0 6 3 5 8 -2 13 14 42
21 37 4 -2 8 2 9 10 1 8 3 22 4 30 1 10 8 13 20 9 13 -4 19 -1 17 8 -4 30 2
40 19 36 11 -3 19 0 19 7 0 7 -7 11 -15 8 -10 -4 -9 0 4 15 19 23 30 29 19 12
-3 -5 -2 -10 3 -10 10 0 7 -26 -5 -60 -3 -8 -7 -22 -8 -30 -4 -34 -27 -90 -35
-85 -5 3 -12 0 -16 -6 -3 -6 -1 -14 5 -18 9 -6 9 -19 2 -52 -6 -24 -11 -63
-11 -85 0 -28 -5 -44 -15 -48 -20 -7 -33 23 -15 34 19 12 21 60 5 83 -14 20
-14 20 -20 1 -4 -10 -15 -39 -26 -63 -11 -24 -17 -52 -14 -65 5 -17 4 -18 -4
-6 -10 13 -12 13 -21 0 -5 -8 -10 -22 -10 -30 0 -13 2 -13 9 -1 7 10 9 7 8
-12 -1 -14 -6 -23 -12 -20 -5 3 -4 0 3 -8 15 -16 16 -43 1 -33 -8 5 -8 1 0
-14 8 -15 8 -22 -2 -25 -7 -3 -7 -6 -1 -6 6 -1 24 10 40 24 16 14 24 25 19 25
-16 0 -17 56 -2 72 8 7 12 19 9 26 -2 6 1 12 7 12 6 0 11 -5 11 -11 0 -8 5 -8
15 1 13 11 15 9 11 -11 -3 -13 -5 -30 -5 -37 -1 -7 -10 -20 -20 -29 -11 -9
-18 -20 -16 -23 3 -4 -9 -22 -25 -40 -16 -18 -32 -42 -36 -53 -5 -16 -8 -17
-16 -6 -7 10 -8 7 -4 -11 5 -25 -21 -100 -36 -100 -11 0 -10 8 8 46 9 19 14
43 11 54 -3 11 -1 20 4 20 5 0 9 6 9 14 0 8 -8 13 -17 11 -10 -2 -21 -4 -25
-4 -5 -1 -8 -9 -8 -19 0 -23 -29 -82 -40 -82 -4 0 -10 -9 -13 -20 -3 -11 -13
-20 -22 -20 -10 0 -13 5 -9 13 5 7 0 6 -11 -3 -14 -11 -19 -12 -22 -2 -3 6
-13 12 -24 12 -10 0 -19 5 -19 10 0 17 -54 7 -69 -13 -17 -23 -6 -35 19 -19
17 10 20 7 34 -42 9 -29 24 -64 34 -77 11 -13 17 -31 15 -39 -4 -13 -3 -13 5
-1 9 12 13 12 26 2 12 -10 16 -10 16 -1 0 6 5 10 12 8 20 -7 49 24 37 38 -7 9
-4 16 11 24 17 9 19 14 9 26 -10 12 -8 19 11 37 12 12 19 15 14 7 -5 -8 -7
-23 -6 -33 2 -10 -2 -25 -8 -33 -10 -11 -10 -14 0 -14 9 0 7 -7 -5 -20 -14
-15 -15 -20 -4 -20 10 -1 8 -5 -6 -16 -11 -8 -19 -19 -18 -24 2 -5 -3 -7 -10
-4 -8 3 -20 -13 -31 -41 -11 -25 -24 -45 -29 -45 -6 0 -8 -3 -4 -6 9 -10 -14
-64 -25 -58 -6 4 -8 -1 -4 -14 5 -14 -2 -28 -24 -51 -23 -22 -30 -37 -25 -51
5 -14 2 -20 -9 -20 -10 0 -16 9 -17 23 -1 18 -2 19 -6 3 -3 -10 0 -23 5 -28
11 -11 73 -18 66 -7 -2 4 2 12 10 18 8 7 20 32 27 56 7 25 17 45 21 45 4 0 1
-18 -7 -39 -7 -22 -11 -42 -8 -45 4 -3 1 -6 -6 -6 -6 0 -11 -6 -9 -12 3 -20
-12 -58 -33 -79 -10 -10 -19 -16 -19 -11 -1 4 -8 -6 -16 -21 -8 -15 -19 -25
-24 -22 -11 7 -7 -22 5 -32 4 -4 5 -3 1 4 -3 6 -1 15 5 18 19 13 20 -2 0 -27
-11 -13 -22 -42 -26 -64 -12 -75 -15 -84 -33 -85 -9 0 -12 -3 -5 -5 9 -4 6
-15 -7 -40 -11 -19 -17 -34 -14 -34 3 0 2 -5 -1 -10 -4 -6 -12 -4 -21 5 -9 8
-13 19 -10 24 4 5 -8 13 -26 16 -55 12 -92 34 -151 88 -27 25 -33 27 -53 16
l-23 -12 20 -28 c11 -16 24 -31 30 -34 5 -4 7 -11 3 -16 -3 -5 -2 -8 3 -7 4 2
8 -1 8 -5 0 -5 8 -13 17 -18 13 -7 15 -16 8 -38 -4 -16 -6 -32 -2 -35 3 -3 0
-6 -7 -6 -7 0 -11 -6 -8 -14 3 -8 1 -17 -6 -20 -7 -2 -5 -5 5 -5 9 -1 19 -10
23 -20 4 -12 12 -18 21 -14 7 3 14 1 14 -5 0 -6 9 -8 20 -5 12 3 20 0 20 -6 0
-7 4 -9 10 -6 6 4 7 -1 3 -12 -6 -16 -5 -16 10 -4 12 9 17 10 17 2 0 -15 -30
-27 -39 -15 -7 11 -52 37 -55 32 -1 -2 -10 -19 -19 -38 -9 -19 -17 -29 -17
-22 0 6 -8 12 -17 12 -15 0 -16 -2 -3 -10 13 -8 13 -10 -2 -10 -9 0 -19 6 -22
13 -3 6 -5 3 -3 -8 1 -11 8 -20 14 -20 12 0 42 -33 43 -47 0 -4 -11 -2 -25 4
-14 6 -25 16 -25 22 0 6 -4 5 -9 -3 -7 -11 -17 -8 -53 13 -24 14 -57 39 -73
57 -17 17 -43 37 -58 45 -15 8 -25 19 -22 24 4 6 -2 10 -13 10 -11 0 -24 11
-31 26 -6 15 -14 24 -18 21 -3 -3 -22 5 -42 18 -19 14 -40 25 -46 25 -5 0 -21
10 -35 23 -14 12 -19 18 -10 12 13 -9 13 -8 1 8 -7 9 -20 17 -28 17 -19 0
-109 65 -117 85 -4 11 3 13 35 10 46 -4 61 14 35 40 -9 9 -16 21 -16 26 0 5
-7 9 -15 9 -8 0 -15 4 -15 8 0 5 -22 18 -50 30 -27 12 -50 26 -50 32 0 5 -3 9
-7 8 -20 -4 -136 65 -126 76 4 3 -3 6 -14 6 -21 0 -93 50 -150 103 -30 28 -31
31 -15 43 9 7 21 10 26 7 5 -4 6 -1 3 4 -10 16 29 46 59 46 14 0 21 3 15 6 -8
5 -5 13 9 26 12 11 20 13 20 6 0 -7 5 -9 11 -5 8 4 7 9 -2 15 -10 6 -7 14 14
35 15 15 30 24 34 20 12 -12 10 -46 -4 -58 -11 -9 -13 -8 -11 2 2 7 -3 14 -10
15 -7 2 -8 1 -2 -2 5 -2 8 -8 5 -13 -2 -4 4 -15 14 -24 17 -16 21 -13 80 51
33 36 61 60 61 52 1 -8 8 -2 16 14 8 15 17 27 20 27 3 0 2 -4 -1 -10 -3 -5 -1
-10 4 -10 6 0 11 5 11 11 0 11 62 40 91 42 11 1 19 5 19 10 0 5 -7 7 -14 4
-10 -4 -13 -1 -9 9 3 7 9 14 14 14 11 0 11 11 0 29 -8 12 -21 6 -68 -29 -32
-24 -60 -47 -61 -52 -2 -4 -8 -6 -13 -2 -5 3 -9 0 -9 -5 0 -6 -4 -11 -10 -11
-5 0 -7 8 -3 18 4 12 -1 10 -19 -8 -33 -33 -81 -70 -90 -70 -5 0 -8 8 -8 18 0
23 56 66 76 58 9 -3 12 -2 9 5 -10 15 80 116 119 134 19 9 44 27 57 41 12 13
28 24 36 24 7 0 13 4 13 9 0 11 193 160 212 163 7 2 16 11 20 21 4 10 12 15
18 12 5 -3 10 -3 10 2 0 4 12 14 28 20 l27 13 -22 -19 c-16 -14 -23 -30 -23
-56 0 -30 3 -35 13 -26 8 6 17 9 21 6 3 -3 2 0 -4 7 -7 8 -3 16 14 27 25 17
71 56 259 223 66 58 132 112 146 120 13 7 43 32 65 56 23 25 45 41 53 38 8 -3
12 -2 9 3 -8 13 21 34 35 25 7 -4 9 -3 6 3 -4 5 5 19 18 31 l24 21 14 -29 c10
-19 11 -32 4 -39 -7 -7 -4 -10 9 -9 10 0 26 -1 34 -4 8 -3 12 -3 8 -1 -5 3 -8
12 -8 21 0 14 2 15 9 3 8 -13 12 -13 28 -1 10 8 15 10 11 6 -4 -5 -3 -15 4
-23 9 -11 15 -7 34 21 13 19 24 47 24 62 0 15 7 35 15 44 9 10 17 31 18 48 3
41 15 30 15 -14z m-3958 -69 c0 3 8 2 17 -4 11 -6 24 -6 35 0 11 6 18 6 18 0
0 -5 -6 -11 -12 -14 -7 -2 -1 -4 15 -4 15 0 27 3 27 8 0 5 6 9 13 9 15 0 133
-131 129 -143 -1 -5 2 -6 6 -3 11 7 62 -38 62 -55 0 -6 -7 -8 -17 -4 -11 4 -6
-6 13 -27 48 -51 85 -104 77 -111 -3 -4 1 -7 11 -7 9 0 19 -7 22 -15 4 -8 12
-15 20 -15 8 0 14 -4 14 -9 0 -4 19 -21 43 -36 78 -52 128 -98 114 -107 -7 -5
-2 -7 13 -6 17 2 25 -2 24 -12 -1 -10 10 -16 34 -17 20 -1 47 -11 61 -23 32
-25 97 -57 133 -64 15 -4 34 -13 42 -22 9 -8 16 -12 16 -8 0 4 9 -1 20 -11 11
-10 18 -20 15 -23 -2 -2 6 -13 18 -23 27 -22 20 -24 -26 -4 -46 19 -57 3 -17
-25 26 -19 29 -24 18 -38 -11 -13 -10 -15 9 -10 15 4 29 -2 47 -21 15 -15 24
-30 21 -34 -3 -4 -2 -5 2 -2 8 6 83 -64 83 -78 0 -4 -6 -5 -12 -1 -7 4 -9 3
-5 -1 4 -5 20 -9 35 -10 20 0 26 -4 24 -18 -2 -9 1 -16 6 -15 8 3 77 -60 70
-63 -2 0 -16 -3 -33 -5 -23 -3 -26 -2 -15 6 12 8 11 10 -8 10 -15 0 -21 4 -16
12 4 6 3 8 -3 5 -16 -10 -73 16 -73 32 0 11 -5 9 -15 -7 -12 -16 -13 -27 -6
-41 6 -10 7 -22 3 -26 -4 -5 -1 -5 6 -1 17 10 54 -33 47 -53 -3 -11 0 -10 10
3 12 15 17 17 29 7 9 -7 14 -17 13 -23 -1 -6 8 -12 21 -14 12 -2 22 0 22 5 0
18 38 21 81 7 32 -11 46 -12 54 -4 7 8 6 9 -4 3 -10 -5 -12 -4 -7 4 13 21 109
-1 134 -32 10 -11 9 -17 -3 -27 -8 -7 -15 -17 -15 -23 0 -6 6 -3 13 8 10 12
16 14 21 7 4 -7 5 -16 2 -21 -10 -15 -52 -18 -65 -4 -16 17 -34 6 -28 -17 2
-9 -2 -28 -9 -41 -7 -13 -13 -18 -14 -11 0 7 -4 11 -9 7 -5 -3 -11 2 -13 11
-2 13 -9 11 -41 -10 -21 -15 -43 -24 -48 -20 -5 3 -8 2 -7 -3 4 -10 -124 -175
-172 -222 -19 -19 -29 -32 -22 -27 6 4 12 5 12 1 0 -3 -10 -10 -22 -15 -13 -6
-36 -19 -53 -29 -16 -10 -36 -16 -44 -13 -9 3 -12 1 -7 -6 10 -17 -13 -25 -32
-10 -15 11 -16 11 -4 -3 11 -14 4 -22 -50 -57 -35 -23 -73 -49 -86 -58 -22
-16 -24 -16 -51 10 -15 14 -30 23 -34 19 -4 -3 -7 1 -7 10 0 9 -7 17 -16 17
-9 0 -12 -5 -8 -12 5 -8 2 -9 -9 -5 -12 4 -17 1 -17 -11 0 -10 -7 -27 -15 -38
-20 -26 -19 -32 8 -27 17 3 28 -6 50 -44 18 -28 25 -49 18 -51 -13 -4 -15 -23
-2 -20 5 2 8 -1 7 -7 -2 -14 -34 -17 -55 -5 -15 7 -20 5 -24 -10 -4 -15 0 -20
16 -20 11 0 17 -3 13 -7 -12 -12 -40 -12 -48 0 -4 7 -8 -2 -8 -20 0 -30 -3
-33 -29 -33 -27 0 -46 20 -38 42 1 4 -8 14 -19 23 -27 18 -37 69 -24 115 7 23
7 36 0 38 -5 2 -10 12 -10 23 0 10 -4 19 -10 19 -5 0 -7 7 -4 15 4 8 1 15 -5
15 -6 0 -8 7 -4 17 5 12 2 15 -8 11 -12 -5 -15 3 -14 32 1 26 -3 36 -11 33 -9
-3 -12 6 -12 26 1 17 -6 39 -15 49 -10 10 -17 22 -17 26 0 4 -7 15 -16 23 -13
13 -20 14 -35 5 -15 -9 -19 -9 -19 0 0 6 -7 20 -17 30 -9 11 -11 18 -5 18 7 0
12 -4 12 -10 0 -5 3 -9 8 -9 4 1 9 0 12 -1 31 -12 55 -1 31 14 -5 3 -3 22 4
43 8 22 9 43 4 52 -7 14 -31 94 -33 113 -1 11 -16 22 -16 12 0 -19 -42 -13
-47 7 -3 10 -10 19 -15 19 -5 0 -6 5 -3 10 3 6 1 10 -4 10 -6 0 -11 7 -11 15
0 8 -4 15 -10 15 -5 0 -9 3 -8 8 1 4 -6 25 -16 47 -9 22 -20 54 -23 70 -3 17
-16 40 -29 53 -13 13 -24 29 -24 37 0 8 -5 15 -11 15 -5 0 -7 -6 -3 -12 5 -8
2 -8 -10 1 -27 23 -48 82 -41 119 3 19 10 30 16 26 7 -4 7 -10 0 -17 -18 -18
-13 -23 23 -19 27 3 34 0 39 -17 3 -12 1 -21 -4 -21 -5 0 -9 -5 -9 -12 0 -6 7
-4 18 5 10 10 27 17 38 16 15 0 16 -2 4 -7 -8 -4 -16 -13 -18 -21 -3 -12 0
-12 12 -2 12 10 16 8 22 -11 4 -13 7 -25 7 -28 -1 -3 7 -7 18 -7 22 -2 25 23
6 52 -8 11 -24 46 -36 78 -13 31 -26 57 -29 57 -2 0 -10 -7 -17 -17 -11 -14
-13 -13 -19 10 -3 15 -5 28 -4 30 2 2 -5 12 -15 21 -14 14 -16 26 -11 50 9 39
7 97 -4 126 -10 28 -68 37 -70 11 -6 -54 -2 -144 6 -154 6 -7 12 -28 13 -47 2
-19 8 -38 14 -42 7 -6 6 -10 -1 -15 -6 -5 -14 -15 -17 -23 -3 -10 -6 -7 -6 8
-1 13 -5 31 -10 41 -6 10 -11 29 -13 43 -2 14 -9 32 -15 40 -7 7 -13 25 -15
38 -2 14 -20 60 -41 102 -46 95 -47 118 -16 255 27 121 38 203 29 233 -5 18
-5 30 1 30 5 0 8 3 8 8 -3 19 3 22 21 12 11 -6 20 -8 20 -5z m4468 -282 c4 3
14 2 22 -4 9 -5 10 -9 3 -9 -6 0 -9 -9 -6 -20 3 -12 -1 -22 -10 -26 -16 -6
-12 -34 5 -34 5 0 7 4 4 9 -3 5 5 19 18 32 12 13 27 32 33 43 7 12 13 15 17 7
4 -6 2 -11 -3 -11 -6 0 -11 -11 -11 -25 0 -18 -4 -23 -15 -18 -9 3 -15 2 -13
-3 4 -14 -48 -95 -56 -87 -4 4 -4 0 -1 -9 7 -17 -30 -98 -44 -98 -8 0 -17 -40
-27 -109 -4 -32 -12 -37 -30 -19 -14 13 -14 22 -4 52 7 21 16 33 22 30 7 -5 8
-2 4 5 -5 7 -1 20 7 29 8 9 18 38 21 65 4 26 13 47 19 47 9 0 9 2 1 8 -6 4
-10 18 -8 32 1 14 3 42 3 64 1 32 4 37 19 32 16 -6 16 -5 0 7 -10 8 -15 17
-11 20 3 4 12 2 19 -4 7 -6 17 -8 22 -6z m-2549 -1279 c2 -2 -1 -9 -7 -17 -8
-10 -6 -13 11 -14 17 -2 19 0 7 7 -9 6 -10 10 -3 10 6 0 18 -8 25 -18 7 -9 33
-26 58 -37 49 -22 87 -54 82 -70 -2 -5 0 -7 4 -3 4 4 22 -6 41 -22 18 -17 38
-30 43 -30 5 0 7 -8 4 -17 -4 -13 -3 -14 3 -5 10 13 43 7 43 -8 0 -4 11 -11
25 -14 14 -4 25 -11 25 -16 0 -6 7 -10 15 -10 8 0 15 -8 15 -17 0 -16 -2 -16
-11 -3 -9 12 -10 12 -7 1 7 -24 28 -25 28 -1 0 16 3 18 13 10 6 -6 26 -19 43
-28 87 -48 183 -108 184 -115 0 -5 -4 -5 -10 -2 -6 3 -7 -1 -4 -9 3 -9 11 -13
18 -9 6 4 4 -2 -4 -12 -12 -15 -12 -17 -1 -10 11 6 13 3 8 -14 -3 -15 0 -24 9
-28 8 -3 13 -12 10 -19 -3 -7 0 -16 6 -20 7 -4 8 -3 4 4 -12 20 2 13 51 -24
55 -42 93 -80 87 -88 -2 -3 -1 -4 3 -1 4 3 21 -8 38 -25 18 -17 36 -30 41 -28
5 2 10 -1 11 -7 4 -15 -7 -45 -17 -45 -4 0 -6 -8 -3 -18 2 -10 -6 -29 -17 -42
l-22 -25 21 -3 c12 -2 19 -7 16 -11 -2 -4 23 -7 55 -5 36 2 60 -1 60 -7 0 -6
4 -8 9 -5 5 3 11 0 14 -8 6 -14 53 -11 63 5 3 5 14 9 24 9 10 0 22 5 26 12 4
7 3 8 -4 4 -7 -4 -12 -2 -12 3 0 14 3 14 37 0 62 -25 79 -35 99 -56 12 -12 25
-19 28 -16 3 4 6 -1 6 -11 0 -9 4 -15 9 -12 4 3 15 -2 24 -12 16 -19 6 -68
-13 -57 -7 4 -7 12 0 25 8 16 8 18 -5 14 -8 -4 -15 -17 -15 -31 0 -13 -12 -36
-27 -50 -16 -15 -22 -23 -15 -19 15 9 16 -6 1 -21 -6 -6 -10 -32 -8 -57 3 -25
1 -46 -3 -46 -5 0 -7 -6 -6 -12 2 -7 -2 -12 -8 -11 -7 1 -11 -5 -10 -14 0 -9
-9 -17 -23 -20 -14 -2 -27 -5 -29 -8 -3 -3 -8 -45 -11 -92 -1 -7 -8 -13 -16
-13 -8 0 -14 -3 -13 -7 3 -15 -14 -43 -23 -37 -8 5 -11 -3 -8 -22 0 -4 -5 -10
-13 -15 -7 -5 -13 -12 -14 -16 -2 -16 -18 -49 -32 -65 -8 -10 -12 -18 -8 -18
4 0 4 -5 0 -12 -12 -19 -14 -58 -2 -55 6 1 12 -6 13 -15 2 -12 -8 -21 -30 -29
-19 -7 -33 -15 -32 -18 3 -16 -16 -51 -25 -45 -6 4 -5 -3 2 -16 15 -28 5 -67
-19 -75 -10 -3 -21 -15 -24 -26 -4 -14 -10 -18 -19 -13 -10 6 -10 4 0 -9 12
-14 12 -19 -1 -32 -9 -8 -22 -15 -29 -15 -10 0 -10 -2 1 -9 15 -10 7 -31 -12
-31 -7 0 -6 4 3 11 13 9 13 10 0 6 -8 -2 -15 -10 -15 -18 0 -17 -42 -39 -77
-39 l-28 0 21 21 c16 16 18 23 9 29 -7 4 -10 12 -6 18 4 6 -2 8 -14 5 -17 -5
-18 -8 -8 -21 9 -11 9 -14 1 -9 -7 5 -17 -1 -23 -13 -6 -11 -15 -18 -20 -15
-6 3 -7 -1 -4 -9 5 -14 -2 -15 -52 -11 -32 3 -62 9 -68 15 -5 5 -16 6 -27 0
-9 -5 -37 -11 -62 -12 -25 -2 -43 -6 -41 -9 5 -9 -55 -19 -87 -14 -17 2 -26
-2 -26 -11 0 -7 4 -11 8 -8 4 2 2 -9 -4 -26 -13 -36 -5 -47 26 -32 27 13 154
25 169 16 6 -4 50 -6 98 -5 51 1 91 -2 94 -8 4 -6 13 -8 21 -4 10 3 15 -1 15
-13 0 -16 1 -16 14 2 8 10 18 16 22 11 4 -4 2 -7 -5 -7 -7 0 -10 -4 -7 -9 3
-5 -1 -11 -9 -15 -8 -3 -17 0 -21 6 -4 7 -9 6 -14 -2 -11 -18 -379 -27 -390
-9 -7 10 -14 10 -34 1 -26 -12 -141 -10 -186 3 -14 4 -44 10 -67 12 -24 3 -43
8 -43 12 0 3 -18 5 -40 3 -26 -3 -40 0 -40 8 0 6 -5 8 -12 3 -16 -9 -44 -6
-83 11 -16 8 -36 15 -44 18 -12 3 -12 6 1 18 8 8 13 22 11 31 -4 15 -21 17
-131 17 -191 0 -197 0 -222 22 -25 22 -35 26 -25 10 9 -14 -2 -12 -28 5 -23
15 -121 19 -112 4 11 -17 -18 -57 -47 -63 -16 -3 -27 -10 -24 -14 3 -5 -3 -16
-14 -25 -17 -15 -20 -14 -45 10 -14 15 -24 32 -21 38 2 7 -7 11 -25 10 -22 -1
-29 3 -29 16 0 10 -5 21 -10 24 -6 4 -8 10 -5 15 3 4 -2 10 -10 14 -20 7 -80
142 -88 196 -2 14 -7 33 -12 43 -4 11 -3 23 4 30 8 8 11 8 11 0 0 -6 7 -14 15
-17 13 -5 12 -1 -2 18 -10 13 -21 22 -24 20 -4 -2 -9 11 -12 29 -8 50 -39 116
-44 95 -3 -10 -9 -18 -14 -18 -5 0 -4 -10 3 -21 11 -18 11 -23 -1 -27 -8 -3
-9 -7 -3 -11 15 -9 19 -168 5 -182 -8 -8 -13 -7 -18 2 -5 8 -4 10 3 5 7 -4 12
-2 12 3 0 6 -4 11 -10 11 -5 0 -10 18 -10 40 0 25 5 40 13 40 8 0 7 4 -3 10
-10 6 -11 10 -2 10 6 0 12 9 12 20 0 11 -3 20 -8 20 -10 0 -9 71 2 88 5 8 3
11 -5 10 -8 -2 -16 13 -20 37 -4 22 -23 72 -42 110 -49 100 -53 124 -43 280 2
36 6 49 16 47 10 -2 11 0 2 11 -9 11 -8 17 6 30 42 41 82 68 92 62 5 -3 10 1
10 9 0 9 3 15 8 13 4 -1 14 4 22 10 52 43 107 79 118 75 7 -2 12 3 12 11 0 24
51 79 67 73 9 -4 13 -1 11 6 -3 7 11 25 30 40 34 27 46 33 67 28 5 -1 7 1 3 5
-10 10 31 47 45 39 7 -4 9 -3 4 1 -4 5 3 19 15 32 23 24 66 31 85 12 9 -9 11
-7 9 7 -2 11 1 25 7 32 5 6 7 12 3 12 -4 0 1 11 10 25 16 24 15 25 -4 25 -12
0 -23 -4 -27 -10 -3 -5 -13 -6 -21 -3 -9 3 -20 0 -24 -7 -7 -11 -11 -11 -23
-1 -13 10 -15 9 -10 -8 3 -12 1 -21 -6 -21 -6 0 -11 5 -11 10 0 19 -21 10 -30
-12 -5 -13 -9 -18 -10 -13 0 6 -10 -1 -21 -15 -11 -14 -18 -20 -15 -13 4 6 2
14 -4 18 -5 3 -11 1 -11 -4 -1 -6 -3 -15 -4 -21 -1 -5 -3 -13 -4 -17 -1 -5 -6
0 -11 9 -8 13 -2 25 25 55 19 21 35 34 35 29 0 -6 7 -1 16 10 8 10 12 13 8 5
-4 -9 -2 -12 7 -9 8 3 13 12 11 21 -1 8 10 24 25 35 45 31 150 82 157 75 3 -4
6 -2 6 4 0 6 9 13 21 16 28 8 36 -19 13 -45 -17 -19 -17 -21 -2 -15 23 8 13
-19 -19 -54 -20 -21 -21 -28 -10 -37 10 -9 20 -9 40 1 15 6 27 16 27 20 0 5 5
5 10 2 6 -3 10 4 10 17 0 18 -2 20 -10 8 -7 -11 -10 -7 -10 18 0 24 3 31 13
26 9 -6 9 -4 1 7 -15 18 -25 61 -13 53 5 -3 9 -1 9 4 0 15 88 64 100 57 6 -4
10 -3 9 2 -4 15 13 43 22 37 5 -3 9 0 9 6 0 6 5 8 10 5 6 -3 10 4 10 16 0 24
36 69 55 69 7 0 24 9 38 20 14 11 32 17 42 14 10 -4 15 -2 13 7 -4 17 60 50
89 45 14 -2 20 1 16 11 -3 7 -9 13 -14 13 -10 0 -12 34 -2 43 6 7 42 0 52 -9z
m1746 -1289 c17 -12 44 -29 60 -38 40 -21 85 -61 85 -76 0 -7 5 -9 12 -5 7 5
9 2 6 -8 -5 -11 0 -14 19 -10 18 3 30 -1 40 -13 7 -11 13 -15 13 -11 0 4 5 4
11 1 6 -5 4 -12 -8 -20 -17 -13 -17 -13 2 -12 12 1 20 -4 20 -14 0 -18 74 -84
105 -94 11 -4 17 -11 14 -17 -4 -6 -2 -8 3 -5 15 9 103 -39 135 -73 15 -17 32
-30 36 -30 13 0 76 -63 80 -79 2 -9 -9 -6 -31 8 -18 11 -43 19 -55 16 -13 -2
-25 3 -31 13 -8 13 -12 14 -25 3 -9 -7 -13 -17 -10 -22 3 -5 0 -9 -5 -9 -6 0
-11 5 -11 12 0 8 -3 9 -10 2 -15 -15 -116 -2 -112 14 1 8 -2 11 -8 7 -6 -3 -8
-11 -5 -16 4 -5 -3 -9 -14 -9 -12 0 -21 -3 -21 -7 1 -20 19 -32 58 -37 42 -5
101 -35 72 -37 -9 0 -6 -5 8 -11 12 -6 22 -15 22 -19 0 -4 12 -5 28 -2 49 10
66 7 157 -21 50 -15 98 -30 108 -32 16 -5 22 -17 18 -37 -1 -5 3 -6 9 -2 6 3
7 12 3 18 -4 7 2 5 13 -3 10 -8 20 -15 22 -16 2 -1 -4 -8 -11 -16 -19 -18
-278 -18 -300 0 -10 9 -16 9 -25 0 -7 -7 -12 -9 -12 -5 0 4 -10 3 -21 -4 -20
-10 -77 -12 -169 -5 -19 1 -60 3 -90 4 -42 2 -51 5 -40 13 13 9 13 10 0 7 -8
-3 -18 -19 -22 -36 -8 -31 -28 -45 -28 -19 0 8 -4 7 -11 -3 -8 -11 -12 -12
-16 -2 -2 6 -8 10 -12 7 -5 -2 -44 2 -87 11 -43 8 -115 22 -159 29 -44 8 -81
19 -83 25 -3 7 -8 8 -16 1 -7 -6 -22 -8 -34 -4 l-22 5 23 32 c12 17 36 64 52
105 15 41 48 116 73 165 24 50 51 115 59 145 7 30 19 62 26 70 9 12 9 13 0 7
-8 -4 -11 -2 -7 7 2 7 20 20 39 27 19 7 37 20 40 28 4 12 3 13 -10 2 -13 -10
-15 -9 -15 9 0 12 -7 24 -15 27 -17 7 -20 46 -5 74 12 22 42 17 85 -15z
m-3433 -166 c16 -21 26 -48 26 -66 -1 -17 3 -36 7 -43 5 -9 4 -11 -3 -6 -7 4
-12 2 -12 -3 0 -6 7 -11 15 -11 8 0 15 -9 15 -21 0 -12 4 -17 11 -13 6 3 10
-1 9 -12 -4 -33 0 -44 13 -41 6 1 12 -7 12 -18 0 -11 8 -25 19 -31 10 -6 14
-14 9 -17 -5 -3 -7 -21 -5 -39 4 -28 6 -30 13 -13 6 17 8 16 8 -8 1 -16 -2
-26 -6 -24 -5 3 -9 -8 -10 -24 -1 -16 2 -29 6 -29 11 0 2 -39 -11 -57 -5 -7
-6 -18 -2 -24 5 -8 3 -9 -5 -4 -9 5 -12 2 -9 -11 3 -15 11 -19 45 -17 23 2 44
-1 48 -6 3 -6 -26 -8 -69 -7 -57 2 -73 0 -69 -10 4 -10 -7 -12 -44 -10 -26 1
-53 -1 -59 -5 -5 -5 -22 -2 -36 5 -24 13 -28 12 -46 -8 -11 -11 -18 -26 -15
-32 6 -19 -103 -54 -168 -54 -35 0 -59 4 -59 11 0 5 4 8 9 5 5 -4 8 2 7 11 -2
9 -9 19 -17 21 -11 3 -11 1 1 -7 13 -10 13 -11 0 -12 -8 0 -25 -2 -37 -3 -12
-1 -20 1 -18 5 3 4 -2 9 -10 13 -8 3 -15 1 -15 -4 0 -6 -4 -10 -8 -10 -5 0 -9
6 -9 14 0 11 19 15 79 18 43 2 78 1 78 -2 0 -4 109 -5 144 -1 4 1 6 8 2 16 -3
8 0 14 6 12 6 -1 11 8 13 21 1 12 -2 22 -7 22 -4 0 -8 -4 -8 -9 0 -6 -16 -3
-35 5 -19 7 -43 14 -54 14 -11 0 -27 7 -36 17 -16 15 -19 15 -46 -1 -17 -10
-36 -15 -44 -12 -8 3 -17 1 -21 -5 -3 -6 -12 -8 -19 -5 -7 2 -35 -2 -62 -11
-34 -10 -99 -15 -223 -17 -114 -1 -183 -6 -197 -14 -14 -8 -30 -9 -45 -3 -13
4 -31 7 -40 6 -36 -6 -16 25 30 46 26 13 52 23 58 24 6 0 18 7 26 15 9 8 46
33 83 55 37 22 78 50 91 63 22 21 25 21 31 6 5 -14 8 -15 17 -3 23 29 97 80
106 74 6 -4 9 -3 8 2 -2 5 13 23 32 41 30 27 32 32 15 32 -16 1 -15 4 10 17
16 9 36 22 43 30 11 10 18 11 28 2 10 -8 19 -7 36 5 12 9 33 16 46 16 13 0 20
4 17 10 -3 6 1 10 9 10 9 0 17 5 17 10 1 6 3 15 4 20 1 6 3 15 4 21 0 6 10 9
21 6 12 -3 18 -1 14 5 -4 6 -1 9 7 6 8 -3 19 -13 24 -24 6 -10 17 -20 24 -22
12 -3 12 0 2 12 -10 12 -9 15 8 13 13 -1 27 -14 36 -34 25 -53 65 -83 65 -48
0 7 8 19 18 25 13 9 13 10 1 7 -13 -4 -16 4 -18 47 -1 54 24 136 38 120 4 -5
19 -25 33 -45z m2366 -1052 c-5 -28 -17 -61 -27 -72 -21 -24 -45 -79 -31 -70
18 11 11 -20 -9 -42 -11 -12 -17 -24 -13 -29 4 -4 0 -5 -9 -2 -12 5 -15 1 -11
-19 3 -15 -1 -29 -9 -34 -8 -5 -9 -9 -3 -9 6 0 9 -13 6 -30 -2 -16 -8 -30 -13
-30 -5 0 -9 -5 -9 -11 0 -15 -47 -59 -63 -60 -8 0 -7 -3 2 -6 11 -5 11 -7 0
-14 -11 -7 -10 -9 4 -9 24 0 21 -19 -7 -45 -22 -20 -25 -21 -28 -7 -2 12 -6
13 -11 5 -4 -6 -1 -18 8 -26 13 -13 13 -16 0 -27 -9 -7 -18 -30 -21 -51 -4
-22 -10 -39 -15 -39 -9 0 -44 -91 -53 -141 -3 -19 -15 -45 -27 -57 -11 -12
-17 -22 -14 -22 3 0 -1 -16 -9 -35 -16 -37 -16 -38 -16 -56 0 -5 -4 -7 -10 -4
-6 3 -7 -1 -4 -10 7 -18 -14 -75 -28 -75 -6 0 -5 7 2 15 11 13 10 14 -4 9 -10
-4 -15 -16 -14 -34 1 -16 6 -26 10 -24 4 3 8 1 8 -3 0 -17 -40 -117 -49 -123
-10 -6 -9 -55 1 -65 7 -7 -43 -108 -56 -114 -4 -2 -2 -7 5 -12 10 -6 6 -9 -13
-9 -21 0 -28 -5 -28 -20 0 -10 -4 -29 -9 -42 -12 -28 -22 -61 -22 -68 0 -3 -7
-9 -15 -13 -8 -4 -14 -16 -14 -26 0 -22 25 -45 39 -36 6 3 13 -5 16 -18 6 -24
-56 -160 -72 -155 -4 2 -9 23 -11 48 -2 25 -8 50 -14 57 -5 7 -6 18 -2 24 4 8
3 9 -4 5 -7 -4 -12 -1 -12 9 0 9 -4 14 -9 11 -5 -3 -11 3 -14 14 -3 11 0 20 6
20 6 0 1 7 -11 16 -25 17 -28 35 -10 64 10 16 10 24 0 40 -6 11 -12 26 -12 34
0 8 -7 22 -16 31 -10 9 -17 30 -18 46 -1 20 -6 29 -18 29 -10 0 -18 -6 -19
-12 -1 -16 -17 36 -23 75 -3 16 -6 30 -8 30 -29 15 -43 28 -42 41 1 9 -2 14
-6 11 -13 -8 -25 17 -26 55 0 26 -10 45 -38 75 -117 125 -160 165 -177 165
-22 0 -25 -13 -5 -29 8 -7 12 -20 9 -30 -3 -10 0 -22 6 -25 7 -5 8 -1 4 11 -8
25 5 10 51 -56 21 -29 33 -50 27 -47 -5 4 -15 -2 -21 -11 -10 -16 -11 -16 -7
4 3 15 1 20 -9 16 -8 -3 -14 0 -14 6 0 7 -11 24 -25 39 -36 39 -59 91 -61 142
-2 50 11 66 34 43 13 -13 13 -16 1 -25 -12 -8 -12 -9 1 -5 9 2 16 18 18 38 4
44 -36 107 -88 137 -28 16 -38 27 -35 42 2 11 0 22 -5 25 -5 3 -7 12 -4 20 4
8 9 13 13 11 4 -3 7 7 8 22 1 21 0 23 -6 9 -6 -17 -8 -16 -19 8 -11 25 -29 93
-37 140 -2 11 -12 44 -23 73 -27 69 -39 162 -22 162 10 0 10 3 0 15 -10 12
-10 15 1 15 18 0 42 -38 33 -52 -4 -7 -3 -8 4 -4 7 4 10 20 7 37 -3 17 -2 28
3 25 5 -3 7 5 5 18 -4 17 1 25 16 29 12 3 19 1 16 -3 -3 -5 -2 -11 3 -14 4 -2
9 4 9 15 1 11 -5 19 -14 19 -18 0 -11 44 12 66 7 8 15 18 17 24 2 6 27 2 66
-11 34 -11 60 -24 58 -28 -3 -4 0 -13 6 -21 8 -12 9 -12 4 2 -3 11 2 21 12 27
22 12 111 16 135 6 9 -4 24 -5 32 -1 8 3 15 0 15 -6 0 -7 4 -7 13 0 7 6 30 13
50 15 29 3 40 0 48 -15 7 -13 14 -16 26 -10 8 5 35 5 62 0 25 -5 109 -7 186
-4 120 5 142 3 158 -11 17 -16 17 -16 11 0 -7 19 11 24 22 6 5 -8 10 -6 16 5
8 14 13 15 24 5 12 -10 13 -9 7 6 -5 14 -3 17 10 12 9 -3 17 -2 17 3 0 6 11
10 25 10 21 0 25 -5 25 -30 0 -35 15 -40 25 -9 4 13 2 25 -5 29 -19 12 5 22
48 20 20 -1 40 -1 45 0 4 2 11 3 16 4 5 0 12 3 15 6 3 3 16 6 29 8 24 2 24 1
15 -51z"/>
<path d="M6150 6962 c-8 -2 -20 -11 -27 -20 -10 -12 -15 -12 -27 -3 -8 7 -35
14 -61 17 -46 4 -46 4 -43 -23 2 -16 9 -34 16 -42 8 -8 11 -22 9 -33 -3 -12
-1 -16 6 -11 9 5 9 3 1 -8 -13 -15 -2 -31 26 -37 11 -3 11 0 -1 14 -9 12 -9
15 -1 10 6 -4 12 -4 12 1 0 4 18 19 40 33 22 13 40 28 40 34 0 5 12 22 26 37
26 27 18 42 -16 31z"/>
<path d="M3851 4922 c0 -7 -5 -11 -10 -8 -8 5 -14 -2 -21 -29 -2 -5 -10 -16
-19 -23 -14 -11 -14 -11 2 -6 20 7 20 4 8 -29 -7 -19 -6 -27 3 -30 9 -4 12
-15 8 -32 -3 -18 -9 -24 -20 -20 -12 4 -12 2 -4 -8 7 -8 10 -16 7 -19 -9 -8
16 -108 26 -108 5 0 17 -13 28 -30 19 -32 31 -30 31 6 0 12 4 24 9 26 12 5 24
48 13 48 -6 0 -6 15 -1 42 6 25 6 44 1 47 -8 5 -15 34 -24 98 -1 10 -5 10 -15
1 -17 -14 -29 -3 -16 14 5 7 6 27 2 43 -3 17 -7 24 -8 17z"/>
<path d="M3920 4602 c0 -10 -5 -23 -10 -30 -6 -6 -7 -10 -4 -8 3 3 12 -1 19
-7 9 -9 10 -16 3 -25 -6 -7 -8 -15 -4 -19 3 -3 6 -1 6 6 0 7 5 9 10 6 6 -4 8
-10 5 -15 -3 -5 -9 -29 -14 -53 -7 -40 -6 -44 10 -40 23 6 45 -29 53 -86 4
-24 12 -53 18 -65 7 -11 11 -28 10 -38 -2 -9 2 -19 8 -23 5 -3 10 2 10 14 0
10 4 21 9 23 15 5 17 128 2 137 -7 5 -14 26 -15 47 -3 62 -73 194 -103 194 -7
0 -13 -8 -13 -18z"/>
<path d="M5122 2543 c-6 -2 -10 -9 -7 -14 4 -5 -1 -6 -9 -3 -9 3 -17 1 -17 -5
-1 -6 -2 -17 -3 -23 -1 -7 -8 -13 -16 -12 -9 1 -16 -9 -17 -25 0 -14 -4 -42
-6 -61 -3 -19 -6 -45 -6 -57 -1 -12 -11 -32 -23 -44 -13 -12 -17 -19 -10 -15
6 4 12 3 12 -3 0 -17 -42 -81 -50 -76 -4 2 -5 -6 -3 -20 7 -31 34 -41 50 -18
7 10 16 23 21 29 12 13 39 98 48 147 3 21 13 41 20 44 8 3 14 13 14 22 0 14
-2 14 -10 1 -5 -8 -10 -10 -10 -4 0 5 5 15 12 22 6 6 13 20 14 29 2 10 5 35 8
56 4 20 5 37 4 36 -2 0 -9 -3 -16 -6z"/>
<path d="M3264 8254 c-11 -9 -13 -13 -7 -9 16 8 64 -45 58 -63 -3 -7 0 -10 5
-7 6 3 10 1 10 -4 0 -6 7 -11 15 -11 10 0 15 -11 15 -35 0 -19 5 -35 11 -35 5
0 7 -6 3 -12 -5 -9 -2 -8 10 1 15 13 21 10 55 -24 34 -32 40 -35 43 -19 3 18
5 18 23 -3 10 -12 22 -20 26 -17 13 8 -9 54 -37 77 -14 12 -50 44 -80 71 -30
27 -64 56 -75 64 -10 7 -16 19 -13 25 4 7 4 9 -1 5 -4 -4 -15 -3 -25 2 -12 6
-23 5 -36 -6z"/>
<path d="M3756 7752 c-4 -7 -3 -19 3 -26 6 -7 7 -17 3 -21 -4 -5 -1 -5 5 -1
15 9 87 -60 78 -74 -4 -6 -3 -9 2 -8 14 5 84 -42 78 -52 -4 -6 1 -7 11 -3 12
4 15 2 12 -8 -3 -8 -10 -13 -15 -12 -5 1 -10 -4 -10 -12 0 -11 5 -10 24 2 21
14 23 14 23 -1 0 -11 5 -14 12 -10 6 4 8 3 4 -4 -7 -12 44 -52 69 -52 9 0 13
-4 10 -10 -3 -5 -2 -10 3 -10 6 0 13 7 16 16 6 15 9 15 28 -2 l22 -19 -22 29
c-12 15 -20 32 -17 36 3 4 -8 10 -24 13 -18 4 -44 25 -71 57 -42 50 -127 120
-162 133 -10 3 -18 11 -18 17 0 6 -5 8 -12 4 -8 -5 -9 -2 -5 10 5 14 3 15 -12
6 -14 -7 -21 -6 -23 2 -3 9 -6 9 -12 0z"/>
<path d="M4412 7379 c1 -30 4 -36 14 -28 18 15 54 1 54 -21 0 -10 4 -22 10
-25 6 -4 7 1 3 12 -6 15 -4 16 9 6 8 -7 18 -10 21 -6 7 6 11 -11 8 -32 -1 -5
5 -2 13 9 14 18 53 16 42 -2 -2 -4 3 -8 12 -8 9 -1 29 -4 45 -9 16 -4 27 -3
27 3 0 24 -31 79 -59 106 -28 27 -37 29 -115 31 l-86 3 2 -39z"/>
<path d="M4213 7381 c0 -11 5 -17 9 -15 4 3 8 -4 8 -14 0 -11 7 -25 15 -32 8
-7 15 -18 15 -24 0 -6 -5 -4 -10 4 -9 13 -10 13 -10 0 0 -9 16 -22 38 -30 37
-13 64 -38 56 -52 -3 -5 0 -8 5 -8 6 0 22 -17 36 -38 31 -47 72 -73 84 -54 4
7 14 12 21 10 23 -5 73 -56 66 -67 -4 -6 -1 -9 7 -6 7 3 30 -1 50 -10 27 -11
37 -22 38 -38 0 -21 1 -21 9 -2 5 11 9 14 9 7 1 -7 6 -10 11 -7 6 3 10 2 10
-3 0 -15 62 -49 98 -54 38 -5 45 19 11 42 -52 37 -56 41 -29 35 16 -4 20 -3
12 3 -7 5 -30 9 -52 10 -27 1 -60 16 -117 52 -43 28 -90 55 -105 61 -16 6 -28
14 -28 19 0 4 -48 50 -107 101 -60 51 -116 101 -126 111 -23 23 -26 23 -24 -1z"/>
<path d="M7237 5074 c-11 -11 5 -34 25 -34 11 0 33 -13 49 -30 17 -16 38 -35
48 -42 10 -7 37 -30 60 -50 34 -29 38 -35 20 -31 -13 3 -21 3 -18 -1 3 -3 19
-8 36 -10 19 -2 62 -29 118 -75 49 -39 92 -71 96 -71 4 0 7 14 7 30 -1 20 -5
29 -13 26 -7 -2 -54 35 -104 83 -51 48 -93 85 -95 84 -2 -2 -17 9 -34 24 -16
15 -40 29 -53 31 -13 1 -28 8 -34 14 -7 8 -4 9 10 4 14 -5 17 -4 9 4 -6 6 -27
11 -47 12 -22 1 -37 6 -37 14 0 6 -7 15 -16 18 -19 7 -19 7 -27 0z"/>
<path d="M2084 3446 c-3 -9 -10 -16 -16 -16 -5 0 -6 5 -2 12 4 6 -3 4 -17 -5
-26 -19 -43 -22 -34 -7 3 6 1 10 -4 10 -11 0 -15 -20 -12 -48 2 -9 -9 -11 -41
-6 -32 4 -39 3 -28 -5 8 -6 25 -11 37 -11 12 0 25 -4 28 -10 3 -5 24 -10 47
-10 37 0 39 -2 27 -17 -11 -15 -11 -16 1 -5 19 16 61 15 96 -3 16 -8 25 -15
19 -15 -5 0 -3 -4 5 -10 9 -5 19 -5 27 1 14 12 73 2 73 -11 0 -5 7 -7 15 -4 8
4 15 1 15 -4 0 -10 106 -9 117 1 2 3 -4 14 -15 25 -11 11 -22 18 -25 16 -2 -3
-15 0 -28 5 -44 17 -64 24 -81 26 -22 2 -68 33 -68 45 0 6 -13 10 -29 10 -21
0 -32 6 -36 21 -4 13 -12 18 -22 15 -9 -4 -22 -1 -29 5 -11 9 -15 7 -20 -5z"/>
<path d="M8125 3334 c-18 -9 -47 -14 -72 -12 -24 2 -43 0 -43 -3 0 -4 -18 -9
-41 -13 -22 -4 -51 -14 -64 -22 -27 -18 -118 -14 -156 6 -12 7 -40 14 -63 17
-22 2 -47 10 -55 16 -12 9 -13 9 -7 -1 6 -10 -3 -12 -38 -10 -25 2 -46 7 -46
11 0 5 -7 1 -16 -7 -8 -9 -23 -16 -33 -16 -9 0 -26 -7 -37 -15 -18 -14 -18
-14 4 -15 12 0 25 -6 28 -14 3 -8 12 -12 21 -9 8 3 19 0 24 -8 6 -11 11 -11
21 -1 16 16 38 15 38 -2 0 -7 -8 -13 -17 -13 -41 0 -54 -4 -48 -13 11 -18 53
-11 69 12 14 19 21 21 92 14 43 -3 80 -10 83 -15 4 -5 38 -8 76 -6 39 2 77 0
84 -5 8 -5 31 -2 55 6 36 13 42 13 52 -1 11 -14 12 -14 18 0 4 11 2 14 -6 9
-6 -4 -8 -3 -4 4 6 10 60 1 74 -12 3 -3 17 1 31 9 35 19 102 36 114 28 6 -3 7
-1 3 5 -4 7 -1 12 8 12 8 0 24 9 35 21 11 12 24 19 29 15 7 -4 10 32 3 41 0 0
-22 -5 -48 -13 -60 -18 -113 -18 -127 1 -10 13 -14 13 -41 -1z"/>
<path d="M7064 3263 c4 -8 2 -13 -7 -13 -8 0 -18 -7 -21 -16 -4 -11 5 -20 32
-32 55 -25 264 -22 294 5 20 18 19 18 -43 25 -35 4 -76 8 -91 8 -16 0 -28 5
-28 11 0 6 -9 9 -20 6 -11 -3 -18 -1 -14 4 3 5 -2 9 -11 9 -9 0 -13 -5 -9 -11
4 -8 1 -8 -13 -1 -11 6 -25 7 -33 2 -9 -5 -20 -4 -29 3 -12 9 -13 9 -7 0z"/>
<path d="M3950 2496 c0 -7 4 -26 9 -42 5 -16 16 -56 26 -89 10 -33 21 -67 25
-75 15 -31 22 -80 11 -80 -6 0 -11 -8 -11 -17 0 -16 2 -16 11 -3 9 12 10 12 6
-5 -3 -16 2 -20 22 -22 24 -2 26 1 27 43 1 32 -3 44 -14 44 -11 0 -13 10 -8
50 4 31 2 50 -4 50 -5 0 -10 9 -10 21 0 11 4 18 9 14 5 -3 13 -1 16 5 4 6 3
10 -2 9 -22 -4 -34 4 -49 33 -9 18 -23 38 -30 46 -8 7 -14 18 -14 23 0 5 -4 9
-10 9 -5 0 -10 -6 -10 -14z"/>
</g>
</svg>
