<?xml version="1.0" standalone="no"?>
<!DOCTYPE svg PUBLIC "-//W3C//DTD SVG 20010904//EN"
 "http://www.w3.org/TR/2001/REC-SVG-20010904/DTD/svg10.dtd">
<svg version="1.0" xmlns="http://www.w3.org/2000/svg"
 width="1024.000000pt" height="1024.000000pt" viewBox="0 0 1024.000000 1024.000000"
 preserveAspectRatio="xMidYMid meet">
<metadata>
Created by potrace 1.16, written by Peter Selinger 2001-2019
</metadata>
<g transform="translate(0.000000,1024.000000) scale(0.100000,-0.100000)"
fill="#000000" stroke="none">
<path d="M8443 8403 c-5 -1 -37 -4 -73 -5 -59 -3 -65 -5 -68 -25 -3 -20 1 -23
35 -24 21 -1 44 0 52 1 8 1 18 -4 22 -12 7 -10 9 -10 9 0 0 14 36 16 45 2 4
-6 11 -8 16 -4 6 3 51 5 102 4 237 -4 357 11 371 45 4 10 -13 15 -67 19 -63 6
-425 5 -444 -1z"/>
<path d="M5153 8328 c-2 -5 -17 -8 -33 -8 -16 0 -32 -4 -35 -10 -3 -5 -12 -10
-18 -10 -7 0 -6 4 3 10 11 7 7 10 -18 10 -20 0 -31 -4 -27 -10 8 -13 2 -13
-29 1 -20 10 -32 8 -61 -5 -30 -15 -39 -15 -52 -4 -12 9 -15 9 -9 1 5 -10 -15
-12 -90 -8 -65 3 -102 1 -111 -7 -19 -16 -96 -11 -109 7 -9 12 -13 12 -33 -2
-17 -11 -34 -14 -69 -8 -26 3 -58 6 -72 6 -231 -3 -295 2 -283 22 5 9 3 9 -8
1 -8 -6 -25 -8 -39 -4 -14 4 -36 3 -50 -2 -13 -5 -43 -8 -65 -7 -23 2 -39 -2
-38 -7 1 -6 -27 -16 -62 -23 -61 -12 -83 -29 -64 -48 5 -5 -5 -7 -27 -5 -27 3
-34 8 -30 21 5 13 4 13 -8 -1 -14 -19 -32 -25 -21 -9 3 5 1 12 -5 16 -5 3 -10
-1 -10 -9 0 -9 -10 -18 -22 -20 -43 -9 -193 -16 -293 -15 -272 4 -543 2 -569
-6 -23 -6 -27 -5 -21 6 8 12 6 12 -8 0 -9 -7 -23 -11 -32 -7 -8 3 -14 0 -12
-7 1 -7 -6 -11 -15 -11 -10 1 -18 -1 -18 -5 0 -8 -70 -26 -139 -37 -29 -4 -41
-3 -37 4 3 6 1 14 -5 18 -7 4 -9 3 -6 -3 4 -7 -8 -13 -31 -16 -20 -3 -59 -10
-87 -16 -27 -7 -61 -9 -75 -5 -23 6 -93 6 -129 -1 -9 -1 -37 3 -63 10 -38 9
-46 9 -38 0 12 -14 -19 -26 -51 -20 -11 2 -17 0 -14 -4 6 -11 -19 -21 -51 -21
-14 0 -22 -4 -19 -10 3 -5 0 -10 -8 -10 -8 0 -22 -12 -32 -26 -9 -15 -13 -24
-7 -20 5 3 13 -1 16 -10 10 -26 7 -34 -14 -34 -11 0 -20 -7 -20 -15 0 -8 7
-15 15 -15 15 0 18 -7 18 -42 0 -10 3 -18 7 -18 4 0 10 -15 12 -34 2 -19 1
-33 -3 -30 -4 2 -6 -8 -5 -23 2 -22 11 -31 37 -40 19 -6 33 -17 31 -23 -1 -6
2 -9 8 -5 6 3 7 11 4 17 -4 6 -1 9 7 6 8 -3 13 -13 11 -22 -2 -9 3 -15 10 -14
8 2 12 -5 10 -19 -2 -13 2 -23 8 -23 7 0 9 -7 6 -16 -3 -8 -2 -12 4 -9 6 3 11
5 12 3 0 -2 4 -86 9 -188 4 -102 10 -200 14 -217 4 -18 4 -41 0 -50 -12 -28
-14 -44 -4 -37 12 7 11 -10 -1 -22 -12 -12 -3 -44 11 -44 14 0 -3 -64 -20 -78
-9 -8 -11 -11 -5 -8 7 4 14 -11 17 -42 3 -26 8 -66 11 -90 4 -29 2 -41 -5 -36
-7 4 -7 -1 1 -15 16 -30 22 -131 9 -147 -6 -7 -11 -26 -11 -43 -1 -19 -5 -28
-12 -24 -8 4 -8 3 0 -6 14 -16 6 -61 -12 -61 -7 0 -16 -5 -20 -12 -5 -7 -3 -8
6 -3 10 6 12 3 7 -11 -7 -18 -6 -18 9 1 15 19 16 16 10 -40 -3 -33 -5 -61 -6
-62 0 -2 -5 -3 -11 -3 -5 0 -8 4 -5 9 3 5 -1 15 -10 22 -10 8 -14 22 -10 40 3
15 2 30 -2 34 -9 9 -12 45 -16 195 -2 69 -1 130 3 135 3 6 7 17 8 25 8 41 14
98 14 125 0 17 0 43 0 59 0 15 4 38 10 50 8 17 7 16 -10 -4 -11 -14 -21 -19
-21 -12 0 6 -8 12 -17 12 -12 0 -14 -3 -7 -8 14 -9 17 -94 4 -126 -5 -13 -10
-53 -12 -90 -2 -48 -6 -65 -15 -62 -10 4 -10 1 0 -15 10 -16 9 -21 -3 -29 -10
-6 -11 -10 -2 -10 16 0 15 -25 -2 -39 -9 -8 -16 -8 -20 -2 -4 5 2 14 11 20 17
10 17 10 1 11 -13 0 -17 8 -14 34 1 19 -1 33 -6 30 -11 -7 -10 14 2 36 8 16 6
22 -10 32 -22 14 -27 54 -8 60 16 6 11 320 -5 330 -17 11 -25 10 -24 -4 1 -31
-4 -48 -14 -48 -5 0 -7 5 -3 12 4 7 3 8 -4 4 -9 -5 -8 -13 2 -29 9 -14 14 -52
14 -104 0 -82 0 -83 -21 -72 -12 7 -19 8 -15 4 4 -5 3 -14 -3 -22 -9 -9 -8
-13 0 -13 6 0 11 5 11 12 0 9 3 9 11 1 16 -16 21 -199 7 -272 -11 -55 -10 -67
5 -93 21 -37 21 -47 0 -65 -15 -12 -15 -14 -2 -10 16 5 17 2 11 -77 -2 -22 -5
-23 -63 -20 -41 3 -67 -1 -83 -11 -12 -8 -34 -16 -48 -17 -20 -2 -25 -7 -24
-28 1 -27 -14 -25 174 -29 20 -1 21 -4 12 -21 -9 -17 -8 -20 10 -20 12 0 18
-4 15 -10 -3 -5 0 -7 9 -4 8 3 12 12 9 20 -3 8 -2 14 3 13 5 -1 22 3 38 10 23
9 31 9 38 -1 4 -7 8 -9 8 -4 0 5 7 3 15 -4 8 -7 12 -17 8 -24 -4 -6 1 -5 10 2
9 8 19 23 23 34 11 35 22 1 23 -71 1 -36 -1 -110 -5 -163 -5 -81 -9 -98 -23
-98 -13 0 -13 -2 -2 -9 9 -6 12 -21 9 -45 -2 -19 1 -37 6 -39 7 -2 7 -13 -2
-31 -7 -15 -8 -24 -2 -21 13 8 8 -128 -5 -137 -6 -4 -2 -8 9 -8 16 0 17 -5 11
-37 -4 -21 -12 -44 -18 -52 -9 -11 -9 -13 -1 -8 9 5 12 -43 12 -181 0 -103 3
-207 7 -230 4 -23 3 -42 -2 -42 -12 0 -7 -200 6 -232 6 -15 8 -33 6 -40 -5
-12 -20 -136 -28 -225 -2 -24 0 -43 5 -43 4 0 7 -3 6 -7 -1 -5 6 -20 15 -35
15 -21 16 -31 8 -47 -14 -26 -11 -132 4 -123 5 3 4 -1 -3 -10 -14 -18 -14 -98
1 -98 4 0 1 -7 -7 -16 -20 -20 -20 -24 4 -54 11 -14 20 -28 20 -31 0 -4 -48
-7 -107 -8 -60 0 -117 -2 -128 -4 -84 -18 -170 -28 -190 -23 -29 7 -83 -13
-107 -40 -25 -28 -34 -116 -15 -133 11 -8 22 -9 34 -3 25 13 213 15 193 2 -12
-7 -10 -9 7 -7 12 0 19 5 16 11 -4 5 1 7 10 3 10 -3 17 -2 17 3 0 9 134 5 150
-5 4 -2 8 -35 9 -72 1 -37 4 -70 7 -74 7 -13 13 -139 6 -139 -4 0 -7 -15 -7
-34 0 -19 3 -32 7 -30 11 7 19 -33 12 -60 -3 -14 -10 -26 -16 -26 -5 0 -6 -4
-3 -10 9 -15 15 -160 7 -160 -4 0 -6 -18 -4 -40 3 -26 0 -40 -8 -40 -6 0 -9
-4 -5 -9 3 -5 -3 -16 -14 -23 -14 -10 -20 -29 -23 -80 -4 -45 -2 -65 5 -61 6
4 8 0 4 -11 -4 -10 -7 -20 -7 -22 0 -3 -4 -3 -9 0 -5 3 -11 -4 -14 -15 -4 -15
-2 -19 8 -15 10 3 13 -3 11 -22 -1 -15 -8 -26 -14 -25 -7 2 -12 -4 -12 -12 0
-8 5 -15 10 -15 14 0 12 -43 -2 -59 -11 -11 -10 -12 0 -6 10 5 13 2 11 -11 -1
-11 2 -27 6 -38 10 -23 -17 -102 -34 -99 -7 2 -11 -14 -11 -40 -1 -46 -31
-122 -45 -110 -4 5 -5 2 -1 -5 4 -7 1 -26 -8 -42 -8 -17 -10 -27 -4 -24 7 5 9
-2 4 -22 -4 -16 -7 -35 -6 -41 2 -44 -6 -229 -15 -360 -6 -80 -7 -82 -35 -88
-20 -4 -32 -15 -39 -37 -14 -41 -15 -40 12 -28 l22 11 -23 -17 c-36 -27 -26
-36 36 -32 50 3 62 0 81 -20 20 -20 19 -27 -3 -23 -5 1 -4 -4 2 -12 7 -8 9
-17 6 -20 -14 -13 -9 -82 6 -94 8 -7 10 -13 5 -13 -6 0 -12 -13 -13 -29 -2
-25 2 -30 25 -35 56 -12 83 4 78 44 -3 26 -2 28 16 17 15 -9 21 -8 32 7 10 14
26 19 60 19 26 0 47 3 47 8 0 11 64 -9 68 -21 2 -6 16 -10 30 -11 15 0 22 -3
15 -6 -10 -3 -10 -7 0 -18 7 -7 15 -11 19 -8 5 2 8 0 8 -6 0 -5 -6 -12 -12
-15 -7 -3 6 -4 29 -2 34 2 42 -1 46 -16 4 -15 13 -18 43 -15 21 2 40 9 42 16
2 6 12 11 23 11 10 0 19 4 19 9 0 12 46 20 62 10 9 -6 8 -9 -7 -9 -15 -1 -13
-4 10 -14 22 -9 91 -12 265 -10 213 2 235 4 247 21 9 11 10 19 3 21 -5 2 -10
11 -10 20 0 13 -2 14 -9 3 -7 -10 -13 -11 -30 -2 -37 20 -24 32 29 27 28 -2
64 -1 80 4 43 12 69 3 66 -25 -3 -20 16 -70 26 -70 15 0 36 36 35 58 -2 28
-11 35 -22 17 -3 -6 -12 -10 -18 -10 -9 0 -8 3 1 8 9 7 8 13 -8 27 -22 20 -26
35 -9 35 5 0 7 -6 4 -13 -4 -6 0 -4 8 5 8 10 18 14 22 10 5 -4 6 0 3 9 -5 13
2 15 41 15 141 0 342 8 347 15 2 5 16 3 29 -3 13 -6 23 -14 20 -17 -2 -4 12
-5 31 -3 19 2 34 9 34 14 0 7 32 8 93 3 50 -4 100 -7 110 -7 9 0 17 -4 17 -10
0 -6 6 -5 16 3 15 12 124 20 124 9 0 -3 12 -6 26 -7 15 0 39 -11 55 -22 25
-19 29 -19 29 -5 0 12 6 15 23 10 12 -3 39 -6 60 -6 26 0 36 -4 31 -12 -5 -7
-3 -8 7 -3 14 9 135 9 150 0 4 -3 10 -1 14 4 5 9 122 6 152 -4 6 -2 19 5 28
15 15 17 15 19 -3 31 -17 12 -6 14 82 17 105 2 213 -9 327 -34 75 -16 145 -18
153 -6 3 5 -4 19 -15 30 l-20 22 24 0 c13 0 48 -5 78 -10 30 -6 88 -12 130
-14 42 -2 82 -6 88 -10 6 -4 11 -2 11 3 0 6 20 11 46 11 41 0 46 -2 41 -19 -2
-10 0 -25 5 -32 7 -10 8 -9 3 6 -5 16 -4 18 6 8 9 -9 48 -13 121 -13 89 0 108
-3 108 -15 0 -8 4 -15 10 -15 5 0 7 7 4 15 -5 12 2 15 29 15 19 0 37 4 39 9 2
5 26 11 53 14 28 3 63 10 78 16 41 16 87 14 87 -3 0 -8 9 -18 20 -21 11 -4 18
-9 16 -13 -2 -4 6 -8 17 -8 12 -1 33 -5 47 -8 14 -4 66 -9 117 -12 85 -4 92
-3 98 16 3 11 11 20 16 20 5 0 9 9 9 21 0 13 -4 18 -12 13 -8 -5 -9 -2 -5 10
4 10 7 20 7 22 0 2 5 4 11 4 5 0 7 -4 4 -10 -3 -5 1 -10 10 -10 9 0 14 4 11 9
-8 13 147 20 156 7 5 -7 8 -5 8 4 0 10 11 17 31 18 22 2 28 -1 23 -10 -6 -10
-4 -11 7 0 15 14 49 16 49 2 0 -5 7 -7 15 -4 17 7 19 -4 5 -26 -6 -10 -10 -11
-10 -2 0 6 -7 12 -16 12 -8 0 -12 5 -9 10 3 6 1 10 -5 10 -6 0 -13 -7 -17 -16
-3 -9 -13 -14 -24 -11 -27 7 -22 -4 14 -33 17 -14 28 -19 24 -12 -6 8 0 12 18
12 14 0 28 7 31 15 4 8 10 12 15 9 5 -3 7 -10 4 -15 -4 -5 3 -9 13 -9 24 0 46
-25 36 -41 -5 -9 -2 -10 9 -6 10 3 17 3 17 -2 0 -13 -40 -21 -40 -8 0 7 -7 3
-15 -7 -13 -17 -13 -21 3 -32 16 -11 77 -30 123 -39 9 -2 32 -7 50 -12 20 -5
88 -5 159 0 117 9 396 17 554 16 38 0 77 -4 87 -9 19 -11 136 -14 126 -4 -3 4
4 21 17 38 13 17 26 39 29 49 4 9 11 17 16 17 5 0 7 9 4 20 -7 25 -9 25 -36
-4 -28 -30 -64 -41 -82 -26 -8 7 -15 8 -15 3 0 -5 -8 -9 -17 -10 -10 0 -40 -3
-67 -6 -35 -3 -54 0 -64 9 -11 12 -11 14 3 14 9 0 14 4 11 9 -3 5 12 8 33 7
22 0 39 1 39 4 -1 18 3 30 12 30 5 0 6 -8 3 -17 -6 -15 -5 -16 9 -3 14 12 14
17 4 25 -11 8 -9 13 10 22 17 8 25 8 29 -1 3 -6 3 1 1 17 -2 15 0 27 5 27 17
0 39 -13 34 -20 -3 -5 4 -6 15 -3 13 4 26 -1 34 -13 13 -17 14 -16 21 6 22 70
7 165 -27 165 -7 0 -15 15 -19 33 -6 28 -3 34 22 49 21 13 28 23 24 40 -3 19
1 23 20 23 12 0 26 -7 29 -16 4 -11 2 -15 -8 -11 -10 4 -13 1 -9 -9 3 -7 9
-14 15 -14 5 0 7 -4 3 -9 -3 -5 -1 -12 5 -16 6 -4 7 -11 4 -17 -4 -7 -2 -8 4
-4 15 9 26 -36 16 -66 -4 -13 -8 -63 -8 -112 -1 -57 -5 -91 -12 -93 -7 -2 -10
-14 -7 -26 4 -18 3 -19 -6 -7 -9 12 -10 10 -9 -12 1 -15 6 -24 10 -22 4 3 9 0
9 -5 1 -6 2 -17 3 -23 0 -7 10 -13 21 -13 18 0 20 7 20 58 0 31 3 57 8 57 4 0
5 -6 1 -12 -5 -9 -4 -10 4 -3 14 13 24 134 26 295 1 63 5 126 10 139 6 16 5
21 -3 17 -7 -5 -11 1 -11 14 0 12 4 19 9 16 5 -3 11 3 14 14 3 11 0 18 -7 17
-6 -1 -11 9 -11 23 0 14 -8 36 -17 50 -9 14 -20 39 -24 55 -4 17 -12 33 -18
37 -15 10 -36 -11 -36 -36 0 -16 2 -18 9 -7 8 12 11 8 17 -15 5 -16 7 -35 6
-41 -2 -7 1 -13 5 -13 4 0 8 -17 8 -38 0 -34 -2 -38 -25 -37 -14 1 -33 5 -42
9 -19 9 -24 51 -8 61 17 10 11 25 -7 19 -15 -5 -15 -3 1 10 17 14 18 16 3 16
-25 0 -21 29 6 40 12 5 17 9 11 9 -6 1 -11 8 -11 16 0 10 6 14 16 10 13 -4 12
-2 -1 9 -10 7 -18 18 -18 25 0 17 25 13 50 -9 27 -24 50 -26 50 -5 0 9 -6 45
-12 80 -9 47 -17 65 -28 65 -9 0 -22 6 -29 13 -11 10 -12 9 -6 -1 6 -11 3 -11
-14 0 -23 14 -36 42 -26 58 3 5 1 10 -4 10 -6 0 -11 5 -11 12 0 6 7 4 18 -5
20 -19 37 -23 27 -7 -3 6 -1 10 4 10 6 0 11 11 11 24 0 13 6 27 13 29 7 3 5 6
-5 6 -16 1 -23 -16 -19 -42 1 -5 -3 -6 -8 -3 -5 3 -8 14 -6 24 2 9 4 20 4 24
1 3 9 8 18 10 13 2 10 6 -10 15 -24 11 -27 11 -27 -7 0 -10 -5 -22 -12 -26 -7
-4 -8 -3 -4 4 4 7 2 12 -3 12 -14 0 -14 -17 -1 -25 6 -4 8 -11 4 -16 -11 -18
-25 3 -22 35 1 17 -2 37 -6 44 -4 7 -1 15 8 18 9 3 13 11 10 16 -4 6 -10 5
-16 -3 -6 -10 -8 -7 -6 11 2 17 9 25 20 24 10 -1 16 2 13 6 -7 12 35 61 47 54
6 -4 8 -1 5 7 -2 8 6 34 20 59 13 25 17 36 9 26 -19 -23 -20 -17 -5 18 7 14
15 24 19 21 3 -2 4 10 2 27 -3 21 0 33 11 39 12 7 15 28 14 102 0 51 3 99 8
107 5 9 4 11 -3 6 -8 -5 -12 2 -12 19 0 14 4 24 8 21 5 -3 9 1 9 9 0 8 -4 12
-8 9 -4 -2 -8 4 -8 13 1 39 -10 130 -20 168 -13 51 -14 68 -1 60 5 -3 16 -2
24 2 13 7 13 11 0 27 -8 11 -14 16 -14 11 0 -5 -7 1 -16 13 -13 19 -15 35 -8
80 11 81 5 194 -12 213 -8 9 -10 19 -5 25 13 13 20 115 8 107 -6 -4 -8 5 -4
26 4 19 3 30 -3 26 -5 -3 -9 20 -8 55 0 33 3 60 5 60 2 0 8 -10 13 -22 6 -16
9 -18 9 -7 1 9 10 36 21 60 11 24 20 60 20 80 0 27 5 37 23 45 12 6 16 9 10 7
-9 -1 -13 9 -12 30 0 18 3 26 6 20 2 -7 9 -13 14 -13 6 0 8 4 4 9 -3 5 -1 12
4 15 5 4 13 1 16 -5 4 -5 13 -8 21 -5 8 3 11 0 8 -8 -3 -7 2 -13 10 -13 8 0
13 4 10 8 -2 4 2 14 9 21 8 7 12 20 9 30 -2 10 1 25 8 33 11 13 10 14 -1 10
-12 -5 -14 5 -9 54 7 70 -2 103 -25 95 -10 -4 -13 -2 -10 7 4 10 -3 14 -24 13
-36 -1 -75 -40 -80 -79 -8 -69 -6 -80 11 -79 14 1 15 -2 6 -16 -7 -10 -17 -16
-24 -13 -6 2 -15 0 -18 -6 -4 -6 6 -9 28 -7 27 2 33 -1 25 -10 -5 -7 -24 -12
-42 -11 l-32 1 -1 73 c-1 41 3 73 8 73 5 0 2 7 -6 16 -18 18 -23 153 -6 170
12 12 16 227 6 320 -6 62 -5 75 13 108 17 29 21 52 19 109 -1 40 0 77 2 82 5
20 0 46 -9 41 -10 -7 -18 40 -27 163 -5 74 -4 95 7 102 10 6 11 9 2 9 -9 0
-13 15 -13 43 0 28 3 37 9 28 11 -17 21 35 26 133 2 50 7 71 20 80 17 12 17
14 -2 27 -11 8 -23 31 -27 52 -4 20 -11 37 -16 37 -10 0 -22 -71 -18 -110 4
-58 -2 -110 -14 -107 -8 1 -11 -9 -9 -30 1 -18 -2 -33 -7 -33 -5 0 -7 11 -4
25 3 19 0 25 -12 25 -23 0 -45 57 -43 108 1 39 7 47 30 43 5 -1 6 3 3 8 -8 12
20 34 33 27 5 -4 12 -2 16 4 3 5 -3 10 -15 10 -14 0 -19 4 -14 12 11 17 11 87
0 91 -5 2 -1 10 8 19 17 18 22 33 7 24 -14 -9 -18 59 -4 72 6 7 10 21 8 31 -2
12 1 18 8 16 19 -7 39 10 43 36 1 13 6 43 9 67 4 24 8 49 9 55 1 7 6 18 10 26
6 10 5 12 -2 7 -8 -5 -12 4 -12 29 0 22 -4 34 -10 30 -13 -8 -13 11 2 38 23
44 32 113 42 324 1 34 9 69 16 78 11 14 11 16 -1 13 -10 -2 -13 4 -11 22 2 14
8 27 13 28 5 2 9 11 9 20 0 15 -2 15 -11 2 -11 -15 -7 49 6 115 10 49 12 206
3 211 -5 3 -6 10 -3 15 4 5 1 9 -4 9 -6 0 -11 9 -11 20 0 18 3 19 20 10 16 -9
19 -8 13 6 -4 12 -3 15 6 10 6 -4 17 -3 24 2 7 5 37 6 70 3 32 -4 114 -6 183
-4 108 2 129 5 151 23 14 11 22 20 17 20 -5 0 -3 4 5 9 7 5 27 5 43 1 16 -5
26 -5 23 0 -3 5 3 13 12 19 17 9 17 10 1 16 -10 4 -15 12 -11 18 4 6 0 8 -10
4 -21 -8 -47 1 -47 17 0 6 18 19 40 29 40 19 51 34 28 41 -7 2 -22 7 -33 11
-24 9 -56 10 -112 2 -45 -7 -256 -9 -313 -3 -45 4 -72 -3 -63 -18 4 -6 0 -5
-9 2 -9 7 -27 11 -40 8 -14 -2 -30 -1 -37 4 -11 6 -18 78 -10 105 5 17 -11
129 -20 144 -7 10 -11 8 -17 -10 l-8 -24 -5 24 c-6 22 -8 23 -22 9 -23 -23
-176 -20 -193 4 -13 17 -30 12 -32 -9 -1 -7 -2 -19 -2 -25 -2 -14 -55 -18 -67
-6 -4 4 -13 4 -21 1 -8 -3 -14 0 -14 7 0 7 -6 5 -16 -5 -11 -11 -31 -16 -58
-14 -22 1 -52 -1 -65 -6 -18 -5 -28 -3 -38 11 -7 10 -13 13 -13 6 0 -8 -36
-12 -127 -11 -71 0 -144 -5 -163 -10 -40 -12 -111 -15 -93 -3 6 4 -24 7 -67 7
-43 0 -74 -3 -68 -6 5 -4 -34 -7 -87 -8 -53 0 -94 2 -92 6 3 5 -14 8 -38 8
-24 0 -43 -4 -42 -10 3 -14 -251 -19 -268 -5 -7 6 -16 7 -19 2 -5 -8 -104 -17
-156 -14 -72 5 -122 11 -190 22 -41 6 -105 11 -142 10 -38 0 -68 3 -68 7 0 4
-21 9 -48 11 -54 3 -259 11 -314 12 -21 0 -37 3 -37 8 3 20 -3 27 -25 27 -16
0 -22 -5 -19 -15 3 -11 1 -10 -10 3 -8 9 -23 17 -35 17 -18 0 -41 29 -24 31 4
0 39 2 77 4 217 11 317 27 283 46 -7 4 -17 7 -22 7 -5 0 -12 6 -17 14 -10 15
-194 38 -224 27 -12 -4 -48 -5 -80 -2 -102 8 -227 8 -232 1z m-32 -437 c0 -10
2 -11 6 -3 8 20 19 14 21 -14 1 -14 -2 -22 -8 -19 -5 3 -14 -4 -20 -16 -7 -11
-10 -22 -8 -23 25 -15 58 -27 76 -29 12 0 22 -4 22 -7 0 -3 17 -5 37 -4 20 1
52 -2 70 -6 26 -6 33 -5 33 7 0 13 3 13 15 3 11 -9 15 -9 15 -1 0 7 5 9 10 6
6 -4 8 -11 5 -16 -4 -5 3 -9 14 -9 12 0 21 3 21 8 0 4 23 7 50 7 28 0 50 -2
50 -5 0 -3 52 -6 115 -6 75 -1 112 2 108 9 -3 6 -2 7 4 4 6 -4 25 -2 44 3 18
5 35 6 38 1 9 -12 61 -20 67 -10 3 5 21 9 40 9 24 0 33 -4 28 -12 -4 -7 -3 -8
5 -4 25 16 163 17 223 1 69 -17 98 -19 98 -5 0 16 48 12 77 -7 14 -9 35 -18
47 -19 26 -3 322 -17 353 -16 13 0 21 -3 19 -7 -2 -3 22 -6 54 -6 32 0 53 3
47 8 -7 4 59 6 145 5 87 -2 150 0 141 3 -9 3 21 6 67 8 45 1 87 4 91 7 5 3 9
-5 10 -18 0 -22 1 -22 9 -3 7 19 8 19 15 2 4 -11 14 -16 22 -13 9 4 13 1 10
-6 -2 -7 -11 -12 -20 -10 -12 2 -15 -2 -10 -14 5 -13 0 -11 -16 5 -13 13 -26
20 -29 16 -4 -4 1 -11 11 -16 19 -11 23 -44 7 -54 -18 -11 -11 -28 9 -22 12 3
22 -1 26 -10 6 -17 -42 -123 -56 -123 -5 0 -9 -7 -9 -15 0 -8 -7 -15 -16 -15
-9 0 -29 -9 -45 -21 -16 -11 -34 -17 -40 -13 -7 4 -9 3 -6 -3 4 -6 0 -28 -9
-48 -11 -28 -12 -35 -2 -30 7 4 1 -3 -14 -16 -14 -13 -29 -34 -33 -46 -3 -13
-13 -23 -21 -23 -8 0 -17 -7 -20 -15 -4 -8 -10 -13 -14 -10 -5 3 -14 -12 -21
-32 -7 -23 -36 -62 -73 -98 -74 -73 -96 -101 -88 -110 3 -3 -4 -8 -16 -12 -12
-3 -20 -9 -17 -13 6 -9 -64 -70 -80 -70 -5 0 -21 -16 -35 -36 -31 -43 -42 -55
-69 -74 -11 -8 -21 -20 -21 -27 0 -11 -6 -14 -25 -13 -3 1 -38 -29 -78 -65
-39 -36 -77 -65 -83 -65 -7 0 -25 -18 -41 -40 -15 -22 -33 -40 -40 -40 -6 0
-41 -34 -78 -75 -37 -41 -71 -72 -76 -69 -5 3 -8 2 -7 -3 5 -14 -54 -83 -65
-76 -5 3 -7 1 -4 -4 4 -6 0 -16 -8 -23 -8 -7 -15 -9 -15 -5 0 4 -25 -19 -57
-51 -31 -33 -63 -58 -71 -56 -8 2 -11 -1 -7 -7 3 -6 -2 -11 -12 -11 -38 -1
-114 -73 -188 -180 -16 -24 -67 -81 -112 -126 -62 -64 -86 -82 -100 -77 -10 3
-15 3 -11 -1 4 -5 -2 -18 -13 -29 -11 -12 -23 -35 -27 -52 -5 -20 -18 -35 -40
-45 -17 -8 -34 -23 -38 -33 -7 -22 -184 -197 -200 -197 -6 0 -19 -9 -29 -20
-10 -11 -23 -20 -30 -20 -6 0 -33 -20 -59 -45 -27 -25 -53 -45 -58 -45 -5 0
-6 -4 -3 -10 3 -5 3 -15 -1 -21 -7 -12 -69 50 -102 101 -9 14 -25 31 -34 38
-10 7 -18 20 -18 28 0 8 -6 14 -12 14 -10 0 -10 2 0 8 9 6 0 14 -28 27 -33 15
-43 16 -49 6 -6 -10 -13 -7 -25 10 -10 15 -16 18 -16 9 -1 -11 -3 -10 -11 3
-7 12 -7 22 0 30 7 9 4 16 -11 26 -16 10 -19 10 -12 -1 4 -7 -5 -2 -19 11 -15
13 -24 27 -22 32 3 4 -4 10 -15 14 -23 7 -27 25 -6 25 8 0 16 7 20 15 3 8 1
15 -5 15 -6 0 -7 5 -4 11 9 13 -26 40 -43 34 -8 -3 -16 4 -19 16 -4 16 -8 17
-14 7 -7 -10 -9 -9 -9 5 0 23 9 21 54 -13 22 -17 44 -30 50 -30 13 0 41 -41
38 -53 -1 -5 2 -6 7 -3 5 3 14 -1 21 -9 16 -19 46 -19 54 0 3 8 -1 21 -9 29
-8 7 -11 17 -7 22 4 5 -1 2 -10 -5 -14 -10 -21 -10 -38 2 -11 7 -17 17 -12 21
4 4 0 6 -8 4 -8 -2 -14 3 -12 10 1 8 -2 11 -7 8 -5 -4 -12 2 -15 12 -3 10 -29
42 -56 71 -28 29 -50 57 -50 62 0 19 -30 8 -31 -11 -2 -32 -4 -38 -10 -45 -4
-3 -6 2 -6 12 0 47 -4 64 -13 58 -16 -10 -23 24 -9 43 12 16 12 16 -6 0 -18
-17 -21 -17 -53 15 -31 30 -34 31 -46 15 -18 -24 -35 -22 -46 5 -5 12 -23 40
-39 62 -31 41 -68 104 -70 118 0 4 -14 22 -31 40 -18 19 -29 39 -26 50 2 9 1
16 -2 14 -7 -3 -56 43 -57 53 0 3 -4 4 -8 2 -4 -1 -10 6 -14 15 -3 10 -40 52
-82 93 -42 42 -94 98 -116 125 -22 26 -58 61 -80 77 -22 16 -40 35 -40 41 0 6
-10 14 -22 17 -12 3 -32 14 -45 26 -13 11 -30 18 -38 16 -9 -3 -11 1 -6 13 5
14 3 15 -6 7 -18 -14 -44 6 -62 49 -8 19 -24 43 -35 53 -12 11 -28 32 -35 48
-14 27 -14 28 10 28 14 0 39 7 56 16 29 15 30 17 12 27 -10 6 -21 10 -24 10
-3 0 -16 4 -30 9 -14 5 -36 12 -49 14 -30 6 -93 53 -85 65 3 5 2 8 -3 7 -4 -2
-25 10 -45 25 -20 16 -42 26 -49 22 -6 -4 -24 2 -40 14 -15 11 -37 21 -49 21
-11 0 -20 5 -20 10 0 6 -18 10 -40 10 -22 0 -40 4 -40 9 0 5 -9 7 -20 4 -11
-3 -20 0 -20 6 0 7 -8 8 -22 3 -13 -5 -39 -5 -58 -1 l-35 6 33 14 c17 7 32 19
32 27 0 9 5 10 18 4 9 -5 41 -15 69 -22 29 -6 50 -16 47 -21 -3 -5 -1 -9 5 -9
5 0 11 5 13 11 3 8 9 7 19 -4 10 -9 21 -12 29 -7 21 13 3 58 -30 75 -17 9 -30
22 -30 31 0 8 -4 13 -9 9 -10 -5 -78 48 -94 73 -5 7 -24 27 -43 44 -19 17 -34
37 -34 44 0 7 -8 15 -17 18 -31 10 -114 98 -104 110 12 15 6 75 -9 89 -10 9
-11 9 -6 0 4 -7 2 -13 -3 -13 -19 0 -12 29 9 40 11 6 20 19 20 29 0 22 26 36
34 18 3 -8 7 -9 13 -2 4 6 24 11 43 12 79 6 181 23 207 35 27 13 46 51 23 46
-7 -2 -14 2 -17 8 -2 8 92 11 319 12 178 1 361 5 408 8 109 7 106 7 178 -6 36
-6 92 -8 132 -4 43 4 75 2 83 -4 17 -14 160 -43 242 -48 64 -4 106 -10 113
-14 7 -5 60 -3 70 3 6 4 37 9 70 11 57 3 102 19 102 34 0 9 -38 52 -46 52 -3
0 -2 -5 2 -11 4 -7 1 -10 -7 -7 -8 3 -24 1 -36 -3 -13 -5 -25 -4 -28 1 -4 6 2
10 12 10 10 0 34 11 54 23 47 29 169 35 170 8z m-2844 -220 c9 -1 10 -8 3 -27
-12 -32 -12 -37 -1 -29 6 3 6 -6 1 -25 -10 -34 -10 -35 -10 -51 0 -5 -4 -8 -9
-4 -5 3 -13 0 -17 -6 -4 -7 -3 -9 3 -6 6 4 13 0 17 -8 3 -8 1 -15 -4 -15 -6 0
-10 -10 -9 -22 0 -22 1 -22 9 -3 l9 20 1 -20 c1 -11 3 -35 5 -53 2 -28 -1 -35
-22 -43 -33 -12 -33 -12 -33 15 0 14 -5 28 -11 31 -6 4 -8 14 -5 22 3 8 2 11
-3 8 -17 -10 -22 13 -6 28 8 9 10 17 5 19 -13 4 -34 122 -26 151 5 23 23 26
103 18z m5816 -269 c-6 -357 -18 -472 -44 -431 -6 10 -9 11 -9 2 0 -7 -6 -13
-14 -13 -12 0 -15 17 -16 78 -2 110 0 174 8 186 10 17 10 46 -1 46 -5 0 -7 20
-4 48 4 28 3 37 -2 22 -7 -24 -8 -24 -20 13 -7 21 -10 49 -7 63 5 19 3 24 -5
18 -8 -4 -9 -3 -5 5 10 16 26 4 26 -20 0 -10 4 -19 10 -19 12 0 50 41 50 54 0
6 5 4 10 -4 6 -9 10 -10 10 -3 0 6 -5 15 -12 19 -7 5 -5 11 7 21 11 7 19 13
19 13 1 0 0 -44 -1 -98z m-5685 11 c7 -18 11 -22 11 -10 1 15 4 16 21 7 11 -6
18 -15 15 -20 -3 -6 1 -7 9 -4 10 4 16 1 16 -9 0 -9 11 -24 25 -35 14 -11 25
-27 25 -36 0 -28 32 -52 95 -71 33 -11 62 -21 65 -24 5 -5 17 -9 45 -15 44 -9
84 -30 88 -46 5 -21 -17 -29 -28 -10 -3 5 -12 7 -20 3 -8 -3 -15 0 -15 7 0 6
5 8 10 5 6 -3 10 -1 10 4 0 12 -11 14 -34 5 -9 -3 -13 -11 -9 -17 4 -6 0 -8
-10 -4 -10 3 -17 2 -17 -3 0 -6 7 -10 15 -10 8 0 15 -5 15 -11 0 -5 4 -8 8 -5
5 3 7 -8 4 -23 -4 -26 -2 -28 27 -23 20 3 31 0 31 -7 0 -7 4 -10 9 -7 4 3 20
0 35 -7 22 -10 26 -17 24 -46 -3 -39 12 -50 33 -24 8 9 9 14 2 10 -17 -11 -26
10 -13 30 9 14 10 14 7 2 -4 -13 2 -15 36 -11 23 3 53 5 67 4 14 -1 43 -2 65
-3 31 -1 35 -4 20 -10 -15 -6 -16 -8 -4 -8 19 -1 45 -28 36 -37 -3 -4 -25 -8
-49 -9 -24 -2 -55 -6 -70 -10 -20 -5 -29 -3 -33 7 -7 17 -50 13 -74 -6 -12 -9
-13 -8 -6 3 5 10 4 12 -3 7 -7 -4 -12 -17 -12 -30 0 -16 15 -31 59 -56 35 -21
55 -38 48 -42 -6 -4 -15 -4 -21 -1 -5 3 -6 1 -2 -6 4 -6 16 -9 27 -6 14 5 32
-4 62 -31 23 -21 41 -42 40 -46 -2 -5 0 -7 5 -6 4 1 23 -4 42 -11 48 -19 60
-21 60 -10 0 12 50 -12 51 -25 1 -6 1 -17 0 -24 -1 -7 5 -15 13 -18 9 -3 13
-11 9 -17 -3 -6 -1 -7 6 -3 6 4 25 -4 42 -18 17 -15 35 -24 39 -21 5 3 11 1
14 -4 4 -5 2 -12 -4 -16 -5 -3 -10 -12 -10 -18 0 -7 5 -4 11 6 12 21 33 23 26
2 -4 -9 5 -18 28 -26 19 -7 32 -16 30 -20 -3 -4 7 -10 22 -14 34 -8 45 -23 32
-46 -9 -18 1 -31 29 -35 33 -5 51 -44 21 -44 -6 0 -7 4 -4 10 3 6 -1 7 -9 4
-9 -3 -16 -2 -16 4 0 11 -80 46 -88 37 -3 -2 2 -13 11 -23 10 -10 17 -22 17
-26 0 -4 19 -26 42 -49 23 -23 41 -46 40 -50 -1 -4 3 -18 10 -30 7 -12 11 -26
10 -30 -1 -5 2 -6 7 -3 13 8 73 -63 65 -76 -4 -6 -3 -8 3 -5 6 4 16 -7 23 -23
7 -17 17 -30 22 -30 12 0 68 -57 123 -125 46 -57 123 -135 133 -135 4 0 13 -9
19 -20 10 -15 10 -19 0 -17 -6 2 -2 -1 11 -7 12 -6 25 -21 29 -34 4 -18 8 -21
14 -10 8 12 9 10 9 -7 -1 -19 29 -31 67 -27 24 2 43 0 43 -5 0 -12 26 -38 81
-83 84 -69 119 -102 113 -111 -3 -5 -1 -9 4 -9 5 0 16 -14 23 -32 7 -18 38
-59 69 -91 30 -33 54 -64 52 -68 -1 -5 4 -9 11 -9 19 0 60 -47 53 -59 -4 -6
-1 -9 7 -5 16 6 77 -58 77 -81 0 -8 4 -15 10 -15 5 0 9 -3 8 -7 -3 -7 25 -43
63 -82 8 -9 23 -28 32 -43 9 -15 30 -35 47 -44 41 -25 39 -52 -3 -45 -5 1 -6
-3 -3 -8 13 -21 -27 -28 -73 -14 -60 20 -213 24 -265 9 -23 -7 -43 -13 -46
-14 -22 -4 -37 -15 -37 -27 0 -8 4 -12 9 -9 5 3 15 1 23 -6 7 -6 19 -10 27 -9
24 3 39 -1 34 -9 -3 -5 1 -9 9 -9 8 0 12 4 9 9 -10 15 153 13 195 -4 20 -7 23
-11 11 -18 -11 -7 -12 -10 -2 -10 7 0 10 -5 6 -11 -4 -8 -9 -8 -17 0 -18 18
-29 13 -18 -8 9 -15 6 -22 -12 -34 -12 -8 -40 -30 -61 -49 -35 -31 -43 -35
-70 -27 -41 12 -66 11 -66 -1 0 -5 7 -10 15 -10 18 0 19 -12 3 -29 -11 -10
-10 -11 5 -6 9 4 17 3 17 -3 0 -5 -9 -12 -21 -15 -12 -3 -18 -10 -14 -17 9
-14 -34 -62 -48 -53 -6 3 -7 1 -3 -5 3 -6 -24 -36 -61 -69 -37 -32 -96 -85
-131 -118 -35 -33 -70 -66 -77 -72 -8 -7 -16 -13 -19 -13 -3 0 -26 -21 -51
-47 -26 -27 -43 -41 -39 -33 4 8 -6 2 -22 -15 -17 -16 -58 -57 -93 -90 -34
-32 -67 -67 -72 -77 -5 -10 -16 -18 -24 -18 -8 0 -22 -11 -31 -25 -9 -14 -20
-23 -24 -20 -5 3 -6 -3 -3 -14 5 -21 -33 -54 -51 -43 -18 11 -36 11 -36 1 0
-13 -52 -58 -67 -59 -7 0 -13 -3 -13 -8 0 -4 -19 -16 -42 -26 -24 -10 -45 -21
-48 -25 -22 -28 -85 -71 -98 -66 -11 4 -12 2 -4 -8 9 -11 6 -19 -11 -35 -13
-12 -27 -19 -30 -15 -4 3 -7 1 -7 -5 0 -18 -50 -66 -84 -80 -23 -10 -31 -10
-45 0 -14 12 -14 11 -3 -4 17 -22 8 -38 -22 -38 -12 0 -31 -7 -42 -15 -10 -8
-28 -15 -38 -15 -31 0 -89 -23 -108 -42 -10 -10 -25 -18 -35 -18 -9 0 -14 -3
-10 -6 3 -4 0 -13 -8 -20 -17 -17 -29 -18 -19 -2 5 10 4 10 -7 0 -11 -10 -9
-17 16 -39 17 -14 22 -23 13 -20 -9 3 -18 1 -20 -5 -2 -6 -21 -13 -42 -14 -21
-2 -44 -8 -52 -15 -7 -6 -17 -8 -22 -5 -16 10 -84 -46 -99 -81 -16 -39 -9 -58
12 -29 8 10 18 15 24 11 6 -3 11 1 11 9 0 9 6 17 13 17 55 6 145 8 156 4 20
-7 -5 -35 -28 -30 -11 2 -17 -4 -18 -17 -1 -13 3 -18 12 -14 8 3 17 1 20 -4 8
-14 -21 -12 -48 1 -18 9 -20 9 -10 -1 10 -11 6 -18 -18 -36 -17 -12 -38 -20
-49 -17 -12 3 -21 0 -22 -8 0 -8 -2 -18 -2 -24 -3 -20 -18 -35 -51 -51 -19 -9
-32 -20 -29 -25 3 -5 -7 -9 -21 -9 -14 0 -23 -4 -20 -10 3 -5 -10 -20 -30 -32
-19 -13 -38 -31 -41 -41 -3 -9 -9 -15 -14 -12 -4 3 -10 -2 -13 -10 -4 -8 -15
-12 -25 -10 -15 3 -19 -2 -18 -23 1 -25 -2 -27 -34 -24 -19 2 -36 8 -38 13 -6
15 -22 10 -50 -16 -15 -15 -35 -24 -45 -21 -11 3 -23 -5 -33 -22 -15 -27 -15
-27 -8 -2 4 14 8 39 8 55 1 17 6 33 11 37 14 10 13 177 -1 186 -6 4 -14 31
-17 61 -4 30 -11 57 -15 60 -6 3 -6 16 -1 28 6 16 13 21 25 16 12 -4 15 -3 10
5 -4 7 -15 12 -25 12 -21 0 -19 33 5 87 18 40 18 89 -2 216 -20 133 -24 237
-8 237 15 0 25 48 11 57 -6 4 -7 1 -2 -8 6 -11 5 -11 -5 -2 -7 7 -14 29 -15
50 -2 53 -14 91 -32 97 -9 4 -12 13 -8 26 3 11 2 20 -4 20 -5 0 -13 9 -16 20
-4 12 -11 17 -18 13 -9 -5 -9 -3 0 8 10 12 8 15 -13 17 -19 1 -24 -3 -24 -20
0 -17 -3 -19 -12 -10 -7 7 -11 34 -9 64 5 105 4 122 -7 126 -22 7 -12 20 16
21 67 2 88 7 104 26 16 20 16 19 43 -7 24 -25 54 -30 40 -8 -3 5 -1 11 5 15 6
4 8 10 5 15 -3 4 3 7 12 5 10 -2 23 -4 28 -4 6 -1 9 -18 7 -42 -3 -30 -10 -43
-26 -49 -11 -5 -16 -9 -10 -9 19 -1 24 -29 14 -79 -8 -38 -16 -188 -19 -335
-1 -16 -5 -26 -9 -23 -4 2 -9 -5 -9 -17 -2 -17 0 -19 7 -7 8 13 10 12 10 -2 0
-10 -6 -18 -12 -18 -9 0 -9 -3 -3 -8 6 -4 12 -25 14 -47 2 -22 7 -48 12 -57 5
-10 5 -27 -1 -43 -14 -37 -13 -52 4 -35 33 37 41 92 36 250 -3 85 -2 175 2
200 8 46 16 132 17 183 1 16 5 26 10 22 15 -9 24 16 11 28 -10 9 -11 9 -6 0 4
-7 2 -13 -3 -13 -14 0 -14 10 2 43 14 32 22 34 24 7 1 -13 -3 -18 -10 -14 -7
3 -5 0 3 -8 9 -7 14 -21 12 -30 -2 -13 3 -18 17 -18 15 0 19 -4 14 -17 -5 -12
-3 -14 7 -8 10 6 11 0 6 -27 -5 -28 -3 -35 10 -35 21 0 41 33 48 79 12 80 18
368 7 368 -6 0 -10 3 -10 8 3 19 -2 26 -11 12 -7 -12 -9 -11 -9 5 1 11 -2 43
-5 70 -10 84 -17 256 -15 325 6 129 -1 236 -15 259 -7 11 -6 12 5 6 12 -8 12
-6 0 8 -18 22 -31 22 -31 -2 0 -12 -6 -18 -17 -17 -22 4 -27 20 -13 47 8 15 9
19 1 15 -6 -4 -11 -2 -11 3 0 6 3 11 8 11 4 0 6 19 5 41 0 23 5 55 12 72 11
25 10 38 -1 70 -8 21 -11 44 -8 49 4 6 -2 5 -14 -1 -12 -6 -24 -16 -27 -21 -3
-6 -13 -10 -21 -10 -12 0 -14 23 -12 141 1 77 7 170 13 206 9 56 14 67 40 81
46 26 52 40 57 121 3 43 10 77 17 79 15 5 14 23 -1 19 -8 -1 -12 6 -10 16 2
10 -6 27 -17 36 -12 11 -21 31 -21 47 0 54 24 199 35 206 6 5 6 8 -2 8 -9 0
-9 8 2 33 17 41 21 76 11 105 -8 23 15 57 29 44 5 -4 5 -2 2 4 -3 6 -3 34 2
63 5 32 4 54 -2 58 -5 3 -6 23 -3 47 4 22 7 48 7 56 0 8 0 59 0 112 0 104 -10
124 -40 86 -12 -14 -15 -25 -9 -29 13 -8 0 -49 -15 -49 -7 0 -5 -5 4 -10 10
-6 15 -20 14 -35 -2 -14 1 -27 6 -31 14 -8 11 -21 -7 -28 -10 -4 -13 -2 -8 7
5 8 2 7 -9 -2 -9 -7 -17 -10 -17 -5 0 5 -7 1 -14 -9 -12 -16 -14 -15 -19 15
-3 18 -5 52 -4 75 1 22 -1 39 -5 36 -13 -7 -9 16 8 48 9 18 12 38 8 47 -11 27
-13 43 -4 37 5 -3 11 -1 15 5 3 5 2 10 -3 10 -11 0 -45 107 -37 120 3 6 -1 13
-9 16 -9 3 -16 15 -16 26 0 10 4 17 9 14 5 -3 9 4 10 17 3 92 2 101 -15 114
-15 11 -16 13 -2 13 9 0 21 -12 26 -27z m5236 -339 c3 -25 3 -51 -1 -57 -3 -6
-1 -7 5 -3 8 5 12 -5 12 -33 0 -30 -4 -41 -15 -41 -8 0 -15 -5 -15 -11 0 -5 5
-7 10 -4 9 5 15 -24 11 -49 -1 -4 -3 -72 -4 -150 -2 -78 -6 -147 -10 -153 -4
-7 -8 -38 -8 -70 0 -32 -4 -74 -9 -93 -5 -19 -15 -70 -21 -112 -12 -70 -14
-75 -26 -58 -18 26 -37 25 -30 -1 4 -16 3 -18 -9 -8 -10 8 -14 8 -14 0 0 -6 5
-11 11 -11 5 0 7 -6 4 -12 -4 -7 2 -3 13 9 19 21 20 21 25 4 2 -11 1 -23 -4
-28 -4 -4 -9 -20 -11 -35 -2 -15 -7 -30 -10 -34 -4 -3 -2 -17 3 -31 5 -14 7
-28 4 -33 -3 -4 3 -6 14 -3 14 3 20 -2 23 -21 5 -24 2 -26 -31 -27 -20 -1 -29
-3 -21 -5 19 -6 15 -78 -6 -95 -8 -6 -14 -19 -14 -28 1 -13 3 -13 15 3 14 19
15 19 15 -6 0 -28 22 -41 70 -44 60 -3 61 -3 51 -21 -5 -10 -7 -49 -4 -86 3
-55 1 -67 -9 -61 -10 6 -9 3 1 -9 12 -15 12 -19 -5 -31 -10 -8 -16 -18 -11
-22 4 -4 7 -2 7 4 0 7 5 12 11 12 7 0 9 -10 7 -25 -3 -13 0 -26 6 -28 14 -5
15 -564 1 -589 -6 -9 -8 -53 -5 -97 7 -111 1 -183 -13 -174 -9 5 -9 3 -2 -8
13 -17 7 -172 -6 -164 -5 4 -9 1 -9 -4 0 -6 4 -11 10 -11 5 0 9 -27 8 -62 0
-35 4 -86 11 -115 8 -34 9 -74 3 -121 -5 -45 -5 -69 1 -65 6 4 7 -5 2 -23 -4
-16 -8 -37 -9 -46 0 -10 -4 -18 -9 -18 -6 0 -5 -5 0 -12 14 -19 4 -108 -13
-115 -11 -4 -11 -8 2 -20 8 -9 14 -30 13 -47 -1 -17 2 -39 6 -49 4 -9 4 -29 0
-45 -14 -53 -16 -90 -6 -97 14 -8 14 -132 1 -140 -7 -4 -7 -11 -2 -18 16 -21
22 -65 12 -91 -6 -16 -6 -27 1 -31 5 -4 9 -43 9 -88 -1 -105 2 -121 20 -129
12 -5 12 -7 -2 -7 -11 -1 -15 -6 -12 -16 4 -8 10 -12 15 -9 5 3 9 1 9 -5 0 -5
-5 -13 -10 -16 -6 -4 -8 -16 -4 -27 3 -11 2 -18 -2 -15 -5 3 -9 -13 -9 -34 0
-29 3 -38 14 -34 10 4 11 2 3 -8 -6 -7 -9 -25 -8 -40 2 -15 -1 -27 -5 -27 -5
0 -9 -8 -9 -17 0 -15 2 -16 10 -3 17 27 10 1 -10 -37 -11 -21 -20 -43 -20 -50
0 -6 -5 -13 -11 -15 -8 -3 -6 -10 5 -20 17 -18 22 -48 7 -48 -16 0 -111 82
-111 96 0 8 -6 14 -12 14 -7 0 -38 23 -68 50 -30 28 -50 50 -45 49 33 -4 23
12 -26 45 -15 9 -29 29 -32 45 -5 22 -13 30 -37 35 -17 3 -29 10 -25 16 4 7
-2 7 -20 0 -17 -7 -24 -7 -20 0 3 6 -1 10 -10 10 -10 0 -13 -5 -9 -12 5 -9 3
-9 -9 1 -11 9 -29 11 -51 7 -47 -9 -66 1 -66 35 0 18 -11 39 -30 59 -29 30
-41 58 -18 44 7 -4 8 -3 4 4 -4 7 -14 12 -22 12 -8 0 -14 5 -14 12 0 6 -3 9
-6 6 -9 -9 -94 74 -87 85 3 5 1 7 -4 4 -6 -4 -18 4 -27 18 -29 45 -138 145
-157 145 -11 0 -19 5 -19 11 0 5 -20 29 -45 51 -25 23 -45 47 -45 54 0 7 -16
20 -35 29 -43 21 -87 64 -78 78 3 5 1 7 -5 3 -9 -5 -57 42 -49 50 1 2 41 6 87
10 47 3 91 11 98 16 38 31 -11 65 -115 79 -99 13 -153 27 -153 39 0 6 -7 10
-17 10 -9 0 -14 3 -10 6 9 9 -28 41 -90 75 -60 34 -89 57 -80 65 2 3 12 -2 21
-11 9 -9 16 -12 16 -6 0 5 12 4 28 -5 15 -7 36 -14 47 -14 11 0 34 -9 51 -19
l31 -19 -4 22 c-3 12 -20 32 -39 45 -20 14 -33 30 -30 38 3 8 -2 13 -14 13
-17 0 -80 53 -80 68 0 4 -19 16 -43 26 -52 24 -78 46 -71 58 3 4 2 8 -3 7 -27
-5 -42 5 -52 31 -5 17 -15 30 -22 30 -7 0 -10 2 -7 5 3 3 18 0 34 -6 16 -6 61
-12 99 -14 73 -3 129 -21 118 -38 -4 -6 -1 -7 8 -1 7 4 30 7 49 5 l35 -3 -25
19 c-14 10 -38 24 -53 31 -15 7 -26 16 -23 21 8 12 -21 23 -64 25 -42 1 -134
59 -149 94 -10 20 -14 22 -26 12 -12 -10 -15 -10 -15 1 0 9 -3 10 -11 2 -16
-16 -48 -4 -55 21 -3 11 -20 31 -39 44 -19 12 -35 27 -35 32 0 6 -6 10 -13 10
-19 0 -75 58 -97 99 -13 24 -19 30 -20 18 0 -15 -9 -10 -42 22 -27 27 -44 37
-49 30 -8 -13 0 -49 11 -49 4 0 18 -20 31 -45 13 -25 27 -45 31 -45 5 0 8 -7
8 -15 0 -21 107 -125 146 -141 19 -8 34 -19 34 -25 0 -5 5 -7 12 -3 7 4 8 3 4
-4 -4 -7 -2 -12 3 -12 6 0 11 -4 11 -8 0 -5 -7 -9 -15 -9 -8 0 -11 5 -8 10 4
6 -3 8 -15 5 -12 -4 -22 -2 -22 4 0 5 -4 6 -10 3 -5 -3 -10 -2 -10 3 0 5 -12
14 -26 21 -16 7 -24 17 -20 26 3 9 0 12 -8 9 -7 -3 -24 13 -39 35 -15 23 -45
53 -67 67 -22 15 -37 31 -34 35 3 5 2 9 -3 8 -31 -7 -94 51 -88 82 2 11 0 17
-6 14 -9 -6 -13 6 -10 35 1 8 -7 21 -16 28 -14 10 -17 23 -15 53 2 21 7 39 11
39 3 0 30 -23 59 -50 49 -47 71 -62 58 -41 -4 5 3 7 14 4 11 -3 20 -9 20 -14
0 -5 11 -4 24 1 13 5 27 6 30 3 10 -10 105 -12 111 -2 4 5 16 10 28 10 17 1
18 2 4 6 -9 2 -15 9 -12 14 4 5 -1 9 -10 9 -11 0 -15 5 -12 14 5 14 -26 25
-110 41 -41 8 -78 39 -66 57 4 7 13 25 18 39 12 33 184 219 202 219 7 0 22 18
33 40 12 24 25 38 32 34 6 -4 9 -1 6 7 -3 8 4 24 16 37 15 17 17 25 8 31 -9 5
-4 19 18 53 30 46 63 80 59 62 -4 -22 2 -24 18 -8 13 13 14 19 5 22 -20 6 -13
25 8 19 11 -3 18 -1 15 3 -3 5 3 15 13 22 9 7 37 37 61 66 24 28 51 52 59 52
33 0 92 48 176 144 49 57 95 115 103 129 7 15 17 27 22 27 5 0 11 10 14 22 5
19 8 20 23 7 13 -10 16 -10 10 -1 -12 19 2 62 20 62 8 0 13 4 10 9 -5 8 51 66
85 87 8 5 22 23 31 39 18 32 24 36 76 55 40 15 41 31 1 49 -40 17 -36 50 7 65
17 6 39 19 48 28 14 14 22 16 38 7 11 -6 37 -12 57 -14 20 -2 52 -6 72 -10 47
-9 110 9 136 38 12 15 23 46 27 83 4 32 9 70 11 84 1 13 8 26 14 28 6 2 17 9
24 15 7 7 43 12 84 12 70 0 73 1 82 28 6 17 6 27 0 27 -5 0 -9 21 -9 46 0 27
4 43 10 39 6 -3 7 1 4 10 -4 10 5 31 23 53 16 20 43 61 60 89 16 29 33 50 37
45 4 -4 7 -2 6 3 -4 20 0 32 20 53 12 12 18 22 15 22 -3 0 2 14 12 30 9 17 20
30 24 30 3 0 9 -21 13 -46z m-2488 -2583 c-3 -5 15 -12 41 -16 42 -6 56 -15
115 -76 37 -38 78 -71 90 -73 13 -3 41 -8 63 -11 46 -8 75 -30 75 -57 0 -10 5
-17 11 -16 6 2 13 -10 16 -27 2 -16 0 -25 -4 -19 -5 6 -16 11 -25 11 -12 0
-15 -5 -9 -16 5 -9 6 -22 4 -29 -3 -8 1 -10 11 -6 10 4 16 1 16 -8 0 -7 9 -21
20 -31 12 -10 18 -23 14 -29 -4 -7 -3 -8 4 -4 7 4 30 -10 54 -33 23 -23 45
-41 49 -41 4 0 11 -9 14 -20 4 -11 10 -18 14 -15 5 2 13 -7 19 -20 7 -14 16
-25 21 -25 6 0 8 -7 5 -15 -5 -11 -2 -13 12 -8 12 4 15 3 10 -5 -5 -8 -2 -10
8 -6 11 4 16 0 17 -12 0 -12 3 -14 6 -6 4 10 8 10 19 1 8 -6 11 -16 7 -22 -4
-6 -1 -7 6 -2 16 9 73 -44 66 -63 -2 -7 -1 -10 5 -7 5 3 14 -13 21 -35 7 -22
16 -40 21 -40 4 0 8 -6 8 -12 0 -7 20 -33 45 -57 34 -33 45 -51 43 -70 -2 -17
2 -25 10 -24 6 2 12 -2 12 -8 0 -5 4 -7 10 -4 18 11 72 -28 66 -48 -3 -14 0
-16 15 -12 11 4 18 3 17 -2 -2 -4 0 -9 5 -10 51 -16 121 -77 122 -108 1 -20 6
-25 26 -25 5 0 7 5 4 10 -14 23 9 7 51 -35 25 -24 43 -49 39 -55 -4 -6 -3 -10
2 -9 15 4 43 -13 37 -22 -3 -5 -2 -9 3 -8 26 4 48 -4 73 -28 15 -16 50 -40 76
-55 37 -20 55 -39 75 -77 15 -28 24 -53 20 -56 -3 -3 2 -3 12 1 11 4 17 1 17
-9 0 -8 16 -24 36 -36 19 -12 32 -26 29 -32 -4 -6 2 -13 14 -16 11 -3 18 -9
15 -14 -3 -5 2 -9 10 -9 9 0 16 -5 16 -11 0 -5 4 -8 9 -4 5 3 17 -2 25 -11 9
-8 16 -12 16 -7 0 17 33 -41 36 -63 1 -12 5 -27 8 -33 4 -5 2 -12 -4 -16 -5
-3 -10 -13 -10 -21 0 -8 4 -13 9 -9 6 3 14 -2 19 -11 5 -9 13 -17 18 -17 5 -1
8 -5 6 -10 -1 -4 4 -6 10 -5 7 2 12 -3 10 -10 -1 -8 2 -11 8 -7 11 7 70 -25
109 -59 13 -12 42 -46 64 -76 22 -30 47 -59 54 -63 7 -5 10 -13 7 -19 -4 -6
-2 -8 4 -4 6 3 13 2 17 -4 3 -5 0 -10 -7 -10 -8 0 -6 -5 5 -11 43 -25 5 -54
-76 -58 -26 -1 -60 -6 -75 -10 -15 -4 -85 -7 -157 -6 -71 1 -142 -2 -158 -6
-21 -6 -29 -4 -37 10 -8 16 -24 19 -116 19 -59 0 -110 4 -113 9 -3 4 -17 8
-31 8 -14 -1 -31 6 -38 15 -10 12 -12 12 -10 1 3 -12 -30 -15 -197 -16 -174
-1 -205 -4 -237 -20 -21 -10 -38 -23 -38 -27 0 -5 -4 -7 -8 -4 -4 3 -25 1 -45
-4 -20 -4 -37 -5 -37 -1 0 3 -40 6 -89 6 -49 0 -87 -3 -84 -7 5 -9 -3 -10 -94
-12 -35 0 -63 -4 -63 -7 0 -3 -20 -6 -45 -8 -31 -1 -45 2 -45 11 0 11 -2 11
-8 0 -7 -10 -27 -10 -105 -1 -53 7 -94 16 -91 21 3 4 0 8 -5 8 -6 0 -11 -6
-12 -12 0 -10 -2 -10 -6 0 -2 6 -9 12 -14 12 -6 0 -7 -4 -4 -10 6 -10 -5 -13
-65 -12 -22 0 -34 4 -32 12 1 6 -2 9 -8 5 -6 -3 -8 -11 -4 -16 4 -6 -14 -9
-46 -8 -28 2 -53 6 -56 11 -3 5 -10 6 -15 3 -5 -4 -9 -3 -9 2 0 4 -64 8 -142
8 -210 -1 -441 14 -450 28 -5 8 -8 7 -8 -4 0 -21 -52 -49 -57 -31 -3 6 -14 12
-25 12 -14 0 -18 -5 -14 -15 4 -11 -1 -15 -18 -15 -58 0 -83 12 -100 47 -16
34 -42 37 -33 4 5 -21 -35 -20 -79 1 -16 8 -38 13 -49 10 -17 -4 -15 0 8 22
l29 27 -33 -6 c-18 -3 -36 -8 -41 -11 -4 -3 -8 1 -8 8 0 10 -2 10 -8 0 -6 -8
-21 -10 -45 -7 -29 5 -37 3 -37 -9 0 -8 6 -16 13 -19 6 -2 -45 -4 -114 -4 -95
0 -126 4 -126 13 0 9 5 10 18 4 12 -7 19 -6 22 3 3 9 7 9 20 -2 14 -11 17 -11
18 0 1 8 1 18 0 23 -1 5 5 6 14 2 10 -3 13 -2 10 5 -4 5 -14 7 -23 5 -18 -6
-134 -8 -166 -4 -10 2 -21 -3 -24 -11 -3 -10 0 -12 12 -8 9 4 16 2 16 -3 0 -6
-7 -10 -16 -10 -8 0 -12 -4 -9 -10 3 -5 -3 -10 -15 -10 -11 0 -23 6 -26 14 -3
9 -18 13 -42 12 -20 -1 -50 5 -67 14 -21 12 -52 16 -108 15 -44 -1 -72 2 -65
6 9 6 9 9 1 9 -6 0 -14 -4 -17 -9 -3 -4 -33 -9 -67 -10 -34 -1 -67 -6 -74 -11
-7 -5 -15 -7 -18 -3 -4 3 -7 1 -7 -5 0 -7 -5 -12 -11 -12 -6 0 -9 7 -6 14 4
10 1 13 -8 9 -8 -3 -12 -9 -9 -14 9 -14 -44 -10 -76 6 -16 8 -51 14 -82 13
-29 -1 -69 -1 -88 0 l-35 2 26 23 c14 12 24 28 22 35 -6 16 14 16 21 0 6 -15
56 39 56 60 0 6 5 12 10 12 6 0 13 8 17 18 3 9 12 33 21 54 14 34 17 36 49 31
31 -5 39 -1 84 47 27 29 49 49 49 44 0 -4 6 -1 13 8 6 9 40 31 75 49 34 18 62
36 62 41 0 4 -38 8 -85 8 -47 0 -85 4 -85 9 0 4 19 21 41 37 36 25 52 29 118
30 42 1 88 2 102 3 15 0 50 17 79 37 29 20 49 31 45 24 -5 -8 0 -7 14 2 12 7
21 16 21 21 0 4 -5 5 -11 1 -6 -3 -3 5 6 20 20 30 26 28 -88 27 -74 -1 -77 0
-67 19 6 10 17 23 24 27 8 4 36 27 63 51 75 66 155 122 166 115 6 -3 7 -1 3 5
-6 10 30 28 47 24 5 -1 6 2 3 7 -6 10 63 58 77 53 5 -1 6 2 2 8 -3 5 1 13 9
16 27 10 18 27 -10 20 -19 -5 -25 -3 -21 6 2 7 10 12 16 10 6 -1 10 4 9 10 -2
7 8 14 21 16 13 2 33 12 44 22 11 10 47 35 81 55 35 20 75 47 91 61 15 13 34
24 41 24 8 0 20 14 29 30 9 17 20 30 25 30 6 0 10 6 10 13 0 8 19 22 43 32 23
10 46 21 51 23 5 3 6 0 2 -7 -11 -17 0 -13 15 6 12 15 12 16 -1 8 -13 -8 -13
-7 -1 8 16 20 22 22 18 6 -1 -6 9 -13 22 -14 14 -1 27 -7 29 -13 2 -7 8 -12
13 -12 6 0 8 4 4 9 -7 12 12 22 95 50 125 43 122 40 118 77 -2 22 4 40 18 56
28 31 28 61 0 54 -12 -3 -27 -6 -34 -6 -7 0 -10 -4 -7 -10 3 -5 1 -10 -5 -10
-6 0 -13 7 -17 16 -5 13 -7 13 -14 2 -7 -10 -9 -9 -9 4 0 15 34 35 52 30 5 -1
7 4 5 11 -1 6 5 11 14 11 9 -1 16 4 15 10 0 6 4 11 9 11 6 0 9 -3 7 -7 -1 -5
2 -8 8 -8 5 0 10 4 10 9 0 5 3 17 7 27 5 14 3 16 -13 11 -14 -5 -13 -2 6 13
14 11 33 22 43 26 9 3 17 10 17 15 0 5 4 9 9 9 12 0 2 -63 -10 -71 -5 -3 -7
-13 -3 -22 4 -12 1 -17 -10 -17 -9 0 -16 -5 -16 -11 0 -5 -4 -7 -10 -4 -5 3
-10 2 -10 -4 0 -5 5 -13 10 -16 6 -4 8 -15 5 -26 -4 -12 -2 -19 7 -19 20 1 58
36 58 54 0 8 4 17 9 20 5 3 20 30 35 61 14 30 30 55 36 55 5 0 10 9 10 20 0
12 7 20 17 20 9 0 14 2 11 5 -3 3 13 23 34 45 22 22 37 43 35 47 -3 4 9 9 25
10 17 1 36 7 43 13 10 9 10 4 0 -27 -7 -21 -22 -43 -34 -49 -19 -10 -19 -13
-7 -23 8 -7 13 -18 10 -26 -3 -7 0 -16 7 -21 8 -4 10 -3 5 4 -4 7 -2 12 3 12
6 0 11 7 11 15 0 8 8 15 17 15 9 0 14 3 10 6 -5 6 48 119 63 134 3 3 10 14 17
25 6 11 16 19 23 17 6 -1 9 1 6 6 -3 5 26 38 64 75 63 61 90 82 76 58z m-820
-2379 c-3 -5 1 -9 9 -9 8 0 15 4 15 9 0 4 14 8 30 8 17 0 30 -4 30 -10 0 -5 5
-10 11 -10 5 0 7 5 3 12 -5 8 3 9 32 4 40 -7 72 -12 110 -14 17 -2 23 -10 26
-39 8 -60 2 -66 -56 -60 -28 4 -68 9 -88 13 -33 6 -39 4 -47 -17 -5 -13 -10
-19 -10 -13 -1 14 -41 26 -41 13 0 -6 -8 -5 -20 1 -12 6 -20 7 -20 1 0 -9
-118 -5 -147 4 -18 6 -16 26 7 55 17 22 22 23 39 13 28 -17 28 -17 40 17 9 26
15 30 46 30 20 0 34 -4 31 -8z"/>
<path d="M3779 6833 c5 -10 16 -40 23 -67 10 -37 22 -54 48 -72 19 -13 31 -24
26 -24 -19 0 18 -29 45 -35 16 -4 34 -14 39 -23 9 -14 10 -13 8 8 -2 18 1 24
12 22 12 -3 12 0 -2 15 -125 133 -187 193 -196 193 -9 0 -9 -5 -3 -17z"/>
<path d="M4153 6547 c-3 -5 -11 -6 -19 -3 -7 3 -30 -2 -50 -10 l-36 -15 39
-42 c21 -24 45 -43 53 -43 8 1 14 -4 13 -9 -1 -6 6 -11 15 -12 9 -1 37 -4 62
-6 26 -3 51 0 59 6 12 9 13 9 7 0 -9 -17 4 -16 26 1 15 11 16 17 5 39 -6 15
-20 27 -29 27 -10 0 -19 11 -23 31 -7 29 -46 57 -53 38 -2 -5 -10 -9 -18 -9
-9 0 -13 4 -9 9 3 6 -4 9 -16 8 -11 -1 -23 -5 -26 -10z"/>
<path d="M8425 8311 c3 -6 -15 -10 -42 -11 -79 -1 -88 -3 -95 -14 -10 -14 0
-26 22 -26 10 0 21 -6 23 -12 4 -10 8 -9 17 2 9 11 13 12 17 3 2 -7 9 -13 14
-13 6 0 7 6 3 13 -5 9 -4 9 6 0 8 -7 22 -8 41 -3 16 5 43 4 61 -1 18 -5 74 -7
123 -5 50 1 131 -1 180 -5 50 -4 105 -5 123 -2 l33 5 -21 23 c-14 14 -17 25
-10 28 6 3 5 4 -2 3 -7 -2 -21 1 -30 6 -12 5 -18 5 -18 -2 0 -5 -8 -10 -17
-10 -15 0 -16 2 -3 10 9 6 10 10 3 10 -6 0 -15 -4 -18 -10 -3 -5 -11 -10 -16
-10 -6 0 -8 4 -5 9 3 4 -7 6 -22 4 -15 -2 -34 -5 -42 -7 -9 -1 -20 -4 -25 -7
-6 -3 -48 -2 -95 1 -63 4 -84 8 -82 18 1 8 -2 11 -8 7 -6 -3 -8 -10 -6 -14 3
-4 -13 -7 -34 -7 -34 0 -37 1 -22 12 15 12 12 13 -21 14 -21 0 -36 -4 -32 -9z"/>
<path d="M1934 3885 c3 -8 1 -15 -4 -15 -4 0 -6 -45 -3 -102 8 -154 9 -328 2
-328 -10 0 -5 -34 6 -42 6 -5 5 -8 -2 -8 -15 0 -17 -26 -3 -35 5 -3 7 0 4 9
-4 11 0 14 15 11 22 -4 25 2 35 78 3 23 1 35 -5 31 -14 -8 -9 127 5 145 8 11
8 13 0 8 -8 -4 -14 5 -18 26 -8 43 -10 197 -2 204 7 8 -13 33 -26 33 -6 0 -8
-7 -4 -15z"/>
<path d="M1697 3063 c-9 -2 -15 -8 -12 -12 5 -8 6 -258 2 -423 -1 -68 1 -98 9
-98 7 0 15 16 18 35 4 19 12 35 19 35 9 0 8 3 -1 9 -10 6 -11 21 -6 57 4 27 7
69 8 94 1 25 5 51 10 59 7 10 6 12 -4 6 -10 -6 -12 0 -7 27 3 20 2 51 -2 71
-5 20 -4 42 2 52 6 12 6 16 -1 11 -11 -7 -19 18 -18 57 1 15 2 26 1 26 0 -1
-8 -3 -18 -6z"/>
</g>
</svg>
