<?xml version="1.0" standalone="no"?>
<!DOCTYPE svg PUBLIC "-//W3C//DTD SVG 20010904//EN"
 "http://www.w3.org/TR/2001/REC-SVG-20010904/DTD/svg10.dtd">
<svg version="1.0" xmlns="http://www.w3.org/2000/svg"
 width="1024.000000pt" height="1024.000000pt" viewBox="0 0 1024.000000 1024.000000"
 preserveAspectRatio="xMidYMid meet">
<metadata>
Created by potrace 1.16, written by Peter Selinger 2001-2019
</metadata>
<g transform="translate(0.000000,1024.000000) scale(0.100000,-0.100000)"
fill="#000000" stroke="none">
<path d="M7930 9659 c0 -6 -40 -52 -89 -102 -49 -51 -99 -103 -111 -117 -12
-14 -27 -24 -32 -22 -5 1 -7 -1 -4 -6 3 -5 -14 -26 -36 -48 -23 -21 -36 -30
-28 -19 14 18 14 19 -2 6 -10 -7 -18 -19 -18 -25 -1 -21 -58 -78 -71 -71 -7 5
-10 4 -5 -3 6 -10 -52 -87 -61 -79 -2 2 -40 -34 -86 -80 -45 -47 -94 -91 -109
-99 -15 -8 -35 -22 -45 -32 -35 -35 -117 -97 -109 -82 6 11 4 11 -6 -1 -7 -9
-29 -24 -48 -34 -19 -10 -48 -31 -64 -46 -27 -26 -45 -34 -69 -30 -5 1 -6 -3
-2 -8 3 -6 -21 -24 -55 -41 -47 -24 -68 -42 -96 -85 -36 -54 -52 -70 -41 -41
3 8 0 16 -6 19 -7 3 -12 -6 -13 -24 -1 -16 3 -26 7 -23 16 9 -112 -231 -133
-251 -11 -11 -18 -14 -14 -7 4 6 3 12 -2 12 -5 0 -12 -9 -15 -20 -3 -13 -1
-18 6 -14 7 3 -2 -7 -19 -23 -17 -17 -33 -37 -37 -46 -10 -26 -29 -21 -22 6 5
19 4 20 -5 4 -6 -9 -9 -21 -6 -26 3 -4 -3 -16 -14 -26 -11 -10 -17 -21 -15
-25 3 -5 -9 -7 -26 -6 -26 2 -30 -1 -25 -18 4 -14 -4 -29 -24 -47 -16 -15 -31
-24 -34 -21 -3 3 -6 0 -6 -6 0 -6 -7 -9 -15 -6 -8 4 -17 -1 -21 -10 -3 -9 -15
-16 -26 -16 -10 0 -16 -4 -13 -10 3 -5 -1 -10 -10 -10 -8 0 -18 -8 -22 -17 -3
-10 -13 -26 -21 -35 -14 -16 -13 -18 1 -18 10 0 17 -8 17 -20 0 -11 -6 -20
-14 -20 -8 0 -17 -11 -20 -25 -4 -14 -11 -25 -17 -25 -6 0 -8 -4 -4 -9 3 -5
-5 -17 -17 -26 -13 -8 -23 -19 -23 -23 0 -4 -4 -6 -8 -4 -5 1 -6 -2 -2 -8 3
-6 -7 -24 -24 -40 -17 -17 -31 -34 -31 -38 -4 -20 -44 -81 -51 -76 -5 3 -6 -1
-4 -8 6 -14 -37 -58 -55 -58 -6 0 -10 -8 -10 -17 0 -10 -5 -25 -11 -33 -8 -12
-9 -9 -4 10 6 24 5 24 -9 6 -9 -10 -13 -23 -9 -29 13 -22 7 -52 -17 -77 -14
-14 -37 -47 -53 -73 -15 -27 -31 -46 -35 -43 -5 3 -8 -5 -8 -17 1 -12 -4 -21
-10 -20 -5 1 -9 -12 -8 -30 1 -18 -3 -38 -9 -45 -6 -8 -12 -23 -14 -34 -2 -11
-19 -35 -37 -53 -19 -18 -42 -47 -51 -64 -14 -28 -14 -31 0 -31 10 0 15 -7 13
-17 -2 -10 -10 -17 -17 -15 -8 2 -10 -4 -6 -18 8 -26 -18 -38 -43 -19 -12 10
-12 7 3 -10 18 -22 18 -24 2 -18 -18 7 -21 3 -31 -44 -6 -26 -39 -71 -51 -69
-9 1 -45 -46 -45 -59 0 -6 -4 -11 -9 -11 -4 0 -6 -11 -4 -24 6 -28 -73 -180
-88 -171 -5 4 -6 0 -3 -8 3 -9 -4 -22 -18 -31 -12 -9 -19 -16 -15 -16 4 0 0
-14 -8 -30 -9 -17 -19 -28 -24 -26 -4 3 -8 -1 -8 -8 0 -23 -44 -86 -61 -87
-11 0 -12 -2 -4 -6 9 -3 7 -12 -8 -33 -11 -15 -20 -33 -20 -38 0 -6 -3 -12 -7
-14 -5 -2 -18 -21 -30 -43 -12 -22 -27 -39 -33 -37 -6 1 -9 -2 -5 -7 3 -6 -1
-23 -9 -39 -8 -15 -18 -55 -21 -88 -8 -68 -14 -82 -26 -63 -7 11 -9 10 -9 -3
0 -10 -4 -18 -10 -18 -5 0 -12 -17 -16 -37 -4 -21 -11 -43 -16 -50 -5 -7 -8
-22 -7 -35 4 -39 -22 -110 -39 -103 -12 5 -12 2 1 -18 16 -25 7 -57 -18 -57
-9 0 -12 -9 -10 -27 4 -33 -3 -65 -14 -59 -4 3 -15 -17 -25 -45 -10 -27 -27
-54 -38 -60 -11 -6 -17 -13 -14 -16 3 -3 13 0 23 8 15 12 16 12 10 -4 -4 -10
-7 -25 -7 -32 0 -8 -7 -21 -16 -29 -8 -9 -11 -16 -5 -16 6 0 16 10 22 22 12
22 12 22 19 3 4 -11 3 -23 -2 -26 -5 -3 -9 -9 -8 -13 0 -3 -4 -14 -10 -24 -9
-13 -10 -13 -7 -1 3 9 -1 16 -8 16 -17 0 -15 -18 4 -33 17 -13 7 -84 -12 -84
-7 0 -19 -9 -27 -21 -34 -48 -39 -54 -40 -42 0 7 -6 10 -14 7 -8 -3 -16 4 -19
18 -3 13 -9 34 -13 47 -6 19 -4 23 7 17 8 -4 6 -1 -5 8 -27 22 -74 165 -65
198 4 16 3 30 -2 34 -5 3 -9 0 -9 -6 0 -6 -5 -8 -10 -5 -6 4 -8 11 -4 16 3 5
0 8 -7 7 -12 -3 -26 34 -33 89 -3 21 0 32 7 30 21 -4 8 46 -28 117 -36 70 -43
96 -25 96 6 0 1 9 -10 20 -11 11 -20 27 -20 35 0 9 -11 41 -24 73 -36 86 -41
106 -25 97 9 -6 9 -2 -2 11 -8 10 -24 42 -33 69 -10 28 -36 80 -57 116 -27 44
-37 72 -33 84 6 14 4 17 -8 12 -19 -7 -34 21 -18 37 16 16 12 38 -15 92 -14
27 -25 53 -25 58 0 4 -11 22 -25 38 -17 21 -24 37 -19 50 4 13 2 18 -4 14 -5
-3 -13 9 -16 27 -3 17 -20 57 -36 87 -38 70 -131 259 -135 274 -1 6 -6 20 -10
31 -4 11 -14 35 -21 52 -7 18 -18 38 -24 45 -39 46 -124 192 -125 213 0 6 -6
16 -13 24 -10 11 -10 18 4 40 13 20 14 23 2 14 -12 -11 -19 -9 -36 10 -12 13
-23 34 -24 47 -2 14 -12 33 -23 43 -11 10 -15 16 -9 13 6 -3 11 1 11 8 0 8
-10 12 -24 10 -20 -2 -23 2 -23 31 0 42 -16 85 -38 101 -22 17 -35 18 -27 2 4
-7 -5 1 -19 17 -14 17 -26 36 -26 43 0 6 -5 12 -12 12 -7 0 -25 15 -41 33 -16
17 -26 25 -21 17 7 -13 6 -13 -11 0 -17 14 -18 13 -12 -19 4 -18 7 -36 7 -40
0 -3 11 -19 25 -35 27 -32 32 -52 13 -59 -7 -2 -5 -3 5 -1 9 1 22 -7 28 -18 8
-16 7 -23 -8 -34 -10 -8 -13 -14 -8 -13 6 1 17 1 25 0 13 -1 13 -3 1 -10 -8
-5 -20 -7 -28 -4 -18 7 -16 32 3 40 13 5 13 7 2 14 -16 11 -28 11 -27 2 4 -26
-5 -22 -32 15 -17 24 -32 53 -33 66 0 13 -4 22 -7 20 -4 -2 -15 18 -24 44 -10
26 -31 58 -45 72 -15 14 -30 33 -34 43 -3 10 -10 16 -15 13 -8 -6 -32 36 -45
79 -6 23 9 53 21 41 4 -4 8 -13 8 -19 0 -5 6 -12 14 -15 8 -3 11 0 7 7 -5 7 1
11 13 11 12 0 21 -4 21 -9 0 -5 20 -14 45 -20 24 -6 49 -19 55 -29 10 -15 11
-14 7 6 -3 14 1 26 11 32 10 5 12 10 7 10 -6 0 -16 -5 -22 -11 -7 -7 -17 1
-34 28 -13 21 -23 42 -21 47 2 5 -5 3 -14 -5 -12 -9 -15 -9 -10 -1 5 8 1 12
-13 12 -28 0 -91 39 -91 56 0 8 -5 14 -11 14 -5 0 -7 -4 -4 -10 3 -5 -1 -10
-10 -10 -8 0 -18 7 -21 15 -4 8 -10 13 -14 10 -9 -6 -53 63 -53 83 0 6 -6 12
-14 12 -7 0 -13 4 -13 8 0 5 -11 15 -25 22 -13 7 -22 16 -20 20 3 4 -3 14 -12
21 -14 12 -16 12 -8 -1 5 -9 4 -11 -1 -5 -41 45 -56 65 -58 80 -1 9 -8 20 -16
25 -7 4 -10 15 -6 25 4 12 2 16 -7 12 -7 -3 -23 6 -36 19 -13 13 -28 24 -33
24 -6 0 -8 9 -5 21 4 15 2 19 -8 15 -10 -3 -12 0 -8 11 4 11 2 14 -5 9 -11 -7
-17 6 -13 27 1 5 -2 6 -7 3 -5 -3 -15 4 -23 15 -30 43 -146 157 -184 181 -55
35 -265 233 -265 251 0 4 -6 7 -13 7 -14 0 -77 55 -77 67 0 5 -22 23 -50 41
-27 18 -50 37 -50 43 0 6 -3 8 -8 5 -11 -7 -104 63 -97 74 3 5 0 7 -8 4 -15
-6 -61 48 -50 59 3 3 -5 4 -19 2 -15 -3 -32 3 -49 19 -14 13 -35 28 -47 35
-12 6 -21 15 -21 19 3 18 -2 26 -9 15 -5 -7 -43 20 -112 82 -58 52 -111 94
-117 95 -7 0 -13 4 -13 9 0 5 -9 11 -19 14 -18 4 -18 2 -8 -22 6 -14 23 -39
38 -56 27 -29 54 -82 51 -97 -1 -5 4 -7 11 -5 6 1 11 -4 10 -10 -2 -7 0 -12 5
-11 11 4 110 -100 129 -136 20 -37 29 -91 14 -81 -16 9 -13 -4 4 -21 9 -9 14
-33 14 -62 0 -26 9 -87 19 -137 14 -62 17 -94 10 -102 -7 -9 -6 -28 1 -60 6
-27 12 -64 14 -85 1 -20 5 -34 8 -32 10 6 30 -176 26 -234 -2 -29 0 -55 5 -58
5 -3 20 -29 33 -57 17 -38 20 -54 12 -59 -9 -6 -8 -8 1 -8 7 0 11 -4 7 -9 -3
-5 -1 -12 5 -16 5 -3 10 -18 10 -32 0 -23 -2 -24 -17 -12 -16 12 -17 12 -6 -2
7 -9 9 -20 5 -24 -4 -5 -1 -5 6 -1 7 4 12 1 12 -9 0 -9 -5 -13 -11 -9 -7 4
-10 1 -7 -7 3 -8 -2 -19 -11 -26 -15 -11 -15 -12 0 -13 12 0 15 -7 11 -25 -2
-14 -8 -25 -13 -25 -5 0 -9 -9 -9 -20 0 -11 5 -20 11 -20 5 0 8 -4 5 -9 -7
-10 -25 -9 -43 2 -9 6 -12 -8 -10 -53 2 -49 5 -60 20 -60 25 0 23 -55 -3 -77
-11 -10 -20 -21 -20 -26 0 -5 8 -1 17 9 24 24 30 -1 7 -27 -14 -16 -15 -22 -5
-28 10 -6 9 -10 -3 -14 -9 -4 -16 -14 -16 -23 0 -10 -3 -14 -7 -11 -3 4 -13 1
-21 -6 -13 -10 -15 -9 -10 11 4 14 2 22 -7 22 -9 0 -12 -15 -11 -50 1 -44 0
-48 -11 -34 -7 10 -13 13 -13 7 0 -7 6 -18 12 -25 23 -24 20 -137 -2 -123 -6
3 -11 1 -11 -4 -5 -39 -31 -81 -51 -81 -16 0 -16 -3 -6 -20 10 -15 10 -22 0
-32 -14 -14 -16 -32 -3 -24 5 4 7 -3 4 -14 -3 -11 -10 -17 -15 -14 -6 4 -5 -2
1 -14 6 -11 11 -32 11 -46 0 -14 5 -28 10 -31 6 -3 10 3 10 14 0 12 4 21 9 21
5 0 12 7 15 16 3 8 2 12 -4 9 -6 -3 -10 -4 -10 -2 0 9 29 72 30 64 0 -11 51
42 66 68 6 11 21 21 33 23 22 3 22 4 4 17 -17 14 -17 14 5 15 21 0 30 -19 15
-34 -4 -4 -8 -15 -8 -24 0 -9 -6 -16 -13 -14 -8 1 -11 -2 -7 -8 3 -6 11 -7 17
-4 16 10 2 -93 -17 -122 -8 -13 -15 -32 -15 -43 0 -11 -4 -23 -10 -26 -6 -3
-10 -28 -10 -55 0 -27 -4 -52 -10 -55 -5 -3 -9 -21 -9 -38 l2 -32 8 35 c5 24
6 10 4 -45 -2 -44 -4 -100 -5 -125 0 -30 -3 -40 -9 -31 -6 10 -9 4 -10 -20 0
-45 -8 -80 -21 -93 -5 -5 -10 -27 -10 -48 0 -21 -5 -38 -11 -38 -5 0 -8 4 -4
9 3 5 1 13 -5 16 -6 4 -10 3 -9 -2 4 -23 -3 -51 -16 -69 -13 -18 -14 -18 -8 4
4 16 2 21 -8 17 -9 -3 -15 -23 -16 -53 -3 -55 -22 -134 -32 -127 -4 2 -6 -10
-4 -28 4 -31 4 -31 -10 -9 -12 21 -15 22 -27 7 -11 -13 -10 -15 4 -9 9 3 16 2
16 -4 0 -5 -7 -13 -16 -16 -9 -4 -14 -9 -11 -13 4 -3 1 -15 -5 -27 -7 -11 -11
-24 -10 -28 1 -5 -5 -8 -14 -8 -15 0 -15 -2 0 -25 12 -18 13 -25 4 -25 -9 0
-10 -3 -2 -8 14 -9 45 -102 39 -113 -3 -4 -1 -10 5 -14 5 -3 10 -14 10 -23 0
-15 -2 -15 -10 -2 -6 9 -10 11 -10 3 0 -7 -7 -10 -16 -6 -10 4 -14 13 -10 27
5 20 4 20 -14 -2 -12 -15 -20 -18 -23 -10 -3 7 -3 -3 0 -23 7 -47 -10 -79 -39
-74 -16 4 -19 2 -10 -7 7 -7 12 -17 12 -22 0 -6 -5 -4 -10 4 -8 13 -11 13 -22
1 -10 -10 -10 -12 0 -7 13 8 15 -1 12 -49 -1 -16 -7 -33 -14 -37 -8 -5 -7 -8
3 -8 10 0 12 -9 8 -35 -4 -27 -2 -35 10 -35 8 0 17 8 20 19 3 13 11 17 24 14
24 -7 25 -20 2 -26 -16 -4 -16 -5 -1 -6 15 -1 42 -56 34 -70 -3 -3 13 -6 34
-5 47 1 70 -28 50 -67 -10 -22 -10 -22 3 -6 14 17 16 16 27 -18 7 -20 10 -51
7 -68 -3 -18 -3 -26 0 -18 10 25 40 -62 36 -107 -2 -28 0 -41 7 -37 5 3 10 -1
10 -10 0 -9 -4 -13 -10 -10 -5 3 -7 0 -4 -9 3 -8 12 -17 20 -20 9 -3 13 -10
10 -15 -8 -13 22 -7 35 6 6 6 18 9 25 6 9 -3 14 2 13 13 0 11 -3 14 -5 7 -3
-7 -12 -9 -20 -6 -7 3 -11 9 -8 14 3 5 1 9 -4 9 -5 0 -9 14 -10 30 0 19 3 28
10 24 5 -4 2 6 -8 22 -10 16 -14 26 -9 22 13 -12 35 11 28 29 -4 11 -2 14 5 9
7 -4 12 -2 12 4 0 8 6 8 20 0 11 -6 20 -19 20 -29 0 -10 3 -21 8 -25 4 -4 7
-11 7 -14 1 -4 6 -17 13 -28 6 -12 8 -24 5 -28 -3 -3 -2 -6 4 -6 5 0 15 -12
21 -26 7 -14 8 -23 3 -20 -5 3 -7 -3 -4 -14 3 -11 9 -20 14 -20 16 0 62 -70
62 -95 0 -14 3 -23 7 -20 12 7 35 -26 63 -93 27 -63 36 -101 17 -72 -13 19
-13 8 0 -25 5 -14 14 -24 19 -21 11 7 41 -77 41 -115 0 -15 -6 -30 -12 -32 -7
-3 -4 -6 7 -6 13 -1 26 -15 37 -39 28 -61 57 -150 51 -156 -4 -3 -1 -6 7 -6 9
0 11 -9 6 -32 -3 -20 -3 -28 3 -20 7 11 9 11 14 -2 4 -9 2 -16 -3 -16 -6 0
-10 -5 -10 -11 0 -5 5 -7 12 -3 8 5 9 -2 5 -25 -4 -18 -3 -30 1 -28 4 3 8 -18
9 -46 1 -28 7 -55 13 -61 5 -5 10 -15 10 -20 0 -6 -4 -5 -9 3 -6 10 -10 10
-16 1 -4 -7 1 -13 14 -17 12 -3 20 -10 19 -17 -1 -6 3 -27 10 -47 9 -26 10
-60 4 -120 -10 -94 -10 -264 -1 -274 8 -7 21 57 16 76 -2 8 -2 11 0 7 5 -9 27
11 36 32 3 9 6 6 6 -10 1 -26 21 -66 21 -42 0 6 -1 13 -2 15 -2 2 5 14 14 29
12 18 14 28 6 36 -16 16 -12 148 5 172 8 11 17 17 20 13 4 -3 7 -3 7 1 0 3 -9
10 -19 14 -19 7 -18 8 5 19 16 7 22 7 17 0 -4 -6 2 -8 15 -5 24 7 28 -1 12
-20 -6 -6 -7 -10 -3 -7 9 7 35 -33 28 -45 -3 -6 -1 -10 5 -10 7 0 10 -15 8
-37 -2 -28 -7 -38 -20 -37 -9 1 -19 -4 -22 -12 -3 -8 0 -11 8 -8 10 4 12 -2 8
-21 -3 -18 -9 -24 -19 -20 -12 4 -14 0 -10 -15 3 -13 0 -20 -10 -20 -9 0 -13
-6 -9 -15 3 -8 1 -15 -4 -15 -6 0 -10 -5 -10 -11 0 -8 6 -7 16 2 9 7 29 14 44
14 26 1 27 -1 17 -20 -6 -11 -11 -23 -12 -27 0 -4 -5 -12 -11 -18 -15 -15 -6
-52 10 -43 6 4 5 -1 -3 -10 -7 -9 -10 -17 -5 -17 11 0 10 -51 0 -68 -4 -7 -12
-9 -18 -6 -6 4 -8 3 -5 -2 3 -6 2 -16 -2 -23 -6 -9 -12 -4 -22 18 -15 33 -24
39 -32 19 -4 -10 -6 -10 -6 0 -2 29 -21 9 -21 -23 0 -19 -4 -35 -10 -35 -5 0
-10 -11 -10 -24 0 -14 -4 -27 -9 -30 -5 -3 -7 -16 -3 -28 4 -15 2 -19 -7 -13
-10 6 -11 3 -2 -13 6 -12 11 -25 10 -29 -5 -31 2 -55 16 -49 8 3 15 1 15 -5 0
-6 9 -8 20 -4 25 8 25 6 -5 -35 -14 -19 -25 -30 -25 -24 0 5 -9 15 -20 21 -16
11 -18 10 -14 -2 11 -26 -5 -65 -26 -65 -21 0 -36 17 -25 28 4 4 10 1 12 -5 3
-7 10 -13 15 -13 6 0 8 3 5 6 -3 4 -2 15 3 24 7 13 5 20 -6 24 -9 3 -14 12
-11 19 3 6 8 20 12 30 12 29 -20 20 -34 -10 -8 -18 -9 -29 -1 -37 14 -14 13
-29 -2 -23 -7 2 -18 -5 -25 -17 l-12 -21 -1 23 c0 12 -4 22 -10 22 -5 0 -7 7
-4 15 4 8 1 15 -5 15 -6 0 -11 10 -11 23 0 39 -11 63 -33 76 -12 8 -19 10 -15
6 4 -5 0 -13 -9 -20 -9 -7 -17 -27 -17 -49 -1 -20 -4 -36 -8 -36 -5 0 -8 -7
-8 -16 0 -9 -5 -12 -12 -8 -10 6 -9 3 0 -8 11 -14 10 -20 -5 -36 -20 -20 -25
-35 -28 -71 -1 -14 -10 -27 -22 -32 -12 -4 -24 -12 -27 -18 -4 -6 -1 -9 7 -5
8 3 18 0 23 -7 4 -8 3 -10 -4 -5 -13 8 -14 7 -16 -51 -1 -24 2 -43 6 -43 4 0
5 -7 2 -15 -4 -10 -13 -13 -25 -10 -12 4 -21 1 -25 -10 -4 -9 -13 -14 -20 -11
-7 3 -12 0 -10 -7 1 -7 -2 -2 -8 11 -5 12 -16 22 -24 22 -7 0 -10 -5 -6 -11 4
-8 1 -8 -13 -1 -14 8 -20 8 -21 -1 -13 -85 -13 -97 -1 -97 11 0 11 -2 -1 -10
-8 -5 -15 -17 -15 -27 0 -13 -7 -17 -22 -16 -15 2 -23 -3 -23 -12 0 -8 -4 -16
-10 -16 -5 -1 -15 -2 -20 -3 -6 0 -15 -8 -21 -16 -9 -13 -10 -13 -7 0 3 8 -1
25 -8 38 -7 14 -11 33 -9 43 5 24 -33 17 -52 -11 -8 -11 -19 -18 -24 -15 -15
10 -10 -7 7 -26 9 -10 22 -15 30 -12 17 6 19 -13 2 -21 -8 -3 -8 -5 2 -3 19 2
22 -6 14 -37 -4 -18 -11 -22 -30 -18 -13 2 -31 -1 -39 -8 -11 -9 -15 -9 -15
-1 0 9 -5 9 -20 1 -11 -6 -18 -15 -15 -19 6 -11 -20 -33 -28 -24 -4 3 -7 -1
-7 -10 0 -9 -8 -17 -17 -18 -10 0 -13 -3 -7 -5 13 -6 -4 -104 -18 -104 -5 0
-6 5 -2 12 4 6 3 8 -4 4 -7 -4 -6 -16 5 -39 9 -17 19 -38 23 -46 11 -25 29
-24 24 1 -5 20 -3 19 11 -5 14 -24 14 -31 3 -44 -11 -14 -10 -15 10 -9 27 9
52 -8 52 -35 0 -11 5 -19 10 -19 6 0 10 -4 10 -10 0 -5 -7 -10 -16 -10 -12 0
-14 -4 -7 -12 15 -18 15 -171 1 -179 -16 -10 -16 -53 -1 -68 7 -6 13 -8 14 -4
0 4 4 -1 8 -12 9 -21 3 -57 -8 -51 -7 5 -4 -81 4 -101 2 -7 -1 -13 -7 -13 -6
0 -1 -11 12 -25 19 -20 21 -27 10 -40 -11 -13 -10 -14 5 -9 12 5 16 4 12 -3
-4 -6 -3 -23 2 -37 8 -19 7 -24 -3 -20 -14 6 -15 2 -20 -83 -1 -34 1 -68 5
-75 7 -10 9 -10 9 1 0 10 3 12 10 5 7 -7 7 -21 -1 -43 -6 -17 -8 -35 -5 -39 4
-3 9 4 13 16 6 24 24 25 31 2 3 -7 0 -10 -6 -6 -7 4 -9 -3 -6 -20 3 -14 1 -23
-4 -20 -4 2 -14 0 -22 -5 -13 -8 -13 -10 0 -20 11 -8 12 -12 3 -16 -7 -2 -13
-9 -13 -14 0 -6 5 -7 10 -4 6 3 10 -5 10 -19 0 -14 -4 -27 -8 -30 -5 -3 -5
-31 -1 -63 12 -97 11 -113 -8 -113 -11 0 -14 -3 -7 -8 20 -13 22 -37 5 -56 -9
-11 -11 -16 -4 -13 13 8 28 -46 18 -63 -4 -7 2 -6 14 2 26 16 40 76 20 89 -8
5 -9 9 -4 9 6 0 11 17 11 38 1 20 4 48 7 62 4 14 10 41 13 60 4 19 10 40 14
45 4 6 6 30 5 55 -4 61 -4 62 -14 56 -5 -4 -7 3 -4 14 3 11 0 20 -6 20 -6 0
-11 -10 -12 -22 0 -22 -1 -22 -8 -3 -5 11 -6 25 -2 30 9 15 8 54 -1 49 -4 -3
-8 2 -8 10 0 9 4 16 8 16 4 0 8 17 8 37 0 20 5 38 12 41 7 2 10 8 6 13 -3 5 0
9 6 9 6 0 8 5 4 12 -4 7 -3 8 5 4 6 -4 9 -11 6 -16 -3 -5 3 -11 14 -15 24 -7
32 -37 20 -78 -12 -42 -12 -67 0 -49 6 10 10 8 14 -10 4 -12 2 -24 -3 -26 -6
-2 -10 -8 -10 -13 0 -6 4 -8 9 -5 12 8 28 -14 36 -49 4 -17 14 -50 22 -74 11
-36 11 -46 1 -52 -9 -6 -9 -9 -1 -9 13 0 22 -32 27 -100 2 -25 5 -49 6 -55 2
-5 0 -18 -4 -28 -11 -23 0 -50 16 -41 10 6 10 4 0 -8 -10 -13 -10 -17 0 -21
10 -4 10 -8 -2 -16 -13 -9 -13 -11 3 -11 17 0 21 -9 17 -44 -1 -10 7 -28 18
-40 24 -27 34 -54 22 -61 -6 -4 -10 0 -11 7 0 7 -4 2 -10 -10 -5 -13 -6 -28
-3 -34 9 -13 11 -208 3 -208 -6 0 -8 -14 -8 -83 0 -16 -4 -26 -8 -24 -5 2 -17
-4 -28 -15 -14 -14 -16 -19 -5 -16 8 2 18 8 22 13 12 16 9 -16 -6 -66 -8 -25
-11 -58 -9 -74 3 -15 2 -25 -3 -22 -5 3 -10 -36 -11 -86 -3 -133 -12 -189 -30
-183 -8 3 -11 2 -8 -3 3 -5 -2 -11 -12 -13 -15 -3 -15 -4 1 -21 14 -14 16 -20
6 -32 -7 -8 -16 -12 -22 -9 -5 3 -6 -5 -2 -20 3 -14 2 -26 -3 -26 -4 0 -9 -47
-9 -105 -1 -81 2 -105 12 -105 8 0 16 12 20 27 3 16 8 35 11 43 3 8 7 31 8 49
1 19 6 36 12 38 17 6 7 125 -12 135 -25 14 -7 29 33 26 20 -1 44 0 52 3 8 2
14 -2 13 -8 -7 -35 -8 -231 -1 -221 7 12 12 -18 11 -74 0 -17 26 -18 399 -18
219 0 397 3 396 8 -5 13 64 82 75 75 6 -3 7 -2 4 4 -8 13 22 55 34 48 5 -3 6
0 3 8 -3 8 1 19 8 25 12 10 18 12 36 12 4 0 1 4 -6 9 -11 6 -9 15 7 42 12 19
27 48 35 64 18 39 56 74 57 54 1 -8 5 -3 9 11 l8 25 1 -27 c1 -21 -4 -28 -18
-28 -10 0 -22 -7 -25 -16 -17 -45 48 -25 70 21 9 20 19 34 21 31 8 -8 -7 -43
-30 -69 -54 -62 -65 -77 -71 -101 -3 -14 -15 -30 -26 -36 -11 -6 -20 -18 -20
-26 0 -9 -5 -12 -12 -8 -6 4 -8 3 -4 -4 3 -6 -4 -18 -16 -27 -22 -15 -21 -16
36 -13 42 2 61 7 63 18 4 12 3 12 -5 1 -8 -11 -11 -11 -16 0 -5 11 -7 11 -12
2 -8 -18 -25 -16 -18 2 4 8 14 15 25 15 10 0 23 9 29 19 5 11 26 25 45 31 19
6 33 16 30 21 -6 9 8 13 33 10 7 -1 12 2 11 6 -3 20 2 33 13 33 24 0 181 187
212 253 5 9 7 9 12 0 4 -9 11 -10 25 -3 22 12 25 30 5 30 -8 0 -17 7 -20 16
-8 21 -8 24 5 24 5 0 7 -6 3 -12 -5 -8 0 -7 11 2 10 8 20 14 22 13 11 -9 24 1
38 27 9 17 20 28 24 26 4 -3 13 6 19 19 7 14 16 25 22 25 5 0 9 3 8 8 -1 4 3
17 10 29 16 28 7 29 -36 3 -44 -27 -46 -26 -18 18 13 20 29 36 35 34 6 -1 10
1 10 5 -3 21 3 24 18 12 11 -10 14 -10 9 -1 -4 7 -2 12 4 12 6 0 8 5 5 10 -3
6 -2 10 4 10 10 0 91 123 91 140 0 5 4 10 10 10 5 0 19 20 30 44 12 23 32 49
45 56 13 7 22 17 19 21 -3 5 3 6 12 2 14 -5 16 -3 11 11 -4 10 -1 24 7 31 11
11 15 12 19 2 5 -16 -27 -73 -41 -70 -5 1 -8 -6 -5 -16 3 -11 -4 -26 -19 -37
-32 -26 -60 -71 -69 -113 l-8 -36 40 45 c21 25 39 41 39 35 0 -5 10 7 23 28
13 21 27 34 32 30 4 -4 5 -3 1 4 -3 6 -2 14 3 17 5 4 30 38 56 76 27 43 50 68
57 64 6 -4 8 -3 5 4 -10 15 3 43 16 35 6 -3 7 -1 3 5 -7 12 43 112 57 112 4 0
7 9 7 20 0 11 7 23 16 27 10 4 12 8 5 13 -8 4 -3 16 14 34 14 15 25 31 25 37
0 5 4 9 8 9 4 0 6 16 4 35 -2 20 1 40 9 49 31 35 37 44 32 50 -4 3 -1 6 5 6 7
0 12 7 12 15 0 8 4 15 9 15 5 0 11 17 14 38 10 68 19 102 27 102 4 0 11 7 14
16 4 10 2 13 -6 8 -6 -4 -8 -3 -5 3 13 21 30 68 29 79 -1 6 13 45 32 86 20 42
37 96 39 124 2 27 9 59 16 72 6 12 9 22 6 22 -3 0 -1 9 5 20 6 11 15 18 20 15
6 -4 7 1 3 11 -4 12 -3 15 5 10 12 -7 16 10 12 48 -1 10 2 22 7 25 5 3 22 44
38 91 31 95 60 137 89 132 15 -3 16 -6 5 -13 -11 -7 -9 -10 8 -15 24 -7 42
-62 27 -85 -4 -7 -3 -10 3 -6 6 4 13 -3 16 -15 4 -12 2 -25 -3 -28 -12 -8 12
-34 35 -38 30 -6 44 -20 38 -41 -3 -10 1 -22 8 -26 8 -6 10 -4 5 6 -4 8 2 3
13 -10 12 -13 21 -33 21 -46 0 -12 7 -39 15 -58 9 -21 12 -48 9 -66 -4 -19 -2
-31 4 -31 6 0 9 -9 7 -21 -4 -18 -2 -19 11 -8 8 7 14 8 13 3 -1 -5 1 -22 6
-38 5 -20 4 -31 -6 -37 -8 -5 -9 -9 -3 -9 16 0 34 -45 24 -61 -6 -9 -2 -20 11
-32 18 -17 24 -31 19 -52 -1 -5 2 -7 6 -2 14 13 15 50 2 59 -9 5 -6 8 9 8 12
0 27 -8 33 -17 11 -17 11 -17 6 -1 -3 10 0 18 6 18 6 0 8 -11 5 -29 -4 -19 -1
-33 8 -41 12 -10 15 -10 15 1 0 11 2 11 9 -1 6 -8 7 -18 5 -22 -3 -4 -1 -8 5
-8 5 0 15 -16 21 -35 6 -19 16 -35 21 -35 5 0 9 -7 9 -15 0 -8 9 -19 20 -25
11 -6 18 -15 15 -21 -4 -5 -1 -9 6 -9 10 0 10 -3 1 -12 -9 -9 -15 -8 -27 8 -8
10 -15 24 -15 30 0 7 -7 15 -16 18 -8 3 -13 10 -9 15 3 6 -4 19 -17 30 -12 12
-19 24 -15 27 9 9 -21 36 -33 29 -5 -3 -10 1 -10 9 0 9 -5 16 -11 16 -5 0 -7
5 -4 10 3 6 1 10 -4 10 -14 0 -16 -16 -9 -52 2 -7 13 -21 26 -31 12 -10 22
-22 22 -27 0 -4 -10 -6 -22 -4 -15 3 -12 0 8 -9 18 -8 35 -21 39 -28 5 -7 4
-10 -1 -6 -5 3 -10 -3 -10 -13 0 -12 4 -16 11 -10 7 6 17 -2 28 -23 33 -63 58
-131 53 -144 -3 -7 -1 -13 4 -13 6 0 10 -5 10 -11 0 -5 -6 -7 -12 -4 -7 4 -3
-2 9 -12 12 -10 38 -50 57 -89 20 -39 47 -82 60 -95 20 -19 22 -27 13 -38 -10
-11 -9 -13 3 -9 8 3 20 -2 26 -10 6 -9 20 -16 31 -17 21 -1 21 -1 2 75 -2 8
-11 20 -19 27 -13 11 -13 14 0 23 9 6 10 10 3 10 -11 0 -25 28 -20 41 1 4 -6
16 -16 26 -9 11 -14 23 -10 26 3 4 1 7 -5 7 -7 0 -12 7 -12 16 0 8 -14 29 -31
46 -16 17 -28 37 -25 44 3 7 0 14 -6 16 -12 4 -41 68 -30 68 12 -1 52 -71 46
-81 -3 -5 -1 -9 4 -9 11 0 93 -134 96 -156 1 -7 10 -22 20 -33 10 -11 15 -25
10 -32 -4 -7 -3 -10 4 -5 6 3 16 -2 21 -13 16 -28 13 -44 -5 -37 -9 3 -12 2
-9 -5 4 -6 13 -8 21 -5 19 7 42 -41 46 -97 2 -25 6 -43 11 -40 4 2 7 0 7 -5 0
-4 9 -18 20 -30 18 -19 18 -52 0 -52 -4 0 -2 -16 4 -35 12 -37 25 -46 27 -17
2 22 1 24 -5 42 -3 8 -2 21 3 29 7 10 16 6 43 -20 37 -36 55 -69 37 -69 -6 0
3 -11 18 -25 15 -13 25 -25 21 -25 -4 0 -14 7 -23 16 -9 9 -18 14 -21 11 -3
-2 2 -12 11 -21 9 -9 12 -16 8 -16 -11 0 -59 62 -55 72 1 5 -4 8 -12 8 -23 0
-14 -40 10 -46 15 -4 20 -12 18 -30 -1 -15 3 -24 11 -24 8 0 23 -12 34 -26 16
-21 19 -30 10 -41 -9 -10 -9 -12 3 -8 9 4 29 -9 51 -35 36 -39 50 -69 25 -53
-32 19 -49 9 -25 -16 10 -11 8 -12 -9 -3 -12 6 -24 8 -28 5 -3 -3 -6 4 -6 16
0 15 4 20 13 16 6 -4 -10 13 -38 39 -27 25 -53 46 -57 46 -9 0 21 -103 34
-115 8 -7 8 -5 3 5 -5 8 10 -5 33 -30 23 -25 41 -49 42 -54 0 -4 -9 2 -21 15
l-20 24 11 -23 c6 -13 19 -26 28 -29 9 -4 23 -14 30 -22 10 -14 11 -13 6 4 -6
20 -6 20 10 0 9 -11 14 -25 12 -32 -3 -7 0 -12 7 -10 7 1 11 -4 9 -11 -1 -8 2
-11 7 -8 5 3 16 -4 24 -17 8 -12 29 -38 46 -57 17 -19 31 -41 31 -48 0 -7 5
-10 10 -7 6 3 23 -8 38 -27 15 -18 35 -40 45 -50 9 -10 17 -22 17 -28 0 -9 24
-14 33 -7 2 1 11 -4 21 -12 15 -12 16 -12 9 5 -3 10 -11 22 -17 26 -6 4 0 6
13 5 30 -2 67 -56 48 -70 -8 -6 -7 -7 4 -4 17 6 39 -10 39 -27 0 -6 -5 -4 -10
4 -5 8 -10 11 -10 5 0 -14 20 -43 20 -30 1 15 30 -27 30 -43 0 -7 -6 -10 -12
-7 -7 4 -1 -3 15 -15 38 -30 53 -60 36 -71 -9 -5 8 -9 44 -9 l58 0 -23 25
c-28 29 -37 40 -68 84 l-24 34 30 -7 c59 -15 95 -56 62 -69 -7 -3 -1 -5 13 -4
23 1 89 -36 89 -50 0 -3 -7 1 -17 8 -12 10 -17 11 -20 2 -2 -7 -11 -9 -20 -6
-10 4 -14 2 -10 -4 4 -7 55 -11 129 -12 115 -2 122 -1 100 14 -12 9 -20 21
-16 26 3 5 0 8 -8 7 -7 -2 -12 5 -12 14 1 10 -2 16 -6 13 -4 -2 -12 6 -18 19
-9 21 -8 23 11 19 18 -4 19 -3 7 6 -13 9 -11 14 13 36 28 27 67 41 67 24 0 -5
-10 -10 -22 -10 -20 -1 -21 -2 -4 -6 11 -3 25 2 31 10 9 12 11 7 9 -26 -3 -67
-4 -68 -14 -62 -5 3 -10 1 -10 -5 0 -6 11 -15 24 -20 38 -14 68 -43 54 -51 -7
-5 122 -8 287 -9 220 0 297 2 288 11 -8 8 -7 25 2 65 7 30 9 57 4 60 -14 8
-10 26 4 18 6 -4 5 1 -4 10 -12 13 -15 26 -9 52 5 19 4 32 -1 28 -5 -3 -9 -1
-9 5 0 5 5 13 10 16 8 5 8 11 0 20 -6 8 -12 29 -12 47 -1 18 -5 36 -10 39 -5
3 -10 30 -11 60 -2 48 0 54 17 51 18 -3 18 -3 2 14 -10 9 -15 25 -13 35 3 11
1 22 -4 25 -5 3 -8 0 -7 -7 2 -6 -3 -14 -9 -16 -16 -6 -17 47 -2 101 9 33 13
37 21 23 5 -9 14 -17 20 -17 7 0 7 5 -1 14 -9 11 -9 16 0 22 8 4 9 3 5 -4 -4
-7 -2 -12 3 -12 17 0 13 18 -6 29 -16 8 -14 10 9 16 15 4 27 10 26 14 -4 38 4
131 12 126 6 -3 10 1 10 9 0 9 -5 15 -11 14 -6 -2 -14 3 -16 10 -3 6 1 12 7
12 8 0 9 4 3 13 -5 6 -6 26 -2 42 5 24 7 25 8 8 0 -13 6 -23 12 -23 5 0 9 10
7 23 -2 12 2 21 8 20 6 -1 11 4 11 12 0 7 -6 11 -14 8 -15 -6 -18 23 -3 32 6
4 8 10 5 14 -6 11 13 180 23 195 4 6 7 22 8 36 2 44 17 125 24 135 4 6 8 30 9
54 1 24 6 52 11 62 6 10 10 37 10 62 0 51 8 63 26 39 12 -15 12 -15 7 6 -3 12
-9 22 -14 22 -20 0 24 189 52 218 22 24 26 44 35 172 10 150 11 155 25 196 7
22 12 49 11 61 -1 13 3 23 8 23 6 0 10 5 10 11 0 5 -4 7 -10 4 -6 -4 -10 10
-10 34 0 34 3 41 20 41 31 0 41 -30 25 -76 -10 -30 -10 -42 -2 -53 9 -11 9
-15 -1 -18 -6 -3 -10 -9 -7 -13 3 -5 1 -27 -4 -49 -7 -31 -6 -41 6 -45 8 -3
11 -1 8 4 -3 6 -1 10 4 10 6 0 11 5 11 11 0 5 -4 8 -8 5 -5 -3 -9 1 -9 8 0 8
9 11 23 8 19 -3 23 2 29 40 6 34 9 39 15 23 4 -11 5 -27 3 -35 -3 -9 -2 -11 4
-5 16 20 36 17 30 -5 -3 -11 -1 -20 5 -20 5 0 12 9 15 20 3 11 9 17 14 14 5
-3 9 0 9 5 0 6 -4 11 -10 11 -5 0 -7 7 -4 15 4 8 10 12 15 9 5 -3 9 2 9 11 0
25 22 42 47 37 17 -3 23 0 23 14 0 14 -2 16 -9 6 -7 -11 -9 -10 -14 3 -4 9 -3
13 2 10 5 -3 12 -1 15 4 4 5 1 13 -6 17 -8 5 -6 10 8 15 17 7 17 8 2 8 -10 1
-18 6 -18 12 0 5 6 7 13 3 7 -5 6 -1 -3 10 -8 10 -13 32 -12 48 1 17 -2 35 -7
42 -7 8 -21 84 -23 126 -2 39 5 73 20 88 22 23 28 66 8 59 -8 -3 -17 -1 -19 6
-7 18 -15 5 -22 -33 -7 -39 -8 -41 -27 -44 -7 -1 -19 -5 -25 -9 -8 -5 -13 -3
-13 4 0 7 -3 9 -7 6 -3 -4 -17 0 -29 8 -14 9 -24 11 -26 4 -2 -5 -19 17 -38
50 -19 34 -39 61 -45 61 -5 0 1 8 15 18 26 18 38 54 14 45 -9 -3 -11 2 -7 18
5 16 3 20 -6 14 -10 -5 -11 -2 -6 14 4 12 2 21 -4 21 -6 0 -11 6 -11 14 0 8
-9 18 -21 21 -11 4 -18 9 -15 12 6 6 -31 78 -61 119 -13 17 -21 33 -18 36 3 3
-6 17 -19 31 -14 15 -26 37 -28 49 -2 13 -9 22 -16 21 -6 -2 -12 4 -12 13 0
10 -6 14 -15 10 -8 -3 -14 -2 -14 2 3 19 -2 25 -11 12 -6 -10 -10 -11 -10 -2
0 16 -37 16 -43 0 -3 -7 -5 -4 -4 7 1 38 -13 74 -33 80 -10 3 -22 15 -25 26
-8 24 -20 24 -38 -1 -15 -22 -29 -17 -20 8 5 11 2 14 -9 10 -11 -5 -18 4 -26
30 -6 19 -8 40 -5 45 3 6 1 7 -5 3 -6 -3 -13 -2 -17 4 -4 6 -11 8 -16 5 -8 -5
-13 9 -6 18 1 2 -6 11 -15 21 -10 10 -18 23 -18 31 0 7 -6 16 -12 18 -8 3 -5
6 5 6 10 1 15 6 12 11 -4 6 -12 7 -18 4 -9 -5 -9 -4 0 6 8 9 8 20 -3 46 -8 19
-12 38 -10 43 3 4 -4 20 -15 37 -10 16 -19 46 -19 67 0 34 2 37 19 27 26 -13
27 -13 27 9 0 11 -3 18 -7 15 -4 -2 -10 2 -12 8 -4 10 -8 10 -15 -1 -8 -11
-10 -7 -10 15 0 70 10 124 21 117 7 -3 9 -3 5 1 -4 5 -2 20 3 35 9 24 8 25 -6
7 -14 -19 -15 -18 -15 11 0 46 11 93 21 87 5 -3 9 13 9 35 0 23 4 41 10 41 5
0 6 7 3 17 -4 11 -3 14 5 9 7 -4 12 -1 12 9 0 9 -5 13 -11 9 -8 -4 -9 1 -4 16
12 38 14 110 2 103 -5 -3 -7 -2 -4 3 3 6 8 30 11 54 2 24 11 49 19 55 8 6 17
24 19 40 3 26 -1 30 -27 35 -20 4 -26 8 -17 13 6 5 18 5 25 1 7 -5 7 -1 -2 10
-12 14 -12 19 -2 25 7 5 12 11 12 15 -3 20 0 38 5 33 12 -11 54 42 54 68 0 15
5 36 12 48 7 12 11 32 9 45 -1 12 2 22 8 22 6 0 10 3 10 8 -3 19 2 25 11 12 9
-13 11 -13 20 0 5 8 8 20 5 27 -2 6 0 26 5 45 4 18 11 46 14 61 5 20 11 27 22
23 11 -4 12 -2 5 13 -8 14 -4 25 21 52 17 19 28 26 25 17 -7 -19 14 -30 34
-17 10 6 10 9 2 9 -19 0 -16 57 4 68 10 6 14 16 10 26 -5 11 -3 15 5 10 7 -5
8 -3 3 7 -20 31 3 148 26 134 8 -5 13 14 12 51 0 6 10 9 23 6 14 -2 21 -9 17
-16 -3 -6 -2 -7 3 -3 5 5 10 13 10 18 1 5 2 13 3 19 0 5 7 9 14 7 7 -1 12 9
12 25 1 30 20 56 32 44 4 -4 2 -15 -4 -25 -10 -16 -9 -20 8 -24 17 -5 19 0 19
42 0 26 -5 52 -11 58 -7 7 -6 14 3 24 7 8 13 33 14 55 0 23 5 50 9 60 11 25
14 38 21 107 6 51 8 55 20 40 12 -16 12 -15 6 11 -5 16 -14 32 -21 34 -8 3
-11 0 -7 -6 3 -5 -1 -12 -9 -16 -12 -4 -11 3 5 35 12 22 25 37 30 34 6 -4 10
1 10 9 0 8 4 17 9 20 5 4 7 -4 3 -16 -5 -21 -4 -22 13 -8 10 8 16 10 12 3 -4
-6 -2 -15 5 -19 7 -4 10 -4 6 1 -4 4 -3 14 3 22 9 9 8 13 0 13 -6 0 -11 7 -11
15 0 27 37 17 46 -12 4 -16 6 -32 5 -36 -1 -5 3 -6 8 -3 13 8 23 -10 38 -64
15 -55 16 -70 3 -50 -8 13 -10 12 -10 -2 0 -10 4 -18 9 -18 11 0 25 -66 22
-99 -2 -15 2 -22 10 -19 7 2 13 25 15 54 3 64 19 104 41 104 13 0 14 3 5 8 -9
6 -6 14 10 32 20 22 23 34 20 104 -1 44 -8 86 -15 94 -6 9 -7 13 -2 10 7 -4 9
6 6 30 l-5 37 -6 -30 c-4 -23 -8 -27 -15 -15 -5 8 -10 28 -12 44 -2 16 -10 39
-17 51 -12 19 -12 23 2 33 10 6 13 11 7 11 -30 -3 -33 2 -15 38 16 33 16 40 3
59 -8 12 -25 25 -39 28 -13 4 -24 11 -24 17 0 6 5 7 10 4 6 -3 10 -1 10 4 0 6
-6 11 -12 11 -10 0 -10 2 -1 8 8 5 9 13 3 22 -6 8 -10 26 -10 40 0 20 -2 22
-10 10 -5 -8 -10 -10 -11 -5 0 6 -2 21 -3 33 -2 13 3 26 10 29 10 4 9 13 -6
41 -10 21 -21 57 -25 82 -4 25 -12 50 -17 57 -5 6 -10 27 -11 46 -1 19 -5 33
-8 31 -4 -2 -9 7 -11 21 -3 14 0 25 6 26 6 0 1 5 -11 11 -17 8 -23 20 -24 47
-1 20 -2 69 -3 109 -2 55 1 72 12 72 7 0 11 4 7 9 -3 6 3 14 12 20 10 6 13 11
8 11 -12 0 -37 54 -41 87 -1 13 1 21 6 18 5 -3 10 0 12 7 3 7 7 5 11 -6 5 -12
3 -15 -6 -10 -8 5 -7 2 2 -9 13 -16 47 -25 37 -9 -2 4 2 23 10 42 12 27 17 31
24 20 5 -8 12 -12 15 -9 9 9 -6 40 -16 33 -15 -9 -10 13 6 26 13 11 14 10 9
-4 -3 -9 -2 -16 4 -16 5 0 9 -10 8 -22 -1 -16 -7 -23 -20 -21 -16 1 -16 -1 3
-18 18 -17 54 -29 38 -13 -9 10 12 44 27 44 11 0 13 27 9 142 -2 78 -8 149
-13 158 -4 8 -6 37 -3 64 4 35 3 47 -6 42 -8 -5 -11 9 -11 49 0 31 -7 69 -16
86 -8 17 -13 37 -10 45 3 8 0 14 -6 14 -7 0 -3 6 7 14 11 8 23 13 26 10 3 -2
12 8 19 22 9 16 19 23 29 19 10 -3 9 0 -3 10 -11 8 -14 15 -8 15 17 0 -12 56
-34 64 -18 7 -34 0 -34 -15 0 -6 6 -7 13 -3 8 6 8 3 -2 -9 -11 -14 -16 -15
-40 -3 -35 19 -56 88 -43 142 6 22 9 75 8 119 -1 44 2 94 6 110 5 17 11 51 13
77 3 26 14 75 25 109 19 55 20 65 7 90 -16 34 -6 151 15 177 11 13 11 14 -1 7
-11 -6 -13 -4 -8 9 4 10 7 24 7 32 0 10 5 12 13 8 9 -6 9 -5 0 7 -12 15 -7 89
6 87 3 0 12 0 20 1 12 1 12 3 -1 14 -19 14 -26 46 -15 65 5 7 3 12 -4 12 -7 0
-9 10 -7 24 4 20 0 26 -19 31 -20 5 -23 8 -13 20 7 8 17 12 23 8 6 -3 7 -1 3
5 -9 15 19 68 39 76 9 3 13 10 10 16 -3 5 -1 10 4 10 6 0 11 6 11 14 0 7 6 19
14 26 8 6 16 21 18 33 2 12 9 21 15 20 7 -2 10 3 7 10 -2 7 9 27 25 45 17 17
26 34 21 37 -6 4 1 21 15 40 33 43 85 144 85 165 0 27 -12 31 -32 13 -18 -16
-18 -16 -12 0 3 9 3 17 0 17 -3 0 -6 -5 -6 -11z m-830 -1907 c2 -2 0 -11 -6
-20 -5 -9 -7 -30 -3 -47 4 -16 8 -23 9 -15 2 17 35 -111 45 -173 4 -31 3 -38
-4 -27 -6 8 -11 10 -11 5 0 -6 4 -15 9 -20 21 -22 16 -85 -6 -85 -15 0 -14 -2
2 -14 11 -8 24 -12 29 -9 5 4 6 1 2 -5 -3 -5 0 -13 6 -15 8 -3 4 -6 -7 -7 -17
-2 -16 -3 4 -9 14 -4 26 -13 29 -21 3 -13 2 -13 -7 0 -9 12 -13 13 -20 2 -4
-8 -12 -14 -17 -15 -5 -1 -8 -8 -6 -14 2 -7 -2 -13 -7 -13 -5 0 -8 9 -6 20 2
11 0 20 -6 20 -12 0 -12 -67 1 -75 6 -4 5 -13 -3 -26 -10 -16 -9 -21 3 -29 11
-8 12 -12 3 -18 -12 -8 -21 -37 -22 -75 -1 -12 -6 -16 -13 -11 -10 6 -10 4 0
-7 6 -7 12 -17 12 -22 0 -4 -6 -5 -12 -1 -10 6 -10 4 -2 -7 12 -15 7 -92 -6
-84 -5 3 -6 -5 -2 -17 3 -14 2 -19 -6 -14 -15 9 -16 -6 -1 -21 7 -7 6 -15 -5
-26 -17 -17 -22 -32 -7 -22 6 3 8 -6 5 -22 -6 -33 -14 -43 -14 -18 0 23 -13
11 -15 -14 -1 -13 4 -18 16 -16 12 3 16 -1 12 -11 -3 -8 -11 -13 -18 -10 -8 3
-12 -5 -11 -25 0 -16 5 -29 9 -29 5 0 7 -7 3 -15 -9 -24 4 -17 14 8 8 19 9 16
8 -16 -1 -24 4 -43 15 -54 16 -16 17 -16 18 7 1 14 0 37 -1 51 -1 19 5 28 19
32 22 5 30 -8 9 -15 -6 -2 -12 -26 -13 -54 -2 -34 -12 -67 -35 -108 -18 -32
-27 -55 -20 -51 8 5 11 0 8 -16 -1 -13 -10 -24 -18 -24 -11 0 -15 -14 -17 -58
-2 -52 0 -57 14 -45 14 11 15 10 8 -12 -10 -34 -34 -60 -55 -60 -10 0 -23 -7
-30 -15 -7 -9 -14 -14 -16 -12 -2 2 -27 -18 -55 -44 -29 -27 -56 -46 -60 -43
-5 3 -6 -3 -2 -12 5 -13 3 -15 -7 -9 -8 5 -11 4 -6 -3 9 -15 -15 -64 -30 -58
-7 3 -15 -2 -18 -11 -5 -11 -2 -14 11 -9 13 5 15 4 7 -4 -10 -10 -27 -16 -55
-19 -4 -1 -9 -10 -12 -22 -4 -13 -10 -18 -18 -13 -7 4 -10 3 -6 -3 10 -15 -31
-63 -54 -63 -10 0 -28 -9 -39 -20 -12 -12 -25 -18 -30 -15 -5 3 -12 0 -16 -6
-5 -8 -3 -9 6 -4 9 6 11 4 6 -4 -5 -7 -15 -10 -23 -7 -8 3 -11 2 -8 -3 3 -5 1
-12 -4 -15 -5 -4 -11 2 -14 11 -3 14 -5 13 -11 -7 -4 -14 -19 -32 -35 -41 -15
-9 -38 -31 -51 -50 -13 -19 -20 -31 -15 -27 4 4 14 3 22 -3 10 -9 13 -7 14 7
1 11 1 24 -1 29 -1 6 4 4 11 -2 9 -9 16 -10 26 -1 7 6 17 8 20 4 10 -9 -19
-27 -33 -22 -7 3 -10 -3 -7 -14 5 -19 -17 -70 -40 -88 -12 -10 -16 -9 -22 5
-10 21 -12 29 -14 46 -1 7 -5 5 -12 -5 -6 -11 -19 -16 -37 -14 -15 2 -19 1 -9
-1 14 -4 16 -7 6 -19 -6 -8 -18 -14 -26 -14 -8 0 -20 -6 -26 -13 -19 -20 -47
-74 -46 -89 0 -7 4 -3 9 9 6 15 15 21 25 17 10 -4 15 -2 13 7 -2 7 5 15 15 17
12 2 17 -3 17 -17 0 -12 -5 -21 -11 -21 -6 0 -8 -8 -4 -19 6 -19 -21 -44 -42
-40 -19 3 -27 -2 -16 -9 10 -6 9 -13 -3 -30 -8 -12 -21 -22 -27 -22 -8 0 -8 3
-2 8 9 6 11 29 6 67 -1 6 -6 2 -12 -7 -5 -10 -15 -18 -22 -18 -7 0 -6 4 3 10
11 7 12 10 2 10 -8 0 -16 -9 -19 -20 -3 -11 -9 -17 -14 -14 -5 3 -8 2 -7 -3 3
-14 -13 -57 -31 -78 -15 -19 -15 -19 3 -5 18 14 19 13 13 -2 -7 -20 8 -25 17
-5 5 9 7 9 12 -1 3 -6 9 -10 14 -7 4 3 6 -4 3 -15 -3 -11 -9 -20 -14 -20 -5 0
-9 -9 -9 -20 0 -11 -7 -23 -15 -26 -8 -4 -12 -10 -9 -15 8 -14 -16 -50 -28
-43 -6 4 -8 3 -5 -3 7 -11 -59 -153 -72 -153 -4 0 -7 -10 -6 -22 3 -30 -5 -49
-16 -42 -5 3 -6 -1 -3 -9 3 -8 1 -18 -5 -22 -6 -3 -11 2 -11 12 -1 17 -1 17
-11 0 -5 -9 -7 -22 -3 -29 4 -7 3 -8 -4 -4 -11 7 -17 -6 -13 -28 3 -15 -22
-37 -35 -32 -19 7 -13 -17 6 -26 12 -5 12 -7 -2 -7 -20 -1 -25 -21 -5 -21 8 0
9 -3 1 -8 -13 -9 -34 -112 -22 -112 4 0 -8 -22 -27 -50 -19 -27 -34 -53 -33
-57 1 -5 -9 -32 -23 -62 -19 -38 -29 -50 -35 -40 -13 22 -16 80 -3 95 6 8 8
14 4 14 -5 0 0 10 11 22 10 12 13 18 7 14 -9 -5 -12 1 -11 18 1 15 6 26 10 26
4 0 7 3 7 8 -5 28 3 73 14 84 8 7 12 18 10 24 -2 6 0 21 5 34 6 17 3 28 -13
46 -12 13 -29 24 -36 24 -11 0 -11 -2 1 -10 12 -8 11 -10 -7 -10 -19 0 -23 -6
-24 -35 -2 -42 -3 -47 -10 -60 -3 -5 -7 -30 -8 -55 -1 -25 -6 -46 -10 -48 -4
-1 -6 -14 -3 -27 7 -38 -7 -97 -21 -89 -7 4 -3 -2 7 -14 11 -12 16 -25 13 -29
-4 -3 -7 -1 -7 5 0 7 -8 12 -17 12 -10 0 -14 -4 -8 -8 20 -15 35 -50 23 -54
-9 -3 -9 -6 -1 -11 6 -4 18 -1 26 7 9 10 18 11 28 4 11 -7 11 -11 2 -15 -7 -2
-13 -14 -13 -25 0 -20 0 -20 18 -1 9 10 14 14 11 8 -4 -5 -19 -45 -34 -87 -19
-55 -31 -75 -41 -71 -8 3 -12 9 -9 14 11 17 -18 47 -44 45 -14 -2 -26 -7 -27
-12 -1 -5 -5 -29 -10 -54 -4 -25 -7 -49 -6 -53 1 -5 -2 -6 -8 -2 -9 6 -11 -2
-15 -60 -1 -11 -5 -36 -8 -56 -5 -22 -3 -48 4 -65 17 -43 20 -83 8 -106 -9
-17 -8 -24 5 -33 9 -7 16 -17 16 -22 0 -5 9 -18 20 -28 11 -10 18 -20 15 -23
-3 -3 4 -11 15 -19 12 -8 17 -20 13 -31 -5 -14 -3 -15 8 -4 16 15 39 16 39 1
0 -13 40 -48 56 -49 15 0 36 -49 28 -62 -4 -6 -2 -8 3 -5 12 7 21 -10 33 -60
6 -25 5 -30 -6 -26 -9 3 -14 -1 -14 -12 0 -10 5 -14 13 -9 10 6 10 4 0 -7 -7
-7 -13 -27 -13 -44 0 -21 3 -26 9 -16 12 19 42 6 34 -15 -4 -10 0 -20 11 -26
9 -5 14 -13 11 -18 -3 -4 2 -11 11 -14 14 -5 15 -16 10 -66 -5 -43 -4 -60 5
-60 8 0 8 -4 -1 -15 -11 -13 -10 -14 2 -10 11 4 18 -2 22 -20 4 -14 4 -30 1
-35 -4 -6 -2 -10 3 -10 5 0 15 -21 23 -47 7 -27 21 -66 30 -88 13 -29 15 -43
7 -52 -8 -10 -7 -12 6 -7 12 4 16 0 16 -15 0 -12 4 -21 9 -21 4 0 6 -11 3 -25
-2 -14 0 -25 6 -25 22 0 42 13 42 26 0 8 8 15 18 15 15 1 15 2 1 6 -15 4 -35
79 -32 121 0 6 -3 12 -7 12 -4 0 -11 7 -14 16 -3 8 -2 13 3 10 4 -3 6 6 3 20
-3 15 -8 21 -11 15 -8 -13 -41 50 -41 79 0 10 -4 22 -10 25 -5 3 -10 23 -10
44 0 29 -5 40 -22 49 -13 6 -17 11 -10 11 7 1 10 6 7 11 -4 6 -12 7 -18 4 -7
-4 -4 1 5 12 17 17 17 19 -5 43 -12 13 -16 21 -9 17 8 -5 12 0 12 14 0 14 -4
19 -12 14 -9 -5 -9 -3 1 9 13 16 37 14 27 -2 -3 -4 1 -8 9 -8 8 0 15 4 15 9 0
4 -4 8 -9 8 -11 0 -11 49 -1 55 5 3 11 -9 15 -27 4 -18 15 -42 25 -53 9 -11
17 -30 15 -42 -1 -12 3 -19 10 -17 14 6 16 -26 2 -44 -7 -9 -6 -11 4 -7 8 3
23 -1 34 -9 12 -10 15 -15 7 -16 -7 0 -10 -5 -7 -11 4 -6 13 -8 19 -6 17 7 27
-1 54 -40 26 -37 29 -52 5 -31 -10 9 -28 21 -40 27 -19 10 -22 9 -17 -4 4 -8
14 -15 25 -15 25 0 42 -33 26 -50 -10 -12 -9 -12 5 -1 15 11 20 7 38 -30 12
-23 26 -47 31 -53 48 -57 93 -151 85 -173 -4 -10 -4 -14 0 -10 13 13 34 -15
34 -45 0 -16 4 -27 10 -23 5 3 12 -7 16 -22 4 -15 11 -31 16 -34 5 -3 10 -16
11 -27 1 -12 4 -22 8 -22 11 0 29 -51 22 -63 -4 -7 -8 -16 -9 -22 0 -5 -2 -16
-2 -24 -2 -10 -5 -11 -16 -2 -11 9 -13 7 -13 -13 0 -16 4 -23 13 -19 8 3 18
-5 24 -22 14 -37 13 -45 -6 -38 -14 5 -15 3 -6 -14 6 -10 9 -31 8 -45 -2 -20
1 -25 12 -21 10 4 13 1 10 -8 -3 -8 6 -22 18 -32 13 -10 21 -26 19 -36 -2 -10
3 -18 11 -18 8 0 13 6 10 14 -3 7 1 13 9 13 8 0 12 6 9 14 -3 7 2 16 11 20 14
5 15 14 10 49 -4 23 -14 53 -22 67 l-14 25 19 -22 c10 -12 27 -23 38 -25 10
-2 25 -9 32 -15 7 -7 19 -13 27 -13 10 0 11 -9 4 -37 -7 -33 -6 -40 14 -57 12
-10 21 -25 19 -33 -2 -10 1 -12 9 -7 8 5 10 3 4 -6 -6 -9 -2 -10 16 -5 29 9
25 5 33 32 4 12 2 24 -4 28 -5 3 -10 13 -10 21 0 11 6 14 23 9 20 -5 20 -5 -3
9 -18 11 -20 15 -8 16 9 0 23 -7 32 -15 13 -13 15 -13 20 3 3 9 4 3 2 -14 -1
-21 2 -30 10 -27 8 3 10 -6 8 -28 -4 -31 -3 -32 11 -13 14 18 15 18 9 0 -6
-15 -3 -17 13 -12 14 5 23 0 32 -18 8 -13 10 -30 6 -37 -5 -7 -4 -10 2 -6 6 4
14 0 17 -9 4 -10 1 -13 -7 -9 -6 3 -5 0 4 -6 14 -10 13 -14 -9 -36 -19 -19
-21 -27 -12 -38 7 -9 9 -23 4 -37 -4 -13 -7 -26 -6 -30 1 -5 -5 -8 -13 -8 -12
0 -15 -10 -13 -42 3 -36 7 -43 24 -42 17 1 23 -7 31 -42 7 -31 7 -42 -1 -41
-6 1 -11 -8 -10 -20 0 -18 -2 -20 -13 -11 -11 9 -12 7 -7 -7 5 -13 4 -16 -5
-11 -6 4 -11 4 -10 -1 3 -19 -2 -22 -26 -13 -24 9 -25 8 -25 -26 0 -31 2 -35
15 -24 8 7 12 16 9 21 -3 5 4 9 15 9 12 0 21 5 21 11 0 6 13 -3 28 -19 23 -24
28 -38 24 -64 -2 -18 -11 -39 -20 -46 -9 -7 -11 -12 -4 -12 7 0 12 -5 12 -11
0 -5 -3 -8 -7 -6 -5 3 -9 -6 -9 -19 -1 -13 -11 -42 -23 -64 -24 -47 -28 -67
-5 -30 l15 25 -5 -25 c-3 -14 -6 -33 -6 -42 0 -11 -8 -18 -20 -18 -11 0 -20 5
-20 11 0 6 7 9 15 5 8 -3 15 -3 15 0 0 2 -12 9 -26 14 -15 6 -24 16 -21 23 3
7 -4 23 -14 35 l-18 23 -5 -23 c-3 -13 -4 -34 -3 -48 1 -18 -2 -24 -13 -22 -8
2 -11 0 -7 -5 5 -4 13 -9 18 -9 5 -1 14 -2 19 -3 6 0 10 -17 10 -36 0 -19 5
-35 11 -35 7 0 9 -10 7 -25 -3 -14 -1 -25 6 -25 6 0 5 -4 -3 -9 -12 -8 -12
-12 -2 -25 11 -13 11 -16 0 -17 -10 0 -11 -2 -1 -6 6 -2 12 -9 12 -14 0 -6 -5
-7 -12 -3 -8 5 -9 2 -5 -9 3 -9 0 -28 -7 -43 -8 -14 -13 -33 -11 -42 1 -9 -3
-20 -9 -24 -8 -6 -7 -8 1 -8 9 0 11 -12 7 -40 -3 -24 -2 -40 4 -40 6 0 8 -8 6
-17 -3 -10 -1 -55 4 -101 4 -46 4 -86 0 -88 -5 -3 -6 -10 -3 -15 4 -5 -4 -13
-17 -18 -13 -6 -18 -10 -12 -10 7 -1 14 -10 17 -21 3 -11 0 -18 -7 -17 -6 1
-11 -5 -11 -13 0 -8 8 -16 19 -18 11 -3 16 0 12 7 -4 6 -3 11 1 11 5 0 9 -15
9 -34 0 -19 -4 -32 -8 -30 -4 3 -8 1 -8 -5 0 -6 -12 -8 -32 -4 -21 4 -34 2
-42 -9 -6 -8 -19 -17 -29 -21 -14 -5 -17 -13 -11 -29 3 -13 9 -24 13 -26 24
-10 31 -23 34 -65 2 -26 7 -50 10 -53 3 -3 3 -12 1 -19 -3 -7 -1 -16 5 -20 6
-3 11 -11 11 -17 0 -6 -10 -3 -22 8 -12 10 -18 14 -15 7 12 -20 -16 -20 -49
-1 -17 10 -48 38 -69 63 -20 25 -41 42 -46 39 -5 -3 -14 8 -21 23 -7 15 -18
32 -25 36 -7 4 -13 15 -13 22 0 8 -8 15 -17 16 -14 0 -13 3 5 11 24 12 28 23
12 33 -5 3 -10 0 -10 -8 0 -26 -35 -26 -60 0 -16 16 -25 20 -30 13 -5 -7 -11
0 -18 18 -8 23 -7 32 1 35 8 3 5 10 -8 21 -15 12 -17 18 -7 24 9 6 7 13 -8 29
-14 16 -16 23 -7 27 7 4 2 4 -11 2 -18 -3 -22 -1 -18 10 3 9 -1 22 -9 31 -8 8
-13 19 -9 24 6 11 -13 32 -40 42 -11 4 -16 13 -12 22 7 20 -20 20 -32 0 -7
-13 -16 -7 -50 29 -22 24 -38 46 -35 50 4 3 1 6 -5 6 -6 0 -9 7 -6 15 4 8 1
15 -5 15 -6 0 -10 -3 -10 -7 5 -28 -2 -36 -15 -18 -8 11 -12 23 -10 27 2 3 0
18 -6 32 -5 14 -8 26 -5 26 11 0 65 -61 65 -74 0 -7 9 -24 21 -37 11 -13 18
-19 15 -12 -4 6 -2 14 4 18 7 4 3 17 -9 34 -16 22 -17 31 -8 40 9 10 8 11 -5
6 -13 -5 -15 -2 -11 16 4 15 3 20 -5 15 -7 -4 -23 4 -37 18 -29 29 -55 34 -55
11 0 -8 6 -15 13 -15 8 0 7 -3 -3 -10 -17 -11 -35 13 -24 32 4 7 3 8 -5 4 -7
-5 -13 3 -17 23 -4 17 -11 31 -16 31 -6 0 -7 8 -4 17 4 10 4 14 0 11 -4 -4
-15 4 -26 17 -11 14 -24 22 -30 19 -6 -4 -9 -3 -6 2 7 11 -17 35 -26 27 -14
-14 -160 152 -149 169 3 6 2 8 -3 5 -6 -3 -21 15 -34 41 -14 26 -29 50 -35 54
-5 4 -6 8 -1 8 6 0 -3 13 -18 29 -15 16 -27 31 -26 33 8 10 -26 93 -48 120 -8
9 -11 21 -8 27 4 5 0 13 -7 18 -8 4 -17 30 -21 58 -4 35 -15 58 -35 80 -46 48
-80 104 -76 125 2 11 -2 20 -8 20 -7 0 -17 11 -24 25 -8 19 -8 24 0 19 7 -3 3
2 -8 11 -11 9 -19 21 -17 26 1 6 -2 8 -8 4 -6 -3 -17 0 -25 9 -17 17 -20 30
-5 21 6 -3 10 -1 10 5 0 7 -6 10 -13 7 -8 -3 -20 -2 -27 3 -16 10 -41 80 -33
93 3 6 1 7 -4 4 -6 -4 -13 2 -16 13 -3 11 -1 20 5 20 5 0 6 5 3 10 -3 6 0 10
7 11 7 1 2 5 -12 9 l-25 8 23 7 c20 7 28 23 23 49 -1 5 4 13 11 18 8 5 9 11 3
16 -6 4 -12 20 -14 37 -1 16 -13 39 -26 51 -21 20 -23 20 -34 2 -6 -10 -7 -18
-2 -18 5 0 11 -9 14 -20 3 -13 0 -20 -8 -20 -7 0 -22 -3 -32 -6 -10 -3 -14 -2
-8 3 16 13 16 31 0 37 -8 3 -15 0 -15 -7 0 -7 -6 -3 -12 8 -7 11 -10 20 -7 21
2 0 -2 8 -10 17 -7 10 -10 17 -7 17 4 0 2 9 -4 20 -9 16 -8 18 5 14 8 -3 12
-10 9 -15 -3 -5 -1 -9 4 -9 16 0 22 28 9 38 -7 6 -28 9 -49 7 -30 -3 -37 0
-42 18 -5 20 -4 20 8 5 7 -10 16 -15 19 -11 10 9 8 25 -1 19 -10 -6 -75 54
-68 61 2 3 0 18 -4 33 -5 19 -5 29 2 27 5 -1 15 6 21 16 10 15 8 21 -7 32 -11
8 -16 21 -13 29 4 9 1 15 -6 13 -6 -1 -13 8 -15 21 -3 17 1 22 17 22 12 0 21
4 21 9 0 4 -11 7 -25 6 -19 -3 -25 1 -25 17 0 16 3 18 14 9 11 -9 14 -8 12 6
0 10 5 17 12 16 6 -2 12 2 12 7 0 6 -11 10 -25 10 -20 0 -26 7 -36 43 -17 63
-19 107 -6 128 10 16 9 21 -2 29 -8 4 -16 20 -18 35 -3 17 0 24 7 20 5 -3 10
-1 10 4 0 6 -5 11 -11 11 -6 0 -9 7 -5 15 3 9 -3 19 -16 26 -19 10 -20 9 -14
-7 4 -11 9 -27 11 -37 4 -15 2 -17 -10 -7 -8 7 -12 16 -9 22 3 5 0 16 -7 24
-18 22 -20 44 -3 44 15 0 37 34 27 44 -3 3 1 6 10 6 10 0 17 8 17 20 0 18 -3
19 -21 10 -11 -7 -23 -9 -27 -5 -3 3 -12 -5 -20 -17 -7 -13 -11 -15 -8 -5 5
16 -4 21 -31 18 -7 -1 -13 3 -13 9 0 5 16 10 35 10 28 0 33 3 28 17 -5 12 -2
15 10 10 9 -3 17 -2 17 3 0 6 -11 10 -25 10 -22 0 -25 4 -25 34 0 19 -4 38
-10 41 -5 3 -10 2 -10 -3 0 -6 -12 -13 -27 -17 -26 -7 -26 -8 -8 -15 18 -7 18
-9 3 -15 -9 -3 -18 -15 -21 -26 -3 -10 -10 -19 -17 -19 -6 0 -8 5 -4 13 9 14
-21 -7 -49 -35 -15 -15 -15 -18 -3 -18 9 0 20 -9 26 -20 7 -13 7 -20 1 -20
-21 0 -51 -45 -51 -76 0 -45 -11 -95 -20 -89 -4 2 -3 -15 2 -38 5 -23 10 -49
11 -57 1 -8 6 -18 12 -22 5 -4 6 -10 2 -14 -3 -4 -13 -1 -22 6 -12 10 -15 10
-15 -4 0 -19 -16 -22 -23 -3 -2 6 -4 0 -4 -15 -1 -32 4 -34 27 -13 15 13 18
14 23 2 3 -8 1 -20 -4 -28 -7 -11 -9 -10 -9 4 0 10 -5 15 -10 12 -6 -4 -7 -11
-4 -17 5 -7 2 -8 -6 -3 -10 6 -12 4 -7 -8 3 -10 3 -17 -2 -17 -5 0 -11 9 -14
20 -7 26 -27 26 -27 -1 0 -11 5 -17 10 -14 6 3 10 -2 11 -12 0 -10 2 -31 4
-48 3 -34 -29 -105 -53 -119 -14 -8 -13 -10 3 -22 10 -8 13 -14 7 -14 -15 0
-54 21 -63 34 -4 5 -14 6 -23 3 -9 -4 -16 -2 -16 4 0 6 -4 7 -10 4 -5 -3 -10
-21 -10 -38 0 -25 -3 -29 -11 -17 -8 12 -9 11 -5 -6 4 -11 -1 -35 -10 -52 -8
-18 -12 -36 -9 -42 9 -14 62 18 68 40 2 9 14 19 25 22 16 4 20 1 19 -13 -1
-11 -7 -19 -13 -19 -7 0 -15 -11 -18 -25 -4 -14 -13 -25 -22 -25 -21 0 -61
-48 -75 -90 -6 -19 -14 -39 -18 -45 -3 -5 -6 -43 -6 -84 0 -46 -5 -76 -12 -78
-6 -2 -9 -12 -6 -21 2 -9 -5 -27 -16 -39 -12 -12 -21 -28 -21 -35 0 -9 -3 -9
-12 0 -8 8 -8 15 3 28 9 12 10 15 2 10 -15 -8 -16 -5 -7 18 3 9 10 16 16 16 5
0 6 -4 3 -10 -3 -5 0 -7 9 -4 17 6 10 35 -7 31 -7 -1 -12 12 -12 34 0 20 -6
43 -12 51 -7 8 -10 18 -6 21 3 4 1 7 -5 7 -7 0 -12 -12 -12 -26 0 -16 4 -23
11 -18 8 4 7 0 -1 -15 -6 -12 -18 -25 -26 -28 -7 -3 -12 -9 -9 -13 10 -16 -8
-70 -22 -70 -12 0 -13 3 -4 13 11 14 6 27 -11 27 -13 0 -4 -36 14 -53 12 -12
18 -13 27 -4 10 9 11 5 8 -18 -3 -17 -10 -29 -17 -27 -6 1 -10 -3 -8 -10 6
-15 -27 -81 -48 -98 -7 -7 -11 -16 -8 -21 3 -5 -2 -9 -10 -9 -9 0 -16 -8 -16
-17 0 -15 -2 -16 -10 -3 -5 8 -10 12 -11 8 -1 -5 -3 -12 -4 -18 -1 -5 -3 -14
-4 -20 0 -5 -11 -10 -23 -11 -22 0 -22 -1 -3 -9 18 -8 18 -9 -5 -9 -20 -1 -22
-3 -10 -11 12 -8 11 -11 -8 -16 -14 -4 -19 -10 -13 -14 14 -8 4 -40 -13 -40
-6 0 -22 -20 -36 -45 -14 -25 -29 -45 -35 -45 -5 -1 -20 -17 -32 -36 -13 -19
-17 -32 -10 -28 13 8 -22 -36 -38 -48 -5 -4 -11 -25 -11 -47 -1 -30 2 -38 13
-34 11 4 12 -2 8 -27 -4 -23 -2 -30 7 -25 7 4 0 -5 -16 -19 -16 -13 -31 -33
-32 -44 -5 -29 -30 -73 -38 -65 -4 4 -4 0 -1 -9 8 -20 -26 -62 -100 -124 -22
-19 -24 -24 -10 -19 19 6 19 5 -1 -15 -12 -12 -33 -23 -47 -23 -14 -1 -23 -5
-21 -8 7 -12 -76 -80 -89 -73 -7 4 -9 4 -5 0 8 -10 -19 -37 -57 -56 -35 -18
-109 -90 -113 -111 -5 -22 -114 -119 -126 -112 -6 3 -8 3 -4 -2 12 -13 -20
-64 -50 -78 -15 -7 -36 -12 -47 -10 -14 3 -16 1 -7 -5 9 -6 -2 -17 -37 -40
-27 -18 -51 -39 -55 -47 -3 -8 -12 -12 -20 -9 -8 3 -17 1 -21 -5 -3 -6 -13
-11 -21 -11 -18 0 -37 -18 -47 -44 -4 -10 -13 -16 -22 -12 -8 3 -17 1 -20 -4
-4 -6 -1 -10 6 -10 6 0 -1 -10 -17 -22 -16 -13 -32 -22 -36 -20 -5 1 -8 -4 -8
-12 0 -8 -10 -22 -22 -30 -12 -9 -19 -16 -15 -16 5 0 1 -10 -7 -21 -8 -12 -12
-29 -9 -38 4 -14 3 -14 -6 -1 -9 13 -11 12 -11 -5 0 -24 -33 -55 -58 -55 -13
0 -14 -2 -3 -9 9 -6 10 -11 2 -15 -14 -9 -16 -3 -36 114 -38 217 -46 273 -65
430 -25 211 -37 289 -64 405 -1 6 -8 36 -15 68 -7 33 -19 74 -27 93 -8 19 -12
39 -9 44 4 6 2 10 -4 10 -21 0 -32 43 -37 160 -4 80 -3 120 4 120 6 0 18 8 28
18 10 9 23 17 29 17 16 0 89 80 93 102 2 10 11 25 19 33 14 13 15 13 8 0 -7
-13 -6 -13 6 -1 10 10 11 15 2 18 -15 5 69 83 91 83 9 0 16 8 16 20 0 11 6 20
13 20 6 0 25 7 40 15 15 8 25 10 22 5 -3 -5 -1 -11 5 -15 6 -3 13 1 16 9 3 9
10 14 14 11 5 -3 11 -1 15 5 3 5 -1 10 -10 10 -10 0 -13 4 -8 13 4 6 9 21 10
32 2 11 18 33 35 48 18 16 32 32 30 38 -1 5 2 9 7 9 5 0 12 10 16 23 19 56 23
63 24 45 1 -10 8 -15 19 -13 9 1 22 -7 28 -18 11 -20 12 -20 18 1 4 12 11 22
14 22 4 0 8 12 9 28 1 15 -1 21 -4 15 -2 -7 -12 -13 -21 -13 -15 0 -15 2 -2
10 8 5 10 10 3 10 -15 0 -11 27 7 43 10 9 11 9 6 0 -4 -7 -2 -13 3 -13 6 0 11
9 11 21 0 14 -5 19 -14 16 -21 -8 -8 24 16 41 10 7 18 22 18 33 0 21 -15 26
-23 7 -3 -7 -19 -21 -37 -31 l-31 -19 25 50 c14 28 32 55 39 59 7 4 21 21 31
36 17 27 19 28 36 12 17 -16 19 -15 29 4 15 27 14 29 -14 26 -14 -2 -25 1 -25
7 0 6 7 8 15 4 10 -3 15 1 15 12 0 27 35 113 51 123 10 6 10 9 1 9 -8 0 -9 5
-3 18 5 9 17 36 26 60 19 45 35 55 35 22 0 -11 -5 -20 -12 -20 -6 0 -8 -3 -5
-7 4 -3 1 -13 -5 -21 -18 -21 -20 -52 -4 -52 8 0 18 -4 21 -10 4 -6 -1 -7 -12
-4 -15 5 -15 4 -3 -4 15 -12 30 -7 30 9 0 18 44 48 56 38 7 -5 11 -4 11 4 0
18 45 107 54 107 4 0 10 11 13 25 4 14 13 25 20 25 9 0 12 7 9 20 -3 11 -1 20
4 20 6 0 8 12 5 26 -3 18 -1 25 6 20 6 -3 14 -1 18 5 4 8 3 9 -4 5 -16 -10
-16 46 0 62 17 17 3 25 -21 12 -12 -6 -21 -19 -21 -29 0 -11 -7 -21 -15 -25
-8 -3 -20 -17 -25 -31 -5 -14 -14 -25 -19 -25 -5 0 -11 -15 -13 -32 -2 -18 -8
-32 -13 -31 -6 1 -12 -8 -12 -20 -1 -12 -7 -23 -13 -25 -6 -2 -17 -10 -25 -18
-16 -16 -31 -2 -19 19 5 7 2 7 -10 -2 -16 -13 -16 -12 -5 15 7 16 19 36 27 44
8 8 12 9 8 3 -4 -7 -3 -13 3 -13 5 0 9 13 9 30 -1 16 -5 27 -9 24 -5 -3 -6 2
-3 10 3 9 10 16 15 16 5 0 9 7 9 15 0 8 6 15 14 15 8 0 17 11 20 25 4 15 11
22 20 19 7 -3 16 2 19 10 4 11 1 13 -11 9 -13 -5 -14 -3 -5 7 6 7 9 19 6 28
-4 10 -2 13 5 8 11 -7 17 10 13 40 -1 7 5 14 14 18 8 3 15 15 15 26 0 22 26
28 33 8 2 -7 8 -10 12 -5 5 4 0 13 -10 21 -18 13 -18 14 3 25 13 7 20 16 17
22 -4 5 -11 7 -16 4 -5 -3 -6 1 -3 9 3 9 10 16 15 16 5 0 9 9 9 20 0 11 7 20
15 20 8 0 12 6 9 14 -3 8 4 25 15 37 12 13 21 27 21 31 0 5 4 7 8 4 11 -6 9
-66 -1 -84 -5 -7 -13 -10 -18 -6 -5 3 -9 2 -8 -3 4 -20 -2 -24 -18 -12 -15 11
-16 11 -5 -1 6 -8 12 -22 12 -32 0 -16 22 -24 53 -19 8 1 -32 -60 -46 -70 -5
-3 -8 -9 -8 -13 5 -33 -1 -55 -12 -50 -8 3 -14 -2 -14 -11 0 -8 3 -13 5 -10
14 13 32 -22 32 -61 0 -28 5 -44 13 -45 9 0 9 -2 0 -6 -23 -9 -13 -23 16 -23
27 0 28 2 27 41 0 29 4 43 16 50 10 6 15 16 11 25 -7 20 13 33 43 28 16 -3 24
2 29 15 3 11 12 22 20 25 9 3 15 19 15 41 0 23 4 34 11 30 6 -4 9 -1 8 6 -1 8
3 26 9 40 5 14 13 41 16 60 3 18 9 35 14 37 6 2 8 11 5 21 -3 10 13 62 35 114
22 53 38 98 34 101 -3 3 0 6 6 6 6 0 9 7 6 15 -4 8 -1 22 6 30 6 8 9 19 5 25
-3 5 -1 10 5 10 7 0 8 6 2 16 -5 9 -5 35 0 62 9 49 18 67 18 36 0 -16 2 -17
10 -4 5 8 10 11 10 5 1 -5 5 0 10 13 5 12 7 29 4 37 -4 8 -1 15 5 15 6 0 11
11 11 23 0 13 3 26 6 29 3 4 7 33 8 65 1 32 0 50 -2 41 -2 -10 -8 -18 -13 -18
-6 0 -7 5 -4 10 3 6 0 10 -7 10 -9 0 -9 3 2 10 13 8 12 10 -2 10 -21 0 -24 16
-5 23 6 2 -5 8 -25 12 -21 4 -38 12 -38 19 0 6 -5 4 -11 -4 -8 -11 -9 -7 -5
18 3 18 1 32 -4 32 -6 0 -10 4 -10 10 0 5 7 7 15 4 22 -9 18 3 -10 34 -14 15
-25 31 -25 35 0 5 -7 15 -15 23 -8 8 -11 22 -8 31 5 12 2 15 -10 10 -11 -4
-17 -1 -17 9 0 9 5 12 11 8 7 -4 10 -1 7 7 -3 8 -10 13 -15 12 -9 -2 -13 11
-14 51 0 10 -9 20 -20 23 -21 6 -26 37 -8 49 6 3 15 0 20 -7 5 -8 9 -10 9 -6
0 4 9 3 20 -3 16 -8 20 -8 20 3 0 8 7 20 14 27 11 8 12 18 6 36 -5 13 -7 24
-4 24 3 0 -4 13 -15 29 -12 16 -21 34 -21 40 0 6 -7 11 -15 11 -8 0 -15 -4
-15 -9 0 -5 -7 -17 -16 -25 -13 -14 -13 -16 -1 -16 9 0 18 6 21 13 3 6 4 -5 2
-25 -2 -24 1 -38 8 -39 7 0 7 -2 -1 -6 -7 -2 -14 -12 -14 -21 -1 -9 -4 -3 -8
13 -5 21 -12 29 -24 27 -10 -2 -19 6 -23 22 -6 27 -30 41 -40 25 -3 -6 -13 -8
-22 -4 -9 3 -13 3 -9 -1 10 -10 -33 -65 -46 -58 -7 3 -4 -1 5 -9 9 -7 20 -29
23 -47 5 -30 4 -32 -11 -19 -16 13 -16 12 -5 -10 10 -17 10 -26 1 -35 -6 -6
-10 -6 -9 -1 2 6 -1 25 -5 44 -6 24 -4 36 5 43 10 6 6 7 -10 3 -21 -6 -23 -4
-18 14 3 12 2 19 -3 16 -10 -6 -23 42 -15 56 4 5 1 8 -6 7 -8 -2 -18 17 -27
52 -8 30 -17 57 -21 60 -14 9 -19 49 -7 54 6 2 3 5 -8 5 -12 1 -16 6 -12 17 3
8 2 12 -4 9 -6 -4 -10 12 -10 39 0 25 -5 46 -10 46 -6 0 -15 10 -21 23 -5 12
-25 44 -44 72 -19 27 -35 55 -35 62 0 7 -8 13 -19 13 -10 0 -27 11 -37 25 -10
14 -24 25 -31 25 -9 0 -11 14 -8 45 3 24 0 47 -5 50 -6 3 -10 26 -10 51 0 24
-4 45 -10 45 -5 1 -15 2 -20 3 -16 2 -30 28 -30 59 0 16 -4 26 -10 22 -5 -3
-7 -12 -3 -20 3 -8 -1 -15 -8 -15 -7 0 -9 3 -6 7 4 3 0 15 -10 25 -9 11 -11
18 -5 18 7 0 12 -5 12 -11 0 -8 5 -7 15 1 12 10 13 15 3 21 -6 4 -16 6 -20 3
-4 -3 -10 8 -14 23 -4 15 -24 51 -45 79 -22 28 -39 54 -39 58 0 4 -10 17 -21
29 -12 12 -18 15 -14 7 5 -8 -12 5 -38 30 -25 24 -42 47 -37 50 16 10 0 49
-18 43 -9 -4 -13 -2 -9 4 4 6 -2 13 -12 16 -12 3 -19 13 -19 29 0 28 -51 87
-70 80 -7 -2 -12 4 -12 13 0 9 -4 14 -8 11 -11 -6 -72 31 -72 43 0 5 -9 12
-19 16 -11 3 -30 27 -43 53 -13 26 -38 67 -56 91 -17 24 -29 48 -26 53 4 6 9
6 14 -2 5 -8 9 -7 14 5 3 9 4 21 1 25 -3 5 -1 11 5 15 23 14 8 26 -30 23 -40
-2 -50 -14 -28 -36 20 -20 -12 -15 -34 5 -18 16 -18 16 -12 0 5 -13 1 -17 -18
-17 -31 0 -48 18 -48 49 0 21 2 23 10 11 8 -13 10 -12 11 5 1 11 1 24 0 29 -1
5 4 6 12 3 8 -3 14 3 15 17 5 45 9 58 21 66 8 4 11 12 7 18 -3 6 1 18 10 26 8
9 11 16 5 16 -5 0 -16 -7 -25 -15 -16 -16 -32 -3 -20 16 3 6 0 15 -7 21 -11 7
-9 8 6 6 12 -2 19 2 18 10 -2 6 2 12 8 12 6 0 9 7 5 15 -3 8 -2 15 3 15 12 0
20 49 10 56 -5 3 -9 10 -9 17 0 6 7 1 16 -11 11 -17 19 -20 28 -13 7 6 16 7
20 3 4 -4 7 -2 5 3 -1 6 6 27 15 49 10 21 15 44 12 51 -2 7 1 18 7 25 7 7 7
10 1 7 -6 -3 -16 3 -24 13 -8 10 -17 17 -22 14 -4 -3 -8 0 -8 5 0 6 6 11 13
11 7 1 4 7 -7 15 -25 19 -25 91 1 112 13 10 14 16 6 19 -9 4 -10 11 -3 25 7
13 7 19 0 19 -5 0 -10 9 -10 21 0 12 4 17 11 13 8 -4 8 0 0 15 -8 14 -8 21 -1
21 5 0 10 5 10 11 0 5 -5 7 -11 3 -8 -5 -8 -1 0 14 6 11 11 35 11 52 0 20 4
29 11 24 8 -5 8 -1 0 14 -6 11 -11 33 -11 49 0 33 36 97 50 88 6 -3 10 1 10 9
0 9 5 16 10 16 6 0 10 -4 10 -9 0 -5 7 -11 14 -14 10 -4 13 -1 9 9 -3 7 0 14
5 14 6 0 9 9 7 20 -2 11 1 19 8 17 6 -1 16 8 22 21 5 12 18 22 27 22 10 0 18
6 18 13 0 16 79 -74 80 -90 0 -7 7 -13 15 -13 8 0 15 -4 15 -9 0 -5 14 -23 31
-40 17 -17 27 -31 23 -31 -4 0 1 -7 12 -15 17 -13 17 -16 4 -26 -13 -9 -13
-10 1 -6 11 4 23 -7 38 -33 31 -55 52 -130 38 -130 -8 0 -8 -3 -2 -8 10 -7 37
-58 51 -97 8 -22 14 -57 15 -92 1 -13 5 -21 9 -18 16 10 20 -13 5 -28 -13 -13
-12 -16 3 -23 9 -4 25 -6 36 -5 10 2 16 -1 13 -7 -4 -5 0 -9 8 -9 8 0 15 4 15
9 0 14 28 9 34 -8 9 -24 24 -8 18 21 -2 14 1 32 8 40 11 13 10 14 -5 8 -14 -5
-17 -3 -12 10 3 9 2 16 -4 14 -15 -3 -53 70 -66 125 -5 26 -7 45 -2 43 9 -6
23 34 15 42 -3 4 -6 -1 -6 -11 0 -9 -5 -14 -10 -11 -6 3 -10 17 -10 30 0 13
-6 26 -12 28 -8 3 -6 6 5 6 10 1 17 -6 18 -16 0 -14 2 -13 9 5 5 12 15 22 21
22 22 0 80 -51 78 -68 -3 -21 9 -52 29 -75 15 -16 14 -17 -4 -11 -14 5 -12 0
9 -20 18 -17 27 -34 25 -49 -2 -12 3 -27 10 -32 16 -13 35 -92 26 -107 -4 -6
-3 -8 3 -5 6 4 13 -7 17 -26 8 -42 10 -50 19 -64 5 -7 5 -18 1 -25 -4 -7 -3
-8 4 -4 8 5 12 -4 12 -28 0 -21 6 -38 16 -44 8 -5 21 -26 29 -48 8 -21 14 -34
15 -29 0 6 5 3 11 -5 8 -11 12 -12 16 -2 2 6 9 12 15 12 6 0 5 -7 -3 -16 -10
-13 -10 -17 1 -24 15 -9 39 14 40 40 0 13 1 13 10 0 6 -9 10 -10 10 -3 0 19
-21 27 -31 12 -7 -11 -9 -10 -9 4 0 26 34 21 56 -8 22 -29 47 -34 37 -7 -3 9
4 5 16 -10 12 -15 19 -32 16 -38 -5 -9 7 -14 27 -11 4 0 4 -7 1 -17 -3 -9 -3
-14 1 -10 8 7 79 -52 72 -59 -2 -3 5 -14 15 -24 14 -14 18 -27 14 -42 -4 -15
-3 -18 3 -9 7 11 10 11 15 -2 4 -9 1 -16 -5 -16 -8 0 -6 -6 4 -16 12 -13 14
-23 7 -40 -5 -16 -5 -24 2 -24 6 0 7 -4 4 -10 -3 -5 0 -7 8 -4 8 3 20 -3 28
-13 13 -16 12 -17 -3 -4 -16 12 -18 11 -16 -13 2 -25 12 -34 21 -18 2 4 2 1 0
-7 -4 -18 36 -83 48 -75 5 3 9 1 9 -5 0 -5 -6 -12 -12 -14 -9 -4 -9 -8 -3 -14
23 -19 34 -50 22 -62 -9 -9 -8 -11 5 -6 12 5 20 1 25 -11 3 -11 14 -27 25 -37
10 -10 18 -23 18 -30 0 -7 -4 -6 -10 3 -11 17 -13 10 -4 -14 3 -9 10 -13 15
-10 8 4 14 -25 10 -48 0 -5 6 -8 15 -8 8 0 12 -4 9 -10 -3 -5 -2 -10 4 -10 5
0 20 -14 32 -32 13 -17 18 -28 11 -24 -7 4 -12 2 -12 -3 0 -6 6 -11 13 -11 18
0 41 -45 32 -61 -5 -7 -4 -10 3 -5 11 7 35 -26 27 -38 -3 -3 -2 -4 2 -1 4 3
19 -20 35 -52 30 -64 34 -78 16 -67 -7 4 -8 3 -4 -5 4 -6 11 -9 16 -6 8 5 23
-19 25 -40 0 -5 8 -21 17 -35 9 -14 22 -55 28 -93 10 -55 10 -70 -1 -84 -10
-12 -10 -15 -1 -9 6 4 12 2 12 -3 0 -6 -7 -11 -15 -11 -12 0 -13 -4 -5 -19 13
-25 13 -61 -1 -61 -5 0 -7 6 -3 13 4 6 3 8 -1 4 -14 -12 -15 -37 -2 -34 7 1
12 -11 12 -28 0 -20 -5 -29 -13 -27 -8 1 -11 -2 -7 -8 4 -6 7 -32 6 -58 0 -62
8 -90 21 -71 7 11 11 11 15 1 5 -13 23 -7 23 9 0 6 -4 7 -10 4 -5 -3 -10 -2
-10 4 0 18 43 25 55 8 6 -9 23 -19 36 -22 24 -6 25 -4 23 32 -2 26 -1 33 6 23
5 -8 6 -18 3 -22 -2 -5 -1 -14 4 -21 4 -7 8 -21 8 -32 0 -11 3 -23 7 -26 17
-12 -4 -40 -26 -34 -11 2 -15 2 -8 -1 6 -3 10 -10 7 -15 -4 -5 1 -6 9 -3 12 5
16 0 16 -18 0 -14 8 -32 18 -41 16 -15 19 -15 19 -2 0 8 -4 15 -9 15 -5 0 -6
5 -3 10 11 17 24 11 20 -10 -2 -11 1 -20 7 -20 6 0 9 -3 6 -6 -9 -8 21 -76 41
-92 12 -10 12 -12 1 -7 -8 4 -2 -4 14 -17 19 -16 26 -29 21 -38 -5 -9 -4 -11
4 -6 16 10 32 -35 18 -53 -9 -10 -7 -16 6 -26 9 -7 19 -27 22 -46 4 -19 11
-51 17 -72 10 -32 9 -40 -3 -48 -8 -5 -9 -9 -4 -9 6 0 9 -17 7 -40 -4 -36 -6
-39 -21 -28 -14 11 -14 10 1 -7 12 -15 14 -25 6 -38 -12 -22 -6 -30 25 -33 34
-3 47 13 37 46 -9 31 2 96 12 70 3 -8 4 -30 2 -48 -2 -28 1 -32 17 -27 11 4
19 2 19 -4 0 -6 -7 -11 -15 -11 -8 0 -15 -4 -15 -10 0 -9 15 -14 33 -11 5 1 7
-9 5 -21 -2 -14 2 -22 10 -21 8 2 12 -10 12 -37 0 -36 3 -40 25 -40 14 0 25 5
25 10 0 18 29 23 45 7 8 -9 15 -26 15 -38 0 -12 3 -19 7 -16 3 4 11 2 18 -3 8
-7 10 -2 7 20 -3 21 1 32 12 36 13 5 14 10 5 20 -6 7 -8 18 -5 23 4 5 2 12 -4
16 -5 3 -10 15 -10 26 0 11 3 18 8 16 4 -3 8 15 8 38 2 43 49 185 62 185 4 0
8 12 9 26 2 37 23 56 23 22 0 -15 4 -29 9 -32 16 -10 31 21 29 61 -1 36 19
103 32 103 3 0 6 19 8 41 1 23 7 51 13 63 9 17 7 17 -11 -4 -15 -18 -19 -19
-11 -5 5 11 19 30 30 42 22 23 28 38 11 28 -5 -3 -10 2 -10 11 0 25 23 84 32
84 5 0 5 -8 0 -17 -11 -24 0 -87 16 -90 6 -2 12 4 12 13 0 9 5 12 13 8 6 -4 9
-4 5 1 -4 4 -3 16 2 26 7 12 6 26 -1 43 -15 31 -4 80 16 72 8 -3 19 3 24 12 9
14 11 14 12 2 3 -29 21 66 24 128 2 35 9 70 17 79 11 14 11 16 -4 10 -9 -3
-18 -1 -21 6 -4 13 14 69 25 77 4 3 11 25 17 49 5 24 13 47 18 50 18 13 34 64
23 75 -5 5 -10 14 -10 20 0 5 6 3 13 -6 32 -41 71 -27 122 46 37 53 72 95 76
93 2 -1 29 22 59 52 30 30 48 51 40 47 -8 -4 -5 1 8 12 12 11 22 28 22 37 0 9
5 13 10 10 6 -3 10 1 10 10 0 9 -5 13 -10 10 -10 -6 21 83 40 117 13 23 13 28
-3 28 -8 0 -19 -10 -26 -22 -46 -89 -61 -113 -73 -113 -7 -1 -12 -6 -10 -13 1
-7 -5 -15 -13 -18 -8 -3 -12 -11 -8 -17 3 -6 1 -7 -5 -3 -11 6 -82 -77 -82
-97 0 -6 -3 -7 -7 -4 -3 4 -13 -2 -20 -13 -8 -11 -19 -18 -24 -14 -14 8 0 26
14 18 8 -5 8 -3 0 7 -18 18 -16 39 3 39 9 0 12 -5 8 -12 -4 -7 -3 -8 5 -4 9 6
9 11 1 21 -17 21 -43 6 -37 -22 4 -19 2 -21 -10 -11 -9 7 -13 22 -10 37 6 33
49 144 58 151 3 3 11 19 16 35 6 17 16 29 22 27 7 -1 10 1 7 6 -3 5 6 19 19
30 30 26 36 27 28 5 -4 -11 -3 -14 5 -9 18 11 15 66 -2 66 -26 0 2 54 37 71
18 9 32 22 33 30 2 21 26 72 52 105 75 97 202 273 215 299 8 17 27 41 41 54
14 14 26 32 26 41 0 9 4 20 9 26 19 20 22 52 6 58 -11 4 -14 2 -9 -6 5 -7 2
-9 -9 -5 -9 3 -18 1 -21 -6 -2 -7 -3 -1 -1 13 2 14 4 28 4 31 1 7 41 22 54 20
5 -1 6 3 2 9 -3 5 -1 10 4 10 6 0 11 7 11 15 0 16 38 41 58 37 7 -2 11 3 10
10 -2 7 5 12 15 12 10 -1 16 1 13 4 -3 3 -1 11 4 18 6 6 9 18 8 25 -2 8 4 13
14 11 9 -1 20 3 24 9 5 8 3 9 -7 4 -8 -5 -3 4 11 19 36 41 136 116 144 109 3
-4 6 1 6 11 0 10 5 14 12 10 6 -4 9 -3 5 2 -8 13 14 38 37 42 10 2 28 12 39
23 11 10 28 21 37 24 9 3 23 24 30 48 16 50 38 79 54 70 18 -12 46 -14 46 -3
0 14 37 12 44 -2 3 -7 3 -3 0 10 -4 16 -1 22 10 22 9 0 16 5 16 11 0 5 -4 8
-9 5 -4 -3 -8 4 -7 16 1 21 46 56 74 57 7 1 25 15 39 31 14 17 28 29 31 26 3
-3 -1 -12 -8 -21 -11 -13 -10 -14 6 -9 16 6 17 5 7 -7 -7 -7 -13 -33 -13 -57
0 -29 -4 -41 -11 -36 -7 4 -6 -3 2 -17 9 -17 14 -20 17 -10 3 10 9 7 18 -10
l13 -24 1 23 c0 12 5 22 11 22 6 0 8 9 4 21 -4 12 -3 19 2 16 5 -3 9 25 10 61
1 37 2 71 2 75 1 5 6 5 12 1 8 -5 8 -1 0 14 -8 15 -8 22 2 26 6 3 -1 3 -18 0
-30 -6 -30 -5 8 20 51 35 67 20 67 -58 0 -35 4 -56 11 -56 7 0 9 -10 7 -25 -3
-14 -1 -25 4 -25 6 0 8 -18 6 -40 -2 -22 0 -40 4 -40 5 0 8 -6 8 -14 0 -23 16
-27 31 -9 10 12 10 14 2 9 -8 -4 -13 -1 -13 8 0 9 5 16 11 16 6 0 7 5 2 13 -4
6 -13 38 -19 69 -9 51 -9 57 8 61 21 6 23 -4 6 -21 -9 -9 -9 -12 0 -12 7 0 12
-5 12 -11 0 -5 -5 -7 -12 -3 -7 4 -8 3 -4 -5 13 -21 25 -1 22 36 -1 20 -10 41
-19 48 -11 8 -15 20 -11 31 5 16 4 16 -5 4 -6 -8 -11 -10 -12 -5 -1 6 -3 15
-4 20 -2 6 -3 16 -4 23 0 7 -5 11 -10 8 -18 -11 -20 26 -3 49 11 16 23 22 36
19 12 -4 16 -2 12 5 -4 6 0 11 8 11 9 0 16 5 16 12 0 6 12 1 28 -13 15 -13 29
-25 32 -27z m565 -34 c5 4 5 1 1 -5 -4 -7 -3 -13 2 -13 5 0 14 -57 20 -127 5
-71 13 -139 16 -153 4 -14 4 -19 0 -12 -3 6 -9 12 -14 12 -10 0 -8 -20 4 -39
6 -10 5 -12 -2 -7 -12 7 -15 -3 -13 -41 4 -38 -17 -34 -38 9 -16 32 -18 44 -8
50 8 5 9 8 1 8 -7 0 -14 19 -17 43 -3 23 -7 51 -10 62 -3 11 -6 26 -6 33 -1 7
-5 10 -11 7 -5 -3 -10 -1 -10 4 0 6 4 11 9 11 4 0 7 18 6 40 -1 27 4 49 16 64
10 13 15 26 12 30 -3 3 -1 6 6 6 8 0 11 6 7 16 -5 13 -4 14 7 6 8 -7 18 -8 22
-4z m-4801 -1770 c-5 -7 -2 -9 9 -5 11 4 18 -1 22 -14 4 -10 10 -17 15 -14 5
3 20 -5 33 -18 19 -17 24 -30 21 -52 -2 -17 -1 -24 2 -17 3 6 10 12 16 12 18
0 93 -82 90 -98 -2 -9 1 -11 9 -6 9 5 10 2 6 -10 -4 -10 -1 -19 8 -22 8 -4 15
-10 15 -16 0 -5 -4 -7 -9 -4 -5 4 -6 -4 -3 -16 5 -19 7 -20 10 -5 2 9 8 17 13
17 6 0 7 6 3 13 -4 6 -4 9 0 5 4 -3 8 -10 8 -15 0 -4 9 -20 19 -34 10 -14 20
-41 23 -60 3 -19 3 -28 0 -21 -8 17 -25 15 -18 -3 8 -21 32 -19 37 3 2 9 3 -5
2 -31 -1 -26 0 -45 3 -42 9 9 32 -33 48 -87 9 -29 23 -61 32 -70 8 -10 12 -18
8 -18 -3 0 0 -14 9 -30 10 -20 12 -29 4 -28 -6 2 -13 -2 -16 -8 -2 -7 4 -11
14 -10 20 1 25 -25 6 -31 -6 -2 -23 15 -37 39 -24 40 -25 44 -8 57 16 12 15
13 -4 7 -15 -5 -24 -2 -28 9 -3 8 0 15 7 15 6 0 1 7 -11 16 -13 9 -22 26 -22
42 0 44 -49 174 -70 187 -6 4 -8 10 -5 15 3 5 1 11 -5 15 -22 13 -62 103 -61
137 0 18 -3 17 -45 -21 -13 -12 -14 -10 -8 13 5 22 3 25 -10 20 -18 -7 -90 61
-81 76 3 4 -4 6 -15 3 -11 -3 -17 -10 -13 -16 3 -5 1 -7 -5 -4 -5 4 -8 16 -5
28 4 12 0 25 -8 30 -8 5 -9 9 -4 9 17 0 15 38 -1 44 -13 5 -11 26 2 26 3 0 2
-5 -2 -12z m3944 -1460 c-9 -6 -4 -8 17 -6 26 3 30 0 31 -22 0 -14 5 -47 11
-75 23 -101 35 -202 32 -258 -2 -31 0 -57 4 -57 5 0 5 -14 2 -31 -4 -18 -8
-44 -9 -59 -2 -25 -36 -74 -36 -51 0 5 4 13 10 16 5 3 9 17 8 30 -1 13 -6 21
-10 19 -4 -3 -6 -10 -4 -17 1 -7 1 -9 -1 -4 -3 4 -11 7 -19 7 -17 0 -59 86
-55 113 1 9 -3 17 -8 17 -6 0 -11 6 -11 13 0 7 -13 24 -28 38 -23 20 -31 22
-41 12 -6 -7 -17 -13 -23 -13 -9 0 -9 3 -1 11 11 11 1 61 -19 86 -5 7 -5 14 2
18 8 5 8 11 -1 21 -9 11 -8 14 5 14 10 0 14 5 10 11 -5 8 -1 8 14 0 17 -9 22
-8 27 9 3 11 11 20 16 20 5 0 9 5 9 11 0 6 -9 8 -20 4 -27 -8 -25 5 4 36 13
14 27 35 30 47 4 12 11 22 16 22 5 0 17 15 27 33 14 26 18 29 21 13 2 -10 -2
-23 -10 -28z m-2404 -2706 c-10 -15 -19 -30 -20 -34 -1 -5 -2 -11 -3 -15 -1
-5 -6 -1 -12 7 -9 12 -10 11 -6 -7 3 -13 1 -26 -4 -29 -5 -3 -7 -10 -4 -15 9
-13 -5 -50 -15 -44 -5 3 -7 -6 -4 -19 2 -14 -1 -28 -6 -31 -6 -4 -8 -15 -5
-26 4 -12 2 -19 -7 -19 -11 0 -11 -2 0 -9 11 -7 11 -15 -2 -45 -8 -20 -20 -36
-25 -36 -6 0 -11 -6 -11 -14 0 -7 -7 -19 -15 -26 -13 -11 -14 -10 -9 5 5 12 4
16 -3 12 -6 -4 -14 -1 -16 5 -3 7 -4 0 -4 -15 2 -21 -5 -33 -23 -45 -14 -9
-20 -10 -13 -3 6 8 9 20 6 27 -3 8 0 14 7 14 9 0 9 4 2 13 -7 8 -6 22 5 47 9
19 18 49 20 65 2 17 11 35 18 41 8 6 12 13 9 16 -3 3 19 40 48 83 29 42 64 95
78 118 18 32 25 37 28 24 2 -10 -4 -30 -14 -45z"/>
<path d="M7597 5717 c-4 -11 -4 -23 -1 -29 11 -17 10 -88 -1 -92 -5 -3 -4 -5
2 -5 10 -1 10 -7 1 -27 -8 -18 -9 -31 -2 -42 6 -9 10 -56 9 -104 -2 -79 7
-111 21 -75 6 16 35 18 32 3 -2 -6 2 -13 7 -16 12 -6 17 100 6 115 -5 5 -12
20 -15 33 -6 16 -3 22 8 22 21 0 21 57 1 84 -13 17 -15 18 -15 3 0 -9 4 -17 9
-17 5 0 9 -11 9 -25 0 -13 -5 -22 -10 -19 -5 3 -7 12 -4 19 2 7 -2 16 -11 19
-14 6 -14 9 1 31 13 20 14 26 2 38 -9 9 -11 19 -4 30 7 13 5 15 -8 10 -13 -5
-15 -3 -9 7 5 8 4 11 -3 6 -6 -4 -12 4 -14 21 -2 23 -4 25 -11 10z"/>
<path d="M7626 5315 c-4 -14 -4 -30 -1 -36 4 -5 3 -8 -2 -7 -4 2 -9 0 -10 -4
-6 -18 -2 -28 13 -28 11 0 14 -6 8 -22 -9 -30 -12 -45 -7 -35 3 4 9 7 14 7 9
0 4 -39 -9 -70 -10 -25 -8 -74 5 -87 15 -16 23 -16 23 0 0 7 9 20 21 30 17 15
20 28 18 93 -1 55 -6 77 -16 81 -15 6 -34 45 -38 75 -3 29 -12 31 -19 3z"/>
<path d="M7604 2098 c-5 -7 -3 -8 6 -3 10 6 12 4 6 -11 -13 -32 -16 -57 -17
-116 0 -36 -6 -61 -13 -65 -7 -5 -19 -25 -25 -46 -7 -20 -16 -35 -21 -32 -4 3
-11 -2 -14 -11 -5 -12 -2 -15 11 -10 16 5 16 5 -1 -8 -10 -8 -15 -20 -11 -26
4 -6 1 -43 -6 -83 -14 -73 -16 -111 -8 -136 2 -9 -6 -17 -21 -22 -20 -6 -21
-7 -5 -8 17 -1 20 -8 19 -54 0 -28 -2 -55 -4 -59 -1 -5 -3 -13 -4 -19 0 -6
-10 -17 -20 -25 -11 -7 -17 -17 -13 -20 4 -4 3 -12 -2 -18 -5 -6 -12 -51 -15
-100 -3 -48 -10 -94 -15 -100 -6 -7 -9 -15 -6 -18 3 -3 -2 -11 -10 -18 -13
-11 -16 -11 -13 0 2 7 -4 15 -12 17 -13 4 -13 3 0 -6 8 -6 11 -11 6 -11 -5 0
-3 -6 3 -14 9 -11 9 -16 0 -21 -6 -4 -15 -1 -20 6 -6 10 -8 8 -7 -7 2 -14 9
-21 23 -20 16 1 20 -5 21 -34 1 -52 -5 -63 -24 -48 -15 12 -15 10 0 -13 15
-24 16 -38 4 -104 -2 -11 -4 -26 -5 -33 0 -7 -5 -11 -10 -7 -15 9 -24 -14 -11
-30 8 -9 8 -15 0 -20 -6 -3 -8 -11 -4 -16 3 -5 0 -8 -7 -7 -7 2 -14 -4 -15
-12 0 -8 -2 -19 -4 -25 -5 -21 -5 -40 2 -45 12 -10 -8 -75 -23 -72 -11 2 -11
0 1 -10 8 -7 16 -20 18 -28 2 -8 8 -19 13 -25 7 -7 10 -7 8 0 -2 6 0 19 3 30
4 11 9 42 13 68 6 43 8 47 28 42 12 -4 17 -3 12 2 -6 4 -11 20 -12 35 -1 21 2
24 12 15 7 -7 10 -16 7 -22 -2 -5 1 -4 9 4 11 10 11 15 2 18 -8 3 -9 10 -3 21
4 9 16 52 25 95 10 42 22 77 29 77 7 0 7 3 -1 8 -10 6 -7 29 11 103 13 52 21
109 18 127 -3 20 3 46 17 72 22 42 21 63 -2 54 -8 -3 -13 6 -15 23 -1 21 1 24
8 13 7 -10 9 1 6 38 -2 28 -1 52 3 52 6 0 9 21 11 84 1 16 -5 33 -12 38 -9 5
-10 10 -2 16 5 4 17 23 24 42 16 39 15 35 30 110 17 89 18 100 9 94 -10 -6
-12 8 -3 30 3 9 10 13 15 10 5 -3 9 0 9 5 0 6 -3 11 -7 11 -5 0 -8 16 -9 35 0
18 3 32 8 29 4 -3 8 2 8 10 0 9 5 16 11 16 5 0 7 4 4 10 -3 5 1 21 10 34 9 14
16 27 16 31 -2 9 10 59 20 83 5 13 5 21 1 18 -5 -3 -18 1 -28 9 -23 18 -31 18
-40 3z"/>
<path d="M2128 1203 c-12 -3 -18 -15 -19 -36 -1 -31 -1 -31 -9 -7 -4 14 -9 21
-10 15 -3 -17 -6 -48 -8 -88 -1 -21 -6 -36 -10 -33 -12 7 -35 -53 -26 -72 4
-9 6 -27 5 -40 -2 -13 5 -32 14 -42 9 -9 18 -30 21 -46 7 -36 13 -42 24 -24
13 21 12 118 -1 182 -9 39 -9 53 0 56 6 2 11 8 11 13 0 6 -4 7 -10 4 -5 -3
-10 -4 -10 -1 0 2 -3 12 -7 22 -5 13 -3 15 7 9 9 -6 11 -4 5 6 -5 9 -5 11 2 4
20 -20 31 -69 19 -88 -8 -13 -8 -20 3 -26 9 -6 10 -11 2 -15 -7 -5 -8 -13 -1
-25 5 -10 7 -20 5 -23 -2 -2 5 -9 15 -16 12 -7 20 -8 20 -2 0 5 -5 10 -11 10
-5 0 -7 5 -4 10 3 6 2 10 -4 10 -7 0 -7 8 -2 23 5 13 7 36 4 53 -3 22 -2 25 6
14 8 -12 12 -10 19 10 7 20 6 26 -7 32 -13 5 -13 7 -1 8 11 0 9 6 -7 19 -13
11 -23 30 -23 43 0 18 2 20 10 8 6 -9 10 -10 10 -3 0 6 -5 15 -10 18 -6 4 -8
11 -5 16 4 5 5 8 3 8 -2 -1 -11 -3 -20 -6z"/>
</g>
</svg>
