<?xml version="1.0" standalone="no"?>
<!DOCTYPE svg PUBLIC "-//W3C//DTD SVG 20010904//EN"
 "http://www.w3.org/TR/2001/REC-SVG-20010904/DTD/svg10.dtd">
<svg version="1.0" xmlns="http://www.w3.org/2000/svg"
 width="1024.000000pt" height="1536.000000pt" viewBox="0 0 1024.000000 1536.000000"
 preserveAspectRatio="xMidYMid meet">
<metadata>
Created by potrace 1.16, written by Peter Selinger 2001-2019
</metadata>
<g transform="translate(0.000000,1536.000000) scale(0.100000,-0.100000)"
fill="#000000" stroke="none">
<path d="M4842 12972 c-18 -59 -32 -112 -32 -118 0 -7 -9 -41 -20 -77 -18 -56
-23 -65 -41 -62 -18 4 -19 2 -7 -12 9 -12 9 -15 1 -9 -8 4 -13 2 -14 -6 0 -7
-2 -42 -3 -78 -2 -54 -10 -80 -46 -152 -24 -48 -47 -85 -51 -82 -4 2 -5 -4 -2
-15 7 -27 -25 -84 -43 -77 -8 3 -14 1 -14 -4 0 -6 5 -10 10 -10 6 0 10 -8 10
-17 0 -15 -2 -16 -10 -3 -6 10 -9 6 -8 -15 1 -38 -47 -143 -55 -122 -3 8 -1
19 5 25 6 6 6 12 -1 16 -6 4 -11 0 -11 -8 0 -9 -6 -16 -12 -16 -10 0 -10 -2
-1 -8 12 -8 13 -85 1 -97 -4 -4 -4 -14 -1 -23 4 -9 2 -13 -4 -9 -7 5 -9 0 -6
-13 5 -19 -4 -25 -33 -21 -7 1 -17 -13 -23 -30 -7 -19 -15 -28 -22 -23 -7 4
-9 3 -5 -4 9 -14 -58 -138 -73 -135 -6 2 -11 -4 -11 -13 0 -8 4 -13 9 -10 5 3
8 -5 7 -19 0 -14 -5 -25 -9 -25 -5 0 -6 -4 -3 -9 3 -4 17 -7 31 -6 18 2 25 -1
25 -14 0 -10 -3 -21 -7 -25 -4 -4 -8 -13 -9 -19 0 -7 -2 -19 -2 -28 -2 -18
-57 -91 -67 -89 -4 1 -10 -2 -13 -6 -4 -4 -1 -4 7 1 11 6 13 3 8 -11 -17 -54
-35 -95 -41 -94 -4 1 -11 -2 -14 -6 -4 -4 -1 -3 7 1 11 6 13 4 8 -9 -4 -10 -7
-20 -7 -22 0 -2 -7 -4 -15 -4 -8 0 -14 -5 -13 -11 2 -6 -3 -13 -10 -14 -7 -2
-8 -1 -2 2 15 7 2 23 -19 23 -13 0 -20 -14 -29 -60 -7 -32 -19 -66 -27 -74
-11 -11 -12 -16 -2 -19 11 -5 7 -6 -35 -11 -6 0 -13 -8 -15 -16 -4 -13 -3 -13
6 0 9 12 11 10 11 -10 -1 -25 -43 -104 -53 -98 -3 2 -9 0 -13 -4 -4 -5 -2 -8
4 -8 14 0 7 -17 -37 -93 -18 -31 -37 -54 -43 -51 -5 3 -9 -2 -8 -12 1 -11 2
-28 1 -39 -2 -19 -3 -18 -15 3 -13 24 -13 24 -13 -7 0 -16 4 -28 9 -25 4 3 8
0 8 -5 0 -6 -4 -11 -10 -11 -5 0 -10 -7 -10 -16 0 -12 6 -15 23 -10 12 3 35 6
50 6 16 0 26 4 22 10 -9 14 8 12 24 -2 11 -10 13 -10 7 0 -4 6 -3 12 3 12 5 0
12 -6 15 -12 3 -7 3 -3 1 9 -8 30 11 38 28 12 11 -15 16 -17 21 -7 14 29 -4
-33 -35 -121 -40 -114 -91 -176 -135 -165 -25 6 -26 5 -20 -20 4 -18 3 -25 -4
-21 -14 9 -13 55 3 55 7 1 6 5 -4 13 -15 11 -15 16 -3 46 18 42 18 61 0 61 -8
0 -17 7 -20 16 -5 14 -8 14 -21 0 -8 -8 -15 -19 -15 -24 0 -6 -6 -13 -12 -15
-9 -4 -9 -6 1 -6 11 -1 10 -5 -5 -17 -10 -8 -13 -13 -6 -9 16 8 16 6 -12 -58
-14 -30 -35 -62 -47 -70 -13 -10 -19 -22 -16 -31 4 -9 2 -16 -4 -16 -6 0 -7
-4 -4 -10 3 -6 -1 -7 -9 -4 -13 5 -15 0 -10 -25 5 -23 2 -32 -10 -37 -9 -3
-14 -9 -12 -13 6 -9 -58 -138 -83 -167 -11 -12 -17 -25 -14 -28 4 -3 1 -6 -5
-6 -6 0 -9 -6 -6 -14 3 -7 -2 -16 -10 -19 -9 -4 -16 -2 -16 3 0 6 4 10 8 10 4
0 8 9 9 21 1 12 10 27 20 35 15 11 16 13 2 14 -9 0 -21 -11 -27 -25 -6 -14
-16 -25 -21 -25 -5 0 -14 -20 -20 -45 -7 -30 -16 -43 -23 -39 -6 4 -8 3 -4 -4
11 -18 -16 -62 -38 -63 -18 -1 -18 -2 -3 -6 14 -4 15 -8 7 -18 -6 -7 -13 -24
-15 -38 -4 -22 -2 -24 22 -19 22 4 25 2 20 -12 -4 -10 -7 -20 -7 -22 0 -2 -6
-4 -14 -4 -9 0 -12 -7 -9 -19 3 -13 -6 -27 -34 -47 -57 -43 -60 -47 -56 -74 2
-14 1 -36 -2 -49 -5 -20 -8 -22 -16 -10 -10 16 -11 14 -13 -24 -2 -26 -55 -87
-76 -87 -5 0 -14 -9 -20 -20 -6 -11 -16 -17 -22 -14 -6 4 -8 3 -5 -2 3 -6 2
-16 -3 -24 -5 -9 -5 -19 2 -27 8 -10 7 -12 -6 -7 -12 4 -16 0 -16 -16 0 -11
-4 -18 -10 -15 -5 3 -10 -1 -10 -9 0 -8 -5 -27 -12 -43 -6 -15 -11 -31 -10
-35 1 -5 -5 -8 -13 -8 -8 0 -14 -3 -14 -7 3 -19 -2 -34 -18 -51 -26 -26 -65
-100 -56 -105 5 -3 36 -11 71 -17 48 -10 62 -17 62 -30 0 -14 8 -17 45 -16 35
1 45 -2 45 -15 0 -21 -35 -61 -45 -51 -5 4 -5 1 -1 -6 10 -16 -12 -72 -27 -69
-6 1 -17 -16 -24 -37 -8 -22 -21 -46 -31 -55 -9 -9 -17 -22 -18 -28 -1 -7 -2
-20 -2 -29 -1 -10 -8 -14 -17 -10 -12 4 -14 0 -11 -19 5 -25 -32 -91 -48 -86
-12 4 -26 -21 -19 -32 3 -5 10 -3 15 4 6 10 7 6 3 -11 -4 -14 -13 -30 -21 -36
-7 -6 -11 -14 -7 -17 3 -4 0 -7 -7 -7 -11 0 -11 -3 -3 -11 12 -12 45 -5 41 8
-2 11 30 83 37 83 3 0 1 -9 -5 -19 -7 -13 -7 -20 1 -23 5 -2 -8 -23 -30 -47
-23 -25 -41 -48 -41 -53 0 -5 -5 -6 -12 -2 -7 4 -8 3 -4 -5 4 -6 2 -19 -6 -28
-7 -9 -12 -19 -12 -22 4 -16 -10 -29 -24 -24 -14 5 -15 3 -4 -8 15 -16 16 -33
0 -23 -7 4 -8 3 -4 -5 4 -6 -2 -23 -12 -39 -20 -27 -22 -32 -22 -54 0 -16 -13
-1 -16 20 -2 9 6 25 17 35 17 16 18 21 7 34 -10 13 -10 17 0 20 6 3 12 12 12
21 0 10 11 36 24 59 28 49 42 103 27 103 -6 0 -15 -9 -21 -20 -6 -11 -16 -17
-22 -14 -6 4 -8 3 -5 -3 8 -13 -37 -101 -64 -126 -20 -19 -26 -32 -9 -22 6 3
10 3 10 -2 -1 -11 -26 -43 -31 -39 -2 2 -5 -14 -6 -36 -2 -24 -10 -46 -20 -55
-10 -8 -12 -12 -6 -8 13 6 12 -13 -1 -77 -7 -32 8 -46 23 -21 6 10 11 13 11 7
0 -16 30 -13 30 3 0 7 -4 13 -8 13 -15 0 -11 48 5 61 12 10 15 10 9 2 -4 -9
-1 -13 9 -13 12 0 15 -5 10 -17 -4 -10 -9 -33 -12 -51 -4 -20 -16 -40 -29 -49
-13 -8 -21 -19 -18 -24 3 -5 -1 -9 -10 -9 -21 0 -25 -20 -10 -62 l13 -38 -39
0 c-21 0 -45 7 -54 15 -19 19 -40 19 -32 0 4 -12 -3 -15 -33 -15 -31 0 -42 -5
-56 -26 -15 -23 -15 -27 -1 -37 14 -10 12 -12 -14 -13 -16 -1 -27 2 -25 6 3 4
-2 13 -10 20 -13 11 -14 10 -9 -6 4 -14 1 -13 -14 6 -12 14 -24 21 -28 17 -4
-4 -1 -7 6 -7 7 0 10 -3 7 -7 -4 -3 -1 -13 6 -22 10 -14 10 -14 -5 -3 -9 8
-21 11 -27 8 -11 -7 -9 -32 4 -43 4 -4 5 -1 0 7 -4 8 2 5 14 -7 11 -12 21 -26
21 -31 0 -10 3 -10 -131 -15 -59 -2 -112 -8 -119 -12 -9 -5 -10 -1 -5 15 l7
23 -22 -21 c-13 -12 -26 -20 -29 -17 -4 2 -7 -5 -7 -15 0 -10 6 -16 12 -13 10
4 10 -3 2 -31 -6 -19 -15 -33 -20 -30 -5 3 -7 13 -3 23 5 13 4 13 -6 4 -21
-21 14 -50 59 -50 88 0 252 -16 247 -23 -3 -5 -1 -12 5 -15 6 -4 9 -1 8 7 -2
9 6 12 25 10 17 -2 26 2 25 9 -2 6 8 13 22 15 18 3 21 1 11 -5 -8 -5 -12 -18
-8 -30 3 -12 1 -21 -4 -21 -5 0 -9 -6 -9 -14 0 -8 -11 -24 -26 -35 -14 -11
-24 -23 -24 -26 1 -4 -2 -10 -6 -13 -4 -4 -4 0 0 8 4 8 -1 4 -12 -9 -11 -13
-24 -21 -31 -17 -6 4 -15 -2 -20 -16 -9 -21 -10 -21 -11 -3 0 18 -2 17 -14 -5
-15 -30 -10 -46 10 -29 15 12 -63 -146 -83 -168 -7 -8 -9 -21 -6 -30 4 -10 2
-14 -4 -10 -11 7 -55 -38 -46 -46 2 -3 -5 -10 -16 -17 -12 -6 -21 -7 -20 -3 7
42 -15 58 -27 21 -8 -28 -26 -41 -35 -27 -3 6 -9 1 -12 -10 -3 -12 -1 -19 4
-15 5 3 9 -4 9 -15 0 -12 -4 -21 -9 -21 -5 0 -12 -8 -16 -19 -3 -10 -22 -35
-41 -55 -20 -21 -33 -40 -29 -44 4 -4 10 -1 12 6 3 6 9 10 13 7 5 -3 4 -19 -2
-35 -5 -17 -14 -27 -20 -24 -6 4 -8 -7 -5 -30 3 -23 0 -39 -9 -47 -8 -7 -12
-14 -9 -17 3 -3 -1 -15 -8 -26 -7 -12 -24 -59 -37 -106 -27 -100 -37 -123 -51
-114 -6 3 -7 -4 -4 -18 7 -27 -21 -102 -35 -93 -6 3 -7 -1 -4 -9 4 -10 -1 -18
-11 -22 -13 -5 -14 -9 -3 -15 7 -5 9 -9 3 -10 -5 0 -20 -2 -32 -3 -19 -2 -21
0 -10 13 10 12 9 14 -5 8 -14 -5 -18 -1 -18 16 0 18 -2 19 -10 7 -5 -8 -10
-12 -10 -7 0 4 -12 1 -28 -6 -15 -7 -34 -13 -42 -12 -8 0 -21 -8 -29 -18 -12
-16 -12 -20 0 -28 10 -6 11 -9 2 -9 -7 0 -13 -7 -13 -16 0 -8 5 -12 10 -9 6 3
10 2 10 -3 0 -17 -13 -22 -28 -9 -13 10 -14 9 -3 -10 10 -19 9 -23 -4 -23 -8
0 -15 8 -15 18 0 14 -2 15 -10 2 -6 -10 -10 -11 -10 -2 0 6 -6 11 -12 10 -7
-2 -12 2 -11 8 1 7 -8 9 -23 6 -25 -4 -25 -5 -4 -19 11 -8 18 -18 15 -23 -3
-5 4 -11 15 -15 11 -3 27 -19 36 -35 11 -18 29 -31 49 -34 29 -6 70 -37 185
-140 19 -17 55 -47 80 -65 68 -52 120 -103 114 -113 -3 -5 -2 -8 3 -7 29 5 61
-29 48 -51 -8 -14 -45 7 -45 25 0 8 -8 12 -20 10 -22 -4 -26 5 -9 22 9 9 7 11
-8 7 -13 -4 -31 6 -55 30 -20 20 -33 36 -30 36 4 0 -11 9 -33 20 -60 30 -137
89 -130 100 3 6 -1 7 -10 4 -10 -4 -14 -2 -10 8 7 18 -41 43 -51 27 -3 -6 -3
-13 0 -16 3 -4 6 -1 6 6 0 7 5 9 10 6 6 -3 10 -15 10 -25 0 -10 9 -25 20 -33
11 -8 17 -17 12 -21 -4 -4 -2 -7 3 -6 6 1 17 2 25 1 13 -1 13 -2 0 -11 -12 -8
-12 -10 3 -16 22 -8 22 -28 0 -20 -12 4 -9 -1 7 -15 14 -11 19 -17 11 -13 -9
5 -12 3 -7 -4 4 -7 19 -12 33 -12 l26 0 -24 27 c-26 28 -10 22 28 -11 13 -11
23 -25 23 -32 0 -6 12 -20 28 -29 15 -10 31 -24 35 -32 10 -17 103 -64 111
-56 3 3 11 1 18 -4 7 -6 21 -9 30 -8 10 2 20 -1 24 -6 3 -5 14 -9 24 -9 20 0
36 -33 24 -52 -5 -8 -2 -9 10 -5 10 4 21 7 24 7 4 0 0 4 -8 10 -8 5 -12 12 -9
15 4 3 20 -7 37 -22 17 -15 35 -29 42 -31 19 -4 60 -56 55 -69 -2 -7 0 -13 6
-13 12 0 222 -211 215 -217 -8 -8 -125 84 -118 93 4 5 5 8 3 7 -2 -2 -11 3
-19 10 -13 10 -14 9 -8 -2 12 -19 -8 -6 -80 51 -32 26 -106 82 -164 125 -58
44 -104 84 -103 90 1 6 -9 10 -22 9 -26 -1 -36 -16 -11 -16 15 0 26 -21 26
-51 0 -10 5 -19 11 -19 5 0 7 4 4 10 -3 6 1 7 9 4 9 -3 14 -10 11 -14 -3 -5
-1 -11 5 -15 6 -4 8 -11 5 -16 -4 -5 1 -9 9 -9 9 0 16 -4 16 -10 0 -5 16 -27
35 -48 19 -22 31 -43 27 -47 -4 -5 -2 -5 5 -1 6 3 18 -3 26 -14 7 -11 16 -18
18 -15 7 6 134 -107 131 -117 -1 -4 1 -7 5 -6 16 3 43 -15 43 -29 0 -10 6 -12
20 -8 11 3 20 2 20 -3 0 -5 11 -14 24 -21 23 -13 43 -61 25 -61 -5 0 -9 -5 -9
-11 0 -8 4 -8 13 -1 9 8 21 7 40 -3 15 -8 31 -15 35 -15 4 -1 6 -8 6 -15 -1
-8 2 -12 7 -9 12 7 42 -10 38 -22 -1 -5 14 -18 35 -28 26 -14 33 -22 24 -28
-8 -6 -5 -7 9 -3 18 5 25 1 33 -20 5 -14 14 -23 20 -20 17 10 11 -7 -7 -20
-11 -8 -13 -14 -5 -19 7 -4 12 -2 12 3 0 6 5 11 11 11 5 0 7 -4 4 -10 -3 -5 1
-10 10 -10 10 0 13 5 9 13 -6 9 -5 9 7 0 12 -10 18 -10 27 -1 13 13 16 29 5
27 -22 -4 -33 3 -33 19 0 18 -74 94 -102 105 -16 6 -26 27 -13 27 2 0 28 -19
57 -43 29 -24 68 -52 86 -62 17 -11 32 -25 32 -31 0 -7 3 -20 7 -30 4 -11 3
-15 -5 -10 -6 3 -14 1 -18 -5 -5 -9 0 -10 15 -6 12 3 27 -1 36 -9 8 -8 18 -14
22 -14 3 0 8 -7 9 -16 1 -9 6 -19 10 -22 4 -4 4 1 1 11 -9 26 6 21 37 -12 18
-19 26 -36 22 -46 -3 -10 -2 -14 5 -9 19 11 67 -45 65 -76 -2 -23 1 -27 11
-18 7 5 10 15 6 21 -3 6 -1 7 5 3 6 -4 8 -14 5 -23 -4 -11 -3 -14 6 -9 7 5 21
0 32 -10 21 -18 26 -40 7 -28 -7 4 -8 3 -4 -5 4 -6 11 -9 16 -6 9 6 23 -12 26
-31 1 -7 11 -21 23 -33 21 -21 21 -21 21 -1 0 27 29 38 45 17 7 -10 18 -17 24
-17 7 0 10 -4 7 -9 -4 -5 4 -7 16 -3 16 4 19 2 13 -8 -5 -8 -4 -11 2 -7 6 4
29 -2 51 -13 23 -11 45 -20 51 -20 5 0 7 -9 4 -20 -3 -11 -9 -17 -14 -14 -5 3
-7 9 -4 14 3 5 -3 7 -15 5 -11 -2 -22 0 -25 6 -9 13 -22 11 -28 -5 -4 -9 3
-13 26 -12 17 0 32 -5 34 -11 3 -7 -9 -10 -37 -7 -23 2 -39 0 -35 -5 3 -5 0
-13 -6 -17 -8 -4 -9 -3 -5 4 4 7 1 12 -7 12 -11 0 -13 -7 -9 -22 4 -16 2 -19
-8 -13 -8 5 -11 4 -6 -3 4 -6 13 -9 22 -5 8 3 24 -3 36 -13 12 -11 18 -13 14
-6 -4 6 -2 12 3 12 6 0 11 -6 11 -12 1 -7 7 -2 15 12 8 14 14 19 15 13 0 -7
10 -13 23 -13 18 0 19 -2 7 -10 -13 -8 -12 -10 3 -10 9 0 16 -6 15 -12 -2 -7
5 -12 15 -12 21 2 21 -3 2 -22 -13 -14 -16 -14 -21 0 -3 9 -13 16 -21 16 -9 0
-11 5 -7 12 5 9 3 9 -9 -1 -9 -7 -14 -18 -10 -25 4 -6 -2 -4 -12 4 -17 13 -18
13 -13 0 4 -11 -1 -16 -16 -17 -11 -1 -31 -4 -43 -8 -15 -5 -23 -3 -23 4 0 7
-5 9 -12 5 -7 -4 -8 -3 -4 4 5 9 13 9 26 2 11 -6 21 -6 24 -1 3 5 -8 11 -25
15 -45 9 -49 8 -42 -10 4 -11 0 -14 -18 -12 -13 2 -24 -1 -24 -7 0 -5 6 -9 13
-9 9 2 10 -2 2 -11 -8 -10 -6 -15 9 -20 12 -4 18 -12 14 -21 -6 -16 14 -17 90
-5 39 6 50 5 54 -6 3 -8 0 -19 -8 -25 -11 -8 -10 -9 4 -4 15 5 17 2 12 -15 -5
-15 -4 -19 4 -15 6 4 11 3 11 -2 0 -6 12 -13 27 -17 15 -3 31 -11 35 -17 9
-16 57 -17 51 -2 -3 9 5 10 33 4 21 -5 42 -6 47 -3 6 3 7 1 3 -5 -4 -7 -2 -12
3 -12 6 0 11 -9 11 -21 0 -11 4 -17 10 -14 5 3 10 1 10 -4 0 -6 -10 -11 -22
-12 -22 0 -22 -1 2 -10 13 -6 36 -9 50 -8 33 3 72 -10 65 -22 -4 -5 2 -6 11
-2 14 5 16 3 11 -11 -6 -16 -2 -18 33 -14 23 2 40 -1 40 -7 0 -5 4 -4 9 3 6
11 24 11 94 1 48 -7 87 -16 87 -20 0 -5 6 -6 13 -3 17 6 109 -65 100 -79 -3
-5 0 -7 8 -4 8 2 33 -13 55 -35 37 -35 41 -44 34 -69 -9 -30 -1 -42 38 -53 12
-4 22 -12 22 -17 0 -6 -4 -7 -10 -4 -5 3 -10 1 -10 -4 0 -17 18 -13 29 7 6 10
11 12 11 4 0 -7 4 -11 9 -8 5 3 28 -1 52 -10 24 -9 61 -18 82 -19 21 -1 44 -8
50 -15 8 -9 8 -11 1 -7 -7 4 -15 0 -18 -9 -10 -26 -7 -27 18 -10 14 9 27 12
31 7 3 -5 1 -12 -5 -16 -5 -3 -10 -4 -10 0 0 3 -9 1 -20 -5 -11 -6 -19 -14
-19 -18 4 -22 -3 -32 -21 -32 -11 0 -20 -5 -20 -11 0 -6 9 -13 20 -16 11 -3
20 -9 20 -14 0 -5 9 -9 20 -9 11 0 20 -4 20 -9 0 -5 9 -7 20 -4 11 3 20 1 20
-5 0 -6 10 -8 22 -4 18 4 20 2 15 -17 -4 -18 -3 -20 8 -11 10 8 14 7 18 -2 4
-11 6 -10 6 0 1 7 6 10 11 7 17 -10 11 -25 -12 -35 -21 -8 -20 -8 8 -7 21 1
30 6 27 15 -7 18 17 15 58 -7 20 -11 45 -17 56 -15 20 5 73 -39 73 -60 0 -6
-4 -5 -9 3 -7 11 -10 9 -16 -8 -3 -12 -11 -19 -16 -15 -5 3 -7 9 -4 13 2 5 -6
6 -19 4 -13 -3 -27 0 -30 6 -12 19 -36 12 -36 -10 0 -11 5 -17 10 -14 6 3 10
-1 10 -9 0 -9 8 -17 18 -17 9 -1 24 -2 32 -3 9 0 15 -10 14 -23 -1 -20 3 -23
30 -22 23 1 25 3 9 6 -13 2 -23 8 -23 13 0 5 15 4 33 -2 17 -5 50 -13 72 -18
22 -4 52 -10 66 -14 19 -6 37 1 78 28 29 20 56 36 60 36 3 0 23 14 44 31 21
17 42 27 48 23 7 -4 9 -3 6 3 -4 6 10 22 31 36 20 14 53 40 72 58 19 18 64 53
100 77 36 24 76 53 89 63 13 10 28 16 34 12 5 -3 7 -1 3 5 -7 11 80 79 96 74
5 -1 7 2 3 7 -7 12 32 34 45 26 6 -4 9 -1 8 7 -2 7 5 12 14 12 10 -1 16 2 13
6 -8 12 103 93 116 84 8 -4 9 -3 5 4 -5 8 1 12 16 13 13 0 17 3 11 6 -8 3 11
24 45 51 49 40 94 79 162 142 9 8 43 37 75 65 33 27 65 54 71 60 7 5 33 26 59
45 25 19 61 47 79 62 18 15 36 25 40 23 3 -3 4 -2 1 1 -4 6 37 42 86 74 12 8
30 22 38 30 9 8 35 28 56 44 22 17 42 33 45 36 15 19 85 58 93 53 6 -3 7 -1 3
5 -7 11 219 187 241 187 6 0 15 4 20 9 5 5 2 6 -7 2 -8 -4 -7 -1 4 6 10 7 32
24 47 36 18 14 29 19 29 11 0 -7 3 -9 6 -6 4 4 -2 19 -12 34 -10 15 -17 31
-16 36 1 4 -7 7 -17 7 -11 0 -22 4 -25 9 -3 5 2 8 11 7 9 0 22 10 29 23 27 53
172 178 189 163 5 -4 5 -2 2 4 -6 11 19 29 36 26 4 -1 6 1 5 5 -2 5 0 9 4 11
4 2 29 23 55 48 26 24 86 68 132 97 46 28 107 72 135 97 28 25 76 62 107 82
31 20 80 59 109 87 29 28 57 48 63 44 5 -3 7 -1 4 5 -9 13 156 164 174 160 7
-2 13 4 14 12 0 8 8 14 18 14 9 -1 15 2 12 6 -6 10 91 71 116 73 10 1 17 4 16
7 -1 3 9 19 22 37 15 20 29 29 39 25 12 -4 14 -1 9 12 -4 10 -7 24 -7 32 0 8
-9 14 -19 14 -10 0 -22 7 -25 16 -4 10 -2 13 7 8 6 -4 5 1 -4 12 -9 10 -21 46
-28 79 -8 38 -22 70 -39 88 -14 15 -23 27 -20 27 3 0 -12 17 -33 39 -22 21
-39 48 -39 60 0 12 -6 24 -14 27 -8 3 -11 15 -8 32 5 28 26 55 35 46 2 -3 4 9
3 25 0 17 -4 31 -9 31 -12 0 -47 -64 -42 -77 6 -17 -8 -24 -25 -12 -10 6 -11
9 -2 9 6 0 12 4 12 10 0 5 -7 7 -15 4 -8 -4 -15 -1 -15 6 0 6 5 8 11 4 8 -5
10 3 7 24 -4 27 -1 31 21 34 17 2 25 8 22 18 -2 8 -4 21 -4 28 0 17 -14 15
-21 -3 -3 -8 -13 -15 -23 -15 -17 1 -17 1 0 14 15 12 16 15 2 26 -13 11 -14
10 -9 -4 5 -12 2 -15 -10 -10 -9 3 -16 10 -16 16 0 5 -5 6 -10 3 -6 -4 -7 -11
-4 -17 4 -7 2 -8 -5 -4 -6 4 -8 12 -5 18 4 6 0 16 -8 22 -17 13 -32 46 -29 64
1 6 -5 12 -14 12 -9 0 -14 4 -11 9 4 5 0 12 -6 14 -7 3 1 6 18 6 16 1 36 -5
43 -11 10 -11 12 -10 9 1 -2 7 3 16 11 19 8 2 11 0 7 -6 -4 -7 9 -10 39 -9 28
1 45 7 45 15 0 6 -8 12 -18 12 -10 0 -21 3 -25 6 -3 4 -30 8 -59 10 -29 3 -62
6 -73 9 -11 2 -23 4 -26 4 -11 2 -75 66 -93 93 -10 15 -14 33 -10 39 4 7 3 9
-3 6 -12 -8 -41 51 -38 80 1 12 -2 20 -7 17 -5 -3 -18 15 -29 40 -11 25 -24
46 -29 46 -9 0 -70 119 -70 138 0 12 -29 31 -45 29 -5 -1 -11 6 -13 16 -2 9 1
17 7 17 6 0 11 7 11 16 0 14 -2 15 -17 3 -10 -8 -14 -9 -10 -2 4 7 -2 18 -15
27 -12 9 -18 16 -13 16 6 0 4 4 -3 9 -9 5 -11 17 -6 34 8 36 22 34 32 -5 8
-27 11 -30 17 -15 5 12 0 25 -19 42 -27 25 -42 33 -31 16 3 -5 0 -13 -6 -17
-8 -5 -10 2 -7 23 3 25 -1 34 -24 49 -15 11 -26 25 -23 32 3 8 0 10 -7 6 -8
-5 -9 -2 -5 9 4 10 2 16 -5 14 -6 -1 -13 4 -16 12 -3 10 1 13 17 8 14 -3 21 0
21 9 0 7 -6 11 -14 8 -18 -7 -30 12 -15 22 8 5 9 3 4 -6 -5 -9 -4 -11 3 -6 9
5 9 13 2 27 -6 10 -13 19 -16 19 -3 0 -2 -4 1 -10 3 -5 2 -10 -3 -10 -13 0
-25 48 -16 62 4 7 3 8 -4 4 -13 -8 -31 22 -27 47 2 9 -1 17 -6 17 -5 0 -9 7
-9 15 0 9 -12 21 -26 27 -20 9 -25 17 -21 36 3 18 0 26 -14 29 -13 4 -18 11
-14 23 4 13 -1 20 -17 25 -30 9 -59 35 -52 46 3 5 -1 9 -9 9 -9 0 -17 14 -21
35 -4 19 -11 35 -17 35 -6 0 -8 4 -4 9 3 6 -3 18 -13 28 -29 29 -92 111 -92
119 0 4 -9 18 -21 30 -11 12 -21 28 -22 36 -2 12 -25 47 -62 97 -5 7 -22 26
-37 41 -16 16 -28 33 -28 40 0 6 -4 8 -10 5 -5 -3 -10 0 -10 8 0 7 -11 24 -25
37 -13 12 -22 27 -19 31 3 5 -3 9 -12 9 -10 0 -15 3 -11 6 3 4 -4 15 -16 26
-16 15 -18 18 -5 14 10 -3 20 -1 23 4 5 9 -14 14 -36 12 -4 -1 -12 18 -18 42
-6 23 -24 60 -41 81 -33 42 -37 55 -15 55 9 0 12 6 9 15 -4 10 -10 12 -18 6
-7 -6 -17 -5 -28 3 -14 10 -15 15 -5 26 10 10 9 12 -5 7 -16 -6 -26 17 -33 78
-2 12 -12 36 -23 55 -12 18 -19 37 -16 42 3 4 0 8 -5 8 -6 0 -10 3 -9 8 0 4
-8 27 -20 52 -12 25 -22 50 -22 56 0 6 -7 25 -16 42 -8 18 -13 36 -9 42 3 5 1
10 -4 10 -6 0 -11 7 -11 15 0 8 -4 15 -10 15 -5 0 -10 6 -10 13 0 7 -15 44
-34 81 -19 38 -32 75 -29 84 5 11 3 13 -7 7 -10 -6 -12 -4 -7 8 3 10 3 17 -1
17 -5 0 -16 17 -26 37 -10 20 -38 70 -62 110 -25 41 -42 79 -38 85 4 6 3 8 -3
5 -14 -9 -30 12 -35 43 -1 14 -9 31 -15 38 -20 20 -16 37 5 21 14 -11 15 -11
5 1 -7 8 -13 22 -13 31 0 9 -6 22 -14 28 -7 6 -12 23 -10 37 2 18 -2 24 -11
20 -13 -5 -30 22 -20 32 3 3 5 -1 5 -8 0 -7 2 -11 5 -8 9 8 -6 38 -16 32 -5
-3 -16 11 -26 31 -11 24 -19 31 -25 23 -6 -10 -8 -9 -8 3 0 8 -10 36 -23 61
-21 42 -22 46 -5 43 24 -5 23 -2 -12 33 -16 17 -30 34 -30 38 0 4 -9 16 -20
28 -53 54 -70 80 -61 89 7 7 1 15 -16 24 -29 15 -46 17 -20 2 9 -5 17 -15 17
-20 0 -6 -4 -7 -10 -4 -5 3 -10 1 -10 -4 0 -6 3 -11 8 -11 10 0 46 -79 39 -86
-6 -6 -87 147 -87 165 0 12 132 35 139 23 15 -21 79 -24 66 -2 -9 15 85 22
103 8 9 -7 13 -8 9 -2 -4 7 0 14 8 18 26 9 17 21 -29 38 -38 14 -45 14 -58 1
-10 -10 -37 -14 -84 -14 -45 0 -63 -3 -54 -9 9 -6 10 -10 3 -10 -6 0 -15 4
-18 10 -7 11 -78 11 -96 -1 -8 -5 -17 1 -25 14 -61 111 -84 162 -80 174 3 8 1
11 -4 8 -13 -8 -132 243 -124 258 4 7 3 8 -2 4 -10 -9 -57 91 -48 104 3 5 -3
6 -12 2 -12 -4 -15 -2 -12 8 3 8 -1 20 -9 27 -7 7 -13 19 -12 25 0 9 2 8 6 0
2 -7 9 -13 14 -13 4 0 6 7 3 15 -4 8 -13 15 -21 15 -8 0 -21 17 -29 38 -9 20
-33 71 -55 114 -24 46 -37 83 -33 95 4 13 3 15 -4 4 -7 -10 -20 7 -53 68 -23
44 -56 93 -72 108 -24 23 -28 24 -19 7 10 -19 8 -21 -11 -21 -48 -1 -53 -3
-32 -15 11 -7 32 -11 48 -9 15 1 27 -2 27 -8 0 -5 -10 -8 -21 -6 -12 3 -18 1
-15 -3 4 -4 12 -8 17 -8 5 -1 13 -2 18 -3 11 -1 41 -58 41 -78 0 -12 -9 -13
-42 -8 -64 10 -79 15 -72 27 4 7 -2 8 -17 3 -13 -5 -28 -8 -34 -8 -32 0 -45 4
-40 13 3 6 -1 10 -10 10 -9 0 -13 -5 -9 -11 4 -8 1 -8 -12 -1 -11 5 -39 13
-64 16 -51 7 -83 36 -53 48 10 3 12 7 5 7 -7 1 -26 29 -42 64 -30 62 -30 62
-8 65 12 2 67 -4 123 -13 85 -14 142 -15 238 -6 4 1 -1 10 -11 21 -31 34 -153
295 -155 332 -1 9 -5 14 -9 12 -8 -5 -115 209 -168 338 -17 43 -28 83 -24 90
4 7 3 10 -1 5 -14 -12 -100 220 -97 265 0 9 -7 18 -16 20 -12 4 -23 29 -36 81
-11 43 -22 77 -25 77 -3 0 -21 -48 -39 -108z m363 -1910 c-3 -7 -1 -11 4 -7 9
5 69 -82 74 -108 1 -6 8 -18 15 -25 14 -16 16 -36 3 -27 -5 3 -13 1 -16 -5 -4
-6 -3 -10 2 -9 21 4 33 -2 33 -16 0 -8 -4 -15 -10 -15 -5 0 -10 -5 -10 -11 0
-17 27 -39 48 -39 15 0 23 -12 32 -47 7 -27 17 -53 22 -60 5 -7 5 -14 -2 -18
-5 -3 -10 -12 -10 -18 0 -9 2 -9 8 0 5 8 14 -6 26 -40 10 -28 22 -61 26 -72
29 -66 39 -98 33 -108 -3 -6 -1 -7 5 -3 7 4 12 3 12 -1 0 -5 16 -36 36 -69 20
-32 37 -65 37 -71 0 -7 9 -15 19 -19 10 -3 18 -14 18 -25 0 -11 4 -18 10 -14
10 6 42 -48 35 -59 -3 -3 -2 -4 2 -1 5 4 53 -52 53 -62 0 -12 -19 0 -23 15 -4
15 -5 15 -6 -1 -1 -11 7 -21 19 -24 11 -3 18 -8 16 -12 -2 -3 5 -15 16 -26 19
-20 19 -20 12 0 -7 19 -6 18 17 -2 13 -12 35 -32 49 -43 14 -12 18 -18 10 -14
-13 7 -13 6 -1 -9 8 -10 16 -15 19 -13 2 3 14 1 25 -5 14 -8 18 -8 13 0 -10
16 3 13 20 -4 9 -8 11 -15 5 -15 -6 0 -11 -6 -11 -14 0 -8 -8 -17 -17 -19 -13
-3 -11 -5 6 -6 20 -1 21 -3 11 -16 -9 -11 -9 -15 -1 -15 7 0 10 -4 6 -9 -3 -5
-1 -12 5 -16 6 -4 7 -11 4 -17 -4 -6 -2 -8 4 -4 6 3 21 -8 33 -26 14 -19 16
-28 7 -20 -12 10 -18 10 -23 1 -4 -6 -1 -15 6 -20 8 -5 10 -9 4 -9 -5 0 -19
11 -31 25 l-22 25 -4 -29 c-2 -17 -1 -28 4 -25 4 3 8 -4 8 -15 0 -12 5 -21 10
-21 6 0 10 -7 10 -15 0 -8 5 -15 11 -15 6 0 9 -9 6 -20 -3 -11 -1 -20 4 -20 5
0 9 -5 9 -11 0 -5 -4 -7 -10 -4 -17 11 -11 -33 10 -72 11 -21 20 -43 20 -50 0
-7 5 -13 11 -13 6 0 8 -7 5 -16 -3 -8 -2 -12 3 -9 5 3 17 -5 25 -17 9 -13 16
-17 16 -9 0 11 5 10 19 -3 24 -21 36 -6 16 20 -15 18 -15 18 -9 -1 5 -15 -1
-12 -25 12 -35 36 -50 86 -30 98 7 5 10 4 6 -2 -4 -6 -1 -13 7 -16 13 -5 63
-83 68 -108 2 -8 8 -18 14 -24 22 -19 64 -106 58 -117 -4 -7 -2 -8 4 -4 12 7
55 -71 46 -85 -3 -5 0 -9 6 -9 7 0 10 -6 7 -12 -2 -7 -15 -12 -28 -10 -22 2
-22 1 -6 -9 11 -6 26 -12 35 -14 10 -2 18 -4 20 -4 1 -1 -5 -12 -14 -26 -9
-15 -13 -25 -8 -24 29 5 43 -2 39 -21 -2 -11 0 -18 4 -16 4 3 13 -6 19 -19 11
-23 23 -30 46 -26 5 1 6 -7 3 -19 -3 -11 -1 -20 5 -20 5 0 7 -4 4 -9 -3 -5 2
-15 12 -22 15 -12 16 -12 5 2 -7 9 -10 19 -6 22 15 16 21 4 20 -37 -2 -43 16
-79 27 -53 2 7 4 3 4 -8 -2 -41 3 -70 10 -60 4 6 16 12 26 13 16 3 18 1 8 -10
-12 -15 -5 -58 9 -58 11 0 7 23 -5 31 -4 4 -3 10 3 13 7 5 14 -4 17 -23 4 -16
13 -32 21 -35 11 -5 13 -14 8 -38 -7 -32 -7 -33 12 -15 17 14 22 15 31 4 14
-16 4 -59 -12 -50 -6 3 -7 2 -3 -3 5 -5 12 -9 15 -9 17 -1 32 -18 32 -36 0
-11 5 -17 10 -14 6 3 10 1 10 -4 0 -6 -4 -11 -10 -11 -5 0 -10 -8 -10 -17 0
-13 3 -14 8 -5 13 19 66 -41 59 -67 -6 -23 26 -53 47 -45 7 3 20 -11 29 -31
21 -43 22 -70 2 -35 -8 14 -15 23 -15 20 -7 -30 -7 -40 2 -40 6 0 8 -11 6 -24
-3 -16 0 -27 9 -30 15 -6 14 -27 -2 -38 -5 -4 -8 -21 -7 -38 3 -25 1 -29 -15
-23 -10 4 -21 11 -25 17 -4 6 -12 5 -23 -4 -13 -11 -18 -11 -24 -1 -6 10 -10
9 -15 -4 -3 -10 -12 -15 -21 -11 -8 3 -15 1 -15 -4 0 -6 7 -10 15 -10 18 0 20
-26 3 -36 -7 -4 -8 -3 -4 4 4 7 3 12 -2 12 -16 0 -33 -48 -19 -54 7 -2 3 -5
-7 -5 -11 -1 -16 -4 -13 -8 4 -3 1 -13 -5 -22 -10 -13 -10 -14 1 -4 10 8 21 6
48 -10 19 -11 38 -16 41 -11 8 11 30 17 54 16 10 0 21 4 24 10 4 7 2 8 -4 4
-7 -4 -12 -3 -12 2 0 23 102 28 124 7 17 -17 30 -20 21 -5 -12 19 32 10 50
-10 10 -11 15 -20 12 -20 -3 0 5 -11 18 -25 14 -13 25 -30 25 -38 0 -8 7 -20
16 -28 21 -17 55 -85 51 -101 -2 -7 -2 -9 1 -4 3 5 17 -14 32 -44 22 -43 25
-57 16 -76 -13 -28 -31 -31 -45 -6 -10 16 -10 15 -11 -3 -1 -11 -4 -14 -7 -7
-2 6 -9 10 -14 7 -5 -4 -37 1 -71 9 -35 8 -78 18 -95 21 -18 4 -33 10 -33 15
0 5 -10 6 -22 4 -13 -3 -42 -5 -65 -4 -36 1 -43 -2 -43 -18 0 -15 5 -18 26
-14 15 3 25 1 22 -4 -7 -10 11 -27 32 -32 11 -3 11 0 0 12 -16 21 -6 21 14 0
21 -20 20 -36 -1 -32 -14 2 -17 -5 -18 -37 -1 -47 4 -65 17 -65 5 0 7 4 4 9
-3 5 1 12 10 15 12 4 15 2 10 -9 -3 -8 -1 -15 4 -15 6 0 10 9 10 20 0 11 7 20
15 20 8 0 15 -6 15 -13 0 -7 9 -13 20 -14 13 -1 20 4 20 15 0 13 -2 14 -9 3
-6 -9 -11 -10 -15 -2 -10 16 14 23 60 18 21 -2 49 -1 61 4 23 8 39 -12 26 -34
-3 -7 3 -3 14 8 12 11 20 24 19 30 0 5 4 9 9 10 6 0 16 4 24 9 10 6 12 5 7 -3
-9 -14 2 -51 15 -51 5 0 9 6 8 13 -3 27 2 39 15 34 7 -3 18 -1 24 5 17 17 34
0 22 -22 -15 -28 -12 -36 6 -14 15 18 15 18 9 -10 -5 -23 -3 -27 9 -23 10 4
16 1 16 -8 0 -8 5 -15 10 -15 6 0 10 -5 10 -11 0 -5 -5 -7 -12 -3 -7 5 -8 3
-3 -6 5 -8 9 -23 10 -34 3 -36 9 -50 31 -71 35 -34 55 -73 42 -81 -7 -5 -4
-10 10 -15 13 -5 22 -17 22 -29 0 -11 6 -20 13 -21 9 0 9 -2 -1 -6 -10 -4 -8
-11 9 -29 12 -13 17 -24 11 -24 -7 0 -12 5 -12 10 0 23 -15 8 -17 -17 -1 -18
2 -22 7 -12 7 11 10 10 16 -5 5 -14 9 -15 15 -4 6 9 9 7 9 -8 0 -22 22 -48 32
-38 3 3 9 1 13 -5 3 -6 2 -11 -3 -11 -5 0 -9 -8 -9 -17 0 -14 3 -13 15 5 15
23 42 30 42 11 0 -5 -6 -7 -12 -3 -8 4 -10 3 -5 -2 5 -5 14 -9 20 -9 6 0 14
-11 18 -25 4 -14 7 -18 8 -10 1 12 3 12 17 -2 13 -12 14 -20 5 -36 -8 -14 -8
-23 -1 -27 6 -4 9 -1 8 6 -2 6 2 13 8 16 12 4 34 -39 34 -68 0 -11 4 -18 9
-15 13 9 44 -31 35 -46 -4 -7 -3 -10 1 -5 11 10 46 -23 38 -36 -3 -5 -1 -7 4
-4 16 10 44 -26 33 -43 -7 -11 -15 -12 -48 -2 -22 7 -45 19 -52 27 -7 8 -16
12 -20 10 -15 -9 -89 26 -95 46 -4 10 -15 19 -25 19 -10 0 -21 4 -24 9 -3 4 4
8 16 7 12 0 23 5 25 12 4 11 -5 14 -54 15 -12 0 -21 3 -19 6 1 3 -5 14 -16 24
-17 16 -18 16 -19 0 0 -16 -1 -16 -8 1 -5 14 -10 16 -15 8 -10 -16 -29 -15
-20 1 5 9 4 9 -6 0 -11 -10 -17 -10 -28 0 -12 9 -16 9 -19 0 -3 -7 -11 -13
-19 -13 -9 0 -13 3 -11 8 3 4 -10 8 -29 9 -28 1 -34 -2 -34 -18 0 -10 6 -19
14 -19 9 0 12 -7 10 -17 -4 -14 1 -18 20 -19 14 -1 23 2 20 7 -3 5 -1 9 5 9 5
0 12 -4 16 -10 3 -5 12 -7 19 -4 9 3 13 -1 13 -13 -1 -10 3 -17 10 -16 6 1 10
-3 9 -10 -3 -20 -16 -37 -29 -37 -8 0 -8 3 2 9 9 6 10 11 2 15 -14 9 -31 -1
-27 -17 1 -7 1 -9 -1 -4 -9 15 -31 6 -36 -14 -5 -17 -11 -20 -31 -15 -15 4
-26 2 -26 -3 0 -6 -8 -8 -17 -5 -15 5 -16 4 -3 -5 8 -6 25 -11 36 -11 26 0 37
-22 21 -41 -10 -11 -9 -11 5 -1 10 9 18 9 22 3 4 -6 14 -8 24 -5 14 5 13 2 -3
-11 -20 -17 -19 -17 10 -12 31 5 69 -8 61 -22 -6 -9 42 -33 53 -27 4 3 8 -4 8
-15 2 -21 -7 -24 -25 -9 -9 7 -9 7 -2 -2 16 -19 11 -32 -6 -17 -15 12 -16 11
-10 -9 4 -12 4 -22 -1 -23 -39 -3 -71 -19 -39 -19 14 0 15 -2 4 -14 -11 -12
-15 -11 -24 5 -5 11 -13 17 -17 13 -3 -4 -2 -15 3 -25 6 -9 7 -19 2 -22 -4 -2
-1 -2 5 -1 7 2 17 -5 22 -14 10 -16 10 -16 11 0 0 24 50 60 77 55 12 -2 20 0
17 4 -3 5 15 9 40 9 33 0 46 4 46 14 0 8 9 18 20 21 11 3 20 11 20 16 0 5 11
-1 25 -13 14 -12 25 -32 25 -45 0 -19 5 -23 33 -24 17 0 26 -3 19 -6 -6 -2
-10 -9 -6 -14 3 -5 -2 -9 -12 -9 -13 0 -14 -3 -4 -15 7 -8 9 -15 5 -15 -4 0
-2 -6 4 -14 8 -10 9 -16 1 -21 -5 -3 -10 1 -10 9 0 9 -5 16 -11 16 -5 0 -7 5
-4 10 9 15 -5 12 -22 -5 -8 -9 -12 -22 -9 -30 3 -8 1 -15 -5 -15 -6 0 -7 -4
-4 -10 3 -5 0 -10 -7 -11 -11 0 -11 -2 0 -6 7 -3 23 3 35 13 12 10 3 -2 -20
-25 -24 -23 -47 -39 -53 -36 -6 4 -9 3 -8 -2 2 -4 -6 -17 -17 -29 -11 -12 -28
-30 -37 -40 -9 -10 -34 -35 -55 -55 -206 -193 -197 -186 -231 -183 -17 1 -32
-2 -32 -6 0 -5 -7 -16 -16 -25 -15 -15 -14 -15 10 -9 39 9 33 -14 -16 -59 -31
-29 -44 -35 -50 -25 -6 9 -7 6 -3 -9 4 -15 -2 -28 -21 -46 -32 -30 -66 -26
-38 4 9 10 14 23 12 30 -4 12 -71 -52 -70 -67 0 -5 -7 -17 -15 -26 -9 -10 -11
-18 -6 -18 6 0 14 7 17 16 3 8 10 13 15 10 5 -3 11 3 14 14 3 13 10 18 21 14
18 -7 22 -34 4 -34 -6 0 -8 -3 -5 -7 9 -8 -31 -36 -42 -29 -5 3 -14 -1 -21 -9
-7 -8 -23 -15 -35 -15 -13 0 -25 -7 -29 -15 -3 -8 -12 -12 -20 -9 -9 3 -20 -3
-28 -15 -7 -12 -21 -21 -30 -21 -11 0 -15 -5 -12 -15 5 -13 -7 -20 -20 -12 -3
1 -17 -9 -33 -23 -15 -14 -22 -18 -15 -10 6 8 12 22 12 32 0 15 4 17 19 9 19
-11 34 -4 25 10 -7 12 -84 11 -84 -1 0 -6 -9 -6 -26 0 -35 14 -33 14 -50 -25
-9 -21 -23 -37 -38 -41 -13 -3 -32 -21 -43 -42 -11 -20 -24 -36 -30 -35 -14 3
-35 -35 -23 -42 6 -3 10 1 10 9 0 13 22 22 33 14 2 -2 24 13 48 32 24 20 57
44 72 54 l28 17 -17 -25 c-9 -15 -27 -29 -40 -32 -13 -3 -21 -10 -18 -15 3 -5
-2 -9 -11 -9 -9 0 -13 -4 -10 -10 4 -6 -1 -7 -12 -3 -10 3 -15 3 -11 -2 4 -4
-2 -19 -12 -33 -26 -32 -25 -46 1 -31 16 8 18 13 9 19 -7 4 3 7 24 7 20 -1 36
-4 36 -7 0 -9 -57 -40 -64 -35 -3 3 -4 2 -1 -1 9 -13 -16 -43 -33 -39 -11 2
-22 -6 -29 -21 -8 -18 -8 -22 0 -18 7 4 -4 -10 -23 -30 -19 -20 -40 -34 -47
-32 -6 3 -13 0 -15 -6 -2 -5 -20 -10 -40 -10 -27 0 -39 -5 -43 -18 -3 -10 -17
-21 -30 -24 -14 -4 -25 -11 -25 -17 0 -6 4 -7 10 -4 5 3 10 1 10 -4 0 -6 -5
-11 -11 -11 -8 0 -7 -6 2 -17 9 -10 9 -14 2 -10 -8 5 -18 -4 -28 -23 -14 -26
-31 -36 -58 -31 -5 1 -6 -3 -3 -7 3 -5 -4 -18 -16 -28 -12 -11 -18 -13 -14 -7
5 9 2 11 -8 7 -8 -3 -12 -12 -9 -20 3 -8 -1 -14 -11 -14 -10 0 -13 -6 -9 -16
3 -8 12 -13 20 -10 8 3 11 1 8 -4 -16 -26 22 -5 62 34 25 25 50 43 56 42 7 -2
9 -1 5 1 -13 7 12 43 29 43 9 0 14 3 10 6 -10 10 93 104 114 104 10 0 18 3 16
8 -1 4 1 8 6 10 4 1 16 10 26 20 26 23 74 57 83 57 4 0 13 6 20 13 6 6 16 12
21 12 11 0 37 26 37 37 0 12 72 73 87 73 7 0 13 5 13 11 0 6 7 8 16 5 8 -3 12
-2 9 4 -3 6 -2 10 3 10 5 0 24 14 41 32 31 31 43 32 19 1 -38 -47 -79 -84 -88
-78 -6 4 -9 2 -8 -3 4 -14 -280 -291 -285 -278 -2 6 -3 3 -1 -8 3 -21 -53 -96
-72 -96 -7 0 -15 6 -18 13 -3 6 -3 0 0 -15 5 -21 2 -28 -10 -28 -9 0 -16 -5
-16 -11 0 -5 -4 -7 -10 -4 -5 3 -10 0 -10 -7 -1 -13 -44 -68 -55 -68 -3 0 -21
-18 -41 -40 -20 -22 -45 -40 -56 -40 -10 0 -17 -4 -13 -9 3 -6 -3 -15 -14 -20
-29 -16 -38 -13 -15 5 18 14 18 15 -4 4 -12 -6 -20 -15 -17 -20 3 -5 -4 -14
-15 -20 -11 -6 -18 -15 -15 -19 3 -5 -2 -12 -11 -15 -8 -3 -12 -10 -9 -16 3
-5 1 -10 -5 -10 -6 0 -9 -4 -6 -8 3 -5 -4 -19 -15 -30 -20 -22 -35 -30 -25
-14 3 5 -1 9 -9 9 -18 0 -19 -9 -2 -27 10 -12 9 -12 -5 -1 -19 14 -53 8 -44
-8 9 -14 -4 -41 -20 -41 -8 0 -14 -4 -14 -10 0 -5 -10 -10 -22 -10 -19 0 -20
2 -8 10 13 8 12 10 -2 10 -10 0 -18 -7 -18 -15 0 -13 11 -19 32 -17 3 1 9 -5
12 -14 3 -8 2 -13 -2 -10 -4 2 -15 -2 -25 -9 -15 -11 -15 -14 -2 -25 22 -18
18 -29 -7 -23 -13 3 -20 3 -16 -2 9 -10 -25 -46 -48 -49 -9 -1 -18 -10 -20
-19 -1 -10 2 -14 8 -11 6 4 2 -5 -7 -20 -15 -22 -25 -26 -66 -26 -26 0 -51 -4
-54 -10 -3 -5 -11 -10 -16 -10 -6 0 -7 4 -4 10 10 16 -28 -2 -42 -19 -7 -9
-13 -12 -13 -8 0 5 -7 1 -16 -8 -9 -9 -23 -14 -31 -11 -8 3 -11 1 -8 -4 5 -9
1 -11 -20 -10 -3 0 -17 -12 -30 -27 l-24 -28 -1 24 c0 24 0 24 -15 5 -13 -16
-14 -16 -9 -1 4 11 1 17 -10 17 -19 0 -21 11 -3 29 10 11 10 13 0 7 -7 -4 -13
-2 -13 4 0 8 9 10 25 6 22 -6 25 -3 23 19 -1 13 -8 27 -16 30 -7 2 -11 1 -8
-4 3 -5 -1 -14 -9 -21 -13 -11 -15 -9 -11 11 3 13 5 27 5 32 1 4 8 7 17 7 8 0
12 5 9 10 -4 6 -11 8 -16 5 -5 -4 -9 -1 -9 4 0 6 8 11 18 12 14 0 14 2 -3 8
-11 5 -23 7 -27 4 -13 -7 -9 52 4 65 7 7 8 12 3 12 -14 0 -14 93 -1 102 7 5 7
8 -1 8 -8 0 -11 13 -8 40 2 22 -1 40 -6 40 -6 0 -5 9 2 21 9 17 8 23 -2 30
-12 7 -11 11 1 19 10 6 11 10 3 10 -18 0 -16 17 5 38 17 18 29 68 13 58 -4 -3
-7 10 -5 29 2 26 -2 35 -13 35 -9 0 -12 6 -9 18 7 22 16 112 9 94 -3 -6 -9
-10 -14 -6 -5 3 -9 -10 -9 -28 0 -18 -9 -62 -19 -96 -11 -35 -17 -70 -14 -78
3 -8 0 -14 -6 -14 -6 0 -8 -7 -4 -17 5 -12 2 -15 -10 -10 -9 3 -19 1 -23 -5
-4 -6 -3 -8 3 -5 6 4 22 -2 34 -14 l24 -20 -25 14 c-14 8 -33 13 -42 12 -23
-4 -23 7 1 24 13 9 17 23 14 45 -2 17 -7 32 -11 34 -4 1 -6 20 -4 42 2 22 0
40 -6 40 -5 0 -6 16 -2 40 6 31 4 40 -6 40 -8 0 -14 7 -14 15 0 8 6 14 13 12
9 -1 12 18 12 73 0 41 5 78 10 82 6 5 5 8 -2 8 -8 0 -13 15 -13 41 0 28 4 38
12 33 7 -5 8 -3 2 7 -4 8 -10 57 -11 109 -1 52 -4 159 -6 238 -2 86 0 142 6
142 5 0 5 5 -1 13 -7 8 -11 72 -12 162 0 83 -1 175 -2 205 -1 30 -1 83 0 117
l2 62 28 -8 c15 -5 36 -6 47 -4 47 9 64 10 60 3 -3 -4 10 -10 28 -13 17 -2 34
0 36 5 2 6 7 5 11 -2 13 -21 52 -2 48 25 -1 12 4 35 12 50 13 24 13 28 -3 39
-20 15 -13 27 11 19 15 -4 15 -3 2 6 -8 5 -25 8 -37 4 -14 -3 -23 -1 -23 7 0
6 -4 8 -10 5 -14 -8 -13 -26 1 -22 6 1 13 -3 16 -10 3 -8 -5 -11 -24 -8 -16 2
-27 8 -25 16 2 9 -1 9 -10 2 -19 -15 -47 -12 -41 4 3 7 0 13 -6 13 -6 0 -11 5
-11 11 0 6 9 9 19 6 22 -5 23 19 1 33 -17 10 24 24 42 14 7 -4 10 -4 6 1 -4 4
2 16 13 26 19 16 19 18 2 22 -15 4 -15 5 3 6 14 1 20 8 20 25 0 14 -4 22 -9
19 -5 -3 -8 0 -5 8 3 8 13 16 23 17 10 3 15 0 11 -7 -4 -6 0 -11 8 -11 9 0 16
4 16 9 0 11 83 -10 92 -24 4 -5 6 -16 3 -24 -3 -8 0 -11 9 -8 12 5 13 0 5 -25
l-9 -31 21 21 c22 24 38 30 20 8 -6 -8 -11 -18 -9 -22 4 -15 -25 -52 -36 -48
-6 2 -16 -6 -21 -18 -6 -13 -16 -22 -23 -21 -7 2 -11 -3 -9 -10 1 -6 -3 -11
-9 -10 -7 1 -10 -6 -7 -17 5 -19 5 -19 26 0 11 11 24 17 29 14 4 -3 8 1 8 8 0
7 5 5 11 -6 8 -13 13 -15 19 -6 5 8 11 7 23 -4 9 -9 18 -12 22 -7 3 6 -1 13
-8 18 -7 4 -16 16 -20 26 -4 11 -3 16 3 12 6 -3 10 -2 10 4 0 7 8 7 23 2 12
-4 28 -6 36 -3 8 3 11 0 7 -7 -4 -6 -1 -11 8 -11 8 0 18 5 22 11 4 8 24 9 58
4 65 -8 86 -8 169 0 48 6 67 4 67 -4 0 -6 5 -11 11 -11 6 0 9 10 7 23 -3 24
-48 39 -48 15 -1 -7 -6 -4 -13 7 -8 14 -25 21 -52 23 -70 4 -106 13 -100 23 4
5 1 9 -4 9 -6 0 -11 -4 -11 -10 0 -5 -6 -10 -12 -10 -23 -1 -158 45 -158 53 0
5 5 5 10 2 6 -4 17 -2 25 5 9 7 39 9 92 5 43 -4 93 -6 111 -6 17 1 38 2 45 2
6 0 29 -1 50 -3 46 -5 55 4 22 22 -35 19 -31 31 8 24 24 -4 28 -3 17 5 -13 9
-13 11 3 11 9 0 17 -6 18 -12 0 -10 2 -10 6 0 2 6 11 12 19 12 9 0 13 -4 10
-8 -3 -5 1 -9 9 -9 8 0 13 3 10 5 -3 3 0 11 6 19 9 10 7 13 -7 13 -14 0 -16 2
-6 9 11 7 11 9 -2 14 -9 4 -15 1 -13 -5 4 -22 -33 -20 -52 3 -17 21 -21 22
-37 9 -10 -8 -15 -10 -12 -4 4 6 -12 16 -40 24 -26 7 -49 14 -52 15 -53 16
-165 20 -224 9 -19 -4 -26 -3 -22 5 4 6 2 11 -3 11 -6 0 -11 -4 -11 -8 0 -5
-34 -9 -75 -8 -41 0 -75 3 -75 8 0 4 -7 5 -15 2 -8 -4 -13 -10 -10 -14 5 -8
-80 6 -96 15 -5 4 -9 0 -10 -7 0 -10 -2 -10 -6 0 -2 6 -11 12 -19 12 -8 0 -14
3 -14 8 0 4 38 7 85 7 47 0 85 4 85 8 0 4 9 3 20 -3 13 -7 20 -7 20 0 0 5 10
9 21 7 12 -1 24 3 26 9 3 9 -81 33 -182 50 -32 6 -36 9 -20 15 17 6 16 7 -7 6
-15 -1 -24 -5 -22 -9 7 -11 -18 -10 -36 2 -9 6 -17 5 -22 -3 -6 -9 -8 -9 -8 0
0 7 -9 10 -21 8 -30 -6 -36 -14 -19 -25 8 -6 11 -10 6 -10 -5 0 -4 -6 2 -13
20 -24 24 -78 7 -103 -8 -13 -20 -24 -25 -24 -5 0 -9 58 -9 140 0 103 3 140
12 140 8 0 8 3 -2 9 -7 5 -9 11 -5 14 5 3 14 -1 21 -8 10 -10 9 -16 -2 -25
-16 -13 -21 -41 -7 -39 4 1 16 1 27 0 17 -1 18 -3 5 -11 -13 -8 -12 -10 3 -10
11 0 17 8 17 21 0 13 -4 18 -12 13 -7 -4 -8 -3 -4 4 8 13 95 16 133 6 13 -4
21 -10 18 -14 -3 -5 4 -6 15 -3 13 3 22 -1 26 -12 5 -13 9 -14 15 -3 7 10 9
11 9 0 0 -7 5 -10 10 -7 6 3 10 0 10 -7 0 -10 2 -10 9 1 6 10 19 12 47 6 48
-9 60 -15 44 -25 -7 -5 -2 -7 14 -7 14 0 23 3 20 8 -7 12 7 11 26 -1 11 -7 11
-10 2 -10 -7 0 -10 -5 -7 -10 4 -6 10 -8 15 -5 5 3 19 1 30 -5 13 -7 20 -7 20
0 0 6 17 8 40 6 51 -4 65 -16 19 -16 -34 0 -78 -33 -59 -45 4 -3 10 0 12 6 2
7 25 11 55 11 45 -1 50 1 46 17 -3 10 -16 24 -29 31 -13 8 -24 19 -24 27 0 7
-9 13 -20 13 -20 0 -44 32 -32 44 3 4 -1 4 -11 0 -9 -3 -17 -10 -17 -16 0 -5
4 -7 9 -4 5 3 11 -1 15 -9 6 -18 5 -18 -28 -5 -14 5 -26 6 -26 1 0 -5 -9 -7
-21 -4 -16 4 -17 8 -7 14 10 7 11 9 0 9 -7 0 -10 5 -7 10 4 6 -7 10 -24 10
-17 0 -31 5 -31 11 0 5 5 7 10 4 6 -3 10 0 10 8 0 10 -7 13 -21 10 -14 -4 -25
0 -31 11 -6 11 -16 14 -35 10 -21 -6 -24 -4 -18 7 7 11 6 12 -6 2 -15 -12 -69
-6 -69 8 0 5 -13 9 -28 9 -16 0 -37 7 -48 15 -10 8 -26 15 -35 15 -20 0 -33
50 -14 50 8 0 11 -8 8 -20 -4 -15 0 -20 13 -20 14 0 16 3 6 9 -10 6 -10 10 3
21 8 7 15 20 15 29 0 12 -2 13 -9 3 -6 -10 -10 -10 -21 3 -7 8 -25 15 -41 15
-29 0 -47 27 -34 52 4 7 -1 4 -11 -7 -15 -18 -16 -18 -10 -2 3 10 6 28 6 40 0
18 2 19 10 7 7 -11 10 -6 10 20 0 26 -3 31 -10 20 -8 -13 -10 -13 -10 2 0 9 5
18 12 20 22 8 39 154 29 251 -1 5 -6 5 -11 2 -7 -4 -9 3 -6 19 2 14 -1 27 -7
29 -9 3 -9 9 0 25 7 12 10 28 7 37 -3 8 -2 15 4 15 5 0 10 19 10 43 0 54 12
108 22 102 5 -3 12 -1 15 5 4 6 1 9 -6 8 -6 -2 -14 3 -17 11 -2 8 0 11 6 7 5
-3 13 1 16 10 3 8 2 12 -4 9 -6 -3 -7 1 -4 10 5 11 10 13 19 5 8 -7 12 -5 12
5 0 8 -6 15 -13 15 -16 0 -26 47 -25 108 4 123 4 170 -2 212 -4 25 -8 111 -11
193 -2 113 0 147 9 147 17 0 26 38 12 47 -22 14 -37 11 -37 -7 0 -9 -9 -29
-21 -44 -12 -15 -15 -25 -9 -24 16 4 13 -151 -3 -171 -9 -12 -9 -13 1 -7 7 4
12 1 12 -9 0 -9 -4 -13 -10 -10 -5 3 -10 2 -10 -4 0 -5 4 -11 9 -13 4 -1 11
-13 15 -24 5 -16 2 -23 -13 -27 -15 -3 -18 -1 -14 11 4 9 2 13 -4 9 -12 -7
-11 -10 -17 126 -3 64 -1 107 5 107 5 0 9 5 9 11 0 5 -4 8 -9 5 -10 -7 -25 60
-16 73 10 17 -16 24 -28 8 -10 -13 -16 -13 -42 0 l-30 14 29 -4 c32 -5 66 21
66 52 0 11 5 23 10 26 8 5 7 11 -1 21 -13 16 -21 134 -9 134 11 0 21 -43 12
-52 -13 -13 -1 -76 15 -82 8 -3 12 -2 9 3 -8 13 19 62 30 53 4 -4 2 1 -5 11
-13 16 -8 22 14 17 6 -1 4 4 -2 11 -9 9 -13 53 -13 146 0 100 3 133 13 133 9
0 9 2 -1 8 -21 14 -23 54 -4 69 9 8 11 12 5 8 -7 -3 -14 0 -14 7 -4 34 4 294
9 302 3 5 0 6 -6 2 -8 -5 -12 4 -12 28 0 19 5 38 10 41 6 3 10 12 10 18 0 7
-4 6 -10 -3 -8 -12 -10 -11 -10 8 0 12 -4 22 -10 22 -8 0 -12 65 -13 250 0 36
2 180 6 320 3 140 6 277 6 303 1 27 4 46 9 44 4 -3 7 89 7 204 0 200 1 208 17
186 10 -12 16 -28 13 -35z m-605 -273 c-5 -17 -10 -51 -11 -74 -2 -24 -7 -41
-12 -38 -5 3 -6 -4 -2 -16 4 -14 2 -21 -7 -21 -10 0 -9 -3 2 -10 13 -9 13 -10
0 -10 -13 0 -13 -1 0 -10 13 -8 13 -10 -2 -10 -11 0 -15 -6 -11 -20 3 -11 9
-18 13 -15 4 2 11 -32 15 -77 5 -62 4 -83 -7 -89 -10 -7 -10 -9 3 -9 14 0 16
-16 17 -107 1 -60 8 -144 15 -188 11 -64 15 -140 7 -140 -1 0 -2 -17 -4 -38
-2 -26 0 -34 6 -25 6 9 8 2 5 -19 -2 -18 0 -33 5 -33 4 0 7 -3 6 -7 -2 -9 11
-134 18 -173 8 -48 23 -165 23 -180 -1 -27 -18 29 -21 65 -1 19 -6 35 -10 35
-13 0 -21 -50 -13 -93 3 -23 7 -86 8 -139 1 -54 5 -98 10 -98 10 0 6 -60 -5
-82 -6 -13 -5 -18 4 -18 10 0 10 -2 1 -8 -14 -9 -6 -22 22 -38 27 -15 20 -43
-16 -72 -16 -13 -26 -29 -22 -35 4 -7 9 -4 15 9 4 11 5 -9 2 -46 -4 -36 -10
-66 -15 -68 -5 -2 -4 -13 2 -24 8 -15 8 -19 0 -14 -15 10 -14 -27 2 -43 10
-11 9 -12 -2 -6 -8 5 -7 -2 5 -20 13 -20 15 -31 7 -44 -11 -17 -10 -67 2 -115
5 -17 4 -27 -1 -24 -15 10 -14 -69 1 -99 15 -29 21 -113 8 -113 -5 0 -7 -21
-6 -47 3 -84 2 -80 12 -64 7 11 10 9 13 -10 5 -37 -3 -89 -13 -83 -5 3 -9 -6
-9 -20 0 -14 4 -26 9 -26 12 0 26 -88 16 -98 -3 -4 -13 2 -21 12 -7 11 -17 17
-20 13 -10 -10 18 -33 50 -41 15 -4 26 -10 22 -13 -3 -3 -2 -11 3 -17 5 -6 12
-60 16 -119 7 -105 7 -108 -14 -114 -11 -3 -18 -9 -15 -15 3 -5 12 -4 20 3 12
9 14 5 14 -29 0 -23 -4 -44 -10 -47 -5 -3 -10 -12 -10 -18 0 -7 4 -6 10 3 8
12 10 11 10 -7 0 -12 -5 -25 -10 -28 -6 -4 -4 -12 5 -21 10 -10 13 -26 9 -47
-7 -43 -23 -58 -31 -29 -4 19 -8 20 -20 10 -22 -18 -85 -38 -96 -31 -6 3 -7 1
-3 -5 7 -12 -72 -30 -149 -33 -27 -2 -59 -8 -70 -16 -23 -15 -51 -17 -59 -4
-4 5 3 7 14 4 12 -3 20 0 20 6 0 7 -4 9 -10 6 -5 -3 -10 1 -10 9 0 8 -5 18
-12 22 -7 4 -8 3 -4 -4 4 -7 1 -12 -6 -12 -7 0 -22 -8 -33 -17 -14 -11 -15
-14 -4 -10 15 5 15 3 2 -25 -12 -23 -21 -29 -39 -25 -23 4 -23 4 -7 -25 10
-15 22 -27 28 -25 5 2 32 -2 59 -9 27 -7 53 -11 57 -8 4 2 10 0 14 -6 4 -6 11
-7 17 -4 7 5 9 0 6 -14 -4 -12 -2 -20 3 -16 5 3 9 12 9 20 0 20 42 15 52 -6 5
-12 7 -12 7 3 1 12 10 17 34 18 17 0 45 2 62 4 16 2 35 -1 42 -7 14 -11 9 -28
-8 -28 -6 0 -7 5 -4 10 3 6 1 10 -4 10 -16 0 -13 -26 4 -40 9 -7 14 -19 11
-27 -3 -7 -1 -13 4 -13 6 0 10 -6 10 -14 0 -8 7 -16 15 -20 11 -4 14 -13 9
-32 -4 -17 -3 -25 3 -21 5 3 10 0 10 -8 0 -8 -4 -12 -8 -10 -4 3 -10 -2 -13
-11 -3 -9 -2 -12 4 -9 7 4 10 -23 9 -80 -2 -49 -6 -80 -11 -73 -6 10 -8 8 -8
-4 0 -10 7 -18 15 -18 18 0 20 -16 3 -24 -10 -5 -10 -7 0 -12 6 -3 12 -10 12
-15 0 -6 -4 -7 -10 -4 -6 4 -10 -6 -10 -24 0 -16 -3 -38 -6 -48 -4 -13 -3 -14
4 -5 7 11 11 8 15 -10 9 -31 9 -103 0 -112 -11 -11 -12 -35 -2 -42 14 -8 11
-41 -5 -47 -10 -4 -13 -17 -9 -44 3 -21 4 -47 4 -58 0 -11 6 -26 13 -35 20
-23 26 -48 13 -54 -7 -3 -6 -5 3 -5 30 2 36 -1 37 -21 1 -13 -2 -18 -10 -14
-9 5 -9 4 -1 -5 13 -14 7 -54 -7 -45 -5 3 -9 1 -9 -5 0 -5 5 -13 10 -16 6 -4
10 -18 10 -33 0 -15 2 -139 5 -275 l5 -248 -21 12 c-15 8 -18 13 -10 19 7 4
11 25 10 52 -1 24 1 50 6 58 5 9 4 11 -3 6 -7 -4 -12 -3 -12 3 0 6 -6 8 -14 5
-7 -3 -14 -20 -14 -37 -1 -130 -4 -171 -12 -147 l-8 25 -1 -27 c-1 -16 4 -28
9 -28 6 0 10 -5 10 -11 0 -5 -4 -8 -9 -4 -5 3 -12 1 -16 -5 -9 -15 -25 -12
-25 5 0 8 -9 15 -20 15 -11 0 -19 -3 -18 -7 0 -5 -2 -16 -7 -26 -4 -10 -2 -23
5 -32 9 -10 9 -15 1 -15 -6 0 -11 -7 -11 -16 0 -10 5 -14 16 -10 8 3 12 2 9
-4 -9 -15 4 -12 20 4 8 7 11 17 7 21 -4 5 -1 5 6 1 7 -5 11 -14 8 -22 -3 -8 3
-20 14 -26 12 -8 18 -20 15 -33 -3 -11 2 -29 10 -40 14 -17 17 -18 25 -5 5 8
10 10 10 5 0 -6 -5 -16 -12 -23 -9 -9 -9 -12 0 -12 6 0 12 -10 12 -22 -1 -13
2 -39 5 -58 15 -107 16 -135 5 -120 -9 12 -10 12 -6 -5 11 -39 14 -105 5 -105
-5 0 -9 -8 -9 -17 0 -11 -3 -14 -8 -8 -11 16 -47 12 -47 -5 0 -12 -15 -15 -70
-16 -156 -3 -214 -37 -153 -90 12 -10 18 -13 14 -6 -4 6 -5 12 -2 12 2 0 12 3
22 7 10 3 15 2 12 -3 -4 -5 19 -8 53 -6 43 3 59 0 59 -9 0 -9 4 -7 13 4 6 9
24 19 39 22 21 5 27 3 33 -14 3 -12 10 -19 15 -16 5 3 11 -8 15 -25 4 -17 10
-28 15 -25 11 7 21 -40 13 -61 -5 -13 -3 -15 8 -9 11 7 11 5 -1 -10 -9 -11
-10 -16 -2 -11 6 4 12 3 12 -3 0 -5 -4 -13 -10 -16 -5 -3 -10 -12 -10 -18 0
-7 4 -6 10 3 7 11 10 11 10 2 0 -7 5 -10 10 -7 18 11 -1 -48 -21 -68 -22 -21
-23 -23 -7 -33 6 -4 8 -3 4 4 -3 6 -3 13 2 16 4 2 9 -4 9 -15 1 -10 -2 -19 -7
-19 -5 0 -7 -7 -4 -15 4 -9 -1 -18 -10 -21 -15 -6 -15 -8 3 -21 16 -11 19 -22
16 -56 -2 -23 -5 -63 -6 -89 -2 -30 -8 -49 -17 -53 -10 -3 -12 0 -8 10 3 9 0
15 -8 15 -7 0 -19 11 -26 25 -7 14 -17 25 -22 25 -5 0 -6 -4 -3 -10 3 -5 -8
-2 -24 8 -17 9 -30 23 -28 31 1 8 -4 16 -12 19 -8 2 -11 1 -8 -4 2 -5 0 -14
-7 -19 -8 -7 -16 -5 -28 7 -17 17 -17 18 5 19 12 0 16 3 9 6 -10 4 -10 10 2
28 15 22 14 24 -4 22 -12 -1 -18 -7 -16 -14 9 -23 -21 -14 -38 12 -9 14 -22
25 -29 25 -8 0 -7 -4 3 -11 11 -8 9 -9 -10 -3 -40 11 -100 53 -100 69 0 8 -4
15 -9 15 -5 0 -28 19 -52 41 -24 23 -37 38 -29 33 8 -4 0 7 -19 24 -18 18 -44
35 -57 38 -13 3 -25 9 -25 13 -8 40 -5 51 15 51 11 0 30 -7 40 -15 11 -8 33
-15 49 -15 25 0 28 2 17 15 -7 8 -19 15 -27 15 -11 0 -14 7 -10 23 6 21 6 21
-8 3 -8 -11 -15 -15 -15 -9 0 7 -12 9 -29 7 -20 -3 -30 0 -34 11 -4 8 -12 15
-19 15 -10 0 -10 -2 0 -9 9 -5 11 -17 6 -34 -7 -32 -23 -36 -25 -7 -2 33 -4
38 -13 47 -5 5 -7 -1 -3 -14 3 -13 1 -23 -4 -23 -5 0 -9 7 -9 15 0 8 -7 15
-16 15 -8 0 -12 5 -9 10 6 9 -8 14 -28 11 -5 -1 -6 3 -2 9 3 6 11 7 17 4 6 -4
5 2 -2 15 -8 15 -17 20 -31 16 -14 -5 -17 -3 -13 9 7 19 7 19 39 4 14 -6 25
-20 26 -32 1 -16 2 -17 6 -4 6 22 -15 60 -28 52 -13 -8 -72 54 -64 67 4 5 1 9
-4 9 -6 0 -11 -6 -12 -12 0 -10 -2 -10 -6 0 -2 6 -11 12 -20 12 -24 0 -42 25
-36 50 4 15 2 21 -4 17 -6 -4 -16 0 -23 8 -7 8 -17 12 -24 8 -17 -12 -30 -10
-43 7 -8 10 -12 11 -13 3 0 -7 -7 -10 -16 -6 -15 5 -15 7 0 15 9 5 22 6 29 1
6 -4 24 -6 38 -5 16 2 29 -3 32 -12 4 -9 14 -12 26 -9 13 3 21 -1 24 -14 2
-11 3 -9 2 5 -3 27 11 38 28 23 10 -8 12 -2 9 24 -3 29 -1 35 14 36 12 0 7 5
-13 12 -18 7 -38 18 -45 26 -11 12 -10 13 6 7 15 -5 17 -4 8 7 -7 8 -10 16 -7
19 3 2 -9 3 -25 0 -17 -2 -30 0 -30 6 0 6 -16 14 -35 18 -19 3 -38 10 -41 15
-3 5 -14 9 -25 9 -11 0 -19 7 -20 18 0 14 -2 14 -8 -3 -7 -18 -9 -18 -22 7 -8
15 -17 27 -22 27 -16 1 -77 54 -77 67 0 8 -5 14 -11 14 -5 0 -7 -6 -3 -12 4
-7 -4 -3 -18 10 -13 12 -29 22 -34 22 -6 0 -20 9 -32 20 -12 11 -23 20 -24 20
-2 -1 -16 3 -31 9 -16 6 -32 11 -36 11 -4 0 -16 9 -26 20 -10 11 -15 20 -11
20 4 0 4 5 0 11 -4 8 -9 7 -15 -2 -6 -11 -14 -9 -38 9 -17 12 -33 22 -36 22
-3 0 -29 17 -58 38 -29 20 -68 46 -87 56 -60 34 -185 127 -183 137 2 5 0 8 -5
7 -7 -2 -54 21 -62 31 -7 9 -64 45 -70 45 -3 0 -25 12 -49 28 -25 15 -51 28
-58 28 -7 0 -13 4 -13 9 0 5 -12 14 -27 20 -36 14 -94 46 -112 63 -8 7 -24 14
-35 15 -32 5 -81 43 -94 72 -18 42 -9 64 35 85 38 17 41 22 45 62 3 37 0 44
-14 44 -10 0 -18 5 -18 11 0 6 -7 9 -15 5 -20 -7 -20 27 0 44 8 7 15 8 15 3 0
-5 6 -10 13 -10 10 0 14 15 14 48 0 27 -4 46 -9 43 -11 -7 -10 16 1 52 6 16
12 45 14 64 9 67 61 255 77 275 4 6 13 28 20 50 12 39 52 124 90 195 14 27 19
30 20 15 0 -17 2 -17 10 -5 6 9 10 10 10 3 0 -6 -5 -15 -10 -18 -6 -3 -7 -17
-4 -29 4 -19 1 -25 -19 -30 -20 -5 -24 -11 -19 -28 l5 -22 8 22 c5 12 11 22
13 22 5 0 -29 -109 -47 -147 -5 -11 -6 -26 -3 -32 9 -14 86 36 86 57 0 10 -4
12 -13 6 -7 -5 -5 -1 5 8 11 10 14 19 8 23 -5 3 -10 11 -10 16 0 6 4 8 9 5 5
-3 9 0 8 7 -1 34 4 48 15 41 6 -4 8 -3 5 3 -11 18 40 136 54 127 5 -3 6 2 3
10 -3 9 -2 16 4 16 5 0 15 13 22 29 6 16 18 32 26 35 8 3 14 10 14 16 0 6 -6
8 -12 4 -7 -4 -5 2 6 14 10 12 23 19 29 15 5 -3 7 -1 3 5 -10 16 15 27 26 11
7 -10 8 -8 5 8 -3 13 -1 26 4 29 5 3 9 -2 9 -10 0 -9 4 -16 10 -16 5 0 9 3 9
8 -3 19 2 23 16 12 8 -7 15 -9 15 -5 0 4 7 2 16 -5 8 -8 14 -9 13 -4 -4 20 2
35 11 29 6 -4 7 6 4 25 -5 22 -3 30 7 30 11 0 11 2 -1 10 -13 9 -13 10 0 10
13 0 13 1 0 10 -10 6 -11 10 -2 10 6 0 12 6 12 14 0 8 -6 17 -12 20 -9 4 -8 5
2 5 30 -2 40 1 38 13 -2 7 6 12 17 13 12 0 19 6 17 14 -2 8 3 11 12 8 10 -4
20 2 26 13 6 11 18 20 28 21 16 0 16 1 0 7 -25 10 -6 35 25 35 28 0 44 22 22
31 -7 2 -16 -2 -19 -10 -8 -21 -33 -17 -50 8 -9 12 -16 19 -16 15 0 -5 -5 -5
-12 -1 -16 10 30 26 53 19 11 -4 19 -2 19 4 0 6 6 11 14 11 12 0 46 40 46 55
0 3 -11 5 -25 5 -22 0 -25 4 -25 36 0 21 -4 33 -10 29 -6 -4 -8 -12 -4 -18 3
-7 -1 -4 -9 6 -16 19 -37 23 -37 6 0 -5 -5 -7 -10 -4 -6 4 -8 10 -6 13 4 6
-50 8 -64 3 -3 -1 -24 -3 -48 -5 -33 -2 -42 1 -37 11 2 8 0 11 -5 8 -6 -4 -9
8 -8 29 2 19 5 34 8 34 19 -1 30 3 26 10 -5 8 48 73 60 73 4 1 10 -4 14 -11 9
-15 60 -2 60 16 0 8 5 14 10 14 6 0 10 9 10 21 0 15 4 19 16 15 14 -5 15 -4 5
8 -8 10 -9 20 -3 33 6 10 15 29 20 43 9 22 11 23 11 4 1 -11 -6 -29 -14 -40
-17 -22 -19 -34 -6 -34 5 0 12 9 16 19 4 12 12 18 21 14 9 -3 14 2 14 17 0 14
4 19 13 14 9 -6 9 -4 -1 8 -17 21 -5 50 19 43 13 -5 17 -1 16 14 -1 16 -4 18
-22 9 -19 -10 -19 -10 1 13 13 14 20 33 18 47 -2 14 0 21 6 17 9 -5 15 24 11
48 -1 5 3 6 9 2 5 -3 19 -8 31 -10 16 -3 19 0 15 11 -4 10 1 18 12 21 20 5 47
42 38 51 -4 3 -12 0 -18 -6 -17 -17 -33 -15 -19 2 7 8 23 17 36 20 14 4 25 13
25 21 0 8 5 15 11 15 6 0 9 7 5 15 -3 8 3 22 12 31 9 10 17 20 17 23 0 3 6 5
12 5 7 -1 11 2 8 6 -10 17 14 60 30 54 17 -7 21 11 5 21 -5 3 -10 15 -10 26 0
11 4 18 10 14 5 -3 7 -12 3 -20 -3 -8 0 -15 6 -15 6 0 11 -12 12 -27 0 -16 3
-22 6 -15 2 6 10 9 15 6 6 -4 8 -2 5 3 -8 13 17 36 28 25 4 -4 6 0 3 8 -3 8 4
23 15 33 11 9 15 17 8 17 -7 0 -9 5 -6 10 4 6 11 8 17 4 5 -3 3 7 -5 23 -16
29 -16 84 -2 117 6 14 5 18 -6 14 -8 -3 -14 -12 -14 -21 0 -8 -3 -19 -7 -23
-4 -4 -5 -18 -2 -30 4 -15 2 -24 -5 -24 -6 0 -11 -9 -11 -20 0 -13 -5 -18 -15
-14 -8 4 -12 10 -9 15 3 5 -8 8 -25 7 -16 -1 -29 -5 -29 -8 1 -11 -27 -70 -33
-70 -8 0 5 52 17 72 5 7 7 21 5 32 -1 11 2 16 8 12 7 -5 10 1 8 16 -1 14 3 22
11 20 7 -1 15 6 19 15 10 28 46 71 41 51 -3 -18 3 -21 25 -12 9 3 12 14 10 28
-3 13 0 27 6 30 6 4 11 18 11 32 0 14 4 22 10 19 6 -3 10 3 10 15 0 33 18 60
40 60 11 0 20 5 20 11 0 5 4 8 8 5 5 -3 9 1 9 9 0 18 -8 19 -27 3 -8 -7 -2 1
14 19 16 18 34 30 39 26 6 -3 7 -1 3 5 -4 6 -3 19 2 29 11 21 35 77 50 116 7
15 18 27 25 27 18 0 79 88 71 102 -4 7 -2 8 4 4 7 -4 13 -4 13 1 6 36 5 53 -3
53 -6 0 -8 -7 -4 -15 3 -8 1 -15 -4 -15 -17 0 -11 25 10 48 13 14 16 22 8 22
-7 0 -3 6 8 14 11 8 33 42 48 76 18 40 31 58 39 53 9 -5 9 -3 0 8 -8 9 -9 26
-3 49 4 19 8 27 9 16 1 -13 6 -17 21 -13 27 7 25 -8 -2 -27 -12 -9 -17 -16
-10 -16 6 0 12 -7 12 -15 0 -8 -5 -15 -11 -15 -5 0 -7 -4 -4 -10 3 -5 -3 -17
-15 -27 -11 -10 -20 -22 -20 -28 0 -5 5 -3 10 5 17 26 11 5 -12 -41 -12 -24
-21 -49 -20 -55 4 -20 -18 -65 -28 -59 -6 3 -7 -1 -4 -9 3 -9 1 -16 -5 -16 -6
0 -10 -12 -10 -27 1 -17 3 -21 6 -10 2 9 10 17 16 18 7 0 30 38 52 84 25 52
45 83 53 80 6 -2 12 0 12 5 0 6 -5 10 -10 10 -7 0 -6 8 2 23 12 22 14 28 17
48 0 5 5 8 10 5 5 -4 7 2 4 13 -3 11 2 21 11 24 9 4 16 12 16 19 0 9 -3 9 -10
-2 -8 -11 -9 -7 -4 15 3 17 8 37 11 45 10 28 11 60 2 60 -4 0 -14 -19 -21 -42
-10 -33 -18 -44 -35 -45 -25 -3 -26 -2 -17 22 5 12 9 13 14 5 5 -8 10 -9 14
-2 3 6 -2 13 -13 17 -18 6 -18 7 5 51 13 25 24 50 24 56 0 14 49 125 75 168
12 19 38 73 59 120 21 47 59 123 84 170 25 47 55 111 67 142 30 84 138 307
146 302 4 -2 4 -18 -1 -35z m1538 -726 c9 -7 17 -23 19 -35 2 -13 15 -31 28
-41 18 -14 25 -28 25 -52 0 -19 5 -37 12 -41 8 -5 6 -10 -8 -15 -18 -7 -17 -8
3 -8 16 -1 24 6 29 24 4 18 13 25 30 25 26 0 30 -10 14 -26 -8 -8 -6 -15 6
-25 16 -12 17 -12 11 4 -4 11 -3 16 4 12 5 -4 9 -26 8 -50 -2 -35 -6 -43 -20
-40 -15 3 -17 0 -9 -21 5 -13 6 -24 1 -24 -5 0 -12 11 -15 24 -3 13 -15 26
-26 29 -14 3 -18 10 -14 21 4 10 2 16 -5 14 -7 -2 -36 33 -65 77 -41 60 -51
83 -43 93 8 10 7 12 -4 10 -9 -2 -13 4 -11 17 5 33 5 39 -3 60 l-7 20 12 -20
c7 -11 20 -26 28 -32z m-1081 -1277 c34 -14 41 -21 37 -39 -5 -22 -10 -51 -13
-74 -1 -15 -42 -8 -53 9 -11 18 -10 24 7 38 12 10 12 15 -1 35 -14 21 -17 22
-42 9 -15 -8 -38 -14 -51 -14 -23 0 -23 -1 -8 -18 10 -10 17 -27 18 -38 1 -15
3 -14 10 6 8 25 8 25 6 1 -2 -21 -8 -24 -49 -27 -27 -1 -48 2 -48 7 0 5 5 9
11 9 6 0 10 17 9 43 -4 76 -6 74 63 72 34 0 81 -9 104 -19z m128 -404 c2 -12
0 -24 -4 -27 -5 -2 -6 -19 -2 -36 3 -17 5 -49 3 -70 -3 -30 -7 -36 -20 -31
-14 5 -15 3 -5 -10 7 -8 10 -18 6 -22 -4 -4 -1 -5 7 -1 22 8 26 -87 5 -108
-19 -20 -19 -31 1 -23 12 5 15 0 12 -22 -2 -17 -8 -26 -18 -24 -9 1 -6 -6 9
-18 13 -11 18 -20 11 -20 -7 0 -10 -7 -6 -15 3 -8 2 -15 -3 -15 -11 0 -8 -44
4 -52 6 -5 6 -8 -1 -8 -11 0 -12 -35 -1 -46 8 -9 -11 -44 -24 -44 -6 0 -7 5
-4 10 10 16 12 159 2 163 -4 1 -10 17 -13 34 -4 29 -3 31 18 26 l23 -5 -24 20
c-16 13 -20 21 -12 26 9 6 9 11 1 21 -18 22 -11 186 9 210 15 18 15 19 -1 6
-10 -7 -18 -9 -18 -3 0 5 -3 22 -6 38 -4 21 0 35 16 52 24 26 29 25 35 -6z
m2971 -1584 c5 -7 3 -8 -6 -3 -9 6 -11 4 -4 -6 4 -8 7 -27 6 -44 -2 -24 -1
-27 8 -15 9 12 10 11 5 -7 -4 -14 -2 -23 4 -23 12 0 15 -29 4 -31 -40 -7 -69
-3 -75 10 -5 13 -7 12 -7 -4 -1 -21 1 -21 -98 -13 -7 1 -13 5 -13 9 0 4 -10 6
-22 4 -16 -4 -19 -2 -10 7 20 20 14 27 -20 22 -18 -3 -45 -6 -59 -8 -14 -2
-32 -6 -39 -11 -9 -6 -11 -4 -5 6 7 12 6 12 -7 1 -13 -10 -17 -10 -21 0 -4 9
-6 9 -7 -2 -1 -16 -70 -54 -70 -39 0 5 -7 9 -15 9 -8 0 -15 -5 -15 -11 0 -5 5
-7 10 -4 6 3 10 1 10 -4 0 -6 -7 -11 -16 -11 -8 0 -13 -4 -9 -9 3 -5 -14 -21
-37 -35 -39 -23 -44 -24 -58 -10 -11 12 -12 18 -3 21 22 8 -9 30 -36 25 -20
-3 -22 -1 -12 6 14 10 32 9 64 -3 15 -7 16 -4 7 21 -6 16 -15 33 -20 40 -7 7
-5 11 5 11 8 0 15 -4 15 -9 0 -4 9 -8 19 -8 11 0 26 -9 34 -20 14 -21 14 -21
20 -1 3 11 21 28 41 38 38 18 48 43 19 44 -15 0 -15 2 2 9 18 7 16 8 -10 12
-16 3 1 6 38 7 49 1 66 -2 61 -11 -5 -7 -3 -8 6 -3 7 5 46 9 86 10 62 2 72 0
67 -14 -3 -11 -1 -10 7 3 10 15 14 16 21 5 6 -10 9 -10 9 -2 0 7 7 10 17 6 11
-5 14 -3 8 6 -6 10 -3 11 15 1 13 -7 18 -15 12 -19 -7 -4 -7 -11 1 -21 15 -18
43 -24 52 -10 3 5 0 7 -8 4 -8 -3 -17 2 -21 12 -4 12 -2 15 9 11 8 -4 17 -2
20 3 4 6 -1 10 -9 10 -8 0 -20 10 -27 21 -8 15 -8 19 0 15 6 -4 11 -2 11 3 0
15 37 14 46 -1z"/>
<path d="M5654 6521 c-14 -10 -13 -39 2 -45 9 -3 11 1 7 12 -3 9 4 3 15 -14
11 -18 26 -35 34 -40 10 -6 10 -4 -1 9 -16 20 -2 23 18 5 8 -8 11 -8 8 -2 -5
8 7 10 41 6 26 -3 49 -8 52 -11 3 -3 12 -6 20 -6 8 0 14 -8 14 -18 -2 -14 1
-15 12 -6 11 9 11 15 3 25 -15 18 -2 18 16 0 8 -7 11 -17 7 -21 -4 -5 -2 -5 5
-1 6 3 10 15 8 25 -2 11 5 27 16 36 18 17 17 41 -2 30 -5 -4 -9 -2 -9 3 0 11
0 11 -141 16 -64 2 -120 1 -125 -3z"/>
<path d="M5244 5744 c1 -44 -3 -68 -10 -67 -6 1 -9 -8 -8 -20 1 -12 3 -29 3
-37 1 -13 2 -13 11 0 7 11 10 -4 10 -49 0 -60 -1 -63 -21 -58 -21 6 -21 6 1
-15 16 -15 21 -29 18 -54 -3 -23 0 -34 9 -34 7 0 12 3 12 8 -1 4 0 9 1 12 12
31 26 128 24 165 -1 22 3 43 9 47 8 5 7 14 -2 32 -8 14 -12 41 -9 63 3 21 2
47 -3 58 -7 19 -8 18 -8 -4 l-1 -23 -18 22 c-19 23 -19 23 -18 -46z"/>
<path d="M3708 7292 c-22 -3 -28 -9 -28 -28 0 -22 3 -23 20 -14 14 7 20 7 20
0 0 -5 -7 -11 -15 -11 -8 -1 -21 -2 -27 -3 -7 -1 -16 2 -19 7 -9 13 -31 -2
-23 -15 5 -7 0 -9 -14 -6 -12 4 -22 3 -22 -2 0 -12 45 -21 48 -10 2 6 11 10
20 10 15 0 15 -2 2 -10 -13 -8 -12 -10 3 -10 9 0 17 4 17 8 0 17 217 -5 249
-25 20 -13 25 -13 32 -2 8 12 10 12 18 0 5 -8 10 -9 12 -2 2 6 13 12 24 14 11
2 30 9 42 17 17 11 19 17 11 27 -8 11 -7 12 8 7 18 -5 18 -5 1 6 -9 6 -27 8
-38 5 -14 -5 -28 0 -44 15 -20 19 -35 21 -146 23 -68 1 -136 1 -151 -1z"/>
<path d="M1680 6191 c0 -4 7 -14 15 -21 8 -7 12 -17 8 -23 -3 -5 -2 -7 4 -4 5
3 37 -23 72 -58 34 -35 65 -64 69 -64 4 -1 15 -7 24 -15 9 -8 26 -19 37 -26
12 -6 21 -18 21 -28 0 -13 -2 -14 -9 -4 -6 11 -9 9 -14 -7 -3 -11 -2 -20 2
-19 29 3 61 -4 61 -15 0 -15 35 -16 47 -2 5 4 3 5 -4 1 -6 -3 -14 -2 -18 4 -3
5 -1 10 4 10 6 0 1 10 -11 23 -13 12 -27 21 -32 19 -5 -2 -4 4 4 13 10 12 16
13 29 3 10 -8 9 -5 -3 10 -11 12 -24 22 -30 22 -6 0 -4 -5 4 -10 8 -5 10 -10
5 -10 -17 0 -35 22 -35 42 0 10 -5 15 -12 13 -7 -3 -29 10 -48 28 -39 36 -84
67 -159 110 -17 10 -31 13 -31 8z"/>
<path d="M8167 5980 c-8 -11 -26 -21 -41 -22 -23 -2 -25 -4 -12 -14 13 -9 11
-15 -17 -43 -19 -17 -36 -29 -40 -26 -4 3 -5 2 -2 -2 8 -10 -67 -83 -78 -76
-6 4 -7 1 -2 -7 5 -8 2 -17 -6 -24 -8 -6 -23 -22 -32 -36 -9 -13 -40 -48 -69
-77 -28 -30 -48 -56 -45 -59 6 -6 92 68 115 99 7 9 18 15 23 11 5 -3 8 0 7 7
-2 7 4 13 12 14 8 0 15 5 15 11 0 7 31 45 68 85 89 97 90 98 116 142 23 38 13
53 -12 17z"/>
<path d="M2476 5482 c-3 -6 1 -17 9 -25 8 -9 11 -17 7 -20 -4 -2 -1 -2 6 -1
16 4 52 -26 53 -46 0 -10 2 -11 6 -2 2 6 9 9 14 6 6 -4 6 -11 -1 -19 -9 -11
-7 -12 7 -9 26 7 75 -43 67 -68 -5 -16 -2 -18 18 -13 16 4 30 -1 45 -15 12
-11 27 -20 33 -20 5 0 10 -4 10 -9 0 -5 10 -7 21 -4 l22 6 -22 16 c-17 13 -19
19 -9 29 11 11 10 12 -2 7 -10 -3 -33 12 -63 40 -26 25 -43 45 -38 45 6 0 11
5 11 11 0 8 -4 8 -14 0 -16 -13 -46 -4 -46 14 0 7 -7 18 -15 25 -11 9 -15 9
-15 1 0 -11 -79 34 -91 52 -4 6 -9 5 -13 -1z"/>
<path d="M3636 4243 c-3 -7 -12 -10 -22 -6 -13 5 -15 0 -13 -23 2 -16 0 -34
-4 -41 -5 -7 4 -11 29 -10 29 1 34 4 31 19 -3 10 -1 21 4 24 5 3 8 0 7 -8 -2
-7 6 -13 17 -13 11 0 26 -7 33 -15 12 -13 13 -13 9 0 -3 10 2 16 14 17 21 2
26 -13 7 -20 -8 -3 -6 -6 5 -6 9 -1 17 5 17 12 0 9 2 9 8 -1 5 -7 22 -12 38
-11 58 3 115 -1 110 -9 -2 -4 4 -8 14 -8 10 0 16 4 14 8 -3 4 4 8 15 8 12 0
21 -5 21 -11 0 -5 4 -8 8 -5 5 3 43 6 86 7 75 2 109 15 67 26 -24 6 -28 23 -6
23 8 0 15 4 15 9 0 15 -29 33 -45 28 -8 -4 -21 0 -29 8 -16 17 -46 20 -46 6 0
-6 -61 -8 -147 -5 -82 2 -155 -1 -162 -6 -9 -5 -23 -4 -35 3 -30 15 -54 16
-60 0z"/>
</g>
</svg>
