<?xml version="1.0" standalone="no"?>
<!DOCTYPE svg PUBLIC "-//W3C//DTD SVG 20010904//EN"
 "http://www.w3.org/TR/2001/REC-SVG-20010904/DTD/svg10.dtd">
<svg version="1.0" xmlns="http://www.w3.org/2000/svg"
 width="1024.000000pt" height="1536.000000pt" viewBox="0 0 1024.000000 1536.000000"
 preserveAspectRatio="xMidYMid meet">
<metadata>
Created by potrace 1.16, written by Peter Selinger 2001-2019
</metadata>
<g transform="translate(0.000000,1536.000000) scale(0.100000,-0.100000)"
fill="#000000" stroke="none">
<path d="M8012 14474 c-12 -8 -27 -12 -34 -8 -6 4 -8 3 -4 -4 10 -16 -11 -24
-34 -12 -12 6 -20 7 -20 1 0 -5 7 -11 16 -13 17 -3 -124 -95 -251 -164 -116
-62 -180 -111 -200 -152 -18 -37 -38 -225 -23 -215 13 7 9 -12 -4 -26 -11 -10
-10 -11 2 -6 12 4 22 -14 44 -81 38 -114 37 -156 -9 -246 -33 -67 -103 -163
-93 -128 3 8 -2 20 -10 26 -12 9 -25 81 -35 206 -1 9 -4 15 -8 13 -3 -3 -19 9
-35 26 -36 38 -134 85 -134 64 0 -2 11 -21 25 -41 56 -82 57 -199 5 -313 -42
-89 -40 -95 28 -119 71 -26 112 -67 122 -121 4 -23 6 -41 4 -41 -13 0 -92 45
-89 50 2 4 -4 6 -13 6 -49 0 -73 5 -67 14 3 5 -10 7 -32 5 -21 -2 -60 1 -88 6
-57 10 -102 50 -112 100 -8 43 -19 44 -60 8 -41 -36 -141 -86 -191 -95 -18 -4
-31 -11 -29 -18 2 -6 50 -35 108 -64 57 -30 142 -79 188 -110 121 -80 272
-203 264 -215 -3 -5 -2 -8 3 -4 5 3 22 -5 38 -18 l29 -23 -54 -61 c-29 -34
-59 -61 -67 -61 -7 0 -11 -4 -8 -9 8 -12 -19 -33 -29 -23 -5 4 -5 2 -2 -4 4
-6 -17 -38 -47 -70 l-53 -58 -99 -7 c-160 -10 -287 0 -409 31 -127 32 -184 55
-191 75 -7 16 25 72 56 100 26 24 25 32 -5 37 -13 3 -22 2 -20 -2 3 -4 -15
-13 -39 -19 -24 -6 -81 -26 -126 -46 -46 -19 -87 -32 -93 -28 -6 4 -7 1 -2 -7
6 -10 4 -12 -9 -7 -9 4 -15 3 -12 -2 3 -5 -10 -16 -29 -25 -19 -9 -37 -20 -40
-25 -3 -5 77 -57 178 -115 100 -59 234 -138 297 -176 63 -38 135 -79 158 -91
28 -13 39 -24 32 -29 -6 -4 -12 -11 -13 -16 -2 -11 -313 -316 -407 -399 -36
-32 -75 -62 -87 -68 -29 -13 -53 -3 -53 23 0 28 -17 25 -35 -7 -9 -16 -14 -20
-11 -10 4 11 2 16 -5 12 -5 -4 -7 -15 -4 -24 6 -21 -69 -86 -87 -75 -6 4 -8 3
-5 -3 9 -14 -40 -46 -55 -37 -6 4 -8 3 -5 -3 8 -13 -141 -106 -155 -97 -6 4
-8 3 -5 -2 8 -14 -393 -259 -420 -257 -13 0 -23 -3 -23 -9 0 -5 6 -6 13 -2 6
4 9 4 6 1 -3 -4 -57 -39 -119 -77 -109 -68 -114 -70 -137 -55 -13 9 -21 20
-18 25 3 6 0 7 -8 4 -11 -4 -16 9 -20 55 -8 70 -25 117 -63 166 -40 53 -55 47
-37 -16 27 -92 -16 -164 -83 -139 -14 6 -23 14 -20 18 2 4 -3 8 -12 8 -9 0
-91 49 -182 109 -91 59 -184 120 -207 135 -23 15 -39 31 -35 35 4 5 3 6 -3 3
-5 -3 -26 5 -45 18 -34 23 -34 24 -9 24 65 0 120 28 178 89 46 50 62 61 89 61
24 0 32 -4 32 -17 0 -14 2 -15 9 -4 6 10 10 10 13 1 3 -9 8 -8 17 4 12 14 11
16 -5 16 -11 1 4 9 32 18 28 10 63 28 78 40 16 12 33 19 39 15 6 -3 7 -1 3 6
-9 14 19 61 37 61 7 0 31 -9 53 -19 50 -25 94 -36 94 -25 0 5 -9 23 -20 39
-28 42 -25 69 11 104 40 40 115 84 129 76 6 -4 9 -1 8 6 -2 7 43 31 105 57 65
27 103 48 96 53 -7 4 -17 5 -23 3 -6 -2 -54 -8 -107 -14 -53 -5 -130 -21 -170
-35 -41 -14 -109 -32 -151 -40 -97 -18 -138 -38 -273 -140 -121 -91 -210 -134
-293 -142 l-55 -6 7 51 c7 55 -4 69 -24 31 -7 -11 -14 -18 -17 -15 -4 3 -13
-3 -21 -15 -8 -11 -20 -18 -29 -15 -8 3 -11 1 -8 -4 13 -21 -99 -52 -118 -34
-3 4 0 19 8 35 18 34 27 96 16 103 -5 3 -28 -13 -51 -35 -94 -90 -192 -92
-267 -6 -37 42 -73 133 -73 186 0 37 1 38 49 49 52 12 125 44 176 78 16 10 26
13 22 7 -5 -7 -4 -13 2 -13 6 0 11 7 11 15 0 9 8 19 18 23 30 12 26 33 -5 26
-16 -3 -45 -7 -66 -9 -21 -1 -41 -5 -44 -9 -10 -10 -83 -7 -104 4 -27 15 -27
92 1 120 12 12 26 18 32 14 6 -4 8 -3 5 2 -3 6 15 17 41 26 37 14 59 32 104
87 54 66 233 219 250 214 5 -2 7 1 5 5 -1 5 13 21 31 37 69 58 202 237 202
273 0 7 -23 -6 -51 -28 -28 -22 -56 -37 -62 -33 -7 3 -9 2 -4 -2 8 -9 -55 -57
-156 -117 -57 -34 -71 -39 -79 -27 -8 11 -9 10 -4 -4 5 -15 -14 -28 -107 -72
-122 -59 -279 -109 -313 -101 -15 4 -24 16 -28 41 -8 41 -21 44 -47 11 -11
-14 -44 -37 -74 -52 -113 -55 -215 -18 -311 111 -95 127 -144 264 -114 321 13
24 110 91 110 76 0 -4 4 -2 8 4 4 6 33 26 64 43 93 52 142 120 172 238 16 62
22 224 9 222 -5 0 -23 -30 -41 -67 -61 -125 -111 -163 -246 -191 -102 -21
-156 -44 -218 -92 -25 -21 -39 -26 -44 -18 -5 8 -2 10 7 5 8 -4 5 0 -5 8 -31
25 -27 142 8 231 26 66 30 102 23 207 -2 33 -25 27 -31 -7 -5 -24 -11 -32 -21
-29 -10 4 -13 0 -10 -14 2 -12 -3 -26 -11 -33 -8 -6 -14 -10 -15 -8 -6 31 -6
38 2 33 5 -3 9 -1 9 4 0 6 -7 12 -15 16 -8 3 -15 14 -15 24 0 10 -24 66 -52
123 -50 100 -53 107 -53 185 0 45 -3 80 -7 78 -3 -2 -8 17 -11 44 -10 90 -12
97 -24 102 -6 3 -37 36 -68 74 -54 67 -103 151 -131 226 -12 32 -13 27 -13
-75 -1 -101 2 -118 35 -210 l35 -100 -2 -230 c-2 -236 -4 -255 -22 -255 -6 0
-8 3 -4 6 3 3 -3 14 -14 25 -11 11 -22 33 -26 49 -3 17 -9 30 -13 30 -15 0
-45 -99 -55 -180 -3 -25 -10 -63 -16 -84 -30 -112 10 -365 78 -500 8 -16 24
-77 34 -135 16 -89 29 -127 83 -236 61 -124 94 -213 98 -270 1 -14 9 -31 18
-38 12 -9 13 -9 3 2 -9 11 -8 23 9 54 13 27 22 36 28 27 6 -10 8 -10 12 1 2 7
15 -9 28 -36 17 -35 26 -77 32 -154 8 -90 14 -113 38 -154 24 -39 26 -46 10
-37 -28 15 -135 140 -134 156 1 8 -3 11 -8 8 -5 -3 -12 3 -15 15 -3 12 -11 21
-19 21 -18 0 -12 -15 44 -129 57 -114 135 -202 268 -302 52 -39 94 -75 94 -81
0 -6 3 -8 6 -5 7 7 23 -3 164 -107 109 -80 105 -77 185 -151 56 -52 58 -55 23
-39 -20 10 -35 21 -32 26 3 4 -1 5 -8 3 -8 -3 -24 4 -36 15 -12 11 -22 18 -22
14 0 -4 -14 5 -30 21 -17 16 -30 26 -30 23 0 -18 24 -65 50 -98 16 -20 27 -40
25 -44 -3 -3 -2 -4 1 -2 11 8 84 -66 77 -78 -3 -6 -3 -8 1 -5 9 9 232 -141
228 -153 -1 -5 2 -7 8 -3 6 3 41 -14 79 -39 38 -25 72 -46 76 -46 4 0 5 14 1
30 l-6 31 32 -18 c18 -10 71 -55 119 -100 47 -46 88 -83 91 -83 3 0 8 18 12
40 3 22 9 40 12 40 18 0 152 -95 147 -103 -3 -6 -1 -7 5 -3 17 10 227 -129
229 -152 1 -12 -15 -27 -50 -47 -29 -16 -67 -39 -86 -52 -18 -12 -38 -20 -45
-16 -6 3 -8 2 -3 -2 9 -11 -133 -96 -147 -88 -6 4 -8 3 -4 -2 11 -11 -60 -58
-74 -49 -6 4 -8 3 -5 -2 7 -11 -269 -180 -286 -176 -7 2 -9 0 -5 -4 4 -4 -34
-34 -85 -67 -60 -40 -129 -99 -197 -168 -114 -117 -249 -231 -262 -223 -5 3
-7 1 -6 -3 2 -5 -23 -36 -55 -69 -62 -65 -130 -152 -153 -197 -9 -16 -20 -25
-26 -21 -7 4 -8 3 -4 -5 4 -6 -8 -37 -27 -69 -19 -31 -56 -100 -84 -152 -28
-52 -83 -146 -123 -209 -121 -191 -150 -273 -150 -424 l1 -82 22 29 c12 16 34
52 49 80 15 28 28 48 28 45 0 -4 -9 -51 -19 -105 -27 -137 -47 -253 -62 -357
-7 -48 -14 -85 -16 -83 -8 8 -14 60 -19 171 -3 61 -8 117 -10 125 -7 20 -68
-76 -91 -144 -35 -101 -17 -355 34 -461 16 -33 33 -46 33 -25 0 5 9 34 21 65
17 46 24 55 45 55 21 0 30 -11 57 -67 26 -57 31 -80 32 -143 1 -82 11 -109 76
-195 52 -70 109 -181 109 -213 l-1 -27 -22 26 c-12 15 -30 42 -41 60 -17 31
-19 32 -26 14 -4 -11 -4 -25 1 -31 13 -16 40 -154 33 -166 -4 -6 -3 -8 3 -5 6
4 16 -12 22 -35 7 -23 24 -60 38 -82 26 -42 112 -136 124 -136 4 0 6 11 5 24
0 13 -4 22 -8 20 -12 -8 -38 97 -38 151 0 28 6 59 13 69 12 16 16 12 49 -41
21 -32 71 -92 112 -133 71 -71 120 -142 128 -184 6 -36 73 -98 192 -178 66
-44 147 -102 181 -127 94 -73 189 -138 214 -146 12 -4 20 -9 18 -12 -3 -2 -44
5 -92 17 -48 12 -89 19 -92 17 -5 -6 19 -28 101 -96 72 -58 144 -93 291 -141
72 -23 191 -66 266 -96 75 -29 158 -58 185 -64 27 -6 58 -13 69 -17 19 -6 18
-6 -4 -14 -12 -5 -28 -6 -33 -2 -7 3 -8 1 -4 -5 8 -14 -90 -66 -106 -56 -6 4
-8 3 -5 -3 4 -6 -47 -41 -119 -82 -153 -87 -322 -195 -511 -327 -226 -158
-317 -219 -325 -216 -5 1 -8 -2 -8 -7 0 -12 -113 -96 -125 -93 -5 2 -7 0 -3
-3 4 -4 -20 -37 -54 -74 -33 -36 -84 -100 -114 -141 -29 -42 -61 -83 -71 -91
-10 -9 -72 -44 -138 -79 -66 -34 -141 -80 -167 -101 -60 -51 -143 -160 -209
-277 -28 -50 -55 -92 -59 -92 -4 0 -7 -6 -7 -13 0 -6 -12 -42 -26 -79 -37 -93
-56 -178 -63 -298 -9 -137 8 -132 60 19 27 78 42 108 48 99 6 -9 7 -6 3 9 -12
44 132 358 178 387 32 20 29 -5 -10 -106 -22 -57 -53 -140 -68 -185 -16 -47
-33 -80 -38 -76 -6 3 -7 1 -3 -5 14 -23 -117 -313 -187 -416 -44 -63 -75 -196
-46 -196 5 0 8 4 5 8 -3 5 8 21 24 37 l28 27 8 -47 c3 -26 2 -78 -5 -115 -18
-111 -15 -155 16 -201 39 -59 36 -124 -7 -160 l-32 -27 22 -22 c73 -73 142
-238 109 -262 -12 -8 -11 -9 2 -5 14 5 17 -12 22 -136 4 -116 10 -157 32 -227
15 -47 28 -95 28 -107 1 -11 5 -19 8 -17 4 2 21 -26 39 -61 18 -36 35 -63 38
-60 3 3 5 65 5 137 0 116 20 351 27 323 1 -5 2 -13 1 -18 0 -4 4 -6 11 -5 7 2
17 -14 22 -35 11 -43 26 -44 38 -1 17 57 11 112 -16 158 -25 43 -34 72 -18 63
4 -3 7 11 8 31 0 21 2 53 4 72 1 19 0 49 -4 65 l-6 30 12 -32 c7 -17 16 -35
21 -39 4 -4 7 -14 7 -23 0 -9 5 -23 10 -31 17 -25 30 7 30 75 0 59 17 131 41
177 16 32 70 88 85 88 22 0 44 -30 44 -59 0 -43 8 -42 52 5 53 57 111 90 197
111 39 9 71 20 71 24 0 13 -136 97 -175 107 -22 6 -69 14 -105 18 -36 4 -68
12 -72 18 -15 22 -7 102 16 157 29 71 57 111 91 129 31 17 91 4 169 -36 26
-14 50 -24 52 -22 2 2 -13 31 -33 63 -41 69 -63 126 -63 165 0 43 27 109 60
146 29 34 37 31 31 -14 -1 -6 3 -12 8 -12 5 0 8 12 6 28 -4 23 -3 24 5 7 5
-11 14 -32 20 -47 11 -33 26 -36 35 -9 3 11 26 38 50 60 52 48 77 51 173 21
35 -11 88 -20 117 -20 89 0 222 -29 344 -74 118 -44 249 -86 270 -86 19 0 12
18 -9 25 -61 19 -410 279 -410 305 0 14 -92 77 -178 121 -52 26 -82 48 -82 58
0 18 159 178 175 176 25 -3 55 -17 55 -26 0 -5 10 -9 23 -9 18 0 19 2 7 10
-13 8 -12 10 3 10 21 0 22 13 2 30 -8 7 -15 24 -15 38 0 54 77 171 102 156 6
-4 8 -3 5 3 -8 12 199 216 264 260 25 18 102 60 170 95 68 35 164 89 212 121
49 31 92 55 97 52 5 -3 12 0 16 6 5 8 3 9 -7 4 -9 -5 -11 -5 -4 2 21 21 230
156 242 156 7 0 15 7 18 15 3 8 12 11 21 8 8 -3 13 -2 9 3 -8 13 52 54 66 45
7 -4 9 -3 6 3 -4 6 5 18 19 28 20 13 28 14 40 4 8 -6 17 -9 21 -5 3 3 0 6 -7
6 -7 0 -11 3 -7 6 3 3 32 -14 64 -38 61 -47 149 -107 252 -171 33 -21 59 -43
57 -50 -1 -7 -1 -9 1 -5 3 4 15 0 29 -8 13 -9 21 -21 17 -28 -3 -6 -3 -8 2 -4
4 4 21 -4 37 -17 16 -14 34 -25 39 -25 18 0 9 -37 -20 -82 -32 -50 -63 -73
-87 -64 -9 3 -12 1 -9 -4 3 -6 -2 -10 -13 -10 -23 0 -64 -43 -91 -97 -27 -54
-39 -60 -47 -26 -12 55 -16 64 -27 60 -6 -2 -23 -33 -38 -70 -15 -36 -39 -82
-54 -101 -31 -40 -110 -90 -127 -80 -6 4 -8 3 -5 -3 4 -6 -9 -23 -29 -38 -33
-25 -124 -153 -124 -175 0 -5 47 19 103 54 57 34 137 73 178 86 96 30 184 74
233 116 67 58 115 35 102 -47 -3 -22 -4 -39 -2 -39 2 0 32 28 67 63 37 37 89
76 124 93 56 27 68 29 176 29 l116 0 87 -44 c49 -25 83 -48 79 -54 -3 -5 -1
-7 5 -4 5 4 28 -8 49 -25 22 -18 58 -49 82 -68 48 -40 85 -85 95 -117 5 -15 1
-27 -15 -42 -12 -11 -26 -18 -31 -15 -5 3 -8 2 -6 -3 1 -4 -25 -35 -58 -68
-66 -66 -61 -77 24 -55 52 13 119 5 145 -18 9 -8 17 -27 17 -41 0 -34 -28 -74
-47 -67 -8 3 -12 2 -8 -3 3 -5 -12 -15 -32 -21 -26 -8 -66 -40 -123 -99 -47
-47 -101 -94 -120 -103 -19 -9 -84 -40 -143 -67 -121 -57 -205 -118 -258 -188
-82 -109 -80 -143 4 -60 72 71 164 129 206 131 16 1 27 4 25 8 -16 25 242 40
268 16 7 -7 29 -15 48 -16 19 -2 37 -8 38 -13 2 -5 17 11 34 35 56 85 137 135
220 136 111 0 177 -66 181 -182 1 -27 4 -48 7 -48 17 0 99 37 118 53 22 20 22
20 37 1 54 -73 114 -254 92 -282 -6 -8 -6 -12 2 -12 15 0 2 -62 -16 -77 -13
-10 -27 -6 -73 17 l-58 29 -62 -69 c-34 -39 -66 -68 -71 -64 -5 3 -8 2 -7 -3
3 -8 -26 -55 -94 -156 -11 -15 -18 -32 -16 -37 2 -5 42 10 89 35 47 24 109 53
137 64 56 22 136 36 128 22 -3 -4 5 -6 19 -4 13 3 48 -6 78 -20 l55 -25 42 39
c23 21 45 39 49 39 4 0 6 -14 3 -30 -2 -17 -8 -30 -12 -30 -5 0 -4 -16 1 -36
15 -53 -4 -99 -54 -131 -23 -15 -55 -26 -71 -26 l-29 0 22 -18 c19 -15 35 -18
99 -13 130 8 155 6 175 -17 9 -12 17 -29 17 -38 -1 -31 -28 -92 -64 -144 -31
-45 -36 -60 -34 -100 2 -26 6 -47 9 -47 3 0 21 -35 38 -77 36 -84 37 -130 8
-228 -23 -80 -31 -175 -14 -175 7 0 14 6 14 13 0 21 63 108 74 101 5 -3 8 0 7
8 -2 7 3 12 10 10 8 -1 11 2 7 8 -3 5 6 26 21 45 18 25 32 63 45 128 10 50 19
95 19 99 0 22 31 -9 40 -40 6 -21 14 -44 17 -52 17 -49 73 254 73 396 l0 75
31 -16 c24 -13 34 -14 45 -4 20 16 38 83 30 113 -3 14 -7 29 -8 33 -1 5 -12
16 -24 25 -12 10 -29 36 -38 58 -17 44 -34 231 -17 195 5 -11 10 -16 10 -11 2
18 31 -18 39 -47 4 -17 13 -32 20 -35 11 -3 16 38 13 108 -2 49 -35 260 -41
260 -3 0 -16 -17 -30 -37 l-25 -37 -6 135 c-3 74 -10 150 -14 169 -8 35 -8 35
12 17 20 -17 56 -82 67 -120 3 -10 11 -15 17 -11 14 8 4 138 -17 213 -24 83
-113 251 -134 251 -4 0 -8 -23 -9 -50 -1 -52 -14 -90 -31 -90 -6 0 -10 6 -10
13 -1 23 -86 183 -159 297 -82 126 -158 230 -257 348 -36 42 -82 111 -103 152
-56 111 -79 143 -201 280 -62 69 -133 157 -160 195 -51 75 -129 153 -176 178
-16 8 -63 25 -104 37 -106 31 -118 39 -230 145 -63 60 -124 107 -163 127 -65
33 -181 67 -232 69 -26 0 -19 6 45 36 384 184 627 307 685 346 79 52 258 194
263 208 5 12 -17 11 -94 -2 -113 -20 -118 -10 -29 48 107 69 162 96 176 87 7
-4 9 -3 6 3 -3 5 35 24 85 43 109 41 131 57 164 123 20 38 28 47 36 36 7 -10
8 -8 3 9 -4 12 -2 22 4 22 5 0 12 8 14 18 3 10 5 6 6 -11 0 -16 -4 -37 -9 -48
-6 -10 -8 -19 -6 -19 3 0 42 34 87 75 46 41 86 72 91 69 5 -3 7 -1 6 5 -2 6
15 35 37 66 71 99 175 268 215 350 55 114 72 209 69 381 -3 150 -8 160 -44
101 l-20 -32 -3 98 c-1 54 1 120 6 147 5 28 7 50 3 50 -3 0 -7 17 -7 38 l-2
37 23 -50 c12 -28 28 -77 35 -110 10 -46 14 -55 20 -40 23 60 28 237 10 308
-14 53 -101 276 -140 359 -17 35 -26 64 -20 66 5 2 36 -15 69 -36 50 -34 61
-38 66 -24 3 9 1 18 -5 20 -14 5 -84 145 -156 310 -59 136 -88 185 -143 246
-24 25 -29 35 -15 28 30 -16 109 -108 153 -180 21 -35 42 -59 45 -54 3 6 0 43
-8 84 -31 160 -80 238 -180 282 -88 39 -215 134 -446 333 -36 30 -91 72 -123
92 -31 21 -54 41 -50 46 5 4 3 5 -4 1 -12 -7 -216 95 -289 145 -40 27 -79 68
-119 123 -86 118 -125 163 -188 212 -59 47 -67 56 -42 50 41 -10 151 -80 148
-95 -2 -6 1 -10 5 -8 15 4 64 -62 56 -74 -4 -7 -3 -9 4 -5 13 8 55 -48 44 -59
-4 -5 -2 -5 5 -2 6 4 24 -4 40 -17 42 -35 124 -82 206 -116 101 -43 200 -105
242 -151 39 -44 60 -51 49 -16 -50 163 -89 208 -245 287 -146 73 -136 66 -253
171 -114 102 -140 124 -149 126 -4 0 -31 10 -60 22 -53 21 -205 60 -312 81
-33 6 -74 16 -92 21 l-32 10 222 149 c122 81 255 172 296 200 56 40 69 46 55
27 -10 -15 -24 -27 -30 -27 -17 0 -12 -26 8 -39 14 -9 17 -8 16 1 -2 7 21 25
51 41 57 29 221 140 280 188 19 15 39 25 44 22 6 -3 7 -2 4 4 -3 5 26 36 65
69 87 73 196 188 216 231 8 18 19 30 23 28 3 -3 7 1 6 8 0 6 1 28 2 47 l3 35
9 -30 c5 -16 6 -37 3 -47 -12 -38 18 -24 63 29 74 89 361 373 430 426 35 26
92 62 129 79 55 26 63 33 49 41 -17 9 -106 5 -173 -9 l-33 -7 38 44 c70 82
164 169 175 163 6 -4 8 -2 5 3 -4 6 20 34 53 62 32 28 73 74 91 101 18 28 38
50 45 50 20 0 44 77 53 169 5 47 20 126 35 175 28 96 30 106 18 106 -9 0 -79
-89 -105 -134 l-18 -31 5 45 c15 124 27 339 23 396 -5 70 4 81 28 34 24 -45
33 -36 29 28 -6 80 -27 147 -94 298 -63 143 -94 237 -87 266 3 10 1 15 -5 12
-6 -4 -8 4 -7 17 2 13 0 30 -4 36 -14 23 -9 206 7 266 25 92 98 223 117 211 5
-3 6 1 4 8 -3 8 15 35 40 61 33 34 40 47 27 47 -10 0 -28 -7 -40 -16z m-2627
-4297 c238 -170 315 -229 308 -240 -3 -5 -1 -7 4 -4 11 7 116 -73 249 -188 38
-33 74 -64 80 -70 7 -5 69 -66 138 -135 140 -137 156 -165 125 -215 -10 -16
-25 -29 -33 -29 -9 1 -14 -3 -13 -10 3 -14 -118 -55 -165 -56 -20 0 -39 -4
-43 -9 -13 -21 42 -33 161 -34 103 -2 121 -4 107 -15 -10 -7 -23 -10 -31 -7
-7 2 -11 1 -8 -4 8 -12 -45 -21 -126 -21 -50 0 -67 3 -62 12 4 6 3 8 -4 4 -14
-9 -93 4 -87 14 3 5 -3 6 -13 4 -9 -3 -38 0 -62 6 -59 16 -89 15 -104 -1 -6
-8 -7 -11 -2 -7 13 10 48 -11 40 -24 -4 -6 -3 -8 4 -5 15 10 43 -3 35 -16 -3
-6 -1 -7 6 -3 7 5 50 -32 115 -98 99 -103 136 -126 136 -87 0 37 26 46 93 32
80 -17 101 -29 166 -95 30 -31 60 -56 67 -56 7 0 14 -6 17 -12 2 -7 11 2 21
19 35 69 131 84 207 33 54 -35 113 -105 103 -122 -4 -6 -3 -8 4 -5 19 12 102
-161 102 -212 0 -41 -143 -73 -415 -91 -161 -12 -285 -29 -380 -54 -65 -17
-287 -105 -270 -107 6 -1 71 -1 145 -1 215 0 423 -22 545 -58 17 -5 50 -14 74
-20 40 -10 42 -12 25 -25 -11 -8 -33 -15 -51 -15 -43 0 -63 -9 -56 -26 3 -8 9
-14 13 -14 5 0 21 -5 36 -10 15 -6 66 -13 113 -15 160 -9 241 -57 241 -145 0
-43 -21 -124 -43 -166 -20 -38 -100 -112 -152 -139 -63 -33 -55 -43 35 -41 84
1 99 -6 100 -46 0 -59 -143 -77 -446 -55 -371 28 -596 21 -958 -29 -104 -14
-207 -26 -227 -27 -21 -1 -41 -6 -45 -10 -4 -4 -16 -7 -28 -7 -12 0 -16 -4
-11 -9 10 -10 187 -25 420 -36 145 -7 450 -32 493 -41 18 -4 29 -10 26 -15 -3
-5 2 -6 10 -3 45 17 328 -79 311 -106 -4 -6 -1 -9 7 -8 8 2 14 -8 16 -25 5
-42 -39 -101 -99 -136 -67 -38 -124 -46 -180 -27 -24 9 -49 16 -56 16 -17 0
11 -63 52 -120 l33 -45 -87 -51 c-47 -29 -160 -96 -251 -149 -143 -85 -360
-218 -510 -313 l-45 -29 -49 41 c-27 23 -62 52 -78 66 -21 18 -32 39 -39 74
-16 88 -106 199 -92 115 6 -39 -20 -79 -51 -79 -23 0 -87 31 -525 257 -211
109 -440 243 -545 319 l-60 44 86 0 c100 0 181 -22 257 -69 39 -23 51 -27 51
-16 0 21 -55 129 -76 150 -17 17 -15 17 35 10 65 -9 313 14 308 28 -2 6 -49
22 -105 36 -56 14 -99 27 -97 29 2 3 66 19 142 37 315 75 315 75 50 100 -480
45 -630 66 -781 110 -103 30 -228 84 -220 96 3 5 -2 6 -10 3 -15 -6 -106 74
-106 94 0 7 10 12 23 12 12 0 73 8 135 17 116 18 143 35 75 48 -66 12 -139 45
-181 80 -38 33 -40 38 -31 65 22 61 150 116 294 126 391 26 413 35 193 75 -38
7 -68 16 -68 21 0 4 3 8 8 8 4 0 45 7 92 15 240 43 512 56 700 35 47 -5 122
-12 167 -16 149 -12 156 -23 13 -21 -134 2 -177 -9 -108 -26 18 -5 35 -12 38
-15 3 -4 13 -7 23 -8 66 -3 78 -5 74 -11 -3 -5 98 -8 223 -8 126 0 226 2 223
5 -7 7 269 39 344 39 61 1 92 16 56 27 -10 3 -48 19 -85 36 -37 16 -90 37
-118 47 -68 24 -69 28 -8 30 85 2 222 21 233 32 5 5 6 9 3 9 -4 0 -73 11 -155
25 -81 14 -197 30 -258 35 -133 10 -468 5 -585 -9 -47 -6 -292 -10 -545 -10
-496 1 -569 7 -624 51 -56 44 -78 132 -58 229 6 30 11 36 27 32 11 -3 18 -8
16 -12 -3 -4 3 -7 12 -8 9 -1 33 -4 52 -8 37 -7 127 20 166 50 17 14 14 15
-41 13 -73 -2 -102 12 -122 60 -34 80 17 251 90 300 34 22 73 30 62 12 -3 -6
1 -7 9 -4 9 3 32 -4 52 -17 40 -24 84 -104 84 -151 0 -46 17 -40 40 14 18 42
21 65 18 119 -5 61 -4 66 13 62 11 -3 19 -9 19 -13 0 -8 186 -5 241 4 26 4 27
2 31 -53 4 -62 50 -171 72 -171 8 0 11 18 8 63 -2 49 1 69 18 95 11 18 25 30
30 27 6 -4 9 -1 8 7 -5 24 90 48 177 44 163 -8 283 -4 380 12 55 9 99 22 98
27 -2 6 -38 13 -82 17 -109 9 -237 34 -335 65 -98 31 -327 121 -340 133 -12
12 60 84 75 74 7 -4 9 -3 5 4 -3 5 6 19 21 30 l27 20 -106 -1 c-118 -2 -129 2
-131 54 -3 49 38 69 146 72 47 1 83 4 82 7 -2 3 10 12 26 19 29 13 38 38 18
58 -12 12 11 31 106 92 33 21 85 54 115 73 188 120 341 209 350 203 6 -4 9 -2
8 3 -3 12 180 131 202 132 8 0 74 -42 145 -93z"/>
</g>
</svg>
