<?xml version="1.0" standalone="no"?>
<!DOCTYPE svg PUBLIC "-//W3C//DTD SVG 20010904//EN"
 "http://www.w3.org/TR/2001/REC-SVG-20010904/DTD/svg10.dtd">
<svg version="1.0" xmlns="http://www.w3.org/2000/svg"
 width="1080.000000pt" height="1080.000000pt" viewBox="0 0 1080.000000 1080.000000"
 preserveAspectRatio="xMidYMid meet">
<metadata>
Created by potrace 1.16, written by Peter Selinger 2001-2019
</metadata>
<g transform="translate(0.000000,1080.000000) scale(0.100000,-0.100000)"
fill="#000000" stroke="none">
<path d="M4734 10135 c-10 -8 -34 -15 -51 -15 -49 0 -43 -34 17 -97 51 -56 64
-62 77 -39 7 12 17 7 52 -25 25 -21 53 -39 63 -39 27 0 34 45 14 87 -16 34
-16 35 1 28 32 -14 80 -17 87 -6 4 6 11 11 17 11 11 0 12 -27 0 -32 -5 -1 -20
-25 -35 -53 -14 -27 -32 -58 -38 -67 -10 -14 -9 -21 8 -40 12 -13 29 -45 39
-73 10 -27 21 -54 25 -60 3 -5 -8 -36 -25 -68 l-32 -59 -6 43 c-4 33 -14 50
-39 71 -18 15 -38 28 -45 28 -14 0 -63 -82 -63 -105 0 -9 7 -32 16 -51 15 -32
15 -37 -1 -71 -18 -38 -15 -135 5 -141 5 -2 12 -19 16 -37 8 -46 24 -58 58
-45 26 9 26 9 26 -40 l0 -49 -52 -3 c-29 -2 -51 -5 -48 -8 3 -3 -2 -13 -10
-22 -14 -15 -16 -14 -28 9 -10 18 -20 23 -40 21 -25 -3 -27 -7 -27 -48 0 -42
2 -45 28 -48 38 -5 35 -27 -13 -87 -22 -27 -40 -56 -40 -63 0 -7 -4 -11 -10
-7 -11 7 -77 -34 -85 -53 -7 -18 12 -52 44 -80 l26 -22 -27 11 c-15 7 -39 29
-54 50 -22 32 -30 37 -45 29 -19 -11 -36 -87 -25 -115 7 -19 -17 -20 -36 -2
-26 26 -47 27 -75 3 -25 -22 -26 -25 -13 -55 12 -29 11 -34 -10 -56 -13 -14
-34 -25 -46 -25 -12 0 -35 -10 -51 -23 -75 -61 -98 -65 -133 -23 -17 22 -39
20 -80 -7 -19 -12 -53 -30 -75 -40 -40 -17 -40 -17 -16 1 35 28 22 52 -29 52
-58 0 -116 32 -139 79 -16 31 -27 39 -56 44 -24 4 -50 20 -77 46 -43 44 -59
48 -99 27 -24 -12 -26 -11 -36 14 -8 22 -7 26 6 26 9 0 31 1 50 2 l33 2 -7 68
c-8 77 -17 93 -54 90 -37 -2 -70 18 -78 50 -8 35 -26 52 -53 52 -37 0 -78 29
-111 78 -17 26 -37 52 -44 57 -7 6 -23 29 -36 52 -28 49 -125 153 -142 153
-18 0 -39 -52 -27 -64 5 -5 10 -17 10 -25 0 -8 -18 11 -40 43 -41 58 -48 80
-30 91 18 11 10 44 -15 61 -48 31 -172 -9 -239 -77 -15 -16 -32 -29 -37 -29
-5 0 -9 -9 -9 -20 0 -11 4 -20 9 -20 5 0 1 -15 -8 -34 -13 -28 -20 -33 -41
-30 -31 6 -90 -29 -90 -54 0 -10 -20 -40 -45 -66 -24 -26 -54 -69 -66 -94 -12
-26 -29 -55 -37 -64 -14 -17 -13 -43 3 -81 7 -16 4 -18 -27 -12 -24 5 -38 2
-46 -8 -10 -11 -20 -12 -51 -4 -49 13 -66 6 -85 -35 -9 -19 -30 -42 -47 -52
-25 -15 -30 -24 -28 -49 2 -21 -7 -47 -24 -74 -35 -55 -34 -90 3 -153 17 -28
30 -57 30 -65 0 -8 7 -15 14 -15 8 0 27 -11 42 -25 25 -23 25 -25 7 -25 -31 0
-68 -33 -60 -54 4 -10 15 -20 25 -23 15 -3 18 -14 18 -57 -1 -55 20 -91 104
-178 19 -20 55 -61 80 -91 44 -54 80 -73 80 -42 0 14 24 20 60 15 8 -1 32 -13
54 -28 21 -15 49 -33 62 -40 24 -13 29 -23 17 -35 -3 -4 -12 2 -20 13 -16 23
-39 26 -46 6 -7 -19 3 -56 15 -56 6 0 7 -16 3 -40 -4 -22 -3 -40 2 -40 11 0
43 -86 43 -114 0 -10 -7 -24 -15 -30 -9 -6 -18 -27 -21 -47 -5 -30 -2 -40 24
-65 28 -28 29 -32 21 -84 -4 -30 -13 -80 -21 -110 l-13 -55 -2 45 c-5 85 -13
110 -32 110 -25 0 -48 -58 -57 -141 -6 -63 -23 -115 -24 -76 0 13 -9 17 -39
17 -35 0 -44 -6 -78 -46 -21 -25 -55 -65 -75 -89 -21 -23 -38 -46 -38 -51 0
-5 13 -20 30 -34 26 -23 29 -29 23 -67 l-6 -43 -57 0 -58 0 -17 -44 c-18 -46
-14 -66 11 -66 12 0 12 -4 2 -22 -26 -45 -52 -68 -79 -68 -29 0 -63 -39 -53
-63 4 -11 -9 -16 -54 -20 -32 -4 -67 -10 -78 -14 -17 -6 -17 -5 -6 10 8 9 11
24 8 34 -5 15 5 21 62 36 106 29 108 30 147 111 44 88 55 155 30 176 -21 17
-44 5 -63 -33 -7 -15 -17 -27 -21 -27 -5 0 -16 -18 -25 -41 l-17 -41 -48 7
c-33 4 -51 3 -56 -5 -5 -8 -23 -9 -56 -5 -46 6 -49 6 -49 -16 0 -21 -1 -21
-19 -5 -15 14 -29 16 -63 11 -32 -5 -60 -1 -103 14 -41 14 -85 21 -140 21 -50
1 -89 6 -105 15 -33 19 -60 19 -60 0 0 -18 -25 -10 -64 22 -38 32 -69 27 -77
-12 l-6 -30 -7 30 c-16 63 -32 100 -48 103 -22 4 -49 -58 -42 -95 5 -24 1 -31
-19 -40 -58 -27 -99 -77 -154 -189 -53 -109 -58 -134 -27 -134 11 0 12 -4 2
-19 -11 -17 -13 -16 -31 20 -11 22 -25 65 -31 97 -9 47 -15 58 -33 60 -19 3
-23 -1 -23 -24 0 -15 5 -42 11 -59 10 -27 8 -38 -15 -83 -30 -59 -32 -84 -10
-103 12 -10 25 -10 55 -2 37 10 38 9 33 -12 -3 -13 5 -49 19 -84 l25 -62 -19
-39 c-10 -21 -19 -45 -19 -52 0 -7 -5 -30 -11 -50 -8 -30 -15 -38 -33 -38 -15
0 -28 -10 -37 -27 l-14 -28 -3 43 c-2 25 6 68 19 107 20 60 21 70 9 125 -30
143 -57 117 -98 -100 -43 -223 -64 -420 -60 -559 3 -106 6 -122 35 -183 18
-38 38 -68 45 -68 18 0 34 12 40 30 3 11 11 8 31 -14 22 -24 29 -27 42 -16 8
7 15 27 16 44 0 17 3 25 6 19 2 -7 10 -13 18 -13 7 0 18 -14 25 -30 8 -19 22
-32 39 -36 50 -11 58 -16 31 -23 -23 -6 -26 -13 -21 -39 3 -20 58 -32 142 -32
50 0 99 4 109 10 14 7 19 6 23 -9 5 -19 50 -31 124 -31 57 0 73 8 73 36 0 34
-43 58 -120 66 -36 3 -80 10 -99 15 l-34 8 26 18 c14 9 31 17 37 17 14 0 12
26 -5 59 -14 29 -14 29 10 17 18 -8 24 -18 22 -36 -2 -20 3 -26 24 -28 15 -2
32 -14 43 -32 22 -38 29 -37 57 1 l22 32 80 -6 c44 -4 85 -10 91 -15 18 -15
124 -32 156 -26 21 5 36 0 56 -15 28 -22 78 -28 89 -11 4 7 12 7 25 0 10 -5
31 -11 47 -11 17 -1 21 -3 11 -6 -23 -6 -24 -56 -2 -74 14 -11 12 -16 -17 -41
-17 -15 -40 -28 -50 -28 -35 0 -20 -34 24 -56 33 -16 43 -26 45 -50 3 -29 32
-94 42 -94 3 0 17 22 33 49 27 49 36 105 17 116 -6 3 -10 12 -10 18 0 12 69
-62 70 -75 0 -5 -8 -8 -18 -8 -13 0 -23 -17 -39 -66 l-22 -66 22 -30 c20 -27
21 -30 4 -39 -24 -14 -21 -36 12 -78 45 -57 54 -97 40 -178 -10 -59 -39 -130
-39 -95 0 7 -14 12 -33 12 -31 0 -35 4 -63 61 -48 101 -94 115 -94 29 0 -27 4
-51 10 -55 5 -3 7 -12 4 -19 -3 -8 -1 -17 5 -21 14 -8 14 -102 0 -111 -6 -3
-9 -17 -6 -30 2 -13 1 -25 -3 -26 -4 -2 -11 -18 -15 -36 -6 -31 -5 -32 24 -32
16 0 33 5 36 10 3 6 10 10 15 10 14 0 -21 -71 -46 -95 -11 -11 -42 -39 -67
-63 -44 -39 -58 -66 -39 -74 4 -1 -16 -27 -45 -55 -42 -42 -53 -48 -53 -33 0
33 -34 23 -79 -23 -23 -23 -55 -54 -72 -70 -40 -36 -38 -80 3 -85 35 -4 28
-25 -20 -57 l-36 -25 -23 22 -22 21 -78 -69 c-42 -38 -84 -81 -92 -96 -9 -15
-23 -29 -33 -31 -13 -4 -17 -15 -16 -48 0 -24 -2 -82 -6 -129 l-6 -84 63 -66
c126 -130 145 -155 162 -219 10 -33 23 -65 30 -71 11 -9 11 -16 -1 -38 -18
-34 -18 -53 1 -78 8 -10 15 -27 15 -36 0 -10 5 -18 11 -18 5 0 8 -4 5 -9 -4
-5 -3 -11 1 -13 12 -5 53 -110 53 -133 0 -11 18 -38 40 -60 22 -22 80 -82 129
-134 71 -74 94 -93 110 -88 17 4 23 -2 33 -35 13 -44 91 -138 114 -138 8 0 33
17 56 39 42 38 42 39 30 78 -7 22 -12 54 -12 72 0 23 -5 31 -17 31 -10 0 2 12
27 27 25 14 56 36 70 48 63 55 207 117 302 130 56 7 68 21 38 42 -11 8 -25 26
-30 39 -10 25 -29 36 -90 51 l-35 9 70 26 c39 14 126 35 195 47 230 40 222 38
253 80 15 22 27 46 27 55 0 12 10 16 35 16 19 0 45 5 57 11 18 8 40 6 88 -6
36 -9 75 -19 88 -22 14 -3 30 1 42 12 18 16 20 16 54 -11 l35 -28 -29 -12
c-62 -26 -62 -85 0 -134 34 -27 38 -35 37 -73 -2 -60 19 -107 49 -107 23 0 24
3 24 60 l0 60 53 -1 c28 -1 43 -4 32 -6 -22 -6 -35 -21 -35 -40 0 -7 18 -25
40 -39 52 -34 66 -24 46 34 -15 40 -14 41 5 29 37 -23 54 -76 54 -169 0 -79 2
-88 25 -106 21 -18 23 -24 13 -40 -7 -12 -10 -40 -6 -73 6 -61 -20 -254 -42
-314 -8 -22 -14 -56 -15 -75 -1 -63 -17 -68 -27 -9 -9 61 -26 71 -60 39 -12
-11 -27 -20 -33 -20 -11 0 -12 -4 -16 -70 -14 -236 -14 -236 -45 -247 -16 -6
-29 -18 -29 -27 0 -15 100 -132 127 -149 7 -4 22 -3 33 3 23 12 27 58 8 93
-14 27 -7 21 69 -52 32 -31 81 -64 130 -86 43 -20 89 -43 103 -51 14 -9 41
-22 60 -30 107 -45 111 -48 98 -55 -18 -10 -176 35 -245 68 -49 24 -54 25 -70
10 -30 -26 -41 -24 -61 13 -17 30 -25 35 -61 38 -54 4 -61 -15 -20 -59 41 -44
50 -70 43 -122 l-6 -42 47 -13 c53 -14 65 -10 66 21 1 17 2 18 6 5 5 -22 23
-23 70 -3 32 13 51 13 177 -1 113 -12 147 -20 171 -37 34 -25 73 -27 260 -14
172 12 172 12 185 53 19 57 11 64 -80 64 -77 0 -80 1 -70 19 5 11 10 32 10 48
0 15 3 38 6 50 6 20 8 21 28 8 21 -14 25 -13 57 15 29 27 35 29 45 15 17 -23
52 -18 71 11 15 24 15 29 1 57 -8 18 -20 51 -25 75 -9 36 -7 48 13 89 13 25
24 59 24 75 0 23 -4 28 -24 28 -14 0 -28 -5 -31 -10 -3 -5 -19 -10 -34 -10
-25 0 -27 2 -23 38 6 51 25 74 74 92 l43 16 -4 90 c-3 86 -2 91 21 106 23 15
23 15 20 -23 -4 -34 -1 -39 16 -39 12 0 28 10 36 22 20 28 21 107 2 114 -7 3
-11 14 -9 28 3 16 -4 30 -26 49 -39 32 -29 40 58 47 64 5 65 6 73 38 l9 34
132 -4 c109 -2 140 -7 175 -24 l44 -21 -37 -22 c-61 -36 -42 -46 95 -49 95 -2
131 1 156 13 51 24 72 19 91 -20 9 -19 24 -35 32 -35 26 1 84 57 78 74 -9 22
6 20 28 -4 10 -11 29 -20 42 -20 19 0 23 -5 23 -29 0 -30 30 -61 57 -61 22 0
14 43 -14 72 -22 23 -24 28 -9 28 9 0 27 -10 39 -23 36 -37 74 -52 92 -37 12
10 15 10 15 -4 0 -9 -9 -24 -20 -33 -19 -16 -20 -30 -20 -185 0 -143 2 -168
15 -168 8 0 15 -3 15 -8 0 -13 20 -176 26 -207 4 -22 -4 -13 -30 34 -20 36
-40 67 -44 70 -5 3 -26 40 -47 81 -21 41 -45 87 -52 102 -22 43 -43 36 -43
-13 0 -49 25 -151 48 -194 8 -16 15 -43 14 -60 -2 -29 27 -68 83 -113 15 -13
15 -16 0 -35 -36 -51 -26 -72 28 -56 16 5 34 6 38 3 14 -9 10 -24 -6 -24 -9 0
-20 -11 -27 -25 -10 -21 -7 -29 24 -67 20 -24 60 -55 92 -71 32 -16 63 -41 73
-58 11 -18 26 -29 39 -29 30 0 138 -72 166 -111 19 -26 28 -30 52 -25 35 7
116 53 116 66 0 15 86 61 102 55 8 -3 50 12 93 33 63 31 83 37 97 29 18 -12
66 -2 237 50 73 22 90 32 132 75 29 30 51 64 54 82 5 25 18 38 67 66 104 60
130 111 87 171 -19 27 -59 40 -59 19 0 -5 -16 -2 -35 7 -22 11 -46 36 -67 70
-18 30 -38 51 -45 49 -11 -5 -18 24 -25 109 -3 33 -34 47 -49 23 -18 -27 16
-188 39 -188 9 0 42 -64 42 -81 0 -6 -8 -6 -21 2 -14 7 -24 8 -31 1 -17 -17
-45 7 -40 33 2 14 -3 28 -15 36 -33 24 -53 62 -53 100 0 29 -6 43 -26 58 -28
22 -28 35 -8 123 4 20 1 31 -15 44 -32 28 -27 54 10 54 28 0 31 2 25 25 -4 16
1 40 15 68 27 53 24 51 48 37 17 -9 21 -20 21 -65 0 -43 5 -59 26 -84 14 -17
32 -31 39 -31 8 0 24 -15 36 -32 46 -67 111 -138 126 -138 13 0 14 9 9 52 -14
126 -15 127 -54 130 -28 2 -38 8 -41 23 -2 11 -12 32 -23 47 -16 23 -17 30 -6
47 10 17 10 27 -1 53 -16 39 -18 70 -7 117 8 33 8 34 -24 29 -30 -4 -33 -2
-50 37 -10 23 -29 51 -42 61 -13 10 -41 51 -61 91 -32 63 -35 73 -21 81 22 12
14 45 -13 57 -17 7 -21 15 -17 30 4 11 7 21 9 22 1 2 21 -6 44 -18 24 -11 45
-18 48 -15 6 6 33 -19 33 -31 0 -12 38 -43 53 -43 21 0 87 74 87 97 0 15 -8
22 -31 27 -25 5 -30 9 -23 23 5 10 8 37 7 60 l0 41 45 7 c25 4 53 12 63 18 15
9 23 7 42 -11 32 -31 75 -29 87 3 8 22 15 25 60 25 47 0 51 2 48 21 -2 17 -20
28 -76 49 -46 18 -90 45 -122 73 -28 25 -64 48 -80 52 -36 8 -50 25 -20 25 27
0 37 28 15 43 -13 10 -15 21 -9 51 l7 39 17 -23 c12 -16 23 -20 38 -16 17 6
21 2 27 -23 8 -39 20 -47 79 -55 33 -4 70 -19 110 -45 34 -22 93 -54 133 -71
48 -22 70 -36 66 -46 -8 -23 56 -56 100 -50 20 2 51 -1 68 -7 24 -10 29 -16
24 -35 -4 -16 2 -29 20 -46 14 -13 25 -31 25 -40 0 -10 18 -24 47 -37 39 -17
51 -18 70 -8 18 9 26 9 38 -1 9 -7 45 -14 81 -15 35 -1 68 -5 71 -9 3 -3 9
-23 12 -43 6 -34 9 -38 35 -35 15 2 39 -4 52 -12 13 -9 45 -16 74 -16 54 0 63
-9 27 -32 -19 -13 -28 -13 -72 -1 -28 8 -59 16 -71 19 -17 5 -29 -5 -58 -45
-57 -77 -48 -88 73 -93 90 -3 102 -6 156 -38 31 -19 71 -50 88 -68 27 -27 38
-32 78 -32 83 0 95 16 62 85 -18 38 -27 41 -69 25 -32 -13 -47 -2 -75 53 l-20
39 22 24 c12 13 32 24 43 24 12 0 48 14 81 30 33 16 66 30 73 30 6 0 12 8 12
18 0 11 9 27 20 37 11 10 22 33 26 51 3 19 12 34 19 34 7 0 28 30 47 67 21 43
43 72 62 82 64 36 91 58 97 81 l7 25 1 -27 c2 -43 39 -37 90 14 31 31 41 50
39 68 -3 21 -9 25 -40 28 -30 3 -43 -2 -61 -22 -22 -24 -23 -24 -35 -5 -23 37
-18 44 77 122 22 17 22 19 6 43 -22 35 -11 43 20 14 22 -20 25 -21 39 -7 9 9
16 24 17 34 0 10 9 0 20 -24 15 -34 25 -43 44 -43 23 0 25 4 25 46 0 25 -4 54
-10 64 -7 13 -6 21 5 30 19 16 19 59 1 66 -25 10 -74 -24 -87 -60 -10 -28 -16
-33 -30 -26 -33 18 -50 103 -28 139 10 14 7 27 -14 67 -14 27 -31 72 -38 101
-8 33 -26 67 -48 93 -34 39 -38 41 -74 35 -21 -4 -41 -14 -44 -22 -9 -22 13
-60 43 -75 27 -13 52 -43 44 -52 -3 -2 -17 -7 -31 -11 -20 -5 -28 -1 -39 19
-8 17 -22 26 -37 26 -13 0 -23 6 -23 13 0 8 -9 22 -21 32 -17 16 -24 17 -51 7
-36 -13 -48 -9 -41 16 3 13 -5 25 -23 36 -26 18 -28 17 -64 -3 -49 -27 -50
-27 -50 12 0 18 -7 42 -15 54 -13 19 -13 22 1 27 19 7 12 46 -15 85 -29 41
-47 104 -31 109 39 13 75 87 50 102 -7 4 -31 5 -52 2 l-40 -5 18 28 c21 32 25
130 11 220 l-8 50 63 30 c35 17 68 39 73 50 6 11 20 20 33 21 20 1 21 -1 7
-16 -23 -25 -18 -40 18 -55 19 -8 39 -21 47 -29 7 -9 21 -16 31 -16 16 0 19 8
19 44 0 24 3 51 6 59 7 19 -102 137 -127 137 -15 0 -19 -8 -20 -37 0 -21 -4
-47 -9 -58 -7 -16 -9 -12 -9 18 -1 57 -16 77 -55 77 -37 0 -42 -7 -72 -112
-10 -38 -22 -68 -27 -68 -4 0 -12 11 -17 25 -11 28 -22 31 -39 11 -13 -16 -31
-153 -31 -243 0 -66 -3 -71 -34 -48 -18 14 -18 16 -3 33 24 26 21 43 -10 68
l-28 22 23 22 c21 20 22 23 8 39 -22 24 -20 54 5 103 12 23 24 68 26 100 4 35
10 58 18 58 12 0 45 61 45 84 0 8 -7 17 -16 20 -26 10 -64 7 -64 -6 0 -6 -3
-8 -6 -5 -13 13 19 37 48 37 36 0 45 22 23 56 -12 19 -14 29 -6 37 6 6 11 22
11 37 1 91 86 268 120 250 9 -5 59 3 130 22 109 28 141 29 142 3 0 -5 -13 -9
-30 -7 -30 3 -64 -16 -150 -85 -32 -26 -41 -30 -46 -18 -9 23 -28 18 -68 -19
-39 -36 -61 -95 -56 -149 2 -27 8 -33 31 -35 31 -4 57 14 142 92 69 64 122 86
252 105 90 13 116 21 133 39 11 12 27 22 35 22 17 0 30 39 17 52 -5 5 -38 12
-73 14 -35 3 -79 7 -97 10 -32 5 -32 5 -15 29 22 30 63 34 63 6 0 -20 25 -35
41 -25 5 3 9 13 9 23 0 20 50 31 137 31 24 0 53 5 64 11 11 5 29 7 40 4 l21
-7 -21 -22 c-12 -12 -21 -27 -21 -33 0 -6 -7 -16 -15 -23 -8 -7 -15 -21 -15
-31 0 -14 -7 -19 -25 -19 -32 0 -85 -38 -85 -61 0 -18 19 -29 51 -29 10 0 19
-4 19 -10 0 -14 43 -13 57 1 9 9 27 9 73 -1 66 -14 107 -7 180 30 20 10 57 21
82 25 51 8 62 16 71 56 4 14 20 40 37 57 16 18 30 36 30 41 0 5 14 11 30 15
34 6 50 36 50 92 0 28 -6 38 -32 54 -18 11 -48 23 -65 26 -30 6 -33 10 -33 41
0 18 -9 46 -20 61 -25 34 -18 67 10 52 25 -13 23 -14 55 16 23 21 25 28 14 35
-8 5 -29 19 -46 30 -39 24 -40 36 -13 90 12 22 18 48 15 58 -3 12 0 21 10 25
20 7 21 128 2 148 -18 18 4 74 33 83 21 7 36 45 27 69 -3 8 -18 16 -34 18 -20
2 -32 12 -42 36 -8 18 -22 32 -32 32 -23 0 -31 26 -13 41 11 9 15 27 12 61 -2
32 1 49 10 53 19 7 14 43 -14 91 -37 64 -91 100 -175 118 -26 6 -84 48 -140
102 -23 22 -34 25 -85 22 -56 -3 -59 -4 -62 -30 -3 -27 -25 -38 -37 -18 -10
16 -42 12 -49 -6 -5 -12 -9 -14 -20 -5 -32 27 -236 25 -236 -2 0 -8 -17 -11
-52 -9 -100 6 -142 -33 -70 -65 20 -10 39 -19 41 -20 11 -8 -36 -32 -54 -28
-143 36 -157 42 -141 57 8 9 18 27 22 42 3 14 10 29 15 32 17 10 10 54 -8 54
-10 0 -38 11 -61 25 -46 26 -62 25 -62 -3 0 -12 -10 -7 -37 19 -21 19 -54 43
-73 53 -89 48 -139 115 -140 184 0 47 -23 102 -43 102 -7 0 -18 -5 -25 -12 -9
-9 -12 -6 -12 13 0 14 -12 45 -28 70 -15 24 -32 53 -38 64 -6 11 -23 21 -37
23 -21 3 -28 10 -33 38 -8 42 8 64 47 64 32 0 37 -11 14 -34 -27 -27 -19 -48
17 -44 27 2 39 12 65 53 18 28 39 59 48 70 8 10 15 27 15 36 0 21 -22 38 -28
21 -2 -7 -9 -12 -15 -12 -6 0 -20 -9 -32 -20 l-22 -21 -17 26 c-16 25 -16 29
1 72 11 27 35 59 60 80 45 37 68 85 54 111 -7 12 2 29 36 67 25 27 56 66 68
85 12 19 57 63 99 98 42 35 76 67 76 72 0 4 21 34 47 66 l47 57 13 -39 c7 -21
18 -43 23 -48 13 -13 43 16 65 64 10 22 25 40 34 40 38 1 67 45 46 70 -6 8
-21 41 -33 73 -29 77 -109 167 -194 218 -38 23 -68 43 -68 46 0 6 95 -45 164
-89 33 -21 63 -38 67 -38 4 0 28 -14 53 -31 34 -22 46 -37 47 -57 1 -15 2 -35
3 -45 1 -10 9 -24 19 -32 14 -10 17 -21 12 -48 -7 -35 -6 -36 32 -46 23 -6 56
-27 79 -51 68 -69 74 -61 74 94 0 97 -4 146 -16 177 -27 77 -25 110 12 149 18
19 39 57 48 83 24 72 9 85 -43 41 -29 -24 -34 -25 -81 -15 -56 12 -120 14
-144 5 -9 -4 -16 -18 -16 -33 0 -28 54 -131 69 -131 5 0 12 -8 15 -17 6 -16 5
-16 -11 -1 -10 9 -45 30 -78 47 -33 17 -71 40 -84 50 l-23 18 31 -5 c48 -7 40
21 -28 91 -43 44 -63 58 -76 54 -13 -6 -16 -16 -13 -46 l3 -39 -50 19 c-137
53 -213 99 -270 164 -31 36 -61 65 -66 65 -5 0 -32 18 -60 40 -28 22 -68 44
-89 50 -21 6 -52 24 -69 40 -30 31 -66 39 -74 18 -3 -9 -12 -6 -29 10 -32 29
-46 28 -96 -8 l-41 -31 -49 21 -49 21 -65 -43 c-36 -24 -79 -51 -96 -60 -41
-22 -64 -95 -36 -115 16 -12 16 -15 -6 -56 -28 -53 -59 -78 -53 -42 3 12 0 26
-7 30 -15 9 -110 -39 -141 -71 -12 -13 -31 -24 -41 -24 -26 0 -34 -27 -14 -49
9 -10 16 -20 16 -24 0 -11 -73 -27 -122 -27 -52 0 -54 -4 -39 -56 9 -31 9 -31
-19 -21 -39 15 -60 3 -60 -33 0 -17 5 -40 10 -50 13 -25 -23 -48 -46 -30 -8 7
-21 9 -31 5 -10 -5 -44 -7 -75 -6 -41 2 -59 -1 -63 -11 -5 -13 -72 -14 -125
-1 -20 5 -13 8 30 14 58 8 83 29 78 64 -2 15 -17 24 -63 36 -74 20 -134 50
-179 89 -18 17 -38 30 -44 30 -5 0 -12 6 -15 14 -3 8 -44 44 -90 80 -98 77
-123 79 -114 13 3 -22 9 -43 14 -46 4 -3 17 -24 28 -46 11 -21 38 -53 60 -70
22 -16 54 -40 70 -53 l30 -22 -28 10 c-16 6 -39 17 -50 25 -12 8 -29 15 -38
15 -9 0 -22 7 -29 15 -7 8 -25 15 -40 15 -19 0 -37 11 -59 36 -33 37 -101 73
-138 74 -19 0 -23 5 -23 34 0 26 -8 41 -32 63 -32 27 -33 32 -37 113 -2 47 -7
95 -12 108 -5 13 -9 114 -9 226 0 111 -5 228 -11 260 -7 42 -7 62 0 69 16 16
14 156 -2 163 -9 3 -13 30 -13 92 0 90 -17 143 -48 155 -8 3 -16 16 -18 29 -3
21 -8 23 -77 26 -58 2 -77 -1 -92 -14 -18 -16 -19 -16 -19 22 0 57 -41 90 -53
44 -5 -19 -6 -19 -54 2 -43 20 -68 23 -236 26 -163 3 -191 2 -206 -12 -16 -15
-19 -15 -31 -1 -18 21 -237 22 -266 0z m756 -1155 c0 -5 -9 -14 -21 -20 -16
-9 -20 -20 -18 -50 2 -21 -2 -44 -8 -52 -6 -7 -23 -44 -38 -83 -22 -59 -26
-80 -21 -131 5 -49 3 -63 -8 -67 -8 -3 -16 -21 -18 -39 -2 -27 -7 -32 -23 -30
-34 6 -135 56 -135 68 0 6 14 17 30 24 26 11 30 18 30 51 0 40 0 40 55 43 37
2 26 86 -10 86 -20 0 -20 -1 11 115 l27 100 74 -3 c40 -2 73 -8 73 -12z
m-2413 -559 c5 -3 37 -47 71 -97 59 -86 130 -164 151 -164 13 0 -5 -71 -21
-81 -7 -5 -19 -9 -26 -9 -7 0 -26 -7 -42 -15 l-28 -15 -17 45 c-10 25 -36 61
-61 84 -24 22 -49 52 -54 66 -7 19 -17 26 -33 25 -40 -4 -47 0 -47 23 0 12 -6
44 -13 72 -12 43 -17 50 -48 59 -19 5 -28 11 -19 14 18 5 100 107 100 124 0 7
18 -18 39 -56 21 -37 43 -71 48 -75z m4633 -231 c3 -3 11 -22 17 -43 11 -35
10 -39 -13 -53 -13 -9 -24 -23 -24 -31 0 -10 -8 -12 -34 -8 -30 6 -36 4 -52
-24 -10 -17 -24 -31 -30 -31 -7 0 -16 -10 -19 -22 -4 -13 -23 -46 -41 -75 -19
-28 -34 -60 -34 -71 0 -15 -5 -19 -19 -15 -12 3 -24 -3 -34 -17 -14 -20 -15
-20 -20 -3 -3 10 -9 44 -13 76 -5 49 -3 62 12 80 37 43 46 67 33 83 -17 21 31
68 84 84 23 6 69 33 102 61 53 43 60 47 69 31 5 -9 12 -19 16 -22z m-2598 -36
c21 -11 46 -15 74 -11 l44 4 -25 -19 c-39 -30 -32 -56 19 -78 24 -10 47 -24
51 -30 4 -7 33 -10 76 -9 38 1 72 -1 76 -4 3 -4 43 -7 87 -8 76 -1 78 -2 39
-11 -38 -8 -43 -12 -43 -38 0 -26 4 -29 46 -36 25 -3 68 -3 97 1 101 14 207 6
277 -22 l64 -25 17 21 c22 27 59 28 59 2 0 -15 12 -22 53 -31 28 -7 88 -27
132 -45 44 -18 121 -43 172 -56 l92 -22 -36 -66 c-20 -36 -41 -72 -46 -79 -7
-8 -6 -20 0 -35 15 -31 3 -49 -56 -86 -28 -16 -56 -40 -63 -53 -20 -37 -40
-91 -45 -125 -3 -18 -10 -33 -16 -33 -17 0 -47 -32 -47 -51 0 -13 -9 -19 -31
-21 -27 -3 -34 -10 -49 -48 -10 -25 -21 -72 -25 -103 -7 -54 -6 -57 14 -57 12
0 24 7 28 15 3 9 23 25 44 36 33 16 39 24 39 52 l0 32 21 -35 21 -34 -20 -16
c-12 -8 -39 -26 -61 -39 -56 -34 -105 -104 -97 -139 5 -19 4 -23 -3 -13 -8 13
-17 12 -65 -4 -54 -18 -56 -18 -76 0 -11 10 -20 29 -20 42 0 16 -7 27 -19 30
-12 3 -21 17 -26 39 l-6 34 -58 0 c-46 0 -62 4 -77 21 -17 19 -27 21 -108 17
-58 -3 -102 0 -125 8 -46 17 -162 17 -268 2 -75 -11 -89 -10 -131 6 -30 11
-87 20 -157 23 l-111 6 -78 -37 c-43 -20 -82 -36 -86 -36 -4 0 -10 9 -13 20
-3 11 -13 20 -24 20 -10 0 -35 -9 -56 -20 -46 -25 -44 -25 -43 2 1 16 -11 29
-39 45 -84 48 -108 20 -55 -65 l29 -47 -34 -17 c-18 -10 -36 -27 -40 -38 -4
-13 -14 -20 -28 -19 -17 1 -18 2 -4 6 23 6 22 48 -1 65 -10 7 -26 29 -35 49
-9 20 -26 39 -37 42 -11 3 -20 12 -20 20 0 8 -8 17 -19 20 -13 3 -23 24 -36
78 -20 84 -29 105 -58 137 l-21 22 35 -6 c19 -4 45 -18 58 -31 13 -12 28 -23
32 -23 5 0 9 -8 9 -19 0 -20 98 -116 136 -133 32 -15 58 6 49 40 -6 24 -109
166 -138 190 -12 10 -16 10 -21 -4 -5 -13 -11 -9 -31 20 -14 20 -25 43 -25 51
0 8 -4 17 -10 20 -23 14 -7 25 38 25 56 1 109 36 98 65 -5 15 -15 17 -68 11
-65 -8 -98 -20 -98 -36 0 -6 -7 -10 -16 -10 -8 0 -39 -26 -69 -57 l-53 -57
-55 17 c-51 16 -55 19 -61 55 -6 38 -75 132 -76 103 0 -11 -3 -11 -15 -1 -8 7
-15 18 -15 24 0 17 88 38 125 31 25 -5 42 2 98 39 75 50 115 61 187 52 70 -9
124 20 149 80 7 15 31 26 98 43 48 13 115 27 148 31 33 5 89 18 125 30 35 11
90 23 122 27 52 5 60 9 79 39 11 19 24 34 28 34 4 0 18 -11 31 -25 13 -14 32
-25 42 -25 25 0 78 28 78 41 0 13 -62 39 -95 39 -16 0 -25 6 -25 15 0 20 -55
20 -140 -1 -37 -9 -82 -13 -105 -9 -50 7 -166 44 -142 44 19 1 25 41 6 41 -8
0 -7 5 2 16 11 14 13 14 21 0 13 -23 29 -20 76 15 23 17 42 26 42 21 0 -22 40
-23 68 -2 25 19 32 20 49 9 17 -10 28 -9 64 9 52 26 89 28 131 6z m2101 -1147
c-4 -25 4 -47 36 -103 36 -63 67 -154 90 -264 10 -48 34 -91 65 -117 14 -13
26 -32 26 -43 0 -29 30 -38 46 -15 13 17 14 17 14 2 0 -10 7 -20 15 -24 14 -5
14 -8 2 -22 -21 -23 -28 -54 -17 -71 7 -12 15 -13 39 -3 28 10 30 10 21 -7 -6
-11 -14 -22 -20 -25 -6 -3 -6 -15 0 -29 5 -14 5 -27 -1 -33 -7 -7 -4 -25 6
-54 42 -113 59 -139 113 -180 39 -30 52 -45 47 -57 -21 -52 -18 -81 11 -109
29 -28 29 -29 24 -123 l-5 -95 -21 50 c-12 28 -27 67 -34 88 -12 40 -32 47
-65 23 -19 -13 -20 -11 -21 18 -1 46 -11 66 -33 66 -10 0 -21 8 -24 18 -8 22
-47 92 -78 137 -18 26 -31 35 -51 35 -22 0 -28 -5 -28 -22 0 -32 49 -186 76
-240 26 -52 57 -192 55 -253 -1 -32 4 -44 26 -61 27 -21 27 -22 15 -86 -7 -36
-12 -83 -12 -105 0 -31 -5 -42 -24 -52 -23 -13 -24 -18 -30 -160 -3 -80 -9
-165 -12 -188 -6 -39 -4 -42 27 -59 47 -24 59 -39 59 -73 0 -29 -2 -31 -25
-25 -32 8 -61 -16 -70 -58 -12 -54 11 -57 56 -8 23 25 39 36 34 25 -4 -11 -9
-54 -12 -97 -5 -67 -9 -77 -28 -86 -13 -6 -32 -8 -44 -5 -12 3 -28 0 -36 -7
-13 -11 -15 -7 -15 23 0 45 -12 53 -46 30 -15 -10 -41 -16 -60 -14 l-32 2 -4
-133 c-3 -104 0 -137 11 -150 10 -13 11 -21 3 -30 -5 -7 -15 -32 -21 -55 -7
-23 -27 -57 -47 -77 -31 -31 -34 -38 -23 -57 14 -27 -3 -43 -63 -61 -31 -9
-42 -8 -75 9 -31 16 -38 26 -38 49 l0 29 -60 -3 c-33 -2 -78 -12 -100 -22
l-39 -18 -18 28 c-10 18 -43 41 -83 61 -36 17 -65 35 -65 40 0 5 -11 9 -25 9
l-25 0 20 32 c22 37 15 59 -45 123 -20 22 -51 64 -67 93 -18 30 -36 51 -43 48
-17 -6 -45 57 -45 105 0 26 -5 42 -15 45 -10 4 -13 14 -9 30 7 28 -14 124 -27
124 -5 0 -9 5 -9 10 0 6 8 10 19 10 33 0 46 28 44 98 -1 52 2 68 17 81 22 19
62 145 81 256 7 44 15 72 17 63 4 -21 42 -24 61 -5 11 10 12 2 7 -43 -4 -30
-11 -59 -17 -64 -24 -25 12 -191 41 -191 8 0 17 14 21 30 15 58 40 251 45 340
4 73 9 94 26 112 17 18 19 29 13 60 -4 21 -7 66 -6 100 2 53 -1 63 -19 73 -17
9 -25 6 -53 -21 l-32 -33 -3 25 c-2 13 -9 30 -14 37 -17 20 -76 45 -93 38 -10
-3 -20 5 -30 24 -22 42 -19 52 20 79 19 13 35 28 35 34 0 6 -14 25 -30 42
l-30 31 20 22 c24 26 27 94 5 136 -20 38 -20 39 18 96 37 58 49 63 45 18 -3
-31 -1 -33 30 -36 l32 -3 0 60 c0 54 -2 61 -19 61 -11 0 -23 -9 -26 -21 -5
-15 -10 -18 -18 -10 -8 8 -6 15 8 25 17 12 18 18 6 85 -7 39 -16 73 -21 76 -7
5 0 24 38 105 10 21 11 21 7 3 -9 -32 5 -93 21 -93 7 0 32 23 56 52 24 28 63
70 87 92 24 23 59 65 78 94 19 28 39 52 44 52 5 0 9 10 9 23 0 21 26 53 57 71
9 5 10 -1 1 -26 -6 -18 -15 -37 -19 -42 -16 -18 -9 -36 14 -36 13 0 32 9 42
20 24 26 49 25 68 -2 l15 -23 37 36 37 37 -21 21 c-24 24 -20 39 30 100 15 19
26 38 23 43 -5 8 22 48 32 48 1 0 0 -15 -3 -33z m-3624 -176 c18 -22 48 -63
68 -92 20 -29 49 -64 65 -77 16 -14 38 -42 49 -64 l20 -40 -20 7 c-16 5 -28
-3 -53 -31 -18 -21 -45 -50 -59 -65 -28 -29 -53 -94 -64 -166 -9 -59 14 -58
57 2 18 25 45 62 61 82 15 19 27 41 27 48 0 7 11 20 25 29 19 13 25 25 25 54
l1 37 25 -47 c13 -27 28 -48 32 -48 12 0 70 -93 78 -125 l7 -30 -32 28 c-18
15 -41 27 -51 27 -26 0 -66 -52 -74 -95 -4 -20 -15 -55 -25 -78 -10 -23 -26
-85 -35 -137 -10 -52 -25 -107 -34 -123 -14 -22 -14 -31 -4 -47 9 -16 9 -29 0
-65 -7 -25 -16 -45 -20 -45 -11 0 -10 -44 1 -55 5 -6 14 -61 20 -123 6 -62 13
-117 16 -122 3 -5 2 -11 -3 -14 -7 -4 -38 37 -86 116 -31 52 -43 27 -45 -97
-2 -111 16 -222 40 -251 5 -7 7 -30 3 -51 -4 -28 -1 -50 10 -71 11 -22 16 -58
16 -122 0 -93 15 -180 31 -180 5 0 9 -9 9 -21 0 -12 8 -23 19 -26 11 -3 22
-16 25 -29 6 -23 17 -30 71 -49 18 -7 16 -9 -11 -16 -33 -9 -54 -43 -54 -84 0
-29 -33 -49 -135 -80 -63 -19 -71 -24 -75 -51 -4 -24 -11 -30 -35 -32 -26 -3
-33 -10 -52 -61 -26 -65 -29 -101 -10 -101 6 -1 -4 -8 -23 -16 -29 -12 -43
-13 -85 -3 -27 7 -53 16 -56 22 -11 16 -29 -2 -29 -28 0 -14 14 -39 35 -60 20
-19 32 -35 27 -35 -5 0 -19 11 -32 25 -27 28 -56 32 -86 10 -19 -13 -24 -11
-54 20 -31 32 -33 38 -31 101 1 37 5 72 10 78 17 22 23 106 9 129 -18 29 -64
141 -79 195 -13 46 -43 58 -54 21 -12 -36 -9 -152 5 -212 12 -50 11 -60 -1
-67 -18 -12 -53 11 -57 36 -2 11 -6 26 -9 34 -18 46 -43 173 -43 222 0 26 -5
50 -11 54 -7 4 -9 21 -5 46 5 31 2 48 -15 74 l-21 35 21 23 c27 28 26 37 -4
130 -26 80 -32 140 -15 151 19 12 11 45 -10 45 -17 0 -20 7 -20 49 0 26 -3 76
-6 110 -6 52 -5 61 10 61 20 0 20 15 -1 50 -16 27 -16 33 2 103 17 70 17 79 3
124 -11 33 -13 52 -6 60 6 7 7 29 4 48 -5 24 0 61 15 113 12 42 22 109 23 147
1 44 8 82 19 102 9 18 17 48 17 67 0 29 11 46 80 116 58 59 81 90 86 116 4 23
12 34 23 34 10 0 26 10 37 21 10 12 45 46 77 77 31 30 57 61 57 68 0 18 43 66
79 87 l30 18 15 -28 c23 -44 75 -93 97 -93 22 0 49 22 49 39 0 6 16 11 35 11
45 0 54 20 25 60 -33 47 1 39 39 -9z m-1924 -691 c28 -1 29 -2 8 -10 -40 -16
-28 -46 32 -80 59 -34 75 -50 51 -50 -11 0 -16 -10 -16 -31 0 -30 0 -30 -27
-15 -16 8 -45 22 -66 31 -57 25 -149 111 -133 124 24 20 81 41 101 36 11 -3
34 -5 50 -5z m3635 -19 c68 -21 91 -42 144 -129 20 -33 43 -65 51 -72 8 -7 15
-24 15 -37 0 -20 4 -24 20 -20 15 4 24 -2 36 -26 9 -17 23 -37 30 -45 8 -7 14
-18 14 -23 0 -15 111 -129 125 -129 24 0 27 68 6 126 -12 30 -21 63 -21 74 0
23 32 43 54 34 19 -7 19 -9 4 -35 -11 -18 -10 -23 0 -26 26 -10 35 -60 37
-208 1 -151 -6 -192 -40 -220 -15 -12 -31 -61 -41 -125 -3 -25 -17 -66 -30
-92 -13 -26 -24 -63 -24 -82 0 -26 -4 -33 -17 -32 -14 1 -19 -10 -24 -49 -10
-82 -14 -88 -96 -131 -77 -39 -79 -40 -138 -30 -60 10 -93 32 -74 51 5 5 9 19
9 32 0 25 36 63 59 63 11 0 9 -5 -7 -16 -33 -23 -28 -44 9 -44 24 0 41 10 73
44 78 83 90 104 77 134 -7 14 -15 58 -18 97 -3 38 -11 75 -18 80 -6 6 -15 22
-18 36 -4 15 -15 30 -24 33 -31 12 -43 -21 -43 -120 0 -51 -3 -100 -6 -109 -4
-9 -34 -35 -68 -57 -33 -23 -67 -48 -74 -55 -7 -7 -19 -13 -26 -13 -7 0 -26
-10 -41 -22 -27 -21 -28 -21 -41 -3 -8 10 -14 22 -14 26 0 19 -33 15 -59 -6
-19 -16 -41 -25 -65 -25 -40 0 -146 37 -146 51 0 15 -32 10 -45 -7 -10 -15
-13 -15 -27 0 -9 9 -26 16 -38 16 -27 0 -90 43 -156 107 -57 55 -89 126 -100
218 -4 30 -12 60 -19 65 -10 9 -9 19 6 50 29 60 20 150 -15 150 -9 0 -20 8
-25 19 -10 18 -55 37 -75 32 -18 -4 -26 25 -26 100 0 90 8 136 24 142 8 3 12
-12 12 -47 0 -39 8 -65 34 -111 39 -70 59 -95 75 -95 14 0 37 47 58 121 11 38
30 70 56 98 33 35 38 46 29 60 -8 13 -4 30 20 77 34 68 45 79 85 89 20 6 27 4
27 -8 0 -25 31 -29 72 -8 38 18 39 18 33 0 -8 -26 23 -25 98 1 31 11 66 20 78
20 13 0 23 8 26 21 6 20 10 21 74 15 37 -3 95 -15 129 -25z m-3386 -106 c27
-8 82 -15 122 -15 l73 0 -6 -35 c-5 -30 -3 -35 21 -41 34 -8 33 -20 -5 -55
-45 -42 -69 -45 -114 -15 -21 14 -44 26 -52 26 -28 0 -130 61 -152 91 -16 21
-18 29 -8 29 8 0 20 7 27 15 16 19 32 19 94 0z m6721 -26 l60 -2 0 -36 0 -36
125 0 c119 0 150 -5 150 -25 0 -18 -89 -39 -122 -29 -49 14 -68 11 -68 -8 0
-16 -13 -18 -94 -21 -76 -3 -100 0 -120 13 -29 19 -56 14 -56 -10 0 -19 -4
-19 -42 1 -42 22 -98 5 -132 -39 -14 -17 -26 -27 -26 -20 0 7 14 28 30 46 22
25 30 45 30 71 0 28 4 36 18 36 25 0 114 31 108 37 -13 13 21 33 49 28 17 -2
57 -5 90 -6z m-4850 -724 c19 -18 25 -35 26 -67 3 -173 19 -231 72 -256 15 -7
27 -18 27 -24 0 -6 19 -28 42 -49 24 -22 38 -39 32 -39 -6 0 -21 11 -34 25
-13 14 -35 25 -49 25 -14 0 -31 4 -37 8 -17 10 -96 256 -119 370 -8 39 6 42
40 7z m511 -1170 c38 -19 81 -35 97 -35 15 0 27 -4 27 -10 0 -5 -4 -10 -10
-10 -5 0 -10 -8 -10 -19 0 -23 109 -109 149 -117 18 -4 31 -2 31 3 0 6 19 7
54 1 70 -12 109 4 114 47 3 19 -2 33 -14 42 -17 12 -17 13 -1 13 10 0 22 11
27 24 11 31 39 39 99 31 l48 -6 -12 -47 -12 -47 -54 -5 c-52 -5 -54 -6 -57
-37 l-3 -33 88 0 c132 1 201 14 289 56 140 67 147 67 53 4 -33 -23 -58 -47
-56 -53 2 -7 27 -13 56 -15 44 -3 60 2 93 23 22 15 62 30 89 34 27 5 57 15 67
24 31 28 101 48 124 36 25 -14 48 -5 48 19 0 20 21 42 59 62 20 10 25 10 33
-4 10 -18 43 -22 53 -6 3 6 10 10 15 10 11 0 44 -58 59 -103 9 -26 36 -56 97
-108 82 -69 87 -72 135 -71 36 1 49 -3 49 -13 0 -8 -4 -17 -10 -20 -18 -11
-10 -43 15 -63 16 -12 25 -30 25 -47 0 -14 18 -57 39 -93 22 -37 47 -95 57
-130 13 -48 25 -70 50 -91 l34 -27 -24 -22 c-39 -33 -77 -49 -135 -55 -34 -4
-78 -20 -125 -45 -39 -22 -89 -45 -111 -52 -22 -7 -44 -15 -50 -18 -5 -4 -24
-5 -42 -3 -17 1 -41 -3 -52 -9 -17 -9 -22 -8 -27 5 -9 23 -30 18 -85 -20 -60
-41 -63 -41 -89 -15 -24 24 -37 25 -80 3 -31 -15 -36 -15 -63 0 -45 26 -77 21
-133 -22 -50 -38 -53 -39 -99 -29 -31 7 -60 7 -87 0 -27 -7 -49 -7 -67 0 -31
12 -238 0 -247 -14 -3 -5 4 -20 17 -34 l22 -24 -55 0 c-62 0 -111 14 -148 42
-18 15 -33 18 -62 13 -24 -4 -57 -1 -90 10 -65 20 -151 57 -159 68 -3 5 -37
14 -75 21 -38 7 -81 18 -96 26 -22 10 -30 11 -43 0 -13 -11 -14 -9 -9 17 8 42
-23 67 -75 60 -46 -6 -52 0 -69 59 -7 22 -21 49 -31 58 -18 17 -19 20 -5 41
10 16 12 29 6 46 -5 13 -12 44 -15 69 l-6 45 21 -42 c22 -43 58 -60 58 -28 0
19 46 111 60 120 12 8 13 65 1 65 -5 0 -11 9 -14 20 -3 11 -1 20 4 20 17 0 79
63 79 80 0 32 -50 40 -103 16 -18 -8 -40 -16 -49 -19 -25 -9 -61 -84 -54 -113
8 -30 23 -30 54 -1 l24 22 -7 -25 c-18 -58 -25 -68 -52 -73 -15 -3 -34 -1 -40
5 -33 27 -103 -34 -103 -89 0 -23 -15 -32 -22 -13 -1 5 -21 10 -43 11 -74 3
-77 6 -39 47 19 20 46 62 59 92 14 30 37 76 50 101 17 32 25 63 25 98 0 38 4
51 14 51 8 0 22 10 31 23 16 21 17 20 10 -37 -5 -46 -13 -64 -36 -87 -16 -16
-29 -32 -29 -36 0 -17 52 -63 70 -63 17 0 20 7 20 49 0 46 3 51 35 71 19 12
44 35 56 51 11 16 28 29 37 29 29 0 62 30 62 55 0 16 12 33 35 51 19 14 35 34
35 43 0 9 9 27 20 41 11 14 20 33 20 43 0 23 6 22 86 -18z m3515 -430 c16 -13
46 -27 67 -30 81 -13 82 -14 82 -44 0 -25 9 -35 65 -70 35 -23 69 -41 74 -41
5 0 15 -14 23 -31 10 -23 18 -29 36 -26 20 4 22 0 22 -34 0 -37 -12 -51 -25
-29 -9 15 -41 12 -55 -5 -8 -9 -17 -12 -24 -7 -6 5 -24 12 -39 16 -39 9 -97
74 -97 107 0 38 -21 52 -62 41 -50 -14 -73 2 -97 67 -33 90 -36 111 -16 111 9
0 30 -11 46 -25z m-5254 -7 c0 -7 2 -17 3 -23 6 -23 -1 -55 -11 -55 -10 0 -54
-32 -135 -99 -18 -15 -82 -31 -181 -45 -51 -7 -103 -20 -116 -28 -18 -13 -33
-14 -80 -6 -31 6 -57 14 -57 19 0 4 15 15 33 24 17 8 42 30 55 48 18 25 29 32
57 32 19 0 35 -3 35 -7 0 -19 79 -7 114 17 20 14 40 25 45 25 4 0 20 13 35 29
19 20 41 31 74 35 26 4 63 15 82 25 44 23 47 24 47 9z m1664 -1162 c6 -13 22
-29 35 -35 20 -9 24 -18 24 -54 0 -40 -2 -44 -35 -56 -29 -10 -36 -19 -45 -54
-35 -135 -74 -227 -97 -227 -16 0 -17 -37 -2 -42 19 -6 0 -48 -22 -48 -16 0
-19 -7 -19 -46 0 -49 -24 -82 -45 -64 -7 6 -23 3 -40 -6 -15 -8 -29 -13 -31
-12 -1 2 -4 34 -6 73 -3 66 -2 70 22 82 16 8 28 9 34 3 18 -18 43 -10 55 16
10 22 9 30 -4 44 -9 10 -28 21 -42 25 -21 5 -23 8 -12 21 7 8 16 38 20 67 5
28 18 64 30 80 19 27 20 31 5 66 -17 43 -12 83 10 74 23 -9 44 17 44 53 0 32
2 34 34 34 18 0 39 7 46 15 18 21 29 19 41 -9z m1989 -122 c0 -12 7 -27 15
-34 18 -15 95 -174 95 -195 0 -22 31 -95 40 -95 14 0 44 -102 44 -150 1 -33
-4 -49 -19 -62 -19 -16 -20 -15 -25 5 -3 12 -15 24 -25 26 -11 2 -25 10 -31
19 -6 9 -20 13 -35 10 -22 -4 -24 -1 -25 31 -1 20 -6 71 -11 113 -5 45 -5 82
0 87 5 5 7 21 5 37 -2 23 -8 29 -25 28 -18 0 -23 5 -23 26 0 15 -11 40 -25 56
-29 33 -29 40 -13 111 l12 52 23 -21 c13 -12 23 -31 23 -44z"/>
<path d="M7273 6444 c-9 -24 18 -122 44 -161 12 -18 30 -47 38 -63 9 -18 23
-30 35 -30 11 0 20 2 20 5 0 11 -42 162 -53 190 -24 62 -70 94 -84 59z"/>
<path d="M6574 4935 c-9 -14 -22 -25 -29 -25 -15 0 -35 -51 -35 -89 0 -14 5
-43 11 -63 8 -30 15 -38 33 -38 18 0 25 7 30 31 3 17 6 40 6 50 0 10 11 30 25
45 26 28 32 63 15 95 -15 26 -36 24 -56 -6z"/>
<path d="M6651 4807 c-31 -51 -49 -148 -56 -297 -4 -115 -3 -142 13 -180 20
-52 41 -57 62 -15 12 23 15 69 16 205 0 96 4 208 8 248 7 61 6 72 -7 72 -9 0
-25 -15 -36 -33z"/>
<path d="M3083 6414 c-49 -53 -93 -151 -105 -233 -11 -76 -7 -92 19 -75 32 20
153 280 153 329 0 26 -34 16 -67 -21z"/>
<path d="M5132 6099 c-65 -12 -107 -40 -107 -70 0 -21 4 -24 35 -21 19 1 47
11 62 22 35 26 38 25 38 -5 0 -28 21 -33 39 -11 6 8 25 19 41 26 43 18 39 46
-7 59 -42 12 -41 12 -101 0z"/>
<path d="M5665 3533 c-63 -14 -95 -31 -145 -78 -30 -28 -76 -64 -102 -79 -62
-35 -63 -57 -5 -85 41 -20 46 -20 81 -6 31 13 37 20 32 37 -6 25 5 35 87 80
38 20 69 47 88 75 39 57 30 71 -36 56z"/>
<path d="M5966 10110 c-47 -47 -65 -106 -73 -240 -5 -86 -3 -101 20 -155 27
-64 48 -197 35 -217 -16 -26 -8 -75 17 -102 28 -30 41 -33 53 -8 17 33 33 171
36 318 4 166 18 243 41 224 8 -7 19 -9 24 -6 17 11 24 72 11 97 -13 25 -110
129 -120 128 -3 0 -22 -18 -44 -39z"/>
<path d="M3263 9603 c-13 -2 -23 -9 -23 -14 0 -6 28 -38 63 -72 34 -34 70 -75
80 -90 15 -23 25 -27 62 -27 51 0 66 16 38 39 -11 9 -22 21 -24 28 -2 6 -29
41 -59 77 -57 67 -69 72 -137 59z"/>
<path d="M7140 9440 c0 -29 0 -29 -67 -32 -122 -5 -85 -47 65 -72 92 -16 93
-16 122 6 17 12 30 28 30 35 0 7 -25 27 -55 44 -30 17 -58 35 -61 40 -13 21
-34 8 -34 -21z"/>
<path d="M7418 9404 c-88 -38 -21 -79 146 -89 104 -6 126 0 126 37 0 48 -196
85 -272 52z"/>
<path d="M7770 9361 c-41 -11 -37 -43 10 -76 22 -15 40 -31 40 -35 0 -3 18
-16 39 -28 22 -13 79 -47 126 -77 80 -50 151 -82 160 -73 3 2 0 21 -6 42 -7
24 -28 54 -57 82 -46 43 -73 52 -101 35 -15 -9 -63 46 -96 108 -13 27 -21 31
-53 30 -20 -1 -48 -4 -62 -8z"/>
<path d="M3453 9353 c-18 -6 -16 -48 3 -90 12 -23 25 -36 45 -40 16 -3 35 -16
44 -29 11 -16 25 -24 45 -24 35 0 39 19 12 58 -10 15 -24 41 -31 59 -16 39
-28 50 -64 57 -15 2 -30 7 -34 9 -5 2 -14 2 -20 0z"/>
<path d="M6877 9181 c-70 -15 -75 -50 -12 -76 44 -19 88 -19 153 0 38 12 52
21 52 34 0 36 -109 59 -193 42z"/>
<path d="M4123 8866 c-44 -14 -42 -37 6 -64 22 -12 54 -39 72 -60 53 -61 62
-65 103 -45 21 9 36 24 36 34 0 23 -104 117 -138 125 -15 4 -31 10 -37 13 -5
4 -25 2 -42 -3z"/>
<path d="M3800 8807 c0 -7 23 -38 50 -69 28 -31 50 -61 50 -67 0 -21 39 -30
116 -27 89 3 101 14 62 57 -44 47 -66 60 -148 90 -89 31 -130 37 -130 16z"/>
<path d="M2050 8364 c0 -9 7 -40 16 -70 12 -42 24 -59 56 -83 22 -17 46 -40
52 -53 6 -13 22 -24 34 -26 19 -3 22 1 22 27 0 17 -9 48 -20 68 -11 21 -20 45
-20 55 0 17 -10 26 -83 73 -44 29 -57 31 -57 9z"/>
<path d="M8463 7959 c-15 -23 -44 -60 -64 -83 -81 -93 -99 -125 -99 -183 0
-46 3 -53 19 -53 19 0 37 19 140 146 70 86 94 150 75 198 -11 28 -42 17 -71
-25z"/>
<path d="M970 7215 c0 -13 7 -50 15 -81 17 -64 13 -88 -24 -159 -34 -65 -37
-168 -6 -191 26 -19 38 -13 46 22 3 16 24 65 46 109 46 93 59 131 67 201 l6
52 -35 6 c-19 4 -35 13 -35 20 0 19 -34 46 -58 46 -17 0 -22 -6 -22 -25z"/>
<path d="M1249 7128 c0 -2 -2 -11 -4 -22 -2 -10 -16 -31 -30 -46 -15 -16 -25
-33 -21 -38 3 -5 27 -15 53 -22 47 -11 109 -43 128 -66 10 -12 99 -44 122 -44
7 0 20 15 29 32 17 32 17 33 27 10 15 -34 77 -27 77 9 0 28 -38 99 -56 106 -9
3 -27 17 -40 29 -19 20 -33 24 -84 24 -45 0 -62 -4 -66 -15 -9 -23 -37 -18
-82 15 -39 28 -51 34 -53 28z"/>
<path d="M8490 6985 c0 -8 -4 -15 -10 -15 -16 0 -10 -52 9 -84 32 -55 62 -69
126 -61 45 5 56 10 53 23 -2 9 -20 25 -40 34 -23 11 -50 37 -70 68 -32 48 -68
67 -68 35z"/>
<path d="M9495 6900 c-3 -5 -25 -7 -50 -3 -42 5 -45 4 -45 -17 0 -13 8 -33 17
-44 10 -12 11 -15 3 -8 -16 14 -59 16 -79 3 -30 -19 24 -111 66 -111 21 0 33
23 33 68 0 23 14 30 25 12 3 -5 17 -10 30 -10 36 0 56 -45 49 -107 -6 -48 -6
-49 34 -76 35 -25 40 -33 46 -81 3 -29 13 -66 21 -82 8 -16 15 -34 15 -41 0
-27 20 -62 33 -57 30 11 54 225 33 292 -5 15 -2 20 11 18 15 -1 19 8 21 51 2
29 -2 62 -8 73 -12 22 -46 27 -53 8 -3 -9 -16 -1 -35 20 -17 17 -37 32 -45 32
-7 0 -32 16 -54 35 -43 36 -58 42 -68 25z"/>
<path d="M1612 5357 c-15 -19 -22 -51 -14 -64 4 -6 38 -19 75 -27 70 -16 119
-37 149 -63 18 -16 38 -10 38 11 0 24 -81 105 -123 124 -57 25 -113 34 -125
19z"/>
<path d="M8627 4063 c-4 -3 -7 -17 -7 -30 0 -18 -9 -27 -40 -39 -60 -24 -53
-44 35 -89 41 -21 75 -43 75 -50 0 -18 34 -45 46 -37 6 4 17 24 24 44 13 36
13 39 -25 93 -21 31 -43 59 -50 63 -7 4 -17 17 -24 30 -12 22 -22 27 -34 15z"/>
<path d="M8977 3814 c-13 -14 -7 -57 14 -90 20 -32 51 -49 78 -42 7 2 18 -14
26 -36 19 -54 25 -58 81 -49 l49 9 -1 39 c-3 71 -107 143 -146 102 -10 -11
-18 -6 -42 26 -32 42 -47 52 -59 41z"/>
<path d="M1324 3128 c4 -18 25 -71 49 -118 36 -73 46 -85 67 -85 22 0 25 5 28
36 4 49 -32 149 -63 177 -15 12 -39 22 -57 22 -29 0 -30 -1 -24 -32z"/>
<path d="M2790 2760 c-25 -22 -54 -49 -66 -60 -12 -11 -27 -20 -33 -20 -7 0
-11 -8 -9 -17 4 -19 -6 -19 199 -15 96 2 110 4 107 18 -5 28 -51 54 -106 61
l-53 6 31 18 c38 24 40 49 3 49 -18 0 -44 -15 -73 -40z"/>
<path d="M3386 2341 c-10 -11 -21 -40 -23 -63 -5 -43 -4 -45 51 -90 72 -59 86
-55 86 23 0 44 4 59 14 59 26 0 24 28 -4 55 -38 36 -98 45 -124 16z"/>
<path d="M4825 2040 c-16 -4 -47 -11 -67 -14 -28 -5 -38 -12 -38 -25 0 -29
-28 -88 -45 -94 -10 -4 -15 -20 -15 -46 0 -88 31 -95 78 -18 17 29 54 70 82
90 54 40 77 75 67 101 -7 17 -17 18 -62 6z"/>
</g>
</svg>
