<?xml version="1.0" standalone="no"?>
<!DOCTYPE svg PUBLIC "-//W3C//DTD SVG 20010904//EN"
 "http://www.w3.org/TR/2001/REC-SVG-20010904/DTD/svg10.dtd">
<svg version="1.0" xmlns="http://www.w3.org/2000/svg"
 width="1024.000000pt" height="1024.000000pt" viewBox="0 0 1024.000000 1024.000000"
 preserveAspectRatio="xMidYMid meet">
<metadata>
Created by potrace 1.16, written by Peter Selinger 2001-2019
</metadata>
<g transform="translate(0.000000,1024.000000) scale(0.100000,-0.100000)"
fill="#000000" stroke="none">
<path d="M5591 9441 c-8 -5 -12 -19 -9 -35 3 -14 1 -23 -3 -20 -5 3 -9 0 -9
-5 0 -6 5 -11 10 -11 19 0 10 -32 -10 -37 -11 -3 -20 -12 -20 -19 0 -8 -6 -14
-14 -14 -8 0 -16 -4 -18 -9 -1 -5 -70 -11 -153 -14 -87 -3 -171 -12 -200 -20
-27 -8 -57 -17 -65 -18 -8 -2 -17 -6 -20 -9 -12 -12 -62 -30 -71 -25 -5 4 -6
-2 -2 -12 6 -16 5 -17 -12 -3 -11 9 -16 10 -11 3 8 -15 8 -15 -56 -18 -26 -1
-45 2 -42 7 3 4 0 8 -5 8 -6 0 -11 10 -10 23 0 12 3 17 5 10 3 -7 12 -9 21 -6
10 4 14 2 10 -4 -3 -5 0 -10 8 -10 8 0 12 4 9 9 -3 4 -1 8 5 8 5 0 12 -6 15
-12 3 -7 4 -4 3 7 -1 12 4 20 13 20 8 0 21 8 28 17 8 11 26 17 50 16 20 0 51
7 67 16 17 9 40 16 53 16 12 0 22 4 22 9 0 6 9 9 20 8 22 -1 28 -17 8 -17 -10
0 -10 -2 0 -9 20 -12 109 9 128 30 15 17 15 23 4 44 -18 34 -56 30 -73 -7 -6
-15 -16 -28 -20 -28 -5 0 -5 -4 -2 -10 3 -5 1 -10 -4 -10 -6 0 -11 5 -11 10 0
6 -9 10 -20 10 -11 0 -20 6 -20 13 0 7 -13 12 -30 12 -16 1 -30 -3 -30 -7 0
-13 -38 -9 -43 5 -4 9 -8 9 -15 -2 -8 -11 -36 -15 -110 -15 -55 -1 -99 -3 -97
-6 2 -3 -16 -5 -40 -5 -24 0 -43 -2 -43 -5 1 -18 -4 -21 -19 -9 -10 7 -15 9
-10 4 10 -11 -80 -54 -104 -50 -11 2 -19 -2 -19 -8 0 -7 -4 -6 -10 3 -8 12
-10 11 -10 -6 0 -18 -5 -20 -50 -17 -33 3 -50 0 -50 -8 0 -6 -7 -8 -15 -5 -9
3 -24 0 -35 -6 -14 -9 -22 -9 -34 2 -14 11 -16 10 -10 -4 4 -12 0 -16 -15 -16
-12 0 -35 -7 -51 -15 -17 -9 -30 -11 -30 -5 0 5 7 10 15 10 8 0 24 9 35 20 11
11 20 17 20 13 0 -5 4 -3 8 4 4 6 14 13 22 15 8 2 22 11 32 21 12 13 17 15 21
5 4 -11 6 -11 6 0 2 23 -57 40 -103 30 -67 -15 -150 -30 -169 -30 -9 1 -15 -3
-12 -9 4 -5 -1 -9 -9 -9 -9 0 -39 -11 -68 -25 -28 -14 -60 -25 -71 -25 -15 0
-17 -3 -8 -13 6 -8 7 -18 3 -22 -4 -5 0 -4 7 0 8 5 35 10 60 11 24 2 50 5 58
8 7 3 13 -1 13 -11 0 -9 -3 -13 -7 -10 -3 4 -12 2 -18 -3 -7 -6 -27 -12 -44
-14 -18 -2 -41 -13 -52 -25 -11 -11 -23 -21 -27 -21 -4 0 -23 -14 -41 -30 -22
-21 -31 -37 -28 -50 4 -14 -2 -20 -24 -25 -17 -4 -26 -11 -23 -17 4 -7 2 -8
-4 -4 -6 4 -21 2 -34 -5 -18 -10 -24 -8 -35 7 -7 10 -13 13 -13 7 0 -15 -29
-25 -46 -15 -12 7 -9 17 18 58 20 29 41 48 51 48 9 -1 17 5 17 13 0 13 2 13
17 2 9 -8 14 -9 10 -2 -4 6 0 19 9 27 8 9 13 16 9 16 -3 0 -1 9 5 19 14 28 -2
33 -44 16 -20 -8 -37 -15 -38 -14 -11 7 -95 -28 -120 -49 -10 -8 -24 -12 -33
-8 -9 3 -14 2 -10 -3 3 -5 -6 -23 -20 -39 -14 -16 -25 -34 -25 -38 0 -5 -20
-9 -44 -10 -25 0 -43 3 -40 8 3 4 0 8 -6 8 -6 0 -8 6 -4 13 4 7 3 9 -2 4 -12
-11 -12 -30 0 -39 21 -14 -55 -82 -102 -90 -18 -3 -49 -38 -44 -50 1 -5 -2 -8
-7 -8 -5 0 -11 3 -14 8 -2 4 -2 1 -1 -5 7 -27 -10 -42 -64 -59 -41 -13 -57
-15 -60 -6 -2 7 -11 12 -20 12 -13 0 -14 -2 -4 -9 11 -7 11 -9 -2 -14 -9 -4
-16 -1 -16 5 0 7 -6 3 -14 -8 -8 -10 -18 -15 -22 -11 -5 4 -2 12 6 17 13 8 13
11 1 22 -11 11 -13 11 -6 -1 6 -10 4 -12 -4 -6 -9 5 -7 13 10 31 13 14 17 24
10 24 -7 0 -9 5 -6 10 3 6 3 10 -2 10 -11 0 -40 -20 -30 -20 5 0 -8 -16 -29
-35 -28 -26 -40 -32 -46 -23 -5 10 -8 8 -8 -5 0 -10 -8 -21 -17 -24 -41 -15
-183 -141 -183 -162 0 -15 -41 -41 -65 -41 -12 0 -32 -14 -45 -30 -14 -17 -30
-36 -36 -43 -6 -7 -12 -16 -13 -22 -1 -5 -8 -9 -15 -7 -7 1 -18 -8 -25 -20
l-12 -23 5 23 c2 12 0 20 -5 16 -5 -3 -9 -12 -9 -19 0 -8 -9 -19 -20 -25 -11
-6 -20 -16 -20 -23 0 -7 -13 -27 -30 -45 -16 -18 -30 -37 -30 -41 0 -4 -9 -16
-20 -26 -25 -22 -27 -47 -3 -38 13 5 15 2 11 -15 -4 -12 -2 -20 3 -16 5 3 9
14 9 25 0 11 5 17 10 14 6 -4 8 -16 4 -28 -9 -28 -36 -49 -45 -35 -4 6 -9 4
-12 -5 -3 -9 -14 -13 -29 -10 -18 3 -26 -2 -36 -23 -8 -19 -9 -31 -2 -38 7 -7
10 -5 10 6 0 8 7 21 15 28 10 9 15 9 15 1 0 -6 -5 -11 -11 -11 -5 0 -7 -5 -4
-10 4 -6 2 -17 -4 -24 -7 -8 -11 -18 -10 -22 4 -23 -2 -52 -15 -69 -12 -17
-16 -18 -31 -5 -17 14 -18 12 -12 -25 4 -23 3 -32 -2 -21 -5 14 -10 16 -15 8
-4 -7 -4 -12 1 -12 4 0 2 -4 -6 -9 -9 -6 -22 -4 -37 5 -15 10 -24 12 -29 5 -3
-6 2 -11 13 -11 11 0 22 -7 26 -15 3 -8 1 -15 -4 -15 -6 0 -10 -5 -10 -11 0
-5 4 -8 9 -5 5 4 4 -7 -2 -24 -6 -16 -16 -30 -22 -31 -5 -1 1 -5 15 -9 21 -7
19 -8 -17 -9 -28 -1 -43 3 -43 12 0 9 -2 9 -8 -1 -6 -9 -12 -6 -20 12 -7 16
-8 28 -2 31 6 4 10 11 10 17 0 6 -7 5 -17 -3 -15 -13 -15 -12 -2 9 8 12 20 22
27 22 7 0 10 5 7 10 -3 6 -2 10 4 10 5 0 12 -6 14 -12 3 -7 6 -2 6 11 1 13 9
30 18 37 25 17 10 28 -19 14 l-23 -11 23 20 c12 10 22 27 21 38 0 10 -3 13 -6
6 -2 -7 -9 -13 -14 -13 -6 0 -8 4 -5 8 3 5 -1 9 -9 9 -8 0 -15 -4 -15 -9 0 -8
-33 -48 -72 -89 -9 -10 -14 -20 -10 -23 5 -6 -13 -10 -36 -7 -14 2 -15 -8 -2
-29 6 -10 -1 -23 -30 -48 -22 -18 -39 -36 -38 -40 3 -13 -13 -52 -22 -52 -11
0 0 41 16 60 21 24 46 90 34 90 -5 0 -10 -6 -10 -13 0 -8 -15 -28 -34 -45 -29
-27 -35 -29 -39 -14 -3 11 -5 8 -6 -9 -1 -27 -46 -74 -61 -64 -6 4 -10 -3 -10
-15 0 -22 -33 -64 -53 -66 -7 -1 -17 -2 -24 -3 -7 0 -10 -7 -7 -15 3 -7 -3
-22 -13 -31 -10 -10 -17 -20 -15 -22 9 -11 -1 -43 -13 -43 -8 0 -15 -4 -15
-10 0 -5 -7 -10 -15 -10 -8 0 -15 -7 -15 -15 0 -8 -10 -24 -23 -37 -12 -13
-22 -30 -22 -38 1 -8 -7 -27 -17 -42 -10 -14 -18 -31 -18 -37 0 -6 -4 -11 -10
-11 -5 0 -15 -18 -21 -40 -7 -22 -18 -40 -25 -40 -7 0 -12 -9 -11 -20 1 -11 5
-20 9 -20 4 0 8 -5 8 -11 0 -5 -4 -8 -9 -5 -5 4 -4 -8 2 -24 8 -21 8 -33 1
-38 -12 -8 -44 -75 -44 -91 0 -6 -4 -11 -10 -11 -5 0 -9 -3 -8 -7 1 -5 -4 -21
-10 -36 -7 -16 -12 -39 -12 -51 0 -29 -41 -160 -63 -203 -10 -18 -17 -49 -17
-70 0 -21 -4 -45 -10 -53 -5 -9 -5 -19 2 -27 7 -9 7 -17 -2 -28 -9 -11 -9 -15
-1 -15 7 0 9 -4 6 -10 -3 -5 -3 -10 0 -10 10 0 30 24 33 40 2 8 10 22 18 31 8
8 14 23 14 33 0 9 4 14 10 11 6 -3 7 1 4 9 -3 9 -1 16 5 16 14 0 14 27 0 32
-7 2 -5 13 4 31 8 14 16 24 19 21 3 -3 15 7 27 22 14 18 21 22 21 11 0 -9 -7
-23 -16 -32 -12 -11 -14 -19 -6 -27 7 -7 16 -4 30 10 11 11 18 23 14 26 -3 3
-1 6 5 6 6 0 9 9 6 19 -7 27 24 71 45 64 14 -4 14 -3 3 5 -12 8 -9 21 18 75
17 36 36 69 41 72 6 3 10 15 10 26 0 11 -4 17 -10 14 -5 -3 0 9 13 28 12 19
25 33 29 30 16 -9 29 8 18 22 -7 9 -8 15 -1 19 6 4 7 14 4 23 -5 12 -3 14 8 9
8 -4 5 0 -5 8 -31 25 -42 19 -37 -23 2 -8 -2 -10 -10 -5 -7 4 -18 -1 -26 -11
-7 -11 -13 -14 -13 -8 0 7 4 15 10 18 5 3 10 10 10 16 0 14 -28 11 -33 -3 -3
-9 -10 -7 -21 7 -16 20 -13 67 4 73 4 2 6 12 3 23 -7 24 44 82 64 75 7 -3 13
-1 13 3 0 5 -5 11 -11 13 -12 4 -1 38 13 38 6 0 5 -6 -2 -15 -9 -10 -9 -15 -1
-15 6 0 12 6 13 13 0 6 2 17 3 22 2 6 3 16 4 23 0 7 6 10 13 6 6 -4 8 -3 5 4
-11 17 3 42 24 42 13 0 20 10 26 38 l7 37 6 -30 c3 -16 3 -42 -1 -58 -10 -36
4 -26 25 17 10 22 22 33 30 30 9 -4 16 5 21 25 4 20 11 29 18 24 7 -4 6 0 -1
10 -12 13 -11 19 1 37 7 11 17 17 22 12 5 -4 5 -1 0 6 -4 9 1 26 15 44 13 17
16 27 9 23 -12 -7 -12 -6 -1 7 7 9 33 19 57 23 40 6 45 9 45 33 0 15 4 23 8
17 4 -5 14 -11 22 -13 8 -2 12 -1 9 3 -10 10 39 58 53 52 9 -3 13 -23 12 -58
-1 -56 -18 -105 -44 -127 -13 -10 -12 -11 4 -6 17 6 17 5 3 -22 -8 -16 -12
-35 -10 -42 7 -19 -6 -64 -16 -57 -5 3 -13 -9 -16 -27 -4 -18 -12 -39 -19 -47
-6 -8 -10 -16 -8 -18 1 -1 2 -4 1 -5 0 -2 -2 -12 -4 -23 -2 -11 -9 -21 -15
-23 -5 -2 -8 -8 -5 -12 3 -5 -2 -17 -12 -27 -13 -13 -17 -30 -15 -57 3 -30 0
-37 -11 -33 -7 3 -14 -1 -14 -9 0 -7 4 -11 9 -8 4 3 8 -2 8 -11 0 -9 -4 -13
-10 -10 -5 3 -12 -7 -16 -22 -4 -15 -15 -45 -25 -65 -11 -21 -19 -57 -19 -80
0 -24 -5 -61 -12 -83 -6 -22 -10 -46 -9 -54 1 -7 -2 -11 -7 -8 -4 3 -6 -7 -4
-24 2 -16 -1 -35 -7 -43 -7 -8 -14 -29 -16 -47 -13 -104 -23 -142 -35 -134 -5
3 -11 1 -15 -5 -3 -5 0 -10 9 -10 15 0 16 -16 3 -37 -11 -18 -27 -16 -27 3 0
8 5 12 11 8 8 -5 8 -1 0 13 -7 14 -7 23 1 31 17 17 3 25 -21 12 -12 -6 -21
-20 -21 -30 0 -11 -4 -20 -9 -20 -4 0 -6 -11 -4 -24 3 -13 0 -32 -5 -42 -9
-16 -10 -13 -9 16 2 27 -3 36 -23 47 -17 9 -20 13 -8 13 22 0 29 13 16 30 -8
12 -9 12 -4 -2 3 -10 1 -18 -4 -18 -14 0 -12 14 9 62 32 73 44 103 46 113 1 6
5 18 9 28 10 21 9 22 -21 31 -19 6 -22 4 -16 -11 6 -16 5 -17 -13 -3 -17 14
-18 14 -6 -1 10 -14 9 -24 -12 -63 -13 -25 -23 -46 -21 -46 2 0 -3 -19 -11
-42 -8 -24 -12 -54 -9 -67 5 -20 4 -23 -8 -13 -12 10 -13 8 -9 -15 5 -25 3
-26 -11 -15 -14 12 -15 11 -11 -11 3 -18 -1 -27 -13 -30 -14 -4 -13 -5 5 -6
12 0 22 5 22 12 0 8 3 9 8 1 11 -17 35 -22 55 -12 13 6 17 5 17 -7 0 -10 -5
-13 -12 -9 -7 4 -4 -3 7 -15 14 -16 15 -22 5 -19 -8 2 -18 8 -22 13 -4 6 -8 0
-8 -12 0 -13 -4 -23 -9 -23 -5 0 -7 10 -4 23 4 21 4 21 -9 2 -17 -26 -38 -30
-38 -7 0 12 -6 9 -19 -12 -22 -33 -19 -49 6 -39 10 4 14 2 9 -5 -3 -6 -2 -13
3 -17 6 -3 8 3 6 15 -5 25 24 42 48 29 9 -6 17 -7 17 -3 0 3 7 1 15 -6 8 -7
12 -17 8 -24 -3 -6 5 -1 19 12 29 26 33 21 37 -45 2 -28 -2 -43 -9 -43 -8 0
-9 -4 -3 -12 17 -24 3 -271 -17 -283 -4 -3 -6 -15 -2 -28 5 -19 3 -20 -10 -9
-13 10 -17 10 -22 -4 -4 -10 -1 -22 5 -28 9 -8 10 -8 5 2 -4 6 -2 12 3 12 13
0 13 2 0 -40 -13 -44 -14 -48 -29 -147 -8 -46 -16 -83 -19 -83 -4 0 -5 -21 -3
-47 2 -38 1 -44 -8 -30 -6 9 -8 26 -5 37 4 13 2 20 -5 18 -7 -2 -15 4 -17 12
-3 11 -2 12 4 2 6 -8 10 19 10 70 1 92 23 164 49 154 8 -3 14 1 14 9 0 8 -4
15 -8 15 -5 0 -9 24 -8 54 1 30 -2 52 -6 50 -17 -11 -32 64 -16 76 4 3 10 48
14 100 3 52 11 103 16 114 8 14 7 17 -3 11 -9 -6 -11 -3 -6 8 8 21 -2 49 -14
41 -5 -3 -7 -10 -4 -15 4 -5 2 -9 -3 -9 -5 0 -8 -16 -7 -36 0 -19 -3 -38 -7
-40 -4 -3 -8 -16 -8 -30 0 -13 -5 -23 -11 -21 -6 1 -14 -4 -17 -12 -3 -8 0
-11 7 -7 11 7 16 -16 5 -26 -9 -10 -59 9 -57 21 2 6 -2 11 -7 11 -11 0 -14 33
-3 43 3 4 7 19 9 34 1 16 5 42 9 58 6 28 5 29 -8 12 -11 -13 -16 -15 -20 -5
-3 9 -7 6 -12 -7 -32 -88 -50 -124 -56 -113 -4 7 -11 10 -14 6 -3 -3 1 -13 10
-22 15 -14 15 -16 1 -16 -9 0 -16 -4 -16 -10 0 -5 4 -10 9 -10 5 0 7 -10 4
-22 -14 -70 -28 -114 -37 -120 -7 -5 -4 -12 9 -22 15 -11 19 -26 19 -72 0 -37
-4 -59 -12 -62 -7 -2 -17 -13 -23 -25 -9 -20 -9 -21 4 -4 13 16 14 12 12 -30
-2 -51 10 -87 26 -78 5 4 10 -8 10 -24 2 -43 3 -48 11 -57 4 -4 3 -13 -4 -21
-9 -11 -8 -13 3 -11 8 2 13 -3 11 -10 -1 -7 2 -21 8 -31 5 -10 6 -21 2 -25 -9
-9 -3 -76 9 -98 5 -10 16 -18 23 -18 8 0 16 -9 19 -20 3 -11 1 -20 -4 -20 -5
0 -9 3 -9 8 0 4 -12 12 -26 19 -20 9 -23 9 -17 0 8 -10 10 -32 3 -39 -1 -2 -3
-23 -5 -48 -4 -45 -4 -45 8 -13 12 31 31 58 27 38 -1 -6 -2 -17 -1 -25 1 -13
3 -13 10 -1 5 8 7 20 4 27 -2 6 1 15 7 19 16 10 32 -16 19 -31 -8 -9 -4 -11
13 -7 18 4 20 3 8 -6 -13 -9 -9 -15 10 -13 3 0 6 -8 6 -19 0 -11 -5 -18 -11
-15 -6 2 -12 -5 -12 -16 -1 -14 1 -17 11 -9 9 8 12 3 11 -17 0 -21 -5 -26 -19
-24 -10 2 -16 -1 -12 -6 3 -5 24 -8 48 -7 61 3 79 -8 65 -39 -9 -20 -14 -22
-20 -10 -4 8 -5 19 -1 26 4 7 3 8 -4 4 -15 -9 -16 -68 -1 -83 8 -8 7 -17 -2
-34 -12 -23 -11 -23 6 -9 17 13 18 13 10 0 -20 -33 -29 -38 -42 -21 -10 13
-12 9 -13 -26 0 -54 0 -55 -11 -75 -8 -14 -6 -16 7 -11 10 3 15 2 12 -3 -9
-15 11 -56 24 -48 8 5 9 2 5 -9 -3 -10 -2 -17 4 -17 6 0 8 -4 5 -9 -4 -5 -2
-11 4 -13 6 -2 12 -14 15 -27 2 -13 7 -26 10 -29 2 -3 0 -11 -5 -18 -8 -8 -6
-16 5 -27 8 -9 23 -39 32 -66 9 -28 24 -59 33 -69 15 -16 33 -54 35 -74 0 -3
4 -10 9 -15 5 -5 6 -3 2 5 -4 6 -3 12 2 12 8 0 21 -19 27 -40 8 -31 18 -50 26
-50 5 0 9 -7 9 -17 0 -20 11 -11 14 11 1 9 6 15 12 14 5 -2 8 -7 6 -12 -2 -5
4 -4 13 4 13 11 19 10 35 -5 11 -10 20 -22 20 -28 0 -5 11 -18 25 -28 15 -12
22 -26 19 -37 -5 -16 -5 -16 5 0 9 13 18 15 39 9 28 -8 94 -61 76 -61 -5 0 2
-7 14 -16 13 -9 21 -22 18 -30 -3 -8 -2 -13 2 -11 14 4 84 -71 73 -78 -6 -3
-11 2 -12 12 0 11 -3 13 -6 5 -2 -6 -9 -10 -14 -6 -14 8 -11 -24 6 -56 11 -22
12 -30 2 -33 -6 -3 -4 -6 7 -6 12 -1 16 -6 13 -15 -4 -11 -1 -13 10 -9 13 5
15 2 11 -14 -4 -15 0 -23 13 -26 14 -4 17 -12 13 -33 -3 -16 -11 -32 -17 -37
-8 -6 -5 -7 6 -3 10 3 25 6 33 6 9 0 12 5 8 12 -4 7 -3 8 4 4 7 -4 12 -16 12
-27 0 -11 4 -18 9 -15 5 3 12 -1 15 -10 9 -24 8 -26 -14 -19 -11 3 -20 3 -20
-2 0 -11 -60 -47 -61 -36 0 4 -4 -1 -8 -12 -5 -12 -4 -23 3 -27 8 -6 7 -8 -1
-8 -7 0 -13 -5 -13 -11 0 -6 5 -9 12 -7 14 5 48 -26 48 -44 0 -6 3 -8 7 -5 3
4 16 -2 27 -12 21 -20 24 -21 52 -21 8 0 13 -4 10 -9 -3 -5 4 -11 15 -14 13
-4 18 -10 13 -18 -4 -7 -3 -10 3 -6 6 4 21 -1 34 -11 34 -26 107 -62 125 -62
8 0 24 -5 35 -11 17 -9 18 -13 7 -27 -11 -13 -11 -14 1 -7 11 6 13 4 8 -9 -6
-14 -3 -15 13 -6 17 9 20 8 20 -8 0 -11 8 -26 17 -33 16 -13 17 -12 4 4 -16
20 -7 37 11 19 7 -7 22 -12 33 -12 12 0 30 -9 40 -20 10 -11 26 -20 36 -20 10
0 21 -5 24 -11 4 -5 18 -14 32 -20 14 -5 21 -14 17 -21 -4 -7 -3 -8 4 -4 17
10 52 -12 52 -32 0 -13 2 -14 9 -4 6 11 19 8 62 -11 30 -14 76 -31 104 -39 27
-8 51 -20 53 -27 5 -15 -38 -30 -63 -22 -29 11 -57 2 -51 -15 3 -9 1 -12 -4
-9 -6 3 -10 13 -10 21 0 8 -7 14 -16 14 -8 0 -13 4 -10 9 3 4 -2 8 -12 8 -41
0 -43 2 -32 24 8 13 18 18 28 15 13 -5 12 -2 -2 9 -22 17 -36 19 -36 7 0 -5
-7 -9 -15 -9 -8 0 -15 4 -15 9 0 4 -5 8 -11 8 -5 0 -7 -4 -4 -10 3 -5 -10 -9
-32 -9 -56 1 -73 8 -73 30 0 11 4 18 10 14 5 -3 19 4 31 16 17 17 18 21 5 16
-11 -5 -15 -3 -10 4 4 7 2 10 -5 8 -7 -3 -12 -8 -11 -13 1 -5 -5 -13 -14 -18
-9 -5 -16 -20 -16 -33 0 -22 -4 -24 -31 -21 -21 2 -29 0 -25 -9 3 -10 -2 -11
-22 -5 -49 15 -62 22 -62 36 0 8 -10 14 -24 14 -14 0 -28 5 -31 10 -3 6 -17
10 -31 10 -14 0 -27 7 -30 15 -4 8 -12 15 -20 15 -8 0 -14 4 -14 8 0 4 -15 16
-32 26 -18 11 -69 56 -113 100 -44 45 -94 88 -110 96 -17 8 -34 21 -38 27 -4
7 -14 13 -21 13 -18 0 -59 46 -52 58 3 6 -14 10 -44 9 -44 0 -48 -2 -37 -16
11 -14 10 -14 -6 -2 -14 11 -15 16 -5 29 11 13 10 14 -9 3 -13 -6 -23 -8 -23
-4 0 4 -4 1 -9 -6 -6 -10 -5 -23 2 -35 6 -12 10 -24 9 -28 -1 -5 2 -8 7 -8 5
0 16 -16 26 -36 9 -19 27 -40 40 -46 12 -6 28 -20 33 -32 6 -11 11 -15 11 -8
1 10 4 10 15 0 11 -11 11 -15 -3 -26 -9 -7 -10 -10 -3 -7 16 8 44 -24 37 -42
-2 -7 -1 -12 3 -10 12 4 92 -65 86 -74 -3 -5 1 -9 9 -9 8 0 29 -17 46 -37 23
-27 28 -39 19 -45 -10 -6 -10 -8 0 -8 22 0 73 -41 66 -52 -5 -7 -2 -8 5 -4 14
9 53 -22 45 -36 -3 -4 -2 -7 3 -6 4 1 27 -8 50 -21 38 -22 41 -26 25 -37 -15
-12 -15 -13 6 -11 12 1 22 7 22 14 0 23 60 -7 66 -34 4 -15 12 -22 20 -19 8 3
14 0 14 -6 0 -6 3 -9 6 -5 4 3 21 -1 38 -10 17 -9 26 -18 19 -20 -8 -3 -5 -12
9 -28 14 -16 28 -22 45 -19 28 5 65 -4 59 -14 -2 -4 7 -8 21 -9 19 -1 22 1 12
8 -9 6 -10 9 -2 9 6 0 15 -5 18 -10 4 -6 11 -8 16 -5 9 6 18 -10 23 -37 1 -7
5 -19 9 -25 5 -7 6 -17 3 -22 -7 -10 19 -23 28 -14 3 4 -1 15 -11 25 -9 10
-13 21 -10 25 4 3 7 2 7 -3 0 -5 16 -9 35 -8 19 1 38 -2 41 -7 3 -5 15 -9 27
-9 16 0 18 -3 9 -12 -9 -9 -15 -9 -24 0 -16 16 -29 15 -22 -1 2 -7 18 -14 34
-15 24 -2 30 2 30 18 0 11 5 20 10 20 6 0 10 -4 10 -10 0 -5 10 -10 23 -10 13
0 28 -5 35 -12 7 -7 12 -9 12 -5 0 11 63 -23 78 -42 8 -10 11 -10 6 -2 -5 11
-3 13 10 8 10 -4 20 -7 23 -7 4 0 -2 -10 -13 -22 -10 -13 -12 -17 -4 -10 19
16 99 15 119 -2 14 -11 110 -36 149 -39 7 0 11 -6 8 -13 -3 -8 -1 -16 4 -19 6
-4 10 3 10 13 0 34 51 43 83 14 11 -9 17 -12 14 -5 -11 18 8 24 29 8 10 -8 28
-15 39 -15 19 -1 19 -2 3 -14 -20 -15 -14 -26 16 -26 19 0 19 -1 2 -13 -17
-12 -14 -14 23 -13 30 1 38 4 27 11 -23 17 103 17 138 0 16 -8 40 -15 53 -15
20 0 22 -2 11 -14 -7 -8 -14 -10 -16 -5 -2 5 -11 9 -20 9 -14 0 -14 -2 -3 -9
11 -7 10 -10 -4 -18 -16 -9 -16 -11 1 -18 21 -9 31 -11 57 -13 11 -1 17 -10
17 -28 0 -14 4 -23 10 -19 5 3 6 13 3 23 -5 14 -2 13 11 -3 10 -11 15 -14 11
-7 -3 6 -2 12 3 12 6 0 12 -7 16 -15 3 -9 18 -15 35 -15 16 0 33 -4 36 -10 4
-6 43 -8 103 -4 53 3 133 7 176 8 69 2 80 5 82 22 2 10 -1 24 -7 30 -15 18 18
26 35 9 18 -18 47 -9 45 14 -3 42 11 58 57 59 40 2 44 0 44 -20 0 -17 -3 -19
-9 -9 -6 10 -10 10 -13 1 -2 -6 -20 -12 -40 -13 -31 -1 -35 -3 -26 -15 8 -9
23 -12 46 -9 27 5 35 2 42 -16 5 -12 9 -17 9 -10 1 18 52 0 69 -25 13 -20 13
-22 -2 -22 -9 0 -16 -5 -16 -11 0 -5 -6 -7 -12 -3 -9 5 -8 2 1 -9 12 -15 11
-20 -9 -37 -13 -11 -18 -20 -11 -20 7 0 9 -5 5 -12 -5 -9 -2 -9 9 1 11 8 17 9
17 3 0 -6 6 -9 13 -7 35 13 85 16 214 15 127 -1 145 1 163 18 26 24 14 36 -55
53 -63 15 -87 27 -80 40 8 11 -7 12 -20 1 -6 -5 -23 -5 -40 -1 -16 3 -22 7
-12 8 10 1 17 9 17 22 0 12 -4 18 -11 13 -7 -4 -10 -1 -7 7 3 8 13 15 24 15
20 2 68 10 119 20 17 4 38 12 48 19 16 11 24 10 53 -7 31 -18 35 -18 50 -4 8
9 23 16 32 16 27 0 93 -26 102 -39 5 -10 9 -9 13 3 4 9 16 16 27 16 23 0 53
24 43 33 -6 7 35 18 72 21 14 0 25 5 25 10 0 4 9 6 20 3 10 -3 18 0 17 5 -3
17 55 29 72 15 12 -10 13 -9 6 2 -6 11 -4 13 8 8 11 -4 17 -1 17 8 0 21 16 19
25 -2 7 -16 9 -15 14 7 5 17 17 28 41 35 19 5 41 14 48 18 8 5 23 2 39 -8 14
-9 22 -12 18 -5 -8 14 32 55 55 55 8 0 14 7 14 17 -2 20 113 78 156 78 16 0
30 5 30 11 0 5 5 7 12 3 8 -5 9 -2 5 9 -3 10 -2 17 3 17 10 0 24 10 86 63 19
16 38 25 45 21 7 -4 9 -3 6 3 -7 11 16 26 43 28 8 0 14 6 13 12 -4 17 56 73
77 73 10 0 32 12 47 26 15 14 22 22 14 18 -9 -4 -12 -2 -9 7 3 8 21 23 41 33
21 11 33 23 27 26 -12 7 14 33 43 43 10 4 23 20 29 37 5 17 19 35 29 41 10 5
19 16 19 24 0 8 6 18 14 22 8 4 21 26 30 48 l17 40 -28 -27 c-15 -15 -35 -28
-43 -30 -8 -2 -23 -11 -34 -21 -14 -11 -22 -14 -27 -6 -5 8 -8 8 -13 0 -4 -6
-11 -9 -16 -6 -4 3 -7 -1 -6 -8 0 -6 -21 -32 -49 -57 -27 -25 -43 -36 -35 -24
18 24 -12 -9 -78 -87 -26 -31 -59 -61 -73 -67 -14 -7 -35 -21 -47 -33 -13 -11
-28 -17 -35 -13 -6 4 -9 4 -5 -1 10 -11 -29 -44 -61 -52 -14 -3 -37 -17 -50
-30 -13 -12 -27 -23 -32 -23 -4 0 -15 -3 -23 -6 -12 -4 -15 -2 -11 9 4 8 -1
17 -12 21 -9 4 -15 4 -11 1 3 -4 2 -19 -3 -35 -8 -21 -19 -30 -45 -35 -19 -3
-32 -10 -29 -16 4 -5 2 -9 -4 -9 -5 0 -11 5 -13 12 -3 8 -16 3 -39 -13 -58
-43 -151 -70 -165 -48 -4 7 -2 15 4 17 17 5 15 29 -3 36 -8 3 -15 2 -15 -3 0
-12 -52 -21 -65 -12 -5 4 -23 8 -39 9 -17 1 -33 8 -38 15 -5 8 -8 7 -8 -6 0
-11 -4 -15 -12 -11 -7 5 -8 3 -4 -5 5 -7 15 -10 23 -7 8 3 11 2 8 -4 -3 -5
-23 -8 -45 -7 -22 1 -36 4 -31 7 4 3 10 13 14 22 4 12 12 16 24 11 10 -3 15
-2 10 2 -4 5 16 19 44 33 29 13 72 37 96 53 24 17 48 27 55 23 6 -4 17 1 24
11 7 9 19 15 26 13 7 -3 26 8 43 24 17 16 41 28 57 28 40 0 44 18 6 29 -18 5
-26 10 -17 10 9 1 20 8 23 17 3 8 10 13 15 10 4 -3 16 3 26 14 19 21 7 28 -13
8 -6 -6 -14 -9 -16 -7 -8 8 76 59 97 59 10 0 15 -4 12 -10 -3 -5 -12 -10 -20
-10 -11 0 -25 -20 -25 -36 0 -12 21 -1 50 26 18 17 38 30 46 30 8 0 14 7 14
16 0 9 -5 12 -12 8 -7 -4 -4 2 6 14 20 23 36 28 36 12 0 -5 -8 -10 -17 -10
-11 0 -14 -3 -7 -8 6 -4 13 -14 16 -22 3 -8 8 2 12 23 4 20 12 37 19 37 7 0
21 13 32 29 11 17 28 32 38 35 17 4 17 3 3 -19 -11 -17 -13 -26 -4 -31 7 -4 8
-3 4 4 -4 7 -3 12 2 12 5 0 31 21 58 46 27 26 43 44 37 40 -7 -4 -13 -2 -13 3
0 6 6 11 13 11 7 0 17 10 22 23 6 12 16 21 23 20 7 -2 12 3 12 10 0 8 4 7 10
-3 8 -12 10 -12 10 -1 0 11 3 11 15 1 12 -10 18 -10 32 1 15 13 16 11 11 -14
-4 -22 -3 -25 8 -16 8 6 11 15 8 20 -5 8 10 13 29 10 5 -1 6 2 3 7 -2 4 6 27
20 51 13 24 24 52 24 62 0 11 7 19 16 19 9 0 12 5 8 13 -6 9 -4 9 8 -1 14 -11
18 -10 28 7 6 12 8 21 4 21 -13 0 21 32 44 41 12 5 28 22 33 39 6 16 15 27 20
24 5 -3 9 4 9 16 0 16 5 20 25 16 22 -4 24 -2 19 19 -3 13 0 41 7 62 7 21 13
45 14 53 3 44 50 178 59 173 7 -4 7 -1 0 6 -9 10 -6 23 12 54 13 23 24 48 24
55 0 7 7 29 16 50 10 20 19 46 21 57 2 10 7 22 12 25 12 7 29 72 24 88 -3 6 0
12 6 12 6 0 11 9 11 20 0 12 9 38 20 60 11 22 20 48 20 58 0 10 3 22 7 25 11
11 43 -25 42 -47 0 -12 -3 -15 -6 -8 -2 6 -9 10 -14 6 -5 -3 -9 0 -9 5 0 6 5
11 10 11 6 0 5 6 -2 14 -11 12 -14 9 -19 -18 -6 -36 0 -54 12 -35 6 10 9 8 9
-8 0 -16 -4 -21 -15 -16 -10 3 -15 0 -13 -8 2 -8 10 -17 18 -20 8 -3 15 -14
15 -24 0 -10 10 -21 23 -26 18 -7 22 -5 22 12 0 13 -4 18 -12 13 -7 -4 -8 -3
-4 4 4 7 14 12 22 12 8 0 14 9 14 21 0 11 5 17 10 14 6 -4 10 8 10 28 0 25 5
36 18 39 14 4 21 22 29 78 6 39 9 82 7 94 -3 11 -9 68 -13 126 -5 58 -14 118
-20 134 -10 25 -10 27 3 17 12 -10 15 -9 13 8 -1 12 -7 19 -13 17 -7 -3 -14 8
-18 25 -6 29 -26 41 -26 15 0 -8 -4 -17 -9 -20 -5 -3 -9 10 -8 29 1 27 4 32
14 23 10 -8 13 -6 13 8 0 17 1 17 14 -2 8 -10 18 -16 22 -11 4 4 2 7 -4 7 -7
0 -12 5 -12 11 0 15 -31 38 -51 39 -9 0 -16 7 -17 15 -1 8 -3 23 -4 33 0 9 -5
20 -11 23 -5 4 -6 13 -1 20 4 8 9 20 9 29 3 28 38 145 48 158 6 8 6 12 -1 12
-5 0 -9 27 -9 63 1 39 -5 73 -15 92 -21 41 -31 115 -15 115 8 0 7 4 -3 11 -11
8 -8 9 15 4 16 -4 33 -12 37 -18 4 -7 5 6 3 28 -7 49 -15 58 -39 39 -11 -8
-14 -14 -7 -14 7 0 9 -4 6 -10 -12 -20 -33 -11 -28 13 3 16 2 18 -5 8 -6 -8
-12 -9 -16 -3 -10 16 4 42 23 42 12 0 13 -2 3 -9 -11 -7 -10 -10 3 -15 9 -3
21 -4 25 -1 12 7 0 77 -16 96 -8 8 -14 21 -14 28 0 7 -5 9 -10 6 -13 -8 -42
20 -32 30 4 5 2 5 -5 1 -7 -4 -23 8 -39 29 -14 19 -32 35 -39 35 -7 0 -16 6
-18 13 -4 9 -6 9 -6 -1 -1 -7 -6 -10 -13 -6 -8 5 -9 2 -5 -10 4 -9 3 -15 -1
-12 -5 3 -17 34 -27 70 -10 36 -22 63 -27 60 -4 -3 -8 -1 -8 4 0 5 -11 20 -24
33 -32 32 -94 114 -116 154 -14 25 -16 35 -7 44 9 9 8 11 -4 6 -11 -4 -21 5
-35 32 -10 21 -22 40 -25 43 -3 3 -9 18 -13 34 -4 16 -18 38 -32 49 -18 14
-22 22 -14 31 12 16 3 26 -22 26 -11 0 -16 5 -13 10 3 6 -1 10 -11 10 -27 0
-115 52 -110 66 3 7 -1 15 -9 18 -9 3 -12 0 -8 -10 8 -21 -2 -18 -59 23 -66
46 -78 56 -55 48 10 -4 17 -2 17 4 0 6 -13 14 -30 18 -16 3 -30 10 -30 15 0 6
7 7 16 4 9 -3 12 -2 8 5 -3 6 -17 8 -30 5 -17 -5 -26 -2 -30 8 -3 8 -12 12
-20 9 -10 -4 -12 0 -8 11 6 16 4 17 -45 20 -14 1 -21 26 -23 74 0 19 -2 20
-12 9 -9 -12 -14 -11 -28 4 -10 11 -15 19 -10 19 4 1 -8 7 -26 15 -18 8 -31
18 -28 23 10 16 -23 49 -54 55 -19 4 -34 16 -42 31 -6 14 -16 22 -22 19 -6 -4
-5 1 3 10 11 14 11 20 1 32 -15 18 -23 13 -27 -17 -5 -32 -13 -35 -29 -13 -15
19 -15 19 -9 -7 6 -23 3 -29 -19 -39 -28 -13 -35 -38 -11 -40 8 -1 20 -3 25
-4 6 -1 17 -3 26 -4 10 -1 14 -7 10 -17 -3 -8 -2 -13 3 -10 5 3 14 -1 21 -9 7
-8 9 -15 5 -15 -4 0 -2 -6 4 -13 8 -10 7 -14 -4 -14 -8 0 -15 5 -15 11 0 11
-29 -25 -30 -36 0 -5 12 -8 26 -8 14 0 23 -4 20 -8 -3 -4 12 -9 32 -9 20 -1
55 -10 77 -21 31 -16 43 -18 54 -9 12 9 13 9 7 0 -4 -8 -1 -13 9 -13 9 0 13
-5 9 -11 -3 -6 -15 -9 -25 -6 -12 3 -19 0 -19 -10 0 -12 -14 -14 -75 -12 -61
3 -74 6 -70 18 5 12 3 12 -11 0 -10 -8 -38 -14 -64 -14 -40 0 -45 2 -31 12 12
9 13 12 2 13 -7 0 -22 10 -32 22 -11 11 -19 16 -19 10 0 -18 -31 -14 -46 6
-13 16 -15 16 -25 0 -5 -10 -18 -18 -27 -18 -10 0 -24 -6 -31 -12 -10 -11 -12
-10 -9 2 2 9 -5 14 -19 15 -12 0 -28 6 -34 13 -7 6 -18 12 -24 12 -5 0 -2 -5
9 -11 15 -9 16 -13 5 -20 -20 -13 -62 -11 -54 2 4 6 -3 5 -15 -3 -16 -9 -24
-10 -27 -2 -2 6 -14 9 -27 7 -13 -3 -27 1 -31 8 -5 8 -4 10 3 5 7 -4 20 -2 29
3 11 6 13 11 5 11 -7 0 -10 5 -6 12 5 8 0 9 -17 4 -13 -3 -46 -9 -72 -13 -26
-3 -50 -10 -54 -16 -4 -6 0 -8 10 -4 9 3 19 2 22 -3 7 -11 7 -11 -50 -13 -22
-1 -45 -6 -51 -12 -13 -11 -14 -36 -2 -28 5 3 18 -4 29 -16 19 -20 19 -21 -3
-26 -32 -7 -64 0 -60 14 1 6 -2 11 -8 11 -5 0 -10 -4 -10 -10 0 -5 -5 -10 -11
-10 -5 0 -7 5 -4 10 3 6 2 10 -4 10 -5 0 -13 -9 -16 -20 -3 -11 -11 -20 -17
-20 -5 0 -8 6 -5 14 6 14 -21 32 -31 21 -3 -3 0 -5 7 -5 7 0 10 -4 6 -10 -3
-5 -15 -6 -28 -1 -32 12 -53 -12 -31 -34 9 -9 23 -14 30 -11 21 8 17 -21 -3
-30 -10 -4 -21 -6 -25 -6 -5 1 -8 -3 -8 -8 0 -17 -53 -33 -72 -21 -12 7 -18 6
-22 -5 -3 -8 -10 -13 -15 -10 -5 3 -11 -1 -15 -9 -3 -8 -11 -15 -18 -15 -7 -1
-26 -12 -43 -26 -16 -15 -23 -23 -15 -18 11 5 10 2 -2 -13 -10 -11 -18 -23
-18 -27 0 -3 -15 -22 -34 -40 -25 -25 -37 -31 -45 -23 -8 8 -12 2 -17 -20 -4
-21 -11 -30 -20 -26 -9 3 -14 -2 -14 -16 0 -15 5 -19 18 -15 16 5 16 5 0 -6
-10 -6 -18 -20 -18 -31 0 -11 -4 -18 -8 -15 -5 3 -13 -15 -19 -39 -7 -32 -7
-43 1 -38 6 4 5 -1 -3 -10 -7 -9 -20 -17 -27 -17 -8 0 -13 -3 -12 -7 0 -5 -2
-16 -7 -26 -6 -15 -10 -16 -16 -5 -5 8 -9 -12 -10 -52 0 -60 -2 -77 -14 -120
-2 -8 -4 -17 -4 -20 -1 -3 -15 -21 -31 -40 l-30 -35 25 -8 c14 -5 23 -13 19
-18 -3 -5 -10 -6 -16 -3 -7 4 -8 2 -4 -4 4 -6 2 -21 -5 -33 -9 -18 -8 -24 5
-31 9 -5 16 -16 16 -24 0 -9 7 -14 18 -12 13 2 17 -5 18 -35 1 -21 -3 -40 -7
-43 -5 -3 -9 -10 -9 -15 0 -6 5 -7 10 -4 6 3 10 2 10 -4 0 -5 -6 -12 -12 -14
-10 -4 -10 -6 0 -6 7 -1 10 -5 7 -11 -3 -5 -1 -10 5 -10 7 0 9 -7 6 -16 -3 -8
-2 -12 4 -9 6 3 10 -1 10 -9 0 -8 10 -23 23 -33 13 -10 26 -26 30 -35 3 -10
16 -18 27 -18 12 0 18 -4 15 -10 -3 -5 3 -10 15 -10 12 0 19 3 17 8 -3 4 1 13
9 20 8 7 14 8 14 2 0 -5 7 -10 16 -10 9 0 14 -6 11 -12 -2 -7 -11 -12 -20 -10
-26 4 -31 -18 -8 -39 12 -11 21 -17 21 -14 0 3 9 1 21 -5 22 -12 57 -20 99
-24 23 -2 25 2 22 24 -3 20 3 31 21 42 19 13 23 23 20 50 -11 94 -11 97 3 91
9 -3 14 -20 14 -44 0 -21 5 -39 10 -39 6 0 10 6 10 14 0 8 9 17 19 21 14 4 19
15 19 35 -1 17 -5 30 -10 30 -5 0 -7 -4 -4 -9 3 -5 -2 -15 -11 -22 -9 -8 -14
-9 -10 -3 6 10 18 87 20 121 0 7 4 10 8 8 4 -3 14 -2 23 1 12 5 13 10 5 25 -6
13 -6 19 1 19 5 0 10 -6 10 -14 0 -15 37 -32 47 -22 4 3 1 6 -5 6 -7 0 -12 9
-12 20 0 24 36 45 72 41 16 -1 34 5 45 16 24 25 115 151 132 185 8 15 17 25
21 23 4 -2 7 3 7 11 0 10 -6 13 -16 8 -9 -4 -24 -6 -33 -6 -10 0 -18 -6 -18
-15 0 -9 -3 -14 -6 -10 -3 3 -16 -6 -28 -20 -17 -20 -23 -22 -23 -10 0 10 6
17 14 17 7 0 12 4 11 9 -4 11 38 48 76 68 23 12 26 17 15 25 -11 8 -11 11 -1
15 10 4 10 8 1 19 -6 8 -15 12 -19 9 -5 -3 -11 -1 -15 5 -3 5 1 10 9 10 8 0
17 8 19 18 4 16 5 16 6 0 0 -10 8 -18 17 -18 11 0 14 5 10 16 -3 9 -6 21 -6
29 0 7 -10 15 -22 19 -19 5 -20 8 -8 15 8 5 18 7 24 4 5 -4 7 2 4 13 -4 16 1
19 29 21 19 1 41 7 49 14 8 6 24 8 36 4 64 -19 226 -16 213 5 -3 5 0 12 7 17
9 5 3 10 -17 14 -29 6 -29 7 8 8 21 0 36 -3 33 -7 -3 -4 8 -7 25 -6 19 1 29
-3 29 -11 0 -8 8 -12 20 -10 11 2 20 0 20 -6 0 -5 5 -9 10 -9 6 0 9 3 8 8 -5
19 15 53 29 48 8 -3 21 -6 29 -6 8 0 14 -8 14 -17 0 -11 3 -14 8 -7 14 21 97
-8 88 -31 -3 -8 -1 -14 4 -12 5 1 16 -7 25 -18 9 -11 13 -13 9 -5 -5 8 11 0
34 -18 23 -19 39 -38 36 -43 -3 -5 -2 -9 3 -8 20 4 31 -2 36 -21 3 -10 0 -21
-7 -24 -6 -2 -4 -5 4 -5 21 -1 52 -39 44 -53 -4 -7 -3 -8 4 -4 7 4 12 3 12 -3
0 -5 3 -16 6 -24 3 -9 -3 -16 -17 -20 -18 -5 -20 -9 -10 -21 10 -12 9 -14 -8
-9 -12 3 -21 12 -21 21 0 13 -2 14 -12 3 -11 -10 -10 -15 3 -24 9 -7 14 -17
12 -24 -3 -8 3 -11 16 -8 12 2 28 -3 36 -12 21 -20 33 -8 17 17 -7 11 -12 28
-11 37 0 16 2 15 9 -2 5 -11 9 -16 9 -11 1 14 31 -15 31 -31 0 -8 7 -21 16
-30 8 -9 13 -22 10 -29 -3 -8 0 -13 7 -11 7 1 13 -12 15 -30 2 -18 8 -33 13
-33 6 0 8 -4 5 -9 -4 -5 -3 -11 2 -13 9 -4 92 -127 92 -137 0 -3 -5 1 -10 9
-8 11 -10 7 -8 -17 2 -27 5 -30 17 -20 12 10 13 9 7 -1 -4 -7 -3 -19 4 -27 7
-9 8 -15 0 -20 -15 -9 -12 -25 4 -25 16 0 28 -37 32 -100 2 -42 1 -44 -13 -25
-14 19 -15 18 -9 -15 4 -19 12 -54 18 -77 5 -23 8 -58 6 -77 -3 -27 0 -36 11
-36 8 0 11 -3 7 -7 -4 -4 -17 -8 -29 -8 -27 0 -36 -47 -13 -70 17 -18 30 -20
20 -3 -5 7 -2 9 8 5 20 -7 31 26 14 43 -8 8 -7 10 6 5 23 -9 27 -34 12 -90
-17 -66 -17 -73 2 -49 13 16 15 17 10 1 -3 -9 -1 -29 5 -44 8 -21 7 -28 -6
-35 -8 -5 -13 -14 -9 -20 4 -6 10 -5 15 3 7 11 9 10 9 -3 0 -10 -5 -18 -11
-18 -6 0 -3 -7 6 -16 9 -9 14 -23 11 -30 -3 -8 0 -14 6 -14 6 0 1 -11 -12 -25
-17 -18 -27 -22 -36 -14 -8 7 -14 7 -19 -1 -3 -6 -11 -8 -16 -4 -5 3 -16 0
-24 -6 -12 -10 -15 -9 -15 9 0 11 -4 21 -9 21 -5 0 -14 14 -21 30 -15 36 -30
39 -30 6 0 -14 -4 -27 -9 -30 -15 -10 -19 -55 -5 -60 13 -5 24 14 24 45 0 13
5 17 16 12 11 -4 14 -13 10 -29 -6 -22 -3 -24 26 -25 18 0 27 -3 20 -6 -6 -2
-10 -9 -7 -14 3 -4 -3 -14 -15 -21 -11 -7 -20 -20 -20 -29 0 -8 -3 -19 -7 -23
-4 -3 -8 -12 -9 -19 -1 -7 -9 -44 -17 -84 -8 -44 -10 -70 -4 -66 6 4 8 0 4
-10 -3 -10 -2 -17 3 -17 6 0 10 -7 10 -16 0 -8 -4 -13 -9 -10 -5 3 -11 -7 -14
-23 -4 -16 -12 -35 -20 -42 -7 -7 -11 -23 -9 -36 2 -13 -1 -23 -7 -23 -6 0
-25 -16 -42 -35 -18 -19 -36 -32 -40 -29 -5 3 -6 -1 -4 -8 5 -12 -10 -35 -67
-101 -10 -11 -15 -23 -13 -28 3 -4 -4 -13 -15 -19 -11 -6 -20 -15 -20 -20 0
-5 -11 -26 -25 -46 -14 -20 -25 -33 -25 -28 0 4 -6 0 -12 -9 -9 -11 -21 -15
-36 -11 -22 6 -26 31 -4 27 6 -2 9 4 5 12 -3 9 7 34 22 56 l26 41 -23 -7 c-13
-4 -33 -18 -44 -31 -12 -12 -25 -21 -28 -18 -3 2 -4 1 -1 -3 3 -3 -1 -13 -7
-21 -12 -14 -16 -25 -23 -68 -6 -38 -63 -117 -77 -108 -5 3 -7 0 -6 -8 2 -7
-3 -12 -10 -10 -8 1 -11 -2 -8 -7 7 -11 -33 -42 -46 -35 -4 3 -5 -3 -1 -13 6
-15 4 -16 -8 -6 -10 8 -19 9 -29 1 -12 -8 -11 -9 5 -4 19 6 19 5 2 -8 -10 -8
-18 -18 -19 -23 0 -4 -5 -7 -11 -5 -6 2 -6 -3 2 -11 10 -12 5 -20 -25 -45 -20
-17 -42 -28 -49 -25 -7 2 -15 -4 -18 -14 -4 -16 -5 -16 -6 0 0 9 -8 17 -16 17
-8 0 -19 17 -25 41 -10 35 -14 39 -33 33 -12 -4 -23 -11 -25 -15 -2 -5 -14 -9
-27 -9 -19 0 -22 -4 -17 -22 3 -12 1 -19 -4 -15 -5 3 -15 -6 -21 -20 -11 -23
-11 -25 10 -20 22 6 22 6 2 -10 -19 -14 -19 -15 13 -11 18 3 36 0 39 -5 3 -6
1 -7 -5 -3 -7 4 -12 2 -12 -4 0 -6 -4 -9 -9 -5 -5 3 -17 -2 -25 -11 -14 -14
-19 -14 -33 -2 -9 7 -14 8 -10 1 10 -15 -74 -55 -124 -59 -22 -1 -46 -10 -55
-18 -24 -24 -70 -46 -79 -38 -5 4 -5 2 -2 -4 7 -12 -66 -57 -77 -47 -3 3 -6 2
-6 -4 0 -12 -49 -35 -60 -28 -18 11 -60 -7 -60 -25 0 -11 -8 -19 -17 -20 -63
-4 -298 2 -316 9 -12 4 -41 7 -64 7 -22 -1 -39 2 -37 5 6 11 -22 18 -45 12
-13 -3 -21 -1 -21 8 0 7 -3 9 -6 6 -4 -3 -14 -2 -24 3 -13 7 -24 4 -40 -10
-27 -23 -32 -24 -47 -9 -9 9 -12 7 -10 -9 1 -13 10 -22 27 -25 17 -4 30 -17
39 -39 7 -18 13 -36 12 -40 0 -5 4 -8 9 -8 6 0 15 -10 20 -22 5 -13 9 -17 9
-10 1 10 5 10 24 0 12 -7 33 -14 46 -15 13 -1 27 -7 31 -14 6 -8 9 -8 12 1 2
8 34 14 90 17 78 5 87 3 91 -13 4 -16 5 -16 6 -2 1 14 9 16 54 11 44 -4 63 -1
112 22 33 15 79 34 104 42 24 8 51 21 59 29 8 8 17 12 21 8 3 -4 1 -9 -5 -11
-7 -2 -10 -12 -7 -22 4 -15 -5 -21 -44 -31 -26 -7 -50 -14 -53 -14 -3 -1 -10
-4 -16 -8 -6 -4 -26 -10 -44 -13 -18 -3 -36 -8 -40 -10 -4 -2 -22 -7 -41 -10
-19 -3 -65 -12 -104 -20 -85 -18 -109 -19 -99 -3 4 7 3 8 -5 4 -6 -4 -9 -11
-7 -15 6 -9 -38 -27 -99 -40 -32 -6 -51 -6 -53 0 -2 5 -17 16 -33 25 -19 10
-29 21 -27 33 2 10 -3 25 -11 34 -12 15 -11 17 3 17 9 0 16 5 16 11 0 5 -4 7
-10 4 -5 -3 -10 -2 -10 3 0 5 -9 12 -21 15 -15 4 -19 2 -15 -9 3 -8 0 -14 -8
-14 -24 0 -76 31 -76 46 0 8 -13 20 -30 25 -16 6 -30 15 -30 20 0 5 -9 9 -20
9 -18 0 -45 9 -95 31 -29 13 -89 26 -127 28 -10 1 -18 9 -18 19 0 15 -2 15
-11 2 -8 -12 -12 -12 -16 -2 -4 10 -9 9 -24 -4 -17 -15 -20 -16 -44 0 -18 12
-25 13 -25 4 0 -8 -5 -6 -11 5 -14 24 -26 21 -33 -9 -6 -21 -9 -24 -21 -14 -9
8 -15 8 -15 2 0 -11 -33 -6 -67 10 -14 7 -20 17 -18 30 3 16 1 18 -10 8 -11
-9 -18 -7 -35 10 -11 11 -19 24 -16 29 3 4 -1 8 -9 8 -11 0 -12 -4 -4 -14 13
-15 4 -16 -26 -3 -11 5 -14 9 -7 9 6 1 12 6 12 12 0 5 -5 7 -11 3 -8 -5 -10 1
-7 20 4 20 0 29 -14 37 -20 11 -20 4 -1 -48 3 -7 0 -13 -7 -13 -6 0 -9 4 -6 9
5 8 -40 26 -56 23 -5 -1 -8 2 -8 7 0 5 -7 17 -16 25 -10 11 -11 16 -3 16 6 0
20 -9 30 -21 l18 -20 11 21 c9 16 18 20 36 16 14 -4 24 -2 24 4 0 18 29 10 41
-12 10 -19 12 -20 21 -4 6 11 6 22 -2 32 -9 10 -9 14 -1 14 8 0 8 4 -1 14 -8
8 -17 10 -23 6 -6 -5 -27 1 -50 15 -22 13 -57 33 -77 45 -21 11 -38 25 -38 30
0 6 -11 8 -24 4 -14 -3 -29 0 -39 11 -9 8 -19 15 -23 14 -11 -3 -44 25 -44 38
0 7 -5 13 -11 13 -5 0 -7 5 -4 10 4 6 11 8 16 5 5 -4 9 -1 9 4 0 6 -20 11 -44
11 -31 0 -50 6 -67 23 -14 12 -31 22 -39 22 -8 0 -15 9 -15 20 1 23 -18 45
-37 45 -8 0 -19 5 -26 12 -15 15 -16 42 0 32 7 -4 8 -3 4 5 -6 8 -12 9 -20 2
-16 -13 -26 -4 -26 22 0 16 -3 17 -15 7 -20 -16 -45 9 -45 45 0 15 -4 24 -10
20 -5 -3 -20 3 -32 14 -12 12 -29 21 -37 21 -9 0 -25 7 -35 15 -11 8 -33 15
-49 15 -25 0 -27 3 -21 22 6 19 5 21 -8 11 -12 -11 -19 -8 -41 16 -14 16 -39
37 -56 47 -17 10 -29 24 -27 31 3 8 -1 10 -11 6 -12 -5 -14 -3 -8 7 5 9 4 11
-4 6 -14 -9 -56 33 -136 138 -27 35 -28 39 -12 51 20 14 22 26 5 22 -15 -3
-18 25 -3 35 6 5 6 11 -3 20 -16 16 -16 52 0 42 7 -5 8 -3 4 5 -5 7 -11 10
-14 7 -7 -7 -62 119 -62 142 0 10 -9 41 -20 70 -22 56 -26 92 -11 92 6 0 6 12
1 32 -7 22 -6 36 3 47 9 12 9 13 0 7 -7 -4 -13 -3 -13 3 0 5 4 12 9 15 9 6 -8
65 -35 124 -9 18 -18 49 -21 68 -3 18 -9 34 -12 34 -4 0 -8 15 -9 32 -2 18 -7
37 -12 42 -13 13 -13 59 -1 52 16 -10 18 16 5 53 -11 32 -11 86 -5 304 1 10 4
16 9 14 4 -3 6 12 6 34 -2 30 2 40 17 44 10 4 19 12 19 20 0 7 9 23 20 36 17
20 19 21 13 4 -6 -17 -5 -18 9 -5 9 8 12 17 7 20 -8 6 10 83 24 96 4 4 7 12 7
18 0 6 -5 4 -11 -4 -9 -12 -10 -12 -5 3 3 10 6 23 6 28 0 6 4 8 8 5 5 -3 15
10 22 29 8 19 20 35 29 35 8 0 12 3 8 6 -3 4 0 13 8 20 8 8 12 21 8 30 -3 8 3
24 13 35 11 12 17 32 16 49 -2 15 2 31 9 36 9 5 11 1 6 -15 -4 -18 -3 -20 9
-10 7 6 11 16 7 22 -3 6 -1 7 5 3 16 -10 15 -22 -4 -41 -14 -13 -14 -19 -4
-28 10 -9 11 -9 6 1 -4 6 -3 12 3 12 5 0 9 -9 8 -19 0 -11 -5 -17 -9 -15 -4 3
-8 -2 -8 -11 0 -9 5 -13 10 -10 6 4 10 -5 10 -20 0 -16 -4 -24 -11 -19 -7 4
-7 -1 1 -16 6 -12 9 -28 6 -36 -3 -8 -1 -14 4 -14 6 0 10 5 10 10 0 6 9 10 20
10 11 0 20 7 20 16 0 8 4 12 10 9 6 -3 7 1 4 9 -3 9 0 18 7 21 17 6 18 78 2
97 -6 7 -12 18 -12 23 -1 6 -6 25 -11 43 -7 29 -4 43 28 105 20 40 35 78 34
85 -2 6 2 12 9 12 7 0 -1 12 -16 26 -15 14 -34 23 -41 20 -12 -4 -12 -2 -3 15
6 11 8 23 5 27 -3 3 -6 0 -6 -7 0 -9 -5 -7 -16 3 -8 9 -13 20 -10 24 3 5 -1
18 -9 28 -8 10 -15 26 -15 35 0 9 -12 34 -26 55 -21 30 -24 42 -15 56 6 10 11
28 11 41 0 12 8 34 17 47 10 14 18 38 18 55 2 49 24 102 51 121 14 11 30 29
35 42 5 13 13 21 18 17 5 -3 13 0 17 6 4 8 3 9 -4 5 -17 -10 -15 1 8 62 11 28
21 55 22 60 2 4 9 6 16 6 15 -2 16 18 2 32 -15 15 -1 47 15 34 6 -5 16 -6 21
-2 4 4 4 0 -2 -8 -9 -13 -11 -36 -6 -77 1 -7 7 -13 13 -13 7 0 23 -12 36 -26
21 -23 27 -25 47 -15 34 19 80 -2 74 -34 -3 -14 0 -26 8 -29 17 -7 26 8 18 29
-6 15 -1 17 37 12 24 -3 38 -3 31 0 -16 6 22 61 53 75 13 6 29 22 36 37 8 14
24 34 37 44 12 10 29 32 37 48 9 16 22 29 30 29 8 0 15 6 15 14 0 8 9 21 20
29 30 21 63 67 66 92 1 13 5 29 9 34 3 6 1 11 -5 11 -6 0 -8 5 -5 11 4 6 13 8
21 5 17 -6 39 30 24 39 -14 9 -32 -4 -24 -17 4 -7 2 -8 -4 -4 -15 9 -15 9 8
36 11 13 20 31 20 41 0 10 6 16 13 14 22 -8 80 30 100 64 12 22 14 31 5 23
-10 -7 -18 -8 -24 -2 -7 7 -14 -2 -22 -25 -10 -25 -17 -32 -29 -28 -11 4 -14
2 -9 -5 5 -8 0 -12 -14 -12 -12 0 -28 -7 -37 -15 -8 -9 -18 -13 -22 -10 -3 4
2 12 12 19 9 8 29 35 43 62 29 56 62 94 80 94 6 0 17 7 24 15 7 8 20 15 29 15
13 -1 12 -4 -6 -19 -22 -18 -22 -32 0 -27 7 2 9 1 5 -1 -5 -3 -8 -12 -8 -21 1
-13 8 -9 27 13 28 32 41 37 61 22 8 -7 12 -5 12 6 0 8 -6 17 -12 20 -14 4 61
42 76 38 5 -1 3 5 -4 14 -7 9 -19 14 -27 11 -8 -3 -12 -2 -9 3 3 5 17 9 31 9
31 0 102 33 167 77 28 19 54 33 58 30 5 -3 10 -1 12 3 8 21 122 85 149 84 16
0 32 4 35 10 5 7 1 9 -9 5 -10 -3 -17 -2 -17 3 0 5 12 13 28 16 15 4 39 15 54
25 15 12 33 16 44 12 12 -4 15 -3 10 5 -4 7 -2 12 3 12 19 0 12 -22 -9 -27
-25 -7 -29 -48 -5 -48 6 0 16 -4 23 -9 8 -4 11 -3 10 5 -2 6 3 14 11 17 9 3
11 0 7 -9 -4 -8 -1 -6 7 4 8 9 18 17 23 17 5 0 15 9 22 20 7 11 19 20 27 20
13 0 20 18 16 42 0 4 41 28 92 54 50 25 98 51 105 57 7 6 36 11 64 11 28 1 53
6 55 12 5 14 -28 15 -45 1 -9 -7 -16 -7 -24 1 -9 9 -7 12 11 12 12 0 20 3 18
8 -3 4 17 5 45 3 42 -3 100 7 228 36 14 4 29 5 34 4 4 -1 13 2 20 7 6 5 20 6
31 2 12 -4 25 -2 32 6 7 7 23 11 35 9 12 -3 28 1 35 7 8 6 31 13 50 15 21 2
44 13 55 25 23 27 23 32 -2 25 -11 -3 -20 -1 -20 4 0 5 9 9 20 9 11 0 39 5 63
12 24 6 52 8 62 4 17 -6 17 -7 -1 -22 -18 -14 -18 -14 4 -4 l24 12 -24 25
c-20 22 -20 24 -3 15 20 -10 27 -12 46 -12 5 0 7 -5 4 -11 -4 -6 1 -5 13 2 21
13 57 5 47 -11 -3 -6 4 -10 17 -10 19 0 20 2 8 10 -11 7 -5 9 20 6 19 -3 44
-5 55 -6 19 -1 19 -1 2 -11 -9 -6 -15 -14 -12 -20 9 -14 35 -11 35 5 0 16 40
10 53 -8 5 -7 7 -3 5 8 -2 10 3 21 11 24 8 2 11 0 7 -6 -3 -5 1 -13 10 -16 21
-8 26 -8 20 3 -3 5 3 11 13 14 12 3 22 -1 25 -10 5 -11 2 -13 -11 -9 -14 6
-15 4 -6 -5 14 -14 36 -2 29 17 -3 8 -1 14 4 14 6 0 10 -4 10 -10 0 -5 10 -10
23 -10 50 -1 77 -5 77 -13 0 -5 4 -6 10 -2 5 3 18 -3 30 -15 11 -11 27 -20 36
-20 8 0 13 -4 9 -9 -5 -9 45 -5 54 5 2 2 11 -2 19 -9 10 -7 13 -8 9 -1 -4 7
-1 12 6 11 52 -2 67 26 21 37 -15 4 -24 9 -22 11 7 7 182 -16 193 -25 6 -4 30
-13 53 -20 29 -7 42 -16 39 -24 -4 -9 3 -12 19 -10 13 1 24 -3 24 -9 0 -8 3
-8 8 1 7 9 18 9 55 -4 25 -9 46 -19 46 -22 -3 -20 3 -25 12 -12 9 12 10 10 6
-8 -5 -20 -2 -23 14 -19 15 4 18 2 10 -7 -8 -9 -7 -13 3 -13 15 0 16 14 3 34
-6 10 4 12 42 8 31 -3 53 0 57 7 4 6 3 8 -3 5 -6 -4 -13 0 -17 8 -7 18 17 20
65 4 35 -12 71 -47 63 -61 -3 -4 2 -8 10 -8 8 0 18 5 21 10 3 6 -1 10 -9 10
-8 0 -18 5 -21 10 -12 19 14 10 44 -16 17 -14 31 -22 31 -17 1 4 7 -3 15 -17
8 -14 14 -22 15 -17 0 4 11 0 25 -9 14 -9 23 -19 21 -23 -2 -3 10 -7 27 -7 16
-1 36 -9 42 -17 7 -9 15 -14 18 -10 4 3 7 2 7 -4 0 -6 11 -14 25 -17 14 -4 25
-13 25 -20 0 -15 35 -11 58 7 8 6 12 6 12 -1 0 -5 8 -8 18 -5 10 2 31 -3 47
-11 17 -9 36 -16 42 -16 7 0 20 -11 29 -25 9 -13 29 -31 45 -39 26 -13 31 -13
46 2 16 16 16 16 10 0 -3 -10 -2 -18 4 -18 6 0 17 -7 26 -15 8 -9 18 -13 21
-10 3 3 -3 12 -14 20 -10 8 -15 15 -11 15 17 0 -15 40 -32 40 -14 0 -18 6 -15
23 2 12 2 17 -1 11 -6 -13 -58 34 -69 61 -3 9 -10 13 -16 10 -5 -3 -10 -2 -10
2 0 8 -52 34 -75 37 -5 1 -9 6 -8 12 1 5 -8 11 -20 11 -11 1 -25 9 -29 18 -5
8 -13 13 -18 10 -13 -8 -68 22 -106 59 -61 58 -71 65 -83 53 -8 -8 -11 -6 -11
7 0 14 -5 17 -21 13 -17 -5 -18 -3 -8 10 11 12 7 20 -22 45 -34 31 -123 78
-147 78 -17 0 -43 26 -35 34 4 3 1 6 -5 6 -7 0 -12 -4 -12 -9 0 -5 -14 -8 -30
-6 -31 4 -60 25 -60 44 0 5 -9 13 -20 16 -11 3 -20 12 -20 20 0 8 -7 11 -20 8
-11 -3 -20 -1 -20 3 0 5 -13 15 -30 22 -16 8 -30 20 -30 28 0 8 -7 14 -15 14
-8 0 -15 5 -15 11 0 5 -5 7 -10 4 -11 -7 -109 22 -124 36 -6 5 -19 9 -30 9
-10 0 -16 3 -13 7 4 3 2 12 -4 19 -8 10 -5 11 12 7 15 -4 20 -2 17 7 -5 15
-48 34 -48 21 0 -4 -14 -5 -32 -3 l-31 5 21 -24 c12 -12 22 -28 21 -33 0 -6
-3 -6 -5 1 -3 7 -13 9 -22 6 -13 -4 -14 -2 -4 5 9 6 -1 9 -31 8 -30 -1 -49 5
-62 18 -15 15 -28 17 -67 13 -53 -7 -81 -1 -72 15 4 7 0 7 -12 1 -22 -11 -114
-5 -114 8 0 4 -7 5 -17 2 -12 -5 -14 -3 -8 7 6 10 3 12 -13 8 -12 -4 -22 -2
-22 4 0 5 -4 7 -9 4 -14 -9 -63 12 -56 24 3 5 -1 10 -10 10 -9 0 -13 -4 -10
-10 4 -6 -5 -10 -22 -9 -15 1 -21 3 -11 6 21 5 31 30 12 30 -8 0 -14 -4 -14
-9 0 -5 -5 -6 -10 -3 -6 4 -7 11 -4 17 5 7 1 9 -9 5 -10 -4 -17 -2 -17 4 0 6
9 9 19 6 13 -3 21 1 24 14 3 11 2 17 -3 14 -4 -3 -13 2 -20 10 -14 17 -20 18
-39 6z m-2311 -1291 c-13 -8 -12 -11 4 -23 18 -13 18 -16 4 -30 -9 -9 -19 -13
-23 -9 -4 4 -5 2 -3 -4 5 -16 -73 -104 -86 -97 -6 3 -8 3 -4 -2 4 -4 3 -16 -2
-26 -7 -12 -7 -20 0 -24 15 -9 12 -20 -15 -49 -24 -26 -42 -36 -30 -16 10 17
-4 11 -24 -9 -12 -12 -30 -18 -45 -17 -18 2 -26 -2 -27 -13 0 -11 -2 -12 -6
-3 -7 17 17 44 34 38 8 -3 11 -1 8 4 -3 6 1 13 10 16 11 4 12 10 6 18 -7 8 -4
22 10 45 15 26 24 31 42 26 14 -4 18 -3 9 3 -10 7 -8 15 9 38 47 62 92 102
107 96 12 -4 14 -1 9 12 -8 21 -1 36 16 36 7 0 6 -4 -3 -10z m3658 -1888 c-1
-4 4 -18 10 -32 6 -14 11 -20 12 -15 1 22 20 -22 21 -50 0 -16 3 -24 6 -17 3
9 10 4 19 -13 18 -34 18 -38 -1 -31 -8 3 -15 1 -15 -4 0 -6 8 -10 18 -11 10 0
12 -3 5 -6 -7 -2 -13 -9 -13 -15 0 -6 6 -8 14 -5 8 3 20 -1 26 -9 9 -10 9 -14
1 -14 -6 0 -11 4 -11 10 0 5 -6 7 -14 4 -9 -3 -19 4 -27 18 -6 13 -18 27 -25
31 -8 4 -14 15 -14 22 0 8 -4 15 -10 15 -5 0 -6 7 -3 17 4 10 2 14 -4 10 -6
-4 -22 15 -36 42 -15 27 -34 54 -42 61 -17 14 -74 19 -82 8 -10 -17 -21 -7
-15 14 3 14 2 19 -6 14 -7 -4 -12 -2 -12 3 0 15 13 14 29 -1 10 -11 15 -10 24
3 12 16 18 19 38 19 6 0 8 7 5 16 -3 8 19 -6 49 -31 30 -26 54 -50 53 -53z
m-599 -1854 c-29 -42 -114 -156 -136 -185 -10 -12 -20 -20 -23 -18 -11 7 -72
-54 -65 -65 3 -5 -2 -10 -12 -10 -13 0 -14 -3 -5 -8 9 -6 5 -15 -15 -33 -38
-34 -93 -102 -93 -114 0 -5 -4 -4 -9 4 -7 11 -10 9 -15 -7 -8 -23 -97 -83
-127 -85 -10 -1 -21 -7 -23 -13 -2 -6 -17 -18 -33 -26 -27 -14 -28 -13 -27 9
1 26 6 33 26 37 7 1 44 32 82 69 38 36 74 65 80 64 5 -1 11 4 12 11 1 6 2 16
3 22 0 5 19 28 41 52 22 24 40 47 40 51 0 5 5 5 10 2 6 -3 10 0 10 8 0 12 19
30 85 83 11 8 13 12 5 8 -8 -5 1 9 20 29 34 36 47 47 35 27 -3 -5 -2 -10 4
-10 5 0 37 29 72 65 67 70 95 85 58 33z m-3135 -309 c-3 -5 2 -6 11 -3 9 4 23
0 33 -8 9 -8 31 -20 49 -27 18 -7 38 -20 45 -29 11 -13 11 -14 -1 -7 -10 5
-12 4 -7 -3 4 -7 18 -9 32 -6 13 3 24 2 24 -3 0 -8 43 -35 60 -37 28 -5 100
-62 114 -91 9 -19 22 -35 28 -35 6 0 9 -3 6 -6 -10 -9 -58 27 -51 39 3 6 1 7
-5 3 -15 -9 -119 46 -172 91 -22 19 -40 32 -40 28 0 -4 -7 0 -15 9 -8 8 -15
20 -15 27 0 10 -3 10 -11 2 -8 -8 -19 -6 -40 6 -16 9 -29 19 -29 24 0 4 -6 7
-14 7 -7 0 -16 9 -19 19 -3 14 -1 18 9 14 8 -3 11 -9 8 -14z"/>
<path d="M5995 9391 c-40 -4 -59 -10 -57 -18 1 -7 -2 -13 -8 -13 -5 0 -10 -7
-10 -15 0 -9 10 -15 26 -15 14 0 23 -4 20 -9 -6 -9 60 -31 96 -31 13 0 29 5
36 12 14 14 16 48 3 48 -5 0 -11 10 -13 22 -3 26 -10 27 -93 19z"/>
<path d="M6556 8715 c10 -8 14 -15 9 -15 -20 0 -14 -39 6 -45 11 -4 17 -11 14
-16 -4 -5 8 -9 24 -9 17 0 31 -5 31 -11 0 -6 7 -8 17 -5 9 4 20 1 25 -6 6 -10
8 -8 8 5 0 16 2 16 30 2 17 -9 35 -13 39 -10 15 8 41 -6 34 -19 -4 -7 -1 -7 9
1 8 7 18 10 21 6 4 -3 7 -1 7 6 0 22 -37 48 -80 57 -8 2 -19 9 -25 17 -8 11
-61 23 -137 31 -4 1 -13 7 -19 14 -7 6 -17 12 -23 12 -5 0 -1 -7 10 -15z"/>
<path d="M6083 8549 c-25 -7 -33 -15 -33 -32 0 -18 2 -19 10 -7 8 12 10 11 10
-7 0 -19 -3 -21 -31 -13 -18 5 -34 11 -36 14 -3 2 -19 -2 -37 -9 -18 -8 -54
-15 -80 -16 -26 -2 -49 -6 -52 -11 -3 -4 -20 -8 -37 -8 -21 0 -28 -3 -19 -9
11 -6 10 -10 -4 -15 -10 -4 -21 -1 -26 6 -6 10 -8 8 -8 -4 0 -38 -56 -12 -59
27 -1 14 -51 19 -51 6 0 -6 -14 -11 -30 -11 -17 0 -73 -9 -126 -21 -53 -11
-102 -18 -109 -15 -7 2 -16 2 -19 -2 -4 -3 -17 -7 -29 -9 l-22 -3 22 19 c22
18 22 19 3 24 -14 4 -18 10 -13 22 6 16 1 17 -43 11 -53 -8 -152 -34 -224 -60
-30 -10 -46 -12 -51 -5 -3 6 -10 11 -15 12 -5 1 -9 7 -10 12 0 6 -2 16 -2 23
-1 6 -6 12 -12 12 -5 0 -7 -7 -4 -15 5 -11 -1 -15 -20 -15 -16 0 -26 6 -26 15
0 8 -4 15 -9 15 -12 0 -2 -36 13 -49 16 -13 29 -11 43 8 10 13 11 14 10 1 -4
-24 -17 -41 -28 -35 -15 10 -10 -12 6 -25 10 -8 15 -9 15 -1 0 6 11 8 28 5 15
-3 51 2 81 10 30 8 61 12 68 9 7 -3 13 -1 13 5 0 19 113 51 123 35 3 -5 -8
-10 -26 -11 -36 -3 -42 -7 -32 -22 5 -8 11 -8 21 1 23 19 42 -5 21 -25 -16
-17 -69 -22 -64 -7 3 12 -7 14 -51 7 -20 -3 -54 -8 -74 -11 -21 -3 -59 -15
-84 -26 -34 -16 -48 -19 -53 -10 -5 8 -14 6 -31 -9 -20 -18 -39 -23 -75 -23
-6 0 -12 -8 -12 -18 -1 -13 5 -19 18 -19 10 0 19 -7 19 -15 0 -13 4 -14 21 -4
17 9 20 8 17 -3 -3 -7 -10 -13 -16 -13 -5 0 -14 -3 -18 -7 -14 -15 -22 -8 -17
15 5 22 5 22 -10 2 -8 -11 -13 -23 -11 -26 6 -11 -54 -32 -67 -23 -7 4 -10 3
-6 -2 3 -6 2 -16 -4 -24 -7 -13 -9 -12 -9 1 0 9 -7 20 -16 23 -10 4 -13 2 -8
-6 4 -7 3 -8 -4 -4 -14 9 -16 46 -2 46 5 0 14 9 20 19 14 26 -4 36 -25 14 -14
-14 -18 -14 -26 -2 -8 12 -10 12 -18 0 -5 -8 -22 -15 -37 -17 -47 -5 -77 -13
-88 -24 -13 -13 -29 -13 -21 0 3 6 1 10 -4 10 -6 0 -11 -6 -12 -12 0 -17 -149
-90 -150 -74 0 6 -4 1 -9 -12 -5 -12 -18 -26 -29 -30 -16 -6 -17 -10 -7 -24
11 -15 19 -16 52 -7 21 6 46 17 54 24 18 15 40 9 40 -11 0 -9 -4 -13 -9 -9
-11 6 -34 -29 -25 -37 2 -3 -6 -3 -20 -1 -17 4 -30 -2 -42 -16 -10 -12 -24
-21 -31 -21 -6 0 -28 -9 -48 -21 -30 -18 -38 -19 -53 -8 -15 12 -16 12 -5 -2
18 -22 3 -33 -14 -11 -8 9 -12 11 -8 5 7 -15 3 -15 -50 -3 -35 8 -38 7 -22 -5
20 -14 6 -31 -15 -19 -7 4 -10 4 -6 -1 8 -8 -1 -18 -57 -60 -64 -47 -88 -68
-127 -107 -23 -24 -38 -33 -42 -25 -3 9 -7 9 -14 -2 -11 -16 -36 -5 -26 11 5
8 1 9 -11 4 -27 -10 -144 -109 -144 -122 -1 -16 -36 -45 -44 -37 -4 3 -7 0 -7
-8 0 -8 -7 -27 -15 -43 -8 -15 -13 -32 -10 -37 3 -4 -3 -17 -15 -29 -11 -11
-20 -25 -20 -31 0 -5 -5 -7 -12 -3 -7 5 -8 3 -3 -5 4 -7 16 -10 27 -8 14 4 18
2 14 -9 -12 -32 29 -9 46 25 10 19 37 47 62 62 24 15 47 33 51 39 3 5 10 8 14
6 4 -3 18 4 30 15 12 11 26 17 31 14 6 -3 10 -1 10 4 0 6 7 11 15 11 9 0 18 7
21 15 4 8 12 15 19 15 13 0 30 28 27 43 -1 4 2 7 8 7 5 0 10 8 10 18 0 14 -2
15 -10 2 -8 -13 -10 -13 -10 2 0 22 53 41 70 25 9 -8 11 -8 7 -1 -6 11 42 60
132 137 43 36 62 45 60 30 -3 -21 2 -25 14 -11 11 14 14 13 30 -3 15 -17 15
-19 1 -19 -9 0 -30 -11 -46 -25 -30 -26 -55 -28 -50 -6 2 9 -3 9 -18 1 -23
-13 -28 -45 -5 -36 21 8 19 1 -10 -28 -14 -14 -25 -22 -25 -18 0 3 -7 -4 -16
-16 -8 -12 -20 -20 -25 -16 -5 3 -8 2 -7 -3 4 -15 -15 -58 -40 -93 -27 -37
-82 -90 -94 -90 -3 0 -19 -18 -36 -40 -16 -22 -33 -36 -37 -32 -5 4 -5 2 -2
-5 4 -6 2 -24 -4 -40 -10 -27 -11 -28 -26 -8 -14 18 -15 18 -9 1 8 -23 -14
-86 -30 -86 -6 0 -14 -10 -18 -22 -5 -22 -6 -22 -19 -4 -13 18 -14 18 -22 -10
-5 -16 -9 -36 -9 -44 -1 -8 -5 -14 -11 -13 -5 1 -11 -10 -11 -23 -2 -22 11
-30 40 -25 5 1 3 -5 -4 -14 -10 -12 -10 -19 -2 -27 8 -8 8 -17 1 -30 -9 -18
-8 -18 10 -8 36 19 26 -23 -14 -57 -19 -17 -35 -33 -35 -37 0 -16 -30 -36 -57
-37 -42 -2 -63 -9 -63 -21 0 -5 6 -8 14 -5 12 5 12 0 5 -26 -5 -18 -9 -34 -9
-36 0 -2 -7 0 -15 3 -10 3 -15 1 -14 -7 1 -6 -3 -25 -10 -42 -7 -16 -11 -53
-9 -82 2 -28 0 -51 -3 -50 -9 3 -59 -59 -59 -73 0 -6 -4 -8 -10 -5 -5 3 -10
-1 -10 -9 0 -8 -7 -22 -16 -30 -8 -9 -12 -16 -7 -16 4 0 2 -4 -5 -8 -7 -5 -17
-37 -23 -72 -6 -36 -14 -69 -20 -76 -5 -6 -11 -30 -13 -53 -2 -23 -10 -48 -16
-56 -14 -17 -23 -105 -11 -105 14 0 21 -44 8 -52 -9 -6 -9 -8 0 -8 6 0 19 7
28 16 21 21 22 18 17 -36 -3 -36 -9 -48 -27 -56 -19 -9 -25 -9 -28 2 -3 8 -4
6 -3 -3 1 -10 8 -17 14 -16 18 4 14 -18 -5 -34 -10 -8 -13 -12 -6 -8 9 4 12
-12 10 -65 -2 -38 1 -70 5 -70 4 0 4 -7 1 -17 -4 -11 -3 -14 5 -9 8 5 12 0 12
-14 0 -12 5 -18 10 -15 6 4 10 -7 10 -24 0 -17 4 -31 10 -31 5 0 14 -10 21
-21 8 -15 8 -19 0 -15 -8 5 -8 0 -1 -18 5 -14 5 -28 1 -31 -5 -3 -7 -14 -4
-26 5 -16 8 -18 15 -7 7 9 8 8 4 -5 -7 -21 9 -56 33 -74 15 -11 14 -12 -1 -13
-9 0 -20 9 -23 20 -3 11 -10 20 -15 20 -5 0 -7 -9 -5 -20 2 -11 0 -20 -6 -20
-5 0 -9 -8 -9 -17 0 -15 2 -16 10 -3 8 13 10 12 10 -2 0 -10 -6 -18 -12 -18
-9 0 -8 -3 2 -10 8 -5 11 -12 7 -16 -4 -4 -1 -17 6 -28 8 -12 14 -35 13 -53
-1 -17 2 -29 5 -27 3 1 6 -11 6 -27 l0 -31 -16 28 c-8 16 -14 37 -12 47 1 9
-3 17 -9 17 -6 0 -8 -4 -5 -10 5 -9 -1 -12 -21 -9 -11 1 -24 -25 -15 -31 16
-11 52 -126 45 -145 -6 -14 -4 -17 7 -13 17 7 43 -27 34 -42 -4 -6 -2 -10 4
-10 5 0 11 -12 13 -27 2 -16 8 -27 15 -26 12 3 22 -34 26 -87 1 -14 6 -31 12
-37 5 -7 26 -33 45 -57 19 -25 41 -45 48 -45 7 -1 23 -11 35 -22 12 -12 16
-18 8 -14 -10 5 -12 4 -7 -4 4 -6 11 -9 16 -6 16 10 50 -15 50 -35 0 -25 16
-26 29 -2 9 15 10 15 11 1 0 -11 9 -16 26 -16 15 0 30 -6 34 -13 5 -9 9 -8 13
3 3 7 -8 27 -23 44 -16 17 -26 34 -23 37 4 3 -1 6 -11 6 -9 0 -14 4 -11 10 3
6 -1 7 -9 4 -9 -3 -16 -1 -16 6 0 6 -4 8 -10 5 -5 -3 -10 -1 -10 5 0 7 -6 10
-14 7 -21 -8 -68 41 -54 56 2 1 -8 17 -21 35 -13 19 -21 41 -18 53 3 10 1 17
-4 13 -5 -3 -9 -4 -10 -2 -8 42 -8 89 0 83 6 -3 11 -13 11 -21 0 -8 4 -14 9
-14 9 0 33 -89 26 -100 -2 -3 6 -7 17 -7 12 -1 24 -6 27 -10 3 -4 18 -9 34
-11 29 -3 39 21 12 32 -8 3 -15 16 -15 30 0 14 -4 27 -9 31 -5 3 -9 18 -9 34
1 25 3 28 15 15 8 -8 27 -14 42 -14 16 0 34 -7 41 -15 10 -12 8 -16 -11 -24
-13 -5 -26 -7 -29 -6 -3 2 -7 -6 -7 -18 -1 -12 1 -17 5 -12 12 17 37 11 34 -8
-2 -9 2 -17 7 -17 6 0 8 -13 6 -29 -2 -23 0 -28 11 -24 13 5 19 -8 14 -32 -1
-5 1 -7 5 -3 4 4 18 -6 32 -23 19 -22 23 -36 19 -55 -6 -24 -5 -26 19 -20 14
4 25 3 25 -1 0 -5 20 -21 45 -38 24 -16 41 -33 39 -37 -3 -4 1 -8 10 -8 8 0
16 3 19 8 2 4 2 2 1 -5 -4 -17 13 -26 20 -11 3 9 8 8 16 -4 6 -10 20 -18 30
-18 11 0 20 -4 20 -8 0 -5 14 -7 30 -6 17 1 30 -2 30 -8 0 -5 8 -2 17 7 16 16
15 18 -1 27 -12 7 -15 13 -7 17 6 4 -2 12 -19 18 -24 9 -30 9 -30 -2 0 -7 3
-15 8 -18 4 -2 0 -2 -8 1 -8 2 -22 5 -30 5 -8 0 -26 6 -40 14 -22 11 -22 13
-5 13 17 0 17 2 5 10 -12 8 -9 10 12 10 15 0 29 -4 32 -8 4 -7 51 -8 66 -2 3
1 8 2 13 1 4 0 7 4 7 10 0 6 -7 8 -16 5 -13 -5 -15 -1 -12 19 3 13 2 22 -3 20
-4 -3 -10 -1 -13 3 -17 28 102 -14 132 -45 23 -26 22 -46 -3 -37 -8 4 -12 10
-9 15 3 5 -3 9 -13 9 -12 0 -19 -7 -19 -20 0 -11 6 -20 12 -20 15 0 26 -28 17
-43 -4 -6 0 -8 10 -4 11 4 14 2 10 -9 -3 -7 0 -14 5 -14 6 0 23 -5 39 -12 15
-6 32 -10 37 -9 5 1 6 -5 2 -14 -3 -10 -2 -14 5 -10 5 4 21 4 35 1 25 -7 25
-7 7 -24 -11 -9 -14 -14 -8 -10 6 4 17 6 25 5 27 -4 129 -71 123 -80 -3 -5 4
-6 16 -2 24 7 55 -11 45 -27 -9 -15 26 -35 52 -30 14 2 24 11 24 21 0 9 3 12
8 6 4 -5 18 -11 32 -12 14 -1 41 -4 62 -6 20 -2 57 -1 82 3 36 5 49 3 59 -8
10 -13 9 -15 -5 -9 -10 3 -20 2 -24 -4 -8 -14 -5 -16 39 -24 31 -6 37 -4 37 9
0 10 -4 15 -8 12 -4 -2 -9 4 -9 15 -1 10 2 19 8 19 5 0 9 -4 9 -9 0 -5 16 -5
38 0 30 7 39 5 50 -9 7 -9 16 -17 20 -17 4 0 6 -2 5 -5 -1 -3 10 -5 23 -5 13
0 23 4 21 10 -5 15 65 46 107 47 33 0 45 8 87 51 27 28 49 55 49 60 0 5 8 6
17 3 10 -4 14 -4 10 0 -9 10 30 37 43 29 6 -3 10 -2 10 3 0 6 15 15 33 21 26
10 29 14 17 22 -11 8 -12 12 -2 16 6 2 10 8 7 13 -5 9 51 3 67 -7 8 -4 9 0 5
11 -4 9 -3 15 2 11 17 -10 53 82 46 116 -4 19 -3 29 2 26 6 -4 8 4 5 19 -3 17
0 24 9 22 8 -2 13 4 13 14 -1 11 4 14 14 11 10 -4 13 -2 8 5 -3 6 2 17 12 24
10 7 27 25 36 40 10 15 23 25 29 21 6 -4 7 -1 2 6 -11 19 14 61 33 54 10 -4
13 -2 8 5 -4 7 -2 12 3 12 13 0 14 -5 2 -28 -22 -44 -32 -69 -30 -78 4 -24 -2
-75 -9 -70 -5 3 -8 -9 -8 -26 0 -26 1 -28 12 -14 7 10 22 18 33 19 13 1 20 6
17 14 -7 17 10 17 18 1 3 -7 3 -2 0 11 -4 16 -3 21 5 17 6 -4 11 -1 11 7 0 8
9 22 21 33 12 10 35 46 53 79 40 78 41 79 27 71 -7 -5 -10 1 -8 16 1 18 -2 22
-18 20 -19 -4 -19 -3 3 18 12 11 22 27 22 35 0 8 7 15 16 15 8 0 12 5 9 10 -4
6 -12 7 -18 3 -7 -3 -4 3 6 14 9 11 18 38 19 61 1 36 3 39 14 24 10 -14 12 -7
10 46 -1 34 2 62 7 62 4 0 5 5 2 10 -4 6 -3 10 2 9 19 -3 33 2 33 12 0 5 -4 7
-10 4 -13 -8 -13 21 0 45 7 13 7 21 0 25 -8 5 -7 12 2 23 11 13 11 14 -1 7
-11 -6 -13 -2 -9 19 3 14 1 29 -3 32 -5 3 -9 -1 -9 -9 0 -10 -7 -13 -20 -10
-11 3 -20 10 -20 15 0 5 4 6 10 3 5 -3 8 1 5 9 -16 52 -16 51 -25 37 -7 -12
-11 -12 -24 2 -20 20 -20 33 0 41 19 7 17 8 33 -21 13 -26 51 -20 51 8 0 32
-26 84 -59 118 -17 17 -31 41 -31 51 0 21 -20 28 -20 8 -1 -8 -6 -6 -14 5 -7
9 -25 17 -40 17 -14 0 -26 5 -26 10 0 6 -9 10 -20 10 -11 0 -23 7 -26 15 -4 8
-11 12 -17 8 -7 -4 -8 6 -4 29 7 43 -7 71 -24 48 -9 -12 -10 -12 -5 4 9 26
-12 50 -30 35 -11 -9 -14 -8 -14 1 0 7 -10 21 -22 32 -20 17 -23 18 -26 4 -2
-10 -15 -16 -35 -17 -18 -1 -24 -3 -15 -6 18 -5 17 -8 -24 -53 -9 -10 -13 -21
-10 -25 4 -3 -1 -3 -11 1 -21 8 -22 -9 -1 -30 8 -9 16 -25 17 -37 1 -18 3 -18
13 -5 17 25 26 19 10 -6 -8 -13 -13 -35 -11 -50 3 -22 0 -26 -13 -20 -15 5
-15 4 1 -12 17 -17 17 -19 0 -31 -13 -10 -15 -16 -6 -26 9 -11 8 -19 -3 -33
-7 -10 -11 -23 -7 -29 3 -6 1 -7 -4 -4 -6 4 -14 0 -17 -9 -3 -8 -2 -12 4 -9 6
3 10 -1 10 -9 0 -8 -4 -17 -9 -20 -5 -3 -8 -17 -8 -31 0 -14 4 -22 10 -18 7 4
8 0 4 -11 -6 -14 -3 -17 10 -11 12 4 9 -3 -10 -23 -15 -15 -24 -32 -20 -37 5
-4 -2 -6 -14 -3 -12 3 -22 3 -21 -1 1 -3 -4 -19 -10 -34 -14 -34 -15 -47 -3
-47 5 0 7 -9 4 -20 -3 -11 -1 -20 4 -20 6 0 9 12 7 27 -4 35 2 42 26 36 19 -5
19 -7 5 -23 -8 -9 -15 -22 -15 -28 0 -14 -37 -35 -43 -24 -2 4 -3 2 -1 -4 1
-7 -7 -22 -18 -34 -16 -17 -22 -19 -29 -8 -5 7 -9 9 -10 3 -3 -35 -10 -52 -28
-64 -12 -7 -21 -20 -21 -27 0 -8 -4 -14 -8 -14 -5 0 -14 -11 -20 -25 -6 -14
-18 -25 -27 -25 -8 0 -15 -5 -15 -11 0 -5 6 -7 13 -3 6 4 4 -2 -5 -13 -20 -22
-26 -55 -7 -36 6 6 18 9 25 6 26 -10 5 -20 -33 -16 -20 2 -34 1 -31 -3 9 -8
-16 -34 -33 -34 -8 0 -8 5 2 17 13 15 12 15 -7 5 -25 -13 -35 -7 -28 16 2 10
-3 2 -11 -16 -12 -26 -20 -32 -35 -27 -22 7 -26 -6 -10 -36 9 -16 7 -19 -12
-16 -12 1 -23 -3 -23 -10 0 -6 -4 -15 -9 -20 -5 -5 -7 1 -3 15 3 15 1 22 -9
22 -8 0 -14 -8 -15 -17 0 -14 -2 -15 -6 -3 -4 8 -14 22 -25 31 -10 9 -18 23
-18 30 0 11 -2 11 -10 -1 -8 -12 -10 -12 -10 -1 0 10 -10 12 -42 7 -78 -13
-121 -6 -198 30 -41 20 -84 40 -95 44 -106 45 -196 92 -201 104 -3 9 -13 16
-20 16 -23 0 -65 31 -57 43 4 6 1 7 -7 2 -10 -6 -12 -4 -6 10 5 15 4 16 -8 6
-11 -9 -16 -9 -23 1 -4 7 -17 18 -28 25 -11 6 -19 16 -17 23 1 6 -2 9 -6 6 -5
-3 -17 3 -27 14 -10 11 -15 20 -11 20 4 0 0 7 -8 16 -16 16 -20 31 -17 71 1
11 -3 24 -8 28 -7 4 -9 -1 -5 -12 5 -15 4 -15 -4 -3 -6 8 -8 18 -6 22 3 4 0 8
-5 8 -6 0 -11 5 -11 11 0 8 5 7 15 -1 9 -7 18 -10 21 -7 7 6 -18 47 -28 47 -5
0 -8 9 -8 20 0 11 -5 20 -11 20 -7 0 -9 10 -5 25 4 14 8 69 11 123 3 94 3 96
-11 57 -13 -37 -14 -37 -9 -7 2 17 0 32 -5 32 -6 0 -10 -5 -10 -12 0 -15 -11
-4 -14 14 -1 7 -5 19 -9 26 -15 23 -19 64 -6 56 8 -4 9 -3 5 4 -4 7 -8 73 -10
147 -1 83 -6 139 -13 146 -6 6 -9 19 -5 28 8 21 28 41 35 35 4 -5 6 14 7 84 0
13 3 21 8 19 4 -3 9 34 10 81 4 83 13 108 37 94 5 -3 4 2 -4 11 -7 9 -9 17 -3
17 15 0 35 -28 27 -39 -3 -7 0 -8 9 -5 9 3 16 17 16 29 0 13 5 27 10 30 6 3
10 18 10 32 0 14 12 51 27 82 29 60 31 66 40 124 3 20 9 37 13 37 5 0 6 9 3
20 -4 16 0 20 21 20 15 0 29 6 32 14 3 8 23 26 44 41 22 15 42 36 45 46 4 11
15 19 26 19 17 0 24 10 20 32 0 4 10 3 24 -2 21 -8 28 -4 56 28 17 20 28 31
25 25 -5 -8 -1 -13 9 -13 11 0 15 5 11 15 -6 17 30 46 50 38 9 -3 12 0 9 8 -4
12 24 35 103 84 29 18 43 35 38 44 -7 11 -47 7 -74 -8 -11 -6 -45 -14 -76 -17
-30 -4 -53 -11 -50 -15 3 -5 1 -9 -5 -9 -15 0 -61 -45 -61 -60 0 -7 -3 -10 -7
-7 -3 4 -13 2 -20 -5 -11 -9 -16 -9 -23 2 -10 17 7 53 21 44 6 -3 3 -11 -8
-19 -17 -13 -16 -14 4 -8 29 7 52 33 30 33 -23 0 -14 33 14 47 14 7 18 13 9
13 -8 0 12 13 45 29 33 15 76 44 95 64 18 20 38 33 43 30 6 -3 7 -1 3 6 -4 6
0 19 9 28 16 16 18 15 36 -8 15 -20 20 -22 31 -11 10 10 10 15 -2 23 -11 8 -8
9 13 4 17 -3 26 -2 23 4 -9 14 58 33 96 27 18 -3 37 -1 43 4 15 12 55 1 55
-15 0 -7 6 -16 13 -18 10 -4 10 -6 0 -6 -20 -1 -16 -41 5 -41 14 0 15 2 2 10
-12 8 -11 10 8 10 12 0 22 -5 22 -11 0 -5 5 -7 10 -4 6 3 10 2 10 -3 0 -5 11
-7 25 -4 26 5 33 18 14 24 -25 8 72 27 196 39 198 18 236 18 280 2 22 -8 62
-19 88 -25 34 -8 44 -14 35 -20 -8 -6 -1 -8 22 -6 59 3 96 -1 82 -10 -8 -6 -2
-9 17 -9 17 0 28 4 25 9 -3 4 4 8 15 8 12 0 21 -4 21 -10 0 -6 10 -5 26 2 20
9 30 9 46 -1 14 -9 18 -9 13 -1 -4 7 -1 17 6 22 11 8 10 9 -3 4 -10 -3 -20 -1
-23 4 -3 5 3 11 12 13 10 3 -1 3 -24 0 -27 -3 -43 -2 -43 5 0 5 -9 8 -20 5
-14 -4 -20 0 -20 11 0 10 -4 14 -10 11 -5 -3 -10 2 -10 11 0 16 1 16 20 -1 11
-10 20 -13 20 -7 0 5 9 8 20 5 11 -3 20 -1 20 3 0 12 141 8 149 -4 3 -5 18
-10 32 -10 33 1 84 -23 84 -39 0 -6 3 -15 8 -19 4 -4 7 0 7 8 0 11 6 14 20 11
11 -3 28 -2 37 1 15 6 15 8 3 17 -10 6 10 8 60 4 94 -8 105 -11 92 -28 -8 -9
-3 -12 19 -12 30 0 39 9 17 18 -7 3 -2 6 11 6 17 1 22 -3 17 -14 -6 -17 9 -21
19 -5 3 6 11 10 16 10 6 0 7 -6 3 -12 -6 -10 -3 -9 8 0 20 16 63 -1 52 -21 -5
-9 -4 -9 6 0 9 8 23 8 59 -4 83 -28 234 -94 239 -105 2 -5 9 -8 16 -8 8 0 12
-10 11 -24 -3 -21 0 -23 23 -20 47 8 83 4 99 -11 8 -8 18 -15 22 -15 4 0 17
-9 29 -20 12 -12 22 -19 22 -16 0 3 14 0 30 -5 17 -6 30 -18 30 -26 0 -8 4
-12 9 -8 5 3 12 1 16 -5 3 -5 -1 -10 -9 -10 -8 0 -18 -5 -22 -12 -4 -7 -3 -8
4 -4 7 4 12 2 12 -3 0 -6 7 -11 16 -11 8 0 13 -4 10 -9 -3 -5 1 -12 10 -15 22
-8 26 -8 19 4 -9 15 55 0 97 -23 40 -22 58 -54 38 -67 -7 -4 -10 -17 -7 -28 2
-12 2 -23 -2 -25 -3 -2 -1 -3 5 -1 13 3 54 -32 54 -44 0 -5 -3 -12 -8 -18 -4
-5 -5 -8 -3 -6 8 4 40 -51 35 -60 -3 -4 0 -8 5 -8 6 0 11 -6 11 -14 0 -7 7
-19 15 -26 9 -7 13 -15 11 -18 -3 -2 4 -22 15 -44 13 -25 17 -44 11 -50 -10
-10 -42 0 -42 14 0 6 8 7 17 4 10 -4 14 -3 9 1 -4 4 -17 8 -28 8 -11 0 -26 9
-32 20 -6 11 -16 23 -22 27 -23 15 -170 165 -189 192 -11 16 -19 36 -19 43 1
7 -2 10 -7 8 -4 -3 -12 1 -16 10 -5 8 -32 33 -60 54 -29 21 -49 42 -45 46 4 5
0 6 -8 3 -9 -3 -42 7 -75 22 -40 19 -53 29 -38 29 12 1 24 5 28 10 3 6 -6 8
-21 5 -18 -3 -23 -1 -18 7 5 9 2 10 -10 6 -13 -5 -24 1 -38 18 -11 14 -25 25
-31 25 -7 0 -29 15 -49 33 -55 49 -130 83 -202 92 -30 4 -44 10 -37 15 7 4 -8
7 -36 7 -80 -1 -113 6 -114 23 0 10 -2 11 -6 2 -2 -6 -9 -10 -14 -6 -5 3 -9 1
-9 -5 0 -5 5 -13 10 -16 6 -4 8 -11 4 -16 -3 -5 -2 -9 3 -8 28 5 63 -4 81 -20
12 -10 19 -20 16 -23 -2 -3 6 -3 19 -1 14 3 28 -1 32 -8 5 -8 4 -10 -3 -5 -7
4 -20 3 -29 -3 -14 -8 -12 -9 14 -6 17 2 48 -3 70 -10 21 -8 54 -14 73 -15 43
0 86 -22 82 -41 -2 -8 0 -11 3 -7 11 10 47 -11 40 -23 -4 -5 -3 -9 2 -8 22 4
33 -3 34 -18 0 -16 1 -16 8 1 5 14 10 16 15 8 4 -7 12 -9 18 -6 7 5 9 1 5 -9
-3 -10 -2 -17 3 -17 5 0 7 -8 4 -17 -5 -14 -4 -15 4 -4 8 12 19 8 59 -21 26
-19 48 -40 48 -48 0 -7 9 -14 20 -16 32 -5 64 -64 34 -64 -6 0 -9 7 -5 15 3 8
1 15 -4 15 -6 0 -10 -9 -10 -20 0 -14 7 -20 23 -21 56 -2 104 -29 113 -64 4
-17 11 -22 27 -19 12 2 16 2 10 -2 -22 -10 -14 -33 13 -40 17 -4 23 -11 19
-22 -3 -8 0 -21 6 -28 6 -8 9 -21 5 -29 -4 -12 -1 -15 13 -13 34 5 192 -177
176 -202 -4 -6 1 -10 9 -10 16 0 20 -10 16 -44 -1 -13 3 -17 13 -13 21 8 38
-16 42 -59 2 -20 7 -39 11 -43 4 -3 4 3 1 14 -7 19 -7 19 8 1 8 -10 12 -23 8
-29 -3 -6 -1 -7 6 -3 6 4 14 1 17 -8 3 -8 13 -17 21 -20 13 -5 14 -4 4 8 -10
11 -9 16 5 24 16 9 16 15 7 46 -6 20 -7 36 -2 36 5 0 9 -9 9 -20 0 -11 4 -20
9 -20 4 0 21 -18 36 -40 15 -22 34 -40 41 -40 8 0 14 -7 14 -17 0 -9 3 -14 6
-10 9 9 34 -19 34 -37 0 -9 6 -13 14 -10 14 5 30 -22 21 -36 -3 -5 -1 -11 5
-15 5 -3 10 -25 10 -48 0 -39 -1 -40 -16 -21 -14 18 -15 18 -4 -3 6 -13 14
-23 18 -23 4 0 13 -14 19 -31 7 -17 17 -29 23 -27 6 2 11 7 10 12 -1 4 7 14
17 23 10 8 12 12 6 8 -8 -4 -13 0 -13 9 0 8 -7 22 -16 31 -9 8 -13 22 -10 30
3 8 1 17 -4 20 -11 7 -2 35 12 35 5 0 7 -4 3 -9 -3 -5 -1 -12 4 -15 5 -4 12 4
14 16 3 16 4 14 4 -7 -1 -16 -5 -36 -10 -43 -7 -9 -6 -11 6 -6 10 3 20 -2 27
-15 6 -12 7 -21 3 -21 -4 0 -2 -5 5 -12 7 -7 12 -27 12 -45 0 -18 5 -33 11
-33 15 0 38 -30 39 -49 0 -8 -8 -24 -17 -35 -10 -12 -11 -15 -3 -8 18 15 34
16 24 0 -4 -6 -3 -8 3 -5 15 9 29 -11 38 -52 5 -24 3 -36 -6 -42 -11 -7 -10
-9 5 -9 15 0 16 -3 6 -15 -11 -13 -7 -19 12 -16 3 0 5 -11 3 -24 -1 -13 1 -22
5 -20 4 3 13 -2 19 -9 18 -21 -2 -27 -25 -8 -27 22 -66 80 -69 101 -3 35 -19
77 -37 100 -14 18 -15 27 -7 38 9 11 8 12 -5 7 -16 -6 -20 -16 -17 -41 1 -7
-4 -11 -11 -9 -7 1 -10 1 -5 -1 4 -3 4 -10 1 -15 -4 -7 -2 -8 4 -4 9 5 12 -7
12 -39 0 -28 -4 -44 -10 -40 -5 3 -10 1 -10 -4 0 -6 5 -11 11 -11 6 0 9 -7 5
-15 -3 -8 -1 -15 5 -15 6 0 7 -6 3 -12 -12 -19 -4 -81 12 -99 8 -9 17 -29 20
-44 2 -14 16 -36 30 -49 l26 -22 -30 -2 c-27 -2 -31 2 -37 30 -4 18 -12 39
-17 45 -6 7 -8 19 -5 27 3 7 2 17 -3 22 -5 5 -11 22 -14 37 -3 16 -16 47 -29
70 -13 23 -22 50 -19 60 2 9 -1 17 -7 17 -6 0 -11 5 -11 11 0 5 4 8 8 5 4 -2
9 4 9 15 1 10 -2 19 -8 19 -5 0 -9 -5 -9 -10 0 -6 -13 -9 -30 -8 -16 1 -30 6
-30 11 0 5 7 6 16 3 8 -3 12 -2 9 4 -3 6 -1 10 4 10 17 0 13 27 -4 34 -8 3
-14 2 -14 -2 3 -20 -2 -32 -11 -27 -6 4 -8 10 -5 15 3 5 0 12 -7 16 -7 4 -10
4 -6 -1 4 -4 3 -14 -3 -21 -7 -9 -6 -20 6 -38 9 -14 14 -30 10 -36 -8 -14 -14
-63 -7 -55 11 11 61 -161 77 -265 3 -19 9 -42 12 -50 5 -14 12 -68 14 -112 0
-10 4 -18 8 -18 4 0 8 -6 8 -14 0 -8 -6 -12 -15 -9 -12 5 -12 2 -3 -16 7 -12
16 -19 21 -16 5 3 11 1 14 -4 4 -5 2 -12 -3 -16 -6 -3 -5 -18 3 -37 10 -23 11
-38 4 -54 -7 -15 -7 -36 -1 -62 10 -38 10 -39 -16 -36 -14 2 -18 1 -9 -2 14
-4 33 -51 28 -70 -1 -4 4 -10 11 -14 8 -6 15 -72 21 -216 12 -251 12 -254 3
-374 -3 -52 -7 -102 -7 -110 -1 -45 -60 -290 -69 -290 -5 0 -9 -20 -9 -44 0
-77 -9 -104 -34 -100 -14 3 -13 1 6 -6 l27 -11 -21 -35 c-11 -19 -23 -34 -28
-34 -12 0 -29 -79 -18 -82 8 -3 -38 -98 -48 -98 -8 0 1 35 11 43 6 5 3 7 -7 4
-10 -4 -18 1 -21 14 -7 25 -27 24 -34 -1 -3 -11 -12 -20 -19 -20 -8 0 -13 -3
-12 -7 4 -14 -23 -54 -32 -48 -6 3 -7 0 -4 -8 3 -8 -5 -26 -18 -39 -13 -13
-36 -41 -53 -63 -28 -35 -96 -110 -205 -225 l-43 -45 32 42 c22 29 28 44 20
49 -8 5 -10 3 -4 -7 6 -11 5 -11 -5 -2 -7 6 -10 19 -7 27 4 9 7 20 8 24 1 4
12 20 25 35 13 16 24 35 24 43 0 9 5 12 12 8 6 -4 8 -3 4 4 -3 6 -2 13 3 17 6
3 8 12 4 21 -4 11 -10 8 -27 -15 -34 -46 -119 -120 -130 -114 -5 4 -7 0 -4 -8
8 -20 -17 -53 -33 -43 -7 4 -10 3 -6 -3 6 -10 -16 -96 -24 -91 -2 2 -1 -1 3
-7 12 -14 9 -73 -4 -81 -7 -5 -8 -2 -3 7 7 12 5 12 -6 1 -12 -11 -12 -14 0
-21 8 -6 12 -20 9 -39 -4 -26 -1 -29 20 -29 15 0 19 2 12 7 -9 5 -9 9 -1 14 6
4 11 4 11 1 0 -4 18 12 39 34 22 23 47 41 56 41 8 0 47 31 86 70 38 38 76 70
84 70 8 0 15 3 15 8 0 4 15 8 33 9 29 2 30 1 13 -12 -11 -8 -15 -19 -10 -27 6
-11 5 -11 -8 0 -14 11 -16 11 -12 -6 4 -12 -8 -35 -31 -63 -61 -73 -175 -180
-185 -174 -6 3 -10 2 -10 -4 0 -5 -34 -45 -76 -88 -42 -43 -87 -95 -101 -115
-14 -21 -30 -35 -36 -31 -5 3 -7 1 -3 -5 9 -15 -64 -72 -94 -72 -19 0 -22 -2
-10 -10 12 -7 8 -14 -18 -39 -31 -30 -40 -34 -72 -32 -10 0 -11 -1 -2 -5 9 -4
6 -12 -10 -29 -16 -16 -26 -21 -35 -14 -8 8 -10 4 -6 -12 4 -15 3 -20 -5 -15
-7 4 -12 3 -12 -2 0 -9 -37 -25 -52 -23 -5 1 -8 -4 -8 -10 0 -5 -5 -7 -10 -4
-6 4 -9 3 -8 -2 5 -15 -37 -60 -62 -67 l-25 -7 25 16 c24 16 24 16 3 12 -31
-7 -40 11 -11 22 l23 8 -23 7 c-12 4 -20 11 -17 16 3 5 0 12 -6 16 -8 5 -9 3
-4 -6 5 -8 3 -11 -6 -8 -8 3 -21 -2 -29 -10 -11 -12 -12 -16 -2 -20 23 -7 41
-32 35 -48 -3 -8 -12 -13 -20 -10 -8 3 -11 1 -8 -4 3 -6 -3 -10 -14 -10 -28 0
-37 3 -34 13 2 4 -8 7 -22 7 -23 0 -24 -2 -14 -27 6 -15 7 -24 3 -20 -4 4 -13
2 -21 -4 -10 -9 -13 -8 -13 1 0 9 -3 10 -14 1 -7 -6 -22 -8 -31 -4 -12 4 -16
3 -12 -5 7 -10 -128 -61 -178 -67 -11 -1 -23 -3 -27 -4 -5 0 -8 -8 -8 -16 0
-8 -5 -15 -11 -15 -5 0 -8 4 -5 9 3 5 -1 11 -9 14 -9 4 -12 1 -9 -7 3 -8 -5
-16 -20 -20 -14 -3 -26 -11 -26 -16 0 -6 -17 -10 -38 -10 -31 0 -43 -6 -59
-29 -17 -22 -28 -27 -46 -24 -19 4 -28 -1 -37 -16 -6 -12 -16 -18 -22 -15 -6
4 -8 3 -5 -3 8 -12 -57 -73 -76 -73 -7 0 -2 8 9 18 24 19 20 58 -4 43 -16 -10
-62 -2 -62 10 0 5 -5 9 -11 9 -5 0 -7 -5 -3 -12 4 -7 3 -8 -4 -4 -6 4 -20 2
-30 -3 -11 -6 -43 -13 -71 -16 -29 -3 -64 -10 -77 -16 -33 -12 -33 -12 -26 14
5 20 4 21 -14 7 -10 -8 -21 -16 -23 -17 -3 -2 4 -10 15 -18 18 -14 18 -14 -8
-15 -16 0 -29 0 -30 1 -2 0 -16 -4 -31 -10 -18 -7 -26 -7 -22 -1 3 6 -3 10
-14 10 -12 0 -21 -5 -21 -11 0 -5 6 -7 13 -3 8 5 9 4 2 -3 -5 -6 -23 -13 -40
-16 -48 -9 -90 34 -45 46 14 4 20 14 20 35 0 36 -21 47 -58 28 -42 -21 -76
-30 -68 -18 3 6 2 13 -3 17 -6 3 -8 -3 -6 -15 3 -14 -3 -21 -18 -25 -36 -8
-81 -16 -94 -17 -6 -1 -9 -7 -6 -15 3 -8 -3 -13 -17 -13 -14 0 -19 4 -14 12 5
8 2 9 -12 3 -10 -4 -29 -7 -41 -7 -12 1 -25 -3 -28 -9 -4 -5 -15 -7 -25 -4
-10 3 -35 -1 -56 -10 -30 -12 -39 -13 -46 -3 -6 10 -8 9 -8 -2 0 -12 -10 -16
-37 -15 -27 0 -38 -4 -39 -15 -3 -43 -4 -44 -16 -32 -7 7 -23 12 -36 12 -13 0
-21 4 -18 9 3 5 -10 11 -28 13 -19 2 -33 1 -30 -3 2 -4 -15 -11 -38 -14 -51
-7 -81 -13 -88 -15 -3 -1 -9 -2 -14 -1 -6 1 -65 5 -133 8 -99 4 -123 2 -123
-9 0 -20 18 -43 26 -35 4 4 18 0 31 -8 14 -9 23 -11 23 -5 0 7 8 9 23 4 12 -4
30 -7 40 -6 9 0 17 -3 17 -9 0 -5 -10 -9 -22 -9 -13 0 -29 -4 -36 -9 -11 -6
-10 -10 3 -15 11 -4 15 -12 11 -22 -4 -11 -2 -15 6 -11 7 2 22 1 33 -4 16 -6
14 -8 -12 -8 -17 -1 -39 -4 -48 -7 -9 -4 -15 -3 -13 2 2 5 -1 10 -7 11 -5 1
-12 9 -15 18 -3 9 -10 16 -14 15 -5 -1 -12 4 -16 10 -10 16 -80 24 -80 10 0
-6 -13 -9 -30 -8 -16 1 -30 6 -30 11 0 5 -9 7 -19 4 -24 -6 -111 12 -111 23 0
4 -20 13 -45 19 -25 6 -48 18 -51 26 -4 8 -10 15 -16 15 -5 0 -6 -5 -3 -10 9
-15 -57 -8 -73 8 -7 6 -23 12 -35 12 -12 1 -35 8 -52 16 -16 8 -22 12 -11 9
10 -3 25 0 33 7 25 21 52 20 46 -1 -3 -10 0 -22 6 -25 7 -5 10 1 8 16 -2 18 3
23 23 24 14 0 24 6 22 12 -3 15 20 16 35 1 9 -9 10 -7 6 10 -3 14 -13 21 -29
21 -13 0 -24 -5 -24 -10 0 -6 -11 -3 -25 7 -13 10 -25 28 -25 41 0 12 -4 22
-10 22 -5 0 -9 -5 -7 -11 1 -6 -4 -14 -10 -16 -7 -3 -13 3 -13 12 0 9 -5 13
-10 10 -6 -4 -8 -10 -5 -14 2 -5 -16 -6 -41 -3 -50 5 -117 35 -106 47 4 4 -3
5 -16 2 -15 -3 -25 0 -29 9 -3 8 -11 14 -18 14 -8 0 -21 7 -29 16 -9 8 -16 11
-16 5 0 -6 -5 -11 -11 -11 -5 0 -7 5 -4 10 6 10 -23 15 -55 10 -21 -3 -23 -7
-16 -27 6 -14 9 -15 15 -4 6 9 11 10 15 2 4 -6 2 -11 -3 -11 -6 0 -11 -7 -11
-15 0 -8 5 -15 12 -15 6 0 9 -3 5 -6 -3 -3 -16 1 -29 10 -12 9 -17 16 -10 16
7 0 10 5 7 10 -4 7 -12 7 -25 0 -22 -12 -53 -3 -43 13 4 6 0 8 -10 4 -8 -3
-21 1 -27 9 -16 18 -40 18 -40 -1 0 -8 5 -15 12 -15 6 0 8 -3 5 -6 -9 -9 -38
16 -31 27 3 5 1 9 -5 9 -6 0 -21 11 -34 23 -36 37 -73 58 -89 52 -8 -3 -25 6
-38 20 -28 30 -50 32 -50 5 0 -11 5 -20 11 -20 5 0 7 -4 4 -10 -3 -5 1 -10 9
-10 9 0 16 -4 16 -9 0 -11 -34 -3 -70 16 -14 7 -32 13 -41 13 -9 0 -24 9 -33
19 -10 11 -31 23 -47 26 -16 4 -29 10 -29 15 0 5 -13 11 -30 15 -16 4 -37 16
-45 28 -8 12 -15 16 -15 10 0 -31 -89 -13 -112 23 -4 6 -20 9 -35 7 -22 -4
-25 -2 -13 6 12 9 10 11 -10 11 -14 0 -43 7 -65 14 -22 8 -43 12 -47 9 -10 -6
-10 -25 0 -20 4 2 18 -8 32 -21 14 -14 19 -21 11 -17 -9 5 -12 4 -7 -3 4 -6
13 -9 21 -5 13 4 20 -7 16 -29 0 -4 6 -5 14 -2 14 6 92 -64 88 -78 -2 -4 6
-10 17 -13 11 -4 20 -10 20 -14 0 -4 11 -13 25 -19 21 -10 27 -9 31 3 5 11 11
9 30 -10 28 -28 30 -35 9 -35 -8 0 -15 -5 -15 -11 0 -5 4 -7 10 -4 6 3 10 1
10 -5 0 -8 9 -10 27 -5 23 5 25 4 14 -9 -11 -13 -11 -16 3 -16 9 0 31 -7 48
-16 22 -11 37 -13 47 -7 17 10 41 7 41 -7 0 -4 -9 -7 -20 -6 -11 0 -19 -3 -19
-7 0 -5 -8 -15 -18 -24 -10 -8 -12 -12 -5 -8 6 3 19 -1 28 -9 21 -21 34 -20
34 3 0 11 4 22 9 25 12 8 34 -20 27 -33 -4 -5 -2 -13 4 -16 6 -4 9 -1 8 7 -4
20 53 10 77 -13 11 -11 29 -27 40 -35 11 -9 14 -12 6 -8 -8 4 -12 3 -8 -2 3
-6 28 -16 56 -24 40 -11 48 -16 42 -29 -11 -19 24 -49 68 -57 21 -4 31 -12 31
-24 0 -10 7 -21 16 -24 14 -5 15 -4 4 9 -7 9 -10 18 -6 22 3 3 6 1 6 -5 0 -7
7 -12 15 -12 18 0 19 -11 3 -29 -11 -11 -9 -11 9 -2 13 6 24 7 27 2 4 -5 0
-12 -6 -15 -7 -3 -4 -5 7 -4 26 1 85 -21 85 -33 0 -5 3 -8 8 -8 19 3 33 -2 28
-10 -3 -5 0 -8 7 -7 23 2 117 -26 117 -36 0 -5 -6 -6 -12 -2 -7 4 -5 -2 6 -14
10 -12 23 -19 27 -16 5 3 9 -3 9 -13 0 -15 2 -16 10 -3 5 8 10 11 10 5 0 -5 4
-3 10 5 6 9 5 17 -3 23 -8 6 -7 7 3 4 8 -2 14 -12 14 -21 -1 -9 2 -16 7 -16 5
0 9 9 9 20 0 11 5 20 11 20 5 0 8 -4 4 -9 -3 -5 -1 -12 5 -16 5 -3 10 -2 10 4
0 5 10 8 23 7 29 -3 67 -24 67 -36 0 -6 7 -10 15 -10 8 0 15 -6 15 -14 0 -8 8
-13 18 -11 9 1 16 8 14 14 -1 6 9 11 23 11 14 0 25 -4 25 -10 0 -5 -8 -7 -17
-3 -15 5 -14 3 2 -10 11 -8 17 -19 13 -23 -4 -4 -14 -1 -23 6 -22 18 -32 3
-12 -18 13 -13 35 -17 86 -17 38 0 67 -3 65 -7 -3 -4 21 -7 53 -6 68 3 161
-11 146 -20 -6 -4 21 -7 60 -6 55 0 78 -4 96 -18 13 -10 32 -18 42 -18 33 0
68 -21 62 -38 -5 -11 -3 -13 8 -7 20 13 49 13 49 1 0 -6 8 1 18 17 18 30 43
35 62 12 13 -15 61 -21 74 -8 3 4 -4 13 -16 20 -22 13 -21 13 12 9 61 -9 140
-36 140 -49 0 -8 3 -9 8 -1 13 20 51 34 82 32 16 -1 30 -5 30 -8 0 -3 17 -5
38 -3 20 1 29 0 20 -3 -26 -8 -22 -27 3 -21 11 3 27 3 35 0 20 -8 5 -25 -16
-18 -10 3 -21 1 -25 -4 -3 -7 0 -8 9 -5 9 3 16 1 16 -4 0 -6 8 -11 18 -11 9 1
38 -2 65 -6 56 -8 100 0 92 18 -4 7 1 3 9 -7 9 -11 16 -25 16 -30 0 -7 4 -6 8
1 6 10 19 9 60 -1 29 -8 52 -10 52 -5 0 5 25 9 55 9 31 0 71 6 90 14 32 14 35
13 40 -4 8 -26 38 -33 93 -25 78 12 152 58 152 95 0 19 -2 20 -15 10 -8 -7
-15 -8 -15 -4 0 5 9 15 21 22 17 11 24 11 37 0 15 -12 16 -11 3 5 -9 12 -10
17 -2 17 7 0 10 4 7 9 -6 10 20 35 47 44 10 4 15 12 11 18 -4 7 0 9 14 5 15
-5 22 -2 27 13 4 13 11 18 22 14 10 -4 14 -2 10 4 -4 6 16 15 48 23 30 7 55
17 55 22 0 5 6 6 13 2 6 -4 9 -4 5 1 -4 4 -4 13 2 20 5 6 10 28 12 48 1 21 10
45 20 54 10 9 18 12 18 8 0 -5 7 0 15 11 8 10 15 15 15 10 0 -6 6 -2 13 8 19
26 165 29 191 3 20 -20 46 -23 46 -4 1 7 6 5 14 -5 7 -10 19 -18 27 -18 8 0 6
5 -5 13 -16 12 -17 15 -3 20 9 3 18 0 21 -9 8 -20 39 -18 81 6 19 11 50 29 69
39 19 11 37 17 40 14 3 -4 6 1 6 10 0 9 6 17 14 17 7 0 19 6 25 13 6 8 28 19
48 25 48 15 123 85 123 115 0 16 -3 18 -9 9 -6 -10 -10 -8 -14 8 -7 28 42 52
85 40 24 -8 28 -6 28 12 0 13 5 18 14 15 10 -4 13 -1 10 8 -5 13 91 73 109 67
5 -1 6 2 3 7 -3 5 8 14 24 20 65 24 86 31 112 35 36 6 50 15 43 27 -4 5 1 12
10 16 9 3 25 25 35 48 18 42 60 69 60 38 0 -8 -4 -12 -9 -9 -5 3 -12 -1 -15
-10 -4 -12 -2 -15 9 -10 13 5 13 2 -1 -19 -15 -23 -26 -29 -46 -26 -10 1 -10
-30 0 -46 4 -7 18 -11 30 -10 16 1 22 8 22 25 0 13 4 21 9 18 4 -3 13 6 20 20
9 20 17 25 36 22 13 -3 22 -2 20 2 -5 8 28 32 72 55 24 13 83 81 83 96 0 5 6
9 14 9 20 0 76 49 76 66 0 8 7 11 18 8 10 -4 13 -2 7 3 -16 12 -19 76 -4 67 7
-4 9 -3 6 4 -10 16 3 42 22 43 10 0 11 2 4 6 -15 5 -3 33 28 67 11 11 19 24
19 28 0 5 4 6 10 3 12 -7 2 22 -17 50 -13 19 -13 19 -13 -1 0 -24 -44 -48 -66
-36 -12 7 -8 13 19 33 35 24 107 111 107 128 0 5 15 18 33 30 17 11 26 21 18
21 -11 0 -10 5 4 20 10 11 24 20 31 20 7 0 11 6 8 14 -3 8 0 17 5 21 6 3 8 11
5 17 -5 7 -1 9 9 5 15 -6 17 0 13 38 -2 26 1 42 6 39 5 -3 8 2 6 12 -2 12 2
18 10 16 8 -1 11 2 7 7 -6 10 17 53 42 79 7 7 13 17 13 21 0 5 10 21 22 36 12
16 24 37 25 47 6 36 33 79 46 71 7 -4 7 0 -2 10 -12 15 -11 17 4 17 14 0 15 3
6 14 -12 15 3 75 23 88 8 6 8 8 -1 8 -6 0 -9 9 -6 20 3 11 12 20 19 20 8 0 14
10 13 23 0 21 -1 21 -9 2 -5 -11 -9 -16 -9 -11 -1 13 21 90 30 101 4 6 15 39
24 75 19 72 44 122 58 113 4 -3 7 1 6 8 -1 8 1 26 5 40 6 21 12 25 28 21 12
-3 19 -1 15 4 -3 5 1 20 9 34 14 23 14 23 9 3 -5 -19 -3 -23 17 -22 15 1 17 3
6 6 -15 4 -15 9 3 58 10 30 19 67 19 83 0 15 5 33 12 40 9 9 8 12 -6 12 -16 0
-18 6 -12 53 4 28 7 60 7 70 0 9 5 17 10 17 6 0 8 8 4 19 -7 22 4 53 16 45 5
-3 6 3 2 12 -5 13 -3 15 7 9 10 -6 12 -4 7 7 -6 16 2 54 43 203 13 44 23 88
23 98 1 9 5 17 9 17 4 0 8 7 8 16 0 26 33 74 51 74 14 0 17 -13 18 -82 1 -46
6 -84 11 -86 6 -2 10 -35 10 -73 0 -61 -2 -68 -17 -63 -16 5 -16 4 1 -10 17
-13 18 -25 13 -93 -6 -77 -6 -78 10 -43 8 19 17 46 20 59 2 14 13 52 25 85 17
52 19 74 13 151 -8 116 -7 148 7 156 7 4 15 6 18 4 3 -2 3 21 2 51 -2 30 -8
52 -13 48 -8 -4 -7 50 2 81 1 6 -3 23 -10 39 -21 52 -29 104 -18 115 8 8 7 11
-2 11 -9 0 -11 8 -7 25 4 17 2 27 -7 31 -16 6 -17 79 -2 103 5 10 4 12 -4 7
-11 -7 -9 17 5 62 2 7 0 10 -5 7 -6 -3 -8 19 -6 54 3 49 1 59 -11 54 -9 -3
-14 2 -15 13 -3 121 -16 197 -30 189 -5 -4 -17 -1 -26 7 -15 11 -16 11 -10 -5
4 -10 7 -21 7 -23 0 -3 5 -2 10 1 16 10 12 -25 -5 -41 -8 -9 -20 -12 -26 -8
-9 5 -6 12 7 22 16 13 17 14 1 9 -16 -6 -17 1 -11 86 4 51 7 106 8 124 0 18 7
38 14 44 15 16 16 45 2 54 -5 3 -10 -3 -10 -14 0 -11 -5 -23 -12 -27 -8 -5 -9
-2 -5 9 4 10 2 16 -6 14 -7 -1 -11 4 -9 11 1 8 -2 11 -7 8 -5 -4 -12 0 -14 6
-4 10 -6 10 -6 1 -1 -7 -8 -10 -17 -6 -12 4 -14 0 -9 -23 4 -25 4 -26 -5 -9
-9 17 -10 15 -6 -12 3 -18 1 -35 -4 -38 -6 -4 -7 1 -3 12 6 16 5 16 -10 4 -10
-8 -19 -12 -20 -10 -28 50 -67 142 -62 147 4 4 10 1 12 -5 3 -7 9 -13 14 -13
5 0 4 9 -3 20 -11 17 -11 22 0 29 14 8 8 55 -11 79 -6 8 -6 12 2 12 6 0 11 7
11 16 0 14 3 14 16 4 13 -12 15 -10 12 13 -4 27 -18 50 -18 29 0 -19 -13 -14
-58 20 -27 20 -42 40 -42 54 0 12 -7 24 -15 27 -16 7 -55 78 -55 102 0 8 -4
15 -9 15 -5 0 -12 8 -16 19 -3 10 -22 34 -41 54 -22 22 -33 40 -28 48 4 7 3
10 -3 6 -19 -12 -46 32 -48 78 -2 25 1 45 6 45 5 0 9 -8 9 -17 0 -23 8 -12 14
19 3 19 1 25 -8 22 -15 -6 -69 53 -61 67 4 5 -4 26 -17 47 -12 20 -21 39 -20
42 2 3 -4 7 -14 8 -10 3 -14 0 -10 -7 11 -17 0 -13 -15 6 -8 10 -9 14 -2 10 6
-4 14 -4 16 1 3 4 -6 12 -19 19 -18 8 -23 8 -18 0 3 -7 -2 -3 -10 7 -9 11 -16
16 -16 11 0 -5 -8 2 -17 15 -10 14 -17 29 -15 33 1 5 -2 6 -7 2 -14 -8 -45 41
-37 60 3 8 1 15 -5 15 -17 0 -73 50 -57 51 7 0 2 5 -12 11 -14 6 -20 12 -13
15 20 7 -10 56 -44 73 -15 8 -32 21 -36 27 -4 7 -14 13 -21 13 -15 0 -56 42
-56 58 0 7 -5 12 -10 12 -6 0 -23 11 -38 25 -15 14 -33 25 -41 25 -11 0 -11 3
0 17 8 10 9 14 2 10 -7 -5 -19 5 -29 23 -10 16 -26 33 -36 36 -16 5 -19 9 -18
29 0 3 -12 17 -27 30 -16 13 -23 25 -17 25 6 0 17 -6 23 -14 7 -8 21 -13 31
-11 11 2 25 -4 31 -13 9 -15 10 -14 6 6 -3 12 -1 22 4 22 5 0 9 -6 9 -12 0
-10 2 -10 8 -1 6 9 17 5 40 -17 18 -16 36 -31 40 -32 4 -2 6 -7 4 -11 -1 -5 2
-6 7 -3 5 4 16 -1 24 -9 9 -8 20 -15 26 -15 5 0 22 -11 36 -26 14 -14 30 -22
35 -19 6 3 10 2 10 -4 0 -6 7 -8 15 -5 10 4 18 -3 25 -20 5 -14 14 -26 20 -26
13 0 13 1 -6 39 -9 18 -14 35 -11 38 8 7 -15 29 -39 37 -11 3 -28 23 -39 43
-11 21 -32 49 -48 62 -15 14 -35 40 -44 58 -12 27 -18 31 -29 22 -11 -9 -14
-8 -14 4 0 8 -12 18 -26 21 -15 4 -50 22 -79 41 -29 18 -55 31 -58 28 -9 -9
-66 30 -60 40 3 6 1 7 -5 3 -14 -9 -73 24 -66 36 3 5 2 8 -3 7 -19 -3 -33 2
-49 19 -10 9 -21 17 -26 17 -5 0 -13 6 -17 14 -5 8 -16 11 -25 8 -15 -6 -21 4
-17 27 1 5 -5 6 -13 3 -10 -4 -13 -1 -10 8 3 8 -6 20 -23 29 -15 8 -22 15 -15
16 6 0 12 4 12 10 0 5 -14 3 -32 -4 -36 -16 -64 -9 -113 28 -16 13 -46 26 -66
30 -20 3 -44 15 -54 26 -9 10 -22 17 -29 14 -17 -6 -68 21 -58 31 4 5 0 6 -9
2 -9 -3 -28 1 -42 8 -14 7 -28 10 -32 7 -3 -4 -3 1 1 11 7 20 7 20 47 4 18 -8
50 -17 72 -21 22 -4 44 -11 50 -14 5 -4 17 -7 25 -9 13 -2 90 -33 100 -41 2
-1 -2 -7 -10 -12 -12 -8 -11 -10 5 -10 17 0 17 -2 5 -10 -13 -8 -12 -10 3 -10
14 0 17 5 11 23 -6 22 -6 22 14 2 13 -13 16 -24 10 -32 -6 -7 -5 -14 3 -19 8
-4 9 -3 5 4 -4 7 -2 12 3 12 6 0 12 8 12 18 1 9 5 4 9 -13 5 -19 8 -23 9 -11
1 20 1 20 17 0 8 -10 13 -14 10 -8 -6 13 23 12 44 -1 8 -5 30 -10 49 -12 19
-2 38 -8 43 -15 6 -10 8 -9 8 2 0 12 2 12 9 2 4 -8 12 -14 17 -14 22 -1 54
-19 54 -29 0 -7 3 -10 6 -6 4 3 13 -1 21 -9 8 -8 20 -11 26 -7 7 4 5 -1 -3
-12 -14 -16 -13 -17 6 -11 16 5 26 0 38 -19 9 -14 21 -23 26 -20 5 3 11 -4 15
-15 3 -11 10 -20 15 -20 5 0 29 -13 53 -30 25 -16 50 -30 57 -30 6 0 8 -4 5
-10 -3 -5 -2 -10 3 -10 5 0 9 -7 9 -15 0 -10 -6 -14 -16 -10 -12 5 -13 3 -4
-6 7 -7 21 -9 40 -4 21 6 23 9 11 12 -10 3 -18 9 -18 14 0 6 4 8 9 4 5 -3 12
-1 16 5 3 5 2 10 -3 10 -5 0 -22 19 -37 43 -31 48 -149 163 -208 204 -22 15
-41 33 -44 40 -3 7 -12 13 -20 13 -23 0 -48 31 -45 57 4 26 -13 32 -22 8 -6
-16 -53 -14 -65 2 -3 4 -15 13 -26 19 -11 7 -19 20 -17 30 2 18 2 18 -13 0
-14 -18 -15 -18 -15 -2 0 9 -4 14 -10 11 -5 -3 -17 3 -27 15 -10 11 -28 20
-40 20 -14 0 -23 6 -23 15 0 8 -17 19 -42 25 -55 14 -70 21 -36 17 25 -4 26
-3 12 18 -8 12 -11 25 -7 30 5 4 3 5 -4 1 -7 -4 -9 -14 -6 -23 5 -12 2 -15
-10 -10 -9 3 -17 3 -17 -2 0 -4 -7 -8 -15 -8 -8 0 -11 5 -8 10 4 6 0 8 -9 4
-9 -3 -24 1 -35 8 -10 8 -28 15 -40 15 -17 0 -23 6 -23 23 0 18 -2 19 -10 7
-9 -13 -12 -13 -24 3 -10 12 -15 14 -18 6 -3 -10 -12 -10 -37 -1 -30 11 -36
10 -52 -9 -15 -18 -21 -20 -34 -9 -8 7 -15 10 -15 6 0 -4 -14 1 -31 9 -31 17
-65 13 -54 -5 4 -6 10 -8 15 -5 5 3 21 -2 35 -11 14 -9 25 -13 25 -9 0 3 14
-3 30 -15 29 -21 43 -66 18 -57 -7 2 -12 12 -10 21 2 9 -1 16 -5 15 -18 -3
-34 1 -30 9 3 4 -13 8 -34 9 -21 2 -39 -1 -39 -6 0 -16 -29 -6 -45 15 -21 27
-18 55 5 61 11 3 20 13 20 22 0 14 -2 14 -10 1 -5 -8 -10 -10 -10 -5 0 6 -11
15 -24 21 -21 10 -25 8 -40 -16 -14 -25 -14 -29 -1 -40 10 -9 15 -9 15 -1 0 6
5 11 11 11 8 0 8 -4 -1 -14 -8 -11 -18 -12 -36 -6 -15 6 -24 6 -24 0 0 -17 5
-25 13 -22 4 1 15 -4 23 -13 9 -8 22 -15 30 -15 8 0 12 -5 9 -10 -4 -7 -11 -8
-18 -2 -7 5 -28 13 -47 17 -19 4 -55 17 -80 28 -25 11 -55 19 -67 19 -24 -2
-33 14 -10 16 6 0 21 3 32 6 11 2 26 5 33 5 6 1 12 6 12 12 0 6 -7 9 -15 5 -8
-3 -15 -1 -15 4 0 6 -13 10 -30 10 -20 0 -30 5 -30 15 0 8 5 15 11 15 5 0 8 4
5 9 -3 4 -23 6 -43 4 -123 -13 -153 -14 -153 -4 0 13 -3 13 -47 0z m-1486
-361 c-3 -8 5 -14 19 -14 25 -2 33 11 12 19 -8 3 -6 6 5 6 9 1 17 -6 17 -14 0
-8 5 -15 11 -15 5 0 7 5 4 10 -3 6 -4 10 -1 10 3 0 10 -9 16 -20 10 -18 9 -19
-16 -10 -24 9 -26 8 -21 -10 6 -23 -16 -40 -51 -40 -4 0 -18 -10 -32 -23 -32
-29 -56 -39 -102 -42 -28 -2 -35 0 -31 11 3 8 10 14 15 14 6 0 3 11 -5 24 -18
27 -11 41 12 24 9 -7 13 -8 9 -4 -11 13 11 36 33 36 11 0 19 5 19 11 0 7 10 9
25 6 14 -2 23 -2 20 1 -3 3 5 11 18 18 29 16 30 16 24 2z m1971 -244 c8 -2 21
-6 30 -10 9 -4 42 -9 72 -11 58 -4 120 -9 132 -12 4 0 5 -9 2 -18 -4 -12 -3
-14 3 -6 10 14 53 6 53 -9 0 -5 -4 -7 -9 -4 -11 7 -9 -21 2 -29 4 -3 5 -2 2 2
-3 3 0 12 6 19 8 10 16 10 36 1 21 -9 27 -9 31 1 2 6 11 12 20 12 13 0 14 -2
4 -8 -9 -6 -5 -12 13 -20 14 -7 32 -12 40 -12 8 0 27 -12 42 -26 15 -14 21
-22 13 -18 -10 5 -8 0 4 -15 11 -12 25 -20 32 -17 6 2 22 -6 34 -19 12 -12 50
-37 86 -56 36 -18 60 -35 55 -38 -5 -3 -1 -16 9 -28 9 -12 20 -19 24 -16 9 9
7 -10 -3 -26 -7 -11 -11 -9 -20 8 -7 11 -19 21 -27 21 -8 0 -29 8 -47 17 -18
9 -36 18 -42 18 -5 1 -9 7 -7 15 3 12 1 13 -9 3 -14 -14 -43 -18 -35 -5 3 4
-11 16 -29 27 -19 10 -37 26 -41 37 -3 10 -10 16 -15 13 -5 -4 -9 -1 -9 6 0 7
-3 9 -7 6 -3 -4 -13 -1 -21 6 -13 10 -14 9 -8 -1 7 -11 4 -11 -15 0 -13 7 -26
15 -29 18 -3 3 -14 7 -25 8 -27 5 -46 22 -38 35 4 6 1 7 -8 1 -21 -12 -77 -5
-112 16 -18 10 -48 21 -67 25 -19 4 -45 14 -57 22 -12 8 -28 16 -35 17 -32 6
-58 18 -53 26 3 4 -2 10 -10 14 -8 3 -15 1 -15 -5 0 -6 -5 -7 -11 -4 -6 5 -4
12 8 20 10 7 22 10 28 7 5 -4 16 -7 23 -8z m-2108 -19 c0 -17 43 -27 72 -16
13 4 29 6 37 3 8 -3 -13 -13 -47 -24 -38 -11 -66 -26 -72 -39 -6 -11 -15 -17
-21 -13 -5 3 -21 -1 -34 -10 -13 -9 -32 -13 -41 -9 -11 4 -15 3 -10 -5 4 -7
-9 -22 -32 -37 -29 -19 -48 -24 -75 -21 -21 2 -37 0 -37 -5 0 -5 -5 -9 -12 -9
-6 0 -8 3 -5 6 3 4 2 14 -2 23 -6 11 -3 24 10 40 10 13 19 20 19 17 0 -4 10 0
23 9 13 8 27 12 32 8 4 -5 5 -3 2 3 -4 7 0 14 7 17 8 3 17 1 19 -6 3 -9 8 -9
18 1 7 6 24 12 37 12 16 0 21 4 15 13 -14 22 -12 39 3 33 8 -3 17 1 21 10 3 8
12 13 19 10 7 -3 16 -1 19 4 8 13 35 1 35 -15z m3888 -2767 c5 -34 5 -62 -1
-70 -6 -9 -7 -8 -3 5 3 9 1 17 -4 17 -17 0 -16 -36 2 -67 12 -20 15 -34 8 -38
-5 -3 -10 -15 -10 -26 0 -10 -4 -19 -8 -19 -5 0 -6 -22 -2 -50 4 -27 3 -50 -2
-50 -4 0 -7 -6 -5 -12 1 -7 -4 -12 -11 -10 -10 2 -10 -2 -2 -18 6 -11 14 -20
19 -20 16 0 1 -235 -17 -264 -6 -11 -8 -16 -10 -48 -1 -10 -8 -14 -20 -11 -14
3 -19 14 -19 38 0 19 4 32 8 29 4 -2 10 0 14 6 3 5 -1 10 -9 10 -19 0 -22 21
-15 110 2 20 0 40 -4 46 -3 6 -2 26 3 45 12 42 12 52 1 45 -5 -3 -8 9 -7 28 1
19 -2 32 -6 30 -13 -8 -9 61 5 75 10 11 9 12 -1 7 -9 -6 -11 -2 -7 16 3 12 7
62 8 110 2 55 7 92 15 100 11 11 11 8 2 -16 -13 -35 -4 -49 9 -15 10 24 10 24
10 2 1 -17 6 -22 24 -21 20 2 22 6 20 57 -3 66 3 58 15 -21z m-2712 -3517 c-3
-5 1 -11 9 -14 9 -4 12 -1 8 9 -4 10 3 14 25 14 38 0 64 -9 56 -21 -3 -5 2 -6
10 -3 9 3 16 1 16 -5 0 -6 8 -11 18 -11 9 0 24 -5 32 -10 11 -7 6 -8 -17 -4
-26 5 -33 3 -34 -10 -1 -9 -2 -19 -4 -23 -1 -5 -5 -21 -10 -38 -4 -16 -12 -33
-18 -36 -12 -9 -48 1 -42 11 3 4 -12 4 -33 -1 -64 -16 -67 -17 -86 -7 -13 7
-16 7 -12 -1 5 -7 -2 -11 -16 -11 -13 -1 -40 -7 -60 -14 -21 -8 -38 -10 -38
-4 0 5 -10 4 -22 -2 l-23 -11 23 17 c12 9 22 24 22 33 0 13 -2 14 -9 2 -12
-19 -74 -24 -67 -6 2 7 0 17 -6 23 -8 8 -3 15 15 23 15 7 27 16 27 21 0 5 5 6
10 3 6 -3 10 1 10 9 0 11 9 15 30 13 19 -1 28 -6 25 -14 -6 -16 5 -16 30 0 11
7 33 12 48 11 20 -1 26 3 23 12 -5 13 6 18 26 15 4 0 12 8 18 19 6 11 13 20
16 20 3 0 3 -4 0 -9z"/>
<path d="M4087 8300 c-6 -25 11 -26 29 -2 7 9 14 12 14 5 0 -18 -31 -45 -46
-39 -8 3 -14 2 -14 -2 0 -11 -80 -47 -105 -47 -11 0 -26 4 -32 9 -9 6 -13 3
-13 -8 0 -9 8 -16 18 -16 9 0 13 -3 7 -8 -6 -4 -23 -25 -39 -46 l-29 -39 -19
23 c-10 12 -18 18 -18 13 0 -5 5 -14 11 -20 8 -8 3 -23 -16 -53 -28 -45 -28
-47 -5 -50 32 -5 49 0 44 13 -3 8 2 20 11 27 8 7 15 9 15 6 0 -4 21 13 47 38
26 26 60 52 75 59 16 6 34 24 40 39 7 15 16 24 21 21 11 -7 102 86 92 95 -4 4
-10 1 -12 -5 -3 -7 -9 -13 -14 -13 -6 0 -8 4 -5 8 2 4 -8 9 -24 10 -20 2 -29
-3 -33 -18z"/>
<path d="M7947 7583 c-10 -10 -8 -51 2 -57 5 -4 8 -18 6 -32 -2 -18 1 -24 12
-20 11 5 13 1 8 -15 -5 -15 -4 -19 4 -15 6 4 15 -4 21 -18 5 -14 12 -26 15
-26 4 0 3 5 -1 12 -5 7 -3 8 5 4 7 -5 10 -14 7 -22 -3 -8 -2 -14 2 -14 12 0
62 -47 62 -59 0 -6 4 -11 9 -11 5 0 16 -12 26 -26 14 -21 14 -28 3 -41 -11
-14 -11 -15 8 -5 12 6 26 7 35 1 10 -6 10 -9 2 -9 -7 0 -13 -4 -13 -10 0 -5 6
-10 13 -10 29 0 86 -97 69 -116 -4 -4 -2 -4 4 -1 11 6 25 -12 23 -30 -1 -3 13
-15 30 -25 17 -11 31 -23 31 -27 0 -14 37 -51 50 -51 10 0 9 4 -1 17 -10 11
-10 14 -1 9 6 -4 12 -2 12 3 0 6 -5 11 -11 11 -5 0 -7 5 -4 10 3 6 0 10 -7 11
-7 0 -4 4 7 9 11 5 14 9 7 9 -7 1 -10 6 -6 13 5 7 2 9 -9 5 -18 -7 -33 25 -21
45 4 7 3 10 -1 5 -10 -8 -46 43 -39 55 3 4 -2 8 -11 8 -12 0 -15 5 -11 17 4
10 4 15 1 11 -4 -3 -19 -2 -35 4 -20 7 -28 15 -25 28 3 14 -1 18 -18 15 -20
-4 -21 -3 -5 9 10 7 15 16 11 19 -10 10 -25 8 -19 -2 3 -5 -1 -11 -9 -15 -8
-3 -14 -2 -13 2 3 13 -20 58 -36 71 -9 7 -16 18 -16 23 0 5 -9 18 -20 30 -11
12 -20 30 -20 40 0 10 -5 18 -11 18 -5 0 -7 -5 -3 -12 4 -7 3 -8 -4 -4 -6 4
-8 14 -5 23 4 10 2 14 -5 9 -12 -7 -42 30 -42 54 0 8 -13 24 -29 34 -16 11
-27 26 -24 33 6 14 0 17 -10 6z"/>
<path d="M3588 7316 c-16 -16 -28 -33 -28 -38 0 -5 -4 -7 -9 -3 -5 3 -13 1
-16 -5 -4 -6 -3 -9 2 -8 4 2 8 -1 8 -7 0 -5 -3 -9 -6 -8 -3 1 -4 -9 -1 -22 3
-16 0 -25 -9 -25 -7 0 -10 -3 -6 -6 3 -4 0 -19 -8 -34 -7 -14 -16 -50 -18 -80
-3 -29 -11 -56 -18 -61 -10 -6 -7 -10 11 -17 20 -8 26 -6 29 6 2 9 9 22 17 30
8 7 12 17 9 22 -3 5 0 12 6 16 9 5 10 1 7 -14 -3 -12 -3 -21 1 -20 3 0 17 0
31 -1 20 -1 22 -3 10 -11 -8 -5 -11 -10 -7 -10 4 0 19 8 33 17 25 16 25 17 8
30 -10 7 -14 13 -10 13 5 0 1 11 -8 25 -16 25 -17 49 -2 74 7 10 6 12 -4 6
-10 -6 -12 -4 -7 9 4 10 7 26 7 36 0 10 7 26 16 34 8 9 11 16 5 16 -5 0 -11
15 -13 33 l-3 32 -27 -29z"/>
<path d="M6390 7035 c0 -16 51 -75 65 -75 8 0 33 -13 57 -28 59 -39 121 -62
168 -62 80 0 57 21 -100 90 -52 23 -110 43 -130 46 -19 2 -41 12 -47 21 -7 9
-13 13 -13 8z"/>
<path d="M2663 6284 c-7 -7 -13 -22 -13 -33 0 -31 -19 -73 -30 -66 -6 3 -7 -1
-4 -9 3 -9 2 -16 -4 -16 -5 0 -12 -7 -15 -14 -4 -11 -1 -13 10 -9 11 4 14 2 9
-5 -4 -7 -13 -12 -19 -12 -16 0 -39 -38 -32 -50 4 -6 0 -10 -7 -10 -8 0 -9 -3
-3 -8 11 -7 13 -27 17 -129 1 -34 6 -57 9 -51 4 6 5 18 3 27 -3 9 0 5 7 -9 21
-47 25 -54 39 -58 10 -4 11 1 5 19 -4 13 -9 70 -10 126 -3 89 -1 102 14 106
18 4 20 11 21 75 0 20 6 59 11 85 12 53 10 62 -8 41z"/>
<path d="M1411 6228 c-9 -94 -3 -145 21 -194 22 -47 26 -51 45 -40 18 9 19 13
7 24 -11 10 -11 17 -2 31 6 11 17 17 23 14 11 -4 -9 73 -32 127 -7 16 -10 27
-12 47 -1 7 -8 10 -17 6 -9 -3 -19 -1 -23 6 -5 7 -9 -2 -10 -21z"/>
<path d="M7618 6163 c5 -10 15 -48 21 -85 6 -37 20 -87 31 -112 10 -24 16 -47
13 -50 -3 -3 6 -15 21 -27 14 -11 24 -24 21 -29 -5 -8 13 -25 20 -19 2 2 6 22
9 44 4 28 3 32 -3 15 -6 -21 -9 -14 -15 37 -5 37 -16 73 -27 87 -10 13 -19 31
-19 38 0 8 -3 18 -7 22 -5 4 -8 11 -8 14 0 14 -47 82 -56 82 -6 0 -6 -7 -1
-17z"/>
<path d="M6265 5970 c-4 -6 -15 -8 -26 -5 -23 8 -24 3 -4 -35 8 -16 12 -37 9
-47 -5 -15 -4 -16 5 -3 9 13 11 13 12 0 1 -8 1 -18 0 -22 0 -5 5 -8 13 -8 16
0 59 -54 50 -62 -3 -3 9 -20 26 -37 23 -22 30 -37 26 -53 -3 -13 -3 -17 0 -10
3 6 11 9 16 6 8 -5 9 5 4 32 -7 38 -13 64 -16 74 -1 3 -1 15 -1 27 1 11 -7 32
-19 45 -12 12 -37 42 -55 66 -19 24 -36 38 -40 32z"/>
<path d="M1246 5801 c-4 -6 -2 -18 4 -26 6 -8 9 -19 5 -25 -3 -5 -1 -10 4 -10
6 0 11 -12 11 -26 0 -14 4 -23 8 -20 5 3 8 -33 8 -80 -1 -66 2 -81 11 -69 9
14 12 10 17 -22 3 -21 4 -54 3 -75 -1 -20 1 -34 5 -32 5 3 8 -4 8 -14 0 -11 7
-33 15 -48 13 -25 15 -26 16 -9 3 37 -3 80 -12 90 -12 13 -12 68 1 60 6 -3 11
4 11 17 4 61 18 100 32 91 6 -3 7 -1 3 6 -4 6 3 25 15 42 l22 31 -24 -12 c-13
-7 -28 -19 -32 -26 -11 -18 -38 -18 -31 0 3 8 1 17 -5 21 -6 3 -11 -1 -11 -10
0 -9 -5 -13 -10 -10 -6 4 -8 11 -5 16 4 5 0 9 -7 9 -11 0 -11 2 0 9 11 7 11
11 -2 24 -9 8 -16 27 -16 40 0 31 -34 75 -44 58z"/>
<path d="M2690 5472 c0 -7 -4 -10 -10 -7 -7 4 -7 -3 0 -20 7 -18 7 -33 -1 -47
-8 -15 -8 -19 0 -14 11 7 14 -1 14 -36 0 -10 4 -18 9 -18 6 0 8 -11 6 -25 -3
-13 -2 -22 3 -20 4 3 10 -16 14 -42 3 -27 17 -69 30 -96 24 -45 34 -77 16 -48
-5 7 -11 9 -14 5 -3 -5 5 -17 17 -26 26 -19 27 -17 29 60 2 57 -5 95 -18 104
-6 5 -5 8 3 8 10 0 9 5 -2 23 -7 12 -19 45 -26 72 -6 28 -17 57 -24 65 -8 8
-21 29 -29 45 -9 17 -16 24 -17 17z"/>
<path d="M7425 5459 c-11 -4 -15 -8 -10 -8 6 -1 4 -5 -3 -9 -9 -6 -2 -14 23
-28 19 -10 35 -25 35 -32 0 -7 5 -10 10 -7 6 3 10 1 10 -5 0 -6 4 -9 10 -5 10
6 40 -45 40 -70 0 -8 6 -15 14 -15 8 0 21 -9 29 -21 11 -15 16 -17 20 -7 3 7
6 3 6 -9 1 -13 5 -23 10 -23 17 0 20 30 6 57 -8 15 -15 35 -15 43 0 9 -8 26
-17 39 -12 18 -13 22 -2 16 8 -4 -2 8 -22 27 -30 29 -59 48 -79 50 -3 0 -14 4
-25 8 -11 4 -29 4 -40 -1z"/>
<path d="M1414 5027 c-21 -25 -23 -56 -3 -62 10 -4 19 -11 19 -17 0 -5 -7 -8
-15 -4 -18 7 -20 -16 -4 -46 9 -16 13 -18 19 -7 7 10 14 10 32 2 22 -11 22
-12 2 -12 -18 -1 -20 -7 -18 -53 1 -29 7 -54 13 -56 6 -2 25 -34 43 -70 17
-37 44 -80 60 -95 15 -16 26 -33 22 -38 -3 -5 0 -9 5 -9 6 0 11 -7 11 -16 0
-8 7 -22 15 -30 8 -8 19 -23 25 -32 7 -13 11 -14 18 -4 14 21 30 -7 27 -46 -1
-18 2 -35 8 -39 7 -4 8 0 3 13 -6 17 -5 17 8 4 8 -8 17 -33 19 -56 3 -39 2
-40 -22 -37 l-26 3 25 -11 c14 -7 29 -11 34 -10 5 1 6 -5 3 -13 -4 -11 -1 -13
10 -9 10 4 14 2 10 -4 -4 -6 7 -27 23 -48 16 -21 27 -42 23 -48 -3 -6 -1 -7 5
-3 7 4 22 -14 38 -46 14 -29 33 -61 42 -70 8 -10 12 -18 9 -18 -3 0 7 -15 24
-32 16 -18 29 -36 29 -41 0 -5 6 -15 13 -22 32 -37 38 -46 32 -55 -3 -6 1 -7
9 -4 9 3 16 1 16 -5 0 -6 7 -11 16 -11 8 0 12 -5 9 -10 -4 -6 8 -15 25 -22 24
-8 29 -13 18 -20 -10 -8 -10 -9 2 -5 26 7 22 33 -10 63 -16 16 -30 35 -30 42
0 7 -4 20 -9 30 -10 18 -18 42 -19 55 0 5 -14 21 -31 36 -22 19 -27 31 -20 38
8 8 7 13 -2 18 -8 5 -10 4 -5 -3 11 -19 -2 -14 -24 8 -18 18 -14 25 13 21 13
-2 8 11 -18 44 -13 18 -21 36 -17 40 4 5 2 5 -4 2 -12 -7 -54 34 -73 70 -13
26 -15 56 -2 49 8 -5 16 12 26 51 2 7 -5 15 -14 18 -10 3 -39 28 -65 55 -26
28 -53 50 -59 50 -8 0 -8 3 -2 8 6 4 17 16 25 27 14 19 14 19 -2 6 -16 -12
-18 -11 -18 3 0 9 5 16 10 16 6 0 4 10 -5 23 -8 13 -12 27 -8 31 5 4 3 7 -2 6
-22 -5 -29 1 -15 11 13 9 12 10 -2 5 -19 -6 -68 45 -68 70 0 9 -3 13 -7 11 -5
-3 -16 11 -26 30 -11 22 -13 32 -5 27 10 -6 11 -5 1 8 -7 8 -9 18 -5 22 4 4 0
6 -8 4 -10 -2 -18 12 -27 47 -7 28 -23 59 -35 69 -17 14 -18 18 -5 13 24 -9
12 9 -15 24 -16 9 -19 8 -12 -3 4 -7 -6 -2 -23 12 -17 14 -31 27 -31 30 0 41
-8 49 -28 27z"/>
<path d="M2831 5020 c0 -8 9 -46 20 -85 11 -38 23 -80 26 -92 3 -13 9 -23 14
-23 12 0 7 -53 -6 -62 -6 -5 -5 -8 4 -8 10 0 11 -3 2 -14 -9 -10 -8 -15 4 -20
8 -3 15 -16 15 -29 0 -23 43 -77 61 -77 5 0 19 10 31 22 14 14 16 19 6 15 -18
-6 -32 18 -21 35 3 7 1 8 -5 4 -6 -3 -16 3 -22 14 -6 11 -7 20 -3 20 4 0 1 5
-7 10 -11 7 -11 10 -2 10 7 0 10 5 7 10 -4 6 -11 8 -16 5 -5 -4 -9 6 -10 22 0
15 -4 37 -8 48 -5 12 -4 26 3 34 7 10 7 13 0 8 -10 -6 -41 59 -36 77 2 4 -2
14 -9 22 -6 7 -8 18 -4 24 4 6 2 9 -4 8 -5 -2 -17 6 -25 17 -11 15 -15 16 -15
5z"/>
<path d="M7290 4648 c-19 -69 -50 -122 -63 -109 -16 16 -23 14 -24 -11 0 -13
1 -17 4 -10 3 6 8 10 13 7 4 -3 -4 -28 -19 -57 -15 -29 -28 -63 -28 -76 -1
-13 -12 -51 -23 -85 -12 -34 -24 -73 -26 -87 -3 -14 -7 -31 -9 -38 -9 -24 16
0 26 25 5 15 13 21 21 17 7 -5 9 -2 6 7 -3 8 1 31 10 50 8 18 16 36 17 39 1 3
20 43 43 90 24 46 40 90 38 97 -3 7 -1 15 3 17 4 3 14 34 21 68 7 35 17 68 23
73 7 7 8 6 3 -2 -4 -7 -2 -13 4 -13 18 0 7 34 -12 38 -12 2 -20 -8 -28 -40z"/>
<path d="M3997 4621 c-2 -11 0 -24 7 -31 8 -8 6 -9 -7 -4 -12 4 -17 2 -15 -7
2 -8 27 -26 55 -40 29 -14 50 -28 47 -31 -2 -3 2 -8 11 -12 11 -4 14 -2 9 7
-5 9 -4 9 7 0 7 -7 24 -13 37 -13 13 0 21 -3 19 -7 -3 -5 16 -8 43 -8 37 0 47
3 45 15 -1 8 3 18 9 22 7 5 6 8 -4 9 -36 2 -54 9 -62 23 -5 9 -16 16 -24 16
-8 0 -31 9 -51 20 -21 11 -48 20 -60 20 -12 0 -25 5 -28 10 -4 6 -11 8 -16 5
-5 -3 -6 1 -3 9 3 9 2 16 -4 16 -5 0 -12 -9 -15 -19z"/>
<path d="M7110 4471 c0 -7 -4 -9 -10 -6 -6 3 -7 -1 -4 -9 3 -9 1 -16 -4 -16
-6 0 -14 -9 -17 -20 -3 -11 -13 -20 -21 -20 -8 0 -13 -3 -12 -7 2 -5 -12 -29
-30 -56 -18 -26 -34 -57 -35 -70 0 -12 -6 -25 -12 -29 -6 -5 -6 -8 3 -8 6 0
12 -8 12 -17 0 -33 -48 -163 -60 -163 -15 0 -18 -39 -4 -44 8 -3 13 -2 12 2
-3 16 15 41 25 35 6 -3 7 -1 3 6 -8 13 45 71 66 71 8 0 7 4 -5 11 -14 8 -16
18 -11 52 4 23 13 46 20 50 8 4 14 16 14 25 0 9 11 34 24 54 18 31 25 35 36
25 12 -10 12 -9 2 4 -12 16 -6 59 9 59 5 0 5 8 2 17 -5 13 -2 15 11 10 12 -5
15 -3 9 6 -4 6 -8 18 -9 25 -3 18 -14 29 -14 13z"/>
<path d="M3250 4424 c8 -10 25 -27 38 -37 12 -10 22 -25 22 -33 0 -8 5 -12 10
-9 6 3 10 -1 10 -10 0 -9 4 -14 8 -11 14 8 53 -24 46 -37 -4 -7 -4 -9 0 -5 5
4 31 -12 60 -35 29 -23 67 -53 86 -67 50 -37 70 -58 70 -76 0 -8 4 -13 9 -9 5
3 16 -1 24 -9 8 -8 17 -12 21 -9 6 6 10 -12 7 -30 0 -4 5 -6 11 -5 8 2 12 -5
10 -18 -2 -15 3 -21 15 -21 35 0 44 -3 38 -13 -3 -5 -1 -11 4 -11 6 -1 16 -2
22 -3 19 -2 40 -38 29 -51 -8 -9 -4 -11 15 -7 14 2 25 0 25 -5 0 -10 90 -59
103 -55 4 1 7 -3 7 -8 0 -5 3 -9 8 -9 22 4 31 -4 29 -27 -1 -15 3 -29 9 -31 6
-2 10 7 10 19 -1 18 4 22 21 20 17 -2 21 1 17 12 -3 9 -13 16 -21 16 -8 0 -12
4 -8 9 3 5 -4 12 -15 16 -11 3 -20 13 -20 21 0 8 -4 14 -10 14 -5 0 -10 5 -10
11 0 5 6 7 13 4 6 -3 2 2 -10 11 -22 16 -33 42 -13 29 6 -3 7 1 4 9 -3 9 -10
16 -15 16 -5 0 -14 12 -19 26 -6 14 -15 22 -20 19 -6 -4 -9 -3 -8 2 4 12 -34
53 -50 53 -18 0 -43 26 -34 35 4 5 2 6 -3 2 -15 -8 -73 54 -70 74 2 12 -3 15
-16 12 -14 -4 -19 0 -19 13 0 16 -2 16 -10 4 -8 -13 -10 -12 -15 1 -4 11 -14
14 -31 11 -27 -5 -29 -13 -13 -45 9 -20 9 -20 -4 -5 -8 10 -17 15 -20 12 -8
-9 -27 32 -19 42 4 5 -2 2 -12 -6 -11 -8 -17 -10 -13 -4 11 19 -47 65 -160
125 -23 12 -40 26 -37 31 3 4 0 8 -5 8 -6 0 -11 -5 -11 -12 0 -6 -8 -3 -19 8
-10 10 -17 22 -14 27 2 4 -2 7 -9 7 -7 0 -24 3 -38 7 -23 6 -24 5 -10 -13z"/>
<path d="M1461 4360 c0 -30 26 -111 42 -130 9 -11 17 -23 17 -27 0 -3 17 -39
37 -80 31 -63 35 -76 23 -85 -12 -8 -12 -9 3 -4 12 4 17 0 17 -12 0 -10 9 -37
20 -60 11 -22 20 -50 20 -62 0 -11 4 -20 10 -20 5 0 7 -7 4 -15 -4 -8 2 -27
12 -43 10 -15 17 -35 16 -44 -2 -10 2 -18 8 -18 6 0 8 5 4 12 -5 7 -3 8 7 2
24 -15 46 -14 59 1 11 13 10 14 -4 9 -9 -3 -16 -1 -16 5 0 6 5 11 11 11 5 0 8
4 5 8 -3 5 1 9 9 9 8 0 15 -4 15 -9 0 -4 17 -7 38 -5 27 1 36 -2 34 -12 -3
-12 0 -12 13 -1 8 7 18 10 22 7 3 -4 13 -1 21 6 13 10 15 9 9 -5 -3 -10 -2
-18 3 -18 13 0 13 10 -1 48 -6 18 -15 29 -20 26 -5 -3 -9 0 -9 5 0 6 -6 11
-14 11 -8 0 -22 10 -30 22 -9 13 -16 17 -16 9 0 -10 -5 -10 -22 3 -13 9 -35
21 -50 27 -27 11 -32 19 -29 49 2 12 0 12 -7 1 -7 -10 -15 -5 -34 20 -14 19
-25 43 -26 55 0 12 -14 35 -31 52 -17 17 -31 38 -31 47 0 9 -4 14 -10 10 -10
-6 -43 37 -38 51 2 5 -1 10 -5 11 -22 5 -48 50 -45 75 3 16 0 28 -5 28 -5 0
-6 7 -3 16 4 11 2 15 -8 11 -8 -3 -17 -1 -20 6 -3 7 -5 6 -5 -3z"/>
<path d="M8724 4335 c-4 -8 -15 -15 -25 -15 -14 0 -19 -7 -20 -27 0 -16 -2
-35 -4 -43 -2 -8 -14 -63 -26 -122 -17 -81 -27 -108 -39 -108 -12 0 -12 -2 -1
-9 9 -6 12 -25 10 -65 -3 -33 0 -56 6 -56 6 0 3 -5 -7 -10 -10 -7 -14 -17 -10
-32 3 -13 1 -19 -5 -15 -6 4 -14 0 -17 -9 -3 -8 -2 -12 4 -9 14 9 12 -1 -5
-35 -15 -30 -11 -90 7 -90 5 0 7 9 3 19 -3 11 1 25 10 34 11 12 12 17 2 20 -6
3 -3 6 8 6 15 1 17 4 7 10 -11 7 -11 11 2 23 8 9 15 24 14 34 -1 17 20 99 56
214 19 61 33 141 40 228 6 69 2 89 -10 57z"/>
<path d="M7432 4183 c-3 -42 -23 -84 -36 -76 -6 3 -4 -2 5 -13 11 -13 15 -32
11 -62 -3 -34 -10 -45 -33 -57 -15 -8 -35 -15 -45 -15 -10 0 -14 -5 -10 -15 3
-8 2 -15 -2 -15 -4 0 -7 -26 -8 -58 0 -31 -7 -73 -16 -92 -8 -19 -16 -59 -17
-89 -1 -49 0 -52 16 -40 11 9 14 10 9 2 -5 -9 -2 -11 9 -7 9 4 14 13 11 20 -3
8 0 13 7 11 7 -1 11 4 9 12 -2 8 3 11 13 8 20 -8 19 3 -2 18 -13 9 -13 14 -3
20 9 5 11 4 6 -3 -8 -13 12 -16 31 -4 16 10 21 48 6 45 -7 -2 -10 4 -6 13 5
13 7 13 15 2 15 -23 54 38 78 123 13 44 26 79 30 79 9 0 33 80 26 88 -3 3 -6
0 -6 -7 0 -7 -4 -10 -8 -7 -5 3 -24 -21 -42 -54 -18 -33 -37 -57 -41 -55 -4 3
-10 -1 -12 -7 -3 -7 -6 2 -6 20 -1 18 3 31 8 28 5 -4 7 11 4 34 -3 22 -2 40 3
40 5 0 10 32 12 70 2 39 -1 70 -5 70 -5 0 -10 -12 -11 -27z"/>
<path d="M4690 3829 c0 -7 -14 -9 -40 -5 -25 3 -39 2 -35 -4 3 -6 -1 -7 -9 -4
-11 4 -16 0 -16 -11 0 -9 -5 -13 -10 -10 -11 7 -9 -39 1 -50 10 -9 134 -13
144 -5 6 5 49 11 97 13 47 3 91 8 97 11 24 15 8 26 -37 26 -68 0 -163 21 -169
37 -6 16 -23 18 -23 2z"/>
<path d="M8500 3675 c0 -16 -2 -17 -9 -6 -8 12 -11 8 -16 -15 -4 -16 -9 -36
-12 -44 -4 -8 -7 -17 -8 -20 -1 -3 -9 -22 -18 -42 -10 -21 -17 -45 -17 -53 0
-9 -5 -26 -12 -38 -6 -12 -12 -33 -13 -47 -4 -56 -17 -110 -26 -105 -5 4 -6 0
-3 -8 7 -20 -65 -157 -83 -157 -16 0 -17 -17 -1 -22 6 -2 24 -2 40 0 26 4 29
7 23 31 -4 14 -3 23 1 19 3 -4 15 3 25 16 33 43 118 248 125 304 3 19 9 43 15
53 13 25 14 98 1 129 -9 21 -11 22 -12 5z"/>
<path d="M7259 3603 c-1 -5 -1 -11 -1 -15 1 -3 -5 -9 -14 -12 -10 -4 -13 -2
-8 6 4 7 3 8 -4 4 -7 -4 -17 -16 -23 -28 -7 -13 -7 -18 -1 -14 18 11 -16 -48
-48 -84 -34 -38 -39 -49 -12 -29 9 7 -1 -7 -24 -32 -22 -24 -46 -56 -54 -71
-15 -32 -27 -35 -33 -10 -3 9 -5 2 -6 -16 -1 -43 -59 -148 -89 -161 -13 -6
-20 -16 -17 -21 3 -6 -1 -10 -10 -10 -9 0 -14 -4 -11 -9 3 -5 -30 -46 -74 -91
-44 -45 -80 -79 -80 -76 0 10 -75 -79 -101 -119 -45 -73 -50 -83 -37 -91 6 -4
8 -3 5 3 -8 13 35 25 58 16 14 -5 16 -2 11 15 -4 11 -2 23 3 27 6 3 8 0 5 -8
-3 -8 2 -20 11 -27 14 -11 16 -11 13 1 -2 8 3 14 10 13 6 -1 18 -2 26 -2 8 -1
16 -12 18 -24 2 -16 9 -22 21 -20 12 2 16 -3 14 -17 -2 -11 -6 -24 -10 -27
-11 -12 -8 -36 4 -29 6 4 8 9 5 12 -3 3 2 12 10 20 8 8 12 19 9 24 -4 5 -2 9
4 9 5 0 18 3 28 6 17 5 17 5 1 -9 -22 -17 -23 -37 -4 -37 8 0 17 -6 20 -12 3
-7 4 -2 3 12 -2 20 4 27 31 35 21 6 31 14 27 23 -2 7 0 10 5 7 10 -6 53 28
101 78 19 21 28 25 32 15 3 -7 6 0 6 15 1 16 5 26 11 22 6 -3 10 1 10 10 0 10
5 13 13 9 6 -4 9 -4 5 1 -4 4 4 28 17 54 14 25 25 53 25 61 1 18 25 52 32 44
3 -3 6 12 6 33 1 37 0 38 -39 40 -21 1 -39 -2 -39 -7 0 -5 6 -7 14 -4 8 3 17
0 22 -7 4 -7 3 -10 -3 -6 -6 4 -14 0 -17 -9 -4 -10 -2 -13 7 -8 6 4 4 -2 -6
-13 -9 -11 -14 -23 -10 -28 5 -4 3 -5 -3 -2 -7 4 -18 -7 -28 -26 -15 -30 -16
-31 -16 -7 -1 22 -2 23 -13 9 -7 -8 -20 -18 -29 -22 -10 -3 -18 -11 -18 -17 0
-6 -5 -8 -12 -4 -6 4 -8 3 -4 -4 11 -17 -75 -81 -106 -78 -21 2 -26 -1 -23
-15 2 -11 -2 -19 -10 -19 -7 0 -16 -6 -18 -12 -4 -10 -6 -10 -6 0 -1 8 -13 0
-27 -17 -14 -17 -30 -29 -34 -26 -5 3 -11 1 -15 -5 -3 -5 -17 -9 -29 -8 -22 2
-23 3 -9 25 9 13 18 22 20 19 3 -3 17 6 32 20 14 13 47 41 73 62 26 20 47 41
48 46 0 5 12 20 26 33 21 19 25 30 20 54 -4 24 0 36 19 55 14 14 28 36 31 49
3 14 9 25 13 25 4 0 15 16 24 36 11 23 22 33 30 28 6 -4 9 -4 5 0 -4 5 2 17
13 29 10 11 19 29 19 39 0 10 4 18 10 18 5 0 23 20 40 45 18 26 36 43 42 39 6
-4 9 -3 5 2 -3 5 5 32 18 59 13 28 24 56 24 62 1 7 13 20 27 29 21 14 27 15
34 4 6 -9 10 -7 15 9 4 13 5 24 3 25 -9 8 -58 15 -59 9z"/>
<path d="M1819 3364 c-6 -8 -8 -14 -3 -14 5 0 10 -12 11 -27 1 -16 11 -34 27
-46 25 -18 35 -50 19 -60 -5 -2 -3 -3 4 -1 6 1 19 -6 29 -17 13 -15 26 -19 45
-15 21 4 29 0 38 -20 6 -14 11 -32 11 -40 0 -8 8 -18 18 -21 9 -4 20 -11 24
-17 5 -7 11 -6 20 3 10 10 10 12 1 7 -8 -5 -14 0 -15 11 0 10 -2 23 -2 30 -1
7 -7 18 -15 25 -12 11 -13 10 -8 -3 3 -9 1 -22 -5 -30 -8 -11 -9 -10 -4 4 3 9
1 17 -5 17 -6 0 -8 7 -5 16 4 10 2 13 -6 8 -7 -5 -9 -2 -6 7 3 8 0 23 -8 34
-17 23 -18 38 -1 30 6 -4 5 -1 -3 7 -8 7 -23 24 -31 38 -9 14 -39 40 -67 57
-43 27 -53 29 -63 17z"/>
<path d="M2240 3019 c0 -6 5 -7 10 -4 6 3 10 1 10 -4 0 -6 -3 -11 -8 -11 -4 0
-12 -16 -18 -35 -9 -27 -8 -39 3 -55 10 -14 11 -20 2 -20 -22 0 11 -28 42 -35
16 -4 37 -17 47 -29 12 -16 27 -22 47 -21 45 3 128 -14 136 -27 13 -20 22 -1
10 20 -6 11 -7 22 -3 26 3 4 -1 4 -9 1 -10 -4 -20 4 -29 22 -8 15 -16 32 -19
37 -2 5 9 6 25 1 16 -4 34 -8 41 -9 7 -1 20 -10 31 -19 10 -9 21 -15 24 -11 3
3 19 -7 34 -21 44 -40 60 -47 74 -30 11 13 10 14 -4 9 -9 -3 -16 -1 -16 4 0 6
-8 13 -18 16 -11 4 -25 17 -32 31 -7 13 -17 22 -22 19 -4 -3 -8 0 -8 6 0 6
-13 16 -29 21 -21 8 -28 15 -24 27 3 12 2 13 -4 4 -7 -9 -22 -10 -56 -3 -31 5
-50 5 -54 -2 -4 -6 -11 -3 -19 7 -7 10 -27 26 -46 36 -18 9 -33 22 -33 28 0 6
-4 14 -9 19 -5 4 -6 3 -3 -3 4 -7 -3 -14 -19 -17 -20 -4 -25 -1 -21 12 3 11
-2 17 -14 18 -11 1 -19 -3 -19 -8z"/>
<path d="M3040 2899 c0 -5 7 -9 15 -9 8 0 15 -5 15 -10 0 -6 16 -27 36 -46 28
-29 33 -38 23 -50 -6 -8 -9 -17 -5 -21 3 -3 6 -1 6 5 0 7 8 12 17 12 9 0 13
-3 9 -7 -8 -9 91 -55 113 -52 30 4 131 -13 131 -22 0 -5 5 -9 11 -9 5 0 7 5 3
12 -5 7 -3 8 7 2 14 -8 18 -10 38 -13 17 -2 4 -36 -15 -40 -16 -3 -17 -1 -4
15 12 16 12 17 0 7 -8 -7 -22 -13 -33 -13 -10 0 -15 -4 -12 -10 3 -5 15 -10
26 -10 10 0 19 -4 19 -9 0 -5 8 -11 18 -15 9 -3 23 -9 30 -12 8 -4 12 3 12 19
0 37 19 38 93 7 36 -15 68 -25 71 -22 4 3 6 0 6 -6 0 -15 -5 -15 -33 -1 -21
10 -21 10 -3 -5 11 -9 25 -16 32 -16 7 0 15 -6 17 -12 8 -18 27 11 20 29 -3 7
0 13 7 13 6 0 8 -5 5 -11 -4 -6 0 -9 8 -7 9 2 15 -1 14 -7 -1 -5 -6 -9 -10 -7
-5 1 -6 -2 -2 -8 4 -6 12 -5 25 2 10 7 16 16 13 21 -3 5 1 13 8 18 11 8 10 12
-5 24 -11 8 -27 15 -37 15 -9 0 -22 7 -29 15 -7 9 -8 15 -2 15 5 0 13 7 16 16
3 8 2 12 -3 9 -6 -3 -14 2 -19 11 -5 9 -12 15 -15 15 -24 -3 -47 0 -44 7 3 4
-7 7 -21 8 -76 3 -182 18 -182 25 0 5 -7 9 -15 9 -8 0 -15 5 -15 12 0 6 -3 8
-6 5 -4 -4 -23 2 -43 12 -59 30 -84 39 -126 46 -44 7 -104 25 -120 36 -17 13
-65 18 -65 8z"/>
<path d="M6178 2469 c-2 -6 -18 -11 -36 -11 -18 -1 -30 -3 -27 -6 9 -9 -29
-31 -55 -32 -14 -1 -19 -4 -12 -7 7 -3 -50 -27 -127 -53 -78 -26 -147 -52
-153 -57 -7 -6 -26 -13 -42 -17 -16 -4 -36 -15 -45 -24 -9 -10 -12 -12 -7 -4
8 11 5 11 -16 1 -19 -8 -24 -17 -20 -31 3 -14 -2 -26 -16 -37 -20 -15 -26 -31
-23 -60 1 -10 4 -11 14 -2 8 6 17 8 20 4 4 -3 7 -1 7 5 0 14 36 25 83 26 34 0
37 2 37 28 0 15 -4 28 -9 28 -5 0 -7 -9 -4 -20 4 -15 0 -20 -16 -20 -13 0 -19
4 -16 10 4 6 11 8 16 5 5 -4 9 -2 9 4 0 5 -5 13 -11 16 -11 7 125 54 211 73
33 8 49 7 59 -1 12 -9 13 -9 7 1 -4 6 -2 12 3 12 6 0 11 -5 11 -12 0 -9 3 -8
13 1 10 11 9 14 -1 18 -6 3 -9 9 -6 15 4 6 13 1 21 -13 11 -19 13 -20 9 -4 -8
29 8 49 33 42 12 -3 19 -1 15 4 -3 5 1 9 8 9 11 0 10 2 0 9 -10 6 -1 16 32 35
26 15 50 25 54 22 4 -3 14 0 22 6 12 8 11 9 -4 4 -15 -5 -16 -4 -8 7 8 10 6
16 -8 25 -12 7 -20 8 -22 1z"/>
<path d="M4832 2218 c-15 -15 -72 -18 -72 -4 0 5 -8 2 -17 -7 -16 -13 -83 -36
-123 -41 -8 -2 -22 -5 -30 -9 -8 -3 -41 -13 -73 -21 -52 -13 -58 -13 -67 2 -5
10 -10 13 -10 7 -1 -5 -3 -17 -5 -26 -3 -19 31 -44 40 -29 4 6 11 7 17 4 19
-12 137 -3 173 12 47 19 66 18 72 -6 6 -24 4 -23 38 -6 15 8 36 13 46 11 12
-2 19 2 19 11 0 9 10 14 30 14 21 0 28 4 24 14 -3 9 3 13 22 12 32 -1 46 -26
15 -26 -11 0 -22 -4 -26 -10 -3 -5 -11 -8 -18 -6 -7 1 -9 1 -4 -1 4 -3 5 -9 1
-14 -3 -5 1 -9 8 -10 7 0 23 -2 35 -3 12 -1 20 1 17 6 -3 4 12 8 33 8 22 0 43
4 49 9 5 5 28 12 52 14 23 2 45 7 49 10 3 4 14 2 24 -4 15 -7 17 -6 13 6 -4 8
-11 15 -18 16 -6 0 -2 4 9 9 19 8 19 9 -2 9 -14 1 -23 7 -23 16 0 12 -8 14
-32 10 -27 -5 -31 -4 -20 6 6 7 12 18 12 24 0 5 -4 4 -8 -2 -6 -9 -17 -10 -41
-3 -19 5 -37 8 -41 5 -3 -2 -39 -7 -80 -10 -40 -3 -78 -9 -84 -12 -6 -4 -5 1
3 10 16 20 11 23 -7 5z"/>
</g>
</svg>
